<?xml version="1.0" standalone="no"?>
<!DOCTYPE svg PUBLIC "-//W3C//DTD SVG 1.1//EN" "http://www.w3.org/Graphics/SVG/1.1/DTD/svg11.dtd" >
<svg xmlns="http://www.w3.org/2000/svg" xmlns:xlink="http://www.w3.org/1999/xlink" version="1.1">
<metadata>
Created by FontForge 20201107 at Thu Oct 16 23:11:22 2025
 By 
Copyright 2015 LATAM Airlines. All Rights Reserved.
</metadata>
<defs>
<font id="LatamSans-HairlineItalic" horiz-adv-x="655" >
  <font-face 
    font-family="Latam Sans Hairline"
    font-weight="250"
    font-style="italic"
    font-stretch="normal"
    units-per-em="2048"
    panose-1="2 11 2 5 3 4 3 2 2 4"
    ascent="1536"
    descent="-512"
    x-height="1024"
    cap-height="1434"
    bbox="-248 -614 2087 2030"
    underline-thickness="0"
    underline-position="0"
    slope="-6"
    unicode-range="U+0020-FB04"
  />
<missing-glyph horiz-adv-x="1228" 
 />
    <glyph glyph-name="ff" unicode="ff" horiz-adv-x="1107" 
d="M229 -242q-16 -150 -74.5 -214t-154.5 -64q-59 0 -104 31l12 20q45 -29 92 -29q90 0 141 63t66 204l129 1226l-252 9l2 20h254l16 150q15 140 106.5 214t244.5 74q50 0 108 -10l-8 -22q-50 10 -102 10q-63 0 -116 -14.5t-97.5 -45t-73.5 -84t-37 -125.5l-16 -147h522
l26 233q15 140 106.5 214.5t244.5 74.5q50 0 108 -10l-8 -23q-55 11 -102 11q-63 0 -116 -14.5t-97.5 -45t-73.5 -84t-37 -125.5l-27 -231h285l-2 -20l-285 -9l-123 -1140q-16 -150 -74.5 -214.5t-154.5 -64.5q-59 0 -104 31l12 20q44 -28 92 -28q90 0 141 62.5t66 203.5
l119 1130h-521z" />
    <glyph glyph-name="fi" unicode="fi" horiz-adv-x="929" 
d="M717 0h-25l109 1024h24zM0 -520q-59 0 -104 31l12 20q45 -29 92 -29q90 0 141 63t66 204l129 1222l-252 13l2 20h254l27 233q17 139 94.5 214t193.5 75q111 0 174.5 -58.5t63.5 -133.5q0 -16 -10 -26.5t-27 -10.5q-15 0 -25 11t-10 26t10 26t25 11q6 0 10 -2
q-11 56 -67 95.5t-146 39.5q-101 0 -174.5 -69.5t-87.5 -199.5l-26 -231h284l-2 -23l-287 -12l-131 -1231q-16 -150 -74.5 -214t-154.5 -64z" />
    <glyph glyph-name="fl" unicode="fl" horiz-adv-x="946" 
d="M0 -520q-59 0 -104 31l12 20q45 -29 92 -29q90 0 141 63t66 204l129 1222l-252 13l2 20h254l27 233q15 140 106 214.5t244 74.5q51 0 108 -10h9l-150 -1411q-4 -40 -4 -57q0 -45 47 -45q33 0 64 14l8 -21q-36 -16 -74 -16q-70 0 -70 63q0 18 4 58l148 1395q-50 8 -92 8
q-63 0 -116 -14.5t-97.5 -45t-73.5 -84t-37 -125.5l-26 -231h284l-2 -23l-287 -12l-131 -1231q-16 -150 -74.5 -214t-154.5 -64z" />
    <glyph glyph-name="ffi" unicode="ffi" horiz-adv-x="1431" 
d="M1219 0h-25l109 1024h24zM229 -242q-16 -150 -74.5 -214t-154.5 -64q-59 0 -104 31l12 20q45 -29 92 -29q90 0 141 63t66 204l129 1226l-252 9l2 20h254l16 150q15 140 96 214t218 74q50 0 108 -10l-8 -22q-50 10 -102 10q-116 0 -193.5 -64t-93.5 -205l-16 -147h485
l27 233q17 139 94.5 214t189.5 75q111 0 172.5 -57.5t61.5 -132.5q0 -16 -10 -26.5t-27 -10.5q-15 0 -25 11t-10 26t10 26t25 11q6 0 10 -2q-8 51 -65.5 92t-143.5 41q-100 0 -172 -69t-86 -200l-27 -231h322l-2 -23l-322 -6l-122 -1140q-16 -150 -75 -214.5t-155 -64.5
q-59 0 -104 31l12 20q44 -28 92 -28q90 0 141 62.5t66 203.5l119 1130h-484z" />
    <glyph glyph-name="ffl" unicode="ffl" horiz-adv-x="1495" 
d="M0 -520q-59 0 -104 31l12 20q45 -29 92 -29q90 0 141 63t66 204l129 1226l-252 9l2 20h254l16 150q15 140 106.5 214t244.5 74q50 0 108 -10l-8 -22q-50 10 -102 10q-63 0 -116 -14.5t-97.5 -45t-73.5 -84t-37 -125.5l-16 -147h522l26 233q15 140 106.5 214.5t244.5 74.5
q50 0 108 -10h10l-149 -1411q-4 -40 -4 -57q0 -45 47 -45q32 0 63 14l9 -21q-36 -16 -74 -16q-70 0 -70 63q0 18 4 58l148 1395q-50 8 -94 8q-63 0 -116 -14.5t-97.5 -45t-73.5 -84t-37 -125.5l-27 -231h285l-2 -20l-285 -9l-123 -1140q-16 -150 -74.5 -214.5t-154.5 -64.5
q-59 0 -104 31l12 20q44 -28 92 -28q90 0 141 62.5t66 203.5l119 1130h-521l-133 -1237q-16 -150 -74.5 -214t-154.5 -64z" />
    <glyph glyph-name="f_b" unicode="fb" horiz-adv-x="1548" 
d="M676 63q104 -51 254 -51q101 0 184.5 40.5t138.5 106.5t93 153t54.5 178t16.5 184q0 94 -24 169.5t-82 126t-144 50.5q-105 0 -203 -93.5t-169.5 -268t-96.5 -396.5zM0 -520q-59 0 -104 31l12 20q45 -29 92 -29q90 0 141 63t66 204l129 1222l-252 13l2 20h254l27 233
q15 140 106 214.5t244 74.5q51 0 108 -10h4l-118 -1075q63 275 188 429t268 154q93 0 156.5 -53t91 -135t27.5 -186t-19 -201.5t-60.5 -185.5t-100.5 -153t-144 -103.5t-186 -38.5q-169 0 -285 59l156 1469q-50 8 -88 8q-63 0 -116 -14.5t-97.5 -45t-73.5 -84t-37 -125.5
l-26 -231h284l-2 -23l-287 -12l-131 -1231q-16 -150 -74.5 -214t-154.5 -64z" />
    <glyph glyph-name="f_f_b" unicode="ffb" horiz-adv-x="2136" 
d="M1264 63q104 -51 254 -51q101 0 184.5 40.5t138.5 106.5t93 153t54.5 178t16.5 184q0 94 -24 169.5t-82 126t-144 50.5q-105 0 -203 -93.5t-169.5 -268t-96.5 -396.5zM0 -520q-59 0 -104 31l12 20q45 -29 92 -29q90 0 141 63t66 204l129 1226l-252 9l2 20h254l16 150
q15 140 106.5 214t244.5 74q50 0 108 -10l-8 -22q-50 10 -102 10q-63 0 -116 -14.5t-97.5 -45t-73.5 -84t-37 -125.5l-16 -147h512l26 233q15 140 109 214.5t252 74.5q64 0 131 -10h22l-119 -1075q63 275 188.5 429t268.5 154q93 0 156.5 -53t91 -135t27.5 -186t-19 -201.5
t-60.5 -185.5t-100.5 -153t-144 -103.5t-186 -38.5q-169 0 -285 59l158 1481l-7 -15q-69 11 -124 11q-136 0 -227 -64.5t-107 -204.5l-27 -231h234l-2 -20l-234 -9l-123 -1140q-16 -150 -74.5 -214.5t-154.5 -64.5q-60 0 -105 31l13 20q44 -28 92 -28q90 0 141 62.5
t66 203.5l118 1130h-510l-133 -1237q-16 -150 -74.5 -214t-154.5 -64z" />
    <glyph glyph-name="f_h" unicode="fh" horiz-adv-x="1521" 
d="M0 -520q-59 0 -104 31l12 20q45 -29 92 -29q90 0 141 63t66 204l129 1222l-252 13l2 20h254l27 233q15 140 106 214.5t244 74.5q51 0 108 -10h11l-80 -745q29 83 86.5 141.5t124 85t137.5 26.5q130 0 208.5 -77.5t78.5 -233.5q0 -9 -5 -71l-69 -662h-25l70 653q4 54 4 78
q0 151 -71.5 221t-194.5 70q-46 0 -91.5 -13t-91 -42.5t-82 -74t-63 -112t-35.5 -151.5l-65 -629h-25l162 1516q-50 8 -94 8q-63 0 -116 -14.5t-97.5 -45t-73.5 -84t-37 -125.5l-26 -231h284l-2 -23l-287 -12l-131 -1231q-16 -150 -74.5 -214t-154.5 -64z" />
    <glyph glyph-name="f_f_h" unicode="ffh" horiz-adv-x="2072" 
d="M0 -520q-59 0 -104 31l12 20q45 -29 92 -29q90 0 141 63t66 204l129 1226l-252 9l2 20h254l16 150q15 140 106.5 214t244.5 74q50 0 108 -10l-8 -22q-50 10 -102 10q-63 0 -116 -14.5t-97.5 -45t-73.5 -84t-37 -125.5l-16 -147h522l26 233q15 140 108 214.5t249 74.5
q28 0 100 -10h16l-79 -745q29 83 86.5 141.5t124 85t137.5 26.5q130 0 208.5 -77.5t78.5 -233.5q0 -9 -5 -71l-69 -662h-25l70 653q4 54 4 78q0 151 -71.5 221t-194.5 70q-46 0 -91.5 -13t-91 -42.5t-82 -74t-63 -112t-35.5 -151.5l-65 -629h-25l162 1513q-69 11 -92 11
q-134 0 -224 -64.5t-106 -204.5l-27 -231h285l-2 -20l-285 -9l-123 -1140q-16 -150 -74.5 -214.5t-154.5 -64.5q-59 0 -104 31l12 20q44 -28 92 -28q90 0 141 62.5t66 203.5l119 1130h-521l-133 -1237q-16 -150 -74.5 -214t-154.5 -64z" />
    <glyph glyph-name="f_k" unicode="fk" horiz-adv-x="1441" 
d="M0 -520q-59 0 -104 31l12 20q45 -29 92 -29q90 0 141 63t66 204l129 1222l-252 13l2 20h254l27 233q15 140 106 214.5t244 74.5q51 0 108 -10h9l-156 -1485l715 973h30l-391 -532l303 -492h-28l-291 469l-338 -459q-7 -10 -19 -10h-12l160 1516q-50 8 -92 8
q-63 0 -116 -14.5t-97.5 -45t-73.5 -84t-37 -125.5l-26 -231h284l-2 -23l-287 -12l-131 -1231q-16 -150 -74.5 -214t-154.5 -64z" />
    <glyph glyph-name="f_f_k" unicode="ffk" horiz-adv-x="2000" 
d="M0 -520q-59 0 -104 31l12 20q45 -29 92 -29q90 0 141 63t66 204l129 1226l-252 9l2 20h254l16 150q15 140 106.5 214t244.5 74q50 0 108 -10l-8 -22q-50 10 -102 10q-63 0 -116 -14.5t-97.5 -45t-73.5 -84t-37 -125.5l-16 -147h522l26 233q15 140 108 214.5t249 74.5
q30 0 102 -10h21l-156 -1485l715 973h30l-391 -532l303 -492h-28l-291 469l-338 -459q-7 -10 -18 -10h-13l160 1513q-69 11 -98 11q-134 0 -224 -64.5t-106 -204.5l-27 -231h285l-2 -20l-285 -9l-123 -1140q-16 -150 -74.5 -214.5t-154.5 -64.5q-59 0 -104 31l12 20
q44 -28 92 -28q90 0 141 62.5t66 203.5l119 1130h-521l-133 -1237q-16 -150 -74.5 -214t-154.5 -64z" />
    <glyph glyph-name="f_j" unicode="fj" horiz-adv-x="884" 
d="M653 -145q-16 -150 -74.5 -214.5t-154.5 -64.5q-60 0 -105 31l13 20q44 -28 92 -28q90 0 141 62.5t66 203.5l123 1159h24zM0 -520q-59 0 -104 31l12 20q45 -29 92 -29q90 0 141 63t66 204l129 1222l-252 13l2 20h254l27 233q17 139 88.5 214t177.5 75q102 0 158.5 -58.5
t56.5 -133.5q0 -16 -10 -26.5t-27 -10.5q-15 0 -25 11t-10 26t10 26t25 11q6 0 10 -2q-10 55 -60.5 95t-129.5 40q-93 0 -159.5 -69t-80.5 -200l-26 -231h284l-2 -23l-287 -12l-131 -1231q-16 -150 -74.5 -214t-154.5 -64z" />
    <glyph glyph-name="f_f_j" unicode="ffj" horiz-adv-x="1431" 
d="M1200 -141q-16 -150 -74.5 -214.5t-154.5 -64.5q-60 0 -105 31l13 20q44 -28 92 -28q90 0 141 62.5t66 203.5l125 1155h24zM229 -242q-16 -150 -74.5 -214t-154.5 -64q-59 0 -104 31l12 20q45 -29 92 -29q90 0 141 63t66 204l129 1226l-252 9l2 20h254l16 150
q15 140 96 214t218 74q50 0 108 -10l-8 -22q-50 10 -102 10q-116 0 -193.5 -64t-93.5 -205l-16 -147h485l27 233q17 139 94.5 214t189.5 75q111 0 172.5 -57.5t61.5 -132.5q0 -16 -10 -26.5t-27 -10.5q-15 0 -25 11t-10 26t10 26t25 11q6 0 10 -2q-8 51 -65.5 92t-143.5 41
q-100 0 -172 -69t-86 -200l-27 -231h322l-2 -23l-322 -6l-131 -1204q-16 -150 -74.5 -214t-154.5 -64q-60 0 -104 30l12 21q45 -29 92 -29q90 0 141 62.5t66 203.5l127 1194h-484z" />
    <glyph glyph-name="f_idieresis" unicode="f&#xef;" horiz-adv-x="913" 
d="M977 1331q0 -15 -11 -26t-26 -11t-26 11t-11 26t11 26t26 11t26 -11t11 -26zM672 0h-25l109 1024h24zM0 -520q-59 0 -104 31l12 20q45 -29 92 -29q90 0 141 63t66 204l129 1222l-252 13l2 20h254l35 299q12 108 63 165.5t127 57.5q150 0 150 -205q0 -15 -11 -25.5
t-26 -10.5t-26 10.5t-11 25.5t11 26t26 11q8 0 12 -2q-5 69 -37 108.5t-90 39.5q-62 0 -107 -52t-57 -151l-34 -297h284l-2 -23l-287 -12l-131 -1231q-16 -150 -74.5 -214t-154.5 -64z" />
    <glyph glyph-name=".notdef" horiz-adv-x="1228" 
 />
    <glyph glyph-name=".null" horiz-adv-x="0" 
 />
    <glyph glyph-name="nonmarkingreturn" horiz-adv-x="682" 
 />
    <glyph glyph-name="space" unicode=" " horiz-adv-x="552" 
 />
    <glyph glyph-name="exclam" unicode="!" horiz-adv-x="397" 
d="M172 238h-20l124 1196h29zM176 25q0 -15 -11 -26t-26 -11t-26 11t-11 26t11 25.5t26 10.5t26 -10.5t11 -25.5z" />
    <glyph glyph-name="quotedbl" unicode="&#x22;" horiz-adv-x="518" 
d="M186 1061h-22l57 373h64zM389 1061h-22l57 373h63z" />
    <glyph glyph-name="numbersign" unicode="#" horiz-adv-x="1128" 
d="M727 506l49 422h-375l-49 -422h375zM666 0l57 481h-375l-57 -481h-25l58 481h-201l4 25h201l49 422h-207l4 24h207l57 482h25l-57 -482h374l58 482h24l-57 -482h201l-5 -24h-200l-49 -422h206l-4 -25h-206l-58 -481h-24z" />
    <glyph glyph-name="dollar" unicode="$" horiz-adv-x="1142" 
d="M510 805l104 -45l105 659q-225 -3 -350 -93.5t-125 -225.5q0 -94 58.5 -162t207.5 -133zM535 6q225 0 340.5 98t115.5 252q0 116 -77.5 196.5t-249.5 156.5l-29 12l-113 -715h13zM530 -18h-12l-35 -224h-24l35 224q-245 10 -433 157l17 21q73 -57 180.5 -102t239.5 -52
l112 725l-106 47q-159 70 -223 143.5t-64 174.5q0 156 135 252t371 96l27 174h24l-26 -174q189 -3 354 -68l-12 -26q-164 69 -347 69l-104 -669l27 -13q95 -43 157.5 -80.5t108.5 -83t66 -98t20 -119.5q0 -80 -28 -146t-85.5 -118t-153 -81t-221.5 -29z" />
    <glyph glyph-name="percent" unicode="%" horiz-adv-x="1452" 
d="M215 0h-31l1037 1395q-111 -35 -310 -35q-41 0 -93 5.5t-88.5 11t-97.5 16t-87 14.5q67 -36 105 -101.5t38 -148.5q0 -117 -82.5 -197.5t-204.5 -80.5q-117 0 -197.5 80.5t-80.5 197.5q0 122 80.5 204.5t197.5 82.5q62 0 240.5 -31t269.5 -31q217 0 357 52v-4
q0 -11 -8 -23zM147 1157q0 -104 75 -179t179 -75q114 0 188.5 74t74.5 180q0 115 -73.5 188.5t-189.5 73.5q-106 0 -180 -74t-74 -188zM1288 258q0 -118 -82.5 -198t-204.5 -80q-117 0 -197.5 80.5t-80.5 197.5q0 122 80.5 204.5t197.5 82.5q123 0 205 -82t82 -205zM748 258
q0 -104 74.5 -179t178.5 -75q114 0 188.5 74t74.5 180q0 115 -73.5 188.5t-189.5 73.5q-106 0 -179.5 -74t-73.5 -188z" />
    <glyph glyph-name="ampersand" unicode="&#x26;" horiz-adv-x="1458" 
d="M1286 -18q-136 54 -305 170q-205 -168 -459 -168q-192 0 -316 100.5t-124 261.5q0 81 27.5 149t79 119.5t111.5 89.5t138 72q-53 138 -53 268q0 179 104 289.5t252 110.5q107 0 179.5 -68.5t72.5 -175.5q0 -55 -15.5 -101.5t-53 -85.5t-69 -66t-97.5 -59t-101.5 -47.5
t-114.5 -47.5q-28 -11 -42 -17q-5 -2 -15.5 -6t-15.5 -6q70 -167 206.5 -316t303.5 -266q116 97 200 237.5t128 315.5l24 -8q-95 -358 -332 -559q158 -108 297 -164zM410 1044q0 -131 51 -258q8 2 26 11q194 77 255 109q169 87 211 201q16 43 16 93q0 97 -65 158t-163 61
q-138 0 -234.5 -103.5t-96.5 -271.5zM522 8q238 0 439 158q-167 121 -304.5 272t-207.5 316q-76 -34 -133 -69.5t-107 -84.5t-76.5 -113t-26.5 -141q0 -153 118 -245.5t298 -92.5z" />
    <glyph glyph-name="quotesingle" unicode="'" horiz-adv-x="315" 
d="M186 1061h-22l57 373h64z" />
    <glyph glyph-name="parenleft" unicode="(" horiz-adv-x="632" 
d="M432 -305h-33q-92 126 -158.5 331t-66.5 453q0 187 40 368t106 324t136 251t144 188h33q-78 -81 -151 -193.5t-138.5 -255.5t-105 -320t-39.5 -354q0 -244 68 -454t165 -338z" />
    <glyph glyph-name="parenright" unicode=")" horiz-adv-x="624" 
d="M14 -305h-34q77 80 151 193t139.5 256.5t105.5 320t40 352.5q0 244 -69 453.5t-167 339.5h31q94 -130 161.5 -333.5t67.5 -451.5q0 -184 -40.5 -366t-106.5 -326t-136.5 -253.5t-142.5 -184.5z" />
    <glyph glyph-name="asterisk" unicode="*" horiz-adv-x="858" 
d="M715 936l-242 147l-27 -282h-24l27 282l-273 -147l-12 18l274 148l-237 149l10 19l240 -150l24 277h25l-25 -277l270 150l11 -19l-273 -149l244 -148z" />
    <glyph glyph-name="plus" unicode="+" horiz-adv-x="1024" 
d="M856 649h-336l-37 -325h-24l37 325h-334l4 25h332l34 315h25l-35 -315h338z" />
    <glyph glyph-name="comma" unicode="," horiz-adv-x="434" 
d="M238 -41q0 -87 -52.5 -154.5t-124.5 -111.5l-10 20q63 42 105.5 103.5t42.5 134.5q0 37 -22 63.5t-58 26.5q1 12 13 21.5t26 9.5q37 0 58.5 -31t21.5 -82z" />
    <glyph glyph-name="hyphen" unicode="-" horiz-adv-x="944" 
d="M776 567h-612l4 25h612z" />
    <glyph glyph-name="period" unicode="." horiz-adv-x="430" 
d="M217 25q0 -15 -11 -26t-26 -11t-26 11t-11 26t11 25.5t26 10.5t26 -10.5t11 -25.5z" />
    <glyph glyph-name="slash" unicode="/" horiz-adv-x="950" 
d="M205 -242h-25l627 1860h24z" />
    <glyph glyph-name="zero" unicode="0" horiz-adv-x="1126" 
d="M1040 819q0 -229 -64.5 -420t-184.5 -305t-273 -114q-136 0 -235.5 84t-149 230t-49.5 337q0 225 68 410.5t191.5 294t277.5 108.5q134 0 230 -83t142.5 -222t46.5 -320zM111 631q0 -178 45 -317.5t138.5 -223.5t223.5 -84q149 0 263.5 113.5t173.5 297t59 402.5
q0 126 -24 233t-71 189.5t-124 129t-177 46.5q-148 0 -265 -107t-179.5 -285.5t-62.5 -393.5z" />
    <glyph glyph-name="one" unicode="1" horiz-adv-x="1126" 
d="M999 0h-874l2 25h426l170 1390l-449 -143l5 24l430 140q20 8 32 8h11l-174 -1419h423z" />
    <glyph glyph-name="two" unicode="2" horiz-adv-x="1126" 
d="M928 0h-862l6 53q10 84 43 159t76 131t109 112t123 94t136 84l201 117q274 157 274 378q0 125 -95.5 208t-289.5 83q-97 0 -196.5 -36t-178.5 -89l-14 19q187 131 393 131q202 0 304 -89t102 -222q0 -74 -24 -137t-70.5 -114t-95.5 -88t-117 -77l-201 -117
q-94 -55 -162.5 -105t-133.5 -116t-104.5 -147.5t-52.5 -176.5l-4 -30h836z" />
    <glyph glyph-name="three" unicode="3" horiz-adv-x="1126" 
d="M418 -20q-89 0 -188 18t-152 39l10 24q155 -57 332 -57q150 0 261 35.5t174.5 97.5t93.5 137.5t30 165.5q0 155 -113.5 234.5t-320.5 79.5h-131l4 22h131q118 0 211 31.5t148.5 85t84.5 118.5t29 138q0 126 -94 199t-289 73q-69 0 -135 -11t-104.5 -23t-98.5 -33l-6 22
q194 68 346 68q201 0 303.5 -79t102.5 -216q0 -141 -97.5 -247.5t-279.5 -137.5q68 -8 126 -29.5t106 -59.5t75 -98t27 -137q0 -96 -32.5 -177t-100 -145.5t-183 -101t-270.5 -36.5z" />
    <glyph glyph-name="four" unicode="4" horiz-adv-x="1126" 
d="M780 483l111 908l-791 -908h680zM1065 459h-262l-58 -459h-24l55 459h-717l2 18l836 957h25l-117 -951h262z" />
    <glyph glyph-name="five" unicode="5" horiz-adv-x="1126" 
d="M403 -20q-95 0 -184 18.5t-145 42.5l8 25q54 -24 143.5 -43t182.5 -19q62 0 125 11.5t130 36t124.5 67.5t103 101t72 142t26.5 185q0 87 -24 155.5t-64 113t-96 73.5t-116 41t-128 12q-82 0 -172 -14.5t-151 -36.5l-23 10l66 533h772l-2 -25h-748l-61 -491
q53 19 142.5 34t182.5 15q71 0 134 -13.5t121 -45t100 -79t67 -120t25 -162.5q0 -125 -40 -225t-103 -162.5t-145.5 -104.5t-162.5 -58.5t-160 -16.5z" />
    <glyph glyph-name="six" unicode="6" horiz-adv-x="1126" 
d="M1004 530q0 -108 -34 -207.5t-94.5 -175.5t-151 -121.5t-196.5 -45.5q-88 0 -158 29.5t-116.5 80t-77 120t-44 146t-13.5 162.5v39q0 101 15 202t45.5 201.5t82.5 187t119.5 153.5t162 105t206.5 38q63 0 116.5 -12.5t79.5 -24.5t62 -33l-19 -24q-99 67 -241 67
q-113 0 -208.5 -43.5t-160.5 -115t-114 -168t-75.5 -195.5t-37.5 -205q68 97 189.5 164.5t260.5 67.5q107 0 187.5 -32.5t126 -89t67 -124t21.5 -146.5zM530 6q133 0 236.5 74.5t157 193.5t53.5 258q0 57 -11 107t-38 98t-69 82.5t-108.5 55t-150.5 20.5
q-142 0 -267.5 -77.5t-185.5 -176.5q-2 -29 -2 -82v-43q0 -78 12 -148.5t40.5 -137.5t71.5 -116t110 -78.5t151 -29.5z" />
    <glyph glyph-name="seven" unicode="7" horiz-adv-x="1126" 
d="M233 0h-24q162 692 792 1409h-901l4 25h936l-2 -17q-77 -86 -148 -172.5t-177 -236t-190.5 -296t-165.5 -337.5t-124 -375z" />
    <glyph glyph-name="eight" unicode="8" horiz-adv-x="1126" 
d="M516 -20q-206 0 -321 92t-115 245q0 86 35 161t97 131t131 96t151 71q-275 86 -275 295q0 157 123.5 265t325.5 108q167 0 273 -84t106 -221q0 -77 -30.5 -142.5t-83.5 -112t-114 -79t-133 -55.5q161 -46 250.5 -134t89.5 -219q0 -180 -141.5 -298.5t-368.5 -118.5z
M559 782l90 -22q75 22 138.5 53.5t118 77t85.5 108.5t31 138q0 125 -98 204.5t-258 79.5q-188 0 -305 -102t-117 -246q0 -115 84 -184.5t231 -106.5zM518 2q216 0 349.5 113t133.5 282q0 244 -366 340l-94 25q-1 0 -15 4q-90 -32 -164.5 -75t-133.5 -98.5t-91.5 -126
t-32.5 -149.5q0 -139 109 -227t305 -88z" />
    <glyph glyph-name="nine" unicode="9" horiz-adv-x="1126" 
d="M522 569q79 0 154.5 22t131 56.5t94.5 67.5t63 65l10 94q6 55 6 109q0 200 -90 317t-275 117q-194 0 -324 -139.5t-130 -345.5q0 -59 11.5 -110.5t38.5 -98.5t67.5 -80.5t102.5 -53.5t140 -20zM426 -20q-167 0 -299 92l18 24q122 -90 283 -90q84 0 151 17.5t131.5 64.5
t111 124t82 201.5t52.5 291.5l5 34q-68 -76 -183.5 -136t-257.5 -60q-81 0 -145.5 20.5t-108 55.5t-73 85t-42.5 106.5t-14 121.5q-1 143 61 260t172.5 184.5t245.5 67.5q195 0 293.5 -123.5t98.5 -335.5q0 -43 -7 -111l-18 -167q-18 -174 -56 -304t-87.5 -210t-118 -128.5
t-138.5 -66.5t-157 -18z" />
    <glyph glyph-name="colon" unicode=":" horiz-adv-x="450" 
d="M281 623q0 -15 -11 -26t-26 -11t-26 11t-11 26t11 25.5t26 10.5t26 -10.5t11 -25.5zM213 186q0 -15 -11 -25.5t-26 -10.5t-26 10.5t-11 25.5t11 26t26 11t26 -11t11 -26z" />
    <glyph glyph-name="semicolon" unicode=";" horiz-adv-x="450" 
d="M281 623q0 -15 -11 -26t-26 -11t-26 11t-11 26t11 25.5t26 10.5t26 -10.5t11 -25.5zM209 -31q0 -79 -52 -140t-124 -101l-10 18q63 38 105 93t42 122q0 34 -22 58t-58 24q1 12 13 20.5t26 8.5q36 0 58 -28.5t22 -74.5z" />
    <glyph glyph-name="less" unicode="&#x3c;" horiz-adv-x="1228" 
d="M967 260l-846 344l4 31l944 344l-4 -29l-911 -332l817 -329z" />
    <glyph glyph-name="equal" unicode="=" horiz-adv-x="1024" 
d="M881 817h-695l4 25h695zM821 481h-694l4 25h694z" />
    <glyph glyph-name="greater" unicode="&#x3e;" horiz-adv-x="1228" 
d="M166 260l4 29l911 332l-817 329l4 29l846 -344l-4 -31z" />
    <glyph glyph-name="question" unicode="?" horiz-adv-x="747" 
d="M145 252h-20l51 385q74 0 143.5 16.5t134 53.5t112.5 92t76.5 138t29.5 185q0 134 -69 216.5t-214 82.5q-101 0 -185 -44.5t-136 -104.5l-17 14q51 64 142 111t200 47q153 0 228 -88t75 -232q0 -105 -29.5 -191.5t-78 -144.5t-114 -98t-135 -58.5t-142.5 -19.5zM141 27
q0 -15 -11 -27t-26 -12t-25.5 12t-10.5 27t10.5 25.5t25.5 10.5t26 -10.5t11 -25.5z" />
    <glyph glyph-name="at" unicode="@" horiz-adv-x="2002" 
d="M870 -440q-331 0 -529 208t-198 558q0 194 54 369t148.5 308.5t219 232t270 149.5t295.5 51q160 0 295.5 -53.5t231 -150.5t149.5 -238t54 -310q0 -123 -22.5 -233t-60.5 -191.5t-87 -141t-104.5 -90t-110.5 -30.5q-96 0 -154.5 84.5t-58.5 241.5q0 46 6 102l30 268
q-57 -337 -175 -525.5t-259 -188.5q-120 0 -192 100.5t-72 281.5q0 150 41.5 279.5t110 216.5t159 136.5t187.5 49.5q135 0 229 -59l4 31l21 10l10 -4l-70 -594q-6 -53 -6 -100q0 -145 53.5 -225t139.5 -80q66 0 129.5 47.5t114 131t81.5 210t31 272.5q0 331 -196 529
t-511 198q-122 0 -241 -35.5t-225 -101t-197 -163t-157 -215.5t-103 -264.5t-37 -305.5q0 -341 192 -541.5t512 -200.5q150 0 273 43l8 -22q-133 -45 -283 -45zM864 4q141 0 257.5 212.5t172.5 565.5l27 172q-84 66 -221 66q-94 0 -180 -47.5t-151.5 -132t-104.5 -210.5
t-39 -272q0 -159 65.5 -256.5t173.5 -97.5z" />
    <glyph glyph-name="A" unicode="A" horiz-adv-x="1138" 
d="M911 535l-204 856l-443 -856h647zM1038 0l-120 510h-666l-264 -510h-29l746 1444h4q12 0 14 -14l342 -1430h-27z" />
    <glyph glyph-name="B" unicode="B" horiz-adv-x="1144" 
d="M471 -20q-90 0 -213 24t-180 53l147 1377h447q220 0 322 -84t102 -226q0 -80 -33.5 -147.5t-89 -112.5t-124 -73t-142.5 -37q173 -14 278 -107t105 -241q0 -65 -15 -121.5t-56.5 -114t-108.5 -98.5t-179.5 -66.5t-259.5 -25.5zM475 6q141 0 248.5 25.5t171 65t103 94.5
t53.5 106.5t14 108.5q0 153 -121.5 244t-368.5 91h-397l4 25h400q126 0 223.5 32t153.5 84.5t84 114t28 127.5q0 48 -13 89t-42.5 77.5t-75 62.5t-115 41t-157.5 15h-420l-142 -1333q58 -28 170 -49t199 -21z" />
    <glyph glyph-name="C" unicode="C" horiz-adv-x="1118" 
d="M979 84q-67 -44 -157.5 -74t-186.5 -30q-164 0 -286 82.5t-184.5 224t-62.5 323.5t54 339t146.5 265t219.5 169t269 61q182 0 325 -107l-16 -20q-57 44 -138 73t-174 29q-186 0 -337.5 -105t-237.5 -290t-86 -412q0 -172 58.5 -308.5t175.5 -218t276 -81.5q92 0 181.5 30
t150.5 72z" />
    <glyph glyph-name="D" unicode="D" horiz-adv-x="1232" 
d="M430 -10q-217 0 -358 67l153 1377h357q291 0 446.5 -148.5t155.5 -419.5q0 -213 -58 -381.5t-160.5 -275.5t-238.5 -163t-297 -56zM430 16q155 0 286.5 54.5t230.5 158.5t154.5 267.5t55.5 369.5q0 256 -147 399.5t-432 143.5h-330l-148 -1331q124 -62 330 -62z" />
    <glyph glyph-name="E" unicode="E" horiz-adv-x="1071" 
d="M907 0h-835l153 1434h858l-4 -25h-831l-70 -649h744l-2 -25h-744l-76 -710h809z" />
    <glyph glyph-name="F" unicode="F" horiz-adv-x="1005" 
d="M96 0h-24l153 1434h834l-4 -25h-809l-70 -649h678l-2 -25h-678z" />
    <glyph glyph-name="G" unicode="G" horiz-adv-x="1228" 
d="M1014 63q-5 -3 -14 -8t-40.5 -17.5t-67.5 -22t-93.5 -17.5t-118.5 -8q-273 0 -425.5 178t-152.5 473q0 180 53.5 331t148 254.5t226.5 160.5t285 57q62 0 123 -13t104 -32t77.5 -37.5t51.5 -31.5l17 -13l-14 -21q-6 5 -17 13.5t-47.5 29.5t-76 37t-99.5 29.5t-121 13.5
q-200 0 -356.5 -98.5t-243 -275.5t-86.5 -402q0 -182 62.5 -322.5t190 -223.5t302.5 -83q186 0 309 66l70 649h24z" />
    <glyph glyph-name="H" unicode="H" horiz-adv-x="1288" 
d="M98 0h-26l153 1434h27l-74 -668h948l72 668h27l-154 -1434h-27l80 741h-948z" />
    <glyph glyph-name="I" unicode="I" horiz-adv-x="315" 
d="M117 0h-25l154 1434h24z" />
    <glyph glyph-name="J" unicode="J" horiz-adv-x="739" 
d="M608 449q-14 -123 -52.5 -215t-97.5 -146.5t-130 -81t-156 -26.5q-98 0 -172 38l4 29q71 -39 172 -39q165 0 274 108t134 335l106 983h25z" />
    <glyph glyph-name="K" unicode="K" horiz-adv-x="1040" 
d="M901 0l-721 774l-82 -774h-26l153 1434h27l-66 -619l744 619h43l-776 -639l739 -795h-35z" />
    <glyph glyph-name="L" unicode="L" horiz-adv-x="962" 
d="M860 0h-788l153 1434h25l-152 -1409h764z" />
    <glyph glyph-name="M" unicode="M" horiz-adv-x="1642" 
d="M799 293l-238 1118l-471 -1411h-29l484 1444h10q15 0 21.5 -6.5t9.5 -22.5l237 -1116l572 1145h12q14 0 20 -7t7 -26l75 -1411h-26l-76 1413l-569 -1147h-15q-19 0 -24 27z" />
    <glyph glyph-name="N" unicode="N" horiz-adv-x="1308" 
d="M1069 14l-823 1370l-146 -1384h-28l155 1444h6q11 0 17 -12l823 -1369l144 1371h28l-153 -1434h-5q-10 0 -18 14z" />
    <glyph glyph-name="O" unicode="O" horiz-adv-x="1292" 
d="M1243 797q0 -165 -46.5 -314t-128 -260.5t-200.5 -177t-256 -65.5q-235 0 -372.5 176t-137.5 458q0 227 81 416.5t228 301.5t328 112q159 0 274.5 -85t172.5 -230t57 -332zM129 614q0 -172 55.5 -308.5t167 -218t262.5 -81.5q108 0 203.5 41.5t167.5 116t125 173.5
t80 217t27 243q0 130 -30.5 241.5t-88.5 196.5t-151.5 133.5t-211.5 48.5q-130 0 -244 -65t-193 -175t-124 -256.5t-45 -306.5z" />
    <glyph glyph-name="P" unicode="P" horiz-adv-x="1124" 
d="M496 547q267 0 418 134.5t151 356.5q0 80 -22 144.5t-69.5 116.5t-131.5 81t-199 29h-393l-84 -803q55 -22 149.5 -40.5t180.5 -18.5zM102 4l-30 -4l153 1434h422q231 0 338 -108t107 -288q0 -235 -158 -376.5t-442 -141.5q-86 0 -177 18.5t-151 41.5z" />
    <glyph glyph-name="Q" unicode="Q" horiz-adv-x="1292" 
d="M129 614q0 -172 55.5 -308.5t167 -218t262.5 -81.5q108 0 203.5 41.5t167.5 116t125 173.5t80 217t27 243q0 130 -30.5 241.5t-88.5 196.5t-151.5 133.5t-211.5 48.5q-131 0 -245 -65t-192.5 -175t-123.5 -256.5t-45 -306.5zM1149 -127l-4 -29q-112 6 -220 20.5
t-239 44.5t-243 86t-179 132q-162 179 -162 487q0 227 81 416.5t228 301.5t328 112q159 0 274.5 -85t172.5 -230t57 -332q0 -165 -46.5 -314t-128 -260.5t-200.5 -177t-256 -65.5q-53 0 -94 8q249 -97 631 -115z" />
    <glyph glyph-name="R" unicode="R" horiz-adv-x="1124" 
d="M1034 0h-30l-314 565q-98 -20 -198 -20q-85 0 -176 18.5t-150 40.5l-64 -600l-30 -4l153 1434h428q117 0 203.5 -29t137 -82t74.5 -120.5t24 -151.5q0 -178 -97.5 -303.5t-277.5 -174.5zM496 571q269 0 419 130.5t150 349.5q0 77 -21.5 139.5t-68 113t-129.5 78
t-197 27.5h-399l-82 -778q60 -23 151.5 -41.5t176.5 -18.5z" />
    <glyph glyph-name="S" unicode="S" horiz-adv-x="1142" 
d="M1018 356q0 -80 -28 -146t-85.5 -118t-153 -81t-221.5 -29q-267 0 -469 157l17 21q76 -61 194.5 -107.5t262.5 -46.5q225 0 340.5 98t115.5 252q0 116 -77.5 196.5t-249.5 156.5l-160 69q-159 70 -223 143.5t-64 174.5q0 157 137 252.5t381 95.5q199 0 367 -68l-12 -26
q-164 69 -355 69q-233 0 -362 -90.5t-129 -228.5q0 -94 58.5 -162t207.5 -133l156 -68q95 -43 157.5 -80.5t108.5 -83t66 -98t20 -119.5z" />
    <glyph glyph-name="T" unicode="T" horiz-adv-x="995" 
d="M442 0h-26l149 1399l-477 14l2 21h983l-2 -21l-479 -14z" />
    <glyph glyph-name="U" unicode="U" horiz-adv-x="1232" 
d="M1104 618q-34 -336 -167.5 -482t-381.5 -146q-71 0 -134 16.5t-119.5 53.5t-97.5 92t-65 136.5t-24 182.5q0 37 8 119l86 844h27l-86 -848q-9 -88 -9 -113q0 -118 33.5 -208t91.5 -143.5t130.5 -79.5t156.5 -26q238 0 365 142.5t159 459.5l82 816h29z" />
    <glyph glyph-name="V" unicode="V" horiz-adv-x="1218" 
d="M545 -10h-6q-8 0 -11 8l-354 1436h10q18 0 25 -23l334 -1358l706 1381h31z" />
    <glyph glyph-name="W" unicode="W" horiz-adv-x="1955" 
d="M1368 8l-285 1376l-594 -1396h-10q-15 0 -18 18l-256 1428h10q21 0 25 -21l241 -1374l590 1395h10q22 0 25 -19l283 -1372l548 1391h29l-567 -1446h-10q-18 0 -21 20z" />
    <glyph glyph-name="X" unicode="X" horiz-adv-x="1058" 
d="M868 14l-313 688l-508 -702h-35l527 731l-326 703h14q17 0 23 -13l309 -663l490 676h34l-510 -705l334 -729h-18q-14 0 -21 14z" />
    <glyph glyph-name="Y" unicode="Y" horiz-adv-x="1218" 
d="M541 0h-25l45 436l-387 998h12q15 0 21 -17l371 -952l675 969h27l-694 -1002z" />
    <glyph glyph-name="Z" unicode="Z" horiz-adv-x="1069" 
d="M932 0h-907v6q0 18 12 35l1007 1368h-811l5 25h841v-4q0 -14 -8 -25l-1012 -1380h877z" />
    <glyph glyph-name="bracketleft" unicode="[" horiz-adv-x="604" 
d="M338 -352l-2 -25h-172l217 2067h172l-2 -25h-150l-208 -2017h145z" />
    <glyph glyph-name="backslash" unicode="\" horiz-adv-x="950" 
d="M831 -242h-24l-627 1860h25z" />
    <glyph glyph-name="bracketright" unicode="]" horiz-adv-x="573" 
d="M193 -377h-173l3 25h149l209 2017h-145l2 25h172z" />
    <glyph glyph-name="underscore" unicode="_" horiz-adv-x="1021" 
d="M807 -25h-694l4 25h694z" />
    <glyph glyph-name="grave" unicode="`" horiz-adv-x="702" 
d="M528 1139h-32l-265 217h19q15 0 33 -15z" />
    <glyph glyph-name="a" unicode="a" horiz-adv-x="983" 
d="M344 4q149 0 272 213t179 565l26 172q-84 66 -231 66q-95 0 -183 -47.5t-155.5 -132t-107.5 -210.5t-40 -272q0 -159 65 -256.5t175 -97.5zM719 0l82 700q-60 -341 -184 -530.5t-273 -189.5q-121 0 -192.5 100.5t-71.5 281.5q0 150 42.5 279.5t112.5 216.5t162 136.5
t191 49.5q145 0 239 -59l4 31l21 10l10 -4l-119 -1022h-24z" />
    <glyph glyph-name="b" unicode="b" horiz-adv-x="991" 
d="M375 -12q-169 0 -285 59l158 1489h24l-118 -1075q63 275 188 429t268 154q93 0 156.5 -53t91 -135t27.5 -186t-19 -201.5t-60.5 -185.5t-100.5 -153t-144 -103.5t-186 -38.5zM119 63q104 -51 254 -51q101 0 184.5 40.5t138.5 106.5t93 153t54.5 178t16.5 184
q0 94 -24 169.5t-82 126t-144 50.5q-105 0 -203 -93.5t-169.5 -268t-96.5 -396.5z" />
    <glyph glyph-name="c" unicode="c" horiz-adv-x="825" 
d="M707 86q-143 -106 -285 -106q-89 0 -156 34.5t-107 96.5t-59.5 140.5t-19.5 172.5q0 96 17 185.5t53.5 169t89 138t127 93t163.5 34.5q82 0 154 -33.5t117 -86.5l-17 -17q-100 115 -258 115q-105 0 -188.5 -52t-133 -139t-75 -190.5t-25.5 -214.5q0 -69 10.5 -130.5
t35 -116t60.5 -93.5t90.5 -61.5t121.5 -22.5q74 0 146 30t126 72z" />
    <glyph glyph-name="d" unicode="d" horiz-adv-x="983" 
d="M354 12q74 0 145 59t134 172.5t112 297.5t74 417q-85 62 -227 62q-96 0 -184.5 -47.5t-155.5 -132t-107.5 -210.5t-40.5 -272q0 -156 68 -251t182 -95zM719 0l82 702q-59 -337 -180 -525.5t-267 -188.5q-124 0 -199 98.5t-75 275.5q0 150 42.5 279.5t113 216.5
t162.5 136.5t192 49.5q142 0 233 -57l58 549h24l-162 -1536h-24z" />
    <glyph glyph-name="e" unicode="e" horiz-adv-x="903" 
d="M389 455q75 0 147 22t131.5 63t95.5 107t36 146q0 99 -67 164t-183 65q-113 0 -207.5 -67t-152.5 -176t-76 -240q108 -84 276 -84zM725 86q-49 -42 -125.5 -74t-161.5 -32q-92 0 -162.5 36t-112.5 99t-62.5 142t-20.5 173q0 121 34.5 232.5t94.5 196t149.5 135
t192.5 50.5q124 0 198 -71t74 -180q0 -86 -38.5 -156.5t-101 -114t-139 -67t-155.5 -23.5q-81 0 -155.5 21.5t-124.5 60.5q-5 -67 -5 -82q0 -69 11 -130t36.5 -116.5t63.5 -96t95.5 -64t129.5 -23.5q79 0 154.5 32t118.5 70z" />
    <glyph glyph-name="f" unicode="f" horiz-adv-x="561" 
d="M229 -242q-16 -150 -74.5 -214t-154.5 -64q-59 0 -104 31l12 20q45 -29 92 -29q90 0 141 63t66 204l129 1222l-252 13l2 20h254l27 233q15 140 106 214.5t244 74.5q51 0 108 -10l-8 -23q-55 11 -102 11q-63 0 -116 -14.5t-97.5 -45t-73.5 -84t-37 -125.5l-26 -231h284
l-2 -23l-287 -12z" />
    <glyph glyph-name="g" unicode="g" horiz-adv-x="925" 
d="M315 -522q-161 0 -253.5 80.5t-92.5 212.5q0 63 26 122t65.5 103.5t92.5 84t101.5 65t97.5 44.5l-55 29q-64 31 -64 74q0 48 76 78l129 55h-12q-122 0 -194 78t-72 196q0 153 102.5 248.5t247.5 95.5q81 0 145 -36l275 71l8 -24l-33 -11l-227 -53q100 -71 100 -207
q0 -229 -272 -348l-187 -84q-36 -17 -48.5 -29t-12.5 -30q0 -28 47 -51l189 -99q144 -76 204 -146.5t60 -176.5q0 -149 -129.5 -245.5t-313.5 -96.5zM184 696q0 -105 67.5 -177.5t180.5 -72.5q24 0 62.5 13t83.5 41t84.5 66t65.5 95t26 121q0 101 -66 169.5t-180 68.5
q-135 0 -229.5 -90t-94.5 -234zM317 -498q170 0 292 90.5t122 223.5q0 100 -52.5 167t-191.5 138l-110 57q-64 -24 -126.5 -59.5t-122.5 -86t-97 -119t-37 -142.5q0 -123 87 -196t236 -73z" />
    <glyph glyph-name="h" unicode="h" horiz-adv-x="964" 
d="M180 629l-65 -629h-25l164 1536h25l-80 -745q29 83 86.5 141.5t124 85t137.5 26.5q130 0 208.5 -77.5t78.5 -233.5q0 -9 -5 -71l-69 -662h-25l70 653q4 54 4 78q0 151 -71.5 221t-194.5 70q-46 0 -91.5 -13t-91 -42.5t-82 -74t-63 -112t-35.5 -151.5z" />
    <glyph glyph-name="i" unicode="i" horiz-adv-x="319" 
d="M283 1331q0 -15 -11 -26t-26 -11t-26 11t-11 26t11 26t26 11t26 -11t11 -26zM115 0h-25l109 1024h24z" />
    <glyph glyph-name="j" unicode="j" horiz-adv-x="317" 
d="M281 1331q0 -15 -11 -26t-26 -11t-26 11t-11 26t11 26t26 11t26 -11t11 -26zM86 -242q-16 -150 -74.5 -214t-154.5 -64q-60 0 -105 31l12 20q45 -29 93 -29q90 0 140.5 63t65.5 204l134 1255h24z" />
    <glyph glyph-name="k" unicode="k" horiz-adv-x="884" 
d="M121 10q-7 -10 -19 -10h-12l162 1536h24l-155 -1485l715 973h30l-391 -532l303 -492h-28l-291 469z" />
    <glyph glyph-name="l" unicode="l" horiz-adv-x="389" 
d="M242 16q-36 -16 -74 -16q-70 0 -70 63q0 18 4 58l150 1415h24l-149 -1411q-4 -40 -4 -57q0 -45 47 -45q31 0 63 14z" />
    <glyph glyph-name="m" unicode="m" horiz-adv-x="1597" 
d="M180 629l-65 -629h-25l109 1024h10q10 0 10 -16l-18 -207q45 117 140.5 180t203.5 63q123 0 200 -70.5t84 -213.5q36 137 135.5 210.5t213.5 73.5q131 0 209.5 -77.5t78.5 -233.5q0 -21 -4 -71l-69 -662h-25l70 653q4 54 4 78q0 151 -71.5 221t-196.5 70
q-55 0 -108.5 -20.5t-103 -61.5t-86.5 -114.5t-51 -168.5l-69 -657h-25l70 653q4 54 4 78q0 151 -71 221t-193 70q-58 0 -114 -21.5t-108.5 -65.5t-90 -123.5t-48.5 -182.5z" />
    <glyph glyph-name="n" unicode="n" horiz-adv-x="964" 
d="M180 629l-65 -629h-25l109 1024h10q10 0 10 -16l-18 -213q44 120 140.5 184.5t205.5 64.5q130 0 208.5 -77.5t78.5 -233.5q0 -9 -5 -71l-69 -662h-25l70 653q4 54 4 78q0 151 -71.5 221t-194.5 70q-46 0 -91.5 -13t-91 -42.5t-82 -74t-63 -112t-35.5 -151.5z" />
    <glyph glyph-name="o" unicode="o" horiz-adv-x="966" 
d="M866 616q0 -174 -56 -318.5t-159.5 -231t-234.5 -86.5q-165 0 -250.5 116t-85.5 310q0 173 57.5 318.5t163 232.5t236.5 87q161 0 245 -118t84 -310zM104 406q0 -117 32.5 -206t104.5 -143.5t177 -54.5q124 0 222.5 85.5t150 224.5t51.5 304q0 117 -30.5 206t-101 144.5
t-175.5 55.5q-124 0 -223.5 -85t-153.5 -225.5t-54 -305.5z" />
    <glyph glyph-name="p" unicode="p" horiz-adv-x="1003" 
d="M133 82q88 -70 254 -70q101 0 184 40.5t137.5 106.5t92.5 153t54.5 178t16.5 184q0 94 -23.5 169.5t-81 126t-142.5 50.5q-105 0 -203.5 -93.5t-170.5 -268t-97 -396.5zM129 53l-59 -565h-25l160 1536h8q17 0 14 -27l-59 -534q63 274 188.5 427.5t268.5 153.5
q91 0 154 -53t90.5 -135t27.5 -186t-19 -201.5t-60 -185.5t-99.5 -153t-143.5 -103.5t-186 -38.5q-182 0 -260 65z" />
    <glyph glyph-name="q" unicode="q" horiz-adv-x="983" 
d="M700 -512h-24l129 1239q-57 -348 -179 -543.5t-270 -195.5q-125 0 -200.5 98.5t-75.5 275.5q0 150 42.5 279.5t112.5 216.5t162 136.5t191 49.5q141 0 239 -59l4 31l21 10l10 -4zM356 12q144 0 263.5 210t175.5 560l26 172q-84 66 -231 66q-95 0 -183 -47.5t-155.5 -132
t-107.5 -210.5t-40 -272q0 -156 68.5 -251t183.5 -95z" />
    <glyph glyph-name="r" unicode="r" horiz-adv-x="630" 
d="M115 0h-25l109 1024h10q13 0 10 -16l-31 -312q47 169 139 258.5t193 89.5q45 0 81.5 -19t55.5 -52l-18 -15q-31 64 -121 64q-42 0 -84.5 -18.5t-86 -61t-79.5 -105t-64 -159.5t-40 -215z" />
    <glyph glyph-name="s" unicode="s" horiz-adv-x="778" 
d="M645 264q0 -126 -88 -205t-250 -79q-179 0 -278 86l14 22q42 -37 110.5 -60.5t155.5 -23.5q147 0 229.5 72.5t82.5 185.5q0 94 -58 153t-176 109l-29 13q-137 58 -189 109t-52 140q0 114 88.5 186t255.5 72q114 0 219 -45l-10 -22q-103 43 -213 43q-153 0 -234.5 -65.5
t-81.5 -168.5q0 -43 14 -75.5t46 -59.5t69.5 -47t98.5 -45l24 -10q128 -53 190 -117.5t62 -167.5z" />
    <glyph glyph-name="t" unicode="t" horiz-adv-x="538" 
d="M434 39q-22 -18 -57.5 -28.5t-63.5 -10.5q-176 0 -176 215q0 18 4 72l74 704l-178 15l2 18h180l31 305h24l-30 -305h309l-2 -18l-311 -17l-74 -692q-4 -58 -4 -78q0 -104 37.5 -150t115.5 -46q60 0 109 36z" />
    <glyph glyph-name="u" unicode="u" horiz-adv-x="966" 
d="M698 0l70 664q-60 -323 -182 -503.5t-267 -180.5q-103 0 -166 73.5t-63 220.5q0 97 16 228l64 522h25l-64 -514q-16 -134 -16 -234q0 -140 57 -206t150 -66q148 0 271.5 214.5t174.5 563.5l35 242h26l-106 -1024h-25z" />
    <glyph glyph-name="v" unicode="v" horiz-adv-x="851" 
d="M385 -20h-6q-14 0 -17 16l-241 1028h6q20 0 27 -23l227 -968l446 991h27z" />
    <glyph glyph-name="w" unicode="w" horiz-adv-x="1341" 
d="M928 -4l-199 993l-385 -1009h-4q-11 0 -14 16l-205 1028h6q20 0 23 -18l190 -971l381 989h12q12 0 15 -12l194 -981l379 993h22l-397 -1044h-6q-9 0 -12 16z" />
    <glyph glyph-name="x" unicode="x" horiz-adv-x="870" 
d="M721 8l-291 502l-416 -510h-32l436 532l-293 492h18q14 0 19 -10l272 -461l391 471h33l-409 -494l309 -530h-21q-11 0 -16 8z" />
    <glyph glyph-name="y" unicode="y" horiz-adv-x="937" 
d="M352 -520q-72 0 -144 26.5t-116 67.5l12 20q110 -92 248 -92q140 0 219.5 85t100.5 276l84 799q-61 -322 -180.5 -502t-262.5 -180q-101 0 -162 73.5t-61 220.5q0 97 16 228l64 522h25l-64 -514q-16 -134 -16 -234q0 -140 54.5 -206t145.5 -66q97 0 185.5 96.5t155 273.5
t100.5 408l35 242h26l-123 -1171q-22 -202 -110 -287.5t-232 -85.5z" />
    <glyph glyph-name="z" unicode="z" horiz-adv-x="763" 
d="M627 0h-631v4q0 7 12 27l682 968h-547l4 25h580v-6q0 -11 -8 -23l-686 -970h598z" />
    <glyph glyph-name="braceleft" unicode="{" horiz-adv-x="710" 
d="M403 -383q-16 -4 -32 -4q-181 0 -181 213q0 103 56.5 337.5t56.5 323.5q0 68 -21.5 107t-64.5 39h-53l4 26h53q37 0 64.5 28.5t42.5 79t21.5 109.5t6.5 130q0 43 -4 129.5t-4 128.5q0 415 248 415q17 0 33 -4l-2 -16q-129 0 -191.5 -92t-62.5 -310q0 -42 4 -128t4 -128
q0 -81 -9 -144.5t-22.5 -101.5t-31.5 -63t-34 -34.5t-32 -10.5v-2q31 -4 53.5 -41t22.5 -117q0 -85 -56.5 -321t-56.5 -338q0 -111 48.5 -153t142.5 -42z" />
    <glyph glyph-name="bar" unicode="|" horiz-adv-x="929" 
d="M397 -242h-24l200 1860h25z" />
    <glyph glyph-name="braceright" unicode="}" horiz-adv-x="618" 
d="M272 66q0 -112 -13.5 -194t-35 -131t-55 -78.5t-67.5 -39.5t-78 -10q-17 0 -33 4l2 16q141 0 198.5 97.5t57.5 341.5q0 48 -5 139.5t-5 134.5q0 150 40.5 222.5t88.5 76.5v2q-30 2 -53 39.5t-23 118.5q0 90 56 322.5t56 336.5q0 111 -48.5 153t-141.5 42l2 16q16 4 33 4
q180 0 180 -213q0 -99 -56.5 -334t-56.5 -327q0 -68 23.5 -107t69.5 -39h47l-4 -26h-43q-75 0 -110.5 -82t-35.5 -217q0 -43 5 -133.5t5 -134.5z" />
    <glyph glyph-name="exclamdown" unicode="&#xa1;" horiz-adv-x="409" 
d="M287 999q0 -15 -11 -25.5t-26 -10.5t-26 10.5t-11 25.5t11 26t26 11t26 -11t11 -26zM100 -512h-28l145 1298h21z" />
    <glyph glyph-name="cent" unicode="&#xa2;" horiz-adv-x="905" 
d="M457 170h-11l-18 -190h-25l19 192q-150 13 -224.5 135t-74.5 307q0 119 26.5 227.5t77.5 196t134 141t188 56.5l22 209h25l-23 -209q74 -3 140.5 -36.5t109.5 -84.5l-16 -16q-99 114 -250 114q-83 0 -152 -34.5t-116 -92.5t-79.5 -135.5t-47.5 -161.5t-15 -172t17.5 -162
t53 -133.5t96.5 -93.5t143 -34q126 0 260 102l12 -19q-142 -106 -272 -106z" />
    <glyph glyph-name="sterling" unicode="&#xa3;" horiz-adv-x="1128" 
d="M981 25l-2 -25h-954l2 25h90q152 0 258 96.5t125 255.5q6 41 6 76q0 21 -4 53h-312l5 24h303q-22 98 -125 201l-60 57q-62 62 -96.5 124.5t-34.5 140.5q0 27 2 41q21 162 164 256t350 94q118 0 200.5 -21t160.5 -59l-8 -23q-174 78 -357 78q-192 0 -327.5 -86
t-155.5 -239q-2 -16 -2 -45q0 -67 29.5 -122.5t95.5 -121.5l55 -55q60 -60 92.5 -111t44.5 -109h346l-4 -24h-338q2 -16 2 -49q0 -37 -6 -80q-17 -137 -95.5 -231.5t-180.5 -120.5h731z" />
    <glyph glyph-name="currency" unicode="&#xa4;" horiz-adv-x="1228" 
d="M1022 172l-182 184q-103 -100 -242 -100q-138 0 -229 94l-176 -178l-17 18l176 177q-92 100 -92 227q0 142 100 242l-184 182l19 16l182 -182q102 96 241 96q130 0 226 -90l176 176l18 -16l-178 -176q92 -95 92 -228q0 -139 -96 -241l182 -183zM379 375q92 -92 219 -92
q133 0 231 98q99 99 99 231q0 127 -92 219q-93 93 -220 93q-132 0 -231 -99q-98 -98 -98 -231q0 -127 92 -219z" />
    <glyph glyph-name="yen" unicode="&#xa5;" horiz-adv-x="1218" 
d="M874 223h-311l-22 -223h-25l23 223h-312l4 25h312l18 184h-307l4 25h305l6 63l-395 914h27l385 -887l667 887h27l-686 -918l-6 -59h317l-4 -25h-315l-19 -184h312z" />
    <glyph glyph-name="brokenbar" unicode="&#xa6;" horiz-adv-x="929" 
d="M510 805h-25l88 813h25zM397 -242h-24l88 813h24z" />
    <glyph glyph-name="section" unicode="&#xa7;" horiz-adv-x="1228" 
d="M524 248q82 -97 125 -169.5t53 -152.5q92 29 146.5 107.5t69.5 179.5q4 36 4 51q0 67 -28 136t-60 114t-91 117l-139 164q-100 120 -121 217q-97 -23 -152.5 -95t-68.5 -165q-2 -16 -2 -47q0 -85 33.5 -153t91.5 -136zM360 -512q-70 0 -133 31t-108 80l20 20
q39 -44 98 -75t128 -31q138 0 217 86.5t96 214.5q4 36 4 51q0 97 -44.5 178.5t-133.5 187.5l-139 164q-64 78 -98 147.5t-34 155.5q0 11 5 56q14 101 77.5 180t161.5 100q-4 36 -4 62q0 17 4 57q8 56 32.5 107t64 92.5t99 66.5t130.5 25q99 0 192 -76l-14 -20q-42 35 -83 53
t-99 18q-131 0 -207.5 -79t-89.5 -189q-4 -36 -4 -51q0 -83 33.5 -148.5t91.5 -136.5l141 -168q47 -57 74.5 -94.5t55 -86t40 -96t12.5 -100.5q0 -17 -4 -57q-16 -113 -75 -196.5t-160 -114.5v-27q0 -11 -5 -61q-19 -140 -106 -233t-236 -93z" />
    <glyph glyph-name="dieresis" unicode="&#xa8;" horiz-adv-x="782" 
d="M322 1292q0 -20 -13 -32.5t-33 -12.5t-32.5 12.5t-12.5 32.5t12.5 32.5t32.5 12.5t33 -12.5t13 -32.5zM604 1292q0 -20 -12.5 -32.5t-32.5 -12.5t-32.5 12.5t-12.5 32.5t12.5 32.5t32.5 12.5t32.5 -12.5t12.5 -32.5z" />
    <glyph glyph-name="copyright" unicode="&#xa9;" horiz-adv-x="1744" 
d="M1642 711q0 -152 -56.5 -287.5t-153 -233t-232 -154t-287.5 -56.5t-287.5 56.5t-232 154t-153 233t-56.5 287.5t56.5 288t153 233.5t232 154.5t287.5 57t287.5 -57t232 -154.5t153 -233.5t56.5 -288zM211 711q0 -195 93 -357t254 -255t355 -93q145 0 275 55t224 148.5
t149 224.5t55 277t-55 277t-149 225t-224 149t-275 55q-194 0 -355 -93t-254 -255.5t-93 -357.5zM1171 317q-4 -3 -12 -7.5t-33.5 -16t-53 -20.5t-69.5 -16t-85 -7q-84 0 -158.5 28.5t-133.5 83t-93.5 142.5t-34.5 198q0 114 35.5 205.5t95.5 148.5t136.5 87.5t162.5 30.5
q63 0 121.5 -16.5t86.5 -33.5l27 -16l-10 -21q-10 7 -29 17t-78 26.5t-118 16.5q-80 0 -151.5 -29t-128.5 -83t-90.5 -140.5t-33.5 -192.5q0 -104 33 -187t89 -134t125.5 -78t146.5 -27q63 0 123 16t89 32l29 16z" />
    <glyph glyph-name="ordfeminine" unicode="&#xaa;" horiz-adv-x="837" 
d="M365 877q105 0 192.5 158t128.5 423l16 117l3 10q-59 47 -164 47q-145 0 -249 -137t-104 -354q0 -119 49 -191.5t128 -72.5zM629 870l59 504q-45 -246 -132.5 -383t-190.5 -137q-91 0 -146 76.5t-55 212.5q0 225 111 368.5t264 143.5q96 0 170 -45l4 22l18 8l8 -4
l-88 -766h-22zM625 649h-441l4 25h441z" />
    <glyph glyph-name="guillemotleft" unicode="&#xab;" horiz-adv-x="1007" 
d="M461 66h-33l-285 409v14l402 410h35l-408 -418zM725 66h-33l-284 409v14l401 410h35l-408 -418z" />
    <glyph glyph-name="registered" unicode="&#xae;" horiz-adv-x="1122" 
d="M1020 1004q0 -185 -126 -312t-312 -127t-312.5 127t-126.5 312q0 186 126.5 313t312.5 127t312 -127t126 -313zM168 1004q0 -174 120 -294t294 -120t293.5 120t119.5 294q0 176 -119.5 295.5t-293.5 119.5t-294 -119.5t-120 -295.5zM557 963q104 0 149.5 45t45.5 112
q0 57 -40 95t-130 38h-136v-272q52 -18 111 -18zM557 942q-60 0 -111 19v-203h-20v516h156q101 0 146.5 -44t45.5 -110q0 -61 -35 -107.5t-108 -62.5l145 -192h-24l-144 188q-32 -4 -51 -4z" />
    <glyph glyph-name="degree" unicode="&#xb0;" horiz-adv-x="577" 
d="M639 1280q0 -126 -80.5 -194t-187.5 -68t-188 68t-81 194q0 65 23.5 117t63 82.5t86 46.5t96.5 16t96.5 -16t85.5 -46.5t62.5 -82t23.5 -117.5zM127 1280q0 -109 70 -173.5t174 -64.5q103 0 173 64.5t70 173.5t-70 173.5t-173 64.5q-104 0 -174 -64.5t-70 -173.5z" />
    <glyph glyph-name="plusminus" unicode="&#xb1;" horiz-adv-x="1024" 
d="M877 741h-336l-37 -325h-25l37 325h-334l4 25h332l35 315h25l-35 -315h338zM836 270h-693l4 25h693z" />
    <glyph glyph-name="acute" unicode="&#xb4;" horiz-adv-x="702" 
d="M233 1139h-38l321 217h43z" />
    <glyph glyph-name="paragraph" unicode="&#xb6;" horiz-adv-x="1245" 
d="M758 -512l203 1921h-195l-201 -1921h-24l106 1004h-39q-211 0 -342 120t-131 322q0 107 36 196.5t107.5 158t188 107t268.5 38.5h449l-2 -25h-197l-203 -1921h-24z" />
    <glyph glyph-name="periodcentered" unicode="&#xb7;" horiz-adv-x="593" 
d="M346 588q0 -17 -11 -28t-28 -11t-28 11t-11 28t11 28t28 11t28 -11t11 -28z" />
    <glyph glyph-name="cedilla" unicode="&#xb8;" horiz-adv-x="817" 
d="M420 -426q-61 0 -114.5 22t-77.5 44l-23 22l12 25q3 -4 8.5 -9.5t25 -21t41.5 -27t56.5 -21t71.5 -9.5q84 0 126 37.5t42 99.5q0 54 -41.5 85.5t-102.5 31.5q-31 0 -58.5 -8.5t-45.5 -21t-31.5 -25t-19.5 -20.5l-6 -9l-23 12l119 215h27l-89 -162q60 43 127 43
q70 0 119 -38t49 -103q0 -73 -49 -117.5t-143 -44.5z" />
    <glyph glyph-name="ordmasculine" unicode="&#xba;" horiz-adv-x="823" 
d="M741 1337q0 -132 -40.5 -241.5t-117 -174.5t-173.5 -65q-120 0 -183 87.5t-63 230.5q0 131 43 241t121 175t174 65q117 0 178 -88t61 -230zM188 1174q0 -132 56 -214.5t168 -82.5q90 0 161 63.5t108.5 168t37.5 228.5q0 132 -54 214.5t-165 82.5q-136 0 -224 -134.5
t-88 -325.5zM610 649h-440l4 25h440z" />
    <glyph glyph-name="guillemotright" unicode="&#xbb;" horiz-adv-x="1003" 
d="M199 66h-35l409 417l-288 416h30l285 -410v-14zM459 66h-35l410 417l-289 416h30l285 -410v-14z" />
    <glyph glyph-name="onequarter" unicode="&#xbc;" horiz-adv-x="1441" 
d="M246 0h-29l1122 1434h29zM1085 266l58 471l-412 -471h354zM580 657h-478l2 23h228l88 733l-238 -78l2 25l232 74q12 6 22 6h8l-92 -760h228zM1245 244h-139l-31 -244h-22l28 244h-385l2 18l449 514h24l-63 -510h139z" />
    <glyph glyph-name="onehalf" unicode="&#xbd;" horiz-adv-x="1449" 
d="M246 0h-29l1122 1434h29zM1305 0h-471l4 37q6 55 28.5 101.5t63 84.5t76 63t90.5 58l108 62q146 86 146 202q0 66 -50.5 110t-152.5 44q-104 0 -203 -68l-8 19q103 69 215 69q110 0 165.5 -48.5t55.5 -121.5q0 -77 -44.5 -130t-121.5 -97l-110 -63q-103 -62 -162.5 -126
t-71.5 -157l-2 -16h447zM580 657h-478l2 23h228l88 733l-238 -78l2 25l232 74q12 6 22 6h8l-92 -760h228z" />
    <glyph glyph-name="threequarters" unicode="&#xbe;" horiz-adv-x="1345" 
d="M199 0h-29l1122 1434h29zM1036 266l58 471l-412 -471h354zM264 645q-48 0 -102 10.5t-84 22.5l8 22q89 -32 180 -32q152 0 222.5 64t70.5 163q0 83 -59.5 124.5t-169.5 41.5h-72l2 20h74q120 0 184 57.5t64 137.5q0 66 -49.5 104.5t-151.5 38.5q-79 0 -184 -37l-4 21
q109 37 190 37q110 0 165.5 -43.5t55.5 -118.5q0 -77 -52.5 -135t-148.5 -72q79 -10 129 -52t50 -124q0 -51 -17.5 -94.5t-53.5 -79t-99.5 -56t-147.5 -20.5zM1196 244h-139l-31 -244h-22l28 244h-385l2 18l449 514h24l-63 -510h139z" />
    <glyph glyph-name="questiondown" unicode="&#xbf;" horiz-adv-x="733" 
d="M653 997q0 -14 -11 -24t-26 -10t-25.5 10t-10.5 24q0 17 10.5 28t25.5 11t26 -11t11 -28zM319 -520q-156 0 -232.5 89.5t-76.5 235.5q0 100 30 184.5t79.5 142.5t115 98.5t135 60t140.5 20.5l65 461h21l-66 -485q-72 0 -141 -17.5t-133.5 -56t-113.5 -93.5t-78 -136
t-29 -177q0 -137 70.5 -221t218.5 -84q99 0 180.5 44.5t134.5 105.5l16 -14q-51 -64 -139.5 -111t-196.5 -47z" />
    <glyph glyph-name="Agrave" unicode="&#xc0;" horiz-adv-x="1138" 
d="M793 1575h-39l-260 184h18q25 0 45 -14zM911 535l-204 856l-443 -856h647zM1038 0l-120 510h-666l-264 -510h-29l746 1444h4q12 0 14 -14l342 -1430h-27z" />
    <glyph glyph-name="Aacute" unicode="&#xc1;" horiz-adv-x="1138" 
d="M647 1579h-51l358 182h54zM911 535l-204 856l-443 -856h647zM1038 0l-120 510h-666l-264 -510h-29l746 1444h4q12 0 14 -14l342 -1430h-27z" />
    <glyph glyph-name="Acircumflex" unicode="&#xc2;" horiz-adv-x="1138" 
d="M928 1552l-185 160l-268 -166h-45l303 187h8q16 0 25 -9l199 -172h-37zM911 535l-204 856l-443 -856h647zM1038 0l-120 510h-666l-264 -510h-29l746 1444h4q12 0 14 -14l342 -1430h-27z" />
    <glyph glyph-name="Atilde" unicode="&#xc3;" horiz-adv-x="1138" 
d="M600 1716q-44 0 -77 -26t-48.5 -58t-21.5 -67h-19v22q10 64 55 109t111 45q34 0 62.5 -15.5t48 -38t38.5 -45t45 -38t58 -15.5q65 0 102 47.5t45 100.5h17q2 -2 2 -13v-8q-9 -63 -55.5 -107t-110.5 -44q-36 0 -64.5 15.5t-48 37.5t-38.5 44.5t-44.5 38t-56.5 15.5z
M911 535l-204 856l-443 -856h647zM1038 0l-120 510h-666l-264 -510h-29l746 1444h4q12 0 14 -14l342 -1430h-27z" />
    <glyph glyph-name="Adieresis" unicode="&#xc4;" horiz-adv-x="1138" 
d="M602 1661q0 -20 -12.5 -32.5t-32.5 -12.5t-32.5 12.5t-12.5 32.5t12.5 32.5t32.5 12.5t32.5 -12.5t12.5 -32.5zM946 1661q0 -20 -12.5 -32.5t-32.5 -12.5t-32.5 12.5t-12.5 32.5t12.5 32.5t32.5 12.5t32.5 -12.5t12.5 -32.5zM911 535l-204 856l-443 -856h647zM1038 0
l-120 510h-666l-264 -510h-29l746 1444h4q12 0 14 -14l342 -1430h-27z" />
    <glyph glyph-name="AE" unicode="&#xc6;" horiz-adv-x="1628" 
d="M868 1372l-575 -878h481zM-31 0h-30l935 1434h766l-4 -25h-739l-70 -649h652l-2 -25h-652l-75 -710h716l-2 -25h-743l51 469h-496z" />
    <glyph glyph-name="Ccedilla" unicode="&#xc7;" horiz-adv-x="1118" 
d="M569 -426q-61 0 -114.5 22t-76.5 44l-24 22l13 25q3 -4 8.5 -9.5t25 -21t41 -27t56 -21t71.5 -9.5q84 0 126 37.5t42 99.5q0 54 -41 85.5t-102 31.5q-48 0 -88.5 -21t-57.5 -42l-16 -21l-22 12l114 209q-198 39 -310 207t-112 413q0 182 54 339t146.5 265t219.5 169
t269 61q182 0 325 -107l-16 -20q-57 44 -138 73t-174 29q-186 0 -337.5 -105t-237.5 -290t-86 -412q0 -172 58.5 -308.5t175.5 -218t276 -81.5q92 0 181.5 30t150.5 72l10 -22q-67 -44 -157.5 -74t-186.5 -30q-43 0 -86 6l-82 -152q60 43 127 43q70 0 119 -38t49 -103
q0 -72 -49 -117t-144 -45z" />
    <glyph glyph-name="Egrave" unicode="&#xc8;" horiz-adv-x="1071" 
d="M750 1575h-39l-260 184h18q25 0 45 -14zM907 0h-835l153 1434h858l-4 -25h-831l-70 -649h744l-2 -25h-744l-76 -710h809z" />
    <glyph glyph-name="Eacute" unicode="&#xc9;" horiz-adv-x="1071" 
d="M604 1579h-51l358 182h54zM907 0h-835l153 1434h858l-4 -25h-831l-70 -649h744l-2 -25h-744l-76 -710h809z" />
    <glyph glyph-name="Ecircumflex" unicode="&#xca;" horiz-adv-x="1071" 
d="M874 1552l-184 160l-268 -166h-45l303 187h8q16 0 25 -9l198 -172h-37zM907 0h-835l153 1434h858l-4 -25h-831l-70 -649h744l-2 -25h-744l-76 -710h809z" />
    <glyph glyph-name="Edieresis" unicode="&#xcb;" horiz-adv-x="1071" 
d="M559 1661q0 -20 -12.5 -32.5t-32.5 -12.5t-32.5 12.5t-12.5 32.5t12.5 32.5t32.5 12.5t32.5 -12.5t12.5 -32.5zM903 1661q0 -20 -12.5 -32.5t-32.5 -12.5t-32.5 12.5t-12.5 32.5t12.5 32.5t32.5 12.5t32.5 -12.5t12.5 -32.5zM907 0h-835l153 1434h858l-4 -25h-831
l-70 -649h744l-2 -25h-744l-76 -710h809z" />
    <glyph glyph-name="Igrave" unicode="&#xcc;" horiz-adv-x="315" 
d="M338 1575h-39l-260 184h18q25 0 45 -14zM117 0h-25l154 1434h24z" />
    <glyph glyph-name="Iacute" unicode="&#xcd;" horiz-adv-x="315" 
d="M193 1579h-52l359 182h53zM117 0h-25l154 1434h24z" />
    <glyph glyph-name="Icircumflex" unicode="&#xce;" horiz-adv-x="315" 
d="M463 1552l-184 160l-269 -166h-45l303 187h8q16 0 25 -9l199 -172h-37zM117 0h-25l154 1434h24z" />
    <glyph glyph-name="Idieresis" unicode="&#xcf;" horiz-adv-x="315" 
d="M147 1661q0 -20 -12.5 -32.5t-32.5 -12.5t-32.5 12.5t-12.5 32.5t12.5 32.5t32.5 12.5t32.5 -12.5t12.5 -32.5zM492 1661q0 -20 -13 -32.5t-33 -12.5t-32.5 12.5t-12.5 32.5t12.5 32.5t32.5 12.5t33 -12.5t13 -32.5zM117 0h-25l154 1434h24z" />
    <glyph glyph-name="Ntilde" unicode="&#xd1;" horiz-adv-x="1308" 
d="M621 1716q-44 0 -77.5 -26t-49 -58t-21.5 -67h-18v22q10 64 55 109t111 45q34 0 62 -15.5t47.5 -38t38.5 -45t45 -38t58 -15.5q65 0 102.5 47.5t45.5 100.5h16q2 -2 2 -13v-8q-9 -63 -55.5 -107t-110.5 -44q-36 0 -64.5 15.5t-48 37.5t-38 44.5t-44 38t-56.5 15.5z
M1069 14l-823 1370l-146 -1384h-28l155 1444h6q11 0 17 -12l823 -1369l144 1371h28l-153 -1434h-5q-10 0 -18 14z" />
    <glyph glyph-name="Ograve" unicode="&#xd2;" horiz-adv-x="1292" 
d="M862 1575h-39l-260 184h19q25 0 45 -14zM1243 797q0 -165 -46.5 -314t-128 -260.5t-200.5 -177t-256 -65.5q-235 0 -372.5 176t-137.5 458q0 227 81 416.5t228 301.5t328 112q159 0 274.5 -85t172.5 -230t57 -332zM129 614q0 -172 55.5 -308.5t167 -218t262.5 -81.5
q108 0 203.5 41.5t167.5 116t125 173.5t80 217t27 243q0 130 -30.5 241.5t-88.5 196.5t-151.5 133.5t-211.5 48.5q-130 0 -244 -65t-193 -175t-124 -256.5t-45 -306.5z" />
    <glyph glyph-name="Oacute" unicode="&#xd3;" horiz-adv-x="1292" 
d="M717 1579h-51l358 182h53zM1243 797q0 -165 -46.5 -314t-128 -260.5t-200.5 -177t-256 -65.5q-235 0 -372.5 176t-137.5 458q0 227 81 416.5t228 301.5t328 112q159 0 274.5 -85t172.5 -230t57 -332zM129 614q0 -172 55.5 -308.5t167 -218t262.5 -81.5q108 0 203.5 41.5
t167.5 116t125 173.5t80 217t27 243q0 130 -30.5 241.5t-88.5 196.5t-151.5 133.5t-211.5 48.5q-130 0 -244 -65t-193 -175t-124 -256.5t-45 -306.5z" />
    <glyph glyph-name="Ocircumflex" unicode="&#xd4;" horiz-adv-x="1292" 
d="M987 1552l-184 160l-268 -166h-46l304 187h8q15 0 24 -9l199 -172h-37zM1243 797q0 -165 -46.5 -314t-128 -260.5t-200.5 -177t-256 -65.5q-235 0 -372.5 176t-137.5 458q0 227 81 416.5t228 301.5t328 112q159 0 274.5 -85t172.5 -230t57 -332zM129 614
q0 -172 55.5 -308.5t167 -218t262.5 -81.5q108 0 203.5 41.5t167.5 116t125 173.5t80 217t27 243q0 130 -30.5 241.5t-88.5 196.5t-151.5 133.5t-211.5 48.5q-130 0 -244 -65t-193 -175t-124 -256.5t-45 -306.5z" />
    <glyph glyph-name="Otilde" unicode="&#xd5;" horiz-adv-x="1292" 
d="M670 1716q-44 0 -77.5 -26t-49 -58t-21.5 -67h-18v22q10 64 55 109t111 45q34 0 62.5 -15.5t48 -38t38.5 -45t45 -38t58 -15.5q65 0 102 47.5t45 100.5h16q2 -2 2 -13v-8q-9 -63 -55 -107t-110 -44q-36 0 -64.5 15.5t-48 37.5t-38.5 44.5t-44.5 38t-56.5 15.5zM1243 797
q0 -165 -46.5 -314t-128 -260.5t-200.5 -177t-256 -65.5q-235 0 -372.5 176t-137.5 458q0 227 81 416.5t228 301.5t328 112q159 0 274.5 -85t172.5 -230t57 -332zM129 614q0 -172 55.5 -308.5t167 -218t262.5 -81.5q108 0 203.5 41.5t167.5 116t125 173.5t80 217t27 243
q0 130 -30.5 241.5t-88.5 196.5t-151.5 133.5t-211.5 48.5q-130 0 -244 -65t-193 -175t-124 -256.5t-45 -306.5z" />
    <glyph glyph-name="Odieresis" unicode="&#xd6;" horiz-adv-x="1292" 
d="M672 1661q0 -20 -12.5 -32.5t-32.5 -12.5t-32.5 12.5t-12.5 32.5t12.5 32.5t32.5 12.5t32.5 -12.5t12.5 -32.5zM1016 1661q0 -20 -12.5 -32.5t-32.5 -12.5t-32.5 12.5t-12.5 32.5t12.5 32.5t32.5 12.5t32.5 -12.5t12.5 -32.5zM1243 797q0 -165 -46.5 -314t-128 -260.5
t-200.5 -177t-256 -65.5q-235 0 -372.5 176t-137.5 458q0 227 81 416.5t228 301.5t328 112q159 0 274.5 -85t172.5 -230t57 -332zM129 614q0 -172 55.5 -308.5t167 -218t262.5 -81.5q108 0 203.5 41.5t167.5 116t125 173.5t80 217t27 243q0 130 -30.5 241.5t-88.5 196.5
t-151.5 133.5t-211.5 48.5q-130 0 -244 -65t-193 -175t-124 -256.5t-45 -306.5z" />
    <glyph glyph-name="multiply" unicode="&#xd7;" horiz-adv-x="1024" 
d="M748 410l-236 235l-238 -237l-16 18l238 238l-238 235l16 19l238 -238l236 235l18 -16l-236 -235l236 -238z" />
    <glyph glyph-name="Ugrave" unicode="&#xd9;" horiz-adv-x="1232" 
d="M840 1575h-39l-260 184h18q25 0 45 -14zM1104 618q-34 -336 -167.5 -482t-381.5 -146q-71 0 -134 16.5t-119.5 53.5t-97.5 92t-65 136.5t-24 182.5q0 37 8 119l86 844h27l-86 -848q-9 -88 -9 -113q0 -118 33.5 -208t91.5 -143.5t130.5 -79.5t156.5 -26q238 0 365 142.5
t159 459.5l82 816h29z" />
    <glyph glyph-name="Uacute" unicode="&#xda;" horiz-adv-x="1232" 
d="M694 1579h-51l358 182h54zM1104 618q-34 -336 -167.5 -482t-381.5 -146q-71 0 -134 16.5t-119.5 53.5t-97.5 92t-65 136.5t-24 182.5q0 37 8 119l86 844h27l-86 -848q-9 -88 -9 -113q0 -118 33.5 -208t91.5 -143.5t130.5 -79.5t156.5 -26q238 0 365 142.5t159 459.5
l82 816h29z" />
    <glyph glyph-name="Ucircumflex" unicode="&#xdb;" horiz-adv-x="1232" 
d="M965 1552l-185 160l-268 -166h-45l303 187h8q16 0 25 -9l198 -172h-36zM1104 618q-34 -336 -167.5 -482t-381.5 -146q-71 0 -134 16.5t-119.5 53.5t-97.5 92t-65 136.5t-24 182.5q0 37 8 119l86 844h27l-86 -848q-9 -88 -9 -113q0 -118 33.5 -208t91.5 -143.5
t130.5 -79.5t156.5 -26q238 0 365 142.5t159 459.5l82 816h29z" />
    <glyph glyph-name="Udieresis" unicode="&#xdc;" horiz-adv-x="1232" 
d="M649 1661q0 -20 -12.5 -32.5t-32.5 -12.5t-32.5 12.5t-12.5 32.5t12.5 32.5t32.5 12.5t32.5 -12.5t12.5 -32.5zM993 1661q0 -20 -12.5 -32.5t-32.5 -12.5t-32.5 12.5t-12.5 32.5t12.5 32.5t32.5 12.5t32.5 -12.5t12.5 -32.5zM1104 618q-34 -336 -167.5 -482t-381.5 -146
q-71 0 -134 16.5t-119.5 53.5t-97.5 92t-65 136.5t-24 182.5q0 37 8 119l86 844h27l-86 -848q-9 -88 -9 -113q0 -118 33.5 -208t91.5 -143.5t130.5 -79.5t156.5 -26q238 0 365 142.5t159 459.5l82 816h29z" />
    <glyph glyph-name="germandbls" unicode="&#xdf;" horiz-adv-x="1007" 
d="M92 -242q-16 -150 -74.5 -214t-154.5 -64q-60 0 -105 31l13 20q45 -29 92 -29q90 0 141 63t66 204l141 1337q23 208 142.5 324t295.5 116q128 0 203.5 -64t75.5 -153q0 -80 -49 -137.5t-140 -101.5l-174 -84q-75 -37 -124.5 -92t-49.5 -126q0 -65 40.5 -109.5
t121.5 -82.5l119 -57q122 -59 173.5 -124t51.5 -153q0 -116 -98 -199t-275 -83q-118 0 -225 47l10 22q104 -47 217 -47q165 0 255.5 77.5t90.5 182.5q0 81 -48 140t-162 114l-127 62q-82 40 -125 89t-43 121q0 76 51 137t139 103l172 84q87 42 130.5 93.5t43.5 125.5
q0 77 -68 134t-186 57q-166 0 -280.5 -111t-135.5 -307z" />
    <glyph glyph-name="agrave" unicode="&#xe0;" horiz-adv-x="983" 
d="M709 1139h-33l-264 217h18q15 0 33 -15zM344 4q149 0 272 213t179 565l26 172q-84 66 -231 66q-95 0 -183 -47.5t-155.5 -132t-107.5 -210.5t-40 -272q0 -159 65 -256.5t175 -97.5zM719 0l82 700q-60 -341 -184 -530.5t-273 -189.5q-121 0 -192.5 100.5t-71.5 281.5
q0 150 42.5 279.5t112.5 216.5t162 136.5t191 49.5q145 0 239 -59l4 31l21 10l10 -4l-119 -1022h-24z" />
    <glyph glyph-name="aacute" unicode="&#xe1;" horiz-adv-x="983" 
d="M535 1139h-39l321 217h43zM344 4q149 0 272 213t179 565l26 172q-84 66 -231 66q-95 0 -183 -47.5t-155.5 -132t-107.5 -210.5t-40 -272q0 -159 65 -256.5t175 -97.5zM719 0l82 700q-60 -341 -184 -530.5t-273 -189.5q-121 0 -192.5 100.5t-71.5 281.5q0 150 42.5 279.5
t112.5 216.5t162 136.5t191 49.5q145 0 239 -59l4 31l21 10l10 -4l-119 -1022h-24z" />
    <glyph glyph-name="acircumflex" unicode="&#xe2;" horiz-adv-x="983" 
d="M836 1139l-185 196l-278 -196h-41l309 217h12q13 0 21 -8l192 -209h-30zM344 4q149 0 272 213t179 565l26 172q-84 66 -231 66q-95 0 -183 -47.5t-155.5 -132t-107.5 -210.5t-40 -272q0 -159 65 -256.5t175 -97.5zM719 0l82 700q-60 -341 -184 -530.5t-273 -189.5
q-121 0 -192.5 100.5t-71.5 281.5q0 150 42.5 279.5t112.5 216.5t162 136.5t191 49.5q145 0 239 -59l4 31l21 10l10 -4l-119 -1022h-24z" />
    <glyph glyph-name="atilde" unicode="&#xe3;" horiz-adv-x="983" 
d="M473 1315q-63 0 -99.5 -47t-45.5 -105h-19v23q10 64 54 108.5t110 44.5q34 0 62.5 -15.5t49 -37.5t40 -44.5t46 -38t58.5 -15.5q65 0 101 47t44 100h15q4 -4 4 -12v-8q-9 -64 -54.5 -108t-109.5 -44q-36 0 -65 15.5t-49 38t-39.5 45t-45.5 38t-57 15.5zM344 4
q149 0 272 213t179 565l26 172q-84 66 -231 66q-95 0 -183 -47.5t-155.5 -132t-107.5 -210.5t-40 -272q0 -159 65 -256.5t175 -97.5zM719 0l82 700q-60 -341 -184 -530.5t-273 -189.5q-121 0 -192.5 100.5t-71.5 281.5q0 150 42.5 279.5t112.5 216.5t162 136.5t191 49.5
q145 0 239 -59l4 31l21 10l10 -4l-119 -1022h-24z" />
    <glyph glyph-name="adieresis" unicode="&#xe4;" horiz-adv-x="983" 
d="M535 1292q0 -20 -13 -32.5t-33 -12.5t-32.5 12.5t-12.5 32.5t12.5 32.5t32.5 12.5t33 -12.5t13 -32.5zM817 1292q0 -20 -12.5 -32.5t-32.5 -12.5t-32.5 12.5t-12.5 32.5t12.5 32.5t32.5 12.5t32.5 -12.5t12.5 -32.5zM344 4q149 0 272 213t179 565l26 172q-84 66 -231 66
q-95 0 -183 -47.5t-155.5 -132t-107.5 -210.5t-40 -272q0 -159 65 -256.5t175 -97.5zM719 0l82 700q-60 -341 -184 -530.5t-273 -189.5q-121 0 -192.5 100.5t-71.5 281.5q0 150 42.5 279.5t112.5 216.5t162 136.5t191 49.5q145 0 239 -59l4 31l21 10l10 -4l-119 -1022h-24z
" />
    <glyph glyph-name="ae" unicode="&#xe6;" horiz-adv-x="1513" 
d="M741 537q94 -82 250 -82q77 0 150.5 22.5t133.5 64t97 108.5t37 149q0 96 -66.5 159.5t-179.5 63.5q-111 0 -203 -68t-147.5 -177t-71.5 -240zM86 358q0 -159 66 -256.5t174 -97.5q141 0 257.5 212.5t172.5 565.5l26 172q-84 66 -221 66q-94 0 -180 -47.5t-151.5 -132
t-104.5 -210.5t-39 -272zM1165 1044q122 0 195.5 -69.5t73.5 -175.5q0 -87 -39.5 -158.5t-103.5 -116t-141.5 -68.5t-158.5 -24q-159 0 -252 78q-4 -46 -4 -70q0 -70 10.5 -132t35 -119t61.5 -98t92.5 -65t124.5 -24q76 0 148 32t116 70l12 -16q-50 -42 -123 -75t-155 -33
q-89 0 -157 36.5t-108.5 100.5t-60.5 145t-20 176v37q-67 -238 -168 -366.5t-217 -128.5q-120 0 -192.5 100.5t-72.5 281.5q0 150 41.5 279.5t110 216.5t159 136.5t187.5 49.5q135 0 229 -59l5 31l30 6l-43 -260q61 135 162.5 208.5t222.5 73.5z" />
    <glyph glyph-name="ccedilla" unicode="&#xe7;" horiz-adv-x="825" 
d="M395 -426q-61 0 -114.5 22t-76.5 44l-24 22l13 25q3 -4 8.5 -9.5t25 -21t41 -27t56 -21t71.5 -9.5q84 0 126 37.5t42 99.5q0 54 -41 85.5t-102 31.5q-48 0 -88.5 -21t-57.5 -42l-16 -21l-22 12l112 205q-92 18 -153.5 82t-88 153.5t-26.5 202.5q0 96 17 185.5t53.5 169
t89 138t127 93t163.5 34.5q82 0 154 -33.5t117 -86.5l-17 -17q-100 115 -258 115q-105 0 -188.5 -52t-133 -139t-75 -190.5t-25.5 -214.5q0 -69 10.5 -130.5t35 -116t60.5 -93.5t90.5 -61.5t121.5 -22.5q74 0 146 30t126 72l13 -18q-143 -106 -285 -106q-33 0 -49 2
l-80 -148q60 43 127 43q70 0 119 -38t49 -103q0 -72 -49 -117t-144 -45z" />
    <glyph glyph-name="egrave" unicode="&#xe8;" horiz-adv-x="903" 
d="M637 1139h-33l-264 217h18q15 0 33 -15zM389 455q75 0 147 22t131.5 63t95.5 107t36 146q0 99 -67 164t-183 65q-113 0 -207.5 -67t-152.5 -176t-76 -240q108 -84 276 -84zM725 86q-49 -42 -125.5 -74t-161.5 -32q-92 0 -162.5 36t-112.5 99t-62.5 142t-20.5 173
q0 121 34.5 232.5t94.5 196t149.5 135t192.5 50.5q124 0 198 -71t74 -180q0 -86 -38.5 -156.5t-101 -114t-139 -67t-155.5 -23.5q-81 0 -155.5 21.5t-124.5 60.5q-5 -67 -5 -82q0 -69 11 -130t36.5 -116.5t63.5 -96t95.5 -64t129.5 -23.5q79 0 154.5 32t118.5 70z" />
    <glyph glyph-name="eacute" unicode="&#xe9;" horiz-adv-x="903" 
d="M463 1139h-39l321 217h43zM389 455q75 0 147 22t131.5 63t95.5 107t36 146q0 99 -67 164t-183 65q-113 0 -207.5 -67t-152.5 -176t-76 -240q108 -84 276 -84zM725 86q-49 -42 -125.5 -74t-161.5 -32q-92 0 -162.5 36t-112.5 99t-62.5 142t-20.5 173q0 121 34.5 232.5
t94.5 196t149.5 135t192.5 50.5q124 0 198 -71t74 -180q0 -86 -38.5 -156.5t-101 -114t-139 -67t-155.5 -23.5q-81 0 -155.5 21.5t-124.5 60.5q-5 -67 -5 -82q0 -69 11 -130t36.5 -116.5t63.5 -96t95.5 -64t129.5 -23.5q79 0 154.5 32t118.5 70z" />
    <glyph glyph-name="ecircumflex" unicode="&#xea;" horiz-adv-x="903" 
d="M764 1139l-184 196l-279 -196h-41l309 217h13q12 0 20 -8l193 -209h-31zM389 455q75 0 147 22t131.5 63t95.5 107t36 146q0 99 -67 164t-183 65q-113 0 -207.5 -67t-152.5 -176t-76 -240q108 -84 276 -84zM725 86q-49 -42 -125.5 -74t-161.5 -32q-92 0 -162.5 36
t-112.5 99t-62.5 142t-20.5 173q0 121 34.5 232.5t94.5 196t149.5 135t192.5 50.5q124 0 198 -71t74 -180q0 -86 -38.5 -156.5t-101 -114t-139 -67t-155.5 -23.5q-81 0 -155.5 21.5t-124.5 60.5q-5 -67 -5 -82q0 -69 11 -130t36.5 -116.5t63.5 -96t95.5 -64t129.5 -23.5
q79 0 154.5 32t118.5 70z" />
    <glyph glyph-name="edieresis" unicode="&#xeb;" horiz-adv-x="903" 
d="M463 1292q0 -20 -12.5 -32.5t-32.5 -12.5t-32.5 12.5t-12.5 32.5t12.5 32.5t32.5 12.5t32.5 -12.5t12.5 -32.5zM745 1292q0 -20 -12.5 -32.5t-32.5 -12.5t-32.5 12.5t-12.5 32.5t12.5 32.5t32.5 12.5t32.5 -12.5t12.5 -32.5zM389 455q75 0 147 22t131.5 63t95.5 107
t36 146q0 99 -67 164t-183 65q-113 0 -207.5 -67t-152.5 -176t-76 -240q108 -84 276 -84zM725 86q-49 -42 -125.5 -74t-161.5 -32q-92 0 -162.5 36t-112.5 99t-62.5 142t-20.5 173q0 121 34.5 232.5t94.5 196t149.5 135t192.5 50.5q124 0 198 -71t74 -180
q0 -86 -38.5 -156.5t-101 -114t-139 -67t-155.5 -23.5q-81 0 -155.5 21.5t-124.5 60.5q-5 -67 -5 -82q0 -69 11 -130t36.5 -116.5t63.5 -96t95.5 -64t129.5 -23.5q79 0 154.5 32t118.5 70z" />
    <glyph glyph-name="igrave" unicode="&#xec;" horiz-adv-x="319" 
d="M258 1139h-25l-86 231h13q17 0 22 -16zM96 0h-24l108 1024h25z" />
    <glyph glyph-name="iacute" unicode="&#xed;" horiz-adv-x="319" 
d="M174 1139h-29l195 227h29zM96 0h-24l108 1024h25z" />
    <glyph glyph-name="icircumflex" unicode="&#xee;" horiz-adv-x="319" 
d="M348 1139l-102 215l-189 -221h-32l211 241h6q13 0 18 -3.5t10 -14.5l105 -217h-27zM96 0h-24l108 1024h25z" />
    <glyph glyph-name="idieresis" unicode="&#xef;" horiz-adv-x="319" 
d="M383 1327q0 -17 -11 -27t-28 -10q-37 0 -37 37q0 17 10 28t27 11t28 -11t11 -28zM160 1327q0 -37 -37 -37q-17 0 -28 10t-11 27t11 28t28 11t27 -11t10 -28zM96 0h-24l108 1024h25z" />
    <glyph glyph-name="ntilde" unicode="&#xf1;" horiz-adv-x="964" 
d="M406 1315q-63 0 -100 -47.5t-46 -104.5h-18v23q10 64 54 108.5t110 44.5q34 0 62.5 -15.5t49 -37.5t40 -44.5t46 -38t58.5 -15.5q65 0 101 47t44 100h14q4 -4 4 -12v-8q-9 -64 -54 -108t-109 -44q-36 0 -65 15.5t-49 38t-39.5 45t-45.5 38t-57 15.5zM180 629l-65 -629
h-25l109 1024h10q10 0 10 -16l-18 -213q44 120 140.5 184.5t205.5 64.5q130 0 208.5 -77.5t78.5 -233.5q0 -9 -5 -71l-69 -662h-25l70 653q4 54 4 78q0 151 -71.5 221t-194.5 70q-46 0 -91.5 -13t-91 -42.5t-82 -74t-63 -112t-35.5 -151.5z" />
    <glyph glyph-name="ograve" unicode="&#xf2;" horiz-adv-x="966" 
d="M659 1139h-32l-265 217h19q15 0 33 -15zM866 616q0 -174 -56 -318.5t-159.5 -231t-234.5 -86.5q-165 0 -250.5 116t-85.5 310q0 173 57.5 318.5t163 232.5t236.5 87q161 0 245 -118t84 -310zM104 406q0 -117 32.5 -206t104.5 -143.5t177 -54.5q124 0 222.5 85.5
t150 224.5t51.5 304q0 117 -30.5 206t-101 144.5t-175.5 55.5q-124 0 -223.5 -85t-153.5 -225.5t-54 -305.5z" />
    <glyph glyph-name="oacute" unicode="&#xf3;" horiz-adv-x="966" 
d="M485 1139h-39l322 217h43zM866 616q0 -174 -56 -318.5t-159.5 -231t-234.5 -86.5q-165 0 -250.5 116t-85.5 310q0 173 57.5 318.5t163 232.5t236.5 87q161 0 245 -118t84 -310zM104 406q0 -117 32.5 -206t104.5 -143.5t177 -54.5q124 0 222.5 85.5t150 224.5t51.5 304
q0 117 -30.5 206t-101 144.5t-175.5 55.5q-124 0 -223.5 -85t-153.5 -225.5t-54 -305.5z" />
    <glyph glyph-name="ocircumflex" unicode="&#xf4;" horiz-adv-x="966" 
d="M786 1139l-184 196l-278 -196h-41l309 217h12q13 0 21 -8l192 -209h-31zM866 616q0 -174 -56 -318.5t-159.5 -231t-234.5 -86.5q-165 0 -250.5 116t-85.5 310q0 173 57.5 318.5t163 232.5t236.5 87q161 0 245 -118t84 -310zM104 406q0 -117 32.5 -206t104.5 -143.5
t177 -54.5q124 0 222.5 85.5t150 224.5t51.5 304q0 117 -30.5 206t-101 144.5t-175.5 55.5q-124 0 -223.5 -85t-153.5 -225.5t-54 -305.5z" />
    <glyph glyph-name="otilde" unicode="&#xf5;" horiz-adv-x="966" 
d="M424 1315q-63 0 -99.5 -47t-45.5 -105h-19v23q10 64 54 108.5t110 44.5q34 0 62.5 -15.5t49 -37.5t40 -44.5t46 -38t58.5 -15.5q65 0 101 47t44 100h15q4 -4 4 -12v-8q-9 -64 -54.5 -108t-109.5 -44q-36 0 -65 15.5t-49 38t-39.5 45t-45.5 38t-57 15.5zM866 616
q0 -174 -56 -318.5t-159.5 -231t-234.5 -86.5q-165 0 -250.5 116t-85.5 310q0 173 57.5 318.5t163 232.5t236.5 87q161 0 245 -118t84 -310zM104 406q0 -117 32.5 -206t104.5 -143.5t177 -54.5q124 0 222.5 85.5t150 224.5t51.5 304q0 117 -30.5 206t-101 144.5t-175.5 55.5
q-124 0 -223.5 -85t-153.5 -225.5t-54 -305.5z" />
    <glyph glyph-name="odieresis" unicode="&#xf6;" horiz-adv-x="966" 
d="M485 1292q0 -20 -12.5 -32.5t-32.5 -12.5t-32.5 12.5t-12.5 32.5t12.5 32.5t32.5 12.5t32.5 -12.5t12.5 -32.5zM768 1292q0 -20 -12.5 -32.5t-32.5 -12.5t-32.5 12.5t-12.5 32.5t12.5 32.5t32.5 12.5t32.5 -12.5t12.5 -32.5zM866 616q0 -174 -56 -318.5t-159.5 -231
t-234.5 -86.5q-165 0 -250.5 116t-85.5 310q0 173 57.5 318.5t163 232.5t236.5 87q161 0 245 -118t84 -310zM104 406q0 -117 32.5 -206t104.5 -143.5t177 -54.5q124 0 222.5 85.5t150 224.5t51.5 304q0 117 -30.5 206t-101 144.5t-175.5 55.5q-124 0 -223.5 -85
t-153.5 -225.5t-54 -305.5z" />
    <glyph glyph-name="divide" unicode="&#xf7;" horiz-adv-x="1024" 
d="M584 946q0 -20 -12.5 -32.5t-32.5 -12.5t-32.5 12.5t-12.5 32.5t12.5 32.5t32.5 12.5t32.5 -12.5t12.5 -32.5zM856 649h-694l4 25h694zM512 371q0 -20 -12.5 -32.5t-32.5 -12.5t-32.5 12.5t-12.5 32.5t12.5 32.5t32.5 12.5t32.5 -12.5t12.5 -32.5z" />
    <glyph glyph-name="ugrave" unicode="&#xf9;" horiz-adv-x="966" 
d="M598 1139h-33l-264 217h18q15 0 33 -15zM698 0l70 664q-60 -323 -182 -503.5t-267 -180.5q-103 0 -166 73.5t-63 220.5q0 97 16 228l64 522h25l-64 -514q-16 -134 -16 -234q0 -140 57 -206t150 -66q148 0 271.5 214.5t174.5 563.5l35 242h26l-106 -1024h-25z" />
    <glyph glyph-name="uacute" unicode="&#xfa;" horiz-adv-x="966" 
d="M449 1139h-39l321 217h43zM698 0l70 664q-60 -323 -182 -503.5t-267 -180.5q-103 0 -166 73.5t-63 220.5q0 97 16 228l64 522h25l-64 -514q-16 -134 -16 -234q0 -140 57 -206t150 -66q148 0 271.5 214.5t174.5 563.5l35 242h26l-106 -1024h-25z" />
    <glyph glyph-name="ucircumflex" unicode="&#xfb;" horiz-adv-x="966" 
d="M752 1139l-185 196l-278 -196h-41l309 217h12q13 0 21 -8l192 -209h-30zM698 0l70 664q-60 -323 -182 -503.5t-267 -180.5q-103 0 -166 73.5t-63 220.5q0 97 16 228l64 522h25l-64 -514q-16 -134 -16 -234q0 -140 57 -206t150 -66q148 0 271.5 214.5t174.5 563.5l35 242
h26l-106 -1024h-25z" />
    <glyph glyph-name="udieresis" unicode="&#xfc;" horiz-adv-x="966" 
d="M424 1292q0 -20 -12.5 -32.5t-32.5 -12.5t-32.5 12.5t-12.5 32.5t12.5 32.5t32.5 12.5t32.5 -12.5t12.5 -32.5zM707 1292q0 -20 -12.5 -32.5t-32.5 -12.5t-33 12.5t-13 32.5t13 32.5t33 12.5t32.5 -12.5t12.5 -32.5zM698 0l70 664q-60 -323 -182 -503.5t-267 -180.5
q-103 0 -166 73.5t-63 220.5q0 97 16 228l64 522h25l-64 -514q-16 -134 -16 -234q0 -140 57 -206t150 -66q148 0 271.5 214.5t174.5 563.5l35 242h26l-106 -1024h-25z" />
    <glyph glyph-name="ydieresis" unicode="&#xff;" horiz-adv-x="937" 
d="M424 1292q0 -20 -12.5 -32.5t-32.5 -12.5t-32.5 12.5t-12.5 32.5t12.5 32.5t32.5 12.5t32.5 -12.5t12.5 -32.5zM707 1292q0 -20 -12.5 -32.5t-32.5 -12.5t-33 12.5t-13 32.5t13 32.5t33 12.5t32.5 -12.5t12.5 -32.5zM352 -520q-72 0 -144 26.5t-116 67.5l12 20
q110 -92 248 -92q140 0 219.5 85t100.5 276l84 799q-61 -322 -180.5 -502t-262.5 -180q-101 0 -162 73.5t-61 220.5q0 97 16 228l64 522h25l-64 -514q-16 -134 -16 -234q0 -140 54.5 -206t145.5 -66q97 0 185.5 96.5t155 273.5t100.5 408l35 242h26l-123 -1171
q-22 -202 -110 -287.5t-232 -85.5z" />
    <glyph glyph-name="dotlessi" unicode="&#x131;" horiz-adv-x="282" 
d="M96 0h-24l108 1024h25z" />
    <glyph glyph-name="IJ" unicode="&#x132;" horiz-adv-x="1054" 
d="M117 0h-25l154 1434h24zM924 449q-14 -123 -53 -215t-98 -146.5t-130 -81t-156 -26.5q-98 0 -172 38l4 29q71 -39 173 -39q165 0 273.5 108t133.5 335l107 983h24z" />
    <glyph glyph-name="ij" unicode="&#x133;" horiz-adv-x="600" 
d="M563 1331q0 -15 -11 -26t-26 -11t-26 11t-11 26t11 26t26 11t26 -11t11 -26zM283 1331q0 -15 -11 -26t-26 -11t-26 11t-11 26t11 26t26 11t26 -11t11 -26zM115 0h-25l109 1024h24zM369 -242q-16 -150 -75 -214t-155 -64q-59 0 -104 31l12 20q45 -29 92 -29q90 0 141 63
t66 204l133 1255h25z" />
    <glyph glyph-name="Ldot" unicode="&#x13f;" horiz-adv-x="962" 
d="M860 0h-788l153 1434h25l-152 -1409h764zM696 745q0 -17 -11 -27.5t-28 -10.5t-28 10.5t-11 27.5t11 28t28 11t28 -11t11 -28z" />
    <glyph glyph-name="ldot" unicode="&#x140;" horiz-adv-x="571" 
d="M242 16q-36 -16 -74 -16q-70 0 -70 63q0 18 4 58l150 1415h24l-149 -1411q-4 -40 -4 -57q0 -45 47 -45q31 0 63 14zM489 588q0 -17 -10.5 -28t-27.5 -11t-28 11t-11 28t11 28t28 11t27.5 -11t10.5 -28z" />
    <glyph glyph-name="OE" unicode="&#x152;" horiz-adv-x="1585" 
d="M1421 0h-696q-195 0 -337.5 85.5t-214 231.5t-71.5 334q0 159 55 302.5t152 249.5t238.5 168.5t304.5 62.5h745l-4 -25h-719l-69 -649h631l-2 -25h-631l-72 -710h692zM129 651q0 -175 64 -312.5t196.5 -222t317.5 -89.5l143 1380q-159 0 -295.5 -61t-229 -164.5
t-144.5 -241t-52 -289.5z" />
    <glyph glyph-name="oe" unicode="&#x153;" horiz-adv-x="1599" 
d="M827 537q94 -82 250 -82q77 0 150.5 22.5t133.5 64t97 108.5t37 149q0 96 -66.5 159.5t-179.5 63.5q-111 0 -203 -68t-147.5 -177t-71.5 -240zM86 403q0 -86 18 -157.5t54 -126.5t95 -86t136 -31q122 0 218 86.5t146 227t50 307.5q0 85 -17 156t-52 126t-93 86t-135 31
q-122 0 -219 -85.5t-149 -226.5t-52 -307zM1251 1044q122 0 195.5 -69.5t73.5 -175.5q0 -87 -39.5 -158.5t-103.5 -116t-141.5 -68.5t-158.5 -24q-159 0 -252 78q-4 -46 -4 -70q0 -70 10.5 -132t35 -119t61.5 -98t92.5 -65t124.5 -24q76 0 148 32t116 70l12 -16
q-50 -42 -123 -75t-155 -33q-83 0 -147.5 31.5t-105 88t-63.5 128t-28 157.5q-47 -183 -156 -294t-256 -111q-160 0 -243 116t-83 307q0 175 57 321.5t160 233t230 86.5q148 0 229.5 -106t89.5 -281q47 172 160 279.5t264 107.5z" />
    <glyph glyph-name="Ydieresis" unicode="&#x178;" horiz-adv-x="1218" 
d="M604 1661q0 -20 -12.5 -32.5t-32.5 -12.5t-32.5 12.5t-12.5 32.5t12.5 32.5t32.5 12.5t32.5 -12.5t12.5 -32.5zM948 1661q0 -20 -12.5 -32.5t-32.5 -12.5t-32.5 12.5t-12.5 32.5t12.5 32.5t32.5 12.5t32.5 -12.5t12.5 -32.5zM541 0h-25l45 436l-387 998h12q15 0 21 -17
l371 -952l675 969h27l-694 -1002z" />
    <glyph glyph-name="uni0192" unicode="&#x192;" horiz-adv-x="794" 
d="M211 -242q-16 -150 -74.5 -214t-154.5 -64q-60 0 -105 31l12 20q45 -29 93 -29q90 0 140.5 63t65.5 204l119 1132h-254l2 21h254l27 233q15 140 106 214.5t244 74.5q51 0 109 -10l-9 -23q-50 10 -102 10q-133 0 -220.5 -64t-103.5 -204l-26 -231h336l-2 -23h-336z" />
    <glyph glyph-name="circumflex" unicode="&#x2c6;" horiz-adv-x="1040" 
d="M774 1139l-184 196l-279 -196h-41l310 217h12q12 0 20 -8l193 -209h-31z" />
    <glyph glyph-name="tilde" unicode="&#x2dc;" horiz-adv-x="972" 
d="M383 1315q-63 0 -99.5 -47t-45.5 -105h-19v23q10 64 54 108.5t110 44.5q34 0 62.5 -15.5t49 -37.5t40 -44.5t46 -38t58.5 -15.5q65 0 101 47t44 100h15q4 -4 4 -12v-8q-9 -64 -54.5 -108t-109.5 -44q-36 0 -65 15.5t-49 38t-39.5 45t-45.5 38t-57 15.5z" />
    <glyph glyph-name="gravecomb" unicode="&#x300;" horiz-adv-x="702" 
d="M528 1139h-32l-265 217h19q15 0 33 -15z" />
    <glyph glyph-name="acutecomb" unicode="&#x301;" horiz-adv-x="702" 
d="M233 1139h-38l321 217h43z" />
    <glyph glyph-name="circumflexcomb" unicode="&#x302;" horiz-adv-x="1040" 
d="M774 1139l-184 196l-279 -196h-41l310 217h12q12 0 20 -8l193 -209h-31z" />
    <glyph glyph-name="tildecomb" unicode="&#x303;" horiz-adv-x="972" 
d="M383 1315q-63 0 -99.5 -47t-45.5 -105h-19v23q10 64 54 108.5t110 44.5q34 0 62.5 -15.5t49 -37.5t40 -44.5t46 -38t58.5 -15.5q65 0 101 47t44 100h15q4 -4 4 -12v-8q-9 -64 -54.5 -108t-109.5 -44q-36 0 -65 15.5t-49 38t-39.5 45t-45.5 38t-57 15.5z" />
    <glyph glyph-name="dieresiscomb" unicode="&#x308;" horiz-adv-x="782" 
d="M322 1292q0 -20 -13 -32.5t-33 -12.5t-32.5 12.5t-12.5 32.5t12.5 32.5t32.5 12.5t33 -12.5t13 -32.5zM604 1292q0 -20 -12.5 -32.5t-32.5 -12.5t-32.5 12.5t-12.5 32.5t12.5 32.5t32.5 12.5t32.5 -12.5t12.5 -32.5z" />
    <glyph glyph-name="cedillacomb" unicode="&#x327;" horiz-adv-x="817" 
d="M420 -426q-61 0 -114.5 22t-77.5 44l-23 22l12 25q3 -4 8.5 -9.5t25 -21t41.5 -27t56.5 -21t71.5 -9.5q84 0 126 37.5t42 99.5q0 54 -41.5 85.5t-102.5 31.5q-31 0 -58.5 -8.5t-45.5 -21t-31.5 -25t-19.5 -20.5l-6 -9l-23 12l119 215h27l-89 -162q60 43 127 43
q70 0 119 -38t49 -103q0 -73 -49 -117.5t-143 -44.5z" />
    <glyph glyph-name="pi" unicode="&#x3c0;" horiz-adv-x="1304" 
d="M754 121l92 878h-367l-104 -999h-25l105 999h-273l4 25h936l-4 -25h-248l-92 -874q-4 -40 -4 -57q0 -45 47 -45q33 0 64 14l8 -21q-36 -16 -74 -16q-69 0 -69 63q0 18 4 58z" />
    <glyph glyph-name="endash" unicode="&#x2013;" horiz-adv-x="1388" 
d="M1202 567h-1020l4 25h1020z" />
    <glyph glyph-name="emdash" unicode="&#x2014;" horiz-adv-x="2074" 
d="M1763 567h-1456l4 25h1456z" />
    <glyph glyph-name="quoteleft" unicode="&#x2018;" horiz-adv-x="387" 
d="M303 1137q-1 -12 -13 -20.5t-26 -8.5q-37 0 -58.5 28t-21.5 74q0 79 52 140.5t124 101.5l11 -18q-64 -39 -106 -94t-42 -121q0 -34 22 -58t58 -24z" />
    <glyph glyph-name="quoteright" unicode="&#x2019;" horiz-adv-x="387" 
d="M360 1341q0 -79 -52 -140t-124 -101l-10 18q64 39 106 94t42 121q0 34 -22 58t-58 24q1 12 13 20.5t26 8.5q36 0 57.5 -28.5t21.5 -74.5z" />
    <glyph glyph-name="quotesinglbase" unicode="&#x201a;" horiz-adv-x="387" 
d="M238 -41q0 -87 -52.5 -154.5t-124.5 -111.5l-10 20q63 42 105.5 103.5t42.5 134.5q0 37 -22 63.5t-58 26.5q1 12 13 21.5t26 9.5q37 0 58.5 -31t21.5 -82z" />
    <glyph glyph-name="quotedblleft" unicode="&#x201c;" horiz-adv-x="612" 
d="M305 1135q-1 -12 -13 -20.5t-26 -8.5q-37 0 -58.5 28t-21.5 74q0 79 52 140.5t124 101.5l11 -18q-64 -39 -106 -94t-42 -121q0 -34 22 -58t58 -24zM524 1135q-1 -12 -13 -20.5t-26 -8.5q-36 0 -57.5 28t-21.5 74q0 79 52 140.5t124 101.5l10 -18q-64 -39 -106 -94
t-42 -121q0 -34 22 -58t58 -24z" />
    <glyph glyph-name="quotedblright" unicode="&#x201d;" horiz-adv-x="610" 
d="M360 1341q0 -79 -52 -140t-124 -101l-10 18q64 39 106 94t42 121q0 34 -22 58t-58 24q1 12 13 20.5t26 8.5q36 0 57.5 -28.5t21.5 -74.5zM580 1341q0 -79 -52 -140t-125 -101l-10 18q64 39 106 94t42 121q0 34 -22 58t-58 24q1 12 13 20.5t26 8.5q36 0 58 -28.5t22 -74.5
z" />
    <glyph glyph-name="quotedblbase" unicode="&#x201e;" horiz-adv-x="612" 
d="M238 -41q0 -87 -52.5 -154.5t-124.5 -111.5l-10 20q63 42 105.5 103.5t42.5 134.5q0 37 -22 63.5t-58 26.5q1 12 13 21.5t26 9.5q37 0 58.5 -31t21.5 -82zM463 -41q0 -87 -52 -155t-124 -111l-11 20q63 42 105.5 103.5t42.5 134.5q0 37 -22 63.5t-58 26.5q1 12 13 21.5
t26 9.5q37 0 58.5 -31t21.5 -82z" />
    <glyph glyph-name="dagger" unicode="&#x2020;" horiz-adv-x="1032" 
d="M436 0h-20l98 999h-350l4 25h350l27 246l10 71h20l-2 -71l-26 -246h362l-4 -25h-362z" />
    <glyph glyph-name="daggerdbl" unicode="&#x2021;" horiz-adv-x="1101" 
d="M506 0h-21l2 72l27 245h-350l2 25h350l70 657h-350l2 25h350l26 246l11 71h20l-2 -71l-27 -246h363l-2 -25h-363l-69 -657h362l-2 -25h-362l-27 -245z" />
    <glyph glyph-name="bullet" unicode="&#x2022;" horiz-adv-x="593" 
d="M389 588q0 -35 -23.5 -58.5t-58.5 -23.5t-58.5 23.5t-23.5 58.5t23.5 58.5t58.5 23.5t58.5 -23.5t23.5 -58.5z" />
    <glyph glyph-name="ellipsis" unicode="&#x2026;" horiz-adv-x="976" 
d="M217 25q0 -15 -11 -26t-26 -11t-26 11t-11 26t11 25.5t26 10.5t26 -10.5t11 -25.5zM786 25q0 -15 -10.5 -26t-25.5 -11t-26 11t-11 26t11 25.5t26 10.5t25.5 -10.5t10.5 -25.5zM502 25q0 -15 -11 -26t-26 -11t-26 11t-11 26t11 25.5t26 10.5t26 -10.5t11 -25.5z" />
    <glyph glyph-name="guilsinglleft" unicode="&#x2039;" horiz-adv-x="743" 
d="M461 66h-33l-285 409v14l402 410h35l-408 -418z" />
    <glyph glyph-name="guilsinglright" unicode="&#x203a;" horiz-adv-x="743" 
d="M199 66h-35l409 417l-288 416h30l285 -410v-14z" />
    <glyph glyph-name="fraction" unicode="&#x2044;" horiz-adv-x="1089" 
d="M8 0h-28l1122 1434h28z" />
    <glyph glyph-name="Euro" unicode="&#x20ac;" horiz-adv-x="1116" 
d="M909 39q-155 -59 -295 -59q-166 0 -283.5 82t-173 219.5t-55.5 316.5h-127l5 25h122q0 115 27 243h-123l4 25h125q63 255 231.5 404t395.5 149q139 0 293 -76l-6 -25q-152 76 -289 76q-216 0 -376 -143.5t-222 -384.5h581l-4 -25h-583q-29 -129 -29 -243h565l-4 -25h-561
q2 -129 32.5 -236.5t90 -188t153 -125t213.5 -44.5q147 0 297 62z" />
    <glyph glyph-name="uni2116" unicode="&#x2116;" horiz-adv-x="2168" 
d="M2087 1337q0 -202 -93 -341.5t-239 -139.5q-120 0 -183 87.5t-63 230.5q0 131 43 241t121 175t174 65q117 0 178.5 -88t61.5 -230zM1534 1174q0 -133 55.5 -215t167.5 -82q90 0 161 63.5t108.5 168t37.5 228.5q0 132 -54 214.5t-165 82.5q-136 0 -223.5 -134.5
t-87.5 -325.5zM1069 14l-823 1370l-146 -1384h-28l155 1444h6q11 0 17 -12l823 -1369l144 1371h28l-153 -1434h-5q-10 0 -18 14zM1942 649h-441l4 25h441z" />
    <glyph glyph-name="uni2120" unicode="&#x2120;" horiz-adv-x="1153" 
d="M797 987l-90 430l-185 -551h-20l192 578h15q11 0 14 -12l90 -433l221 445h13q10 0 10 -12l35 -566h-21l-33 545l-217 -438h-10q-12 0 -14 14zM430 1014q-6 -61 -62 -99t-159 -38q-73 0 -131 28l2 25q64 -31 131 -31q92 0 141.5 31t55.5 84v14q0 50 -31.5 80t-100.5 51
l-47 15q-62 18 -89 48.5t-27 75.5v15q5 57 58 94t146 37q73 0 129 -27l-10 -22q-58 26 -121 26q-81 0 -128 -30.5t-52 -77.5v-15q0 -77 103 -106l49 -14q76 -22 109.5 -56t33.5 -92v-16z" />
    <glyph glyph-name="trademark" unicode="&#x2122;" horiz-adv-x="1153" 
d="M252 866h-25l62 553l-187 4l2 17h394v-17l-187 -4zM797 987l-90 430l-185 -551h-20l192 578h15q11 0 14 -12l90 -433l221 445h13q10 0 10 -12l35 -566h-21l-33 545l-217 -438h-10q-12 0 -14 14z" />
    <glyph glyph-name="uni2150" unicode="&#x2150;" horiz-adv-x="1562" 
d="M213 0h-29l1123 1434h28zM1042 0h-24q89 382 422 756h-482l5 20h507l-2 -14q-53 -60 -103.5 -126t-118 -167.5t-122 -224.5t-82.5 -244zM580 657h-478l2 23h228l88 733l-238 -78l2 25l232 74q12 6 22 6h8l-92 -760h228z" />
    <glyph glyph-name="uni2151" unicode="&#x2151;" horiz-adv-x="1433" 
d="M205 0h-29l1122 1434h29zM1059 313q78 0 139 35t92 76l6 49q2 18 2 57q0 105 -47.5 167.5t-144.5 62.5q-102 0 -170 -73t-68 -181q0 -83 46 -138t145 -55zM580 657h-478l2 23h228l88 733l-238 -78l2 25l232 74q12 6 22 6h8l-92 -760h228zM1004 -12q-90 0 -164 51l12 22
q62 -49 154 -49q57 0 99.5 15.5t81 54.5t63.5 113t36 184l2 16q-37 -41 -97 -72.5t-136 -31.5q-107 0 -158 59.5t-53 153.5q0 119 75 198.5t187 79.5q107 0 162 -68t55 -184q0 -19 -4 -59l-8 -88q-12 -117 -40 -197t-70.5 -122t-89 -59t-107.5 -17z" />
    <glyph glyph-name="onethird" unicode="&#x2153;" horiz-adv-x="1443" 
d="M233 0h-28l1122 1434h29zM580 657h-478l2 23h228l88 733l-238 -78l2 25l232 74q12 6 22 6h8l-92 -760h228zM1020 -12q-49 0 -102.5 10t-83.5 22l8 23q92 -33 180 -33q152 0 222.5 64.5t70.5 163.5q0 83 -60 124t-170 41h-71l2 21h74q120 0 183.5 57t63.5 137
q0 66 -49.5 105t-150.5 39q-80 0 -185 -37l-4 20q109 37 191 37q110 0 165.5 -43t55.5 -118q0 -77 -52.5 -135t-148.5 -72q79 -10 128.5 -52t49.5 -124q0 -109 -77 -179.5t-240 -70.5z" />
    <glyph glyph-name="twothirds" unicode="&#x2154;" horiz-adv-x="1447" 
d="M543 657h-471l4 37q6 55 28.5 101.5t63 84.5t76 63t90.5 58l108 62q146 86 146 203q0 66 -50.5 109.5t-152.5 43.5q-105 0 -203 -67l-8 18q104 70 215 70q110 0 165.5 -48.5t55.5 -121.5q0 -77 -45 -131t-121 -97l-110 -63q-103 -62 -162.5 -126t-71.5 -157l-2 -16h447z
M215 0h-29l1123 1434h28zM1024 -12q-49 0 -102.5 10t-83.5 22l8 23q92 -33 180 -33q152 0 222.5 64.5t70.5 163.5q0 83 -59.5 124t-169.5 41h-72l2 21h74q120 0 183.5 57t63.5 137q0 66 -49.5 105t-150.5 39q-80 0 -185 -37l-4 20q109 37 191 37q110 0 165.5 -43t55.5 -118
q0 -77 -52.5 -135t-148.5 -72q79 -10 128.5 -52t49.5 -124q0 -109 -77 -179.5t-240 -70.5z" />
    <glyph glyph-name="oneeighth" unicode="&#x215b;" horiz-adv-x="1458" 
d="M250 0h-29l1122 1434h29zM1083 -12q-112 0 -174.5 50.5t-62.5 135.5q0 87 62.5 149t156.5 95q-145 49 -145 162q0 86 67.5 144t177.5 58q92 0 150.5 -46t58.5 -120q0 -80 -54.5 -131t-139.5 -77q182 -53 182 -191q0 -98 -77.5 -163.5t-201.5 -65.5zM1110 426l47 -10
q83 23 138 71.5t55 124.5q0 67 -51.5 109.5t-135.5 42.5q-98 0 -159.5 -54t-61.5 -130q0 -109 168 -154zM580 657h-478l2 23h228l88 733l-238 -78l2 25l232 74q12 6 22 6h8l-92 -760h228zM1085 8q115 0 184.5 59.5t69.5 149.5q0 128 -192 178l-49 13l-8 2
q-99 -35 -160.5 -95.5t-61.5 -140.5q0 -73 58 -119.5t159 -46.5z" />
    <glyph glyph-name="arrowleft" unicode="&#x2190;" horiz-adv-x="1669" 
d="M1462 485h-1169l399 -440h-20q-15 0 -25 10l-401 441v4l477 438q10 10 25 10h22l-475 -438h1169z" />
    <glyph glyph-name="arrowup" unicode="&#x2191;" horiz-adv-x="1275" 
d="M649 559l-67 -559h-25l68 559l55 436l-496 -440l4 27q4 15 13 24l493 438h4l385 -438q9 -9 9 -24l-5 -23l-382 438z" />
    <glyph glyph-name="arrowright" unicode="&#x2192;" horiz-adv-x="1667" 
d="M920 45h-25l479 440h-1169l2 25h1169l-399 438h20q15 0 25 -10l399 -438v-4l-477 -441q-10 -10 -24 -10z" />
    <glyph glyph-name="arrowdown" unicode="&#x2193;" horiz-adv-x="1273" 
d="M584 -20h-4l-387 438q-9 12 -9 24v23l389 -438l56 438l67 559h25l-68 -559l-55 -438l492 438v-14q0 -20 -15 -35z" />
    <glyph glyph-name="arrowboth" unicode="&#x2194;" horiz-adv-x="2228" 
d="M692 45h-20q-15 0 -25 10l-401 441v4l477 438q10 10 25 10h24l-479 -440l491 2h703l452 -2l-399 440h19q14 0 24 -10l399 -438v-4l-477 -441q-10 -10 -24 -10h-27l483 442l-450 -2h-703l-493 2z" />
    <glyph glyph-name="arrowupdn" unicode="&#x2195;" horiz-adv-x="1275" 
d="M573 -20h-4l-407 284q-10 8 -10 21v18l411 -287l27 220l63 552l27 218l-471 -289l4 20q3 15 14 23l467 284h4l408 -284q10 -8 10 -21v-18l-411 287l-27 -220l-64 -552l-26 -218l471 289l-4 -20q-3 -14 -15 -23z" />
    <glyph glyph-name="arrowupleft" unicode="&#x2196;" horiz-adv-x="1359" 
d="M1196 16l-18 -16l-863 981l-90 -743l-14 12q-8 12 -6 26l92 746l2 2h750q15 0 22 -10l8 -13h-747z" />
    <glyph glyph-name="arrowupright" unicode="&#x2197;" horiz-adv-x="1519" 
d="M1194 238l90 747l-1104 -985l-16 18l1096 981h-732l9 15q7 10 22 10h754l2 -2l-92 -746q-3 -17 -15 -26z" />
    <glyph glyph-name="arrowdownright" unicode="&#x2198;" horiz-adv-x="1359" 
d="M1061 0h-746q-14 0 -24 10l-10 15h745l-862 983l18 16l862 -981l91 743l14 -12q8 -12 6 -26l-92 -746z" />
    <glyph glyph-name="arrowdownleft" unicode="&#x2199;" horiz-adv-x="1517" 
d="M958 0h-751l-2 2l92 754q3 19 14 24l13 6l-91 -747l1106 985l15 -16l-1104 -983h745l-10 -15q-7 -10 -27 -10z" />
    <glyph glyph-name="minus" unicode="&#x2212;" horiz-adv-x="1024" 
d="M856 649h-694l4 25h694z" />
    <glyph glyph-name="infinity" unicode="&#x221e;" horiz-adv-x="1769" 
d="M1319 203q-86 0 -165.5 44t-133.5 101l-150 156l-151 -156q-56 -58 -134.5 -101.5t-164.5 -43.5q-147 0 -237.5 90.5t-90.5 226.5q0 133 91.5 226.5t238.5 93.5q166 0 297 -140l149 -161l152 161q131 140 297 140q147 0 238.5 -93.5t91.5 -226.5q0 -136 -90.5 -226.5
t-237.5 -90.5zM1030 375q144 -148 293 -148q130 0 213.5 85.5t83.5 207.5t-84.5 208.5t-218.5 86.5q-149 0 -287 -143l-141 -150zM119 520q0 -122 83.5 -207.5t213.5 -85.5q152 0 293 148l139 145l-139 152q-133 143 -287 143q-134 0 -218.5 -86.5t-84.5 -208.5z" />
    <glyph glyph-name="notequal" unicode="&#x2260;" horiz-adv-x="1024" 
d="M821 481h-327l-37 -250h-25l37 250h-342l4 25h342l47 311h-334l4 25h334l35 239h25l-35 -239h336l-4 -25h-336l-47 -311h327z" />
    <glyph glyph-name="lessequal" unicode="&#x2264;" horiz-adv-x="1228" 
d="M997 362l-847 345l6 30l942 344l-4 -28l-910 -330l817 -332zM975 203l-4 -29l-848 344l4 27z" />
    <glyph glyph-name="greaterequal" unicode="&#x2265;" horiz-adv-x="1228" 
d="M166 362l4 29l909 330l-817 332l4 28l848 -344l-6 -30zM1081 518l-942 -344l4 29l942 342z" />
    <glyph glyph-name="uni22A0" unicode="&#x22a0;" horiz-adv-x="1677" 
d="M1477 0h-1420l148 1434h1419zM225 1409l-141 -1384h1372l141 1384h-1372zM1100 410l-279 278l-280 -280l-17 18l279 281l-279 278l17 21l280 -281l279 279l20 -17l-280 -280l280 -279z" />
    <glyph glyph-name="house" unicode="&#x2302;" horiz-adv-x="1634" 
d="M1415 0h-1292l65 633l715 682l578 -682z" />
    <glyph glyph-name="uni2460" unicode="&#x2460;" horiz-adv-x="1765" 
d="M1622 711q0 -200 -97 -368t-264.5 -265.5t-367.5 -97.5t-367.5 97.5t-264.5 265.5t-97 368t97 368.5t264.5 266.5t367.5 98t367.5 -98t264.5 -266.5t97 -368.5zM637 383l-2 -23h477l2 23h-227l92 760h-8q-11 0 -23 -6l-231 -74l-2 -25l237 78l-88 -733h-227z" />
    <glyph glyph-name="uni2461" unicode="&#x2461;" horiz-adv-x="1765" 
d="M1622 711q0 -200 -97 -368t-264.5 -265.5t-367.5 -97.5t-367.5 97.5t-264.5 265.5t-97 368t97 368.5t264.5 266.5t367.5 98t367.5 -98t264.5 -266.5t97 -368.5zM604 412l-4 -37h471l2 22h-446l2 17q12 93 71 156.5t162 125.5l111 64q77 44 121.5 97t44.5 130
q0 73 -55.5 121.5t-165.5 48.5q-112 0 -216 -70l9 -18q99 68 202 68q102 0 152.5 -44t50.5 -110q0 -118 -145 -203l-109 -61q-55 -33 -90.5 -58t-76 -63t-63 -84.5t-28.5 -101.5z" />
    <glyph glyph-name="uni2462" unicode="&#x2462;" horiz-adv-x="1765" 
d="M1622 711q0 -200 -97 -368t-264.5 -265.5t-367.5 -97.5t-367.5 97.5t-264.5 265.5t-97 368t97 368.5t264.5 266.5t367.5 98t367.5 -98t264.5 -266.5t97 -368.5zM629 375q83 -33 186 -33q84 0 147.5 20.5t99.5 56t53.5 79t17.5 94.5q0 82 -50 124t-129 52q96 14 148.5 72
t52.5 135q0 75 -55.5 118.5t-165.5 43.5q-82 0 -191 -37l5 -21q105 37 184 37q102 0 151.5 -38.5t49.5 -104.5q0 -80 -64 -137.5t-184 -57.5h-74l-2 -20h72q110 0 169.5 -41.5t59.5 -124.5q0 -99 -70.5 -163t-222.5 -64q-91 0 -180 32z" />
    <glyph glyph-name="uni2463" unicode="&#x2463;" horiz-adv-x="1765" 
d="M1622 711q0 -200 -97 -368t-264.5 -265.5t-367.5 -97.5t-367.5 97.5t-264.5 265.5t-97 368t97 368.5t264.5 266.5t367.5 98t367.5 -98t264.5 -266.5t97 -368.5zM915 590l-30 -244h22l31 244h139l2 22h-139l64 510h-25l-449 -514l-2 -18h387zM918 612h-357l414 482z" />
    <glyph glyph-name="uni2464" unicode="&#x2464;" horiz-adv-x="1765" 
d="M1622 711q0 -200 -97 -368t-264.5 -265.5t-367.5 -97.5t-367.5 97.5t-264.5 265.5t-97 368t97 368.5t264.5 266.5t367.5 98t367.5 -98t264.5 -266.5t97 -368.5zM625 362q83 -36 182 -36q44 0 88 9.5t88.5 32.5t78.5 57t55.5 88.5t21.5 121.5q0 117 -69 172t-173 55
q-94 0 -170 -26l31 258h381l2 20h-404l-37 -295l19 -6q79 27 172 27q45 0 84 -11t71.5 -34t51 -64.5t18.5 -97.5q0 -62 -20 -112.5t-51.5 -82t-72.5 -52.5t-81 -29.5t-80 -8.5q-101 0 -178 35z" />
    <glyph glyph-name="uni2465" unicode="&#x2465;" horiz-adv-x="1765" 
d="M1622 711q0 -200 -97 -368t-264.5 -265.5t-367.5 -97.5t-367.5 97.5t-264.5 265.5t-97 368t97 368.5t264.5 266.5t367.5 98t367.5 -98t264.5 -266.5t97 -368.5zM629 625q0 -60 12 -111t37.5 -93t70.5 -66.5t105 -24.5q115 0 187.5 88t72.5 211q0 92 -52.5 152.5
t-164.5 60.5q-76 0 -141 -36t-101 -89q6 56 20 109t40 104t60.5 88.5t85 60.5t110.5 23q77 0 133 -37l12 22q-67 37 -143 37q-71 0 -130 -28.5t-98 -76t-65.5 -110t-38.5 -128.5t-12 -134v-22zM1090 629q0 -113 -65 -194t-169 -81q-55 0 -96.5 23t-64 62.5t-33.5 85.5
t-11 98v59q28 51 96 94t144 43q107 0 153 -54t46 -136z" />
    <glyph glyph-name="uni2466" unicode="&#x2466;" horiz-adv-x="1765" 
d="M1622 711q0 -200 -97 -368t-264.5 -265.5t-367.5 -97.5t-367.5 97.5t-264.5 265.5t-97 368t97 368.5t264.5 266.5t367.5 98t367.5 -98t264.5 -266.5t97 -368.5zM1149 1069q-333 -374 -422 -756h25q28 121 82.5 244t122 224.5t118 167.5t103.5 126l2 15h-508l-4 -21h481z
" />
    <glyph glyph-name="uni2467" unicode="&#x2467;" horiz-adv-x="1765" 
d="M1622 711q0 -200 -97 -368t-264.5 -265.5t-367.5 -97.5t-367.5 97.5t-264.5 265.5t-97 368t97 368.5t264.5 266.5t367.5 98t367.5 -98t264.5 -266.5t97 -368.5zM618 518q0 -85 63 -135.5t175 -50.5q124 0 201.5 65.5t77.5 163.5q0 138 -183 191q85 26 140 77.5t55 131.5
q0 74 -58.5 119.5t-150.5 45.5q-110 0 -178 -58.5t-68 -143.5q0 -113 146 -162q-94 -33 -157 -95t-63 -149zM1122 956q0 -76 -54.5 -124.5t-137.5 -71.5l-47 10q-168 45 -168 154q0 76 61.5 130t159.5 54q84 0 135 -42.5t51 -109.5zM1112 561q0 -90 -69.5 -149.5
t-184.5 -59.5q-101 0 -159 46.5t-58 119.5q0 80 61 140.5t160 95.5l58 -15q192 -50 192 -178z" />
    <glyph glyph-name="uni2468" unicode="&#x2468;" horiz-adv-x="1765" 
d="M1622 711q0 -200 -97 -368t-264.5 -265.5t-367.5 -97.5t-367.5 97.5t-264.5 265.5t-97 368t97 368.5t264.5 266.5t367.5 98t367.5 -98t264.5 -266.5t97 -368.5zM1114 780q-30 -40 -91.5 -75t-139.5 -35q-99 0 -145 54.5t-46 137.5q0 108 68 181t170 73q97 0 144.5 -62
t47.5 -167q0 -40 -2 -58zM664 395q74 -51 163 -51q61 0 107.5 17t89.5 59t71 122t40 197l8 88q4 40 4 60q0 116 -55 184t-162 68q-112 0 -187 -80t-75 -199q2 -94 53 -153.5t158 -59.5q76 0 135.5 32t97.5 73l-2 -17q-11 -109 -36.5 -183.5t-63.5 -113t-81 -54t-100 -15.5
q-91 0 -153 49z" />
    <glyph glyph-name="uni24C5" unicode="&#x24c5;" horiz-adv-x="1744" 
d="M1642 711q0 -152 -56.5 -287.5t-153 -233t-232 -154t-287.5 -56.5t-287.5 56.5t-232 154t-153 233t-56.5 287.5t56.5 288t153 233.5t232 154.5t287.5 57t287.5 -57t232 -154.5t153 -233.5t56.5 -288zM211 711q0 -195 93 -357t254 -255t355 -93q145 0 275 55t224 148.5
t149 224.5t55 277t-55 277t-149 225t-224 149t-275 55q-194 0 -355 -93t-254 -255.5t-93 -357.5zM915 633q82 0 141 22t91 60.5t46.5 83t14.5 96.5q0 36 -7.5 67.5t-26 62.5t-47 52.5t-74.5 35t-105 13.5h-221v-467q76 -26 188 -26zM915 606q-104 0 -188 25v-365h-27v885
h248q78 0 136 -21.5t89.5 -58.5t46.5 -81t15 -95q0 -56 -17.5 -106t-53.5 -92t-100 -66.5t-149 -24.5z" />
    <glyph glyph-name="uni24EA" unicode="&#x24ea;" horiz-adv-x="1765" 
d="M1622 711q0 -200 -97 -368t-264.5 -265.5t-367.5 -97.5t-367.5 97.5t-264.5 265.5t-97 368t97 368.5t264.5 266.5t367.5 98t367.5 -98t264.5 -266.5t97 -368.5zM627 680q0 -158 62 -256t175 -98q84 0 149.5 62.5t100.5 166t35 227.5q0 151 -59.5 244.5t-169.5 93.5
q-85 0 -152.5 -59t-104 -159t-36.5 -222zM1126 780q0 -116 -31 -213t-92 -157t-139 -60q-101 0 -157 92.5t-56 237.5q0 114 33 209t94.5 152t139.5 57q102 0 155 -89t53 -229z" />
    <glyph glyph-name="uni25A0" unicode="&#x25a0;" horiz-adv-x="1677" 
d="M1477 0h-1420l148 1434h1419z" />
    <glyph glyph-name="uni25A1" unicode="&#x25a1;" horiz-adv-x="1677" 
d="M1477 0h-1420l148 1434h1419zM225 1409l-141 -1384h1372l141 1384h-1372z" />
    <glyph glyph-name="uni25AA" unicode="&#x25aa;" horiz-adv-x="1275" 
d="M1075 0h-1014l109 1024h1014z" />
    <glyph glyph-name="uni25AB" unicode="&#x25ab;" horiz-adv-x="1275" 
d="M1075 0h-1014l109 1024h1014zM193 999l-103 -974h965l102 974h-964z" />
    <glyph glyph-name="triagup" unicode="&#x25b2;" horiz-adv-x="1269" 
d="M1106 0h-1004l619 1044h20z" />
    <glyph glyph-name="triagrt" unicode="&#x25ba;" horiz-adv-x="1216" 
d="M180 -20h-16l131 1064h16l783 -512l-2 -20z" />
    <glyph glyph-name="triagdn" unicode="&#x25bc;" horiz-adv-x="1269" 
d="M549 -20h-21l-364 1044h1003z" />
    <glyph glyph-name="triaglf" unicode="&#x25c4;" horiz-adv-x="1214" 
d="M920 -20h-17l-780 532l2 20l909 512h17z" />
    <glyph glyph-name="uni25CB" unicode="&#x25cb;" horiz-adv-x="1765" 
d="M1622 711q0 -200 -97 -368t-264.5 -265.5t-367.5 -97.5t-367.5 97.5t-264.5 265.5t-97 368t97 368.5t264.5 266.5t367.5 98t367.5 -98t264.5 -266.5t97 -368.5zM188 711q0 -143 55.5 -274t149.5 -226t224.5 -151t275.5 -56t275.5 56t224.5 151t149 225.5t55 274.5
q0 193 -93.5 355.5t-255.5 257.5t-355 95t-355.5 -95t-256 -257.5t-93.5 -355.5z" />
    <glyph glyph-name="uni25CF" unicode="&#x25cf;" horiz-adv-x="1765" 
d="M1622 711q0 -200 -97 -368t-264.5 -265.5t-367.5 -97.5t-367.5 97.5t-264.5 265.5t-97 368t97 368.5t264.5 266.5t367.5 98t367.5 -98t264.5 -266.5t97 -368.5z" />
    <glyph glyph-name="uni2605" unicode="&#x2605;" horiz-adv-x="1724" 
d="M1262 -12l-420 311l-420 -311l-39 26l174 486l-434 291l14 45l529 -17l151 494h49l152 -494l528 17l15 -45l-435 -291l174 -486z" />
    <glyph glyph-name="uni2612" unicode="&#x2612;" horiz-adv-x="1275" 
d="M170 1024h1014l-109 -1024h-1014zM90 25h965l102 974h-964zM856 268l-235 236l-238 -238l-16 19l237 237l-237 236l16 18l238 -237l235 235l18 -16l-235 -236l235 -237z" />
    <glyph glyph-name="uni263D" unicode="&#x263d;" horiz-adv-x="1540" 
d="M1341 98q-80 -60 -194.5 -94.5t-224.5 -34.5q-347 0 -538 175.5t-191 496.5q0 145 49.5 268t141 212t230 139.5t308.5 50.5q110 0 224.5 -34.5t194.5 -94.5l27 -19l-27 -47l-28 8q-84 25 -142 25q-120 0 -219.5 -60t-159 -173.5t-59.5 -260.5q0 -221 129 -371.5
t312 -150.5q72 0 137 23l30 10l27 -49z" />
    <glyph glyph-name="spade" unicode="&#x2660;" horiz-adv-x="1630" 
d="M1032 0h-430v43q72 87 121.5 215t62.5 293h-8q-46 -120 -129 -198.5t-198 -78.5q-120 0 -203.5 87t-83.5 214q0 53 19.5 104.5t45 89t75.5 85t84.5 75t98.5 76.5q17 13 25 19q114 89 185.5 162.5t107.5 163.5h20q36 -90 107.5 -164.5t183.5 -163.5q10 -8 31 -24
q46 -36 69.5 -54.5t64 -52.5t61.5 -57t49 -57t41.5 -63.5t23.5 -65.5t10 -73q0 -127 -83 -214t-203 -87q-115 0 -198.5 78.5t-129.5 198.5h-8q24 -310 188 -508v-43z" />
    <glyph glyph-name="club" unicode="&#x2663;" horiz-adv-x="1622" 
d="M1028 0h-432v45q159 202 182 487h-12q-46 -117 -125 -191.5t-190 -74.5q-120 0 -203.5 84t-83.5 207q0 130 78.5 214.5t203.5 84.5q66 0 138 -39l2 4q-62 97 -62 195q0 124 82.5 211.5t204.5 87.5t204.5 -87.5t82.5 -211.5q0 -98 -62 -195l2 -4q72 39 138 39
q125 0 203.5 -84.5t78.5 -214.5q0 -123 -83.5 -207t-203.5 -84q-111 0 -190 74.5t-125 191.5h-12q23 -282 184 -487v-45z" />
    <glyph glyph-name="heart" unicode="&#x2665;" horiz-adv-x="1761" 
d="M883 -20h-4q-170 126 -298 245.5t-204 215t-123 188t-63.5 162t-16.5 139.5q0 144 92 235.5t248 91.5q79 0 140.5 -19.5t103 -56.5t68.5 -78t48 -95h13q21 54 48 95t68.5 78t103 56.5t140.5 19.5q156 0 248 -91.5t92 -235.5q0 -71 -17 -142t-64 -163t-123.5 -188
t-203.5 -214t-296 -243z" />
    <glyph glyph-name="diamond" unicode="&#x2666;" horiz-adv-x="1511" 
d="M782 -14h-53l-6 10q-100 167 -247.5 333.5t-311.5 299.5v57q163 130 310.5 297t248.5 334l6 10h53l6 -10q101 -167 249 -333.5t311 -297.5v-57q-165 -133 -312.5 -299.5t-247.5 -333.5z" />
    <glyph glyph-name="uni2672" unicode="&#x2672;" horiz-adv-x="1792" 
d="M1360 1157l-100 -272l-283 51l67 39l-118 205q-22 38 -59.5 61.5t-64.5 28.5l-26 4h318q56 0 88.5 -13t60.5 -63l47 -80zM879 1165l-191 -329l-246 141l111 194q19 33 55 52q75 38 158.5 15t112.5 -73zM1565 596q1 -79 -62.5 -143t-120.5 -64l-190 330l244 141l112 -192
q17 -30 17 -72zM420 197h-4l-156 274q-18 33 -25.5 52.5t-5 51t22.5 66.5l47 80l-70 39l285 51l98 -272l-67 39q-115 -197 -119 -205q-22 -36 -23.5 -80t7.5 -70zM1137 63v-79l-187 223l187 221v-80h237q27 0 53 8.5t43.5 21t31.5 25t21 21.5l7 8v-2l-156 -274
q-35 -51 -51 -65q-35 -28 -94 -28h-92zM846 63h-221q-36 0 -72 23q-36 20 -60.5 56t-34 73.5t-8 73.5t14.5 59h381v-285z" />
    <glyph glyph-name="uni26AA" unicode="&#x26aa;" horiz-adv-x="1372" 
d="M1208 512q0 -144 -70.5 -266.5t-193 -194t-268.5 -71.5t-269 71.5t-193.5 194t-70.5 266.5q0 145 71 267.5t193.5 193.5t268.5 71t268.5 -71t193 -193.5t70.5 -267.5zM168 512q0 -138 67.5 -254.5t184.5 -185t256 -68.5t256 68.5t184.5 185t67.5 254.5t-67.5 254.5
t-184.5 185t-256 68.5t-256 -68.5t-184.5 -185t-67.5 -254.5z" />
    <glyph glyph-name="uni26AB" unicode="&#x26ab;" horiz-adv-x="1372" 
d="M1208 512q0 -144 -70.5 -266.5t-193 -194t-268.5 -71.5t-269 71.5t-193.5 194t-70.5 266.5q0 145 71 267.5t193.5 193.5t268.5 71t268.5 -71t193 -193.5t70.5 -267.5z" />
    <glyph glyph-name="uni29EB" unicode="&#x29eb;" horiz-adv-x="1148" 
d="M588 -25h-27l-428 662l430 666h25l428 -670z" />
    <glyph glyph-name="A.salt" horiz-adv-x="1198" 
d="M401 12q198 0 383 322t308 899l22 106v2q-101 76 -283 76q-114 0 -217 -36.5t-192 -112t-154 -183.5t-102 -259.5t-37 -331.5q0 -215 75.5 -348.5t196.5 -133.5zM942 0l162 1169q-131 -570 -315 -876.5t-388 -306.5q-134 0 -216.5 136t-82.5 376q0 182 38.5 337t106 266
t159.5 189t199 116t224 38t199.5 -28.5t122.5 -59.5l-182 -1356h-27z" />
    <glyph glyph-name="Q.salt" horiz-adv-x="1292" 
d="M129 614q0 -172 55.5 -308.5t167 -218t262.5 -81.5q108 0 203.5 41.5t167.5 116t125 173.5t80 217t27 243q0 130 -30.5 241.5t-88.5 196.5t-151.5 133.5t-211.5 48.5q-130 0 -244 -65t-193 -175t-124 -256.5t-45 -306.5zM1612 -369q-183 -57 -359 -57q-522 0 -979 543
q-172 172 -172 497q0 227 81 416.5t228 301.5t328 112q159 0 274.5 -85t172.5 -230t57 -332q0 -165 -46.5 -314t-128 -260.5t-200.5 -177t-256 -65.5q-133 0 -239 61q205 -213 421 -326.5t463 -113.5q173 0 359 57z" />
    <glyph glyph-name="Agrave.salt" horiz-adv-x="1198" 
d="M971 1575h-39l-260 184h18q25 0 45 -14zM410 12q198 0 382.5 322t307.5 899l22 106v2q-101 76 -282 76q-143 0 -268.5 -59t-223 -171t-154.5 -291t-57 -402q0 -215 75.5 -348.5t197.5 -133.5zM950 0l162 1169q-131 -570 -314.5 -876.5t-387.5 -306.5q-134 0 -216.5 136
t-82.5 376q0 182 38.5 337t106 266t159.5 189t199 116t224 38t199 -28.5t122 -59.5l-182 -1356h-27z" />
    <glyph glyph-name="Aacute.salt" horiz-adv-x="1198" 
d="M772 1579h-51l358 182h54zM401 12q198 0 383 322t308 899l22 106v2q-101 76 -283 76q-114 0 -217 -36.5t-192 -112t-154 -183.5t-102 -259.5t-37 -331.5q0 -215 75.5 -348.5t196.5 -133.5zM942 0l162 1169q-131 -570 -315 -876.5t-388 -306.5q-134 0 -216.5 136
t-82.5 376q0 182 38.5 337t106 266t159.5 189t199 116t224 38t199.5 -28.5t122.5 -59.5l-182 -1356h-27z" />
    <glyph glyph-name="Acircumflex.salt" horiz-adv-x="1198" 
d="M1063 1552l-184 160l-269 -166h-45l303 187h9q15 0 24 -9l199 -172h-37zM401 12q198 0 383 322t308 899l22 106v2q-101 76 -283 76q-114 0 -217 -36.5t-192 -112t-154 -183.5t-102 -259.5t-37 -331.5q0 -215 75.5 -348.5t196.5 -133.5zM942 0l162 1169
q-131 -570 -315 -876.5t-388 -306.5q-134 0 -216.5 136t-82.5 376q0 182 38.5 337t106 266t159.5 189t199 116t224 38t199.5 -28.5t122.5 -59.5l-182 -1356h-27z" />
    <glyph glyph-name="Atilde.salt" horiz-adv-x="1198" 
d="M707 1716q-44 0 -77.5 -26t-49 -58t-21.5 -67h-18v22q10 64 55 109t111 45q34 0 62 -15.5t47.5 -38t38.5 -45t45 -38t58 -15.5q65 0 102.5 47.5t45.5 100.5h16q2 -2 2 -13v-8q-9 -63 -55.5 -107t-110.5 -44q-36 0 -64.5 15.5t-48 37.5t-38 44.5t-44 38t-56.5 15.5z
M401 12q198 0 383 322t308 899l22 106v2q-101 76 -283 76q-114 0 -217 -36.5t-192 -112t-154 -183.5t-102 -259.5t-37 -331.5q0 -215 75.5 -348.5t196.5 -133.5zM942 0l162 1169q-131 -570 -315 -876.5t-388 -306.5q-134 0 -216.5 136t-82.5 376q0 182 38.5 337t106 266
t159.5 189t199 116t224 38t199.5 -28.5t122.5 -59.5l-182 -1356h-27z" />
    <glyph glyph-name="Adieresis.salt" horiz-adv-x="1198" 
d="M692 1661q0 -20 -12.5 -32.5t-32.5 -12.5t-32.5 12.5t-12.5 32.5t12.5 32.5t32.5 12.5t32.5 -12.5t12.5 -32.5zM1036 1661q0 -20 -12.5 -32.5t-32.5 -12.5t-32.5 12.5t-12.5 32.5t12.5 32.5t32.5 12.5t32.5 -12.5t12.5 -32.5zM401 12q198 0 383 322t308 899l22 106v2
q-101 76 -283 76q-114 0 -217 -36.5t-192 -112t-154 -183.5t-102 -259.5t-37 -331.5q0 -215 75.5 -348.5t196.5 -133.5zM942 0l162 1169q-131 -570 -315 -876.5t-388 -306.5q-134 0 -216.5 136t-82.5 376q0 182 38.5 337t106 266t159.5 189t199 116t224 38t199.5 -28.5
t122.5 -59.5l-182 -1356h-27z" />
    <glyph glyph-name="onefifth" horiz-adv-x="1445" 
d="M209 0h-29l1123 1434h28zM580 657h-478l2 23h228l88 733l-238 -78l2 25l232 74q12 6 22 6h8l-92 -760h228zM1012 -12q-97 0 -183 37l9 20q77 -35 178 -35q40 0 80 8.5t81 29.5t72.5 52.5t51.5 82t20 112.5q0 56 -18.5 97.5t-51 64.5t-71.5 34t-84 11q-93 0 -172 -27
l-19 6l37 295h424l-2 -20h-401l-31 -258q76 26 170 26q49 0 90.5 -12t76.5 -38t54.5 -71t19.5 -106q0 -67 -21.5 -121.5t-55 -88.5t-78 -57t-88.5 -32.5t-88 -9.5z" />
    <glyph glyph-name="onesixth" horiz-adv-x="1423" 
d="M197 0h-29l1122 1434h29zM1282 287q0 -123 -72.5 -211t-187.5 -88q-60 0 -105 24.5t-70.5 66.5t-37.5 93t-12 111v22q0 68 12 134t38.5 128.5t65.5 110t98 76t130 28.5q76 0 143 -37l-12 -22q-56 37 -133 37q-60 0 -110.5 -23t-85 -60.5t-60.5 -88.5t-40 -104t-20 -109
q36 53 101 89t141 36q112 0 164.5 -60.5t52.5 -152.5zM580 657h-478l2 23h228l88 733l-238 -78l2 25l232 74q12 6 22 6h8l-92 -760h228zM1024 12q104 0 168.5 81t64.5 194q0 83 -46 136.5t-152 53.5q-76 0 -144 -43t-96 -94v-35v-24q0 -52 11 -98t33.5 -85.5t64 -62.5
t96.5 -23z" />
    <glyph glyph-name="twofifths" horiz-adv-x="1435" 
d="M543 657h-471l4 37q6 55 28.5 101.5t63 84.5t76 63t90.5 58l108 62q146 86 146 203q0 66 -50.5 109.5t-152.5 43.5q-105 0 -203 -67l-8 18q104 70 215 70q110 0 165.5 -48.5t55.5 -121.5q0 -77 -45 -131t-121 -97l-110 -63q-103 -62 -162.5 -126t-71.5 -157l-2 -16h447z
M203 0h-29l1122 1434h29zM1001 -12q-96 0 -182 37l8 20q77 -35 179 -35q40 0 80 8.5t81 29.5t72.5 52.5t51.5 82t20 112.5q0 56 -18.5 97.5t-51.5 64.5t-71.5 34t-84.5 11q-93 0 -172 -27l-18 6l37 295h424l-2 -20h-402l-30 -258q76 26 170 26q49 0 90.5 -12t76.5 -38
t54.5 -71t19.5 -106q0 -67 -21.5 -121.5t-55.5 -88.5t-78.5 -57t-88.5 -32.5t-88 -9.5z" />
    <glyph glyph-name="threefifths" horiz-adv-x="1447" 
d="M152 0h-29l1122 1434h29zM264 645q-48 0 -102 10.5t-84 22.5l8 22q89 -32 180 -32q152 0 222.5 64t70.5 163q0 83 -59.5 124.5t-169.5 41.5h-72l2 20h74q120 0 184 57.5t64 137.5q0 66 -49.5 104.5t-151.5 38.5q-79 0 -184 -37l-4 21q109 37 190 37q110 0 165.5 -43.5
t55.5 -118.5q0 -77 -52.5 -135t-148.5 -72q79 -10 129 -52t50 -124q0 -51 -17.5 -94.5t-53.5 -79t-99.5 -56t-147.5 -20.5zM1014 -12q-97 0 -183 37l9 20q77 -35 178 -35q40 0 80 8.5t81 29.5t72.5 52.5t51.5 82t20 112.5q0 56 -18.5 97.5t-51 64.5t-71.5 34t-84 11
q-93 0 -172 -27l-19 6l37 295h424l-2 -20h-401l-31 -258q76 26 170 26q104 0 173 -55t69 -172q0 -67 -21.5 -121.5t-55.5 -88.5t-78.5 -57t-88.5 -32.5t-88 -9.5z" />
    <glyph glyph-name="fourfifths" horiz-adv-x="1486" 
d="M170 0h-29l1123 1434h28zM455 924l57 471l-412 -471h355zM614 901h-139l-31 -244h-22l29 244h-385l2 19l448 514h25l-64 -510h139zM1053 -12q-97 0 -183 37l9 20q77 -35 178 -35q40 0 80 8.5t81 29.5t72.5 52.5t51.5 82t20 112.5q0 56 -18.5 97.5t-51 64.5t-71.5 34
t-84 11q-93 0 -172 -27l-19 6l37 295h424l-2 -20h-401l-31 -258q76 26 170 26q49 0 90.5 -12t76.5 -38t54.5 -71t19.5 -106q0 -67 -21.5 -121.5t-55 -88.5t-78 -57t-88.5 -32.5t-88 -9.5z" />
    <glyph glyph-name="zero.sups" horiz-adv-x="653" 
d="M588 1315q0 -124 -35 -228t-100.5 -166.5t-149.5 -62.5q-113 0 -175 98t-62 256q0 186 82 313.5t210 127.5q110 0 170 -94t60 -244zM90 1212q0 -145 56 -237t157 -92q78 0 139 60t92 157t31 213q0 140 -53 228.5t-156 88.5q-78 0 -139.5 -57t-94 -151.5t-32.5 -209.5z
" />
    <glyph glyph-name="one.sups" 
d="M565 870h-477l2 23h227l89 733l-238 -78l2 25l231 74q12 6 23 6h8l-92 -760h227z" />
    <glyph glyph-name="two.sups" horiz-adv-x="653" 
d="M528 870h-471l4 37q6 55 28.5 101.5t63 84.5t76 63t90.5 58l109 62q145 85 145 203q0 66 -50 109.5t-152 43.5q-105 0 -203 -67l-8 18q104 70 215 70q110 0 165.5 -48.5t55.5 -121.5q0 -77 -45 -131t-121 -97l-111 -63q-102 -61 -161.5 -125.5t-71.5 -157.5l-2 -16h446z
" />
    <glyph glyph-name="three.sups" horiz-adv-x="653" 
d="M250 858q-48 0 -102.5 10.5t-84.5 22.5l9 22q89 -32 180 -32q152 0 222.5 64t70.5 163q0 83 -60 124.5t-170 41.5h-71l2 20h73q120 0 184 57.5t64 137.5q0 66 -49 104.5t-151 38.5q-80 0 -185 -37l-4 21q109 37 191 37q110 0 165.5 -43.5t55.5 -118.5q0 -77 -52.5 -135
t-148.5 -72q79 -10 128.5 -52t49.5 -124q0 -109 -77 -179.5t-240 -70.5z" />
    <glyph glyph-name="four.sups" 
d="M440 1137l58 471l-412 -471h354zM600 1114h-139l-31 -244h-22l28 244h-385l2 19l449 514h24l-63 -510h139z" />
    <glyph glyph-name="five.sups" 
d="M242 858q-97 0 -183 37l9 20q74 -34 178 -34q51 0 101 14.5t97.5 45.5t77 89t29.5 135q0 56 -18.5 97.5t-51 64.5t-71.5 34t-84 11q-96 0 -172 -26l-19 6l37 295h424l-2 -21h-401l-31 -258q79 27 170 27q104 0 172.5 -55t68.5 -173q0 -67 -21.5 -121.5t-55 -88.5t-78 -57
t-88.5 -32.5t-88 -9.5z" />
    <glyph glyph-name="six.sups" 
d="M569 1157q0 -123 -72.5 -211t-187.5 -88q-60 0 -105 24.5t-70.5 66.5t-37.5 93t-12 111v23q0 68 12 134t38.5 128.5t65.5 110t98 76t130 28.5q76 0 143 -37l-12 -23q-56 37 -133 37q-60 0 -110.5 -23t-85 -60.5t-60.5 -88.5t-39.5 -103.5t-19.5 -109.5q36 53 101 89
t140 36q112 0 164.5 -60.5t52.5 -152.5zM311 883q104 0 169 80.5t65 193.5q0 83 -46.5 137t-152.5 54q-76 0 -144 -43.5t-96 -94.5v-34v-25q0 -71 18 -128.5t66 -98.5t121 -41z" />
    <glyph glyph-name="seven.sups" 
d="M156 870h-25q89 382 422 756h-481l4 21h508l-2 -15q-53 -60 -103.5 -126t-118 -167.5t-122 -224.5t-82.5 -244z" />
    <glyph glyph-name="eight.sups" 
d="M301 858q-112 0 -175 50.5t-63 135.5q0 87 63 149t157 95q-146 49 -146 162q0 86 68 144.5t178 58.5q92 0 150.5 -46t58.5 -120q0 -80 -55 -131.5t-140 -77.5q183 -53 183 -191q0 -98 -77.5 -163.5t-201.5 -65.5zM328 1296l47 -10q83 23 137.5 72t54.5 125q0 67 -51 109
t-135 42q-98 0 -159.5 -54t-61.5 -130q0 -109 168 -154zM303 879q115 0 184.5 59t69.5 149q0 129 -192 179l-50 12l-8 2q-99 -35 -160 -95.5t-61 -140.5q0 -73 57.5 -119t159.5 -46z" />
    <glyph glyph-name="nine.sups" 
d="M305 1184q78 0 140 35t92 75l6 49q2 18 2 58q0 105 -48 167t-145 62q-102 0 -169.5 -73t-67.5 -181q0 -83 45.5 -137.5t144.5 -54.5zM250 858q-90 0 -164 51l12 23q62 -49 154 -49q57 0 99.5 15.5t81 54t63.5 112.5t36 184l3 17q-37 -41 -97.5 -73t-136.5 -32
q-107 0 -158 59.5t-53 153.5q0 119 75 199t187 80q107 0 162 -68t55 -184q0 -20 -4 -60l-8 -88q-12 -117 -40 -197t-70.5 -122t-89 -59t-107.5 -17z" />
    <glyph glyph-name="a.sups" horiz-adv-x="739" 
d="M266 877q106 0 193.5 158.5t128.5 422.5l16 117l2 10q-59 47 -164 47q-94 0 -173.5 -59.5t-129 -173t-49.5 -258.5q0 -119 48.5 -191.5t127.5 -72.5zM530 870l60 504q-45 -246 -133 -383t-191 -137q-91 0 -145.5 76.5t-54.5 212.5q0 225 110.5 368.5t263.5 143.5
q96 0 170 -45l4 22l19 8l8 -4l-88 -766h-23z" />
    <glyph glyph-name="b.sups" horiz-adv-x="745" 
d="M283 860q-121 0 -209 45l119 1118h22l-88 -790q48 200 139 311t195 111q97 0 146.5 -80.5t49.5 -202.5q0 -99 -23 -188.5t-67.5 -163t-118 -117t-165.5 -43.5zM100 922q80 -39 183 -39q73 0 133.5 30t100.5 78.5t67 113.5t39 132.5t12 136.5q0 110 -43.5 184t-132.5 74
q-118 0 -215.5 -157t-126.5 -406z" />
    <glyph glyph-name="c.sups" horiz-adv-x="618" 
d="M522 934q-105 -78 -203 -78q-128 0 -190.5 93t-62.5 241q0 90 21 172.5t60.5 148.5t104 105t145.5 39q58 0 110 -25.5t87 -64.5l-14 -17q-74 84 -187 84q-76 0 -136 -38.5t-95.5 -102.5t-53.5 -141t-18 -160q0 -65 12.5 -119.5t38.5 -99t71.5 -69.5t106.5 -25
q99 0 195 75z" />
    <glyph glyph-name="d.sups" horiz-adv-x="739" 
d="M268 883q112 0 206.5 182t129.5 522q-65 45 -162 45q-94 0 -173.5 -59.5t-129 -173t-49.5 -258.5q0 -116 48.5 -187t129.5 -71zM530 870l60 506q-45 -245 -132 -379.5t-192 -134.5q-91 0 -145.5 74t-54.5 207q0 225 110.5 368.5t263.5 143.5q93 0 168 -43l43 411h23
l-121 -1153h-23z" />
    <glyph glyph-name="e.sups" horiz-adv-x="677" 
d="M279 1212q78 0 147 27.5t116.5 87.5t47.5 141q0 70 -49.5 118t-132.5 48q-125 0 -210.5 -103.5t-105.5 -256.5q71 -62 187 -62zM539 936q-102 -82 -211 -82q-67 0 -119 28t-82.5 76.5t-45.5 109.5t-15 132q0 120 42 223.5t121.5 167.5t178.5 64q93 0 148.5 -53.5
t55.5 -133.5q0 -87 -50.5 -151t-124.5 -93.5t-156 -29.5q-128 0 -191 57q-2 -16 -2 -51q0 -66 13.5 -122.5t41 -103t75.5 -73.5t112 -27q58 0 111.5 24.5t86.5 53.5z" />
    <glyph glyph-name="f.sups" horiz-adv-x="460" 
d="M182 690q-21 -209 -174 -209q-51 0 -80 23l11 18q30 -20 67 -20q68 0 106 45.5t50 150.5l96 912l-188 10l2 18h188l21 174q10 105 79 161.5t185 56.5q43 0 84 -9l-8 -20q-28 8 -78 8q-46 0 -85.5 -10.5t-72.5 -33.5t-54.5 -62.5t-27.5 -92.5l-20 -172h213l-2 -20l-213 -8
z" />
    <glyph glyph-name="g.sups" horiz-adv-x="710" 
d="M248 479q-123 0 -193.5 60t-70.5 159q0 58 28 111.5t73.5 92t91.5 65.5t93 45l-41 20q-49 22 -49 55q0 39 62 62l92 39h-6q-93 0 -148 59t-55 148q0 115 79.5 187.5t190.5 72.5q61 0 111 -29l201 53l6 -20l-25 -8l-162 -37q68 -55 68 -141q0 -180 -205 -277l-139 -61
q-27 -13 -37 -23t-10 -22q0 -21 37 -39l141 -72q109 -58 154 -110.5t45 -131.5q0 -114 -96 -186t-236 -72zM147 1393q0 -78 50.5 -132.5t134.5 -54.5q24 0 62 17t78.5 47.5t69.5 83t29 114.5q-3 70 -49 117t-127 47q-103 0 -175.5 -66.5t-72.5 -172.5zM250 500q125 0 215 66
t90 163q0 76 -39.5 125.5t-142.5 103.5l-84 43q-48 -18 -94.5 -44.5t-90.5 -64t-71 -88t-27 -104.5q0 -92 65.5 -146t178.5 -54z" />
    <glyph glyph-name="h.sups" horiz-adv-x="724" 
d="M145 1341l-49 -471h-22l123 1153h22l-57 -553q34 88 103.5 136.5t146.5 48.5q95 0 152 -59t57 -177q0 -8 -5 -53l-51 -496h-22l51 490q4 36 4 57q0 111 -51.5 164t-138.5 53q-42 0 -83 -16t-79 -49t-65.5 -92t-35.5 -136z" />
    <glyph glyph-name="i.sups" horiz-adv-x="256" 
d="M227 1868q0 -15 -9.5 -25t-24.5 -10t-26 10t-11 25q0 17 10.5 27t26.5 10q15 0 24.5 -10t9.5 -27zM96 870h-22l82 768h22z" />
    <glyph glyph-name="j.sups" horiz-adv-x="253" 
d="M227 1868q0 -15 -10 -25t-27 -10q-15 0 -24.5 10t-9.5 25q0 17 9.5 27t24.5 10q37 0 37 -37zM76 690q-11 -112 -56.5 -160.5t-119.5 -48.5q-49 0 -78 23l8 18q30 -20 70 -20q68 0 105.5 45.5t47.5 150.5l101 940h22z" />
    <glyph glyph-name="k.sups" horiz-adv-x="661" 
d="M100 879q-9 -9 -16 -9h-10l121 1153h22l-117 -1110l531 725h24l-290 -397l227 -371h-25l-215 353z" />
    <glyph glyph-name="l.sups" horiz-adv-x="309" 
d="M193 883q-30 -13 -58 -13q-55 0 -55 50q0 13 4 45l111 1058h22l-111 -1054q-4 -32 -4 -45q0 -33 37 -33q24 0 47 10z" />
    <glyph glyph-name="m.sups" horiz-adv-x="1183" 
d="M145 1341l-49 -471h-22l82 768h10q8 0 8 -12l-14 -158q32 90 102.5 138.5t149.5 48.5q89 0 143.5 -53.5t60.5 -161.5q28 102 101 158.5t157 56.5q94 0 149.5 -59t55.5 -177q0 -8 -1 -26t-1 -27l-53 -496h-23l52 490q4 36 4 57q0 111 -51 164t-136 53q-39 0 -77.5 -14.5
t-74.5 -44t-63.5 -81.5t-40.5 -120v-8l-51 -496h-24l53 490q0 9 1 28.5t1 28.5q0 112 -50.5 164.5t-137.5 52.5q-92 0 -168.5 -72.5t-92.5 -220.5z" />
    <glyph glyph-name="n.sups" horiz-adv-x="724" 
d="M145 1341l-49 -471h-22l82 768h10q8 0 8 -12l-14 -160q34 91 103.5 140t148.5 49q94 0 151.5 -59t57.5 -177q0 -8 -5 -53l-51 -496h-22l51 490q4 36 4 57q0 111 -51.5 164t-138.5 53q-42 0 -83 -16t-79 -49t-65.5 -92t-35.5 -136z" />
    <glyph glyph-name="o.sups" horiz-adv-x="724" 
d="M643 1337q0 -202 -93 -341.5t-239 -139.5q-120 0 -182.5 87.5t-62.5 230.5q0 131 42.5 241t120.5 175t174 65q117 0 178.5 -88t61.5 -230zM90 1174q0 -133 55.5 -215t167.5 -82q136 0 222 134.5t86 325.5q0 132 -54.5 214.5t-165.5 82.5q-136 0 -223.5 -134.5
t-87.5 -325.5z" />
    <glyph glyph-name="p.sups" horiz-adv-x="753" 
d="M111 934q66 -51 182 -51q73 0 133.5 30t100.5 78.5t67 113.5t39 132.5t12 136.5q0 110 -43.5 184t-132.5 74q-118 0 -216.5 -157t-125.5 -406zM109 909l-46 -422h-22l119 1151h8q15 0 12 -20l-41 -379q48 196 138.5 306t191.5 110q67 0 113 -40.5t66 -102.5t20 -140
t-14 -151.5t-44.5 -139.5t-73.5 -115t-105 -77.5t-136 -28.5q-129 0 -186 49z" />
    <glyph glyph-name="q.sups" horiz-adv-x="739" 
d="M520 487h-22l94 908q-43 -253 -131.5 -394t-194.5 -141q-91 0 -145.5 75t-54.5 208q0 225 110.5 368.5t263.5 143.5q96 0 170 -45l4 22l19 8l8 -4zM268 883q104 0 191.5 157t128.5 418l16 115l2 12q-59 47 -164 47q-94 0 -173.5 -59.5t-129 -173t-49.5 -258.5
q0 -116 48.5 -187t129.5 -71z" />
    <glyph glyph-name="r.sups" horiz-adv-x="489" 
d="M96 870h-22l82 768h10q11 0 8 -12l-20 -231q35 126 102.5 192t142.5 66t103 -51l-15 -17q-21 47 -90 47q-87 0 -164 -102.5t-100 -312.5z" />
    <glyph glyph-name="s.sups" horiz-adv-x="598" 
d="M494 1069q0 -95 -66.5 -155t-189.5 -60q-136 0 -209 66l10 20q70 -63 201 -63q110 0 170.5 53.5t60.5 136.5q0 70 -43.5 115.5t-130.5 79.5q-114 46 -158.5 87t-44.5 109q0 87 66 142t192 55q82 0 168 -35l-10 -21q-85 33 -160 33q-114 0 -173.5 -48.5t-59.5 -125.5
q0 -63 42 -98t144 -76q97 -40 144 -88t47 -127z" />
    <glyph glyph-name="t.sups" horiz-adv-x="428" 
d="M336 899q-37 -29 -92 -29q-133 0 -133 162q0 35 2 55l55 523l-133 12l2 16h133l25 228h22l-22 -228h231l-2 -16l-234 -12l-55 -514q0 -12 -1 -32.5t-1 -27.5q0 -76 28.5 -110.5t86.5 -34.5q45 0 80 27z" />
    <glyph glyph-name="u.sups" horiz-adv-x="733" 
d="M522 870l49 476q-47 -233 -134 -362.5t-193 -129.5q-77 0 -123.5 56t-46.5 167q0 79 12 170l47 391h23l-47 -385q-13 -132 -13 -174q0 -103 41 -152.5t109 -49.5q109 0 199 159t128 418l25 184h25l-78 -768h-23z" />
    <glyph glyph-name="v.sups" 
d="M299 856h-8q-12 0 -12 12l-183 770h25l174 -739l332 739h24z" />
    <glyph glyph-name="w.sups" horiz-adv-x="1019" 
d="M700 868l-147 738l-287 -750h-6q-10 0 -12 12l-152 770h21l145 -741l283 741h12q9 0 12 -10l144 -729l280 739h23l-299 -782h-8q-9 0 -9 12z" />
    <glyph glyph-name="x.sups" horiz-adv-x="669" 
d="M553 877l-215 372l-307 -379h-31l328 398l-219 370h16q11 0 16 -8l201 -342l291 350h29l-308 -370l232 -398h-19q-7 0 -14 7z" />
    <glyph glyph-name="y.sups" horiz-adv-x="718" 
d="M272 481q-54 0 -108.5 20t-87.5 50l10 18q79 -67 186 -67q105 0 164 62.5t74 205.5l61 573q-47 -231 -135 -360t-194 -129q-76 0 -122 56t-46 167q0 79 12 170l47 391h23l-47 -385q-13 -132 -13 -174q0 -103 41 -152.5t109 -49.5q109 0 199 159t128 418l25 184h25
l-91 -876q-18 -153 -84.5 -217t-175.5 -64z" />
    <glyph glyph-name="z.sups" horiz-adv-x="589" 
d="M479 870h-477l2 4q0 10 10 23l508 719h-407l2 22h440l-2 -6q0 -8 -8 -20l-510 -719h446z" />
    <glyph glyph-name="period.sups" horiz-adv-x="350" 
d="M178 891q0 -15 -11 -26t-26 -11t-26 11t-11 26t11 26t26 11t26 -11t11 -26z" />
    <glyph glyph-name="comma.sups" horiz-adv-x="333" 
d="M207 868q0 -52 -41 -95.5t-86 -59.5l-6 12q80 46 80 117q0 19 -10.5 32t-20.5 15q3 17 14.5 28t26.5 11q20 0 31.5 -16t11.5 -44z" />
    <glyph glyph-name="hyphen.sups" horiz-adv-x="813" 
d="M666 1292h-525l4 23h525z" />
    <glyph glyph-name="parenleft.sups" horiz-adv-x="518" 
d="M348 641h-26q-69 92 -119.5 247t-50.5 343q0 214 65 402.5t164 332.5h27q-101 -146 -167.5 -335.5t-66.5 -395.5q0 -183 51 -341t123 -253z" />
    <glyph glyph-name="parenright.sups" horiz-adv-x="514" 
d="M33 641h-29q58 61 113 145.5t104.5 192.5t80 240.5t30.5 265.5q0 257 -109 481h27q104 -221 104 -475q0 -139 -30.5 -276t-80 -245t-102.5 -190.5t-108 -138.5z" />
    <glyph glyph-name="plus.sups" horiz-adv-x="813" 
d="M666 1356h-252l-27 -246h-22l26 246h-250l4 22h248l27 236h22l-26 -236h254z" />
    <glyph glyph-name="minus.sups" horiz-adv-x="813" 
d="M666 1356h-525l4 22h525z" />
    <glyph glyph-name="multiply.sups" horiz-adv-x="813" 
d="M584 1174l-178 178l-179 -178l-14 16l178 176l-178 178l14 17l181 -179l176 177l16 -15l-178 -176l178 -178z" />
    <glyph glyph-name="equal.sups" horiz-adv-x="813" 
d="M684 1481h-524l4 22h524zM641 1229h-526l4 22h524z" />
    <glyph glyph-name="divide.sups" horiz-adv-x="813" 
d="M463 1581q0 -15 -10 -25t-27 -10q-15 0 -25 10t-10 25t10 26t25 11q17 0 27 -10.5t10 -26.5zM666 1356h-525l4 20h525zM408 1147q0 -17 -10 -27t-25 -10t-25 10t-10 27q0 15 10 25t25 10t25 -10t10 -25z" />
    <glyph glyph-name="dollar.sups" horiz-adv-x="659" 
d="M297 739h-23l17 121q-134 5 -238 84l13 19q105 -82 243 -82q120 0 181 52t61 132q0 61 -40.5 103t-131.5 83l-88 37q-86 38 -121 77.5t-35 94.5q0 86 74 139.5t201 53.5l10 94h20l-10 -94q106 -3 188 -37l-10 -21q-97 37 -190 37q-121 0 -189.5 -48t-68.5 -120
q0 -49 31 -85t108 -70l84 -35q102 -44 146 -90t44 -117q0 -92 -65.5 -149.5t-196.5 -57.5z" />
    <glyph glyph-name="cent.sups" horiz-adv-x="501" 
d="M240 963h-4l-11 -105h-18l10 107q-82 9 -123 74t-41 165q0 135 60 232.5t170 103.5l12 113h20l-12 -113q80 -3 133 -63l-10 -17q-57 60 -133 60q-71 0 -122 -48t-73 -117t-22 -149q0 -97 40.5 -160t123.5 -63q63 0 139 53l6 -18q-73 -55 -145 -55z" />
    <glyph glyph-name="sterling.sups" 
d="M555 893l-2 -23h-520l2 23h49q83 0 139.5 50t65.5 134q4 28 4 41q0 19 -2 27h-170l2 18h164q-10 44 -64 101l-35 30q-71 71 -71 146q0 14 2 20q10 89 88.5 141t191.5 52q107 0 199 -43l-8 -21q-91 43 -193 43t-173.5 -45.5t-80.5 -126.5q-2 -8 -2 -24q0 -35 15.5 -64
t50.5 -65l33 -31q57 -57 71 -113h187l-4 -18h-181q2 -8 2 -25q0 -11 -4 -43q-9 -68 -47 -117t-90 -67h381z" />
    <glyph glyph-name="florin.sups" horiz-adv-x="477" 
d="M143 743q-9 -84 -42 -119.5t-89 -35.5q-33 0 -59 16l8 19q23 -15 49 -15q49 0 76.5 33.5t34.5 108.5l63 602h-137l2 18h135l15 123q9 78 59 119t135 41q28 0 64 -6l-8 -21q-15 6 -56 6q-70 0 -117 -34t-55 -107l-12 -121h180l-2 -18h-180z" />
    <glyph glyph-name="yen.sups" 
d="M473 1012h-166l-12 -142h-23l13 142h-168l2 20h168l8 94h-166l2 19h166l6 78l-207 415h25l194 -395l312 395h24l-325 -417l-7 -76h168l-2 -19h-168l-8 -94h166z" />
    <glyph glyph-name="Euro.sups" horiz-adv-x="649" 
d="M424 1335h-399l4 21h67q34 137 125 217t215 80q70 0 160 -41l-6 -23q-84 41 -156 41q-113 0 -196.5 -74t-116.5 -200h307zM514 891q-85 -33 -158 -33q-133 0 -204.5 91.5t-73.5 240.5h-70l2 20h389l-2 -20h-297q5 -140 71.5 -224.5t188.5 -84.5q73 0 158 32z" />
    <glyph glyph-name="zero.subs" horiz-adv-x="653" 
d="M549 215q0 -124 -35 -228t-100.5 -166.5t-149.5 -62.5q-112 0 -174.5 98t-62.5 257q0 186 82 313t210 127q110 0 170 -94t60 -244zM51 113q0 -145 56 -237.5t157 -92.5q78 0 139 60t92 157t31 213q0 140 -53 228.5t-156 88.5q-78 0 -139.5 -56.5t-94 -151.5t-32.5 -209z
" />
    <glyph glyph-name="one.subs" 
d="M526 -229h-477l2 22h228l88 733l-238 -77l2 24l231 74q12 6 23 6h8l-92 -760h227z" />
    <glyph glyph-name="two.subs" horiz-adv-x="653" 
d="M489 -229h-471l5 36q6 55 28.5 101.5t62.5 84.5t76 63.5t91 58.5l108 61q146 86 146 203q0 66 -50.5 109.5t-152.5 43.5q-105 0 -203 -67l-8 18q104 70 215 70q110 0 165.5 -48.5t55.5 -121.5q0 -77 -44.5 -130t-121.5 -97l-110 -64q-103 -62 -162.5 -125.5t-71.5 -156.5
l-2 -17h447z" />
    <glyph glyph-name="three.subs" horiz-adv-x="653" 
d="M211 -242q-103 0 -186 33l8 23q92 -33 180 -33q152 0 222.5 64t70.5 163q0 83 -60 124.5t-170 41.5h-71l2 21h74q120 0 183.5 57t63.5 137q0 66 -49 104.5t-151 38.5q-83 0 -185 -36l-4 20q109 37 191 37q110 0 165.5 -43.5t55.5 -118.5q0 -77 -52.5 -135t-148.5 -72
q79 -10 128.5 -52t49.5 -124q0 -109 -77 -179.5t-240 -70.5z" />
    <glyph glyph-name="four.subs" 
d="M401 37l58 471l-412 -471h354zM561 14h-139l-31 -243h-22l28 243h-385l2 19l449 514h24l-63 -510h139z" />
    <glyph glyph-name="five.subs" 
d="M203 -242q-97 0 -183 37l9 21q77 -35 178 -35q40 0 80 8.5t81 29.5t72.5 52.5t51.5 82t20 112.5q0 108 -64 157t-161 49q-96 0 -172 -26l-19 6l37 295h424l-2 -21h-401l-31 -258q79 27 170 27q104 0 173 -55t69 -172q0 -67 -21.5 -121.5t-55.5 -88.5t-78.5 -57.5
t-88.5 -33t-88 -9.5z" />
    <glyph glyph-name="six.subs" 
d="M530 57q0 -123 -72.5 -211t-187.5 -88q-60 0 -105 24.5t-70.5 66.5t-37.5 93t-12 111v23q0 68 12 134t38.5 128.5t65.5 110t98 76t130 28.5q76 0 143 -37l-12 -22q-54 36 -133 36q-60 0 -110.5 -23t-85 -60.5t-60.5 -88.5t-39.5 -103.5t-19.5 -109.5q36 53 101 89t140 36
q112 0 164.5 -60.5t52.5 -152.5zM272 -217q104 0 169 80.5t65 193.5q0 83 -46.5 137t-152.5 54q-76 0 -143.5 -43t-95.5 -94v-35v-25q0 -52 10.5 -97.5t33 -85t64 -62.5t96.5 -23z" />
    <glyph glyph-name="seven.subs" 
d="M117 -229h-25q89 381 422 755h-481l4 21h508l-2 -15q-338 -382 -426 -761z" />
    <glyph glyph-name="eight.subs" 
d="M262 -242q-112 0 -174.5 51t-62.5 136q0 87 62.5 148.5t156.5 94.5q-146 49 -146 162q0 86 68 144.5t178 58.5q92 0 150.5 -46t58.5 -120q0 -80 -55 -131.5t-140 -77.5q183 -53 183 -190q0 -98 -77.5 -164t-201.5 -66zM289 197l47 -11q83 23 137.5 72t54.5 125
q0 67 -51 109.5t-135 42.5q-98 0 -159.5 -54.5t-61.5 -130.5q0 -108 168 -153zM264 -221q115 0 184.5 59.5t69.5 149.5q0 128 -192 178l-50 12l-8 2q-99 -35 -160 -95t-61 -140q0 -73 58 -119.5t159 -46.5z" />
    <glyph glyph-name="nine.subs" 
d="M266 84q78 0 139.5 35.5t92.5 75.5l6 49q2 18 2 57q0 105 -48 167t-145 62q-102 0 -169.5 -73t-67.5 -181q0 -83 45.5 -137.5t144.5 -54.5zM211 -242q-89 0 -164 52l12 22q62 -49 154 -49q57 0 100 15.5t81 54.5t63.5 113t36.5 184l2 16q-37 -41 -97.5 -73t-136.5 -32
q-107 0 -158 59.5t-53 153.5q0 119 75 199t187 80q107 0 162 -68t55 -184q0 -19 -4 -59l-8 -88q-12 -117 -40 -197t-70.5 -122.5t-89 -59.5t-107.5 -17z" />
    <glyph glyph-name="a.subs" horiz-adv-x="739" 
d="M242 -217q105 0 192.5 158.5t128.5 423.5l17 116l2 11q-68 47 -164 47q-145 0 -248.5 -137t-103.5 -355q0 -119 48.5 -191.5t127.5 -72.5zM506 -223l57 504q-43 -247 -130 -384t-191 -137q-91 0 -146 76.5t-55 212.5q0 225 111 368.5t264 143.5q96 0 170 -45l4 23l18 8
l8 -4l-88 -766h-22z" />
    <glyph glyph-name="b.subs" horiz-adv-x="745" 
d="M258 -233q-121 0 -209 45l119 1118h22l-88 -791q48 199 139 310.5t195 111.5q97 0 147 -80.5t50 -201.5q0 -78 -14 -151.5t-44.5 -139.5t-73.5 -115t-106 -77.5t-137 -28.5zM76 -172q80 -39 182 -39q91 0 161.5 45t110.5 118.5t60 157t20 171.5q0 110 -43.5 184
t-132.5 74q-118 0 -215.5 -157.5t-126.5 -406.5z" />
    <glyph glyph-name="c.subs" horiz-adv-x="618" 
d="M498 -160q-105 -78 -203 -78q-128 0 -191 93t-63 241q0 122 35.5 225.5t112.5 171.5t184 68q58 0 109.5 -25.5t86.5 -64.5l-14 -16q-74 84 -186 84q-76 0 -136 -38.5t-95.5 -103t-53.5 -141.5t-18 -160q0 -65 12.5 -119.5t38.5 -99t71.5 -69.5t106.5 -25q96 0 194 76z
" />
    <glyph glyph-name="d.subs" horiz-adv-x="739" 
d="M244 -211q112 0 206.5 182t129.5 521q-59 47 -162 47q-145 0 -248.5 -137t-103.5 -355q0 -116 48.5 -187t129.5 -71zM506 -223l59 506q-45 -245 -131.5 -379.5t-191.5 -134.5q-91 0 -146 74t-55 206q0 225 111 368.5t264 143.5q93 0 168 -43l43 412h22l-121 -1153h-22z
" />
    <glyph glyph-name="e.subs" horiz-adv-x="677" 
d="M254 119q78 0 147 27.5t116.5 87.5t47.5 141q0 70 -49.5 118t-132.5 48q-124 0 -209.5 -104.5t-105.5 -256.5q70 -61 186 -61zM514 -158q-102 -82 -211 -82q-67 0 -119 28t-82.5 76.5t-45.5 109.5t-15 132q0 120 42 223.5t121.5 167.5t178.5 64q93 0 149 -53t56 -133
q0 -87 -51 -151.5t-125 -94t-156 -29.5q-126 0 -190 58q-3 -24 -3 -52q0 -139 59.5 -232t182.5 -93q58 0 112 24.5t87 53.5z" />
    <glyph glyph-name="f.subs" horiz-adv-x="460" 
d="M158 -403q-21 -209 -174 -209q-53 0 -80 22l10 19q31 -21 68 -21q68 0 105.5 46t49.5 151l96 911l-188 10l2 19h189l20 174q10 105 79 161t185 56q48 0 84 -8l-8 -21q-28 8 -78 8q-47 0 -86 -10.5t-72 -33t-54 -62t-27 -92.5l-21 -172h213l-2 -21l-213 -8z" />
    <glyph glyph-name="g.subs" horiz-adv-x="710" 
d="M223 -614q-123 0 -193.5 60t-70.5 159q0 58 28 111t74 91.5t92 65t93 43.5l-41 23q-49 22 -49 55q0 38 61 61l92 39h-6q-93 0 -148 59t-55 148q0 115 80 187.5t191 72.5q60 0 110 -29l201 54l6 -21l-24 -8l-164 -39q69 -51 69 -139q0 -181 -204 -277l-140 -61
q-27 -13 -37 -23t-10 -22q0 -21 37 -39l141 -72q109 -58 154 -110t45 -131q0 -114 -96 -186t-236 -72zM123 299q0 -78 50 -132t134 -54q24 0 62 17t79 47.5t70 83t29 114.5q-3 70 -49 117t-127 47q-103 0 -175.5 -67t-72.5 -173zM225 -594q125 0 215 66t90 163
q0 76 -39.5 126.5t-142.5 103.5l-84 43q-48 -19 -94 -45.5t-90 -64t-71 -87.5t-27 -104q0 -92 65.5 -146.5t177.5 -54.5z" />
    <glyph glyph-name="h.subs" horiz-adv-x="724" 
d="M121 248l-49 -471h-23l123 1153h23l-58 -553q32 88 102 136t148 48q96 0 152.5 -58.5t56.5 -176.5q0 -18 -4 -54l-51 -495h-23l51 489q4 36 4 58q0 111 -51.5 164t-138.5 53q-92 0 -169 -72.5t-93 -220.5z" />
    <glyph glyph-name="i.subs" horiz-adv-x="256" 
d="M203 774q0 -15 -10 -25t-25 -10t-26 10t-11 25q0 17 10.5 27t26.5 10q15 0 25 -10t10 -27zM72 -223h-23l82 768h23z" />
    <glyph glyph-name="j.subs" horiz-adv-x="253" 
d="M203 774q0 -15 -10 -25t-27 -10q-15 0 -25 10t-10 25q0 17 10 27t25 10q37 0 37 -37zM51 -403q-11 -112 -56.5 -160.5t-119.5 -48.5q-51 0 -78 22l8 19q31 -21 70 -21q68 0 106 46t48 151l100 940h23z" />
    <glyph glyph-name="k.subs" horiz-adv-x="661" 
d="M76 -215q-8 -8 -17 -8h-10l121 1153h23l-119 -1110l532 725h25l-291 -398l227 -370h-24l-217 350z" />
    <glyph glyph-name="l.subs" horiz-adv-x="309" 
d="M168 -211q-28 -12 -57 -12q-56 0 -56 49q0 13 4 45l111 1059h23l-111 -1055q-4 -32 -4 -45q0 -33 37 -33q24 0 47 10z" />
    <glyph glyph-name="m.subs" horiz-adv-x="1183" 
d="M121 248l-49 -471h-23l82 768h10q9 0 9 -13l-15 -159q32 90 102 139t150 49q88 0 143.5 -54t61.5 -163q28 103 101 160t157 57q94 0 149.5 -58.5t55.5 -176.5q0 -8 -1 -26.5t-1 -27.5l-54 -495h-22l51 489q4 36 4 58q0 111 -50.5 164t-135.5 53q-39 0 -77.5 -14.5
t-74.5 -44t-63.5 -81.5t-40.5 -120v-9l-51 -495h-25l53 489q0 9 1 29t1 29q0 112 -50.5 164.5t-137.5 52.5q-92 0 -168 -72.5t-92 -220.5z" />
    <glyph glyph-name="n.subs" horiz-adv-x="724" 
d="M121 248l-49 -471h-23l82 768h10q9 0 9 -13l-15 -159q32 90 102.5 139t149.5 49q94 0 151.5 -58.5t57.5 -176.5q0 -18 -4 -54l-51 -495h-23l51 489q4 36 4 58q0 111 -51.5 164t-138.5 53q-92 0 -169 -72.5t-93 -220.5z" />
    <glyph glyph-name="o.subs" horiz-adv-x="724" 
d="M618 244q0 -132 -40.5 -241.5t-117 -175t-173.5 -65.5q-120 0 -183 87.5t-63 230.5q0 131 43 241t121 175t174 65q117 0 178 -87.5t61 -229.5zM66 80q0 -133 55.5 -215t167.5 -82q90 0 161 63.5t108.5 168.5t37.5 229q0 132 -54 214.5t-165 82.5q-136 0 -223.5 -135
t-87.5 -326z" />
    <glyph glyph-name="p.subs" horiz-adv-x="753" 
d="M86 -160q66 -51 182 -51q91 0 161.5 45t111 118.5t60.5 157t20 171.5q0 110 -44 184t-133 74q-118 0 -216.5 -157.5t-125.5 -406.5zM84 -184l-45 -422h-23l119 1151h8q16 0 13 -21l-43 -379q50 197 139.5 306.5t191.5 109.5q67 0 113 -40t66 -102t20 -140t-14 -151.5
t-44.5 -139.5t-73.5 -115t-105 -77.5t-136 -28.5q-129 0 -186 49z" />
    <glyph glyph-name="q.subs" horiz-adv-x="739" 
d="M496 -606h-23l94 905q-43 -252 -131 -392t-194 -140q-91 0 -146 74.5t-55 207.5q0 225 111 368.5t264 143.5q96 0 170 -45l4 23l18 8l8 -4zM244 -211q104 0 191 157t128 419l17 114l2 13q-68 47 -164 47q-145 0 -248.5 -137t-103.5 -355q0 -116 48.5 -187t129.5 -71z" />
    <glyph glyph-name="r.subs" horiz-adv-x="489" 
d="M72 -223h-23l82 768h10q12 0 9 -13l-23 -231q35 124 104 191t144 67q74 0 102 -51l-14 -16q-21 47 -90 47q-87 0 -164 -103t-100 -313z" />
    <glyph glyph-name="s.subs" horiz-adv-x="598" 
d="M469 -25q0 -95 -66.5 -155t-189.5 -60q-136 0 -209 66l10 20q70 -63 201 -63q110 0 170.5 53.5t60.5 136.5q0 70 -43.5 115.5t-130.5 79.5q-113 46 -157.5 87.5t-44.5 109.5q0 87 66 141.5t192 54.5q82 0 168 -35l-11 -20q-85 33 -159 33q-114 0 -174 -48.5t-60 -125.5
q0 -63 42.5 -98.5t144.5 -76.5q97 -40 143.5 -88t46.5 -127z" />
    <glyph glyph-name="t.subs" horiz-adv-x="428" 
d="M311 -195q-36 -28 -92 -28q-133 0 -133 162q0 35 2 55l55 522l-133 12l2 17h133l25 227h23l-23 -227h231l-2 -17l-233 -12l-55 -514q0 -12 -1 -32t-1 -27q0 -77 28 -111.5t86 -34.5q45 0 80 27z" />
    <glyph glyph-name="u.subs" horiz-adv-x="733" 
d="M498 -223l49 475q-46 -232 -134.5 -362t-193.5 -130q-77 0 -123.5 56.5t-46.5 167.5q0 79 12 170l48 391h22l-47 -385q-12 -122 -12 -174q0 -103 41 -153t108 -50q109 0 199.5 159t128.5 418l24 185h25l-78 -768h-22z" />
    <glyph glyph-name="v.subs" 
d="M274 -238h-8q-12 0 -12 13l-182 770h24l172 -740l334 740h25z" />
    <glyph glyph-name="w.subs" horiz-adv-x="1019" 
d="M676 -225l-148 737l-286 -750h-6q-10 0 -13 13l-151 770h20l146 -744l282 744h12q10 0 13 -10l143 -730l281 740h22l-299 -783h-8q-8 0 -8 13z" />
    <glyph glyph-name="x.subs" horiz-adv-x="669" 
d="M528 -217l-215 371l-307 -377h-31l326 397l-217 371h16q12 0 17 -8l200 -344l291 352h29l-309 -371l233 -397h-18q-9 0 -15 6z" />
    <glyph glyph-name="y.subs" horiz-adv-x="718" 
d="M248 -612q-55 0 -109.5 19.5t-87.5 49.5l10 19q81 -68 187 -68q105 0 163.5 62.5t73.5 205.5l60 572q-47 -232 -134.5 -360t-193.5 -128q-76 0 -122 56.5t-46 167.5q0 79 12 170l48 391h22l-47 -385q-12 -122 -12 -174q0 -103 41 -153t108 -50q109 0 199.5 159t128.5 418
l24 185h25l-90 -877q-18 -153 -84.5 -216.5t-175.5 -63.5z" />
    <glyph glyph-name="z.subs" horiz-adv-x="589" 
d="M455 -223h-478l3 4q0 9 10 22l508 719h-408l2 23h440l-2 -6q0 -9 -8 -21l-510 -719h447z" />
    <glyph glyph-name="period.subs" horiz-adv-x="350" 
d="M139 -209q0 -15 -11 -26t-26 -11t-25.5 11t-10.5 26t10.5 26t25.5 11t26 -11t11 -26z" />
    <glyph glyph-name="comma.subs" horiz-adv-x="333" 
d="M168 -231q0 -52 -41 -96t-86 -60l-6 12q80 46 80 117q0 19 -10.5 32t-20.5 15q3 17 14.5 28t26.5 11q43 0 43 -59z" />
    <glyph glyph-name="hyphen.subs" horiz-adv-x="813" 
d="M627 193h-525l4 22h525z" />
    <glyph glyph-name="parenleft.subs" horiz-adv-x="518" 
d="M309 -459h-26q-69 92 -119.5 247t-50.5 343q0 214 65 402.5t164 332.5h27q-101 -146 -167.5 -335.5t-66.5 -395.5q0 -183 51 -341t123 -253z" />
    <glyph glyph-name="parenright.subs" horiz-adv-x="514" 
d="M-6 -459h-29q58 61 113 145.5t104.5 192.5t80 240.5t30.5 265.5q0 257 -109 481h27q104 -221 104 -475q0 -139 -30.5 -276t-80 -245t-102.5 -190.5t-108 -138.5z" />
    <glyph glyph-name="plus.subs" horiz-adv-x="813" 
d="M627 256h-252l-27 -246h-22l26 246h-250l4 23h248l27 235h22l-26 -235h254z" />
    <glyph glyph-name="minus.subs" horiz-adv-x="813" 
d="M627 256h-525l4 23h525z" />
    <glyph glyph-name="multiply.subs" horiz-adv-x="813" 
d="M545 74l-178 178l-179 -178l-14 16l176 176l-176 178l14 17l179 -178l178 176l16 -15l-178 -178l178 -176z" />
    <glyph glyph-name="equal.subs" horiz-adv-x="813" 
d="M645 381h-524l4 22h524zM602 129h-526l4 23h524z" />
    <glyph glyph-name="divide.subs" horiz-adv-x="813" 
d="M424 481q0 -15 -10 -25t-27 -10q-15 0 -25 10t-10 25t10 26t25 11q17 0 27 -10.5t10 -26.5zM627 256h-525l4 20h525zM369 47q0 -17 -10 -27t-25 -10t-25 10t-10 27q0 15 10 25t25 10t25 -10t10 -25z" />
    <glyph glyph-name="dollar.subs" horiz-adv-x="659" 
d="M258 -360h-22l16 120q-134 5 -238 84l13 19q105 -82 243 -82q120 0 181 52t61 132q0 61 -40.5 103.5t-131.5 83.5l-88 36q-86 38 -121 77.5t-35 94.5q0 86 73.5 139.5t199.5 53.5l12 94h20l-12 -94q96 -3 191 -37l-11 -20q-94 36 -190 36q-122 0 -190 -47.5t-68 -119.5
q0 -49 31 -85.5t108 -70.5l84 -35q102 -45 146.5 -90.5t44.5 -116.5q0 -92 -66 -149.5t-197 -57.5z" />
    <glyph glyph-name="cent.subs" horiz-adv-x="501" 
d="M201 -137h-4l-11 -105h-18l8 105q-82 9 -122 75t-40 166q0 135 60 232.5t170 103.5l12 113h20l-14 -113q78 -3 135 -63l-10 -17q-57 60 -133 60q-71 0 -122 -48t-73 -117t-22 -149q0 -97 40.5 -160t123.5 -63q62 0 139 54l6 -19q-73 -55 -145 -55z" />
    <glyph glyph-name="sterling.subs" 
d="M516 -207l-2 -22h-520l2 22h49q83 0 139.5 50t65.5 134q4 28 4 41q0 4 -1 13.5t-1 13.5h-170l2 18h164q-14 48 -64 101l-34 31q-72 72 -72 145q0 14 2 20q10 89 88.5 141t191.5 52q107 0 199 -43l-8 -21q-91 43 -193 43t-173.5 -45.5t-80.5 -126.5q-2 -8 -2 -24
q0 -35 15.5 -64t50.5 -65l33 -31q59 -62 69 -113h189l-4 -18h-181q0 -4 1 -12.5t1 -12.5q0 -11 -4 -43q-9 -67 -48 -116.5t-89 -67.5h381z" />
    <glyph glyph-name="florin.subs" horiz-adv-x="477" 
d="M104 -356q-9 -84 -42 -120t-89 -36q-33 0 -59 16l8 19q22 -15 49 -15q49 0 76.5 33.5t34.5 108.5l63 602h-137l2 18h135l15 123q9 78 59 119t135 41q28 0 64 -6l-8 -21q-15 6 -56 6q-70 0 -117 -34t-55 -107l-12 -121h180l-2 -18h-180z" />
    <glyph glyph-name="yen.subs" horiz-adv-x="745" 
d="M434 -88h-166l-12 -141h-23l13 141h-168l2 20h166l8 95h-164l2 18h164l8 78l-207 416h25l194 -396l312 396h24l-325 -418l-8 -76h170l-3 -18h-167l-9 -95h166z" />
    <glyph glyph-name="Euro.subs" horiz-adv-x="649" 
 />
    <glyph glyph-name="zero.numr" horiz-adv-x="653" 
d="M602 1102q0 -124 -35 -228t-100.5 -166.5t-149.5 -62.5q-113 0 -175 98t-62 256q0 186 82.5 313.5t210.5 127.5q110 0 169.5 -93.5t59.5 -244.5zM104 999q0 -145 56 -237t157 -92q78 0 139 60t92.5 157.5t31.5 212.5q0 140 -53 228.5t-156 88.5q-78 0 -139.5 -57
t-94.5 -152t-33 -209z" />
    <glyph glyph-name="one.numr" 
d="M580 657h-478l2 23h228l88 733l-238 -78l2 25l232 74q12 6 22 6h8l-92 -760h228z" />
    <glyph glyph-name="two.numr" horiz-adv-x="653" 
d="M543 657h-471l4 37q6 55 28.5 101.5t63 84.5t76 63t90.5 58l108 62q146 86 146 203q0 66 -50.5 109.5t-152.5 43.5q-105 0 -203 -67l-8 18q104 70 215 70q110 0 165.5 -48.5t55.5 -121.5q0 -77 -45 -131t-121 -97l-110 -63q-103 -62 -162.5 -126t-71.5 -157l-2 -16h447z
" />
    <glyph glyph-name="three.numr" horiz-adv-x="653" 
d="M264 645q-48 0 -102 10.5t-84 22.5l8 22q89 -32 180 -32q152 0 222.5 64t70.5 163q0 83 -59.5 124.5t-169.5 41.5h-72l2 20h74q120 0 184 57.5t64 137.5q0 66 -49.5 104.5t-151.5 38.5q-79 0 -184 -37l-4 21q109 37 190 37q110 0 165.5 -43.5t55.5 -118.5
q0 -77 -52.5 -135t-148.5 -72q79 -10 129 -52t50 -124q0 -51 -17.5 -94.5t-53.5 -79t-99.5 -56t-147.5 -20.5z" />
    <glyph glyph-name="four.numr" 
d="M455 924l57 471l-412 -471h355zM614 901h-139l-31 -244h-22l29 244h-385l2 19l448 514h25l-64 -510h139z" />
    <glyph glyph-name="five.numr" 
d="M256 645q-96 0 -182 37l8 20q74 -34 178 -34q51 0 101 14.5t97.5 45.5t77 89t29.5 135q0 56 -18.5 97.5t-51 64.5t-71.5 34t-84 11q-96 0 -172 -26l-18 6l36 295h424l-2 -21h-401l-31 -258q79 27 170 27q49 0 91 -12.5t76.5 -38t54.5 -71t20 -106.5q0 -67 -21.5 -121.5
t-55.5 -88.5t-78.5 -57t-88.5 -32.5t-88 -9.5z" />
    <glyph glyph-name="six.numr" 
d="M584 944q0 -123 -72.5 -211t-187.5 -88q-60 0 -105 24.5t-70.5 66.5t-38 93t-12.5 111v23q0 68 12 134t38.5 128.5t65.5 110t98 76t130 28.5q77 0 144 -37l-13 -23q-55 37 -133 37q-60 0 -110.5 -23t-85 -60.5t-60.5 -88.5t-39.5 -103.5t-19.5 -109.5q36 53 101 89
t141 36q112 0 164.5 -60.5t52.5 -152.5zM326 670q104 0 168.5 80.5t64.5 193.5q0 83 -46.5 137t-152.5 54q-76 0 -143.5 -43.5t-95.5 -94.5v-34v-25q0 -71 18 -128.5t66 -98.5t121 -41z" />
    <glyph glyph-name="seven.numr" 
d="M170 657h-25q89 382 422 756h-481l4 21h508l-2 -15q-53 -60 -103.5 -126t-118 -167.5t-122 -224.5t-82.5 -244z" />
    <glyph glyph-name="eight.numr" 
d="M315 645q-112 0 -174.5 50.5t-62.5 135.5q0 87 62.5 149t156.5 95q-145 49 -145 162q0 86 67.5 144.5t177.5 58.5q92 0 150.5 -46t58.5 -120q0 -80 -54.5 -131.5t-139.5 -77.5q182 -53 182 -191q0 -98 -77.5 -163.5t-201.5 -65.5zM342 1083l47 -10q83 23 138 72t55 125
q0 67 -51.5 109t-135.5 42q-98 0 -159.5 -54t-61.5 -130q0 -109 168 -154zM317 666q115 0 184.5 59t69.5 149q0 129 -192 179l-49 12l-8 2q-99 -35 -160.5 -95.5t-61.5 -140.5q0 -73 57.5 -119t159.5 -46z" />
    <glyph glyph-name="nine.numr" 
d="M319 971q78 0 140 35t92 75l6 49q2 18 2 58q0 105 -47.5 167t-144.5 62q-102 0 -170 -73t-68 -181q0 -83 45.5 -137.5t144.5 -54.5zM264 645q-90 0 -164 51l13 23q62 -49 153 -49q57 0 100 15.5t81 54t63.5 113t36.5 183.5l2 17q-37 -41 -97.5 -73t-136.5 -32
q-107 0 -158 59.5t-53 153.5q0 119 75.5 199t187.5 80q107 0 162 -68t55 -184q0 -20 -4 -60l-9 -88q-12 -117 -40 -197t-70.5 -122t-89 -59t-107.5 -17z" />
    <glyph glyph-name="dollar.numr" horiz-adv-x="659" 
d="M311 526h-22l16 121q-133 5 -237 84l12 19q105 -82 244 -82q120 0 180.5 52t60.5 132q0 61 -40.5 103t-131.5 83l-88 37q-86 37 -120.5 77t-34.5 95q0 86 73.5 139.5t200.5 53.5l10 94h21l-11 -94q107 -3 189 -37l-10 -21q-97 37 -191 37q-121 0 -189.5 -48t-68.5 -120
q0 -49 31 -85t108 -70l84 -35q102 -45 146.5 -90.5t44.5 -116.5q0 -92 -65.5 -149.5t-196.5 -57.5z" />
    <glyph glyph-name="parenleft.numr" horiz-adv-x="518" 
d="M362 428h-26q-69 92 -119.5 247t-50.5 343q0 214 65 402.5t164 332.5h27q-101 -146 -167.5 -335.5t-66.5 -395.5q0 -183 51 -341t123 -253z" />
    <glyph glyph-name="parenright.numr" horiz-adv-x="514" 
d="M47 428h-29q58 61 113 145.5t104.5 192.5t80 240.5t30.5 265.5q0 260 -108 481h26q105 -223 105 -475q0 -139 -30.5 -276t-80.5 -245t-103 -190.5t-108 -138.5z" />
    <glyph glyph-name="hyphen.numr" horiz-adv-x="813" 
d="M680 1079h-524l4 23h524z" />
    <glyph glyph-name="zero.dnom" horiz-adv-x="653" 
d="M567 444q0 -124 -34.5 -227.5t-100 -166t-149.5 -62.5q-113 0 -175.5 98t-62.5 256q0 122 36.5 222t104 159t152.5 59q110 0 169.5 -93.5t59.5 -244.5zM70 342q0 -145 56 -237.5t157 -92.5q78 0 139 60t92 157t31 213q0 140 -53 229t-156 89q-78 0 -139.5 -57t-94 -151.5
t-32.5 -209.5z" />
    <glyph glyph-name="one.dnom" 
d="M545 0h-477l2 23h227l88 733l-238 -78l3 24l231 74q12 6 22 6h9l-93 -759h228z" />
    <glyph glyph-name="two.dnom" horiz-adv-x="653" 
d="M508 0h-471l4 37q6 55 28.5 101.5t63 84.5t76 63t90.5 58l109 62q145 85 145 202q0 66 -50.5 110t-152.5 44q-104 0 -203 -68l-8 19q103 69 215 69q110 0 165.5 -48.5t55.5 -121.5q0 -77 -44.5 -130.5t-120.5 -96.5l-111 -63q-102 -61 -161.5 -125.5t-71.5 -157.5l-3 -16
h447z" />
    <glyph glyph-name="three.dnom" horiz-adv-x="653" 
d="M229 -12q-49 0 -102.5 10t-83.5 22l8 23q92 -33 180 -33q152 0 222.5 64.5t70.5 163.5q0 83 -59.5 124t-169.5 41h-72l2 21h74q120 0 184 57t64 137q0 66 -49.5 105t-151.5 39q-79 0 -184 -37l-4 20q109 37 190 37q110 0 165.5 -43t55.5 -118q0 -77 -52 -135t-148 -72
q79 -10 128.5 -52t49.5 -124q0 -51 -17.5 -94.5t-53.5 -79t-99.5 -56t-147.5 -20.5z" />
    <glyph glyph-name="four.dnom" 
d="M420 266l57 471l-411 -471h354zM580 244h-140l-30 -244h-23l29 244h-385l2 18l448 514h25l-64 -510h140z" />
    <glyph glyph-name="five.dnom" 
d="M221 -12q-96 0 -182 37l8 20q77 -35 178 -35q40 0 80 8.5t81 29.5t72.5 52.5t51.5 82t20 112.5q0 56 -18.5 97.5t-51 64.5t-71.5 34t-84 11q-93 0 -172 -27l-18 6l37 295h423l-2 -20h-401l-31 -258q76 26 170 26q104 0 173 -55t69 -172q0 -67 -21.5 -121.5t-55.5 -88.5
t-78.5 -57t-88.5 -32.5t-88 -9.5z" />
    <glyph glyph-name="six.dnom" 
d="M549 287q0 -123 -72.5 -211t-187.5 -88q-60 0 -105 24.5t-70.5 66.5t-38 93t-12.5 111v22q0 68 12 134t39 128.5t66 110t98 76t130 28.5q76 0 143 -37l-12 -22q-56 37 -133 37q-60 0 -110.5 -23t-85 -60.5t-60.5 -88.5t-40 -104t-20 -109q36 53 101 89t141 36
q112 0 164.5 -60.5t52.5 -152.5zM291 12q104 0 168.5 81t64.5 194q0 83 -46 136.5t-152 53.5q-76 0 -144 -43t-96 -94v-35v-24q0 -52 11 -98t33.5 -85.5t64 -62.5t96.5 -23z" />
    <glyph glyph-name="seven.dnom" 
d="M135 0h-24q23 98 64 198.5t85 178.5t98 156.5t93.5 127t80.5 95.5h-481l4 20h508l-2 -14q-53 -60 -103.5 -126t-118 -167.5t-122 -224.5t-82.5 -244z" />
    <glyph glyph-name="eight.dnom" 
d="M281 -12q-112 0 -175 50.5t-63 135.5q0 87 62.5 149t156.5 95q-145 49 -145 162q0 86 67.5 144t177.5 58q92 0 150.5 -46t58.5 -120q0 -80 -54.5 -131t-139.5 -77q182 -53 182 -191q0 -98 -77 -163.5t-201 -65.5zM307 426l47 -10q83 23 138 71.5t55 124.5
q0 67 -51.5 109.5t-135.5 42.5q-98 0 -159.5 -54t-61.5 -130q0 -109 168 -154zM283 8q115 0 184.5 59.5t69.5 149.5q0 128 -193 178l-49 13l-8 2q-99 -35 -160 -95.5t-61 -140.5q0 -73 58 -119.5t159 -46.5z" />
    <glyph glyph-name="nine.dnom" 
d="M285 313q78 0 139 35t92 76l6 49q2 18 2 57q0 105 -47.5 167.5t-144.5 62.5q-102 0 -170 -73t-68 -181q0 -83 46 -138t145 -55zM229 -12q-89 0 -163 51l12 22q62 -49 153 -49q57 0 100 15.5t81 54.5t63.5 113t36.5 184l2 16q-37 -41 -97 -72.5t-136 -31.5
q-107 0 -158 59.5t-53 153.5q0 119 75 198.5t187 79.5q107 0 162 -68t55 -184q0 -19 -4 -59l-8 -88q-12 -117 -40 -197t-71 -122t-89.5 -59t-107.5 -17z" />
    <glyph glyph-name="dollar.dnom" horiz-adv-x="659" 
d="M276 -131h-22l18 121q-135 5 -239 84l12 18q105 -82 244 -82q120 0 180.5 52t60.5 133q0 61 -40.5 103t-131.5 83l-88 37q-86 37 -120.5 77t-34.5 95q0 86 73.5 139t200.5 53l10 95h21l-10 -95q106 -3 188 -37l-10 -20q-97 37 -191 37q-121 0 -189.5 -48t-68.5 -120
q0 -49 31.5 -85.5t108.5 -70.5l83 -35q103 -45 147 -90t44 -116q0 -92 -65 -149.5t-195 -57.5z" />
    <glyph glyph-name="parenleft.dnom" horiz-adv-x="518" 
d="M328 -229h-27q-69 92 -119.5 246.5t-50.5 342.5q0 214 65 403t164 333h27q-101 -145 -167 -334.5t-66 -396.5q0 -183 51 -341t123 -253z" />
    <glyph glyph-name="parenright.dnom" horiz-adv-x="514" 
d="M12 -229h-28q58 61 113 145.5t104.5 192t79.5 240t30 265.5q0 261 -108 482h26q105 -223 105 -475q0 -139 -30.5 -276t-80.5 -245t-103 -190.5t-108 -138.5z" />
    <glyph glyph-name="hyphen.dnom" horiz-adv-x="813" 
d="M645 422h-524l4 22h524z" />
    <glyph glyph-name="IJacute" horiz-adv-x="1054" 
d="M193 1579h-52l359 182h53zM924 1579h-52l359 182h53zM59 0h-24l153 1434h25zM866 449q-14 -123 -52.5 -215t-97.5 -146.5t-130 -81t-156 -26.5q-98 0 -172 38l4 29q71 -39 172 -39q165 0 274 108t134 335l106 983h25z" />
    <glyph glyph-name="ijacute" horiz-adv-x="600" 
d="M475 1139h-29l195 227h29zM174 1139h-29l195 227h29zM96 0h-24l108 1024h25zM350 -242q-16 -150 -74.5 -214t-154.5 -64q-60 0 -105 31l13 20q45 -29 92 -29q90 0 141 63t66 204l133 1255h24z" />
    <glyph glyph-name="gravecomb.case" horiz-adv-x="700" 
d="M393 1575h-39l-260 184h19q25 0 45 -14z" />
    <glyph glyph-name="acutecomb.case" horiz-adv-x="737" 
d="M266 1579h-51l358 182h54z" />
    <glyph glyph-name="dieresiscomb.case" horiz-adv-x="782" 
d="M268 1661q0 -20 -12.5 -32.5t-32.5 -12.5t-32.5 12.5t-12.5 32.5t12.5 32.5t32.5 12.5t32.5 -12.5t12.5 -32.5zM612 1661q0 -20 -12.5 -32.5t-32.5 -12.5t-32.5 12.5t-12.5 32.5t12.5 32.5t32.5 12.5t32.5 -12.5t12.5 -32.5z" />
    <glyph glyph-name="circumflexcomb.case" horiz-adv-x="944" 
d="M662 1552l-185 160l-268 -166h-45l303 187h8q16 0 25 -9l198 -172h-36z" />
    <glyph glyph-name="tildecomb.case" horiz-adv-x="993" 
d="M403 1716q-44 0 -77 -26t-48.5 -58t-21.5 -67h-18v22q10 64 54.5 109t110.5 45q34 0 62.5 -15.5t48 -38t38.5 -45t45 -38t58 -15.5q65 0 102.5 47.5t45.5 100.5h16q2 -2 2 -13v-8q-9 -63 -55.5 -107t-110.5 -44q-36 0 -64.5 15.5t-48 37.5t-38.5 44.5t-44.5 38
t-56.5 15.5z" />
    <glyph glyph-name="exclamdown.case" horiz-adv-x="376" 
d="M295 1399q0 -20 -12.5 -32.5t-32.5 -12.5t-32.5 12.5t-12.5 32.5t12.5 32.5t32.5 12.5t32.5 -12.5t12.5 -32.5zM113 0h-29l133 1186h21z" />
    <glyph glyph-name="questiondown.case" horiz-adv-x="798" 
d="M684 1397q0 -19 -13 -32t-32 -13t-32 13t-13 32q0 20 13 33.5t32 13.5t32 -13.5t13 -33.5zM360 -20q-156 0 -232.5 89.5t-76.5 235.5q0 100 30 184t79.5 142t115 99t135 60.5t140.5 20.5l47 360h20l-47 -385q-72 0 -141 -17.5t-133.5 -56t-113.5 -93t-78 -135.5t-29 -177
q0 -137 70.5 -221t218.5 -84q99 0 180.5 44.5t134.5 105.5l16 -15q-51 -64 -139.5 -110.5t-196.5 -46.5z" />
    <glyph glyph-name="braceleft.case" horiz-adv-x="710" 
d="M401 -16q-16 -4 -32 -4q-181 0 -181 176q0 54 20 117t43.5 111t43.5 110.5t20 115.5q0 129 -98 129h-53l4 27h53q48 0 79 30t42.5 73t11.5 98q0 36 -3 109t-3 108q0 260 248 260q17 0 33 -4l-2 -17q-129 0 -191.5 -55.5t-62.5 -189.5q0 -36 3 -108t3 -107
q0 -59 -12 -101.5t-32.5 -64t-40 -31.5t-40.5 -12v-2q35 -4 60.5 -36.5t25.5 -103.5q0 -56 -20 -120.5t-43.5 -113t-43.5 -109.5t-20 -111q0 -92 48 -125t142 -33z" />
    <glyph glyph-name="braceright.case" horiz-adv-x="710" 
d="M362 240q0 -260 -247 -260q-17 0 -33 4l2 16q129 0 191.5 56t62.5 190q0 36 -3 108t-3 107q0 59 12 101.5t32.5 64t40 31.5t40.5 12v2q-35 4 -60.5 36t-25.5 103q0 56 20 120.5t43.5 113t43.5 110t20 111.5q0 91 -48 124t-143 33l2 17q16 4 33 4q180 0 180 -176
q0 -54 -20 -117t-43.5 -111.5t-43.5 -111t-20 -115.5q0 -61 24.5 -95t74.5 -34h53l-4 -27h-54q-37 0 -63.5 -16.5t-41.5 -45.5t-21.5 -63t-6.5 -75q0 -36 3 -109t3 -108z" />
    <glyph glyph-name="bracketleft.case" horiz-adv-x="630" 
d="M379 25l-2 -25h-172l151 1434h172l-2 -25h-149l-144 -1384h146z" />
    <glyph glyph-name="bracketright.case" horiz-adv-x="630" 
d="M274 0h-172l2 25h150l143 1384h-145l2 25h172z" />
    <glyph glyph-name="emdash.case" horiz-adv-x="1974" 
d="M1716 741h-1401l4 25h1401z" />
    <glyph glyph-name="endash.case" horiz-adv-x="1304" 
d="M1149 741h-936l4 25h936z" />
    <glyph glyph-name="hyphen.case" horiz-adv-x="1024" 
d="M887 741h-694l4 25h694z" />
    <glyph glyph-name="guillemotleft.case" horiz-adv-x="1007" 
d="M502 229h-33l-285 410v14l402 410h35l-408 -418zM766 229h-33l-284 410v14l401 410h35l-408 -418z" />
    <glyph glyph-name="guillemotright.case" horiz-adv-x="1003" 
d="M158 229h-35l409 418l-288 416h30l285 -410v-14zM418 229h-35l410 418l-289 416h31l284 -410v-14z" />
    <glyph glyph-name="guilsinglleft.case" horiz-adv-x="743" 
d="M502 225h-33l-285 410v14l402 410h35l-408 -418z" />
    <glyph glyph-name="guilsinglright.case" horiz-adv-x="743" 
d="M219 229h-35l410 418l-289 416h31l285 -410v-14z" />
    <glyph glyph-name="arrowdown.case" horiz-adv-x="1273" 
d="M563 -20h-4l-387 438q-8 11 -8 24v23l389 -438l55 438l117 969h25l-117 -969l-55 -438l491 438v-14q0 -21 -14 -35z" />
    <glyph glyph-name="arrowup.case" horiz-adv-x="1275" 
d="M690 958l-117 -958h-24l117 958l55 437l-496 -441l4 27q4 16 13 25l493 438h4l385 -438q9 -9 9 -25l-5 -23l-383 439z" />
    <glyph glyph-name="arrowupdn.case" horiz-adv-x="1318" 
d="M586 -20h-4l-408 284q-10 8 -10 21v18l411 -287l27 220l111 952l26 217l-471 -289l4 21q3 13 15 22l467 285h4l407 -285q11 -8 11 -20v-19l-412 287l-27 -219l-110 -952l-27 -218l471 289l-4 -20q-3 -15 -14 -23z" />
    <glyph glyph-name="arrowboth.case" horiz-adv-x="2228" 
d="M682 301h-20q-15 0 -25 10l-401 441v4l477 438q10 10 24 10h25l-479 -440l491 2h703l452 -2l-399 440h18q15 0 25 -10l399 -438v-4l-477 -441q-10 -10 -25 -10h-26l483 442l-450 -2h-703l-493 2z" />
    <glyph glyph-name="arrowleft.case" horiz-adv-x="1658" 
d="M1452 741h-1169l399 -440h-20q-15 0 -25 10l-401 441v4l477 438q10 10 24 10h23l-475 -438h1169z" />
    <glyph glyph-name="arrowright.case" horiz-adv-x="1677" 
d="M920 301h-25l479 440h-1169l2 25h1169l-399 438h20q15 0 25 -10l399 -438v-4l-477 -441q-10 -10 -24 -10z" />
    <glyph glyph-name="arrowdownleft.case" horiz-adv-x="1873" 
d="M958 0h-751l-2 2l92 754q3 19 14 24l13 6l-91 -747l1565 1395l14 -17l-1562 -1392h745l-10 -15q-7 -10 -27 -10z" />
    <glyph glyph-name="arrowdownright.case" horiz-adv-x="1720" 
d="M1421 0h-745q-15 0 -25 10l-10 15h745l-1222 1392l18 17l1223 -1391l90 743l14 -12q9 -14 7 -26l-93 -746z" />
    <glyph glyph-name="arrowupleft.case" horiz-adv-x="1720" 
d="M1556 16l-18 -16l-1223 1391l-90 -744l-14 12q-8 13 -6 27l92 746l2 2h750q15 0 22 -11l8 -12h-747z" />
    <glyph glyph-name="arrowupright.case" horiz-adv-x="1978" 
d="M1653 647l90 748l-1563 -1395l-16 18l1554 1391h-731l8 14q7 11 23 11h754l2 -2l-93 -746q-3 -19 -14 -27z" />
    <glyph glyph-name="at.case" horiz-adv-x="2002" 
d="M872 -340q-331 0 -529 208t-198 558q0 194 54 369t149 308.5t219.5 232t270 149.5t295.5 51q214 0 379 -92t257.5 -263.5t92.5 -396.5q0 -123 -22.5 -233t-60.5 -191.5t-87 -141t-104.5 -90t-110.5 -30.5q-96 0 -154.5 84.5t-58.5 241.5q0 46 6 102l30 269
q-57 -338 -175 -526.5t-259 -188.5q-119 0 -191.5 101t-72.5 282q0 150 41.5 279.5t110 216.5t159 136.5t187.5 49.5q133 0 229 -60l4 31l21 10l10 -4l-70 -594q-6 -52 -6 -100q0 -145 53.5 -225t139.5 -80q66 0 129.5 47.5t114 131t81.5 210t31 272.5q0 331 -196 529
t-511 198q-122 0 -241 -35.5t-225 -101t-197 -163t-157 -215.5t-103 -264.5t-37 -305.5q0 -341 192 -541t512 -200q150 0 273 43l8 -23q-133 -45 -283 -45zM866 104q140 0 257 213t173 566l27 172q-83 65 -221 65q-94 0 -180 -47.5t-151.5 -132t-104.5 -210t-39 -271.5
q0 -159 65.5 -257t173.5 -98z" />
    <glyph glyph-name="colon.case" horiz-adv-x="522" 
d="M328 874q0 -20 -12.5 -32.5t-32.5 -12.5t-32.5 12.5t-12.5 32.5t12.5 33t32.5 13t32.5 -13t12.5 -33zM274 412q0 -20 -12.5 -32.5t-32.5 -12.5t-32.5 12.5t-12.5 32.5t12.5 32.5t32.5 12.5t32.5 -12.5t12.5 -32.5z" />
    <glyph glyph-name="periodcentered.case" horiz-adv-x="593" 
d="M356 702q0 -22 -13.5 -35.5t-35.5 -13.5t-35.5 13.5t-13.5 35.5t13.5 36t35.5 14t35.5 -14t13.5 -36z" />
    <glyph glyph-name="LA.calt" horiz-adv-x="962" 
d="M850 0h-778l153 1434h25l-152 -1409h764z" />
    <glyph glyph-name="ZA.calt" horiz-adv-x="1069" 
d="M924 0h-899v6q0 18 12 35l1007 1368h-811l5 25h841v-4q0 -14 -8 -25l-1012 -1380h877z" />
    <glyph glyph-name="EA.calt" horiz-adv-x="1071" 
d="M897 0h-825l153 1434h858l-4 -25h-831l-70 -649h744l-2 -25h-744l-76 -710h809z" />
    <glyph glyph-name="EgraveA.calt" horiz-adv-x="1071" 
d="M750 1575h-39l-260 184h18q25 0 45 -14zM895 0h-823l153 1434h858l-4 -25h-831l-70 -649h744l-2 -25h-744l-76 -710h809z" />
    <glyph glyph-name="EacuteA.calt" horiz-adv-x="1071" 
d="M604 1579h-51l358 182h54zM895 0h-823l153 1434h858l-4 -25h-831l-70 -649h744l-2 -25h-744l-76 -710h809z" />
    <glyph glyph-name="EcircumflexA.calt" horiz-adv-x="1071" 
d="M874 1552l-184 160l-268 -166h-45l303 187h8q16 0 25 -9l198 -172h-37zM895 0h-823l153 1434h858l-4 -25h-831l-70 -649h744l-2 -25h-744l-76 -710h809z" />
    <glyph glyph-name="EdieresisA.calt" horiz-adv-x="1071" 
d="M903 1661q0 -20 -12.5 -32.5t-32.5 -12.5t-32.5 12.5t-12.5 32.5t12.5 32.5t32.5 12.5t32.5 -12.5t12.5 -32.5zM559 1661q0 -20 -12.5 -32.5t-32.5 -12.5t-32.5 12.5t-12.5 32.5t12.5 32.5t32.5 12.5t32.5 -12.5t12.5 -32.5zM895 0h-823l153 1434h858l-4 -25h-831
l-70 -649h744l-2 -25h-744l-76 -710h809z" />
    <glyph glyph-name="LM.calt" horiz-adv-x="962" 
d="M854 0h-782l153 1434h25l-152 -1409h764z" />
    <glyph glyph-name="EM.calt" horiz-adv-x="1030" 
d="M901 0h-829l153 1434h858l-4 -25h-831l-70 -649h744l-2 -25h-744l-76 -710h809z" />
    <glyph glyph-name="EgraveM.calt" horiz-adv-x="1030" 
d="M750 1575h-39l-260 184h18q25 0 45 -14zM901 0h-829l153 1434h858l-4 -25h-831l-70 -649h744l-2 -25h-744l-76 -710h809z" />
    <glyph glyph-name="EacuteM.calt" horiz-adv-x="1030" 
d="M604 1579h-51l358 182h54zM901 0h-829l153 1434h858l-4 -25h-831l-70 -649h744l-2 -25h-744l-76 -710h809z" />
    <glyph glyph-name="EcircumflexM.calt" horiz-adv-x="1030" 
d="M874 1552l-184 160l-268 -166h-45l303 187h8q16 0 25 -9l198 -172h-37zM901 0h-829l153 1434h858l-4 -25h-831l-70 -649h744l-2 -25h-744l-76 -710h809z" />
    <glyph glyph-name="EdieresisM.calt" horiz-adv-x="1030" 
d="M903 1661q0 -20 -12.5 -32.5t-32.5 -12.5t-32.5 12.5t-12.5 32.5t12.5 32.5t32.5 12.5t32.5 -12.5t12.5 -32.5zM559 1661q0 -20 -12.5 -32.5t-32.5 -12.5t-32.5 12.5t-12.5 32.5t12.5 32.5t32.5 12.5t32.5 -12.5t12.5 -32.5zM901 0h-829l153 1434h858l-4 -25h-831
l-70 -649h744l-2 -25h-744l-76 -710h809z" />
    <glyph glyph-name="EW.calt" horiz-adv-x="1030" 
d="M907 0h-835l153 1434h850l4 -25h-831l-70 -649h744l-2 -25h-744l-76 -710h809z" />
    <glyph glyph-name="EgraveW.calt" horiz-adv-x="1030" 
d="M750 1575h-39l-260 184h18q25 0 45 -14zM907 0h-835l153 1434h850l4 -25h-831l-70 -649h744l-2 -25h-744l-76 -710h809z" />
    <glyph glyph-name="EacuteW.calt" horiz-adv-x="1030" 
d="M604 1579h-51l358 182h54zM907 0h-835l153 1434h850l4 -25h-831l-70 -649h744l-2 -25h-744l-76 -710h809z" />
    <glyph glyph-name="EcircumflexW.calt" horiz-adv-x="1030" 
d="M874 1552l-184 160l-268 -166h-45l303 187h8q16 0 25 -9l198 -172h-37zM907 0h-835l153 1434h850l4 -25h-831l-70 -649h744l-2 -25h-744l-76 -710h809z" />
    <glyph glyph-name="EdieresisW.calt" horiz-adv-x="1030" 
d="M903 1661q0 -20 -12.5 -32.5t-32.5 -12.5t-32.5 12.5t-12.5 32.5t12.5 32.5t32.5 12.5t32.5 -12.5t12.5 -32.5zM559 1661q0 -20 -12.5 -32.5t-32.5 -12.5t-32.5 12.5t-12.5 32.5t12.5 32.5t32.5 12.5t32.5 -12.5t12.5 -32.5zM907 0h-835l153 1434h850l4 -25h-831
l-70 -649h744l-2 -25h-744l-76 -710h809z" />
    <glyph glyph-name="EV.calt" horiz-adv-x="1030" 
d="M907 0h-835l153 1434h848l6 -25h-831l-70 -649h744l-2 -25h-744l-76 -710h809z" />
    <glyph glyph-name="EgraveV.calt" horiz-adv-x="1030" 
d="M750 1575h-39l-260 184h18q25 0 45 -14zM907 0h-835l153 1434h848l6 -25h-831l-70 -649h744l-2 -25h-744l-76 -710h809z" />
    <glyph glyph-name="EacuteV.calt" horiz-adv-x="1030" 
d="M604 1579h-51l358 182h54zM907 0h-835l153 1434h848l6 -25h-831l-70 -649h744l-2 -25h-744l-76 -710h809z" />
    <glyph glyph-name="EcircumflexV.calt" horiz-adv-x="1030" 
d="M874 1552l-184 160l-268 -166h-45l303 187h8q16 0 25 -9l198 -172h-37zM907 0h-835l153 1434h848l6 -25h-831l-70 -649h744l-2 -25h-744l-76 -710h809z" />
    <glyph glyph-name="EdieresisV.calt" horiz-adv-x="1030" 
d="M903 1661q0 -20 -12.5 -32.5t-32.5 -12.5t-32.5 12.5t-12.5 32.5t12.5 32.5t32.5 12.5t32.5 -12.5t12.5 -32.5zM559 1661q0 -20 -12.5 -32.5t-32.5 -12.5t-32.5 12.5t-12.5 32.5t12.5 32.5t32.5 12.5t32.5 -12.5t12.5 -32.5zM907 0h-835l153 1434h848l6 -25h-831
l-70 -649h744l-2 -25h-744l-76 -710h809z" />
    <glyph glyph-name="TW.calt" horiz-adv-x="995" 
d="M442 0h-26l149 1399l-477 14l2 21h977l4 -21l-479 -14z" />
    <glyph glyph-name="TV.calt" horiz-adv-x="995" 
d="M442 0h-26l149 1399l-477 14l2 21h975l6 -21l-479 -14z" />
    </font>
</defs>
</svg>
