<?xml version="1.0" standalone="no"?>
<!DOCTYPE svg PUBLIC "-//W3C//DTD SVG 1.1//EN" "http://www.w3.org/Graphics/SVG/1.1/DTD/svg11.dtd" >
<svg xmlns="http://www.w3.org/2000/svg" xmlns:xlink="http://www.w3.org/1999/xlink" version="1.1">
<metadata>
Created by FontForge 20201107 at Thu Oct 16 23:11:19 2025
 By 
Copyright 2015 LATAM Airlines. All Rights Reserved.
</metadata>
<defs>
<font id="LatamSans-Regular" horiz-adv-x="686" >
  <font-face 
    font-family="Latam Sans"
    font-weight="400"
    font-stretch="normal"
    units-per-em="2048"
    panose-1="2 11 5 5 3 4 3 2 2 4"
    ascent="1536"
    descent="-512"
    x-height="1024"
    cap-height="1434"
    bbox="-174 -713 2431 2040"
    underline-thickness="0"
    underline-position="0"
    unicode-range="U+0020-FB04"
  />
<missing-glyph horiz-adv-x="1228" 
 />
    <glyph glyph-name="ff" unicode="ff" horiz-adv-x="1425" 
d="M248 0v913l-205 19v92h205v168q0 157 87.5 235t274.5 78q91 0 156 -22l-27 -121q-62 16 -129 16q-219 0 -219 -186v-168h510v219q0 157 91 235t284 78q91 0 156 -22l-27 -121q-66 17 -129 17q-232 0 -232 -187v-219h316v-106l-316 -11v-907h-143v907h-510v-907h-143z" />
    <glyph glyph-name="fi" unicode="fi" horiz-adv-x="1275" 
d="M248 0v899l-205 33v92h205v219q0 157 91 235t284 78q90 0 155 -22l-26 -121q-66 17 -129 17q-232 0 -232 -187v-219h316v-106l-316 -21v-897h-143zM1028 1188q-46 0 -78 32t-32 78q0 45 32.5 78t77.5 33t78 -33t33 -78q0 -46 -32.5 -78t-78.5 -32zM956 0v1024h144v-1024
h-144z" />
    <glyph glyph-name="fl" unicode="fl" horiz-adv-x="1298" 
d="M1155 -12q-92 0 -150.5 46t-58.5 146v1356h144v-1352q0 -78 84 -78q42 0 67 17l25 -113q-43 -22 -111 -22zM248 0v899l-205 33v92h205v219q0 157 91 235t284 78q90 0 155 -22l-26 -121q-66 17 -129 17q-232 0 -232 -187v-219h316v-106l-316 -21v-897h-143z" />
    <glyph glyph-name="ffi" unicode="ffi" horiz-adv-x="1929" 
d="M1681 1214q-46 0 -78 32.5t-32 78.5q0 45 32.5 78t77.5 33t78 -33t33 -78q0 -46 -32.5 -78.5t-78.5 -32.5zM1610 0v1024h143v-1024h-143zM248 0v913l-205 19v92h205v168q0 157 87.5 235t274.5 78q91 0 156 -22l-27 -121q-62 16 -129 16q-219 0 -219 -186v-168h510v219
q0 157 91 235t284 78q91 0 156 -22l-27 -121q-66 17 -129 17q-232 0 -232 -187v-219h316v-106l-316 -11v-907h-143v907h-510v-907h-143z" />
    <glyph glyph-name="ffl" unicode="ffl" horiz-adv-x="1955" 
d="M1812 -12q-92 0 -150 46t-58 146v1356h143v-1352q0 -78 84 -78q41 0 67 17l25 -113q-43 -22 -111 -22zM248 0v913l-205 19v92h205v168q0 157 87.5 235t274.5 78q91 0 156 -22l-27 -121q-62 16 -129 16q-219 0 -219 -186v-168h510v219q0 157 91 235t284 78q91 0 156 -22
l-27 -121q-66 17 -129 17q-232 0 -232 -187v-219h316v-106l-316 -11v-907h-143v907h-510v-907h-143z" />
    <glyph glyph-name="f_b" unicode="fb" horiz-adv-x="1904" 
d="M1292 -20q-203 0 -352 90v1466h139v-672q38 85 122 132.5t179 47.5q103 0 183 -39t128.5 -107.5t73.5 -156t25 -190.5q0 -166 -53 -292.5t-167 -202.5t-278 -76zM248 0v899l-205 33v92h205v219q0 157 91 235t284 78q90 0 155 -22l-26 -121q-66 17 -129 17
q-232 0 -232 -187v-219h316v-106l-316 -21v-897h-143zM1313 106q71 0 128.5 25.5t95.5 68t63 100.5t36 120.5t11 130.5q0 71 -13.5 132t-43.5 116t-87 87t-135 32q-43 0 -83 -12.5t-77.5 -41.5t-64.5 -72t-43.5 -109t-16.5 -148v-381q81 -48 230 -48z" />
    <glyph glyph-name="f_f_b" unicode="ffb" horiz-adv-x="2543" 
d="M1931 -20q-203 0 -352 90v1466h139v-672q38 85 122 132.5t179 47.5q103 0 183 -39t128.5 -107.5t73.5 -156t25 -190.5q0 -166 -53 -292.5t-167 -202.5t-278 -76zM1952 106q71 0 128.5 25.5t95.5 68t63 100.5t36 120.5t11 130.5q0 71 -13.5 132t-43.5 116t-87 87t-135 32
q-43 0 -83 -12.5t-77.5 -41.5t-64.5 -72t-43.5 -109t-16.5 -148v-381q81 -48 230 -48zM248 0v913l-205 19v92h205v168q0 157 87.5 235t274.5 78q91 0 156 -22l-27 -121q-62 16 -129 16q-219 0 -219 -186v-168h520v219q0 157 91 235t284 78q91 0 156 -22l-27 -121
q-66 17 -129 17q-231 0 -231 -187v-219h315v-106l-315 -11v-907h-144v907h-520v-907h-143z" />
    <glyph glyph-name="f_h" unicode="fh" horiz-adv-x="1882" 
d="M248 0v899l-205 33v92h205v219q0 157 91 235t284 78q90 0 155 -22l-26 -121q-66 17 -129 17q-232 0 -232 -187v-219h316v-106l-316 -21v-897h-143zM1083 637v-637h-143v1536h139v-629q45 66 123.5 101.5t157.5 35.5q179 0 276 -101t97 -284v-659h-144v637q0 147 -67 214
t-181 67q-47 0 -91 -15.5t-82.5 -47t-61.5 -88t-23 -130.5z" />
    <glyph glyph-name="f_f_h" unicode="ffh" horiz-adv-x="2531" 
d="M1733 637v-637h-144v1536h140v-629q45 66 123 101.5t157 35.5q179 0 276 -101t97 -284v-659h-144v637q0 147 -66.5 214t-180.5 67q-47 0 -91 -15.5t-82.5 -47t-61.5 -88t-23 -130.5zM248 0v913l-205 19v92h205v168q0 157 87.5 235t274.5 78q91 0 156 -22l-27 -121
q-62 16 -129 16q-219 0 -219 -186v-168h531v219q0 157 90.5 235t283.5 78q91 0 156 -22l-27 -121q-66 17 -129 17q-231 0 -231 -187v-219h315v-106l-315 -11v-907h-143v907h-531v-907h-143z" />
    <glyph glyph-name="f_k" unicode="fk" horiz-adv-x="1822" 
d="M248 0v899l-205 33v92h205v219q0 157 91 235t284 78q90 0 155 -22l-26 -121q-66 17 -129 17q-232 0 -232 -187v-219h316v-106l-316 -21v-897h-143zM1090 49q-30 -49 -97 -49h-53v1536h143v-1280l492 768h166l-305 -459l325 -565h-159l-254 436z" />
    <glyph glyph-name="f_f_k" unicode="ffk" horiz-adv-x="2492" 
d="M248 0v913l-205 19v92h205v168q0 157 87.5 235t274.5 78q91 0 156 -22l-27 -121q-62 16 -129 16q-219 0 -219 -186v-168h531v219q0 157 90.5 235t283.5 78q91 0 156 -22l-27 -121q-66 17 -129 17q-231 0 -231 -187v-219h315v-106l-315 -11v-907h-143v907h-531v-907h-143z
M1759 49q-30 -49 -96 -49h-53v1536h143v-1280l492 768h165l-305 -459l326 -565h-160l-254 436z" />
    <glyph glyph-name="f_j" unicode="fj" horiz-adv-x="1269" 
d="M248 0v899l-205 33v92h205v219q0 157 91 235t284 78q90 0 155 -22l-26 -121q-66 17 -129 17q-232 0 -232 -187v-219h316v-106l-316 -21v-897h-143zM1022 1188q-46 0 -78.5 32t-32.5 78q0 45 33 78t78 33t78 -33t33 -78q0 -46 -32.5 -78t-78.5 -32zM780 -518
q-73 0 -131 22l25 113q40 -16 88 -16q95 0 141.5 54.5t46.5 178.5v1190h144v-1200q0 -93 -25.5 -161.5t-70.5 -107t-99 -56t-119 -17.5z" />
    <glyph glyph-name="f_f_j" unicode="ffj" horiz-adv-x="1929" 
d="M1681 1214q-46 0 -78 32.5t-32 78.5q0 45 32.5 78t77.5 33t78 -33t33 -78q0 -46 -32.5 -78.5t-78.5 -32.5zM248 0v913l-205 19v92h205v168q0 157 87.5 235t274.5 78q91 0 156 -22l-27 -121q-62 16 -129 16q-219 0 -219 -186v-168h510v219q0 157 91 235t284 78
q91 0 156 -22l-27 -121q-66 17 -129 17q-232 0 -232 -187v-219h316v-106l-316 -11v-907h-143v907h-510v-907h-143zM1440 -518q-73 0 -131 22l24 113q40 -16 88 -16q95 0 142 54.5t47 178.5v1190h143v-1200q0 -93 -25.5 -161.5t-70 -107t-98.5 -56t-119 -17.5z" />
    <glyph glyph-name="f_idieresis" unicode="f&#xef;" horiz-adv-x="1271" 
d="M248 0v899l-205 33v92h205v223q0 156 84 232.5t262 76.5q76 0 147 -22l-39 -121q-60 17 -108 17q-203 0 -203 -183v-223h316v-106l-316 -21v-897h-143zM1200 1190q-44 0 -76 32t-32 76q0 45 32 78t76 33t76.5 -33.5t32.5 -77.5t-32.5 -76t-76.5 -32zM856 1190
q-44 0 -76 32t-32 76q0 45 32 78t76 33t76.5 -33.5t32.5 -77.5t-32.5 -76t-76.5 -32zM956 0v1024h144v-1024h-144z" />
    <glyph glyph-name=".notdef" horiz-adv-x="1228" 
 />
    <glyph glyph-name=".null" horiz-adv-x="0" 
 />
    <glyph glyph-name="nonmarkingreturn" horiz-adv-x="682" 
 />
    <glyph glyph-name="space" unicode=" " horiz-adv-x="546" 
 />
    <glyph glyph-name="exclam" unicode="!" horiz-adv-x="526" 
d="M223 399l-41 1035h185l-41 -1035h-103zM274 -20q-45 0 -77.5 32.5t-32.5 77.5q0 46 32 78.5t78 32.5t78.5 -32.5t32.5 -78.5q0 -44 -32.5 -77t-78.5 -33z" />
    <glyph glyph-name="quotedbl" unicode="&#x22;" horiz-adv-x="669" 
d="M449 967l-56 424v43h205v-43l-61 -424h-88zM127 967l-55 424v43h204v-43l-61 -424h-88z" />
    <glyph glyph-name="numbersign" unicode="#" horiz-adv-x="1191" 
d="M719 565l20 303h-266l-20 -303h266zM680 0l31 440h-267l-30 -440h-135l30 440h-176v125h184l21 303h-205v125h213l31 441h135l-31 -441h267l30 441h135l-30 -441h176v-125h-185l-20 -303h205v-125h-213l-31 -440h-135z" />
    <glyph glyph-name="dollar" unicode="$" horiz-adv-x="1161" 
d="M248 1053q0 -92 69.5 -147.5t202.5 -84.5v492q-145 -19 -208.5 -90t-63.5 -170zM918 389q0 102 -57.5 168.5t-205.5 99.5v-536q133 26 198 99.5t65 168.5zM655 -240h-135v220h-10q-213 0 -381 86l39 127q160 -84 346 -84h6v579l-10 2q-202 45 -300.5 132t-98.5 233
q0 65 23 126t70 115t128.5 92t187.5 50v180h135v-174q183 -10 326 -70l-45 -125q-52 20 -84 31t-86.5 22t-110.5 13v-524l13 -3q204 -44 297.5 -141.5t93.5 -245.5q0 -69 -22.5 -132.5t-69 -121t-126.5 -99t-186 -58.5v-230z" />
    <glyph glyph-name="percent" unicode="%" horiz-adv-x="1323" 
d="M309 0h-151l788 1292q-62 -12 -125 -12q-77 0 -215 25q29 -60 29 -121q0 -110 -76 -186t-186 -76q-109 0 -184.5 76t-75.5 186q0 109 75.5 184.5t184.5 75.5q53 0 195.5 -24.5t258.5 -24.5q141 0 316 39v-13q0 -50 -33 -108zM373 1051q54 0 89.5 37.5t35.5 95.5
q0 57 -35.5 94t-89.5 37q-53 0 -88 -37t-35 -94q0 -58 35 -95.5t88 -37.5zM948 -8q-109 0 -184.5 76t-75.5 186q0 109 75.5 184.5t184.5 75.5q110 0 186 -75.5t76 -184.5q0 -110 -76 -186t-186 -76zM948 121q54 0 89.5 37.5t35.5 95.5q0 57 -35.5 94t-89.5 37q-53 0 -88 -37
t-35 -94q0 -58 35 -95.5t88 -37.5z" />
    <glyph glyph-name="ampersand" unicode="&#x26;" horiz-adv-x="1449" 
d="M1286 -18q-140 54 -289 161q-207 -159 -465 -159q-215 0 -343 110.5t-128 278.5q0 85 30.5 156t88 124.5t117 90t139.5 73.5q-39 115 -39 230q0 178 91 287.5t239 109.5q119 0 195.5 -76t76.5 -190q0 -76 -31.5 -141t-91.5 -115.5t-122 -86.5t-148 -75q119 -240 385 -445
q176 179 242 449l125 -49q-76 -288 -256 -477q129 -84 241 -129zM537 1047q0 -86 26 -175q70 30 116.5 55.5t91.5 62t67 82.5t22 102q0 66 -38 104.5t-95 38.5q-87 0 -138.5 -72.5t-51.5 -197.5zM532 113q190 0 353 114q-275 221 -402 478q-65 -30 -110.5 -59t-88 -68.5
t-64 -91t-21.5 -113.5q0 -117 95.5 -188.5t237.5 -71.5z" />
    <glyph glyph-name="quotesingle" unicode="'" horiz-adv-x="352" 
d="M127 967l-55 424v43h209v-43l-62 -424h-92z" />
    <glyph glyph-name="parenleft" unicode="(" horiz-adv-x="620" 
d="M463 -352q-58 74 -111 172t-102 226t-78 288.5t-29 327.5q0 168 29 328t77.5 288t101.5 226t112 173h158q-62 -75 -119 -178t-107 -232.5t-80 -287.5t-30 -317q0 -158 30.5 -316.5t80.5 -287.5t107 -232.5t118 -177.5h-158z" />
    <glyph glyph-name="parenright" unicode=")" horiz-adv-x="620" 
d="M0 -352q61 74 118 177.5t107 232.5t80.5 287.5t30.5 316.5q0 159 -30 317t-80 287t-107 231.5t-119 179.5h158q59 -75 112 -173t101.5 -226t77 -288t28.5 -328q0 -167 -29 -327.5t-77.5 -288.5t-101.5 -226t-111 -172h-158z" />
    <glyph glyph-name="asterisk" unicode="*" horiz-adv-x="694" 
d="M584 911l-199 123l6 -233h-94l12 235l-198 -123l-50 82l218 107l-209 112l43 80l198 -129l-8 232h94l-10 -230l201 119l45 -78l-209 -106l207 -111z" />
    <glyph glyph-name="plus" unicode="+" horiz-adv-x="1085" 
d="M926 569h-318v-317h-129v317h-319v129h319v320h129v-320h318v-129z" />
    <glyph glyph-name="comma" unicode="," horiz-adv-x="518" 
d="M141 -336l-39 55q117 83 117 211q0 37 -18.5 70t-44.5 49q0 45 28.5 78t69.5 33q59 0 90 -43t31 -111q0 -123 -76 -218.5t-158 -123.5z" />
    <glyph glyph-name="hyphen" unicode="-" horiz-adv-x="956" 
d="M160 502v129h637v-129h-637z" />
    <glyph glyph-name="period" unicode="." horiz-adv-x="575" 
d="M303 -20q-50 0 -84.5 34.5t-34.5 83.5q0 50 35 85.5t84 35.5t84 -35.5t35 -85.5q0 -49 -34.5 -83.5t-84.5 -34.5z" />
    <glyph glyph-name="slash" unicode="/" horiz-adv-x="1128" 
d="M225 -240l533 1858h145l-532 -1858h-146z" />
    <glyph glyph-name="zero" unicode="0" horiz-adv-x="1126" 
d="M563 -20q-126 0 -223.5 58.5t-156 161.5t-88 233t-29.5 282q0 151 29.5 279.5t87.5 230.5t155 160.5t223 58.5q103 0 187.5 -38.5t142 -105.5t96.5 -160t56.5 -199t17.5 -226q0 -152 -29 -282t-87.5 -233t-156 -161.5t-225.5 -58.5zM563 109q91 0 161 51t111.5 138
t62 192.5t20.5 224.5q0 118 -20.5 222.5t-62 190.5t-112 136.5t-162.5 50.5t-162 -50.5t-109.5 -137t-59 -190t-19.5 -222.5q0 -120 19.5 -224.5t59.5 -192t110 -138.5t163 -51z" />
    <glyph glyph-name="one" unicode="1" horiz-adv-x="1126" 
d="M1026 0h-922v129h390v1149l-373 -148v134l311 129q96 41 160 41h45v-1305h389v-129z" />
    <glyph glyph-name="two" unicode="2" horiz-adv-x="1126" 
d="M115 0v190q0 67 24 125.5t70.5 107t95 85t117.5 78.5l213 129q223 136 223 319q0 125 -93 204t-265 79q-155 0 -314 -66l-43 119q156 74 355 74q132 0 234 -34.5t161.5 -93t89 -127.5t29.5 -145q0 -79 -26.5 -147t-77 -123.5t-105 -97t-129.5 -86.5l-195 -117
q-101 -60 -156 -124.5t-55 -145.5v-70h738v-133h-891z" />
    <glyph glyph-name="three" unicode="3" horiz-adv-x="1126" 
d="M467 -20q-209 0 -346 61l43 121q131 -56 303 -56q86 0 153 17.5t109 46.5t69 69t37.5 81.5t10.5 87.5q0 282 -371 282h-119v125h119q82 0 146 24t100.5 63t55 84t18.5 93t-15 88t-50 75t-100.5 55t-156.5 20q-142 0 -299 -60l-37 121q66 26 165 46t171 20q124 0 218 -29
t148 -80t80.5 -113t26.5 -135q0 -103 -63 -193t-170 -132q137 -35 210.5 -131.5t73.5 -220.5q0 -88 -30 -163t-91 -136t-165.5 -96t-243.5 -35z" />
    <glyph glyph-name="four" unicode="4" horiz-adv-x="1126" 
d="M748 498v762l-517 -762h517zM1053 369h-164v-369h-141v369h-658v143l621 922h178v-936h164v-129z" />
    <glyph glyph-name="five" unicode="5" horiz-adv-x="1126" 
d="M449 -20q-191 0 -322 69l45 121q130 -64 285 -64q178 0 295.5 107.5t117.5 290.5q0 152 -103.5 244t-266.5 92q-161 0 -267 -47l-81 53v588h817v-127h-680v-367q112 31 239 31q96 0 181 -28t154.5 -83t110 -146.5t40.5 -207.5q0 -236 -159.5 -381t-405.5 -145z" />
    <glyph glyph-name="six" unicode="6" horiz-adv-x="1126" 
d="M1049 483q0 -136 -57 -250.5t-163.5 -183.5t-240.5 -69q-219 0 -354.5 174t-135.5 469v61q0 165 33.5 297.5t88 217.5t129 141.5t152.5 80t163 23.5q196 0 307 -70l-45 -121q-114 60 -262 60q-81 -1 -149.5 -31t-125 -92.5t-93.5 -168t-48 -247.5q150 172 360 172
q90 0 164.5 -26.5t125 -70.5t85 -104t50.5 -126t16 -136zM592 106q137 0 223 108t86 263q0 62 -16.5 119.5t-51.5 109t-99 82.5t-148 31q-108 0 -196.5 -57.5t-145.5 -140.5v-33q0 -64 11.5 -128.5t38 -129t65.5 -113.5t99.5 -80t133.5 -31z" />
    <glyph glyph-name="seven" unicode="7" horiz-adv-x="1126" 
d="M469 0h-156q22 179 67.5 351.5t101 308t124.5 262t131 216.5t129 169h-762v127h887l31 -115q-63 -77 -123.5 -166t-133 -220.5t-129.5 -269t-103.5 -312.5t-63.5 -351z" />
    <glyph glyph-name="eight" unicode="8" horiz-adv-x="1126" 
d="M555 -20q-215 0 -347 110.5t-132 292.5q0 132 72 229t194 160q-197 102 -197 305q0 156 117 261.5t299 105.5q185 0 303.5 -105t118.5 -258q0 -219 -205 -319q275 -116 275 -367q0 -188 -138.5 -301.5t-359.5 -113.5zM518 842l115 -33q98 39 150.5 107t52.5 147
q0 114 -77 184t-198 70q-118 0 -193 -67.5t-75 -178.5q0 -91 56 -143.5t169 -85.5zM557 113q155 0 251.5 81.5t96.5 213.5q0 86 -58.5 151t-172.5 100l-193 60q-125 -57 -191.5 -134t-66.5 -192q0 -124 93.5 -202t240.5 -78z" />
    <glyph glyph-name="nine" unicode="9" horiz-adv-x="1126" 
d="M553 604q103 0 189 47t141 113v82q0 69 -10 132.5t-34.5 126.5t-61 109t-95.5 74.5t-133 28.5q-149 0 -236.5 -101t-87.5 -262q0 -67 17.5 -127t54.5 -111.5t102.5 -81.5t153.5 -30zM492 -20q-222 0 -338 75l45 121q120 -65 293 -65q86 0 151 25t117 82t82.5 156.5
t38.5 241.5q-146 -139 -351 -139q-115 0 -204 39t-142 105.5t-79.5 149.5t-26.5 177q0 141 58 253.5t166.5 177.5t250.5 65q229 0 352 -167.5t123 -463.5v-125q0 -118 -15.5 -216t-42.5 -170t-66.5 -128t-84.5 -92t-100 -59.5t-110 -33t-117 -9.5z" />
    <glyph glyph-name="colon" unicode=":" horiz-adv-x="569" 
d="M285 618q-46 0 -78.5 31.5t-32.5 77.5t32.5 78.5t78.5 32.5t78 -32.5t32 -78.5t-32 -77.5t-78 -31.5zM285 111q-46 0 -78.5 31.5t-32.5 76.5q0 46 32.5 78.5t78.5 32.5t78 -32.5t32 -78.5t-32 -77t-78 -31z" />
    <glyph glyph-name="semicolon" unicode=";" horiz-adv-x="569" 
d="M285 618q-46 0 -78.5 31.5t-32.5 77.5t32.5 78.5t78.5 32.5t78 -32.5t32 -78.5t-32 -77.5t-78 -31.5zM170 -291l-39 51q55 35 87 84.5t32 106.5q0 34 -19 64t-47 44q0 40 30 70.5t71 30.5q60 0 91.5 -39t31.5 -101q0 -58 -23.5 -113t-60.5 -94t-77 -66t-77 -38z" />
    <glyph glyph-name="less" unicode="&#x3c;" horiz-adv-x="1222" 
d="M1059 246l-895 346v137l895 344v-135l-733 -274l733 -277v-141z" />
    <glyph glyph-name="equal" unicode="=" horiz-adv-x="1085" 
d="M160 750v129h766v-129h-766zM160 403v129h766v-129h-766z" />
    <glyph glyph-name="greater" unicode="&#x3e;" horiz-adv-x="1222" 
d="M164 246v141l733 277l-733 274v135l895 -344v-137z" />
    <glyph glyph-name="question" unicode="?" horiz-adv-x="837" 
d="M367 399h-115l-10 334q55 0 108.5 8.5t109.5 30.5t97.5 55.5t68.5 89t27 125.5q0 119 -70 195t-214 76q-117 0 -250 -53l-37 129q147 55 287 55q211 0 319.5 -108t108.5 -281q0 -103 -34.5 -183t-94.5 -128t-131 -74t-152 -31zM313 -20q-45 0 -77.5 32.5t-32.5 77.5
q0 46 32 78.5t78 32.5t78.5 -32.5t32.5 -78.5q0 -44 -33 -77t-78 -33z" />
    <glyph glyph-name="at" unicode="@" horiz-adv-x="2056" 
d="M956 -432q-181 0 -335.5 65t-264 181.5t-171.5 285t-62 367.5q0 172 45 325t128 271.5t196 204.5t253.5 131t296.5 45q189 0 353.5 -64.5t283 -179t186.5 -282t68 -365.5q0 -116 -22 -211.5t-59 -160t-86 -109t-102.5 -64.5t-109.5 -20q-125 0 -202 95.5t-80 238.5
l-4 100q-37 -206 -137.5 -320t-229.5 -114q-146 0 -239 122t-93 341q0 167 60 300t179 213t279 80q111 0 211 -51l68 33l25 -10v-678q0 -104 46 -161.5t119 -57.5q45 0 85 23.5t75 72t55.5 135.5t20.5 203q0 173 -57 317.5t-156.5 243t-238 153t-298.5 54.5
q-167 0 -310.5 -60.5t-247 -170t-162 -270.5t-58.5 -353q0 -349 191 -557.5t501 -208.5q125 0 238 37l41 -125q-130 -45 -279 -45zM913 121q63 0 122.5 48t108 136.5t78 229t29.5 309.5v39q-73 43 -168 43q-161 0 -263.5 -128.5t-102.5 -344.5q0 -158 53 -245t143 -87z" />
    <glyph glyph-name="A" unicode="A" horiz-adv-x="1290" 
d="M858 625l-215 596l-213 -596h428zM1081 0l-180 504h-514l-182 -504h-154l543 1444h51q29 0 43.5 -9.5t24.5 -37.5l526 -1397h-158z" />
    <glyph glyph-name="B" unicode="B" horiz-adv-x="1261" 
d="M584 -20q-99 0 -217.5 18.5t-212.5 46.5v1389h462q227 0 347 -98.5t120 -252.5q0 -107 -60 -189.5t-144 -119.5q122 -33 205 -134t83 -226q0 -112 -43.5 -196.5t-122.5 -136t-183.5 -76.5t-233.5 -25zM637 1305h-344v-482h369q112 0 191 72.5t79 183.5q0 42 -15 79.5
t-47 72t-92 54.5t-141 20zM586 106q208 0 319 79t111 225q0 123 -94.5 203.5t-259.5 80.5h-369v-544q156 -44 293 -44z" />
    <glyph glyph-name="C" unicode="C" horiz-adv-x="1277" 
d="M780 -20q-133 0 -243 39t-186 107.5t-128 162.5t-76 201t-24 227q0 118 24 223.5t76 198.5t128 160t186 106t243 39q192 0 375 -94l-53 -113q-160 78 -326 78q-108 0 -195 -33.5t-144 -89.5t-95.5 -133.5t-55 -162.5t-16.5 -179q0 -95 16.5 -181t55 -165t95.5 -136.5
t144 -91.5t195 -34q72 0 138 12.5t103 26t97 38.5l41 -112q-174 -94 -375 -94z" />
    <glyph glyph-name="D" unicode="D" horiz-adv-x="1341" 
d="M526 -18q-114 0 -194 16t-178 51v1385h407q99 0 190.5 -22t177.5 -73.5t149.5 -126.5t102 -190t38.5 -256q0 -195 -53 -346.5t-147.5 -246t-219 -143t-273.5 -48.5zM528 111q261 0 402 163t141 474q0 261 -133.5 409t-368.5 148h-276v-1158q113 -36 235 -36z" />
    <glyph glyph-name="E" unicode="E" horiz-adv-x="1167" 
d="M154 0v1434h890v-129h-751v-492h680v-129h-680v-555h751v-129h-890z" />
    <glyph glyph-name="F" unicode="F" horiz-adv-x="1024" 
d="M154 0v1434h870v-129h-731v-492h598v-129h-598v-684h-139z" />
    <glyph glyph-name="G" unicode="G" horiz-adv-x="1306" 
d="M1184 90q-184 -110 -393 -110q-136 0 -248 39.5t-189 107.5t-130 162t-77 201t-24 227q0 118 24.5 224t77.5 198.5t130.5 159.5t189 106t246.5 39q205 0 385 -94l-54 -113q-156 78 -336 78q-110 0 -198.5 -33.5t-147 -89.5t-97.5 -133.5t-56 -162.5t-17 -179
q0 -95 17 -181t56 -165t97.5 -136.5t147 -91.5t198.5 -34q140 0 263 51v620h135v-690z" />
    <glyph glyph-name="H" unicode="H" horiz-adv-x="1351" 
d="M154 0v1434h139v-621h766v621h139v-1434h-139v684h-766v-684h-139z" />
    <glyph glyph-name="I" unicode="I" horiz-adv-x="532" 
d="M195 0v1434h143v-1434h-143z" />
    <glyph glyph-name="J" unicode="J" horiz-adv-x="874" 
d="M332 -20q-180 0 -307 133l90 96q97 -100 215 -100q37 0 70.5 8.5t69.5 32.5t62 62t43 102t17 147v973h139v-985q0 -105 -26 -188.5t-67.5 -135t-95.5 -85.5t-106 -47t-104 -13z" />
    <glyph glyph-name="K" unicode="K" horiz-adv-x="1212" 
d="M977 0l-684 692v-692h-139v1434h139v-590l627 590h192l-713 -660l772 -774h-194z" />
    <glyph glyph-name="L" unicode="L" horiz-adv-x="1024" 
d="M154 0v1434h139v-1305h649v-129h-788z" />
    <glyph glyph-name="M" unicode="M" horiz-adv-x="1652" 
d="M727 379l-297 850l-235 -1229h-144l285 1440h117q25 0 37.5 -12t23.5 -44l317 -903l357 959h94q34 0 52.5 -18t25.5 -60l242 -1362h-136l-219 1237l-348 -940h-96q-28 0 -44.5 18t-31.5 64z" />
    <glyph glyph-name="N" unicode="N" horiz-adv-x="1372" 
d="M1073 63l-784 1100l4 -1163h-139v1440h45q57 0 96 -56l788 -1103l-4 1153h140v-1434h-39q-62 0 -107 63z" />
    <glyph glyph-name="O" unicode="O" horiz-adv-x="1390" 
d="M696 -20q-117 0 -213 38.5t-162 106t-111.5 161t-66 201t-20.5 228.5q0 151 34 279.5t101.5 230.5t179.5 160.5t258 58.5q119 0 215 -38.5t162 -105.5t110.5 -160t64.5 -199t20 -226q0 -121 -20.5 -228.5t-65 -201t-110.5 -161t-162 -106t-214 -38.5zM696 109
q89 0 161.5 34t121.5 91.5t82 135.5t48 164.5t15 180.5q0 93 -15 178.5t-48 163t-82 134.5t-121.5 90.5t-161.5 33.5q-113 0 -198 -50.5t-134 -137t-72.5 -190t-23.5 -222.5q0 -120 23.5 -224.5t72.5 -192t134 -138.5t198 -51z" />
    <glyph glyph-name="P" unicode="P" horiz-adv-x="1208" 
d="M543 565q104 0 184.5 25t128 64.5t77.5 94.5t41 108.5t11 113.5q0 49 -7.5 92.5t-30 89.5t-58 78t-95.5 53t-139 21h-362v-697q118 -43 250 -43zM537 436q-137 0 -244 35v-471h-139v1434h483q109 0 195.5 -25.5t143 -68.5t93.5 -103.5t52.5 -126t15.5 -139.5
q0 -86 -21 -163.5t-67.5 -146t-115 -118t-170 -78.5t-226.5 -29z" />
    <glyph glyph-name="Q" unicode="Q" horiz-adv-x="1390" 
d="M1237 -170q-165 4 -338.5 37.5t-331.5 99t-239 150.5q-103 98 -154 254t-51 344q0 151 34 279.5t101.5 230.5t179.5 160.5t258 58.5q119 0 215 -38.5t162 -105.5t110.5 -160t64.5 -199t20 -226q0 -136 -27.5 -253t-83 -213.5t-148 -159.5t-214.5 -81q189 -47 454 -47z
M696 109q89 0 161.5 34t121.5 91.5t82 135.5t48 164.5t15 180.5q0 93 -15 178.5t-48 163t-82 134.5t-121.5 90.5t-161.5 33.5q-113 0 -198 -50.5t-134 -137t-72.5 -190t-23.5 -222.5q0 -120 23.5 -224.5t72.5 -192t134 -138.5t198 -51z" />
    <glyph glyph-name="R" unicode="R" horiz-adv-x="1251" 
d="M543 606q104 0 184.5 24t128 62t77.5 90.5t41 104t11 108.5q0 45 -7.5 85t-30 82.5t-57.5 73t-95.5 50t-139.5 19.5h-362v-656q118 -43 250 -43zM539 477q-139 0 -246 35v-512h-139v1434h483q109 0 195.5 -24.5t143 -65t93.5 -98t52.5 -119.5t15.5 -132
q0 -159 -78.5 -285t-235.5 -186l342 -524h-159l-320 487q-75 -10 -147 -10z" />
    <glyph glyph-name="S" unicode="S" horiz-adv-x="1132" 
d="M498 -20q-208 0 -369 86l37 127q156 -84 336 -84q103 0 181 23.5t122.5 64t66 89t21.5 103.5q0 50 -11.5 88.5t-40 74.5t-81 62.5t-129.5 44.5l-133 31q-196 45 -291.5 132t-95.5 233q0 57 16.5 110.5t54.5 105t93.5 89.5t140 61t188.5 23q185 0 350 -70l-43 -125
q-56 22 -92 34t-97 23t-126 11q-99 0 -170 -22t-109.5 -60.5t-55.5 -83.5t-17 -98q0 -92 68 -148t202 -86l137 -31q198 -44 288.5 -141.5t90.5 -245.5q0 -63 -17.5 -122t-58 -114t-100.5 -95.5t-151.5 -65t-204.5 -24.5z" />
    <glyph glyph-name="T" unicode="T" horiz-adv-x="1146" 
d="M504 0v1294l-424 33v107h987v-107l-424 -33v-1294h-139z" />
    <glyph glyph-name="U" unicode="U" horiz-adv-x="1372" 
d="M686 -20q-70 0 -140 16t-144.5 57.5t-130.5 105t-92 167.5t-36 235v873h140v-856q0 -111 26 -197t66.5 -136t96 -82t107 -43t107.5 -11q46 0 89.5 8t90.5 27t86 54.5t70.5 85.5t49.5 125.5t18 168.5v856h139v-873q0 -131 -36 -235t-92 -167.5t-130.5 -105t-144.5 -57.5
t-140 -16z" />
    <glyph glyph-name="V" unicode="V" horiz-adv-x="1310" 
d="M707 -20h-54q-28 0 -42 11t-25 40l-525 1403h76q81 0 111 -80l409 -1135l439 1215h153z" />
    <glyph glyph-name="W" unicode="W" horiz-adv-x="1970" 
d="M1307 49l-318 1182l-348 -1251h-80q-35 0 -54.5 15.5t-29.5 53.5l-416 1385h70q41 0 62 -19t34 -61l342 -1172l342 1229h72q45 0 70 -21t37 -67l311 -1151l364 1262h144l-434 -1454h-84q-36 0 -55.5 16t-28.5 53z" />
    <glyph glyph-name="X" unicode="X" horiz-adv-x="1228" 
d="M963 49l-351 555l-385 -604h-159l467 723l-449 711h80q44 0 68.5 -13t46.5 -47l333 -534l373 594h156l-449 -709l467 -725h-106q-62 0 -92 49z" />
    <glyph glyph-name="Y" unicode="Y" horiz-adv-x="1163" 
d="M500 0v483l-469 951h86q67 0 100 -68l354 -729l408 797h154l-490 -951v-483h-143z" />
    <glyph glyph-name="Z" unicode="Z" horiz-adv-x="1128" 
d="M1047 0h-965v27q0 66 31 116l725 1162h-715v129h891v-35q0 -57 -23 -99l-733 -1171h789v-129z" />
    <glyph glyph-name="bracketleft" unicode="[" horiz-adv-x="598" 
d="M475 -264v-113h-291v2128h291v-113h-147v-1902h147z" />
    <glyph glyph-name="backslash" unicode="\" horiz-adv-x="1128" 
d="M758 -240l-533 1858h146l532 -1858h-145z" />
    <glyph glyph-name="bracketright" unicode="]" horiz-adv-x="598" 
d="M414 -377h-291v113h147v1902h-147v113h291v-2128z" />
    <glyph glyph-name="underscore" unicode="_" horiz-adv-x="1085" 
d="M160 -129v129h766v-129h-766z" />
    <glyph glyph-name="a" unicode="a" horiz-adv-x="1060" 
d="M512 104q72 0 145.5 36t112.5 93v7q0 130 -75 209t-203 79q-101 0 -168.5 -59.5t-67.5 -153.5t70 -152.5t186 -58.5zM788 0l-10 106q-39 -51 -120.5 -88.5t-184.5 -37.5q-155 0 -259.5 91t-104.5 238q0 152 106 245t258 93q110 0 185 -41.5t110 -107.5v141
q0 61 -12.5 108t-42 86t-83 59.5t-130.5 20.5q-135 0 -267 -53l-36 129q145 55 303 55q220 0 315.5 -98.5t95.5 -279.5v-666h-123z" />
    <glyph glyph-name="b" unicode="b" horiz-adv-x="1124" 
d="M512 -20q-203 0 -352 90v1466h139v-672q38 85 122 132.5t179 47.5q103 0 183 -39t128.5 -107.5t73.5 -156t25 -190.5q0 -166 -53 -292.5t-167 -202.5t-278 -76zM532 106q71 0 128.5 25.5t95.5 68t63 100.5t36 120.5t11 130.5q0 71 -13.5 132t-43 116t-86.5 87t-135 32
q-43 0 -83 -12.5t-77.5 -41.5t-64.5 -72t-43.5 -109t-16.5 -148v-381q81 -48 229 -48z" />
    <glyph glyph-name="c" unicode="c" horiz-adv-x="913" 
d="M584 -20q-118 0 -210 43t-147.5 117.5t-83.5 168.5t-28 203t28 203t83.5 168.5t147.5 117.5t210 43q156 0 266 -51l-41 -116q-105 41 -227 41q-69 0 -125 -22.5t-92.5 -61t-61 -91t-35 -110t-10.5 -121.5t10.5 -121.5t35 -110t61 -91t92.5 -61t125 -22.5q133 0 233 41
l37 -114q-127 -53 -268 -53z" />
    <glyph glyph-name="d" unicode="d" horiz-adv-x="1124" 
d="M549 106q49 0 95 16t87 48t65.5 90t24.5 133v416q-36 43 -102 76t-144 33q-63 0 -116 -22.5t-89.5 -61.5t-62 -92.5t-37.5 -114t-12 -127.5q0 -72 16.5 -139.5t50 -126t91.5 -93.5t133 -35zM827 123q-44 -64 -122.5 -103.5t-169.5 -39.5q-98 0 -178 40.5t-132.5 111
t-81 165t-28.5 203.5q0 234 122 389t318 155q76 0 150.5 -26.5t119.5 -75.5v594h140v-1536h-123z" />
    <glyph glyph-name="e" unicode="e" horiz-adv-x="1050" 
d="M545 918q-90 0 -152.5 -46t-91.5 -115t-39 -161h541v10q0 62 -13.5 115.5t-42.5 99t-80.5 71.5t-121.5 26zM920 51q-78 -38 -153.5 -54.5t-176.5 -16.5q-121 0 -214 43t-149 117.5t-84 168.5t-28 203t26.5 203t77.5 168.5t135 117.5t191 43q87 0 155.5 -25t114 -69
t75.5 -106.5t43 -133.5t13 -155v-78h-688q4 -75 23.5 -138.5t57.5 -117.5t102.5 -84.5t150.5 -30.5q169 0 282 58z" />
    <glyph glyph-name="f" unicode="f" horiz-adv-x="772" 
d="M248 0v899l-205 33v92h205v219q0 157 91 235t284 78q90 0 155 -22l-26 -121q-66 17 -129 17q-232 0 -232 -187v-219h316v-106l-316 -21v-897h-143z" />
    <glyph glyph-name="g" unicode="g" horiz-adv-x="1015" 
d="M494 -532q-123 0 -219 33.5t-155 107t-59 178.5q0 104 69.5 184t184.5 127q-36 36 -36 92q0 46 31.5 85.5t95.5 60.5q-149 15 -235.5 110t-86.5 230q0 153 111 260.5t286 107.5q104 0 185 -38l299 63l24 -119l-100 -20l-107 -8q99 -107 99 -246q0 -76 -24.5 -138.5
t-67.5 -105.5t-95.5 -71t-115.5 -44l-72 -18q-78 -21 -78 -74q0 -26 21 -44.5t61 -22.5l147 -17q155 -17 236.5 -95.5t81.5 -209.5q0 -116 -70 -201.5t-177 -126t-234 -40.5zM496 430q106 0 179 66t73 178q0 41 -16.5 82.5t-47.5 79t-84 61t-119 23.5q-118 0 -191 -68
t-73 -178q0 -104 75 -174t204 -70zM494 -410q86 0 160 24.5t125.5 81.5t51.5 138q0 74 -52.5 124t-162.5 60l-137 13q-38 4 -57 8q-98 -32 -161.5 -98t-63.5 -146q0 -103 82.5 -154t214.5 -51z" />
    <glyph glyph-name="h" unicode="h" horiz-adv-x="1101" 
d="M303 637v-637h-143v1536h139v-629q45 66 123.5 101.5t157.5 35.5q179 0 275.5 -101t96.5 -284v-659h-143v637q0 147 -67 214t-181 67q-47 0 -91 -15.5t-82.5 -47t-61.5 -88t-23 -130.5z" />
    <glyph glyph-name="i" unicode="i" horiz-adv-x="495" 
d="M248 1188q-46 0 -78.5 32t-32.5 78q0 45 33 78t78 33t77.5 -33t32.5 -78q0 -46 -32 -78t-78 -32zM176 0v1024h143v-1024h-143z" />
    <glyph glyph-name="j" unicode="j" horiz-adv-x="489" 
d="M242 1188q-46 0 -78.5 32t-32.5 78q0 45 33 78t78 33t77.5 -33t32.5 -78q0 -46 -32 -78t-78 -32zM0 -518q-73 0 -131 22l25 113q40 -16 88 -16q95 0 141.5 54.5t46.5 178.5v1190h143v-1200q0 -93 -25.5 -161.5t-70 -107t-98.5 -56t-119 -17.5z" />
    <glyph glyph-name="k" unicode="k" horiz-adv-x="1042" 
d="M309 49q-30 -49 -96 -49h-53v1536h143v-1280l492 768h166l-306 -459l326 -565h-160l-254 436z" />
    <glyph glyph-name="l" unicode="l" horiz-adv-x="518" 
d="M375 -12q-92 0 -150.5 46t-58.5 146v1356h143v-1352q0 -78 84 -78q43 0 68 17l24 -113q-43 -22 -110 -22z" />
    <glyph glyph-name="m" unicode="m" horiz-adv-x="1742" 
d="M303 637v-637h-143v1024h67q22 0 33.5 -9t15.5 -30l17 -88q43 70 124.5 108.5t162.5 38.5q126 0 213 -50.5t125 -145.5q30 92 121 144t186 52q177 0 272.5 -101t95.5 -284v-659h-143v637q0 147 -66 214t-178 67q-46 0 -89.5 -15.5t-81 -47t-60.5 -88t-23 -130.5v-637
h-143v637q0 147 -67 214t-181 67q-47 0 -91 -15.5t-82.5 -47t-61.5 -88t-23 -130.5z" />
    <glyph glyph-name="n" unicode="n" horiz-adv-x="1101" 
d="M303 637v-637h-143v1024h67q22 0 33.5 -9t15.5 -30l17 -88q43 70 124.5 108.5t162.5 38.5q179 0 275.5 -101t96.5 -284v-659h-143v637q0 147 -66.5 214t-181.5 67q-47 0 -90.5 -15.5t-82 -47t-62 -88t-23.5 -130.5z" />
    <glyph glyph-name="o" unicode="o" horiz-adv-x="1089" 
d="M545 -20q-107 0 -191 43t-135 117.5t-77.5 168.5t-26.5 203t26.5 203t77.5 168.5t135 117.5t191 43q109 0 193 -43t135 -117.5t76.5 -168.5t25.5 -203t-26 -203t-77 -168.5t-135 -117.5t-192 -43zM545 106q77 0 134.5 34t89.5 93t47 128.5t15 150.5t-15 150.5t-47 128.5
t-89.5 93t-134.5 34q-79 0 -137 -34t-89.5 -93t-46 -128t-14.5 -151t14.5 -151t46 -128t89.5 -93t137 -34z" />
    <glyph glyph-name="p" unicode="p" horiz-adv-x="1124" 
d="M559 106q82 0 143.5 37.5t96 101t51 138.5t16.5 160q0 57 -7.5 108t-27.5 101t-50.5 86t-80 58t-112.5 22q-43 0 -83 -12.5t-77.5 -41.5t-64.5 -72t-43.5 -109t-16.5 -148v-355q63 -38 119 -56t137 -18zM303 51v-563h-143v1536h67q41 0 47 -35l23 -131q37 87 121.5 136.5
t181.5 49.5q103 0 183 -39.5t128.5 -109t73.5 -159t25 -193.5q0 -116 -28 -216t-82 -178.5t-141.5 -123.5t-199.5 -45q-148 0 -256 71z" />
    <glyph glyph-name="q" unicode="q" horiz-adv-x="1124" 
d="M965 -512h-144v631q-42 -62 -119.5 -100.5t-166.5 -38.5q-98 0 -178 40.5t-132.5 111t-81 165t-28.5 203.5q0 152 54 275.5t155 196t231 72.5q76 0 150 -26t118 -74l15 80h127v-1536zM549 106q49 0 95 16t87 48t65.5 90t24.5 133v416q-36 43 -102 76t-144 33
q-63 0 -116 -22.5t-89.5 -61.5t-62 -92.5t-37.5 -114t-12 -127.5q0 -72 16.5 -139.5t50 -126t91.5 -93.5t133 -35z" />
    <glyph glyph-name="r" unicode="r" horiz-adv-x="667" 
d="M303 0h-143v1024h67q22 0 33.5 -9t15.5 -30l23 -131q35 91 110.5 140.5t157.5 49.5q61 0 113 -18l-29 -160q-48 25 -106 25q-46 0 -87.5 -16.5t-77 -50.5t-56.5 -93.5t-21 -138.5v-592z" />
    <glyph glyph-name="s" unicode="s" horiz-adv-x="937" 
d="M424 -20q-173 0 -318 69l44 121q133 -61 274 -61q80 0 136.5 17t82.5 45.5t36.5 55.5t10.5 58q0 64 -47 109t-151 73l-70 18q-157 42 -231 105.5t-74 175.5q0 52 23 100t68 88.5t120 65t170 24.5q166 0 297 -61l-43 -123q-46 19 -74 29t-78 19.5t-104 9.5
q-129 0 -186.5 -46t-57.5 -108q0 -60 46 -95t155 -65l67 -18q161 -44 235 -114t74 -177q0 -61 -22.5 -115.5t-68 -100t-126.5 -72.5t-188 -27z" />
    <glyph glyph-name="t" unicode="t" horiz-adv-x="772" 
d="M561 -20q-65 0 -119 17.5t-98.5 56t-70 107t-25.5 161.5v581l-205 29v92h205v305h143v-305h318v-106l-318 -23v-563q0 -124 47 -179t142 -55q58 0 110 25l29 -111q-72 -32 -158 -32z" />
    <glyph glyph-name="u" unicode="u" horiz-adv-x="1101" 
d="M823 0l-14 125q-43 -68 -125 -106.5t-162 -38.5q-179 0 -275.5 101t-96.5 284v659h143v-637q0 -147 67 -214t181 -67q47 0 91 15.5t82.5 47t61.5 88t23 130.5v637h143v-1024h-119z" />
    <glyph glyph-name="v" unicode="v" horiz-adv-x="987" 
d="M545 -20h-45q-33 0 -52 16t-34 55l-371 973h88q69 0 92 -66l271 -753l299 819h151z" />
    <glyph glyph-name="w" unicode="w" horiz-adv-x="1437" 
d="M1104 -25h-41q-34 0 -54 17t-32 55l-256 823l-283 -893h-39q-36 0 -56 16.5t-30 55.5l-270 975h96q57 0 72 -63l180 -734l256 797h92q35 0 51 -11.5t25 -41.5l234 -744l194 797h152z" />
    <glyph glyph-name="x" unicode="x" horiz-adv-x="1007" 
d="M764 45l-258 373l-293 -418h-168l375 528l-357 496h107q64 0 94 -43l240 -340l270 383h170l-352 -492l373 -532h-109q-62 0 -92 45z" />
    <glyph glyph-name="y" unicode="y" horiz-adv-x="1081" 
d="M522 -520q-81 0 -165 23t-150 65l43 119q69 -38 129 -58t143 -20q75 0 128 22t81.5 63.5t40.5 91t12 114.5v219q-43 -67 -119.5 -103t-152.5 -36q-174 0 -268 101t-94 284v659h143v-637q0 -147 64 -214t173 -67q46 0 88 15.5t79 47t59 88t22 130.5v637h144v-1143
q0 -401 -400 -401z" />
    <glyph glyph-name="z" unicode="z" horiz-adv-x="876" 
d="M813 0h-739v25q0 67 41 125l503 755l-514 -4v123h689v-33q0 -56 -27 -98l-518 -772l565 4v-125z" />
    <glyph glyph-name="braceleft" unicode="{" horiz-adv-x="614" 
d="M475 -387q-58 0 -106.5 14.5t-89 46t-63.5 89t-23 135.5q0 94 23.5 283t23.5 278q0 71 -35.5 114t-100.5 43h-22v127h22q65 0 100.5 42.5t35.5 113.5q0 89 -23.5 278t-23.5 283q0 78 23 135t63.5 88.5t89 45.5t106.5 14q42 0 74 -4l4 -101q-40 0 -74.5 -8t-67.5 -26.5
t-52 -56.5t-19 -91q0 -95 20.5 -270.5t20.5 -251.5q0 -248 -182 -252v-6q182 -4 182 -252q0 -74 -20.5 -250.5t-20.5 -271.5q0 -54 19 -91.5t52 -56.5t67.5 -27t74.5 -8l-4 -102q-32 -4 -74 -4z" />
    <glyph glyph-name="bar" unicode="|" horiz-adv-x="1126" 
d="M492 -240v1858h143v-1858h-143z" />
    <glyph glyph-name="braceright" unicode="}" horiz-adv-x="614" 
d="M139 -387q-41 0 -73 4l-5 102q40 0 74.5 8t67.5 27t52 56.5t19 91.5q0 95 -20.5 271.5t-20.5 250.5q0 248 183 252v6q-183 4 -183 252q0 76 20.5 251.5t20.5 270.5q0 53 -19 91t-52 56.5t-67.5 26.5t-74.5 8l5 101q32 4 73 4q58 0 106.5 -14t89.5 -45.5t64 -88.5t23 -135
q0 -94 -23.5 -283t-23.5 -278q0 -71 35 -113.5t100 -42.5h22v-127h-22q-64 0 -99.5 -43t-35.5 -114q0 -89 23.5 -278t23.5 -283q0 -78 -23 -135.5t-64 -89t-89.5 -46t-106.5 -14.5z" />
    <glyph glyph-name="exclamdown" unicode="&#xa1;" horiz-adv-x="505" 
d="M254 825q-46 0 -78.5 32.5t-32.5 78.5q0 45 33 78t78 33t78 -33t33 -78q0 -46 -32.5 -78.5t-78.5 -32.5zM162 -512l41 1128h102l41 -1128h-184z" />
    <glyph glyph-name="cent" unicode="&#xa2;" horiz-adv-x="999" 
d="M856 225q-115 -47 -242 -53v-192h-135v202q-121 24 -203.5 102t-119.5 185t-37 236t37 235.5t119.5 184.5t203.5 102v217h135v-207q144 -7 240 -51l-41 -117q-105 41 -227 41q-86 0 -150.5 -34t-101.5 -92.5t-54.5 -128.5t-17.5 -150q0 -64 10.5 -121.5t35 -110t61 -91
t92.5 -61t125 -22.5q133 0 233 41z" />
    <glyph glyph-name="sterling" unicode="&#xa3;" horiz-adv-x="1169" 
d="M1067 129v-129h-944v129h55q133 0 211 91t78 239q0 27 -4 73h-254v130h211q-11 23 -49 65l-80 82q-64 66 -99.5 130.5t-35.5 147.5q0 155 124.5 256t331.5 101q219 0 371 -74l-43 -119q-161 66 -330 66q-133 0 -221 -61t-88 -166q0 -96 78 -177l88 -94q77 -84 108 -157
h318v-130h-287q4 -46 4 -69q0 -104 -40.5 -196t-100.5 -138h598z" />
    <glyph glyph-name="currency" unicode="&#xa4;" horiz-adv-x="1439" 
d="M1087 139l-129 129q-110 -78 -239 -78q-127 0 -240 78l-127 -127l-100 101l127 127q-74 109 -74 235q0 130 78 240l-127 127l102 100l127 -127q107 76 236 76q126 0 235 -74l127 127l101 -100l-127 -127q78 -113 78 -240q0 -128 -76 -235l129 -129zM717 317q119 0 205 86
q86 89 86 209q0 117 -82 199t-197 82q-121 0 -209 -88t-88 -207q0 -113 84 -197t201 -84z" />
    <glyph glyph-name="yen" unicode="&#xa5;" horiz-adv-x="1163" 
d="M934 213h-291v-213h-143v213h-291v119h291v108h-291v119h291v57l-469 818h153l389 -680l406 680h154l-490 -818v-57h291v-119h-291v-108h291v-119z" />
    <glyph glyph-name="brokenbar" unicode="&#xa6;" horiz-adv-x="1126" 
d="M492 852v766h143v-766h-143zM492 -240v766h143v-766h-143z" />
    <glyph glyph-name="section" unicode="&#xa7;" horiz-adv-x="1181" 
d="M618 307q139 -139 187 -250q45 65 45 164q0 108 -41 181t-125 155l-160 158q-90 90 -135 176q-57 -60 -57 -164q0 -133 125 -258zM485 -514q-134 0 -245 100l63 107q81 -74 180 -74q109 0 161 68t52 172q0 108 -41 181t-125 155l-159 157q-89 89 -138 179.5t-49 199.5
q0 87 39.5 164.5t120.5 120.5q-6 38 -6 78q0 66 21 126t62.5 111.5t113.5 82t165 30.5q54 0 111 -20t94 -54l-53 -113q-82 54 -152 54q-112 0 -163.5 -63.5t-51.5 -157.5q0 -134 125 -259l162 -161q117 -117 171 -219t54 -228q0 -93 -38 -176t-117 -131q2 -18 2 -55
q0 -70 -21 -134.5t-62 -119.5t-112.5 -88t-163.5 -33z" />
    <glyph glyph-name="copyright" unicode="&#xa9;" horiz-adv-x="1869" 
d="M936 -53q-169 0 -319.5 63t-259 170.5t-171.5 258t-63 319.5t63 319.5t171.5 258t259 170.5t319.5 63q134 0 258.5 -40t224 -114t173.5 -173.5t114.5 -224t40.5 -259.5t-40.5 -259.5t-114.5 -224t-173.5 -173.5t-224 -114t-258.5 -40zM936 72q140 0 265 53t214.5 144.5
t142 218.5t52.5 270t-52.5 270t-142 218.5t-214.5 144.5t-265 53q-141 0 -266 -53t-215 -144.5t-142.5 -218.5t-52.5 -270t52.5 -270t142.5 -218.5t215 -144.5t266 -53zM946 248q-122 0 -217 41.5t-152.5 113t-86.5 161.5t-29 194q0 102 29 191t86.5 160t152.5 112t217 41
q143 0 279 -68l-41 -107q-106 54 -240 54q-90 0 -158.5 -32t-108 -87.5t-58.5 -121.5t-19 -142t19 -143.5t58.5 -123.5t108 -89t158.5 -33q126 0 250 53l31 -107q-128 -67 -279 -67z" />
    <glyph glyph-name="ordfeminine" unicode="&#xaa;" horiz-adv-x="827" 
d="M403 967q47 0 95 22t75 58v6q0 90 -51 145t-135 55q-67 0 -112.5 -40t-45.5 -103q0 -64 48 -103.5t126 -39.5zM592 870l-12 84q-28 -41 -87 -70.5t-137 -29.5q-116 0 -192 70t-76 178q0 117 79 186.5t195 69.5q77 0 130.5 -28t80.5 -73v80q0 91 -43 143t-149 52
q-99 0 -199 -47l-32 123q106 47 239 47q171 0 245.5 -78t74.5 -219v-488h-117zM139 569v121h559v-121h-559z" />
    <glyph glyph-name="guillemotleft" unicode="&#xab;" horiz-adv-x="1083" 
d="M446 66l-344 409v14l344 410h177l-349 -416l349 -417h-177zM805 66l-344 409v14l344 410h176l-348 -416l348 -417h-176z" />
    <glyph glyph-name="registered" unicode="&#xae;" horiz-adv-x="1386" 
d="M694 328q-122 0 -232 46t-189 124.5t-125 188t-46 231.5t46 231.5t125 188t188.5 124t232.5 45.5q163 0 298.5 -77.5t213.5 -213t78 -298.5q0 -122 -46 -231.5t-125 -188t-188 -124.5t-231 -46zM694 436q97 0 184.5 37.5t150.5 102t99.5 153.5t36.5 189
q0 202 -136.5 340.5t-334.5 138.5q-200 0 -336.5 -138.5t-136.5 -340.5q0 -203 137 -342.5t336 -139.5zM666 891q59 0 100 14.5t61 39.5t28.5 51t8.5 57q0 112 -145 112h-162v-260q46 -14 109 -14zM664 803q-60 0 -107 12v-225h-100v663h252q136 0 197 -57t61 -143
q0 -74 -37.5 -134.5t-112.5 -89.5l166 -239h-117l-149 215q-16 -2 -53 -2z" />
    <glyph glyph-name="degree" unicode="&#xb0;" horiz-adv-x="696" 
d="M348 1010q-47 0 -94.5 16.5t-88.5 47.5t-67 85t-26 121q0 55 17 101t45 76.5t64.5 52t74 31t75.5 9.5q48 0 95 -16t88.5 -47t67.5 -85t26 -122q0 -67 -26 -121t-67.5 -85t-89 -47.5t-94.5 -16.5zM348 1120q66 0 112 43t46 117t-46 117t-112 43t-112 -43t-46 -117t46 -117
t112 -43z" />
    <glyph glyph-name="plusminus" unicode="&#xb1;" horiz-adv-x="1085" 
d="M926 776h-318v-317h-129v317h-319v129h319v320h129v-320h318v-129zM160 229v129h766v-129h-766z" />
    <glyph glyph-name="paragraph" unicode="&#xb6;" horiz-adv-x="1460" 
d="M958 -512v1833h-172v-1833h-143v1004h-39q-230 0 -376 126t-146 336q0 105 32 191t97 151.5t172.5 101.5t249.5 36h663v-113h-194v-1833h-144z" />
    <glyph glyph-name="periodcentered" unicode="&#xb7;" horiz-adv-x="487" 
d="M244 485q-46 0 -78.5 31.5t-32.5 77.5t32.5 78.5t78.5 32.5t78 -32.5t32 -78.5t-32 -77.5t-78 -31.5z" />
    <glyph glyph-name="ordmasculine" unicode="&#xba;" horiz-adv-x="849" 
d="M426 854q-110 0 -187.5 57t-112 145.5t-34.5 198.5q0 109 34.5 197.5t112 145.5t187.5 57q84 0 149 -32.5t104 -89t59 -127t20 -151.5q0 -82 -20 -153t-59.5 -127t-104.5 -88.5t-148 -32.5zM426 975q97 0 142.5 77.5t45.5 202.5q0 124 -45.5 201.5t-142.5 77.5
q-99 0 -144.5 -77t-45.5 -202q0 -126 45.5 -203t144.5 -77zM160 569v121h538v-121h-538z" />
    <glyph glyph-name="guillemotright" unicode="&#xbb;" horiz-adv-x="1083" 
d="M102 66l349 417l-349 416h177l344 -410v-14l-344 -409h-177zM461 66l348 417l-348 416h176l344 -410v-14l-344 -409h-176z" />
    <glyph glyph-name="onequarter" unicode="&#xbc;" horiz-adv-x="1476" 
d="M248 0l989 1434h156l-990 -1434h-155zM606 647h-524v127h192v504l-182 -76v133l180 80q55 25 103 25h39v-666h192v-127zM1200 305v334l-211 -334h211zM1421 186h-88v-186h-133v186h-352v111l321 491h164v-483h88v-119z" />
    <glyph glyph-name="onehalf" unicode="&#xbd;" horiz-adv-x="1679" 
d="M266 0l989 1434h156l-989 -1434h-156zM1079 0v127q0 34 11.5 64t25.5 50.5t43.5 44.5t47 35.5t53.5 34.5l77 47q111 69 111 152q0 52 -41 85.5t-115 33.5q-90 0 -174 -43l-37 112q110 52 224 52q135 0 211.5 -63.5t76.5 -160.5q0 -83 -48.5 -143.5t-131.5 -112.5l-74 -43
q-104 -65 -104 -120v-25h360v-127h-516zM606 647h-524v127h192v504l-182 -76v133l180 80q55 25 103 25h39v-666h192v-127z" />
    <glyph glyph-name="threequarters" unicode="&#xbe;" horiz-adv-x="1427" 
d="M186 0l990 1434h155l-989 -1434h-156zM301 633q-123 0 -213 39l43 119q74 -31 162 -31q85 0 122.5 35t37.5 86q0 116 -158 116h-84v115h82q63 0 98 31t35 78q0 102 -137 102q-61 0 -162 -33l-31 113q39 16 98.5 27.5t110.5 11.5q132 0 198 -55.5t66 -143.5
q0 -58 -32 -109t-82 -73q63 -18 102 -67t39 -115q0 -109 -73 -177.5t-222 -68.5zM1151 305v334l-211 -334h211zM1372 186h-88v-186h-133v186h-352v111l321 491h164v-483h88v-119z" />
    <glyph glyph-name="questiondown" unicode="&#xbf;" horiz-adv-x="817" 
d="M524 823q-46 0 -78 32.5t-32 78.5q0 45 32.5 77.5t77.5 32.5q46 0 78.5 -33t32.5 -77q0 -46 -32.5 -78.5t-78.5 -32.5zM471 -522q-210 0 -320 109.5t-110 281.5q0 93 36 170.5t95 128t131.5 80t149.5 35.5l18 342h115l10 -437q-58 0 -112.5 -8.5t-110 -31t-96.5 -56.5
t-67 -89.5t-26 -125.5q0 -121 69.5 -194.5t217.5 -73.5q115 0 248 53l37 -129q-147 -55 -285 -55z" />
    <glyph glyph-name="Agrave" unicode="&#xc0;" horiz-adv-x="1290" 
d="M647 1518l-295 233h152q81 0 133 -61l143 -172h-133zM858 625l-215 596l-213 -596h428zM1081 0l-180 504h-514l-182 -504h-154l543 1444h51q29 0 43.5 -9.5t24.5 -37.5l526 -1397h-158z" />
    <glyph glyph-name="Aacute" unicode="&#xc1;" horiz-adv-x="1290" 
d="M471 1511l283 224h258l-377 -224h-164zM858 625l-215 596l-213 -596h428zM1081 0l-180 504h-514l-182 -504h-154l543 1444h51q29 0 43.5 -9.5t24.5 -37.5l526 -1397h-158z" />
    <glyph glyph-name="Acircumflex" unicode="&#xc2;" horiz-adv-x="1290" 
d="M786 1511l-137 129l-147 -129h-168l260 226h57q28 0 45.5 -6.5t40.5 -26.5l219 -193h-170zM858 625l-215 596l-213 -596h428zM1081 0l-180 504h-514l-182 -504h-154l543 1444h51q29 0 43.5 -9.5t24.5 -37.5l526 -1397h-158z" />
    <glyph glyph-name="Atilde" unicode="&#xc3;" horiz-adv-x="1290" 
d="M360 1542q-20 25 -20 70q0 62 44 104.5t122 42.5q45 0 84 -18.5t61 -41t51.5 -41t59.5 -18.5q42 0 63 41.5t21 85.5h78q14 -20 14 -63q0 -75 -49.5 -125.5t-122.5 -50.5q-38 0 -70.5 12.5t-54.5 30t-41 34.5t-41.5 29.5t-46.5 12.5q-41 0 -60.5 -33t-19.5 -72h-72z
M858 625l-215 596l-213 -596h428zM1081 0l-180 504h-514l-182 -504h-154l543 1444h51q29 0 43.5 -9.5t24.5 -37.5l526 -1397h-158z" />
    <glyph glyph-name="Adieresis" unicode="&#xc4;" horiz-adv-x="1290" 
d="M854 1518q-44 0 -76.5 32t-32.5 76t32.5 77.5t76.5 33.5t76.5 -33.5t32.5 -77.5t-32.5 -76t-76.5 -32zM428 1518q-44 0 -76.5 32t-32.5 76t32.5 77.5t76.5 33.5t76.5 -33.5t32.5 -77.5t-32.5 -76t-76.5 -32zM858 625l-215 596l-213 -596h428zM1081 0l-180 504h-514
l-182 -504h-154l543 1444h51q29 0 43.5 -9.5t24.5 -37.5l526 -1397h-158z" />
    <glyph glyph-name="AE" unicode="&#xc6;" horiz-adv-x="1923" 
d="M539 584h370v622zM31 0l878 1434h891v-129h-751v-492h680v-129h-680v-555h751v-129h-891v463h-442l-274 -463h-162z" />
    <glyph glyph-name="Ccedilla" unicode="&#xc7;" horiz-adv-x="1277" 
d="M713 -489q-49 0 -95 10.5t-76 25.5t-53.5 30t-34.5 25l-10 11l50 94q3 -4 9.5 -10t28 -22t45 -28t60 -22t74.5 -10q67 0 103 27.5t36 74.5q0 42 -34 68.5t-81 26.5q-37 0 -69 -14t-45 -28l-13 -14l-80 25l117 209q-131 23 -232.5 90.5t-164 166t-94 217.5t-31.5 253
q0 118 24 223.5t76 198.5t128 160t186 106t243 39q192 0 375 -94l-53 -113q-160 78 -326 78q-108 0 -195 -33.5t-144 -89.5t-95.5 -133.5t-55 -162.5t-16.5 -179q0 -95 16.5 -181t55 -165t95.5 -136.5t144 -91.5t195 -34q72 0 138 12.5t103 26t97 38.5l41 -112
q-174 -94 -375 -94h-24l-49 -91q37 13 75 13q79 0 138 -44.5t59 -131.5q0 -99 -72.5 -157t-193.5 -58z" />
    <glyph glyph-name="Egrave" unicode="&#xc8;" horiz-adv-x="1167" 
d="M586 1518l-295 233h151q81 0 133 -61l144 -172h-133zM154 0v1434h890v-129h-751v-492h680v-129h-680v-555h751v-129h-890z" />
    <glyph glyph-name="Eacute" unicode="&#xc9;" horiz-adv-x="1167" 
d="M410 1511l282 224h258l-377 -224h-163zM154 0v1434h890v-129h-751v-492h680v-129h-680v-555h751v-129h-890z" />
    <glyph glyph-name="Ecircumflex" unicode="&#xca;" horiz-adv-x="1167" 
d="M725 1511l-137 129l-148 -129h-168l260 226h58q28 0 45.5 -6.5t40.5 -26.5l219 -193h-170zM154 0v1434h890v-129h-751v-492h680v-129h-680v-555h751v-129h-890z" />
    <glyph glyph-name="Edieresis" unicode="&#xcb;" horiz-adv-x="1167" 
d="M793 1518q-44 0 -76.5 32t-32.5 76t32.5 77.5t76.5 33.5t76 -33t32 -78q0 -44 -32 -76t-76 -32zM367 1518q-44 0 -76.5 32t-32.5 76t32.5 77.5t76.5 33.5t76 -33t32 -78q0 -44 -32 -76t-76 -32zM154 0v1434h890v-129h-751v-492h680v-129h-680v-555h751v-129h-890z" />
    <glyph glyph-name="Igrave" unicode="&#xcc;" horiz-adv-x="532" 
d="M268 1518l-295 233h152q81 0 133 -61l143 -172h-133zM195 0v1434h143v-1434h-143z" />
    <glyph glyph-name="Iacute" unicode="&#xcd;" horiz-adv-x="532" 
d="M92 1511l283 224h258l-377 -224h-164zM195 0v1434h143v-1434h-143z" />
    <glyph glyph-name="Icircumflex" unicode="&#xce;" horiz-adv-x="532" 
d="M408 1511l-138 129l-147 -129h-168l260 226h57q28 0 45.5 -6.5t40.5 -26.5l220 -193h-170zM195 0v1434h143v-1434h-143z" />
    <glyph glyph-name="Idieresis" unicode="&#xcf;" horiz-adv-x="532" 
d="M475 1518q-44 0 -76 32t-32 76q0 45 32 78t76 33t76.5 -33.5t32.5 -77.5t-32.5 -76t-76.5 -32zM49 1518q-44 0 -76 32t-32 76q0 45 32 78t76 33t76.5 -33.5t32.5 -77.5t-32.5 -76t-76.5 -32zM195 0v1434h143v-1434h-143z" />
    <glyph glyph-name="Ntilde" unicode="&#xd1;" horiz-adv-x="1372" 
d="M389 1542q-20 25 -20 70q0 62 44 104.5t122 42.5q45 0 84 -18.5t61 -41t51.5 -41t59.5 -18.5q42 0 62.5 41.5t20.5 85.5h78q15 -21 15 -63q0 -75 -49.5 -125.5t-122.5 -50.5q-38 0 -70.5 12.5t-54.5 30t-41 34.5t-41.5 29.5t-46.5 12.5q-41 0 -60.5 -33t-19.5 -72h-72z
M1073 63l-784 1100l4 -1163h-139v1440h45q57 0 96 -56l788 -1103l-4 1153h140v-1434h-39q-62 0 -107 63z" />
    <glyph glyph-name="Ograve" unicode="&#xd2;" horiz-adv-x="1390" 
d="M698 1518l-295 233h152q81 0 133 -61l143 -172h-133zM696 -20q-117 0 -213 38.5t-162 106t-111.5 161t-66 201t-20.5 228.5q0 151 34 279.5t101.5 230.5t179.5 160.5t258 58.5q119 0 215 -38.5t162 -105.5t110.5 -160t64.5 -199t20 -226q0 -121 -20.5 -228.5t-65 -201
t-110.5 -161t-162 -106t-214 -38.5zM696 109q89 0 161.5 34t121.5 91.5t82 135.5t48 164.5t15 180.5q0 93 -15 178.5t-48 163t-82 134.5t-121.5 90.5t-161.5 33.5q-113 0 -198 -50.5t-134 -137t-72.5 -190t-23.5 -222.5q0 -120 23.5 -224.5t72.5 -192t134 -138.5t198 -51z
" />
    <glyph glyph-name="Oacute" unicode="&#xd3;" horiz-adv-x="1390" 
d="M522 1511l283 224h258l-377 -224h-164zM696 -20q-117 0 -213 38.5t-162 106t-111.5 161t-66 201t-20.5 228.5q0 151 34 279.5t101.5 230.5t179.5 160.5t258 58.5q119 0 215 -38.5t162 -105.5t110.5 -160t64.5 -199t20 -226q0 -121 -20.5 -228.5t-65 -201t-110.5 -161
t-162 -106t-214 -38.5zM696 109q89 0 161.5 34t121.5 91.5t82 135.5t48 164.5t15 180.5q0 93 -15 178.5t-48 163t-82 134.5t-121.5 90.5t-161.5 33.5q-113 0 -198 -50.5t-134 -137t-72.5 -190t-23.5 -222.5q0 -120 23.5 -224.5t72.5 -192t134 -138.5t198 -51z" />
    <glyph glyph-name="Ocircumflex" unicode="&#xd4;" horiz-adv-x="1390" 
d="M838 1511l-138 129l-147 -129h-168l260 226h57q28 0 45.5 -6.5t40.5 -26.5l220 -193h-170zM696 -20q-117 0 -213 38.5t-162 106t-111.5 161t-66 201t-20.5 228.5q0 151 34 279.5t101.5 230.5t179.5 160.5t258 58.5q119 0 215 -38.5t162 -105.5t110.5 -160t64.5 -199
t20 -226q0 -121 -20.5 -228.5t-65 -201t-110.5 -161t-162 -106t-214 -38.5zM696 109q89 0 161.5 34t121.5 91.5t82 135.5t48 164.5t15 180.5q0 93 -15 178.5t-48 163t-82 134.5t-121.5 90.5t-161.5 33.5q-113 0 -198 -50.5t-134 -137t-72.5 -190t-23.5 -222.5
q0 -120 23.5 -224.5t72.5 -192t134 -138.5t198 -51z" />
    <glyph glyph-name="Otilde" unicode="&#xd5;" horiz-adv-x="1390" 
d="M412 1542q-21 26 -21 70q0 62 44 104.5t122 42.5q45 0 84 -18.5t61 -41t51.5 -41t59.5 -18.5q42 0 63 41.5t21 85.5h78q14 -20 14 -63q0 -75 -49.5 -125.5t-122.5 -50.5q-38 0 -70.5 12.5t-54.5 30t-41 34.5t-41.5 29.5t-46.5 12.5q-41 0 -60.5 -33t-19.5 -72h-71z
M696 -20q-117 0 -213 38.5t-162 106t-111.5 161t-66 201t-20.5 228.5q0 151 34 279.5t101.5 230.5t179.5 160.5t258 58.5q119 0 215 -38.5t162 -105.5t110.5 -160t64.5 -199t20 -226q0 -121 -20.5 -228.5t-65 -201t-110.5 -161t-162 -106t-214 -38.5zM696 109q89 0 161.5 34
t121.5 91.5t82 135.5t48 164.5t15 180.5q0 93 -15 178.5t-48 163t-82 134.5t-121.5 90.5t-161.5 33.5q-113 0 -198 -50.5t-134 -137t-72.5 -190t-23.5 -222.5q0 -120 23.5 -224.5t72.5 -192t134 -138.5t198 -51z" />
    <glyph glyph-name="Odieresis" unicode="&#xd6;" horiz-adv-x="1390" 
d="M905 1518q-44 0 -76 32t-32 76q0 45 32 78t76 33t76.5 -33.5t32.5 -77.5t-32.5 -76t-76.5 -32zM479 1518q-44 0 -76 32t-32 76q0 45 32 78t76 33t76.5 -33.5t32.5 -77.5t-32.5 -76t-76.5 -32zM696 -20q-117 0 -213 38.5t-162 106t-111.5 161t-66 201t-20.5 228.5
q0 151 34 279.5t101.5 230.5t179.5 160.5t258 58.5q119 0 215 -38.5t162 -105.5t110.5 -160t64.5 -199t20 -226q0 -121 -20.5 -228.5t-65 -201t-110.5 -161t-162 -106t-214 -38.5zM696 109q89 0 161.5 34t121.5 91.5t82 135.5t48 164.5t15 180.5q0 93 -15 178.5t-48 163
t-82 134.5t-121.5 90.5t-161.5 33.5q-113 0 -198 -50.5t-134 -137t-72.5 -190t-23.5 -222.5q0 -120 23.5 -224.5t72.5 -192t134 -138.5t198 -51z" />
    <glyph glyph-name="multiply" unicode="&#xd7;" horiz-adv-x="1085" 
d="M768 319l-223 226l-228 -228l-90 93l226 225l-226 225l90 92l228 -225l223 223l92 -90l-225 -225l225 -225z" />
    <glyph glyph-name="Ugrave" unicode="&#xd9;" horiz-adv-x="1372" 
d="M688 1518l-295 233h152q81 0 133 -61l143 -172h-133zM686 -20q-70 0 -140 16t-144.5 57.5t-130.5 105t-92 167.5t-36 235v873h140v-856q0 -111 26 -197t66.5 -136t96 -82t107 -43t107.5 -11q46 0 89.5 8t90.5 27t86 54.5t70.5 85.5t49.5 125.5t18 168.5v856h139v-873
q0 -131 -36 -235t-92 -167.5t-130.5 -105t-144.5 -57.5t-140 -16z" />
    <glyph glyph-name="Uacute" unicode="&#xda;" horiz-adv-x="1372" 
d="M512 1511l283 224h258l-377 -224h-164zM686 -20q-70 0 -140 16t-144.5 57.5t-130.5 105t-92 167.5t-36 235v873h140v-856q0 -111 26 -197t66.5 -136t96 -82t107 -43t107.5 -11q46 0 89.5 8t90.5 27t86 54.5t70.5 85.5t49.5 125.5t18 168.5v856h139v-873q0 -131 -36 -235
t-92 -167.5t-130.5 -105t-144.5 -57.5t-140 -16z" />
    <glyph glyph-name="Ucircumflex" unicode="&#xdb;" horiz-adv-x="1372" 
d="M827 1511l-137 129l-147 -129h-168l260 226h57q28 0 45.5 -6.5t40.5 -26.5l219 -193h-170zM686 -20q-70 0 -140 16t-144.5 57.5t-130.5 105t-92 167.5t-36 235v873h140v-856q0 -111 26 -197t66.5 -136t96 -82t107 -43t107.5 -11q46 0 89.5 8t90.5 27t86 54.5t70.5 85.5
t49.5 125.5t18 168.5v856h139v-873q0 -131 -36 -235t-92 -167.5t-130.5 -105t-144.5 -57.5t-140 -16z" />
    <glyph glyph-name="Udieresis" unicode="&#xdc;" horiz-adv-x="1372" 
d="M895 1518q-44 0 -76.5 32t-32.5 76t32.5 77.5t76.5 33.5t76.5 -33.5t32.5 -77.5t-32.5 -76t-76.5 -32zM469 1518q-44 0 -76.5 32t-32.5 76t32.5 77.5t76.5 33.5t76.5 -33.5t32.5 -77.5t-32.5 -76t-76.5 -32zM686 -20q-70 0 -140 16t-144.5 57.5t-130.5 105t-92 167.5
t-36 235v873h140v-856q0 -111 26 -197t66.5 -136t96 -82t107 -43t107.5 -11q46 0 89.5 8t90.5 27t86 54.5t70.5 85.5t49.5 125.5t18 168.5v856h139v-873q0 -131 -36 -235t-92 -167.5t-130.5 -105t-144.5 -57.5t-140 -16z" />
    <glyph glyph-name="germandbls" unicode="&#xdf;" horiz-adv-x="1134" 
d="M735 -20q-60 0 -132.5 15t-121.5 36l35 123q111 -48 219 -48q121 0 177.5 48t56.5 116q0 67 -38 109t-134 92l-174 92q-146 76 -146 215q0 68 37 126.5t98 101.5l121 84q51 36 77 73t26 88q0 71 -64 119.5t-166 48.5q-137 0 -213 -84.5t-76 -232.5v-1102h-143v1106
q0 208 123 324t309 116q169 0 268 -85.5t99 -200.5q0 -83 -40 -146t-118 -117l-119 -82q-82 -59 -82 -129q0 -77 93 -124l167 -84q124 -62 178 -131.5t54 -170.5q0 -56 -20.5 -106.5t-62.5 -94t-116 -69.5t-172 -26z" />
    <glyph glyph-name="agrave" unicode="&#xe0;" horiz-adv-x="1060" 
d="M532 1161l-251 248h120q77 0 127 -66l134 -182h-130zM512 104q72 0 145.5 36t112.5 93v7q0 130 -75 209t-203 79q-101 0 -168.5 -59.5t-67.5 -153.5t70 -152.5t186 -58.5zM788 0l-10 106q-39 -51 -120.5 -88.5t-184.5 -37.5q-155 0 -259.5 91t-104.5 238q0 152 106 245
t258 93q110 0 185 -41.5t110 -107.5v141q0 61 -12.5 108t-42 86t-83 59.5t-130.5 20.5q-135 0 -267 -53l-36 129q145 55 303 55q220 0 315.5 -98.5t95.5 -279.5v-666h-123z" />
    <glyph glyph-name="aacute" unicode="&#xe1;" horiz-adv-x="1060" 
d="M412 1161l233 248h201l-301 -248h-133zM512 104q72 0 145.5 36t112.5 93v7q0 130 -75 209t-203 79q-101 0 -168.5 -59.5t-67.5 -153.5t70 -152.5t186 -58.5zM788 0l-10 106q-39 -51 -120.5 -88.5t-184.5 -37.5q-155 0 -259.5 91t-104.5 238q0 152 106 245t258 93
q110 0 185 -41.5t110 -107.5v141q0 61 -12.5 108t-42 86t-83 59.5t-130.5 20.5q-135 0 -267 -53l-36 129q145 55 303 55q220 0 315.5 -98.5t95.5 -279.5v-666h-123z" />
    <glyph glyph-name="acircumflex" unicode="&#xe2;" horiz-adv-x="1060" 
d="M653 1161l-112 154l-119 -154h-154l213 248h74q33 0 51.5 -10t40.5 -39l162 -199h-156zM512 104q72 0 145.5 36t112.5 93v7q0 130 -75 209t-203 79q-101 0 -168.5 -59.5t-67.5 -153.5t70 -152.5t186 -58.5zM788 0l-10 106q-39 -51 -120.5 -88.5t-184.5 -37.5
q-155 0 -259.5 91t-104.5 238q0 152 106 245t258 93q110 0 185 -41.5t110 -107.5v141q0 61 -12.5 108t-42 86t-83 59.5t-130.5 20.5q-135 0 -267 -53l-36 129q145 55 303 55q220 0 315.5 -98.5t95.5 -279.5v-666h-123z" />
    <glyph glyph-name="atilde" unicode="&#xe3;" horiz-adv-x="1060" 
d="M276 1171q-20 25 -20 72q0 68 42 114t116 46q35 0 65 -13.5t50.5 -32.5t39 -37.5t40 -32t44.5 -13.5q38 0 57 45.5t19 93.5h78q14 -28 14 -67q0 -82 -47 -136.5t-117 -54.5q-36 0 -66.5 13.5t-50.5 32.5t-38 37.5t-39 32t-43 13.5q-37 0 -54.5 -35.5t-17.5 -77.5h-72z
M512 104q72 0 145.5 36t112.5 93v7q0 130 -75 209t-203 79q-101 0 -168.5 -59.5t-67.5 -153.5t70 -152.5t186 -58.5zM788 0l-10 106q-39 -51 -120.5 -88.5t-184.5 -37.5q-155 0 -259.5 91t-104.5 238q0 152 106 245t258 93q110 0 185 -41.5t110 -107.5v141q0 61 -12.5 108
t-42 86t-83 59.5t-130.5 20.5q-135 0 -267 -53l-36 129q145 55 303 55q220 0 315.5 -98.5t95.5 -279.5v-666h-123z" />
    <glyph glyph-name="adieresis" unicode="&#xe4;" horiz-adv-x="1060" 
d="M735 1190q-44 0 -76 32t-32 76q0 45 32 78t76 33t76.5 -33.5t32.5 -77.5t-32.5 -76t-76.5 -32zM354 1190q-44 0 -76 32t-32 76q0 45 32 78t76 33t76.5 -33.5t32.5 -77.5t-32.5 -76t-76.5 -32zM512 104q72 0 145.5 36t112.5 93v7q0 130 -75 209t-203 79
q-101 0 -168.5 -59.5t-67.5 -153.5t70 -152.5t186 -58.5zM788 0l-10 106q-39 -51 -120.5 -88.5t-184.5 -37.5q-155 0 -259.5 91t-104.5 238q0 152 106 245t258 93q110 0 185 -41.5t110 -107.5v141q0 61 -12.5 108t-42 86t-83 59.5t-130.5 20.5q-135 0 -267 -53l-36 129
q145 55 303 55q220 0 315.5 -98.5t95.5 -279.5v-666h-123z" />
    <glyph glyph-name="ae" unicode="&#xe6;" horiz-adv-x="1716" 
d="M922 596h542v10q0 62 -13.5 115.5t-42.5 99t-80.5 71.5t-121.5 26t-123 -24.5t-85.5 -70t-51 -101.5t-24.5 -126zM477 -20q-155 0 -259.5 91t-104.5 238q0 152 106 245t258 93q189 0 295 -88v80q0 61 -12.5 108t-42 86t-83 59.5t-130.5 20.5q-134 0 -266 -53l-37 129
q145 55 303 55q279 0 368 -172q119 172 334 172q108 0 187.5 -38t125.5 -106t67.5 -154t21.5 -191v-78h-686q0 -15 6 -69q22 -136 101 -219t224 -83q170 0 283 58l45 -113q-78 -38 -153.5 -54.5t-176.5 -16.5q-255 0 -377 182q-57 -74 -162 -128t-235 -54zM516 104
q89 0 177 53t118 132q-18 56 -25 94q-91 145 -290 145q-101 0 -168.5 -59.5t-67.5 -153.5t70 -152.5t186 -58.5z" />
    <glyph glyph-name="ccedilla" unicode="&#xe7;" horiz-adv-x="913" 
d="M530 -489q-49 0 -95 10.5t-76 25.5t-53 30t-34 25l-10 11l49 94q3 -4 9.5 -10t28 -22t45 -28t60 -22t74.5 -10q68 0 104 27.5t36 74.5q0 42 -34 68.5t-81 26.5q-37 0 -69 -14t-45 -28l-13 -14l-80 25l117 211q-116 27 -196 105t-116 183t-36 232q0 109 28 203t83.5 168.5
t147.5 117.5t210 43q156 0 266 -51l-41 -116q-105 41 -227 41q-69 0 -125 -22.5t-92.5 -61t-61 -91t-35 -110t-10.5 -121.5t10.5 -121.5t35 -110t61 -91t92.5 -61t125 -22.5q133 0 233 41l37 -114q-127 -53 -268 -53h-11l-49 -91q37 13 76 13q79 0 138 -44.5t59 -131.5
q0 -99 -73 -157t-194 -58z" />
    <glyph glyph-name="egrave" unicode="&#xe8;" horiz-adv-x="1050" 
d="M528 1161l-252 248h121q77 0 127 -66l133 -182h-129zM545 918q-90 0 -152.5 -46t-91.5 -115t-39 -161h541v10q0 62 -13.5 115.5t-42.5 99t-80.5 71.5t-121.5 26zM920 51q-78 -38 -153.5 -54.5t-176.5 -16.5q-121 0 -214 43t-149 117.5t-84 168.5t-28 203t26.5 203
t77.5 168.5t135 117.5t191 43q87 0 155.5 -25t114 -69t75.5 -106.5t43 -133.5t13 -155v-78h-688q4 -75 23.5 -138.5t57.5 -117.5t102.5 -84.5t150.5 -30.5q169 0 282 58z" />
    <glyph glyph-name="eacute" unicode="&#xe9;" horiz-adv-x="1050" 
d="M408 1161l233 248h201l-301 -248h-133zM545 918q-90 0 -152.5 -46t-91.5 -115t-39 -161h541v10q0 62 -13.5 115.5t-42.5 99t-80.5 71.5t-121.5 26zM920 51q-78 -38 -153.5 -54.5t-176.5 -16.5q-121 0 -214 43t-149 117.5t-84 168.5t-28 203t26.5 203t77.5 168.5
t135 117.5t191 43q87 0 155.5 -25t114 -69t75.5 -106.5t43 -133.5t13 -155v-78h-688q4 -75 23.5 -138.5t57.5 -117.5t102.5 -84.5t150.5 -30.5q169 0 282 58z" />
    <glyph glyph-name="ecircumflex" unicode="&#xea;" horiz-adv-x="1050" 
d="M649 1161l-112 154l-119 -154h-154l213 248h74q33 0 51.5 -10t40.5 -39l162 -199h-156zM545 918q-90 0 -152.5 -46t-91.5 -115t-39 -161h541v10q0 62 -13.5 115.5t-42.5 99t-80.5 71.5t-121.5 26zM920 51q-78 -38 -153.5 -54.5t-176.5 -16.5q-121 0 -214 43t-149 117.5
t-84 168.5t-28 203t26.5 203t77.5 168.5t135 117.5t191 43q87 0 155.5 -25t114 -69t75.5 -106.5t43 -133.5t13 -155v-78h-688q4 -75 23.5 -138.5t57.5 -117.5t102.5 -84.5t150.5 -30.5q169 0 282 58z" />
    <glyph glyph-name="edieresis" unicode="&#xeb;" horiz-adv-x="1050" 
d="M731 1190q-44 0 -76 32t-32 76q0 45 32 78t76 33t76.5 -33.5t32.5 -77.5t-32.5 -76t-76.5 -32zM350 1190q-44 0 -76 32t-32 76q0 45 32 78t76 33t76.5 -33.5t32.5 -77.5t-32.5 -76t-76.5 -32zM545 918q-90 0 -152.5 -46t-91.5 -115t-39 -161h541v10q0 62 -13.5 115.5
t-42.5 99t-80.5 71.5t-121.5 26zM920 51q-78 -38 -153.5 -54.5t-176.5 -16.5q-121 0 -214 43t-149 117.5t-84 168.5t-28 203t26.5 203t77.5 168.5t135 117.5t191 43q87 0 155.5 -25t114 -69t75.5 -106.5t43 -133.5t13 -155v-78h-688q4 -75 23.5 -138.5t57.5 -117.5
t102.5 -84.5t150.5 -30.5q169 0 282 58z" />
    <glyph glyph-name="igrave" unicode="&#xec;" horiz-adv-x="495" 
d="M86 1411h121q69 0 84 -63l47 -187h-109zM180 0v1024h144v-1024h-144z" />
    <glyph glyph-name="iacute" unicode="&#xed;" horiz-adv-x="495" 
d="M176 1161l150 248h174l-201 -248h-123zM180 0v1024h144v-1024h-144z" />
    <glyph glyph-name="icircumflex" unicode="&#xee;" horiz-adv-x="495" 
d="M352 1161l-102 144l-105 -144h-145l188 250h70q33 0 51.5 -10t36.5 -35l148 -205h-142zM180 0v1024h144v-1024h-144z" />
    <glyph glyph-name="idieresis" unicode="&#xef;" horiz-adv-x="495" 
d="M424 1190q-44 0 -76.5 32t-32.5 76t32.5 77.5t76.5 33.5t76 -33t32 -78q0 -44 -32 -76t-76 -32zM80 1190q-44 0 -76.5 32t-32.5 76t32.5 77.5t76.5 33.5t76 -33t32 -78q0 -44 -32 -76t-76 -32zM180 0v1024h144v-1024h-144z" />
    <glyph glyph-name="ntilde" unicode="&#xf1;" horiz-adv-x="1101" 
d="M297 1171q-21 26 -21 72q0 68 42 114t116 46q35 0 65 -13.5t50.5 -32.5t39.5 -37.5t40.5 -32t44.5 -13.5q38 0 57 45.5t19 93.5h77q15 -30 15 -67q0 -82 -47 -136.5t-117 -54.5q-44 0 -80.5 20t-57 44.5t-47 44.5t-53.5 20q-37 0 -54 -35.5t-17 -77.5h-72zM303 637v-637
h-143v1024h67q22 0 33.5 -9t15.5 -30l17 -88q43 70 124.5 108.5t162.5 38.5q179 0 275.5 -101t96.5 -284v-659h-143v637q0 147 -66.5 214t-181.5 67q-47 0 -90.5 -15.5t-82 -47t-62 -88t-23.5 -130.5z" />
    <glyph glyph-name="ograve" unicode="&#xf2;" horiz-adv-x="1089" 
d="M547 1161l-252 248h121q77 0 127 -66l133 -182h-129zM545 -20q-107 0 -191 43t-135 117.5t-77.5 168.5t-26.5 203t26.5 203t77.5 168.5t135 117.5t191 43q109 0 193 -43t135 -117.5t76.5 -168.5t25.5 -203t-26 -203t-77 -168.5t-135 -117.5t-192 -43zM545 106
q77 0 134.5 34t89.5 93t47 128.5t15 150.5t-15 150.5t-47 128.5t-89.5 93t-134.5 34q-79 0 -137 -34t-89.5 -93t-46 -128t-14.5 -151t14.5 -151t46 -128t89.5 -93t137 -34z" />
    <glyph glyph-name="oacute" unicode="&#xf3;" horiz-adv-x="1089" 
d="M426 1161l233 248h201l-301 -248h-133zM545 -20q-107 0 -191 43t-135 117.5t-77.5 168.5t-26.5 203t26.5 203t77.5 168.5t135 117.5t191 43q109 0 193 -43t135 -117.5t76.5 -168.5t25.5 -203t-26 -203t-77 -168.5t-135 -117.5t-192 -43zM545 106q77 0 134.5 34t89.5 93
t47 128.5t15 150.5t-15 150.5t-47 128.5t-89.5 93t-134.5 34q-79 0 -137 -34t-89.5 -93t-46 -128t-14.5 -151t14.5 -151t46 -128t89.5 -93t137 -34z" />
    <glyph glyph-name="ocircumflex" unicode="&#xf4;" horiz-adv-x="1089" 
d="M668 1161l-113 154l-119 -154h-153l213 248h73q33 0 52 -10.5t41 -38.5l161 -199h-155zM545 -20q-107 0 -191 43t-135 117.5t-77.5 168.5t-26.5 203t26.5 203t77.5 168.5t135 117.5t191 43q109 0 193 -43t135 -117.5t76.5 -168.5t25.5 -203t-26 -203t-77 -168.5
t-135 -117.5t-192 -43zM545 106q77 0 134.5 34t89.5 93t47 128.5t15 150.5t-15 150.5t-47 128.5t-89.5 93t-134.5 34q-79 0 -137 -34t-89.5 -93t-46 -128t-14.5 -151t14.5 -151t46 -128t89.5 -93t137 -34z" />
    <glyph glyph-name="otilde" unicode="&#xf5;" horiz-adv-x="1089" 
d="M291 1171q-21 26 -21 72q0 68 42 114t116 46q35 0 65 -13.5t50.5 -32.5t39.5 -37.5t40.5 -32t44.5 -13.5q38 0 56.5 45.5t18.5 93.5h78q15 -30 15 -67q0 -82 -47 -136.5t-117 -54.5q-44 0 -80.5 20t-57 44.5t-47 44.5t-53.5 20q-37 0 -54.5 -35.5t-17.5 -77.5h-71z
M545 -20q-107 0 -191 43t-135 117.5t-77.5 168.5t-26.5 203t26.5 203t77.5 168.5t135 117.5t191 43q109 0 193 -43t135 -117.5t76.5 -168.5t25.5 -203t-26 -203t-77 -168.5t-135 -117.5t-192 -43zM545 106q77 0 134.5 34t89.5 93t47 128.5t15 150.5t-15 150.5t-47 128.5
t-89.5 93t-134.5 34q-79 0 -137 -34t-89.5 -93t-46 -128t-14.5 -151t14.5 -151t46 -128t89.5 -93t137 -34z" />
    <glyph glyph-name="odieresis" unicode="&#xf6;" horiz-adv-x="1089" 
d="M750 1190q-44 0 -76.5 32t-32.5 76t32.5 77.5t76.5 33.5t76 -33t32 -78q0 -44 -32 -76t-76 -32zM369 1190q-44 0 -76.5 32t-32.5 76t32.5 77.5t76.5 33.5t76 -33t32 -78q0 -44 -32 -76t-76 -32zM545 -20q-107 0 -191 43t-135 117.5t-77.5 168.5t-26.5 203t26.5 203
t77.5 168.5t135 117.5t191 43q109 0 193 -43t135 -117.5t76.5 -168.5t25.5 -203t-26 -203t-77 -168.5t-135 -117.5t-192 -43zM545 106q77 0 134.5 34t89.5 93t47 128.5t15 150.5t-15 150.5t-47 128.5t-89.5 93t-134.5 34q-79 0 -137 -34t-89.5 -93t-46 -128t-14.5 -151
t14.5 -151t46 -128t89.5 -93t137 -34z" />
    <glyph glyph-name="divide" unicode="&#xf7;" horiz-adv-x="1085" 
d="M543 834q-48 0 -83.5 34.5t-35.5 81.5q0 49 35.5 84t83.5 35q49 0 84 -34.5t35 -84.5q0 -47 -35 -81.5t-84 -34.5zM160 569v129h766v-129h-766zM543 199q-48 0 -83.5 34.5t-35.5 81.5q0 49 35.5 84t83.5 35q49 0 84 -35t35 -84q0 -47 -35 -81.5t-84 -34.5z" />
    <glyph glyph-name="ugrave" unicode="&#xf9;" horiz-adv-x="1101" 
d="M543 1161l-252 248h121q77 0 127 -66l133 -182h-129zM823 0l-14 125q-43 -68 -125 -106.5t-162 -38.5q-179 0 -275.5 101t-96.5 284v659h143v-637q0 -147 67 -214t181 -67q47 0 91 15.5t82.5 47t61.5 88t23 130.5v637h143v-1024h-119z" />
    <glyph glyph-name="uacute" unicode="&#xfa;" horiz-adv-x="1101" 
d="M422 1161l233 248h201l-301 -248h-133zM823 0l-14 125q-43 -68 -125 -106.5t-162 -38.5q-179 0 -275.5 101t-96.5 284v659h143v-637q0 -147 67 -214t181 -67q47 0 91 15.5t82.5 47t61.5 88t23 130.5v637h143v-1024h-119z" />
    <glyph glyph-name="ucircumflex" unicode="&#xfb;" horiz-adv-x="1101" 
d="M664 1161l-113 154l-119 -154h-153l213 248h73q33 0 51.5 -10t40.5 -39l162 -199h-155zM823 0l-14 125q-43 -68 -125 -106.5t-162 -38.5q-179 0 -275.5 101t-96.5 284v659h143v-637q0 -147 67 -214t181 -67q47 0 91 15.5t82.5 47t61.5 88t23 130.5v637h143v-1024h-119z
" />
    <glyph glyph-name="udieresis" unicode="&#xfc;" horiz-adv-x="1101" 
d="M745 1190q-44 0 -76 32t-32 76q0 45 32 78t76 33t76.5 -33.5t32.5 -77.5t-32.5 -76t-76.5 -32zM365 1190q-44 0 -76.5 32t-32.5 76t32.5 77.5t76.5 33.5t76 -33t32 -78q0 -44 -32 -76t-76 -32zM823 0l-14 125q-43 -68 -125 -106.5t-162 -38.5q-179 0 -275.5 101
t-96.5 284v659h143v-637q0 -147 67 -214t181 -67q47 0 91 15.5t82.5 47t61.5 88t23 130.5v637h143v-1024h-119z" />
    <glyph glyph-name="ydieresis" unicode="&#xff;" horiz-adv-x="1081" 
d="M745 1190q-44 0 -76 32t-32 76q0 45 32 78t76 33t76.5 -33.5t32.5 -77.5t-32.5 -76t-76.5 -32zM365 1190q-44 0 -76.5 32t-32.5 76t32.5 77.5t76.5 33.5t76 -33t32 -78q0 -44 -32 -76t-76 -32zM522 -520q-81 0 -165 23t-150 65l43 119q69 -38 129 -58t143 -20
q75 0 128 22t81.5 63.5t40.5 91t12 114.5v219q-43 -67 -119.5 -103t-152.5 -36q-174 0 -268 101t-94 284v659h143v-637q0 -147 64 -214t173 -67q46 0 88 15.5t79 47t59 88t22 130.5v637h144v-1143q0 -401 -400 -401z" />
    <glyph glyph-name="dotlessi" unicode="&#x131;" horiz-adv-x="503" 
d="M180 0v1024h144v-1024h-144z" />
    <glyph glyph-name="IJ" unicode="&#x132;" horiz-adv-x="1406" 
d="M195 0v1434h143v-1434h-143zM864 -20q-180 0 -307 133l90 96q97 -100 215 -100q37 0 70.5 8.5t69.5 32.5t62 62t43 102t17 147v973h140v-985q0 -105 -26.5 -188.5t-67.5 -135t-95.5 -85.5t-106.5 -47t-104 -13z" />
    <glyph glyph-name="ij" unicode="&#x133;" horiz-adv-x="993" 
d="M745 1188q-46 0 -78 32t-32 78q0 45 32.5 78t77.5 33t78 -33t33 -78q0 -46 -32.5 -78t-78.5 -32zM248 1188q-46 0 -78.5 32t-32.5 78q0 45 33 78t78 33t77.5 -33t32.5 -78q0 -46 -32 -78t-78 -32zM176 0v1024h143v-1024h-143zM504 -518q-73 0 -131 22l24 113
q40 -16 88 -16q95 0 142 54.5t47 178.5v1190h143v-1200q0 -93 -25.5 -161.5t-70 -107t-98.5 -56t-119 -17.5z" />
    <glyph glyph-name="Ldot" unicode="&#x13f;" horiz-adv-x="1024" 
d="M154 0v1434h139v-1305h649v-129h-788zM782 623q-46 0 -78 31t-32 77t32 78.5t78 32.5t78.5 -32.5t32.5 -78.5q0 -45 -32.5 -76.5t-78.5 -31.5z" />
    <glyph glyph-name="ldot" unicode="&#x140;" horiz-adv-x="876" 
d="M379 -12q-92 0 -150.5 46t-58.5 146v1356h143v-1352q0 -78 84 -78q43 0 68 17l24 -113q-43 -22 -110 -22zM694 485q-46 0 -78 31.5t-32 77.5t32 78.5t78 32.5t78.5 -32.5t32.5 -78.5t-32.5 -77.5t-78.5 -31.5z" />
    <glyph glyph-name="OE" unicode="&#x152;" horiz-adv-x="1716" 
d="M844 0q-182 0 -323 57t-226.5 157t-128.5 226.5t-43 274.5q0 118 26.5 223t83.5 196.5t140 157.5t203.5 104t267.5 38h749v-129h-610v-492h539v-129h-539v-555h610v-129h-749zM844 129v1176q-122 0 -220 -32.5t-163.5 -87.5t-109.5 -131.5t-63.5 -160.5t-19.5 -178
q0 -93 19.5 -176.5t63.5 -159.5t109.5 -130.5t163.5 -87t220 -32.5z" />
    <glyph glyph-name="oe" unicode="&#x153;" horiz-adv-x="1777" 
d="M549 -20q-107 0 -191 43t-135 117.5t-77.5 168.5t-26.5 203t26.5 203t77.5 168.5t135 117.5t191 43q246 0 360 -213q53 100 144 156.5t215 56.5q87 0 155.5 -25t114 -69t75.5 -106.5t43 -133.5t13 -155v-78h-686q0 -17 4 -57q19 -139 99 -226.5t229 -87.5q169 0 282 58
l45 -113q-78 -38 -153 -54.5t-176 -16.5q-278 0 -402 219q-114 -219 -362 -219zM983 594h543v12q0 62 -13.5 115.5t-42.5 99t-80.5 71.5t-121.5 26t-123.5 -26t-86 -72t-51 -102t-24.5 -124zM549 106q77 0 135 34t90 93t47 128.5t15 150.5t-15 150.5t-47 128.5t-90 93
t-135 34q-79 0 -137 -34t-89.5 -93t-46 -128t-14.5 -151t14.5 -151t46 -128t89.5 -93t137 -34z" />
    <glyph glyph-name="Ydieresis" unicode="&#x178;" horiz-adv-x="1163" 
d="M801 1518q-44 0 -76.5 32t-32.5 76t32.5 77.5t76.5 33.5t76 -33t32 -78q0 -44 -32 -76t-76 -32zM375 1518q-44 0 -76.5 32t-32.5 76t32.5 77.5t76.5 33.5t76 -33t32 -78q0 -44 -32 -76t-76 -32zM500 0v483l-469 951h86q67 0 100 -68l354 -729l408 797h154l-490 -951v-483
h-143z" />
    <glyph glyph-name="uni0192" unicode="&#x192;" horiz-adv-x="948" 
d="M-45 -504q-72 0 -129 23l37 114q37 -16 86 -16q95 0 147.5 54.5t65.5 178.5l104 949h-235l14 112h229l17 154q19 182 129.5 280.5t314.5 98.5q102 0 193 -25l-39 -119q-83 17 -166 17q-122 0 -199 -61t-90 -191l-16 -154h352l-14 -112h-350l-107 -973
q-10 -90 -41.5 -156.5t-79.5 -103t-103 -53.5t-120 -17z" />
    <glyph glyph-name="gravecomb" unicode="&#x300;" horiz-adv-x="776" 
d="M412 1161l-252 248h121q77 0 127 -66l133 -182h-129z" />
    <glyph glyph-name="acutecomb" unicode="&#x301;" horiz-adv-x="821" 
d="M236 1161l233 248h201l-301 -248h-133z" />
    <glyph glyph-name="circumflexcomb" unicode="&#x302;" horiz-adv-x="1110" 
d="M670 1161l-113 154l-119 -154h-153l213 248h73q33 0 52 -10.5t41 -38.5l161 -199h-155z" />
    <glyph glyph-name="tildecomb" unicode="&#x303;" horiz-adv-x="1079" 
d="M283 1171q-21 26 -21 72q0 68 42 114t116 46q35 0 65 -13.5t50.5 -32.5t39 -37.5t40 -32t44.5 -13.5q38 0 57 45.5t19 93.5h78q14 -28 14 -67q0 -82 -46.5 -136.5t-116.5 -54.5q-44 0 -80.5 20t-57 44.5t-47 44.5t-53.5 20q-37 0 -54.5 -35.5t-17.5 -77.5h-71z" />
    <glyph glyph-name="dieresiscomb" unicode="&#x308;" horiz-adv-x="1032" 
d="M686 1190q-44 0 -76 32t-32 76q0 45 32 78t76 33t76.5 -33.5t32.5 -77.5t-32.5 -76t-76.5 -32zM305 1190q-44 0 -76 32t-32 76q0 45 32 78t76 33t76.5 -33.5t32.5 -77.5t-32.5 -76t-76.5 -32z" />
    <glyph glyph-name="cedillacomb" unicode="&#x327;" horiz-adv-x="937" 
d="M467 -489q-49 0 -95 10.5t-76 25.5t-53 30t-33 25l-11 11l49 94q3 -4 9.5 -10t28 -22t45 -28t60 -22t74.5 -10q67 0 103 27.5t36 74.5q0 42 -34 68.5t-81 26.5q-37 0 -69 -14t-45 -28l-13 -14l-79 25l143 258l102 -25l-67 -125q37 13 76 13q79 0 137.5 -44.5t58.5 -131.5
q0 -99 -72.5 -157t-193.5 -58z" />
    <glyph glyph-name="pi" unicode="&#x3c0;" horiz-adv-x="1419" 
d="M1178 10q-43 -22 -111 -22q-92 0 -150.5 46t-58.5 146v715h-323v-895h-144v895h-207v129h1051v-129h-234v-711q0 -78 84 -78q43 0 68 17z" />
    <glyph glyph-name="endash" unicode="&#x2013;" horiz-adv-x="1400" 
d="M184 502v129h1033v-129h-1033z" />
    <glyph glyph-name="emdash" unicode="&#x2014;" horiz-adv-x="2312" 
d="M348 502v129h1616v-129h-1616z" />
    <glyph glyph-name="quoteleft" unicode="&#x2018;" horiz-adv-x="479" 
d="M260 1004q-60 0 -91.5 38.5t-31.5 100.5q0 58 23.5 113t60.5 94t77 66t77 38l39 -51q-55 -35 -87 -84.5t-32 -106.5q0 -34 19 -64t46 -44q0 -40 -29.5 -70t-70.5 -30z" />
    <glyph glyph-name="quoteright" unicode="&#x2019;" horiz-adv-x="479" 
d="M104 993l-38 51q118 74 118 191q0 34 -19 64t-46 44q0 40 29.5 70.5t70.5 30.5q60 0 91.5 -39t31.5 -100q0 -58 -23.5 -113t-60.5 -94t-77 -66.5t-77 -38.5z" />
    <glyph glyph-name="quotesinglbase" unicode="&#x201a;" horiz-adv-x="518" 
d="M141 -336l-39 55q117 83 117 211q0 37 -18.5 70t-44.5 49q0 45 28.5 78t69.5 33q59 0 90 -43t31 -111q0 -123 -76 -218.5t-158 -123.5z" />
    <glyph glyph-name="quotedblleft" unicode="&#x201c;" horiz-adv-x="858" 
d="M610 1004q-59 0 -91 39t-32 100q0 58 24 113t61 94t77.5 66t77.5 38l37 -51q-55 -35 -87 -84.5t-32 -106.5q0 -34 19 -64t47 -44q0 -40 -29.5 -70t-71.5 -30zM289 1004q-60 0 -91.5 38.5t-31.5 100.5q0 58 23.5 113t60 94t76.5 66t77 38l39 -51q-118 -74 -118 -191
q0 -34 19 -64t46 -44q0 -40 -29.5 -70t-70.5 -30z" />
    <glyph glyph-name="quotedblright" unicode="&#x201d;" horiz-adv-x="858" 
d="M455 993l-39 51q55 35 87 84.5t32 106.5q0 34 -19 64t-47 44q0 40 29.5 70.5t70.5 30.5q60 0 91.5 -39t31.5 -100q0 -58 -23.5 -113t-60 -94t-76.5 -66.5t-77 -38.5zM133 993l-39 51q55 35 87 84.5t32 106.5q0 34 -19 64t-47 44q0 40 29.5 70.5t71.5 30.5q59 0 91 -39.5
t32 -99.5q0 -58 -24 -113t-61 -94t-77 -66.5t-76 -38.5z" />
    <glyph glyph-name="quotedblbase" unicode="&#x201e;" horiz-adv-x="897" 
d="M141 -336l-39 55q117 83 117 211q0 37 -18.5 70t-44.5 49q0 45 28.5 78t69.5 33q59 0 90 -43t31 -111q0 -123 -76 -218.5t-158 -123.5zM520 -336l-39 55q117 83 117 211q0 37 -18.5 70t-44.5 49q0 45 28.5 78t69.5 33q59 0 90 -43t31 -111q0 -123 -76 -218.5t-158 -123.5
z" />
    <glyph glyph-name="dagger" unicode="&#x2020;" horiz-adv-x="929" 
d="M414 0l-41 895h-312v129h310l18 246l21 71h96l22 -71l19 -246h321v-129h-323l-39 -895h-92z" />
    <glyph glyph-name="daggerdbl" unicode="&#x2021;" horiz-adv-x="929" 
d="M414 0l-21 72l-14 245h-318v129h320v449h-320v129h318l14 246l17 71h92l22 -71l15 -246h329v-129h-331v-449h331v-129h-329l-13 -245l-22 -72h-90z" />
    <glyph glyph-name="bullet" unicode="&#x2022;" horiz-adv-x="884" 
d="M442 401q-80 0 -138 57t-58 138q0 80 58.5 138.5t137.5 58.5q81 0 139 -58.5t58 -138.5q0 -82 -57.5 -138.5t-139.5 -56.5z" />
    <glyph glyph-name="ellipsis" unicode="&#x2026;" horiz-adv-x="1386" 
d="M303 -20q-50 0 -84.5 34.5t-34.5 83.5q0 50 35 85.5t84 35.5t84 -35.5t35 -85.5q0 -49 -34.5 -83.5t-84.5 -34.5zM1114 -20q-50 0 -84.5 34.5t-34.5 83.5q0 50 35 85.5t84 35.5t84 -35.5t35 -85.5q0 -49 -34.5 -83.5t-84.5 -34.5zM709 -20q-50 0 -84.5 34.5t-34.5 83.5
q0 50 35 85.5t84 35.5t83.5 -35.5t34.5 -85.5t-34.5 -84t-83.5 -34z" />
    <glyph glyph-name="guilsinglleft" unicode="&#x2039;" horiz-adv-x="724" 
d="M446 66l-344 409v14l344 410h177l-349 -416l349 -417h-177z" />
    <glyph glyph-name="guilsinglright" unicode="&#x203a;" horiz-adv-x="724" 
d="M102 66l349 417l-349 416h177l344 -410v-14l-344 -409h-177z" />
    <glyph glyph-name="fraction" unicode="&#x2044;" horiz-adv-x="1177" 
d="M16 0l990 1434h155l-989 -1434h-156z" />
    <glyph glyph-name="Euro" unicode="&#x20ac;" horiz-adv-x="1173" 
d="M920 23q-108 -43 -232 -43q-117 0 -211.5 39t-160 110t-107.5 165t-62 210h-151l43 129h94q-2 27 -2 84q0 55 2 82h-137l43 129h108q20 115 62 207.5t107.5 162.5t160 108t211.5 38q151 0 330 -88l-45 -117q-59 27 -85.5 37.5t-85.5 24.5t-118 14q-85 0 -153 -29
t-114 -82t-75.5 -121.5t-44.5 -154.5h561l-47 -129h-530q-2 -27 -2 -82q0 -57 2 -84h481l-43 -129h-424q16 -87 46 -157t76 -124.5t114 -84t153 -29.5q90 0 153.5 17t133.5 50z" />
    <glyph glyph-name="uni2116" unicode="&#x2116;" horiz-adv-x="2191" 
d="M1767 854q-83 0 -148 32.5t-104.5 88.5t-60 127t-20.5 153q0 110 34.5 198t111.5 145t187 57q84 0 149 -32.5t104 -89t59 -127t20 -151.5q0 -82 -20 -153t-59.5 -127t-104.5 -88.5t-148 -32.5zM1767 975q97 0 143 77.5t46 202.5q0 124 -46 201.5t-143 77.5
q-99 0 -144.5 -77t-45.5 -202q0 -126 45.5 -203t144.5 -77zM1073 63l-784 1100l4 -1163h-139v1440h45q57 0 96 -56l788 -1103l-4 1153h140v-1434h-39q-62 0 -107 63zM1495 569v121h539v-121h-539z" />
    <glyph glyph-name="uni2120" unicode="&#x2120;" horiz-adv-x="1024" 
d="M641 1110l-68 193l-61 -312h-90l90 453h82q14 0 20 -17l80 -227l90 244h76q21 0 27 -25l76 -428h-89l-57 309l-80 -217h-71q-17 0 -25 27zM182 989q-65 0 -131 27l12 86q64 -27 130 -27q47 0 68.5 14.5t21.5 34.5q0 45 -56 50l-59 6q-66 7 -98.5 39.5t-32.5 83.5
q0 55 46 98t136 43q64 0 125 -23l-14 -82q-56 21 -115 21q-90 0 -90 -53q0 -41 53 -47l60 -7q70 -7 103.5 -39t33.5 -79q0 -60 -47.5 -103t-145.5 -43z" />
    <glyph glyph-name="trademark" unicode="&#x2122;" horiz-adv-x="1028" 
d="M176 991v369l-125 8v76h346v-76l-125 -8v-369h-96zM645 1110l-67 193l-62 -312h-90l90 453h82q14 0 20 -17l80 -227l90 244h76q21 0 27 -25l76 -428h-88l-58 309l-80 -217h-71q-17 0 -25 27z" />
    <glyph glyph-name="uni2150" unicode="&#x2150;" horiz-adv-x="1710" 
d="M283 0l989 1434h155l-989 -1434h-155zM1356 0h-154q23 195 102.5 364.5t182.5 297.5h-387v126h528l6 -94q-58 -75 -111 -171t-102.5 -238.5t-64.5 -284.5zM606 647h-524v127h192v504l-182 -76v133l180 80q55 25 103 25h39v-666h192v-127z" />
    <glyph glyph-name="uni2151" unicode="&#x2151;" horiz-adv-x="1609" 
d="M264 0l989 1434h156l-989 -1434h-156zM606 647h-524v127h192v504l-182 -76v133l180 80q55 25 103 25h39v-666h192v-127zM1272 377q86 0 141 51v35q0 89 -37 147t-114 58q-64 0 -103 -41t-39 -103t39 -104.5t113 -42.5zM1227 -14q-67 0 -120 16t-81 39l31 117
q61 -47 174 -47q80 0 126.5 46.5t53.5 159.5q-67 -57 -170 -57q-125 0 -193.5 73.5t-68.5 186.5q0 118 79.5 196.5t205.5 78.5q136 0 213 -94.5t77 -256.5v-69q0 -109 -25.5 -187t-72.5 -121t-103 -62t-126 -19z" />
    <glyph glyph-name="onethird" unicode="&#x2153;" horiz-adv-x="1632" 
d="M262 0l989 1434h156l-989 -1434h-156zM606 647h-524v127h192v504l-182 -76v133l180 80q55 25 103 25h39v-666h192v-127zM1247 -14q-123 0 -213 39l43 118q72 -30 162 -30q85 0 122.5 34.5t37.5 85.5q0 117 -158 117h-84v115h82q63 0 98 30.5t35 77.5q0 46 -32 74.5
t-105 28.5q-61 0 -162 -33l-31 113q39 16 98.5 27.5t110.5 11.5q132 0 198.5 -55.5t66.5 -143.5q0 -58 -32.5 -109t-82.5 -73q63 -18 102 -67.5t39 -115.5q0 -109 -73 -177t-222 -68z" />
    <glyph glyph-name="twothirds" unicode="&#x2154;" horiz-adv-x="1613" 
d="M86 647v127q0 42 14 76t45 63.5t54 46.5t67 44l78 47q54 34 82.5 69.5t28.5 81.5q0 52 -41 85.5t-115 33.5q-90 0 -174 -43l-37 113q108 51 223 51q135 0 212 -63t77 -160q0 -83 -48.5 -143.5t-131.5 -112.5l-74 -43q-104 -65 -104 -121v-25h360v-127h-516zM240 0
l989 1434h155l-989 -1434h-155zM1229 -14q-123 0 -213 39l43 118q72 -30 162 -30q85 0 122 34.5t37 85.5q0 117 -157 117h-84v115h82q63 0 98 30.5t35 77.5q0 46 -32 74.5t-105 28.5q-61 0 -162 -33l-31 113q39 16 98.5 27.5t110.5 11.5q132 0 198 -55.5t66 -143.5
q0 -58 -32.5 -109t-82.5 -73q63 -18 102.5 -67.5t39.5 -115.5q0 -109 -73 -177t-222 -68z" />
    <glyph glyph-name="oneeighth" unicode="&#x215b;" horiz-adv-x="1622" 
d="M287 0l989 1434h156l-990 -1434h-155zM1278 -14q-128 0 -205.5 63t-77.5 168q0 65 36.5 115t105.5 74q-111 60 -111 178q0 92 70 151.5t182 59.5q113 0 183.5 -59.5t70.5 -149.5q0 -113 -107 -162q138 -60 138 -203q0 -107 -78.5 -171t-206.5 -64zM606 647h-524v127h192
v504l-182 -76v133l180 80q55 25 103 25h39v-666h192v-127zM1284 465l27 -6q82 37 82 114q0 49 -32 80t-83 31q-50 0 -81.5 -30.5t-31.5 -80.5q0 -87 119 -108zM1278 100q66 0 107.5 36t41.5 93q0 94 -120 121l-52 15q-59 -17 -92 -54t-33 -84q0 -55 41.5 -91t106.5 -36z" />
    <glyph glyph-name="arrowleft" unicode="&#x2190;" horiz-adv-x="1585" 
d="M823 432l-393 6l393 -393h-118q-51 0 -84 33l-416 418v4l416 415q33 33 84 33h118l-395 -393l395 6h598v-129h-598z" />
    <glyph glyph-name="arrowup" unicode="&#x2191;" horiz-adv-x="1312" 
d="M721 467v-467h-129v467l6 393l-393 -393v119q0 51 33 84l417 415h4l416 -415q33 -33 33 -84v-119l-393 395z" />
    <glyph glyph-name="arrowright" unicode="&#x2192;" horiz-adv-x="1585" 
d="M881 45h-119l393 393l-393 -6h-598v129h598l395 -6l-395 393h119q51 0 84 -33l415 -415v-4l-415 -418q-33 -33 -84 -33z" />
    <glyph glyph-name="arrowdown" unicode="&#x2193;" horiz-adv-x="1312" 
d="M659 -20h-4l-417 415q-33 33 -33 84v119l393 -393l-6 393v426h129v-426l-6 -395l393 395v-119q0 -51 -33 -84z" />
    <glyph glyph-name="arrowboth" unicode="&#x2194;" horiz-adv-x="2283" 
d="M705 45q-51 0 -84 33l-416 418v4l416 415q33 33 84 33h118l-395 -393l395 6h637l395 -6l-395 393h119q51 0 84 -33l416 -415v-4l-416 -418q-33 -33 -84 -33h-119l393 393l-393 -6h-637l-393 6l393 -393h-118z" />
    <glyph glyph-name="arrowupdn" unicode="&#x2195;" horiz-adv-x="1312" 
d="M653 -20l-415 288q-33 24 -33 84v78l393 -272l-6 291v167l6 289l-393 -270v78q0 61 33 84l417 288h4l416 -288q33 -21 33 -84v-78l-393 272l6 -291v-167l-6 -289l393 270v-78q0 -61 -33 -84l-418 -288h-4z" />
    <glyph glyph-name="arrowupleft" unicode="&#x2196;" horiz-adv-x="1349" 
d="M1227 92l-90 -92l-809 819v-635l-92 90q-31 27 -31 76v672l2 2h672q46 0 75 -29l90 -86h-643z" />
    <glyph glyph-name="arrowupright" unicode="&#x2197;" horiz-adv-x="1349" 
d="M1022 184v635l-809 -819l-90 92l825 817h-643l90 86q29 29 76 29h672l2 -2v-672q0 -49 -31 -76z" />
    <glyph glyph-name="arrowdownright" unicode="&#x2198;" horiz-adv-x="1349" 
d="M1143 0h-672q-47 0 -76 29l-90 86h643l-825 817l90 92l809 -819v635l92 -90q31 -27 31 -76v-672z" />
    <glyph glyph-name="arrowdownleft" unicode="&#x2199;" horiz-adv-x="1349" 
d="M879 0h-672l-2 2v672q0 49 31 76l92 90v-635l809 819l90 -92l-826 -817h643l-90 -86q-29 -29 -75 -29z" />
    <glyph glyph-name="minus" unicode="&#x2212;" horiz-adv-x="1085" 
d="M160 569v129h766v-129h-766z" />
    <glyph glyph-name="infinity" unicode="&#x221e;" horiz-adv-x="1581" 
d="M1184 299q97 0 161 65.5t64 155.5q0 92 -64 160t-161 68q-105 0 -226 -121l-88 -107l93 -102q33 -33 59.5 -55t72 -43t89.5 -21zM399 293q113 0 228 125l94 102l-103 107q-114 114 -219 114q-101 0 -162 -64.5t-61 -156.5q0 -93 61 -160t162 -67zM686 340
q-143 -143 -295 -143q-107 0 -183.5 46t-111.5 117.5t-35 159.5q0 133 85.5 223.5t244.5 90.5q82 0 157 -39.5t130 -94.5l113 -112l104 112q131 140 297 140q153 0 240.5 -93.5t87.5 -226.5q0 -136 -87 -226.5t-241 -90.5q-84 0 -160 41t-131 96l-108 109z" />
    <glyph glyph-name="notequal" unicode="&#x2260;" horiz-adv-x="1085" 
d="M926 403h-367l-49 -233h-129l49 233h-270v129h299l47 218h-346v129h372l50 227h129l-49 -227h264v-129h-291l-47 -218h338v-129z" />
    <glyph glyph-name="lessequal" unicode="&#x2264;" horiz-adv-x="1222" 
d="M1059 348l-895 346v137l895 345v-136l-733 -274l733 -277v-141zM1059 106l-895 347v137l895 -342v-142z" />
    <glyph glyph-name="greaterequal" unicode="&#x2265;" horiz-adv-x="1222" 
d="M164 348v141l733 277l-733 274v136l895 -345v-137zM164 106v142l895 342v-137z" />
    <glyph glyph-name="uni22A0" unicode="&#x22a0;" horiz-adv-x="1685" 
d="M133 0v1434h1419v-1434h-1419zM272 127h1141v1178h-1141v-1178zM1057 403l-223 226l-228 -228l-90 93l225 225l-225 225l90 92l228 -225l223 223l92 -90l-225 -225l225 -225z" />
    <glyph glyph-name="house" unicode="&#x2302;" horiz-adv-x="1701" 
d="M205 0v633l645 682l647 -682v-633h-1292z" />
    <glyph glyph-name="uni2460" unicode="&#x2460;" horiz-adv-x="1703" 
d="M852 -20q-148 0 -283.5 58t-233 156t-155 233.5t-57.5 283.5q0 149 57.5 284.5t155 233.5t233 156.5t283.5 58.5t283.5 -58.5t233 -156.5t155 -233.5t57.5 -284.5q0 -148 -57.5 -283.5t-155 -233.5t-233 -156t-283.5 -58zM600 362h524v127h-192v666h-39q-47 0 -102 -25
l-181 -79v-133l183 75v-504h-193v-127z" />
    <glyph glyph-name="uni2461" unicode="&#x2461;" horiz-adv-x="1703" 
d="M852 -20q-148 0 -283.5 58t-233 156t-155 233.5t-57.5 283.5q0 149 57.5 284.5t155 233.5t233 156.5t283.5 58.5t283.5 -58.5t233 -156.5t155 -233.5t57.5 -284.5q0 -148 -57.5 -283.5t-155 -233.5t-233 -156t-283.5 -58zM602 352h516v127h-360v25q0 56 104 121l74 43
q83 52 131.5 112.5t48.5 143.5q0 97 -77 160t-212 63q-115 0 -223 -51l37 -113q84 43 174 43q74 0 115 -33.5t41 -85.5q0 -46 -28.5 -81.5t-82.5 -69.5l-78 -47q-44 -27 -67 -44t-54 -46.5t-45 -63.5t-14 -76v-127z" />
    <glyph glyph-name="uni2462" unicode="&#x2462;" horiz-adv-x="1703" 
d="M852 -20q-148 0 -283.5 58t-233 156t-155 233.5t-57.5 283.5q0 149 57.5 284.5t155 233.5t233 156.5t283.5 58.5t283.5 -58.5t233 -156.5t155 -233.5t57.5 -284.5q0 -148 -57.5 -283.5t-155 -233.5t-233 -156t-283.5 -58zM981 743v5l6 -3q-1 0 -3 -1t-3 -1zM834 317
q149 0 221.5 68.5t72.5 177.5q0 68 -40 118t-101 64q51 25 83 75.5t32 107.5q0 88 -66 143t-198 55q-51 0 -110.5 -11.5t-98.5 -27.5l30 -112q101 33 162 33q73 0 105 -28.5t32 -74.5q0 -47 -35 -77.5t-98 -30.5h-82v-115h84q158 0 158 -117q0 -51 -37.5 -86t-122.5 -35
q-87 0 -161 31l-43 -119q90 -39 213 -39z" />
    <glyph glyph-name="uni2463" unicode="&#x2463;" horiz-adv-x="1703" 
d="M852 -20q-148 0 -283.5 58t-233 156t-155 233.5t-57.5 283.5q0 149 57.5 284.5t155 233.5t233 156.5t283.5 58.5t283.5 -58.5t233 -156.5t155 -233.5t57.5 -284.5q0 -148 -57.5 -283.5t-155 -233.5t-233 -156t-283.5 -58zM877 342h133v186h94v119h-94v483h-164l-322 -491
v-111h353v-186zM666 647l204 324v-324h-204z" />
    <glyph glyph-name="uni2464" unicode="&#x2464;" horiz-adv-x="1703" 
d="M852 -20q-148 0 -283.5 58t-233 156t-155 233.5t-57.5 283.5q0 149 57.5 284.5t155 233.5t233 156.5t283.5 58.5t283.5 -58.5t233 -156.5t155 -233.5t57.5 -284.5q0 -148 -57.5 -283.5t-155 -233.5t-233 -156t-283.5 -58zM786 299q156 0 247 80t91 217q0 120 -73 183
t-179 63q-44 0 -102 -15v148h324v127h-461v-379l74 -25q49 27 120 27q72 0 116 -37t44 -98q0 -78 -54 -121t-142 -43q-82 0 -150 33l-45 -121q73 -39 190 -39z" />
    <glyph glyph-name="uni2465" unicode="&#x2465;" horiz-adv-x="1703" 
d="M852 -20q-148 0 -283.5 58t-233 156t-155 233.5t-57.5 283.5q0 149 57.5 284.5t155 233.5t233 156.5t283.5 58.5t283.5 -58.5t233 -156.5t155 -233.5t57.5 -284.5q0 -148 -57.5 -283.5t-155 -233.5t-233 -156t-283.5 -58zM852 311q121 0 197.5 83.5t76.5 205.5
q0 101 -64 173.5t-179 72.5q-113 0 -189 -90q16 233 203 237q88 0 150 -32l26 120q-70 39 -174 39q-66 0 -125 -21.5t-110.5 -66.5t-82 -126.5t-30.5 -190.5v-29q0 -170 83 -272.5t218 -102.5zM848 438q-71 0 -113.5 59t-42.5 132v12q24 38 67.5 63t88.5 25q66 0 100.5 -43
t34.5 -100q0 -62 -37.5 -105t-97.5 -43z" />
    <glyph glyph-name="uni2466" unicode="&#x2466;" horiz-adv-x="1703" 
d="M852 -20q-148 0 -283.5 58t-233 156t-155 233.5t-57.5 283.5q0 149 57.5 284.5t155 233.5t233 156.5t283.5 58.5t283.5 -58.5t233 -156.5t155 -233.5t57.5 -284.5q0 -148 -57.5 -283.5t-155 -233.5t-233 -156t-283.5 -58zM694 291h154q15 142 64.5 284.5t102.5 238.5
t111 171l-6 94h-528v-127h387q-243 -302 -285 -661z" />
    <glyph glyph-name="uni2467" unicode="&#x2467;" horiz-adv-x="1703" 
d="M852 -20q-148 0 -283.5 58t-233 156t-155 233.5t-57.5 283.5q0 149 57.5 284.5t155 233.5t233 156.5t283.5 58.5t283.5 -58.5t233 -156.5t155 -233.5t57.5 -284.5q0 -148 -57.5 -283.5t-155 -233.5t-233 -156t-283.5 -58zM852 313q128 0 206.5 64.5t78.5 171.5
q0 143 -138 203q107 49 107 161q0 90 -70.5 149.5t-183.5 59.5q-112 0 -182 -59.5t-70 -151.5q0 -118 111 -178q-69 -24 -105.5 -74t-36.5 -114q0 -105 77.5 -168.5t205.5 -63.5zM885 786l-27 7q-119 21 -119 108q0 50 31.5 80.5t81.5 30.5q51 0 83 -31t32 -80
q0 -78 -82 -115zM852 428q-64 0 -105.5 35.5t-41.5 91.5q0 47 32.5 83.5t91.5 53.5l48 -12q124 -30 124 -123q0 -57 -41.5 -93t-107.5 -36z" />
    <glyph glyph-name="uni2468" unicode="&#x2468;" horiz-adv-x="1703" 
d="M852 -20q-148 0 -283.5 58t-233 156t-155 233.5t-57.5 283.5q0 149 57.5 284.5t155 233.5t233 156.5t283.5 58.5t283.5 -58.5t233 -156.5t155 -233.5t57.5 -284.5q0 -148 -57.5 -283.5t-155 -233.5t-233 -156t-283.5 -58zM864 700q-74 0 -112.5 43t-38.5 105t38.5 102.5
t102.5 40.5q77 0 114.5 -58t37.5 -147v-34q-56 -52 -142 -52zM819 309q70 0 126 19t103 62t73 121t26 187v70q0 162 -77.5 256t-213.5 94q-126 0 -205.5 -78t-79.5 -196q0 -113 69 -186.5t194 -73.5q103 0 170 57v-8q0 -107 -50 -153t-131 -46q-113 0 -174 47l-31 -116
q28 -23 81 -39.5t120 -16.5z" />
    <glyph glyph-name="uni24C5" unicode="&#x24c5;" horiz-adv-x="1869" 
d="M936 -53q-169 0 -319.5 63t-259 170.5t-171.5 258t-63 319.5t63 319.5t171.5 258t259 170.5t319.5 63q134 0 258.5 -40t224 -114t173.5 -173.5t114.5 -224t40.5 -259.5t-40.5 -259.5t-114.5 -224t-173.5 -173.5t-224 -114t-258.5 -40zM936 72q140 0 265 53t214.5 144.5
t142 218.5t52.5 270t-52.5 270t-142 218.5t-214.5 144.5t-265 53q-141 0 -266 -53t-215 -144.5t-142.5 -218.5t-52.5 -270t52.5 -270t142.5 -218.5t215 -144.5t266 -53zM932 727q79 0 134.5 19.5t83 53t39 68.5t11.5 76q0 154 -196 154h-218v-353q65 -18 146 -18zM930 608
q-71 0 -144 17v-316h-137v908h340q95 0 165.5 -22.5t109.5 -62t57 -86.5t18 -102q0 -68 -23.5 -127t-71 -106.5t-128.5 -75t-186 -27.5z" />
    <glyph glyph-name="uni24EA" unicode="&#x24ea;" horiz-adv-x="1703" 
d="M852 -20q-148 0 -283.5 58t-233 156t-155 233.5t-57.5 283.5q0 149 57.5 284.5t155 233.5t233 156.5t283.5 58.5t283.5 -58.5t233 -156.5t155 -233.5t57.5 -284.5q0 -148 -57.5 -283.5t-155 -233.5t-233 -156t-283.5 -58zM854 311q75 0 133 33t93.5 90t53 129t17.5 156
q0 65 -11 122.5t-34.5 108t-57.5 87.5t-84 58t-110 21q-74 0 -132 -32t-93 -87.5t-52.5 -126t-17.5 -151.5q0 -83 17.5 -155.5t52.5 -129.5t93 -90t132 -33zM854 438q-74 0 -114 76t-40 205q0 125 40 197.5t114 72.5t115 -72.5t41 -197.5q0 -128 -41 -204.5t-115 -76.5z" />
    <glyph glyph-name="uni25A0" unicode="&#x25a0;" horiz-adv-x="1685" 
d="M133 0v1434h1419v-1434h-1419z" />
    <glyph glyph-name="uni25A1" unicode="&#x25a1;" horiz-adv-x="1685" 
d="M133 0v1434h1419v-1434h-1419zM272 127h1141v1178h-1141v-1178z" />
    <glyph glyph-name="uni25AA" unicode="&#x25aa;" horiz-adv-x="1280" 
d="M133 0v1024h1014v-1024h-1014z" />
    <glyph glyph-name="uni25AB" unicode="&#x25ab;" horiz-adv-x="1280" 
d="M133 0v1024h1014v-1024h-1014zM270 127h740v770h-740v-770z" />
    <glyph glyph-name="triagup" unicode="&#x25b2;" horiz-adv-x="1331" 
d="M164 0l491 1044h21l491 -1044h-1003z" />
    <glyph glyph-name="triagrt" unicode="&#x25ba;" horiz-adv-x="1312" 
d="M246 -20v1064h16l846 -512v-20l-846 -532h-16z" />
    <glyph glyph-name="triagdn" unicode="&#x25bc;" horiz-adv-x="1331" 
d="M655 -20l-491 1044h1003l-491 -1044h-21z" />
    <glyph glyph-name="triaglf" unicode="&#x25c4;" horiz-adv-x="1312" 
d="M1051 -20l-846 532v20l846 512h16v-1064h-16z" />
    <glyph glyph-name="uni25CB" unicode="&#x25cb;" horiz-adv-x="1703" 
d="M852 -20q-148 0 -283.5 58t-233 156t-155 233.5t-57.5 283.5q0 149 57.5 284.5t155 233.5t233 156.5t283.5 58.5t283.5 -58.5t233 -156.5t155 -233.5t57.5 -284.5q0 -148 -57.5 -283.5t-155 -233.5t-233 -156t-283.5 -58zM852 104q160 0 295 81.5t213 221t78 304.5
t-78 305t-213 221.5t-295 81.5q-161 0 -296.5 -81.5t-213.5 -221t-78 -305.5q0 -165 78 -304.5t213.5 -221t296.5 -81.5z" />
    <glyph glyph-name="uni25CF" unicode="&#x25cf;" horiz-adv-x="1703" 
d="M852 -20q-148 0 -283.5 58t-233 156t-155 233.5t-57.5 283.5q0 149 57.5 284.5t155 233.5t233 156.5t283.5 58.5t283.5 -58.5t233 -156.5t155 -233.5t57.5 -284.5q0 -148 -57.5 -283.5t-155 -233.5t-233 -156t-283.5 -58z" />
    <glyph glyph-name="uni2605" unicode="&#x2605;" horiz-adv-x="1806" 
d="M1323 -12l-420 311l-420 -311l-39 26l174 486l-434 291l15 45l528 -17l152 494h49l151 -494l529 17l14 -45l-434 -291l174 -486z" />
    <glyph glyph-name="uni2612" unicode="&#x2612;" horiz-adv-x="1280" 
d="M133 0v1024h1014v-1024h-1014zM270 127h740v770h-740v-770zM864 195l-223 225l-227 -227l-90 92l225 225l-225 225l90 92l227 -225l223 223l92 -90l-225 -225l225 -225z" />
    <glyph glyph-name="uni263D" unicode="&#x263d;" horiz-adv-x="1540" 
d="M922 -31q-347 0 -538 175.5t-191 496.5q0 145 49.5 268t141 212t230 139.5t308.5 50.5q110 0 224.5 -34.5t194.5 -94.5l27 -19l-27 -47l-28 8q-84 25 -142 25q-120 0 -219.5 -60t-159 -173.5t-59.5 -260.5q0 -221 129 -371.5t312 -150.5q72 0 137 23l30 10l27 -49
l-27 -19q-80 -60 -194.5 -94.5t-224.5 -34.5z" />
    <glyph glyph-name="spade" unicode="&#x2660;" horiz-adv-x="1630" 
d="M602 0v43q72 87 121.5 215t62.5 293h-8q-46 -120 -129 -198.5t-198 -78.5q-120 0 -203.5 87t-83.5 214q0 53 19.5 104.5t45 89t75.5 85t84.5 75t98.5 76.5q17 13 25 19q114 89 185.5 162.5t107.5 163.5h20q36 -90 107.5 -164.5t183.5 -163.5q10 -8 31 -24
q46 -36 69.5 -54.5t64 -52.5t61.5 -57t49 -57t41.5 -63.5t23.5 -65.5t10 -73q0 -127 -83 -214t-203 -87q-115 0 -198.5 78.5t-129.5 198.5h-8q24 -310 188 -508v-43h-430z" />
    <glyph glyph-name="club" unicode="&#x2663;" horiz-adv-x="1622" 
d="M596 0v45q159 202 182 487h-12q-46 -117 -125 -191.5t-190 -74.5q-120 0 -203.5 84t-83.5 207q0 130 78.5 214.5t203.5 84.5q66 0 138 -39l2 4q-62 97 -62 195q0 124 82.5 211.5t204.5 87.5t204.5 -87.5t82.5 -211.5q0 -98 -62 -195l2 -4q72 39 138 39q125 0 203.5 -84.5
t78.5 -214.5q0 -123 -83.5 -207t-203.5 -84q-111 0 -190 74.5t-125 191.5h-12q23 -282 184 -487v-45h-432z" />
    <glyph glyph-name="heart" unicode="&#x2665;" horiz-adv-x="1761" 
d="M879 -20q-170 126 -298 245.5t-204 215t-123 188t-63.5 162t-16.5 139.5q0 144 92 235.5t248 91.5q79 0 140.5 -19.5t103 -56.5t68.5 -78t48 -95h13q21 54 48 95t68.5 78t103 56.5t140.5 19.5q156 0 248 -91.5t92 -235.5q0 -71 -17 -142t-64 -163t-123.5 -188
t-203.5 -214t-296 -243h-4z" />
    <glyph glyph-name="diamond" unicode="&#x2666;" horiz-adv-x="1511" 
d="M729 -14l-6 10q-100 167 -247.5 333.5t-311.5 299.5v57q163 130 310.5 297t248.5 334l6 10h53l6 -10q101 -167 249 -333.5t311 -297.5v-57q-165 -133 -312.5 -299.5t-247.5 -333.5l-6 -10h-53z" />
    <glyph glyph-name="uni2672" unicode="&#x2672;" horiz-adv-x="1792" 
d="M1260 885l-283 51l67 39l-118 205q-22 38 -59.5 61.5t-64.5 28.5l-26 4h318q56 0 88.5 -13t60.5 -63l47 -80l70 39zM688 836l-246 141l111 194q19 33 55 52q75 38 158.5 15t112.5 -73zM1382 389l-190 330l244 141l112 -192q17 -30 17 -72q1 -79 -62.5 -143t-120.5 -64z
M416 197l-156 274q-18 33 -25.5 52.5t-5 51t22.5 66.5l47 80l-70 39l285 51l98 -272l-67 39q-115 -197 -119 -205q-22 -36 -23.5 -80t7.5 -70l10 -26h-4zM1137 -16l-187 223l187 221v-80h237q27 0 53 8.5t43.5 21t31.5 25t21 21.5l7 8v-2l-156 -274q-35 -51 -51 -65
q-35 -28 -94 -28h-92v-79zM625 63q-36 0 -72 23q-36 20 -60.5 56t-34 73.5t-8 73.5t14.5 59h381v-285h-221z" />
    <glyph glyph-name="uni26AA" unicode="&#x26aa;" horiz-adv-x="1269" 
d="M635 -20q-146 0 -269 71.5t-193.5 194t-70.5 266.5q0 145 71 267.5t193.5 193.5t268.5 71t268.5 -71t193 -193.5t70.5 -267.5q0 -144 -70.5 -266.5t-193 -194t-268.5 -71.5zM635 96q169 0 288 122.5t119 293.5q0 172 -118.5 295t-288.5 123q-168 0 -287 -123t-119 -295
q0 -171 119 -293.5t287 -122.5z" />
    <glyph glyph-name="uni26AB" unicode="&#x26ab;" horiz-adv-x="1269" 
d="M635 -20q-146 0 -269 71.5t-193.5 194t-70.5 266.5q0 145 71 267.5t193.5 193.5t268.5 71t268.5 -71t193 -193.5t70.5 -267.5q0 -144 -70.5 -266.5t-193 -194t-268.5 -71.5z" />
    <glyph glyph-name="uni29EB" unicode="&#x29eb;" horiz-adv-x="1148" 
d="M561 -25l-428 662l430 666h25l428 -670l-428 -658h-27z" />
    <glyph glyph-name="onefifth" horiz-adv-x="1728" 
d="M260 0l989 1434h156l-989 -1434h-156zM606 647h-524v127h192v504l-182 -76v133l180 80q55 25 103 25h39v-666h192v-127zM1313 -14q-118 0 -191 39l45 120q66 -32 150 -32q89 0 142.5 42.5t53.5 120.5q0 62 -43.5 99t-115.5 37t-121 -27l-74 25v378h461v-126h-324v-148
q54 14 103 14q107 0 179.5 -62.5t72.5 -182.5q0 -137 -91 -217t-247 -80z" />
    <glyph glyph-name="onesixth" horiz-adv-x="1533" 
d="M231 0l990 1434h155l-989 -1434h-156zM606 647h-524v127h192v504l-182 -76v133l180 80q55 25 103 25h39v-666h192v-127zM1479 274q0 -122 -77 -205t-198 -83q-135 0 -218 102t-83 272v29q0 109 30.5 190.5t82 127t110.5 67t125 21.5q104 0 174 -39l-26 -121
q-64 33 -150 33q-186 -4 -202 -238q76 90 188 90q115 0 179.5 -72.5t64.5 -173.5zM1200 113q60 0 97.5 42.5t37.5 104.5q0 57 -34.5 100t-100.5 43q-49 0 -92 -28.5t-64 -71.5q3 -75 44.5 -132.5t111.5 -57.5z" />
    <glyph glyph-name="twofifths" horiz-adv-x="1581" 
d="M86 647v127q0 42 14 76t45 63.5t54 46.5t67 44l78 47q54 34 82.5 69.5t28.5 81.5q0 52 -41 85.5t-115 33.5q-90 0 -174 -43l-37 113q108 51 223 51q135 0 212 -63t77 -160q0 -83 -48.5 -143.5t-131.5 -112.5l-74 -43q-104 -65 -104 -121v-25h360v-127h-516zM231 0
l990 1434h155l-989 -1434h-156zM1165 -14q-117 0 -190 39l45 120q66 -32 149 -32q89 0 143 42.5t54 120.5q0 61 -44 98.5t-116 37.5t-121 -27l-73 25v378h461v-126h-324v-148q54 14 102 14q107 0 179.5 -62.5t72.5 -182.5q0 -137 -91 -217t-247 -80z" />
    <glyph glyph-name="threefifths" horiz-adv-x="1560" 
d="M168 0l989 1434h156l-989 -1434h-156zM301 633q-123 0 -213 39l43 119q74 -31 162 -31q85 0 122.5 35t37.5 86q0 116 -158 116h-84v115h82q63 0 98 31t35 78q0 102 -137 102q-61 0 -162 -33l-31 113q39 16 98.5 27.5t110.5 11.5q132 0 198 -55.5t66 -143.5
q0 -58 -32 -109t-82 -73q63 -18 102 -67t39 -115q0 -109 -73 -177.5t-222 -68.5zM1145 -14q-118 0 -191 39l45 120q66 -32 150 -32q89 0 143 42.5t54 120.5q0 61 -44 98.5t-116 37.5t-121 -27l-74 25v378h461v-126h-324v-148q54 14 103 14q107 0 179.5 -62.5t72.5 -182.5
q0 -137 -91 -217t-247 -80z" />
    <glyph glyph-name="fourfifths" horiz-adv-x="1566" 
d="M203 0l989 1434h156l-990 -1434h-155zM410 952v334l-211 -334h211zM631 834h-88v-187h-133v187h-353v110l322 492h164v-484h88v-118zM1151 -14q-117 0 -190 39l45 120q66 -32 149 -32q89 0 143 42.5t54 120.5q0 61 -44 98.5t-116 37.5t-121 -27l-74 25v378h461v-126h-323
v-148q54 14 102 14q107 0 179.5 -62.5t72.5 -182.5q0 -137 -91 -217t-247 -80z" />
    <glyph glyph-name="zero.sups" 
d="M342 856q-74 0 -132 33t-93 90t-52.5 129.5t-17.5 155.5q0 81 17.5 151.5t52.5 126t93 87.5t132 32q60 0 110 -21t84 -58t57.5 -87.5t34.5 -108t11 -122.5q0 -84 -17.5 -156t-53 -129t-93.5 -90t-133 -33zM342 983q74 0 115 76.5t41 204.5q0 125 -41 197.5t-115 72.5
t-114 -72.5t-40 -197.5q0 -129 40 -205t114 -76z" />
    <glyph glyph-name="one.sups" 
d="M606 870h-524v127h192v504l-182 -76v134l180 79q55 25 103 25h39v-666h192v-127z" />
    <glyph glyph-name="two.sups" 
d="M86 870v127q0 42 14 76t45 63.5t54 46.5t67 44l78 47q54 34 82.5 69.5t28.5 81.5q0 52 -41 85.5t-115 33.5q-90 0 -174 -43l-37 113q108 51 223 51q135 0 212 -63t77 -160q0 -83 -48.5 -143.5t-131.5 -112.5l-74 -43q-104 -65 -104 -121v-25h360v-127h-516z" />
    <glyph glyph-name="three.sups" 
d="M301 856q-123 0 -213 39l43 119q74 -31 162 -31q85 0 122.5 35t37.5 86q0 117 -158 117h-84v114h82q63 0 98 31t35 78q0 102 -137 102q-61 0 -162 -33l-31 113q39 16 98.5 27.5t110.5 11.5q132 0 198 -55.5t66 -143.5q0 -58 -32 -109t-82 -73q63 -18 102 -67t39 -115
q0 -109 -73 -177.5t-222 -68.5z" />
    <glyph glyph-name="four.sups" 
d="M410 1176v333l-211 -333h211zM631 1057h-88v-187h-133v187h-353v110l322 492h164v-483h88v-119z" />
    <glyph glyph-name="five.sups" 
d="M270 856q-117 0 -190 39l45 121q68 -33 149 -33q89 0 143 43t54 121q0 61 -44 98t-116 37t-121 -27l-73 25v379h461v-127h-324v-148q58 15 102 15q106 0 179 -63t73 -183q0 -137 -91 -217t-247 -80z" />
    <glyph glyph-name="six.sups" 
d="M631 1145q0 -122 -77 -205.5t-198 -83.5q-135 0 -218 102.5t-83 272.5v29q0 109 30.5 190.5t82 126.5t110.5 66.5t125 21.5q105 0 175 -39l-27 -121q-64 33 -150 33q-186 -4 -202 -238q77 91 188 91q115 0 179.5 -72.5t64.5 -173.5zM352 983q60 0 97.5 42.5t37.5 104.5
q0 57 -34.5 100.5t-100.5 43.5q-49 0 -91.5 -28.5t-63.5 -71.5q3 -75 44 -133t111 -58z" />
    <glyph glyph-name="seven.sups" 
d="M332 870h-154q23 195 102.5 364.5t182.5 297.5h-387v127h528l6 -94q-93 -122 -174.5 -305.5t-103.5 -389.5z" />
    <glyph glyph-name="eight.sups" 
d="M342 856q-128 0 -205.5 63t-77.5 168q0 65 36.5 115t105.5 74q-111 60 -111 178q0 92 70 151.5t182 59.5q113 0 183.5 -59.5t70.5 -149.5q0 -113 -107 -162q138 -60 138 -202q0 -107 -78.5 -171.5t-206.5 -64.5zM348 1335l27 -6q82 37 82 115q0 49 -32 79.5t-83 30.5
q-50 0 -81.5 -30t-31.5 -80q0 -88 119 -109zM342 971q66 0 108 36t42 93q0 94 -121 121l-52 14q-59 -17 -91.5 -53.5t-32.5 -83.5q0 -56 41.5 -91.5t105.5 -35.5z" />
    <glyph glyph-name="nine.sups" 
d="M348 1247q86 0 141 51v35q0 89 -37 147t-114 58q-64 0 -102.5 -40.5t-38.5 -102.5t38.5 -105t112.5 -43zM303 856q-67 0 -120 16t-81 39l31 117q61 -47 174 -47q80 0 126.5 47t53.5 160q-69 -58 -170 -58q-125 0 -193.5 74t-68.5 187q0 118 79.5 196t205.5 78
q136 0 213.5 -94t77.5 -256v-70q0 -109 -26 -187t-73 -121t-103 -62t-126 -19z" />
    <glyph glyph-name="a.sups" horiz-adv-x="827" 
d="M403 967q47 0 95 22t75 58v6q0 90 -51 145t-135 55q-67 0 -112.5 -40t-45.5 -103q0 -64 48 -103.5t126 -39.5zM592 870l-12 84q-28 -41 -87 -70.5t-137 -29.5q-116 0 -192 70t-76 178q0 117 79 186.5t195 69.5q77 0 130.5 -28t80.5 -73v80q0 91 -43 143t-149 52
q-99 0 -199 -47l-32 123q106 47 239 47q171 0 245.5 -78t74.5 -219v-488h-117z" />
    <glyph glyph-name="b.sups" horiz-adv-x="880" 
d="M406 854q-163 0 -281 70v1099h137v-487q33 56 92.5 87.5t126.5 31.5q149 0 228 -103t79 -270q0 -198 -98 -313t-284 -115zM422 975q78 0 130.5 44.5t73.5 110t21 148.5q0 71 -16 125.5t-59.5 92.5t-110.5 38q-81 0 -137 -65.5t-56 -200.5v-262q53 -31 154 -31z" />
    <glyph glyph-name="c.sups" horiz-adv-x="731" 
d="M459 854q-178 0 -272.5 113t-94.5 288q0 113 39 201.5t123.5 143.5t204.5 55q114 0 196 -39l-32 -115q-83 31 -162 31q-112 0 -170 -79t-58 -198q0 -120 57.5 -198t170.5 -78q90 0 164 31l32 -115q-90 -41 -198 -41z" />
    <glyph glyph-name="d.sups" horiz-adv-x="880" 
d="M432 975q72 0 126 48t54 144v289q-24 31 -68 54.5t-98 23.5q-102 0 -157.5 -81t-55.5 -204q0 -72 19.5 -132t66 -101t113.5 -41zM621 967q-33 -50 -92.5 -81.5t-127.5 -31.5q-144 0 -226.5 108.5t-82.5 284.5q0 179 90.5 293.5t239.5 114.5q57 0 109 -20.5t87 -53.5v442
h138v-1153h-123z" />
    <glyph glyph-name="e.sups" horiz-adv-x="823" 
d="M596 1327q0 88 -41.5 147.5t-128.5 59.5q-162 0 -186 -207h356zM721 911q-114 -57 -258 -57q-183 0 -277 114t-94 287q0 109 34.5 197.5t112 145.5t187.5 57q83 0 144 -28.5t96 -81t52 -118.5t17 -147v-55h-499q15 -252 233 -252q122 0 211 47z" />
    <glyph glyph-name="f.sups" horiz-adv-x="620" 
d="M193 870v652l-146 24v92h146v158q0 123 70.5 183.5t221.5 60.5q67 0 123 -21l-20 -114q-54 12 -96 12q-156 0 -156 -129v-150h225v-100l-225 -18v-650h-143z" />
    <glyph glyph-name="g.sups" horiz-adv-x="817" 
d="M383 471q-146 0 -237 60t-91 174q0 76 50 134.5t135 90.5q-35 32 -35 76q0 40 29.5 71.5t87.5 48.5q-112 9 -179 78.5t-67 173.5q0 116 86.5 196.5t222.5 80.5q77 0 143 -29l228 47l22 -102l-67 -15l-80 -6q65 -74 65 -172q0 -114 -67.5 -180.5t-177.5 -93.5l-50 -12
q-51 -15 -51 -50q0 -39 53 -45l113 -14q244 -35 244 -227q0 -90 -55 -156.5t-139 -97.5t-183 -31zM393 1208q73 0 121.5 45t48.5 121q0 64 -47 115t-131 51q-80 0 -128 -45.5t-48 -120.5q0 -72 49 -119t135 -47zM395 588q91 0 157 40.5t66 119.5q0 49 -36.5 82t-110.5 40
l-111 13q-29 5 -32 6q-62 -23 -101 -66t-39 -96q0 -70 57.5 -104.5t149.5 -34.5z" />
    <glyph glyph-name="h.sups" horiz-adv-x="868" 
d="M268 1346v-476h-143v1153h137v-473q35 49 93 77t120 28q134 0 204.5 -76.5t70.5 -212.5v-496h-142v476q0 98 -45.5 143t-122.5 45q-69 0 -120.5 -46.5t-51.5 -141.5z" />
    <glyph glyph-name="i.sups" horiz-adv-x="415" 
d="M209 1765q-46 0 -78.5 31.5t-32.5 77.5t32.5 78.5t78.5 32.5q44 0 76 -32.5t32 -78.5t-31.5 -77.5t-76.5 -31.5zM137 870v768h142v-768h-142z" />
    <glyph glyph-name="j.sups" horiz-adv-x="411" 
d="M205 1765q-46 0 -78.5 31.5t-32.5 77.5t32.5 78.5t78.5 32.5t78 -32.5t32 -78.5t-32 -77.5t-78 -31.5zM27 481q-52 0 -107 19l19 110q32 -12 65 -12q67 0 98 38t31 122v880h143v-890q0 -139 -66.5 -203t-182.5 -64z" />
    <glyph glyph-name="k.sups" horiz-adv-x="782" 
d="M248 907q-24 -37 -74 -37h-49v1153h135v-886l324 501h141l-250 -383l258 -385h-149l-181 275z" />
    <glyph glyph-name="l.sups" horiz-adv-x="438" 
d="M311 860q-180 0 -180 168v995h141v-989q0 -57 62 -57q32 0 47 10l20 -108q-40 -19 -90 -19z" />
    <glyph glyph-name="m.sups" horiz-adv-x="1345" 
d="M268 1346v-476h-143v768h74q19 0 28 -6.5t13 -23.5l12 -64q35 52 95 81.5t126 29.5q188 0 248 -139q26 64 92.5 101.5t138.5 37.5q134 0 204.5 -76.5t70.5 -212.5v-496h-142v476q0 97 -44.5 142.5t-118.5 45.5q-69 0 -119.5 -46.5t-50.5 -141.5v-476h-144v476
q0 98 -45.5 143t-122.5 45q-69 0 -120.5 -46.5t-51.5 -141.5z" />
    <glyph glyph-name="n.sups" horiz-adv-x="868" 
d="M268 1346v-476h-143v768h74q19 0 28 -6.5t13 -23.5l12 -64q35 52 95 81.5t126 29.5q136 0 206.5 -76.5t70.5 -212.5v-496h-142v476q0 98 -45.5 143t-122.5 45q-69 0 -120.5 -46.5t-51.5 -141.5z" />
    <glyph glyph-name="o.sups" horiz-adv-x="849" 
d="M426 854q-110 0 -187.5 57t-112 145.5t-34.5 198.5q0 109 34.5 197.5t112 145.5t187.5 57q84 0 149 -32.5t104 -89t59 -127t20 -151.5q0 -82 -20 -153t-59.5 -127t-104.5 -88.5t-148 -32.5zM426 975q97 0 142.5 77.5t45.5 202.5q0 124 -45.5 201.5t-142.5 77.5
q-99 0 -144.5 -77t-45.5 -202q0 -126 45.5 -203t144.5 -77z" />
    <glyph glyph-name="p.sups" horiz-adv-x="880" 
d="M436 975q56 0 98.5 24.5t66 67.5t35 95t11.5 112q0 71 -16 126.5t-59.5 94.5t-110.5 39q-81 0 -137 -65.5t-56 -200.5v-244q80 -49 168 -49zM268 905v-418h-143v1151h74q33 0 39 -28l16 -88q32 62 93.5 97.5t133.5 35.5q149 0 228 -104.5t79 -272.5q0 -189 -86.5 -306.5
t-248.5 -117.5q-108 0 -185 51z" />
    <glyph glyph-name="q.sups" horiz-adv-x="880" 
d="M756 487h-144v467q-30 -44 -87.5 -72t-123.5 -28q-144 0 -226.5 108.5t-82.5 284.5q0 178 90.5 293t239.5 115q59 0 111.5 -20.5t87.5 -55.5l14 59h121v-1151zM432 975q72 0 126 48t54 144v289q-24 31 -68 54.5t-98 23.5q-102 0 -157.5 -81t-55.5 -204q0 -72 19.5 -132
t66 -101t113.5 -41z" />
    <glyph glyph-name="r.sups" horiz-adv-x="555" 
d="M268 1305v-435h-143v768h74q19 0 28 -6.5t13 -23.5l18 -88q27 63 82.5 99t120.5 36q39 0 80 -13l-31 -147q-30 18 -76 18q-69 0 -117.5 -51t-48.5 -157z" />
    <glyph glyph-name="s.sups" horiz-adv-x="745" 
d="M338 854q-114 0 -250 53l41 115q2 -1 18.5 -7t20.5 -7.5t19.5 -6.5t22.5 -7t22 -6t25.5 -5.5l24.5 -3.5t28 -3t28 -1q99 0 138.5 34t39.5 81q0 98 -139 114q-142 19 -210.5 73t-68.5 146q0 41 17.5 80.5t52 74t93.5 56t134 21.5q137 0 232 -45l-35 -117q-113 41 -193 41
q-86 0 -126 -31.5t-40 -75.5t38 -68.5t120 -35.5q262 -35 262 -221q0 -104 -78 -176t-237 -72z" />
    <glyph glyph-name="t.sups" horiz-adv-x="620" 
d="M440 854q-116 0 -183 63t-67 201v406l-145 22v92h145v228h144v-228h225v-102l-225 -20v-388q0 -84 31 -120.5t98 -36.5q41 0 78 16l22 -110q-57 -23 -123 -23z" />
    <glyph glyph-name="u.sups" horiz-adv-x="868" 
d="M629 870l-13 101q-33 -54 -94.5 -85.5t-128.5 -31.5q-132 0 -202 77t-70 212v495h141v-475q0 -98 45.5 -143t122.5 -45q69 0 120.5 46.5t51.5 141.5v475h143v-768h-116z" />
    <glyph glyph-name="v.sups" horiz-adv-x="792" 
d="M451 856h-60q-29 0 -44.5 12t-27.5 43l-274 727h154l196 -571l199 571h154z" />
    <glyph glyph-name="w.sups" horiz-adv-x="1107" 
d="M723 911l-168 578l-182 -635h-60q-30 0 -46 12.5t-23 44.5l-199 727h145l129 -563l168 563h107q31 0 39 -28l160 -533l131 561h139l-211 -784h-57q-31 0 -47 12.5t-25 44.5z" />
    <glyph glyph-name="x.sups" horiz-adv-x="806" 
d="M573 905l-167 252l-195 -287h-164l277 396l-261 372h115q48 0 70 -32l155 -232l181 264h161l-258 -370l275 -398h-117q-44 0 -72 35z" />
    <glyph glyph-name="y.sups" horiz-adv-x="868" 
d="M424 479q-68 0 -134.5 19t-113.5 53l35 115q103 -64 207 -64q106 0 148 56.5t42 156.5v143q-35 -49 -93.5 -76.5t-121.5 -27.5q-132 0 -202 77t-70 212v495h141v-475q0 -98 45.5 -143t122.5 -45q69 0 120.5 46.5t51.5 141.5v475h143v-837q0 -322 -321 -322z" />
    <glyph glyph-name="z.sups" horiz-adv-x="706" 
d="M643 870h-573v31q0 66 36 115l347 502l-357 -2v122h531v-34q0 -62 -29 -101l-356 -512l401 4v-125z" />
    <glyph glyph-name="period.sups" horiz-adv-x="411" 
d="M205 854q-46 0 -78.5 31.5t-32.5 77.5t32.5 78t78.5 32t78 -32t32 -78t-32 -77.5t-78 -31.5z" />
    <glyph glyph-name="comma.sups" horiz-adv-x="403" 
d="M80 653l-35 49q49 32 78 78t29 97q0 32 -17.5 59.5t-42.5 38.5q0 40 29.5 69t71.5 29q56 0 86 -37.5t30 -93.5q0 -104 -74.5 -184.5t-154.5 -104.5z" />
    <glyph glyph-name="hyphen.sups" horiz-adv-x="884" 
d="M137 1194v127h611v-127h-611z" />
    <glyph glyph-name="parenleft.sups" horiz-adv-x="528" 
d="M377 606q-61 73 -114 176t-94.5 261.5t-41.5 324.5q0 346 162 635h143q-166 -294 -166 -635q0 -231 75.5 -435t176.5 -327h-141z" />
    <glyph glyph-name="parenright.sups" horiz-adv-x="528" 
d="M8 606q101 122 176.5 326t75.5 436q0 337 -166 635h144q161 -291 161 -635q0 -242 -75 -443.5t-174 -318.5h-142z" />
    <glyph glyph-name="plus.sups" horiz-adv-x="884" 
d="M748 1282h-240v-242h-129v242h-242v127h242v244h129v-244h240v-127z" />
    <glyph glyph-name="minus.sups" horiz-adv-x="884" 
d="M137 1282v127h611v-127h-611z" />
    <glyph glyph-name="multiply.sups" horiz-adv-x="884" 
d="M614 1085l-170 170l-172 -172l-90 93l172 172l-172 170l90 90l172 -170l170 170l91 -90l-170 -172l170 -170z" />
    <glyph glyph-name="equal.sups" horiz-adv-x="884" 
d="M137 1417v125h611v-125h-611zM137 1145v125h611v-125h-611z" />
    <glyph glyph-name="divide.sups" horiz-adv-x="884" 
d="M442 1497q-44 0 -75 30.5t-31 74.5t31 75t75 31t75.5 -31t31.5 -75t-31.5 -74.5t-75.5 -30.5zM137 1284v123h611v-123h-611zM442 983q-44 0 -75 30t-31 74t31 75.5t75 31.5t75.5 -31.5t31.5 -75.5t-31 -74t-76 -30z" />
    <glyph glyph-name="dollar.sups" horiz-adv-x="673" 
d="M391 739h-98v117q-131 0 -217 49l39 115q84 -41 178 -41q93 0 138.5 31t45.5 82q0 46 -30 72.5t-101 43.5l-76 19q-204 50 -204 205q0 85 59 147t168 80v100h98v-94q101 -2 187 -37l-35 -117q-101 33 -168 33q-89 0 -131.5 -29t-42.5 -77q0 -76 121 -101l69 -16
q223 -51 223 -215q0 -87 -56 -153.5t-167 -88.5v-125z" />
    <glyph glyph-name="cent.sups" horiz-adv-x="579" 
d="M485 995q-53 -24 -118 -30v-109h-105v117q-98 23 -150.5 100t-52.5 187q0 108 52.5 185t150.5 101v119h105v-111q70 -6 116 -30l-28 -113q-56 23 -107 23q-71 0 -110 -47.5t-39 -126.5q0 -80 39 -127.5t110 -47.5q61 0 109 23z" />
    <glyph glyph-name="sterling.sups" horiz-adv-x="690" 
d="M627 997v-127h-557v127h43q72 0 112.5 34.5t40.5 96.5q0 27 -2 37h-174v80h121l-39 33q-45 41 -68.5 80t-23.5 90q0 96 77.5 156.5t202.5 60.5q124 0 232 -51l-35 -113q-88 43 -184 43q-69 0 -109.5 -30t-40.5 -80t45 -91l60 -57q12 -10 34 -41h179v-80h-150q2 -10 2 -32
q0 -84 -59 -136h293z" />
    <glyph glyph-name="florin.sups" horiz-adv-x="557" 
d="M16 590q-51 0 -86 14l29 109q22 -11 45 -11q44 0 65.5 24.5t26.5 76.5l47 471h-114l12 100h109l8 80q22 211 258 211q69 0 121 -23l-39 -108q-36 12 -80 12q-112 0 -123 -104l-6 -68h172l-10 -102h-170l-45 -484q-10 -103 -65 -150.5t-155 -47.5z" />
    <glyph glyph-name="yen.sups" horiz-adv-x="792" 
d="M602 981h-151v-111h-132v111h-155v86h155v53h-155v86h155v51l-274 381h154l184 -280l211 280h154l-297 -381v-51h151v-86h-151v-53h151v-86z" />
    <glyph glyph-name="Euro.sups" horiz-adv-x="663" 
d="M465 1294h-459l23 97h57q27 128 108 201t207 73q90 0 174 -43l-30 -117q-73 29 -131 29q-67 0 -114 -37.5t-69 -105.5h258zM516 877q-54 -21 -115 -21q-126 0 -207 75t-108 206h-80l23 96h417l-22 -96h-193q22 -72 69 -111t114 -39q70 0 133 29z" />
    <glyph glyph-name="zero.subs" 
d="M342 -328q-74 0 -132 33t-93 90t-52.5 129.5t-17.5 155.5q0 81 17.5 151.5t52.5 126t93 87.5t132 32q60 0 110 -21t84 -58t57.5 -87.5t34.5 -108t11 -122.5q0 -84 -17.5 -156t-53 -129t-93.5 -90t-133 -33zM342 -201q74 0 115 76.5t41 204.5q0 125 -41 197.5t-115 72.5
t-114 -72.5t-40 -197.5q0 -129 40 -205t114 -76z" />
    <glyph glyph-name="one.subs" 
d="M606 -313h-524v127h192v503l-182 -75v133l180 80q53 24 103 24h39v-665h192v-127z" />
    <glyph glyph-name="two.subs" 
d="M86 -313v127q0 42 14 76t45 63.5t53.5 45.5t67.5 44l78 47q111 69 111 152q0 52 -41 85t-115 33q-90 0 -174 -43l-37 113q108 51 223 51q135 0 212 -63t77 -160q0 -83 -48.5 -143.5t-131.5 -112.5l-74 -43q-104 -65 -104 -121v-24h360v-127h-516z" />
    <glyph glyph-name="three.subs" 
d="M301 -328q-123 0 -213 39l43 119q74 -31 162 -31q85 0 122.5 35t37.5 86q0 117 -158 117h-84v115h82q63 0 98 30.5t35 77.5q0 102 -137 102q-64 0 -162 -32l-31 112q39 16 98.5 27.5t110.5 11.5q132 0 198 -55t66 -143q0 -58 -32 -109.5t-82 -73.5q63 -18 102 -67
t39 -115q0 -109 -73 -177.5t-222 -68.5z" />
    <glyph glyph-name="four.subs" 
d="M410 -8v334l-211 -334h211zM631 -127h-88v-186h-133v186h-353v111l322 491h164v-483h88v-119z" />
    <glyph glyph-name="five.subs" 
d="M270 -328q-117 0 -190 39l45 121q68 -33 149 -33q89 0 143 43t54 121q0 61 -44 98t-116 37q-74 0 -121 -26l-73 24v379h461v-127h-324v-147q54 14 102 14q106 0 179 -63t73 -183q0 -137 -91 -217t-247 -80z" />
    <glyph glyph-name="six.subs" 
d="M631 -39q0 -122 -77 -205.5t-198 -83.5q-135 0 -218 102.5t-83 272.5v29q0 109 30.5 190.5t82 126.5t110.5 66.5t125 21.5q105 0 175 -39l-27 -120q-62 32 -150 32q-186 -4 -202 -237q76 90 188 90q115 0 179.5 -72.5t64.5 -173.5zM352 -201q60 0 97.5 43t37.5 105
q0 57 -34.5 100t-100.5 43q-49 0 -91.5 -28.5t-63.5 -71.5q3 -75 44 -133t111 -58z" />
    <glyph glyph-name="seven.subs" 
d="M332 -313h-154q42 359 285 661h-387v127h528l6 -94q-58 -75 -111 -171t-102.5 -238.5t-64.5 -284.5z" />
    <glyph glyph-name="eight.subs" 
d="M342 -328q-128 0 -205.5 63.5t-77.5 168.5q0 64 36.5 114t105.5 74q-111 60 -111 178q0 92 70 151.5t182 59.5q113 0 183.5 -59.5t70.5 -149.5q0 -112 -107 -161q138 -60 138 -203q0 -107 -78.5 -171.5t-206.5 -64.5zM348 152l27 -7q82 37 82 115q0 49 -32 80t-83 31
q-50 0 -81.5 -30.5t-31.5 -80.5q0 -87 119 -108zM342 -213q66 0 108 36t42 93q0 94 -121 121l-52 14q-59 -17 -91.5 -53.5t-32.5 -83.5q0 -56 41.5 -91.5t105.5 -35.5z" />
    <glyph glyph-name="nine.subs" 
d="M348 63q85 0 141 52v35q0 89 -37 146.5t-114 57.5q-64 0 -102.5 -40.5t-38.5 -102.5t38.5 -105t112.5 -43zM303 -328q-67 0 -120 16.5t-81 39.5l31 116q61 -47 174 -47q80 0 126.5 47t53.5 160q-67 -57 -170 -57q-125 0 -193.5 73.5t-68.5 186.5q0 118 79.5 196t205.5 78
q136 0 213.5 -94t77.5 -256v-70q0 -109 -26 -187t-73 -121t-103 -62t-126 -19z" />
    <glyph glyph-name="a.subs" horiz-adv-x="827" 
d="M403 -217q47 0 95 22.5t75 59.5v4q0 90 -51 145.5t-135 55.5q-67 0 -112.5 -40.5t-45.5 -103.5q0 -64 48 -103.5t126 -39.5zM592 -313l-12 84q-28 -41 -87.5 -71t-136.5 -30q-116 0 -192 70t-76 178q0 117 79 186.5t195 69.5q77 0 130.5 -27.5t80.5 -72.5v80
q0 91 -43 142.5t-149 51.5q-99 0 -199 -47l-32 123q106 47 239 47q171 0 245.5 -78t74.5 -219v-487h-117z" />
    <glyph glyph-name="b.subs" horiz-adv-x="880" 
d="M406 -330q-163 0 -281 70v1100h137v-488q33 56 92.5 87.5t126.5 31.5q149 0 228 -103t79 -270q0 -198 -98 -313t-284 -115zM422 -209q78 0 130.5 44.5t73.5 110t21 148.5q0 71 -16 125.5t-59.5 92.5t-110.5 38q-81 0 -137 -65.5t-56 -200.5v-262q53 -31 154 -31z" />
    <glyph glyph-name="c.subs" horiz-adv-x="731" 
d="M459 -330q-178 0 -272.5 113.5t-94.5 288.5q0 113 39 201t123.5 143t204.5 55q114 0 196 -39l-32 -115q-83 31 -162 31q-112 0 -170 -78.5t-58 -197.5q0 -121 57.5 -199t170.5 -78q90 0 164 31l32 -115q-90 -41 -198 -41z" />
    <glyph glyph-name="d.subs" horiz-adv-x="880" 
d="M432 -209q72 0 126 48.5t54 144.5v288q-24 31 -68 54.5t-98 23.5q-103 0 -158 -81t-55 -203q0 -72 19.5 -132.5t66 -101.5t113.5 -41zM621 -217q-33 -50 -92.5 -81.5t-127.5 -31.5q-144 0 -226.5 108.5t-82.5 284.5q0 179 90.5 293.5t239.5 114.5q122 0 196 -74v443h138
v-1153h-123z" />
    <glyph glyph-name="e.subs" horiz-adv-x="823" 
d="M596 143q0 88 -41.5 147.5t-128.5 59.5q-162 0 -186 -207h356zM721 -272q-116 -58 -258 -58q-94 0 -166.5 32t-116.5 88.5t-66 127.5t-22 154q0 81 20.5 151.5t60 126.5t105 88.5t148.5 32.5t144 -28.5t96 -81t52 -118.5t17 -147v-55h-499q15 -252 233 -252q122 0 211 47
z" />
    <glyph glyph-name="f.subs" horiz-adv-x="620" 
d="M193 -313v651l-146 24v93h146v157q0 123 70.5 183.5t221.5 60.5q70 0 123 -20l-20 -115q-54 12 -96 12q-156 0 -156 -129v-149h225v-101l-225 -18v-649h-143z" />
    <glyph glyph-name="g.subs" horiz-adv-x="817" 
d="M383 -713q-146 0 -237 60t-91 174q0 77 50 135t135 90q-35 32 -35 76q0 86 117 121q-112 10 -179 79.5t-67 172.5q0 116 86.5 196t222.5 80q77 0 143 -29l228 47l22 -102l-67 -14l-80 -4q65 -74 65 -174q0 -114 -67.5 -181t-177.5 -94l-50 -12q-51 -15 -51 -49
q0 -39 53 -45l113 -15q244 -35 244 -227q0 -90 -55 -156.5t-139 -97.5t-183 -31zM393 25q73 0 121.5 44.5t48.5 120.5q0 64 -47 115t-131 51q-80 0 -128 -45.5t-48 -120.5q0 -72 49 -118.5t135 -46.5zM395 -596q91 0 157 40.5t66 119.5q0 49 -36.5 82.5t-110.5 40.5l-111 12
q-12 2 -32 6q-62 -23 -101 -66t-39 -96q0 -70 57.5 -104.5t149.5 -34.5z" />
    <glyph glyph-name="h.subs" horiz-adv-x="868" 
d="M268 162v-475h-143v1153h137v-471q35 47 93 74.5t120 27.5q134 0 204.5 -76.5t70.5 -212.5v-495h-142v475q0 98 -45.5 143t-122.5 45q-69 0 -120.5 -46.5t-51.5 -141.5z" />
    <glyph glyph-name="i.subs" horiz-adv-x="415" 
d="M209 582q-46 0 -78.5 31.5t-32.5 76.5q0 46 32.5 78.5t78.5 32.5q44 0 76 -32.5t32 -78.5q0 -45 -31.5 -76.5t-76.5 -31.5zM137 -313v768h142v-768h-142z" />
    <glyph glyph-name="j.subs" horiz-adv-x="411" 
d="M205 582q-46 0 -78.5 31.5t-32.5 76.5q0 46 32.5 78.5t78.5 32.5t78 -32.5t32 -78.5t-32 -77t-78 -31zM27 -702q-55 0 -107 18l19 111q35 -13 65 -13q67 0 98 38t31 122v881h143v-891q0 -139 -66.5 -202.5t-182.5 -63.5z" />
    <glyph glyph-name="k.subs" horiz-adv-x="831" 
d="M248 -276q-24 -37 -74 -37h-49v1153h135v-885l324 500h141l-250 -381l258 -387h-149l-181 274z" />
    <glyph glyph-name="l.subs" horiz-adv-x="438" 
d="M311 -324q-180 0 -180 168v996h141v-990q0 -57 62 -57q32 0 47 10l20 -108q-40 -19 -90 -19z" />
    <glyph glyph-name="m.subs" horiz-adv-x="1345" 
d="M268 162v-475h-143v768h74q19 0 27.5 -7t13.5 -24l12 -62q35 50 95.5 79.5t125.5 29.5q188 0 248 -139q26 64 92.5 101.5t138.5 37.5q134 0 204.5 -76.5t70.5 -212.5v-495h-142v475q0 97 -44.5 142.5t-118.5 45.5q-69 0 -119.5 -46.5t-50.5 -141.5v-475h-144v475
q0 98 -45.5 143t-122.5 45q-69 0 -120.5 -46.5t-51.5 -141.5z" />
    <glyph glyph-name="n.subs" horiz-adv-x="868" 
d="M268 162v-475h-143v768h74q19 0 27.5 -7t13.5 -24l12 -62q35 50 95.5 79.5t125.5 29.5q136 0 206.5 -76.5t70.5 -212.5v-495h-142v475q0 98 -45.5 143t-122.5 45q-69 0 -120.5 -46.5t-51.5 -141.5z" />
    <glyph glyph-name="o.subs" horiz-adv-x="849" 
d="M426 -330q-110 0 -187.5 57t-112 146t-34.5 199q0 81 20.5 151.5t60 126.5t105 88.5t148.5 32.5q84 0 149 -32.5t104 -88.5t59 -126.5t20 -151.5q0 -82 -20 -153t-59.5 -127.5t-104.5 -89t-148 -32.5zM426 -209q97 0 142.5 78t45.5 203q0 124 -45.5 201t-142.5 77
q-99 0 -144.5 -76.5t-45.5 -201.5q0 -126 45.5 -203.5t144.5 -77.5z" />
    <glyph glyph-name="p.subs" horiz-adv-x="880" 
d="M436 -209q56 0 98.5 24.5t66 67.5t35 95t11.5 112q0 71 -16 126.5t-59.5 94.5t-110.5 39q-81 0 -137 -65.5t-56 -200.5v-244q80 -49 168 -49zM268 -279v-417h-143v1151h74q33 0 39 -29l16 -88q32 62 93.5 97.5t133.5 35.5q149 0 228 -104.5t79 -272.5
q0 -189 -86.5 -306.5t-248.5 -117.5q-108 0 -185 51z" />
    <glyph glyph-name="q.subs" horiz-adv-x="880" 
d="M756 -696h-144v467q-30 -44 -87.5 -72.5t-123.5 -28.5q-144 0 -226.5 108.5t-82.5 284.5q0 178 90.5 293t239.5 115q59 0 111.5 -20.5t87.5 -55.5l14 60h121v-1151zM432 -209q72 0 126 48.5t54 144.5v288q-24 31 -68 54.5t-98 23.5q-103 0 -158 -81t-55 -203
q0 -72 19.5 -132.5t66 -101.5t113.5 -41z" />
    <glyph glyph-name="r.subs" horiz-adv-x="555" 
d="M268 121v-434h-143v768h74q19 0 27.5 -7t13.5 -24l18 -88q27 63 82.5 99t120.5 36q43 0 80 -12l-31 -148q-32 19 -76 19q-69 0 -117.5 -51.5t-48.5 -157.5z" />
    <glyph glyph-name="s.subs" horiz-adv-x="745" 
d="M338 -330q-111 0 -250 54l41 114q2 -1 18.5 -7t20.5 -7.5t19.5 -6.5t22.5 -7t22 -6t25.5 -5.5l24.5 -3.5t28 -3t28 -1q99 0 138.5 34t39.5 81q0 98 -139 114q-142 19 -210.5 73t-68.5 147q0 41 17.5 80.5t52 74t93.5 55.5t134 21q137 0 232 -45l-35 -117q-113 41 -193 41
q-86 0 -126 -31t-40 -75t38 -69t120 -36q262 -35 262 -221q0 -104 -78 -176t-237 -72z" />
    <glyph glyph-name="t.subs" horiz-adv-x="620" 
d="M440 -330q-116 0 -183 63t-67 201v406l-145 22v93h145v227h144v-227h225v-103l-225 -20v-387q0 -84 31 -121t98 -37q41 0 78 16l22 -110q-57 -23 -123 -23z" />
    <glyph glyph-name="u.subs" horiz-adv-x="868" 
d="M629 -313l-13 100q-33 -53 -94.5 -85t-128.5 -32q-132 0 -202 77t-70 212v496h141v-475q0 -98 45.5 -143.5t122.5 -45.5q69 0 120.5 47t51.5 142v475h143v-768h-116z" />
    <glyph glyph-name="v.subs" horiz-adv-x="792" 
d="M451 -328h-60q-29 0 -44.5 12.5t-27.5 43.5l-274 727h154l196 -572l199 572h154z" />
    <glyph glyph-name="w.subs" horiz-adv-x="1107" 
d="M723 -272l-168 577l-182 -635h-60q-30 0 -46 13t-23 45l-199 727h145l129 -564l168 564h107q30 0 39 -29l160 -532l131 561h139l-211 -785h-57q-31 0 -47 13t-25 45z" />
    <glyph glyph-name="x.subs" horiz-adv-x="806" 
d="M573 -279l-167 254l-195 -288h-164l277 395l-261 373h115q47 0 70 -33l155 -229l181 262h161l-258 -371l275 -397h-117q-45 0 -72 34z" />
    <glyph glyph-name="y.subs" horiz-adv-x="868" 
d="M424 -705q-68 0 -134.5 19t-113.5 53l35 115q103 -64 207 -64q106 0 148 56.5t42 156.5v144q-35 -49 -93.5 -77t-121.5 -28q-132 0 -202 77t-70 212v496h141v-475q0 -98 45.5 -143.5t122.5 -45.5q69 0 120.5 47t51.5 142v475h143v-838q0 -322 -321 -322z" />
    <glyph glyph-name="z.subs" horiz-adv-x="706" 
d="M643 -313h-573v30q0 66 36 115l347 502l-357 -2v123h531v-35q0 -62 -29 -101l-356 -512l401 5v-125z" />
    <glyph glyph-name="period.subs" horiz-adv-x="411" 
d="M205 -330q-46 0 -78.5 31.5t-32.5 77.5t32.5 78t78.5 32t78 -32t32 -78t-32 -77.5t-78 -31.5z" />
    <glyph glyph-name="comma.subs" horiz-adv-x="403" 
d="M80 -530l-35 49q49 32 78 77.5t29 96.5q0 32 -17.5 59.5t-42.5 38.5q0 40 29.5 69t71.5 29q56 0 86 -37.5t30 -93.5q0 -71 -39.5 -135t-90 -101t-99.5 -52z" />
    <glyph glyph-name="hyphen.subs" horiz-adv-x="884" 
d="M137 10v127h611v-127h-611z" />
    <glyph glyph-name="parenleft.subs" horiz-adv-x="528" 
d="M377 -578q-61 73 -114 176t-94.5 261.5t-41.5 324.5q0 346 162 635h143q-166 -294 -166 -635q0 -231 75.5 -435t176.5 -327h-141z" />
    <glyph glyph-name="parenright.subs" horiz-adv-x="528" 
d="M8 -578q101 122 176.5 326t75.5 436q0 337 -166 635h144q161 -291 161 -635q0 -242 -75 -443.5t-174 -318.5h-142z" />
    <glyph glyph-name="plus.subs" horiz-adv-x="884" 
d="M748 98h-240v-241h-129v241h-242v127h242v244h129v-244h240v-127z" />
    <glyph glyph-name="minus.subs" horiz-adv-x="884" 
d="M137 98v127h611v-127h-611z" />
    <glyph glyph-name="multiply.subs" horiz-adv-x="884" 
d="M614 -98l-170 170l-172 -172l-90 92l172 170l-172 172l90 90l172 -172l170 172l91 -90l-170 -172l170 -170z" />
    <glyph glyph-name="equal.subs" horiz-adv-x="884" 
d="M137 233v125h611v-125h-611zM137 -39v125h611v-125h-611z" />
    <glyph glyph-name="divide.subs" horiz-adv-x="884" 
d="M442 313q-44 0 -75 30.5t-31 74.5t31 75t75 31t75.5 -31t31.5 -75t-31.5 -74.5t-75.5 -30.5zM137 100v123h611v-123h-611zM442 -201q-44 0 -75 30.5t-31 74.5t31 75t75 31t75.5 -31t31.5 -75t-31.5 -74.5t-75.5 -30.5z" />
    <glyph glyph-name="dollar.subs" horiz-adv-x="673" 
d="M391 -444h-98v116q-131 0 -217 49l39 115q84 -41 178 -41q93 0 138.5 31t45.5 82q0 46 -30 73t-101 44l-76 18q-204 50 -204 205q0 85 59 147t168 80v100h98v-94q101 -2 187 -37l-35 -116q-98 32 -168 32q-89 0 -131.5 -29t-42.5 -77q0 -75 121 -100l69 -17
q223 -51 223 -215q0 -87 -56 -153t-167 -88v-125z" />
    <glyph glyph-name="cent.subs" horiz-adv-x="579" 
d="M485 -188q-56 -25 -118 -31v-109h-105v117q-98 23 -150.5 100t-52.5 187q0 108 52.5 185t150.5 101v119h105v-110q68 -6 116 -31l-28 -113q-56 23 -107 23q-71 0 -110 -47.5t-39 -126.5t39 -126.5t110 -47.5q63 0 109 22z" />
    <glyph glyph-name="sterling.subs" horiz-adv-x="690" 
d="M627 -186v-127h-557v127h43q72 0 112.5 34.5t40.5 96.5q0 27 -2 37h-174v79h121l-39 33q-45 41 -68.5 80t-23.5 90q0 96 77.5 156.5t202.5 60.5q124 0 232 -51l-35 -113q-88 43 -184 43q-69 0 -109.5 -30t-40.5 -80q0 -49 45 -90l60 -58q12 -10 34 -41h179v-79h-150
q2 -10 2 -33q0 -83 -59 -135h293z" />
    <glyph glyph-name="florin.subs" horiz-adv-x="557" 
d="M16 -594q-51 0 -86 14l29 109q20 -10 45 -10q44 0 65.5 24t26.5 76l47 471h-114l12 100h109l8 80q22 211 258 211q72 0 121 -22l-39 -109q-36 12 -80 12q-112 0 -123 -104l-6 -68h172l-10 -102h-170l-45 -483q-10 -103 -65 -151t-155 -48z" />
    <glyph glyph-name="yen.subs" horiz-adv-x="741" 
d="M602 -203h-151v-110h-132v110h-155v86h155v54h-155v86h155v51l-274 381h154l184 -281l211 281h154l-297 -381v-51h151v-86h-151v-54h151v-86z" />
    <glyph glyph-name="Euro.subs" horiz-adv-x="663" 
d="M465 111h-459l23 96h57q27 128 108 201t207 73q90 0 174 -43l-30 -116q-70 28 -131 28q-67 0 -114 -37.5t-69 -105.5h258zM516 -307q-54 -21 -115 -21q-126 0 -207 75t-108 206h-80l23 96h417l-22 -96h-193q22 -72 69 -111t114 -39q70 0 133 29z" />
    <glyph glyph-name="zero.numr" 
d="M342 633q-98 0 -166.5 57.5t-98.5 147t-30 202.5q0 110 30 197.5t98.5 144t166.5 56.5q99 0 168 -56.5t99 -144t30 -197.5q0 -113 -30 -202.5t-99 -147t-168 -57.5zM342 760q74 0 115 76t41 204q0 125 -41 198t-115 73t-114 -73t-40 -198q0 -129 40 -204.5t114 -75.5z
" />
    <glyph glyph-name="one.numr" 
d="M606 647h-524v127h192v504l-182 -76v133l180 80q55 25 103 25h39v-666h192v-127z" />
    <glyph glyph-name="two.numr" 
d="M86 647v127q0 42 14 76t45 63.5t54 46.5t67 44l78 47q54 34 82.5 69.5t28.5 81.5q0 52 -41 85.5t-115 33.5q-90 0 -174 -43l-37 113q108 51 223 51q135 0 212 -63t77 -160q0 -83 -48.5 -143.5t-131.5 -112.5l-74 -43q-104 -65 -104 -121v-25h360v-127h-516z" />
    <glyph glyph-name="three.numr" 
d="M301 633q-123 0 -213 39l43 119q74 -31 162 -31q85 0 122.5 35t37.5 86q0 116 -158 116h-84v115h82q63 0 98 31t35 78q0 102 -137 102q-61 0 -162 -33l-31 113q39 16 98.5 27.5t110.5 11.5q132 0 198 -55.5t66 -143.5q0 -58 -32 -109t-82 -73q63 -18 102 -67t39 -115
q0 -109 -73 -177.5t-222 -68.5z" />
    <glyph glyph-name="four.numr" 
d="M410 952v334l-211 -334h211zM631 834h-88v-187h-133v187h-353v110l322 492h164v-484h88v-118z" />
    <glyph glyph-name="five.numr" 
d="M270 631q-117 0 -190 39l45 121q68 -33 149 -33q89 0 143 43t54 121q0 61 -44 98t-116 37t-121 -27l-73 25v379h461v-127h-324v-148q58 15 102 15q106 0 179 -63t73 -183q0 -137 -91 -217t-247 -80z" />
    <glyph glyph-name="six.numr" 
d="M631 922q0 -122 -77 -205.5t-198 -83.5q-135 0 -218 102.5t-83 272.5v28q0 109 30.5 190.5t82 127t110.5 67t125 21.5q105 0 175 -39l-27 -121q-64 33 -150 33q-186 -4 -202 -238q76 90 188 90q115 0 179.5 -72t64.5 -173zM352 760q60 0 97.5 42.5t37.5 104.5
q0 57 -34.5 100.5t-100.5 43.5q-49 0 -91.5 -29t-63.5 -72q3 -75 44 -132.5t111 -57.5z" />
    <glyph glyph-name="seven.numr" 
d="M332 647h-154q23 195 102.5 364.5t182.5 297.5h-387v127h528l6 -95q-58 -75 -111 -171t-102.5 -238.5t-64.5 -284.5z" />
    <glyph glyph-name="eight.numr" 
d="M342 633q-128 0 -205.5 63t-77.5 168q0 65 36.5 115t105.5 74q-111 60 -111 178q0 92 70 151.5t182 59.5q113 0 183.5 -59.5t70.5 -149.5q0 -113 -107 -162q138 -60 138 -203q0 -107 -78.5 -171t-206.5 -64zM348 1112l27 -6q82 37 82 115q0 49 -32 79.5t-83 30.5
q-50 0 -81.5 -30t-31.5 -80q0 -88 119 -109zM342 748q66 0 108 36t42 93q0 93 -121 120l-52 15q-59 -17 -91.5 -54t-32.5 -84q0 -55 41 -90.5t106 -35.5z" />
    <glyph glyph-name="nine.numr" 
d="M348 1024q86 0 141 51v35q0 89 -37 147t-114 58q-64 0 -102.5 -40.5t-38.5 -103.5q0 -62 38.5 -104.5t112.5 -42.5zM303 633q-67 0 -120 16t-81 39l31 117q61 -47 174 -47q80 0 126.5 47t53.5 160q-69 -58 -170 -58q-125 0 -193.5 73.5t-68.5 186.5q0 118 79.5 196.5
t205.5 78.5q136 0 213.5 -94t77.5 -256v-70q0 -109 -26 -187t-73 -121t-103 -62t-126 -19z" />
    <glyph glyph-name="dollar.numr" horiz-adv-x="673" 
d="M391 516h-98v117q-131 0 -217 49l39 115q84 -41 178 -41q93 0 138.5 31t45.5 81q0 46 -30 73t-101 44l-76 19q-204 50 -204 204q0 83 59.5 146.5t167.5 81.5v100h98v-96q106 -3 187 -35l-35 -117q-101 33 -168 33q-89 0 -131.5 -29.5t-42.5 -77.5q0 -75 121 -100l69 -16
q223 -51 223 -215q0 -88 -56 -154.5t-167 -87.5v-125z" />
    <glyph glyph-name="parenleft.numr" horiz-adv-x="528" 
d="M377 383q-61 73 -114 176t-94.5 261.5t-41.5 324.5q0 346 162 635h143q-166 -294 -166 -635q0 -231 75.5 -435t176.5 -327h-141z" />
    <glyph glyph-name="parenright.numr" horiz-adv-x="528" 
d="M8 383q101 122 176.5 326t75.5 436q0 337 -166 635h144q161 -291 161 -635q0 -242 -75 -443.5t-174 -318.5h-142z" />
    <glyph glyph-name="hyphen.numr" horiz-adv-x="884" 
d="M137 971v127h611v-127h-611z" />
    <glyph glyph-name="zero.dnom" 
d="M342 -14q-98 0 -166.5 57.5t-98.5 147t-30 202.5q0 110 30 197.5t98.5 144t166.5 56.5q99 0 168 -56.5t99 -144t30 -197.5q0 -113 -30 -202.5t-99 -147t-168 -57.5zM342 113q74 0 115 76t41 204q0 125 -41 198t-115 73t-114 -73t-40 -198q0 -129 40 -204.5t114 -75.5z
" />
    <glyph glyph-name="one.dnom" 
d="M606 0h-524v127h192v504l-182 -76v133l180 80q55 25 103 25h39v-666h192v-127z" />
    <glyph glyph-name="two.dnom" 
d="M86 0v127q0 42 14 76t45 63.5t53.5 45.5t67.5 44l78 47q111 69 111 152q0 52 -41 85.5t-115 33.5q-90 0 -174 -43l-37 112q110 52 223 52q135 0 212 -63.5t77 -160.5q0 -83 -48.5 -143.5t-131.5 -112.5l-74 -43q-104 -65 -104 -120v-25h360v-127h-516z" />
    <glyph glyph-name="three.dnom" 
d="M301 -14q-123 0 -213 39l43 118q72 -30 162 -30q85 0 122.5 34.5t37.5 85.5q0 117 -158 117h-84v115h82q63 0 98 30.5t35 77.5q0 46 -32 74.5t-105 28.5q-61 0 -162 -33l-31 113q39 16 98.5 27.5t110.5 11.5q132 0 198 -55.5t66 -143.5q0 -58 -32 -109t-82 -73
q63 -18 102 -67.5t39 -115.5q0 -109 -73 -177t-222 -68z" />
    <glyph glyph-name="four.dnom" 
d="M410 305v334l-211 -334h211zM631 186h-88v-186h-133v186h-353v111l322 491h164v-483h88v-119z" />
    <glyph glyph-name="five.dnom" 
d="M270 -14q-117 0 -190 39l45 120q66 -32 149 -32q89 0 143 42.5t54 120.5q0 61 -44 98.5t-116 37.5t-121 -27l-73 25v378h461v-126h-324v-148q54 14 102 14q107 0 179.5 -62.5t72.5 -182.5q0 -137 -91 -217t-247 -80z" />
    <glyph glyph-name="six.dnom" 
d="M631 274q0 -122 -77 -205t-198 -83q-135 0 -218 102t-83 272v29q0 109 30.5 190.5t82 127t110.5 67t125 21.5q105 0 175 -39l-27 -121q-64 33 -150 33q-186 -4 -202 -238q76 90 188 90q115 0 179.5 -72.5t64.5 -173.5zM352 113q60 0 97.5 42.5t37.5 104.5q0 57 -34.5 100
t-100.5 43q-49 0 -91.5 -28.5t-63.5 -71.5q3 -75 44 -132.5t111 -57.5z" />
    <glyph glyph-name="seven.dnom" 
d="M332 0h-154q23 195 102.5 364.5t182.5 297.5h-387v126h528l6 -94q-58 -75 -111 -171t-102.5 -238.5t-64.5 -284.5z" />
    <glyph glyph-name="eight.dnom" 
d="M342 -14q-128 0 -205.5 63t-77.5 168q0 65 36.5 115t105.5 74q-111 60 -111 178q0 92 70 151.5t182 59.5q113 0 183.5 -59.5t70.5 -149.5q0 -113 -107 -162q138 -60 138 -203q0 -107 -78.5 -171t-206.5 -64zM348 465l27 -6q82 37 82 114q0 49 -32 80t-83 31
q-50 0 -81.5 -30.5t-31.5 -80.5q0 -87 119 -108zM342 100q66 0 108 36t42 93q0 94 -121 121l-52 15q-59 -17 -91.5 -54t-32.5 -84q0 -56 41.5 -91.5t105.5 -35.5z" />
    <glyph glyph-name="nine.dnom" 
d="M348 377q86 0 141 51v35q0 89 -37 147t-114 58q-64 0 -102.5 -40.5t-38.5 -103.5q0 -62 38.5 -104.5t112.5 -42.5zM303 -14q-67 0 -120 16t-81 39l31 117q61 -47 174 -47q80 0 126.5 46.5t53.5 159.5q-67 -57 -170 -57q-125 0 -193.5 73.5t-68.5 186.5q0 118 79.5 196.5
t205.5 78.5q136 0 213.5 -94.5t77.5 -256.5v-69q0 -109 -26 -187t-73 -121t-103 -62t-126 -19z" />
    <glyph glyph-name="dollar.dnom" horiz-adv-x="673" 
d="M391 -131h-98v117q-131 0 -217 49l39 115q84 -41 178 -41q93 0 138.5 31t45.5 81q0 46 -30 73t-101 44l-76 18q-204 50 -204 205q0 83 59 146t168 81v101h98v-94q101 -2 187 -37l-35 -117q-101 33 -168 33q-89 0 -131.5 -29.5t-42.5 -77.5q0 -75 121 -100l69 -16
q223 -51 223 -215q0 -87 -56 -153.5t-167 -88.5v-125z" />
    <glyph glyph-name="parenleft.dnom" horiz-adv-x="528" 
d="M377 -264q-61 73 -114 176t-94.5 261.5t-41.5 324.5q0 346 162 635h143q-166 -294 -166 -635q0 -231 75.5 -435t176.5 -327h-141z" />
    <glyph glyph-name="parenright.dnom" horiz-adv-x="528" 
d="M8 -264q101 122 176.5 326t75.5 436q0 337 -166 635h144q161 -291 161 -635q0 -242 -75 -443.5t-174 -318.5h-142z" />
    <glyph glyph-name="hyphen.dnom" horiz-adv-x="884" 
d="M137 324v127h611v-127h-611z" />
    <glyph glyph-name="IJacute" horiz-adv-x="1406" 
d="M1016 1511l282 224h258l-376 -224h-164zM92 1507l283 224h258l-377 -224h-164zM158 0v1434h143v-1434h-143zM827 -20q-180 0 -307 133l90 96q97 -100 215 -100q37 0 70.5 8.5t69.5 32.5t62 62t43 102t17 147v973h140v-985q0 -105 -26.5 -188.5t-67.5 -135t-95.5 -85.5
t-106.5 -47t-104 -13z" />
    <glyph glyph-name="ijacute" horiz-adv-x="993" 
d="M670 1155l149 254h174l-200 -254h-123zM176 1155l150 254h174l-201 -254h-123zM180 0v1024h144v-1024h-144zM508 -518q-73 0 -131 22l24 113q40 -16 88 -16q95 0 142 54.5t47 178.5v1190h143v-1200q0 -93 -25.5 -161.5t-70 -107t-98.5 -56t-119 -17.5z" />
    <glyph glyph-name="gravecomb.case" horiz-adv-x="776" 
d="M438 1620l-295 233h152q81 0 133 -61l143 -172h-133z" />
    <glyph glyph-name="acutecomb.case" horiz-adv-x="821" 
d="M133 1614l283 223h258l-377 -223h-164z" />
    <glyph glyph-name="dieresiscomb.case" horiz-adv-x="1032" 
d="M709 1620q-44 0 -76.5 32.5t-32.5 76.5t32.5 77t76.5 33t76 -33t32 -77t-32 -76.5t-76 -32.5zM283 1620q-44 0 -76.5 32.5t-32.5 76.5t32.5 77t76.5 33t76 -33t32 -77t-32 -76.5t-76 -32.5z" />
    <glyph glyph-name="circumflexcomb.case" horiz-adv-x="1032" 
d="M657 1614l-137 129l-147 -129h-168l260 225h57q28 0 45.5 -6.5t40.5 -26.5l219 -192h-170z" />
    <glyph glyph-name="tildecomb.case" horiz-adv-x="1069" 
d="M256 1645q-20 25 -20 69q0 62 43.5 105t121.5 43q45 0 84 -18.5t61 -41t51.5 -41t59.5 -18.5q42 0 63 41.5t21 85.5h78q15 -21 15 -64q0 -75 -49.5 -125.5t-122.5 -50.5q-38 0 -70.5 12.5t-54.5 30t-41 34.5t-41.5 29.5t-46.5 12.5q-41 0 -60.5 -33t-19.5 -71h-72z" />
    <glyph glyph-name="exclamdown.case" horiz-adv-x="503" 
d="M252 1223q-46 0 -78.5 32t-32.5 78q0 45 33 78t78 33t77.5 -33t32.5 -78q0 -46 -32 -78t-78 -32zM160 0l41 1014h102l41 -1014h-184z" />
    <glyph glyph-name="questiondown.case" horiz-adv-x="858" 
d="M545 1223q-46 0 -78.5 32t-32.5 78q0 45 33 78t78 33t77.5 -33t32.5 -78q0 -46 -32 -78t-78 -32zM473 -20q-113 0 -194 27t-128 78.5t-68.5 118t-21.5 154.5q0 106 34.5 188t94.5 131t131 75.5t152 31.5l19 240h114l10 -334q-55 0 -108.5 -8.5t-109.5 -30t-97.5 -55
t-68.5 -88t-27 -123.5q0 -61 12.5 -108t42 -86t83 -59.5t130.5 -20.5q134 0 266 53l37 -129q-145 -55 -303 -55z" />
    <glyph glyph-name="braceleft.case" horiz-adv-x="634" 
d="M475 -20q-59 0 -107 11.5t-88.5 37t-63.5 72t-23 110.5q0 49 23.5 147t23.5 144q0 61 -35.5 98t-100.5 37h-22v127h22q65 0 100.5 37t35.5 98q0 49 -23.5 156.5t-23.5 161.5q0 64 23 109.5t63.5 70.5t88.5 36t107 11q42 0 74 -4l4 -101q-40 0 -74.5 -6.5t-67.5 -21.5
t-52 -46t-19 -75q0 -50 20.5 -145t20.5 -136q0 -203 -182 -207v-6q85 -2 133.5 -48.5t48.5 -155.5q0 -38 -20.5 -123t-20.5 -131q0 -36 13 -63.5t34 -44t50 -27t57 -14t59 -3.5l-4 -102q-32 -4 -74 -4z" />
    <glyph glyph-name="braceright.case" horiz-adv-x="634" 
d="M160 -20q-42 0 -74 4l-4 102q31 0 59 3.5t57 14t50 27t34 44t13 63.5q0 46 -20.5 131t-20.5 123q0 109 48.5 155.5t133.5 48.5v6q-182 4 -182 207q0 41 20.5 136t20.5 145q0 44 -19 75t-52 46t-67.5 21.5t-74.5 6.5l4 101q32 4 74 4q59 0 107 -11t88.5 -36t63.5 -70.5
t23 -109.5q0 -54 -23.5 -161.5t-23.5 -156.5q0 -61 35 -98t100 -37h23v-127h-23q-65 0 -100 -37t-35 -98q0 -46 23.5 -144t23.5 -147q0 -64 -23 -110.5t-63.5 -72t-88.5 -37t-107 -11.5z" />
    <glyph glyph-name="bracketleft.case" horiz-adv-x="618" 
d="M475 113v-113h-291v1434h291v-113h-147v-1208h147z" />
    <glyph glyph-name="bracketright.case" horiz-adv-x="618" 
d="M434 0h-291v113h148v1208h-148v113h291v-1434z" />
    <glyph glyph-name="emdash.case" horiz-adv-x="2138" 
d="M287 684v129h1564v-129h-1564z" />
    <glyph glyph-name="endash.case" horiz-adv-x="1339" 
d="M184 684v129h971v-129h-971z" />
    <glyph glyph-name="hyphen.case" horiz-adv-x="989" 
d="M160 684v129h669v-129h-669z" />
    <glyph glyph-name="guillemotleft.case" horiz-adv-x="1079" 
d="M780 229l-344 410v14l344 410h176l-348 -416l348 -418h-176zM446 229l-344 410v14l344 410h177l-349 -416l349 -418h-177z" />
    <glyph glyph-name="guillemotright.case" horiz-adv-x="1083" 
d="M461 229l348 418l-348 416h176l344 -410v-14l-344 -410h-176zM123 229l348 418l-348 416h176l344 -410v-14l-344 -410h-176z" />
    <glyph glyph-name="guilsinglleft.case" horiz-adv-x="745" 
d="M446 229l-344 410v14l344 410h177l-349 -416l349 -418h-177z" />
    <glyph glyph-name="guilsinglright.case" horiz-adv-x="745" 
d="M123 229l348 418l-348 416h176l344 -410v-14l-344 -410h-176z" />
    <glyph glyph-name="arrowdown.case" horiz-adv-x="1312" 
d="M659 -20h-4l-417 415q-33 33 -33 84v119l393 -393l-6 393v836h129v-836l-6 -395l393 395v-119q0 -51 -33 -84z" />
    <glyph glyph-name="arrowup.case" horiz-adv-x="1312" 
d="M721 825v-825h-129v825l6 394l-393 -394v119q0 51 33 84l417 416h4l416 -416q33 -33 33 -84v-119l-393 396z" />
    <glyph glyph-name="arrowupdn.case" horiz-adv-x="1312" 
d="M653 -20l-415 288q-33 24 -33 84v78l393 -272l-6 291v526l6 289l-393 -271v78q0 61 33 84l417 289h4l416 -289q33 -21 33 -84v-78l-393 273l6 -291v-526l-6 -289l393 270v-78q0 -61 -33 -84l-418 -288h-4z" />
    <glyph glyph-name="arrowboth.case" horiz-adv-x="2283" 
d="M705 297q-51 0 -84 33l-416 418v4l416 415q33 33 84 33h118l-395 -393l395 6h637l395 -6l-395 393h119q51 0 84 -33l416 -415v-4l-416 -418q-33 -33 -84 -33h-119l393 393l-393 -6h-637l-393 6l393 -393h-118z" />
    <glyph glyph-name="arrowleft.case" horiz-adv-x="1585" 
d="M823 684l-393 6l393 -393h-118q-51 0 -84 33l-416 418v4l416 415q33 33 84 33h118l-395 -393l395 6h598v-129h-598z" />
    <glyph glyph-name="arrowright.case" horiz-adv-x="1585" 
d="M881 297h-119l393 393l-393 -6h-598v129h598l395 -6l-395 393h119q51 0 84 -33l415 -415v-4l-415 -418q-33 -33 -84 -33z" />
    <glyph glyph-name="arrowdownleft.case" horiz-adv-x="1769" 
d="M879 0h-672l-2 2v672q0 49 31 76l92 90v-635l1228 1237l91 -92l-1246 -1235h643l-90 -86q-29 -29 -75 -29z" />
    <glyph glyph-name="arrowdownright.case" horiz-adv-x="1767" 
d="M1561 0h-672q-47 0 -76 29l-90 86h643l-1243 1237l90 92l1227 -1239v635l92 -90q31 -27 31 -76v-672z" />
    <glyph glyph-name="arrowupleft.case" horiz-adv-x="1761" 
d="M1638 92l-90 -92l-1220 1229v-635l-92 90q-31 27 -31 76v672l2 2h672q46 0 75 -29l90 -86h-643z" />
    <glyph glyph-name="arrowupright.case" horiz-adv-x="1761" 
d="M1434 594v635l-1221 -1229l-90 92l1237 1227h-643l90 86q29 29 76 29h671l2 -2v-672q0 -50 -30 -76z" />
    <glyph glyph-name="at.case" horiz-adv-x="2056" 
d="M956 -340q-181 0 -335.5 65t-264 181.5t-171.5 285t-62 367.5q0 172 45 325t128 271.5t196 204.5t253.5 131t296.5 45q189 0 353.5 -64.5t283 -179t186.5 -282t68 -365.5q0 -116 -22 -211.5t-59 -160t-86 -109t-102.5 -64.5t-109.5 -20q-125 0 -202 95.5t-80 238.5
l-4 100q-37 -206 -137.5 -320t-229.5 -114q-146 0 -239 122t-93 341q0 124 35.5 232t100 188.5t163.5 127t219 46.5q109 0 211 -52l68 33l25 -10v-678q0 -104 46 -161.5t119 -57.5q45 0 85 23.5t75 72t55.5 135.5t20.5 203q0 173 -57 317.5t-156.5 243t-238 153t-298.5 54.5
q-167 0 -310.5 -60.5t-247 -170t-162 -270.5t-58.5 -353q0 -349 191 -557.5t501 -208.5q125 0 238 37l41 -125q-130 -45 -279 -45zM913 213q63 0 122.5 48t108 136.5t78 229t29.5 309.5v39q-73 43 -168 43q-161 0 -263.5 -128.5t-102.5 -344.5q0 -158 53 -245t143 -87z" />
    <glyph glyph-name="colon.case" horiz-adv-x="630" 
d="M315 819q-46 0 -78 31.5t-32 77.5t32 78t78 32t78.5 -32t32.5 -78t-32.5 -77.5t-78.5 -31.5zM315 266q-46 0 -78 31.5t-32 77.5t32 78t78 32t78.5 -32t32.5 -78t-32.5 -77.5t-78.5 -31.5z" />
    <glyph glyph-name="periodcentered.case" horiz-adv-x="548" 
d="M274 596q-46 0 -78 31.5t-32 77.5t32 78t78 32t78.5 -32t32.5 -78t-32.5 -77.5t-78.5 -31.5z" />
    <glyph glyph-name="LA.calt" horiz-adv-x="1003" 
d="M154 0v1434h139v-1305h649l-49 -129h-739z" />
    <glyph glyph-name="ZA.calt" horiz-adv-x="1107" 
d="M997 0h-915v27q0 66 31 116l725 1162h-715v129h891v-35q0 -57 -23 -99l-733 -1171h789z" />
    <glyph glyph-name="EA.calt" horiz-adv-x="1146" 
d="M154 0v1434h890v-129h-751v-492h680v-129h-680v-555h751l-45 -129h-845z" />
    <glyph glyph-name="EgraveA.calt" horiz-adv-x="1146" 
d="M586 1518l-295 233h151q81 0 133 -61l144 -172h-133zM154 0v1434h890v-129h-751v-492h680v-129h-680v-555h751l-45 -129h-845z" />
    <glyph glyph-name="EacuteA.calt" horiz-adv-x="1146" 
d="M410 1511l282 224h258l-377 -224h-163zM154 0v1434h890v-129h-751v-492h680v-129h-680v-555h751l-45 -129h-845z" />
    <glyph glyph-name="EcircumflexA.calt" horiz-adv-x="1146" 
d="M725 1511l-137 129l-148 -129h-168l260 226h58q28 0 45.5 -6.5t40.5 -26.5l219 -193h-170zM154 0v1434h890v-129h-751v-492h680v-129h-680v-555h751l-45 -129h-845z" />
    <glyph glyph-name="EdieresisA.calt" horiz-adv-x="1146" 
d="M793 1518q-44 0 -76.5 32t-32.5 76t32.5 77.5t76.5 33.5t76 -33t32 -78q0 -44 -32 -76t-76 -32zM367 1518q-44 0 -76.5 32t-32.5 76t32.5 77.5t76.5 33.5t76 -33t32 -78q0 -44 -32 -76t-76 -32zM154 0v1434h890v-129h-751v-492h680v-129h-680v-555h751l-45 -129h-845z
" />
    <glyph glyph-name="LM.calt" horiz-adv-x="1011" 
d="M154 0v1434h139v-1305h647l-25 -129h-761z" />
    <glyph glyph-name="EM.calt" horiz-adv-x="1146" 
d="M154 0v1434h890v-129h-751v-492h680v-129h-680v-555h751l-24 -129h-866z" />
    <glyph glyph-name="EgraveM.calt" horiz-adv-x="1146" 
d="M586 1518l-295 233h151q81 0 133 -61l144 -172h-133zM154 0v1434h890v-129h-751v-492h680v-129h-680v-555h751l-24 -129h-866z" />
    <glyph glyph-name="EacuteM.calt" horiz-adv-x="1146" 
d="M410 1511l282 224h258l-377 -224h-163zM154 0v1434h890v-129h-751v-492h680v-129h-680v-555h751l-24 -129h-866z" />
    <glyph glyph-name="EcircumflexM.calt" horiz-adv-x="1146" 
d="M725 1511l-137 129l-148 -129h-168l260 226h58q28 0 45.5 -6.5t40.5 -26.5l219 -193h-170zM154 0v1434h890v-129h-751v-492h680v-129h-680v-555h751l-24 -129h-866z" />
    <glyph glyph-name="EdieresisM.calt" horiz-adv-x="1146" 
d="M793 1518q-44 0 -76.5 32t-32.5 76t32.5 77.5t76.5 33.5t76 -33t32 -78q0 -44 -32 -76t-76 -32zM367 1518q-44 0 -76.5 32t-32.5 76t32.5 77.5t76.5 33.5t76 -33t32 -78q0 -44 -32 -76t-76 -32zM154 0v1434h890v-129h-751v-492h680v-129h-680v-555h751l-24 -129h-866z
" />
    <glyph glyph-name="EW.calt" horiz-adv-x="1157" 
d="M154 0v1434h866l24 -129h-751v-492h680v-129h-680v-555h751v-129h-890z" />
    <glyph glyph-name="EgraveW.calt" horiz-adv-x="1157" 
d="M586 1518l-295 233h151q81 0 133 -61l144 -172h-133zM154 0v1434h866l24 -129h-751v-492h680v-129h-680v-555h751v-129h-890z" />
    <glyph glyph-name="EacuteW.calt" horiz-adv-x="1157" 
d="M410 1511l282 224h258l-377 -224h-163zM154 0v1434h866l24 -129h-751v-492h680v-129h-680v-555h751v-129h-890z" />
    <glyph glyph-name="EcircumflexW.calt" horiz-adv-x="1157" 
d="M725 1511l-137 129l-148 -129h-168l260 226h58q28 0 45.5 -6.5t40.5 -26.5l219 -193h-170zM154 0v1434h866l24 -129h-751v-492h680v-129h-680v-555h751v-129h-890z" />
    <glyph glyph-name="EdieresisW.calt" horiz-adv-x="1157" 
d="M793 1518q-44 0 -76.5 32t-32.5 76t32.5 77.5t76.5 33.5t76 -33t32 -78q0 -44 -32 -76t-76 -32zM367 1518q-44 0 -76.5 32t-32.5 76t32.5 77.5t76.5 33.5t76 -33t32 -78q0 -44 -32 -76t-76 -32zM154 0v1434h866l24 -129h-751v-492h680v-129h-680v-555h751v-129h-890z" />
    <glyph glyph-name="EV.calt" horiz-adv-x="1146" 
d="M154 0v1434h841l49 -129h-751v-492h680v-129h-680v-555h751v-129h-890z" />
    <glyph glyph-name="EgraveV.calt" horiz-adv-x="1146" 
d="M586 1518l-295 233h151q81 0 133 -61l144 -172h-133zM154 0v1434h841l49 -129h-751v-492h680v-129h-680v-555h751v-129h-890z" />
    <glyph glyph-name="EacuteV.calt" horiz-adv-x="1146" 
d="M410 1511l282 224h258l-377 -224h-163zM154 0v1434h841l49 -129h-751v-492h680v-129h-680v-555h751v-129h-890z" />
    <glyph glyph-name="EcircumflexV.calt" horiz-adv-x="1146" 
d="M725 1511l-137 129l-148 -129h-168l260 226h58q28 0 45.5 -6.5t40.5 -26.5l219 -193h-170zM154 0v1434h841l49 -129h-751v-492h680v-129h-680v-555h751v-129h-890z" />
    <glyph glyph-name="EdieresisV.calt" horiz-adv-x="1146" 
d="M793 1518q-44 0 -76.5 32t-32.5 76t32.5 77.5t76.5 33.5t76 -33t32 -78q0 -44 -32 -76t-76 -32zM367 1518q-44 0 -76.5 32t-32.5 76t32.5 77.5t76.5 33.5t76 -33t32 -78q0 -44 -32 -76t-76 -32zM154 0v1434h841l49 -129h-751v-492h680v-129h-680v-555h751v-129h-890z" />
    <glyph glyph-name="TW.calt" horiz-adv-x="1138" 
d="M504 0v1294l-424 33v107h962l25 -107l-424 -33v-1294h-139z" />
    <glyph glyph-name="TV.calt" horiz-adv-x="1138" 
d="M504 0v1294l-424 33v107h954l33 -107l-424 -33v-1294h-139z" />
    </font>
</defs>
</svg>
