<?xml version="1.0" standalone="no"?>
<!DOCTYPE svg PUBLIC "-//W3C//DTD SVG 1.1//EN" "http://www.w3.org/Graphics/SVG/1.1/DTD/svg11.dtd" >
<svg xmlns="http://www.w3.org/2000/svg" xmlns:xlink="http://www.w3.org/1999/xlink" version="1.1">
<metadata>
Created by FontForge 20201107 at Thu Oct 16 23:11:19 2025
 By 
Copyright 2015 LATAM Airlines. All Rights Reserved.
</metadata>
<defs>
<font id="LatamSans-Hairline" horiz-adv-x="657" >
  <font-face 
    font-family="Latam Sans Hairline"
    font-weight="250"
    font-stretch="normal"
    units-per-em="2048"
    panose-1="2 11 2 5 3 4 3 2 2 4"
    ascent="1536"
    descent="-512"
    x-height="1024"
    cap-height="1434"
    bbox="-123 -721 2259 2030"
    underline-thickness="0"
    underline-position="0"
    unicode-range="U+0020-FB04"
  />
<missing-glyph horiz-adv-x="1228" 
 />
    <glyph glyph-name="ff" unicode="ff" horiz-adv-x="1368" 
d="M272 0v999l-188 7v18h188v152q0 156 83 239.5t233 83.5q35 0 81 -8.5t72 -22.5l-10 -20q-24 12 -67 20.5t-76 8.5q-60 0 -110.5 -16.5t-92 -51t-65 -94.5t-23.5 -141v-150h577v199q0 156 83 239.5t233 83.5q35 0 81 -8t72 -22l-10 -21q-24 12 -67 20.5t-76 8.5
q-60 0 -110.5 -16.5t-92 -51t-65 -94.5t-23.5 -141v-197h391v-20l-391 -5v-999h-25v999h-577v-999h-25z" />
    <glyph glyph-name="fi" unicode="fi" horiz-adv-x="1163" 
d="M272 0v995l-188 11v18h188v199q0 156 83 239.5t233 83.5q35 0 81 -8t72 -22l-10 -21q-24 12 -67 20.5t-76 8.5q-60 0 -110.5 -16.5t-92 -51t-65 -94.5t-23.5 -141v-197h391v-20l-391 -11v-993h-25zM952 1294q-15 0 -26 11t-11 26t11 26t26 11t26 -11t11 -26t-11 -26
t-26 -11zM938 0v1024h25v-1024h-25z" />
    <glyph glyph-name="fl" unicode="fl" horiz-adv-x="1165" 
d="M1026 -8q-108 0 -108 117v1427h24v-1427q0 -49 20.5 -72t63.5 -23q39 0 84 25l10 -21q-38 -26 -94 -26zM272 0v995l-188 11v18h188v199q0 156 83 239.5t233 83.5q35 0 81 -8t72 -22l-10 -21q-24 12 -67 20.5t-76 8.5q-60 0 -110.5 -16.5t-92 -51t-65 -94.5t-23.5 -141
v-197h391v-20l-391 -11v-993h-25z" />
    <glyph glyph-name="ffi" unicode="ffi" horiz-adv-x="1748" 
d="M1538 1294q-15 0 -26 11t-11 26t11 26t26 11t26 -11t11 -26t-11 -26t-26 -11zM1524 0v1024h24v-1024h-24zM272 0v999l-188 7v18h188v152q0 156 83 239.5t233 83.5q35 0 81 -8.5t72 -22.5l-10 -20q-24 12 -67 20.5t-76 8.5q-60 0 -110.5 -16.5t-92 -51t-65 -94.5
t-23.5 -141v-150h586v199q0 156 82.5 239.5t232.5 83.5q35 0 81.5 -8t72.5 -22l-11 -21q-24 12 -67 20.5t-76 8.5q-60 0 -110.5 -16.5t-92 -51t-65 -94.5t-23.5 -141v-197h391v-20l-391 -5v-999h-24v999h-586v-999h-25z" />
    <glyph glyph-name="ffl" unicode="ffl" horiz-adv-x="1755" 
d="M1616 -8q-109 0 -109 117v1427h25v-1427q0 -49 20.5 -72t63.5 -23q39 0 84 25l10 -21q-38 -26 -94 -26zM272 0v999l-188 7v18h188v152q0 156 83 239.5t233 83.5q35 0 81 -8.5t72 -22.5l-10 -20q-24 12 -67 20.5t-76 8.5q-60 0 -110.5 -16.5t-92 -51t-65 -94.5t-23.5 -141
v-150h577v199q0 156 83 239.5t233 83.5q35 0 81 -8t72 -22l-10 -21q-24 12 -67 20.5t-76 8.5q-60 0 -110.5 -16.5t-92 -51t-65 -94.5t-23.5 -141v-197h391v-20l-391 -5v-999h-25v999h-577v-999h-25z" />
    <glyph glyph-name="f_b" unicode="fb" horiz-adv-x="1785" 
d="M1194 -10q-172 0 -297 57v1489h25v-786q31 141 130 217.5t224 76.5q96 0 171.5 -39.5t121 -107t69 -152.5t23.5 -182q0 -117 -28.5 -218.5t-84 -182t-146.5 -126.5t-208 -46zM272 0v995l-188 11v18h188v199q0 156 83 239.5t233 83.5q35 0 81 -8t72 -22l-10 -21
q-24 12 -67 20.5t-76 8.5q-60 0 -110.5 -16.5t-92 -51t-65 -94.5t-23.5 -141v-197h391v-20l-391 -11v-993h-25zM1194 14q94 0 169.5 31t125.5 83.5t84 124t48.5 149t14.5 161.5q0 89 -20.5 168.5t-62.5 145.5t-113.5 104.5t-165.5 38.5q-65 0 -125 -25t-112 -76t-83.5 -141
t-31.5 -207v-508q104 -49 272 -49z" />
    <glyph glyph-name="f_f_b" unicode="ffb" horiz-adv-x="2383" 
d="M1792 -10q-172 0 -297 57v1489h25v-786q31 141 130 217.5t224 76.5q96 0 171.5 -39.5t121 -107t69 -152.5t23.5 -182q0 -117 -28.5 -218.5t-84 -182t-146.5 -126.5t-208 -46zM1792 14q94 0 169.5 31t125.5 83.5t84 124t48.5 149t14.5 161.5q0 89 -20.5 168.5t-62.5 145.5
t-113.5 104.5t-165.5 38.5q-65 0 -125 -25t-112 -76t-83.5 -141t-31.5 -207v-508q104 -49 272 -49zM272 0v999l-188 7v18h188v152q0 156 83 239.5t233 83.5q35 0 81 -8.5t72 -22.5l-10 -20q-24 12 -67 20.5t-76 8.5q-60 0 -110.5 -16.5t-92 -51t-65 -94.5t-23.5 -141v-150
h573v199q0 156 83 239.5t233 83.5q35 0 81 -8t72 -22l-10 -21q-24 12 -67 20.5t-76 8.5q-60 0 -110.5 -16.5t-92 -51t-65 -94.5t-23.5 -141v-197h391v-20l-391 -5v-999h-25v999h-573v-999h-25z" />
    <glyph glyph-name="f_h" unicode="fh" horiz-adv-x="1732" 
d="M272 0v995l-188 11v18h188v199q0 156 83 239.5t233 83.5q35 0 81 -8t72 -22l-10 -21q-24 12 -67 20.5t-76 8.5q-60 0 -110.5 -16.5t-92 -51t-65 -94.5t-23.5 -141v-197h391v-20l-391 -11v-993h-25zM911 676v-676h-24v1536h24v-727q19 76 75.5 131t125.5 79.5t143 24.5
q164 0 253 -83.5t89 -243.5v-717h-24v709q0 164 -85 238.5t-233 74.5q-61 0 -118.5 -19t-109.5 -58t-84 -108.5t-32 -160.5z" />
    <glyph glyph-name="f_f_h" unicode="ffh" horiz-adv-x="2347" 
d="M1526 676v-676h-25v1536h25v-727q19 76 75.5 131t125.5 79.5t143 24.5q164 0 253 -83.5t89 -243.5v-717h-25v709q0 313 -317 313q-61 0 -118.5 -19t-109.5 -58t-84 -108.5t-32 -160.5zM272 0v999l-188 7v18h188v152q0 156 83 239.5t233 83.5q35 0 81 -8.5t72 -22.5
l-10 -20q-24 12 -67 20.5t-76 8.5q-60 0 -110.5 -16.5t-92 -51t-65 -94.5t-23.5 -141v-150h565v199q0 156 83 239.5t233 83.5q35 0 81 -8t72 -22l-10 -21q-24 12 -67 20.5t-76 8.5q-60 0 -110.5 -16.5t-92 -51t-65 -94.5t-23.5 -141v-197h391v-20l-391 -5v-999h-25v999h-565
v-999h-25z" />
    <glyph glyph-name="f_k" unicode="fk" horiz-adv-x="1636" 
d="M272 0v995l-188 11v18h188v199q0 156 83 239.5t233 83.5q35 0 81 -8t72 -22l-10 -21q-24 12 -67 20.5t-76 8.5q-60 0 -110.5 -16.5t-92 -51t-65 -94.5t-23.5 -141v-197h391v-20l-391 -11v-993h-25zM928 10q-7 -10 -19 -10h-12v1536h25v-1493l616 981h29l-336 -535
l352 -489h-29l-340 467z" />
    <glyph glyph-name="f_f_k" unicode="ffk" horiz-adv-x="2238" 
d="M272 0v999l-188 7v18h188v152q0 156 83 239.5t233 83.5q35 0 81 -8.5t72 -22.5l-10 -20q-24 12 -67 20.5t-76 8.5q-60 0 -110.5 -16.5t-92 -51t-65 -94.5t-23.5 -141v-150h565v199q0 156 83 239.5t233 83.5q35 0 81 -8t72 -22l-10 -21q-24 12 -67 20.5t-76 8.5
q-60 0 -110.5 -16.5t-92 -51t-65 -94.5t-23.5 -141v-197h391v-20l-391 -5v-999h-25v999h-565v-999h-25zM1530 10q-7 -10 -19 -10h-12v1536h25v-1493l616 981h29l-336 -535l352 -489h-28l-340 467z" />
    <glyph glyph-name="f_j" unicode="fj" horiz-adv-x="1153" 
d="M272 0v995l-188 11v18h188v199q0 156 83 239.5t233 83.5q35 0 81 -8t72 -22l-10 -21q-24 12 -67 20.5t-76 8.5q-60 0 -110.5 -16.5t-92 -51t-65 -94.5t-23.5 -141v-197h391v-20l-391 -11v-993h-25zM942 1294q-15 0 -26 11t-11 26t11 26t26 11t26 -11t11 -26t-11 -26
t-26 -11zM750 -520q-59 0 -107 31l10 20q49 -29 97 -29q90 0 134 63t44 204v1255h24v-1266q0 -150 -53 -214t-149 -64z" />
    <glyph glyph-name="f_f_j" unicode="ffj" horiz-adv-x="1748" 
d="M1538 1294q-15 0 -26 11t-11 26t11 26t26 11t26 -11t11 -26t-11 -26t-26 -11zM272 0v999l-188 7v18h188v152q0 156 83 239.5t233 83.5q35 0 81 -8.5t72 -22.5l-10 -20q-24 12 -67 20.5t-76 8.5q-60 0 -110.5 -16.5t-92 -51t-65 -94.5t-23.5 -141v-150h584v199
q0 156 82.5 239.5t232.5 83.5q35 0 81.5 -8t72.5 -22l-11 -21q-24 12 -67 20.5t-76 8.5q-60 0 -110.5 -16.5t-92 -51t-65 -94.5t-23.5 -141v-197h385v-20l-385 -5v-999h-24v999h-584v-999h-25zM1346 -520q-59 0 -107 31l10 20q49 -29 97 -29q90 0 134 63t44 204v1255h24
v-1266q0 -150 -53 -214t-149 -64z" />
    <glyph glyph-name="f_idieresis" unicode="f&#xef;" horiz-adv-x="1175" 
d="M272 0v995l-188 11v18h188v199q0 156 83 239.5t233 83.5q35 0 81 -8t72 -22l-10 -21q-24 12 -67 20.5t-76 8.5q-60 0 -110.5 -16.5t-92 -51t-65 -94.5t-23.5 -141v-197h391v-20l-391 -11v-993h-25zM1061 1292q-17 0 -27 11t-10 28t10 28t27 11t28 -11t11 -28t-11 -28
t-28 -11zM840 1292q-17 0 -28 11t-11 28t11 28t28 11t27 -11t10 -28t-10 -28t-27 -11zM938 0v1024h25v-1024h-25z" />
    <glyph glyph-name=".notdef" horiz-adv-x="1228" 
 />
    <glyph glyph-name=".null" horiz-adv-x="0" 
 />
    <glyph glyph-name="nonmarkingreturn" horiz-adv-x="682" 
 />
    <glyph glyph-name="space" unicode=" " horiz-adv-x="507" 
 />
    <glyph glyph-name="exclam" unicode="!" horiz-adv-x="397" 
d="M186 252l-4 1182h29l-4 -1182h-21zM199 -20q-20 0 -32.5 12.5t-12.5 32.5t12.5 32.5t32.5 12.5t32.5 -12.5t12.5 -32.5t-12.5 -32.5t-32.5 -12.5z" />
    <glyph glyph-name="quotedbl" unicode="&#x22;" horiz-adv-x="458" 
d="M309 1061l-10 330v43h49v-43l-16 -330h-23zM121 1061l-10 330v43h49v-43l-17 -330h-22z" />
    <glyph glyph-name="numbersign" unicode="#" horiz-adv-x="1140" 
d="M733 506l29 422h-354l-29 -422h354zM698 0l33 481h-354l-33 -481h-25l33 481h-209v25h211l29 422h-240v24h242l33 482h24l-32 -482h354l33 482h24l-33 -482h209v-24h-211l-28 -422h239v-25h-241l-33 -481h-25z" />
    <glyph glyph-name="dollar" unicode="$" horiz-adv-x="1077" 
d="M451 776l94 -24v667q-200 -10 -311 -103t-111 -226q0 -121 81.5 -196.5t246.5 -117.5zM571 717h-2v-709q196 22 295 116t99 232q0 142 -89.5 223.5t-302.5 137.5zM569 -240h-24v224q-58 -4 -90 -4q-115 0 -193.5 16t-155.5 49l9 25q153 -68 340 -68q32 0 90 4v717l-99 27
q-179 47 -263.5 130t-84.5 210q0 141 117 241t330 111v174h24v-172h27q185 0 340 -68l-10 -20q-158 65 -330 65h-27v-676l6 -2q219 -57 314.5 -146.5t95.5 -240.5q0 -146 -104.5 -247t-311.5 -123v-226z" />
    <glyph glyph-name="percent" unicode="%" horiz-adv-x="1349" 
d="M227 0h-30l925 1395q-111 -35 -282 -35q-39 0 -86.5 5t-75 10t-86 16t-72.5 14q64 -37 100.5 -102t36.5 -146q0 -118 -82 -198t-204 -80q-117 0 -198 80.5t-81 197.5q0 122 80.5 204.5t198.5 82.5q61 0 220 -31t249 -31q188 0 331 52v-4q0 -5 -4 -13zM371 903
q114 0 188 74t74 180q0 115 -73.5 188.5t-188.5 73.5q-106 0 -180 -74t-74 -188q0 -104 75 -179t179 -75zM971 -20q-117 0 -198 80.5t-81 197.5q0 122 80.5 204.5t198.5 82.5q123 0 204.5 -82t81.5 -205q0 -118 -82 -198t-204 -80zM971 4q114 0 188 74t74 180
q0 116 -73.5 189t-188.5 73q-106 0 -180 -74t-74 -188q0 -104 75 -179t179 -75z" />
    <glyph glyph-name="ampersand" unicode="&#x26;" horiz-adv-x="1433" 
d="M1286 -18q-136 54 -305 170q-205 -168 -459 -168q-192 0 -316 100.5t-124 261.5q0 81 27.5 149t79 119.5t111.5 89.5t138 72q-53 138 -53 268q0 179 104 289.5t252 110.5q107 0 179.5 -68.5t72.5 -175.5q0 -55 -15.5 -101.5t-53 -85.5t-69 -66t-97.5 -59t-101.5 -47.5
t-114.5 -47.5q-28 -11 -42 -17q-5 -2 -15.5 -6t-15.5 -6q70 -167 206.5 -316t303.5 -266q116 97 200 237.5t128 315.5l24 -8q-95 -358 -332 -559q158 -108 297 -164zM410 1044q0 -131 51 -258q8 2 26 11q194 77 255 109q169 87 211 201q16 43 16 93q0 97 -65 158t-163 61
q-138 0 -234.5 -103.5t-96.5 -271.5zM522 8q238 0 439 158q-167 121 -304.5 272t-207.5 316q-76 -34 -133 -69.5t-107 -84.5t-76.5 -113t-26.5 -141q0 -153 118 -245.5t298 -92.5z" />
    <glyph glyph-name="quotesingle" unicode="'" horiz-adv-x="270" 
d="M121 1061l-10 330v43h49v-43l-17 -330h-22z" />
    <glyph glyph-name="parenleft" unicode="(" horiz-adv-x="565" 
d="M502 -338q-57 70 -109.5 164.5t-101 219t-78 283t-29.5 322.5q0 165 29 323t78 282.5t101.5 219t109.5 166.5h33q-132 -158 -229 -422.5t-97 -568.5q0 -207 51.5 -409t122 -342t152.5 -238h-33z" />
    <glyph glyph-name="parenright" unicode=")" horiz-adv-x="565" 
d="M31 -338q60 72 115.5 171.5t103.5 225t77 280.5t29 312q0 158 -28.5 313t-76.5 280.5t-103.5 225t-116.5 172.5h32q57 -72 109.5 -166.5t101.5 -219t78 -282.5t29 -323q0 -164 -29.5 -322.5t-78 -283t-101 -219t-109.5 -164.5h-32z" />
    <glyph glyph-name="asterisk" unicode="*" horiz-adv-x="770" 
d="M655 936l-256 147v-282h-24v282l-258 -147l-15 18l263 148l-252 149l10 19l252 -150v277h24v-277l258 150l11 -19l-258 -149l256 -148z" />
    <glyph glyph-name="plus" unicode="+" horiz-adv-x="1024" 
d="M858 649h-334v-334h-24v334h-336v25h336v336h24v-336h334v-25z" />
    <glyph glyph-name="comma" unicode="," horiz-adv-x="409" 
d="M125 -309l-12 20q54 35 88.5 90.5t34.5 124.5q0 45 -25.5 79t-67.5 34q0 12 11 21.5t30 9.5q38 0 63 -38t25 -95q0 -80 -41.5 -142t-105.5 -104z" />
    <glyph glyph-name="hyphen" unicode="-" horiz-adv-x="980" 
d="M164 567v25h653v-25h-653z" />
    <glyph glyph-name="period" unicode="." horiz-adv-x="438" 
d="M219 -20q-20 0 -32.5 12.5t-12.5 32.5t12.5 32.5t32.5 12.5t32.5 -12.5t12.5 -32.5t-12.5 -32.5t-32.5 -12.5z" />
    <glyph glyph-name="slash" unicode="/" horiz-adv-x="1101" 
d="M258 -240l561 1856h25l-561 -1856h-25z" />
    <glyph glyph-name="zero" unicode="0" horiz-adv-x="1126" 
d="M567 -20q-112 0 -203 57t-151 157t-92.5 235t-32.5 292q0 153 32.5 285t93 229.5t151.5 153t202 55.5q146 0 254 -96t162.5 -258.5t54.5 -368.5q0 -211 -54.5 -377.5t-162.5 -265t-254 -98.5zM567 4q138 0 240.5 98t153.5 259t51 360q0 195 -50.5 351t-153 250.5
t-241.5 94.5q-140 0 -244.5 -94.5t-156 -250.5t-51.5 -351q0 -201 51.5 -362t155.5 -258t245 -97z" />
    <glyph glyph-name="one" unicode="1" horiz-adv-x="1126" 
d="M975 0h-823v25h399v1382l-385 -137v26l366 131q17 7 33 7h10v-1409h400v-25z" />
    <glyph glyph-name="two" unicode="2" horiz-adv-x="1126" 
d="M131 0v53q0 54 13 104t31.5 88.5t53.5 79.5t63.5 68.5t78.5 64t81.5 57t88.5 56.5l65 41q66 42 110.5 73.5t96 77.5t81.5 90.5t50.5 103.5t20.5 124q0 66 -24.5 125t-74 107.5t-133 77t-192.5 28.5q-167 0 -344 -82l-9 23q190 84 353 84q90 0 165 -20t126.5 -54
t87.5 -80.5t52.5 -99t16.5 -109.5q0 -51 -12 -99t-30 -86t-49 -76.5t-60 -66.5t-73.5 -61.5t-78.5 -55.5t-84 -54l-65 -41q-71 -45 -115.5 -76t-100.5 -79.5t-87.5 -93.5t-53.5 -107t-22 -130v-30h835v-25h-862z" />
    <glyph glyph-name="three" unicode="3" horiz-adv-x="1126" 
d="M475 -20q-89 0 -191 18t-159 39l8 24q164 -57 342 -57q110 0 197.5 20.5t143.5 55t93 83t52.5 101t15.5 111.5q0 187 -122 270.5t-357 83.5h-131v23h131q106 0 189 28t133.5 75.5t76 108t25.5 128.5q0 149 -105 239t-323 90q-69 0 -133.5 -11t-102 -23t-92.5 -33l-10 22
q181 68 338 68q225 0 338.5 -94.5t113.5 -257.5q0 -131 -80.5 -226t-234.5 -125q78 -7 141.5 -29.5t116.5 -64t82.5 -110.5t29.5 -162q0 -181 -129.5 -288t-396.5 -107z" />
    <glyph glyph-name="four" unicode="4" horiz-adv-x="1126" 
d="M795 483v910l-682 -910h682zM1081 459h-262v-459h-24v459h-719v18l719 957h24v-951h262v-24z" />
    <glyph glyph-name="five" unicode="5" horiz-adv-x="1126" 
d="M438 -20q-79 0 -161.5 15.5t-129.5 33.5l9 24q45 -18 127 -33.5t157 -15.5q71 0 140 15t140 52.5t124.5 93.5t87 146.5t33.5 202.5q0 95 -27 170t-72 122.5t-107.5 79t-129 44t-142.5 12.5q-84 0 -174 -14.5t-151 -36.5l-23 10v533h772v-25h-747v-491q53 19 145.5 34
t186.5 15q97 0 181 -24t156 -75t114 -141.5t42 -212.5q0 -118 -35 -212.5t-90.5 -153t-130 -98t-147.5 -55t-148 -15.5z" />
    <glyph glyph-name="six" unicode="6" horiz-adv-x="1126" 
d="M1010 473q0 -138 -51 -249t-150 -177.5t-229 -66.5q-93 0 -169.5 35t-128.5 94.5t-87.5 141t-51.5 173t-16 192.5v56q0 166 29 299t78 220t117.5 145t144 83t161.5 25q63 0 118 -12.5t83 -25t64 -32.5l-15 -24q-108 67 -250 67q-82 0 -153 -23.5t-134.5 -77t-109 -134.5
t-73.5 -202t-31 -273q67 84 175.5 149.5t235.5 65.5q115 0 202.5 -37t138.5 -101.5t76.5 -142.5t25.5 -168zM582 6q184 0 292.5 132.5t108.5 336.5q0 82 -22.5 154t-69 133t-130 97t-194.5 36q-70 0 -138.5 -23.5t-120.5 -61t-90 -74.5t-62 -72v-48q0 -93 14 -179
t46.5 -165.5t80.5 -137.5t121.5 -93t163.5 -35z" />
    <glyph glyph-name="seven" unicode="7" horiz-adv-x="1126" 
d="M379 0h-25q17 134 53 271t78 250.5t100 233t107 205.5t112 182t100.5 149t86.5 118h-893v25h930v-17q-560 -730 -649 -1417z" />
    <glyph glyph-name="eight" unicode="8" horiz-adv-x="1126" 
d="M565 -20q-220 0 -346.5 103t-126.5 271q0 77 31 145t85 119.5t116 90t135 67.5q-307 93 -307 330q0 150 117 244t294 94t294.5 -94t117.5 -244q0 -251 -320 -356q180 -52 279.5 -149.5t99.5 -242.5q0 -168 -129 -273t-340 -105zM524 782l92 -22q66 20 120 46.5t105 67
t80 100t29 132.5q0 137 -108.5 226t-278.5 89t-278.5 -89t-108.5 -226q0 -129 92.5 -206.5t255.5 -117.5zM565 2q203 0 324 100.5t121 255.5q0 146 -105 237.5t-301 141.5l-96 25l-14 4q-76 -28 -141 -65.5t-119.5 -88.5t-85.5 -118.5t-31 -143.5q0 -153 119.5 -250.5
t328.5 -97.5z" />
    <glyph glyph-name="nine" unicode="9" horiz-adv-x="1126" 
d="M553 569q78 0 149.5 22t122 56.5t84.5 67.5t54 65v94q0 161 -41 280t-134 191t-231 72q-178 0 -290.5 -122t-112.5 -304q0 -65 12.5 -123.5t42.5 -114t75 -96t114 -64.5t155 -24zM518 -20q-167 0 -309 92l16 24q132 -90 293 -90q82 0 146 17.5t122 64.5t95.5 124
t59.5 201.5t22 291.5v34q-36 -46 -87 -86.5t-139 -75t-184 -34.5q-110 0 -194.5 37t-133.5 101t-73.5 142.5t-24.5 169.5q0 191 121 321t311 130q144 0 242 -74t143 -199.5t45 -296.5v-167q0 -174 -24 -304t-64.5 -210t-102.5 -128.5t-128.5 -66.5t-151.5 -18z" />
    <glyph glyph-name="colon" unicode=":" horiz-adv-x="499" 
d="M250 690q-20 0 -32.5 12.5t-12.5 32.5t12.5 32.5t32.5 12.5t32.5 -12.5t12.5 -32.5t-12.5 -32.5t-32.5 -12.5zM250 203q-20 0 -32.5 12.5t-12.5 32.5t12.5 32.5t32.5 12.5t32.5 -12.5t12.5 -32.5t-12.5 -32.5t-32.5 -12.5z" />
    <glyph glyph-name="semicolon" unicode=";" horiz-adv-x="438" 
d="M219 678q-20 0 -32.5 12.5t-12.5 32.5t12.5 32.5t32.5 12.5t32.5 -12.5t12.5 -32.5t-12.5 -32.5t-32.5 -12.5zM150 -274l-13 18q54 32 88.5 82.5t34.5 112.5q0 42 -25 72t-67 30q0 11 11 20t30 9q38 0 63 -34t25 -87q0 -134 -147 -223z" />
    <glyph glyph-name="less" unicode="&#x3c;" horiz-adv-x="1228" 
d="M1059 270l-895 344v31l895 344v-28l-864 -330l864 -332v-29z" />
    <glyph glyph-name="equal" unicode="=" horiz-adv-x="1024" 
d="M164 784v25h694v-25h-694zM164 463v24h694v-24h-694z" />
    <glyph glyph-name="greater" unicode="&#x3e;" horiz-adv-x="1228" 
d="M164 270v29l864 332l-864 330v28l895 -344v-31z" />
    <glyph glyph-name="question" unicode="?" horiz-adv-x="825" 
d="M342 252h-20l-5 385q64 0 122.5 11.5t116.5 41t100 74t68 116.5t26 164q0 78 -18.5 144t-56 119.5t-102.5 83.5t-151 30q-101 0 -179.5 -44.5t-121.5 -104.5l-19 14q42 64 126.5 111t193.5 47q90 0 159 -31t110.5 -86.5t62 -125.5t20.5 -154q0 -94 -26 -169t-68.5 -122.5
t-100 -80t-116 -46.5t-121.5 -15v-362zM334 -20q-19 0 -32 13.5t-13 33.5q0 19 13 32t32 13t32 -13t13 -32q0 -20 -13 -33.5t-32 -13.5z" />
    <glyph glyph-name="at" unicode="@" horiz-adv-x="2056" 
d="M975 -440q-178 0 -329 64.5t-258.5 180t-167.5 283t-60 367.5q0 220 72 406.5t193 311t280 194t333 69.5t324.5 -63t258.5 -175.5t170 -276t62 -356.5q0 -138 -28 -249.5t-74.5 -179t-102 -103t-114.5 -35.5q-110 0 -178 93t-68 265v133q-31 -224 -144.5 -366.5
t-244.5 -142.5q-134 0 -216.5 111.5t-82.5 303.5q0 140 41.5 259.5t110 199.5t159 125t187.5 45q107 0 190 -53l6 33h19v-646q0 -160 60.5 -247.5t160.5 -87.5q54 0 105 33.5t94 97.5t69.5 171t26.5 240q0 190 -60.5 349.5t-166 268t-251 168.5t-313.5 60
q-170 0 -324.5 -67.5t-272.5 -188.5t-187.5 -303t-69.5 -397q0 -196 58.5 -360t163 -275.5t251 -173.5t318.5 -62q150 0 268 43l10 -22q-130 -45 -278 -45zM899 4q57 0 112.5 30t105.5 91.5t88 147t60.5 205.5t22.5 257v205q-76 59 -188 59q-94 0 -180 -43t-151.5 -120
t-104.5 -191.5t-39 -249.5q0 -178 74.5 -284.5t199.5 -106.5z" />
    <glyph glyph-name="A" unicode="A" horiz-adv-x="1208" 
d="M907 594l-303 801l-301 -801h604zM1130 0l-215 569h-622l-215 -569h-27l545 1444h6q10 0 14 -12l541 -1432h-27z" />
    <glyph glyph-name="B" unicode="B" horiz-adv-x="1196" 
d="M524 -20q-110 0 -219.5 14.5t-171.5 34.5v1405h440q209 0 332 -92t123 -252q0 -139 -84 -231t-217 -114q167 -22 269 -116t102 -234q0 -191 -147.5 -303t-426.5 -112zM571 1409h-413v-653h456q172 0 281 91t109 243q0 150 -116.5 234.5t-316.5 84.5zM522 4
q270 0 410.5 106t140.5 285q0 153 -129 244.5t-330 91.5h-456v-684q134 -43 364 -43z" />
    <glyph glyph-name="C" unicode="C" horiz-adv-x="1136" 
d="M684 -20q-91 0 -176 28t-159 86.5t-129 142t-86.5 202t-31.5 259.5q0 144 32 266.5t88 210t132 149t163.5 91t182.5 29.5q55 0 109 -10.5t92 -25t68 -29.5t45 -25l14 -11l-14 -20q-5 4 -15 10.5t-42 23t-66.5 29t-86.5 23t-104 10.5q-113 0 -214.5 -46.5t-182 -134
t-127.5 -227.5t-47 -313q0 -170 46.5 -305.5t125 -218.5t176.5 -126.5t207 -43.5q56 0 111 11t94.5 26t70.5 30.5t46 26.5l16 11l12 -23q-6 -4 -16.5 -11.5t-46 -25.5t-73.5 -32t-96.5 -25.5t-117.5 -11.5z" />
    <glyph glyph-name="D" unicode="D" horiz-adv-x="1257" 
d="M516 -20q-220 0 -383 75v1379h438q271 0 427.5 -158.5t156.5 -470.5q0 -417 -169.5 -621t-469.5 -204zM516 6q289 0 449.5 198t160.5 601q0 300 -147.5 452t-415.5 152h-403v-1335q139 -68 356 -68z" />
    <glyph glyph-name="E" unicode="E" horiz-adv-x="1071" 
d="M133 0v1434h836v-25h-809v-649h731v-25h-731v-710h809v-25h-836z" />
    <glyph glyph-name="F" unicode="F" horiz-adv-x="1005" 
d="M133 0v1434h811v-25h-786v-649h708v-25h-708v-735h-25z" />
    <glyph glyph-name="G" unicode="G" horiz-adv-x="1206" 
d="M1104 86q-6 -4 -18 -11.5t-51 -25.5t-81 -32t-107 -25.5t-130 -11.5q-96 0 -185.5 28.5t-168 88t-136.5 144t-91.5 204.5t-33.5 262t34 263t94 207.5t140.5 147t173 90t193.5 29.5q59 0 116 -10.5t97 -25t72 -29.5t48 -25l15 -11l-14 -20q-6 4 -16 10.5t-44 23t-70.5 29
t-92 23t-111.5 10.5q-120 0 -228 -46t-193.5 -132.5t-136 -224.5t-50.5 -309q0 -172 49 -309t132.5 -221.5t187.5 -128.5t219 -44q84 0 167 20.5t124 39t71 36.5v648h25v-662z" />
    <glyph glyph-name="H" unicode="H" horiz-adv-x="1265" 
d="M133 0v1434h27v-674h946v674h27v-1434h-27v735h-946v-735h-27z" />
    <glyph glyph-name="I" unicode="I" horiz-adv-x="380" 
d="M178 0v1434h25v-1434h-25z" />
    <glyph glyph-name="J" unicode="J" horiz-adv-x="833" 
d="M334 -10q-186 0 -318 141l19 16q127 -133 299 -133q165 0 258.5 108.5t93.5 336.5v975h25v-967q0 -248 -100.5 -362.5t-276.5 -114.5z" />
    <glyph glyph-name="K" unicode="K" horiz-adv-x="972" 
d="M907 0l-749 741v-741h-25v1434h25v-672l688 672h35l-701 -682l762 -752h-35z" />
    <glyph glyph-name="L" unicode="L" horiz-adv-x="962" 
d="M133 0v1434h25v-1409h764v-25h-789z" />
    <glyph glyph-name="M" unicode="M" horiz-adv-x="1550" 
d="M752 324l-379 1091l-293 -1415h-29l301 1444h10q26 0 35 -29l381 -1087l426 1116h10q26 0 31 -33l254 -1411h-26l-252 1413l-426 -1116h-15q-20 0 -28 27z" />
    <glyph glyph-name="N" unicode="N" horiz-adv-x="1286" 
d="M1133 8l-975 1381l4 -1389h-29v1444h8q10 0 19 -12l968 -1373l-4 1375h29v-1434h-8q-7 0 -12 8z" />
    <glyph glyph-name="O" unicode="O" horiz-adv-x="1331" 
d="M670 -20q-176 0 -306.5 98.5t-196 265t-65.5 377.5q0 206 66 368.5t196.5 258.5t305.5 96q173 0 301.5 -96t193 -258.5t64.5 -368.5q0 -211 -64.5 -377.5t-193 -265t-301.5 -98.5zM670 4q166 0 288.5 98t183 259t60.5 360q0 145 -35.5 271t-101 221t-167.5 149.5
t-228 54.5q-168 0 -292.5 -94.5t-186.5 -250.5t-62 -351q0 -150 36 -280t103.5 -227.5t171 -153.5t230.5 -56z" />
    <glyph glyph-name="P" unicode="P" horiz-adv-x="1126" 
d="M483 543q123 0 221 27t159.5 71t102.5 105.5t57.5 125.5t16.5 136q0 80 -24.5 147.5t-79 126.5t-154.5 93t-237 34h-387v-809q57 -26 146 -41.5t179 -15.5zM483 518q-201 0 -325 57v-575h-25v1434h412q114 0 204.5 -24t148.5 -64t96.5 -95.5t54.5 -115.5t16 -127
q0 -78 -18.5 -147t-62 -133t-109 -110t-166 -73t-226.5 -27z" />
    <glyph glyph-name="Q" unicode="Q" horiz-adv-x="1331" 
d="M670 4q166 0 288.5 98t183 259t60.5 360q0 145 -35.5 271t-101 221t-167.5 149.5t-228 54.5q-168 0 -292.5 -94.5t-186.5 -250.5t-62 -351q0 -150 36 -280t103.5 -227.5t171 -153.5t230.5 -56zM1204 -117l-4 -26q-284 14 -502 68.5t-329 146.5q-128 95 -197.5 265
t-69.5 384q0 206 66 368.5t196.5 258.5t305.5 96q173 0 301.5 -96t193 -258.5t64.5 -368.5q0 -211 -64.5 -377.5t-193 -265t-301.5 -98.5q-42 0 -86 6q262 -91 620 -103z" />
    <glyph glyph-name="R" unicode="R" horiz-adv-x="1148" 
d="M483 543q123 0 221 27t159.5 71t102.5 105.5t57.5 125.5t16.5 136q0 80 -24.5 147.5t-79 126.5t-154.5 93t-237 34h-387v-809q57 -26 146 -41.5t179 -15.5zM483 518q-201 0 -325 57v-575h-25v1434h412q114 0 204.5 -24t148.5 -64t96.5 -95.5t54.5 -115.5t16 -127
q0 -83 -22 -156t-67.5 -137.5t-125.5 -111.5t-188 -68l417 -535h-30l-412 530q-71 -12 -154 -12z" />
    <glyph glyph-name="S" unicode="S" horiz-adv-x="1077" 
d="M455 -20q-115 0 -193.5 16t-155.5 49l9 27q153 -68 340 -68q252 0 380 97.5t128 254.5q0 142 -89.5 223.5t-302.5 137.5l-125 33q-179 47 -263.5 130t-84.5 210q0 72 32 135t92 112.5t156.5 78t217.5 28.5q185 0 340 -68l-10 -22q-158 65 -330 65q-223 0 -348 -94.5
t-125 -234.5q0 -121 81.5 -196.5t246.5 -117.5l124 -33q220 -57 316 -146.5t96 -240.5q0 -80 -31.5 -146.5t-94 -118.5t-166.5 -81.5t-240 -29.5z" />
    <glyph glyph-name="T" unicode="T" horiz-adv-x="1044" 
d="M510 0v1399l-479 14v21h983v-21l-479 -14v-1399h-25z" />
    <glyph glyph-name="U" unicode="U" horiz-adv-x="1286" 
d="M643 -10q-118 0 -210.5 33t-163 102.5t-108.5 186.5t-38 276v846h24v-854q0 -290 131.5 -428t364.5 -138t364.5 138t131.5 428v854h24v-846q0 -159 -38 -276t-108.5 -186.5t-163 -102.5t-210.5 -33z" />
    <glyph glyph-name="V" unicode="V" horiz-adv-x="1208" 
d="M616 -10h-12q-12 0 -18 14l-535 1430h12q14 0 21 -17l520 -1388l526 1405h27z" />
    <glyph glyph-name="W" unicode="W" horiz-adv-x="1929" 
d="M1325 6l-364 1317l-381 -1333h-9q-14 0 -20 14l-500 1430h8q21 0 27 -19l481 -1374l381 1327h6q19 0 25 -18l364 -1315l504 1399h31l-526 -1444h-9q-13 0 -18 16z" />
    <glyph glyph-name="X" unicode="X" horiz-adv-x="1110" 
d="M1042 8l-487 699l-494 -707h-30l510 725l-498 709h20q11 0 17 -9l475 -682l481 691h31l-498 -709l510 -725h-20q-12 0 -17 8z" />
    <glyph glyph-name="Y" unicode="Y" horiz-adv-x="1112" 
d="M545 0v506l-504 928h12q14 0 23 -15l481 -887l487 902h27l-502 -928v-506h-24z" />
    <glyph glyph-name="Z" unicode="Z" horiz-adv-x="1009" 
d="M958 0h-907v6q0 14 10 29l836 1374h-801v25h832v-7q0 -10 -6 -22l-836 -1380h872v-25z" />
    <glyph glyph-name="bracketleft" unicode="[" horiz-adv-x="448" 
d="M356 -352v-25h-172v2067h172v-25h-147v-2017h147z" />
    <glyph glyph-name="backslash" unicode="\" horiz-adv-x="1101" 
d="M819 -240l-561 1856h25l561 -1856h-25z" />
    <glyph glyph-name="bracketright" unicode="]" horiz-adv-x="448" 
d="M264 -377h-172v25h148v2017h-148v25h172v-2067z" />
    <glyph glyph-name="underscore" unicode="_" horiz-adv-x="1021" 
d="M164 -25v25h694v-25h-694z" />
    <glyph glyph-name="grave" unicode="`" horiz-adv-x="700" 
d="M471 1200l-266 336h14q18 0 27 -14l250 -322h-25z" />
    <glyph glyph-name="a" unicode="a" horiz-adv-x="980" 
d="M475 2q121 0 213 57.5t123 130.5v60q0 163 -94.5 257.5t-245.5 94.5q-137 0 -235.5 -85t-98.5 -222q0 -130 95.5 -211.5t242.5 -81.5zM811 0v147q-29 -60 -121.5 -113.5t-214.5 -53.5q-157 0 -258.5 86.5t-101.5 228.5q0 101 50.5 177.5t130.5 114.5t175 38
q133 0 227 -71t113 -177v309q0 75 -17.5 134.5t-54.5 105.5t-100.5 71t-151.5 25q-92 0 -165.5 -24t-118.5 -56l-13 19q121 83 297 83q179 0 264 -96t85 -256v-692h-25z" />
    <glyph glyph-name="b" unicode="b" horiz-adv-x="1044" 
d="M453 -10q-172 0 -297 57v1489h24v-786q31 141 130.5 217.5t224.5 76.5q96 0 171.5 -39.5t121 -107t69 -152.5t23.5 -182q0 -117 -28.5 -218.5t-84 -182t-146.5 -126.5t-208 -46zM453 14q94 0 169.5 31t125.5 83.5t84 124t48.5 149t14.5 161.5q0 71 -12.5 135.5t-40.5 124
t-69.5 103t-103 69t-137.5 25.5q-65 0 -125 -25t-112 -76t-83.5 -141t-31.5 -207v-508q104 -49 273 -49z" />
    <glyph glyph-name="c" unicode="c" horiz-adv-x="899" 
d="M557 -20q-111 0 -195.5 43t-135.5 118.5t-76 170t-25 206.5q0 107 26 200t76.5 167t135.5 116.5t194 42.5q165 0 266 -106l-16 -16q-92 98 -252 98q-105 0 -185.5 -42.5t-127 -115t-69.5 -159.5t-23 -185q0 -81 14 -155t45.5 -140t78 -114t115 -76.5t152.5 -28.5
q80 0 150.5 26t115.5 64l15 -18q-49 -41 -122.5 -68.5t-156.5 -27.5z" />
    <glyph glyph-name="d" unicode="d" horiz-adv-x="1044" 
d="M528 4q139 0 237.5 102.5t98.5 249.5v531q-40 48 -122.5 90.5t-176.5 42.5q-130 0 -226 -74t-142.5 -191.5t-46.5 -260.5q0 -97 23.5 -183.5t68.5 -156t119 -110t167 -40.5zM864 229q-10 -40 -36.5 -81.5t-67.5 -80t-102 -63t-130 -24.5q-79 0 -145.5 28t-113.5 76
t-79.5 113.5t-48 140t-16.5 156.5q-1 113 28.5 212.5t84 174.5t139.5 119t188 44q94 0 176 -39.5t123 -86.5v618h25v-1536h-25v229z" />
    <glyph glyph-name="e" unicode="e" horiz-adv-x="1013" 
d="M532 1020q-154 0 -246 -96.5t-122 -253.5h696v16q0 66 -18 123.5t-55.5 106t-102.5 76.5t-152 28zM899 113q-55 -58 -146 -95.5t-204 -37.5q-108 0 -191.5 43t-133 118t-74.5 168.5t-25 202.5t23.5 203t71 168.5t127.5 117.5t185 43q92 0 161.5 -29t110.5 -80t61 -115
t20 -140v-33h-725q-10 -72 -10 -135q0 -79 13.5 -150.5t43.5 -137.5t75.5 -114.5t113.5 -77t153 -28.5q105 0 194.5 35.5t139.5 89.5z" />
    <glyph glyph-name="f" unicode="f" horiz-adv-x="765" 
d="M272 0v995l-188 11v18h188v199q0 156 83 239.5t233 83.5q35 0 81 -8t72 -22l-10 -21q-24 12 -67 20.5t-76 8.5q-60 0 -110.5 -16.5t-92 -51t-65 -94.5t-23.5 -141v-197h391v-20l-391 -11v-993h-25z" />
    <glyph glyph-name="g" unicode="g" horiz-adv-x="976" 
d="M428 -522q-179 0 -273 74t-94 204q0 73 35 135.5t93.5 106.5t114.5 73t118 50l-8 2q-111 35 -111 106q0 70 100 103l91 30q-8 -2 -21 -2q-165 0 -261.5 96t-96.5 249q0 152 96.5 245.5t259.5 93.5q102 0 180 -38l275 73l8 -22l-33 -10l-221 -58q70 -43 108.5 -116.5
t38.5 -165.5q0 -131 -63 -211t-160 -115l-184 -66q-92 -31 -92 -86q0 -56 100 -86l193 -59q54 -17 91 -31.5t75 -37t60.5 -49.5t37 -66t14.5 -88q0 -154 -133 -244t-338 -90zM471 383q64 0 122 19.5t106 57.5t76 102t28 145q0 135 -89 224t-243 89t-243 -89.5t-89 -225.5
q0 -140 89 -231t243 -91zM428 -498q192 0 319 83t127 227q0 54 -17.5 93.5t-54.5 68t-79.5 47t-106.5 38.5l-159 50q-52 -16 -99.5 -36.5t-98.5 -52.5t-88 -69.5t-61 -88t-24 -106.5q0 -122 89 -188t253 -66z" />
    <glyph glyph-name="h" unicode="h" horiz-adv-x="991" 
d="M170 676v-676h-25v1536h25v-727q19 76 75.5 131t125.5 79.5t143 24.5q164 0 253 -83.5t89 -243.5v-717h-25v709q0 313 -317 313q-61 0 -118.5 -19t-109.5 -58t-84 -108.5t-32 -160.5z" />
    <glyph glyph-name="i" unicode="i" horiz-adv-x="421" 
d="M211 1294q-15 0 -26 11t-11 26t11 26t26 11t26 -11t11 -26t-11 -26t-26 -11zM197 0v1024h24v-1024h-24z" />
    <glyph glyph-name="j" unicode="j" horiz-adv-x="411" 
d="M201 1294q-15 0 -26 11t-11 26t11 26t26 11t26 -11t11 -26t-11 -26t-26 -11zM8 -520q-58 0 -106 31l10 20q49 -29 96 -29q90 0 134 63t44 204v1255h25v-1266q0 -150 -53.5 -214t-149.5 -64z" />
    <glyph glyph-name="k" unicode="k" horiz-adv-x="894" 
d="M186 10q-7 -10 -18 -10h-12v1536h24v-1493l617 981h28l-336 -535l353 -489h-29l-340 467z" />
    <glyph glyph-name="l" unicode="l" horiz-adv-x="423" 
d="M285 -8q-109 0 -109 117v1427h25v-1427q0 -49 20.5 -72t63.5 -23q39 0 84 25l10 -21q-38 -26 -94 -26z" />
    <glyph glyph-name="m" unicode="m" horiz-adv-x="1654" 
d="M170 676v-676h-25v1024h9q12 0 12 -16l6 -187q21 72 77 124.5t124 75.5t141 23q146 0 232.5 -63.5t103.5 -187.5q23 121 120 186t214 65q161 0 248.5 -83.5t87.5 -243.5v-717h-25v709q0 313 -313 313q-58 0 -113 -19t-104 -58t-79 -108.5t-30 -160.5v-676h-25v709
q0 313 -319 313q-60 0 -118 -19t-109.5 -58t-83 -108.5t-31.5 -160.5z" />
    <glyph glyph-name="n" unicode="n" horiz-adv-x="991" 
d="M170 676v-676h-25v1024h9q12 0 12 -16l6 -189q20 73 76.5 125.5t124.5 76t141 23.5q165 0 253.5 -83.5t88.5 -243.5v-717h-25v709q0 313 -317 313q-61 0 -118.5 -19t-109.5 -58t-84 -108.5t-32 -160.5z" />
    <glyph glyph-name="o" unicode="o" horiz-adv-x="1067" 
d="M537 -20q-132 0 -226.5 73t-140 193t-45.5 272q0 149 45.5 266.5t140 188.5t226.5 71q128 0 221 -71t138.5 -188.5t45.5 -266.5q0 -152 -45.5 -272t-138.5 -193t-221 -73zM537 4q120 0 208 70t130.5 185t42.5 259q0 140 -42.5 252.5t-130.5 181t-208 68.5
q-124 0 -213 -68.5t-131.5 -180.5t-42.5 -253q0 -145 42.5 -259t131.5 -184.5t213 -70.5z" />
    <glyph glyph-name="p" unicode="p" horiz-adv-x="1044" 
d="M457 4q93 0 168 32t124.5 85t83 126t48 151.5t14.5 164.5q0 71 -12.5 135.5t-40.5 124t-69.5 103t-103 69t-137.5 25.5q-65 0 -125 -25t-112 -76t-83.5 -141t-31.5 -207v-489q116 -78 277 -78zM180 53v-565h-24v1536h8q12 0 12 -16l6 -248q32 138 130.5 211t222.5 73
q96 0 171.5 -39.5t121 -107t69 -152.5t23.5 -182q0 -119 -28 -222.5t-83 -185t-145.5 -128.5t-206.5 -47q-174 0 -277 73z" />
    <glyph glyph-name="q" unicode="q" horiz-adv-x="1044" 
d="M889 -512h-25v741q-10 -40 -36.5 -81.5t-67.5 -80t-102 -63t-130 -24.5q-79 0 -145.5 28t-113.5 76t-79.5 113.5t-48 140t-16.5 156.5q-1 113 28.5 212.5t84 174.5t139.5 119t188 44q94 0 176 -39.5t123 -86.5v106h25v-1536zM528 4q139 0 237.5 102.5t98.5 249.5v531
q-41 48 -122 90.5t-175 42.5q-131 0 -227.5 -74t-143 -191.5t-46.5 -260.5q0 -97 23.5 -183.5t68.5 -156t119 -110t167 -40.5z" />
    <glyph glyph-name="r" unicode="r" horiz-adv-x="608" 
d="M170 0h-25v1024h9q12 0 12 -16l6 -187q29 107 119 165t194 58q35 0 70 -6l-6 -24q-40 8 -68 8q-55 0 -107.5 -19t-99.5 -58t-75.5 -108.5t-28.5 -160.5v-676z" />
    <glyph glyph-name="s" unicode="s" horiz-adv-x="897" 
d="M387 -20q-123 0 -250 45l8 24q2 -1 25.5 -9t30 -9.5t28.5 -8t35.5 -8.5t35 -5.5t43 -5t44.5 -1.5q184 0 277.5 72.5t93.5 189.5q0 104 -69 167.5t-222 86.5l-29 4q-307 46 -307 252q0 114 98 192t275 78q118 0 241 -45l-8 -22q-107 35 -170 42q-30 3 -63 3
q-163 0 -255.5 -71.5t-92.5 -176.5q0 -185 293 -229l28 -4q305 -43 305 -275q0 -127 -99 -206.5t-296 -79.5z" />
    <glyph glyph-name="t" unicode="t" horiz-adv-x="706" 
d="M485 -20q-101 0 -157 64t-56 214v737l-188 11v18h188v305h25v-305h315v-18l-315 -13v-725q0 -141 46.5 -203.5t141.5 -62.5q60 0 107 29l10 -21q-43 -30 -117 -30z" />
    <glyph glyph-name="u" unicode="u" horiz-adv-x="978" 
d="M823 0l-6 211q-20 -72 -76.5 -124t-124 -74.5t-139.5 -22.5q-159 0 -245.5 83t-86.5 242v709h25v-700q0 -163 83 -237.5t228 -74.5q47 0 93 11.5t90.5 37.5t78.5 64.5t55 98t21 132.5v668h25v-1024h-21z" />
    <glyph glyph-name="v" unicode="v" horiz-adv-x="839" 
d="M428 -20h-6q-14 0 -19 16l-350 1028h8q19 0 25 -18l332 -975l342 993h26z" />
    <glyph glyph-name="w" unicode="w" horiz-adv-x="1368" 
d="M1008 -4l-324 991l-328 -1007h-6q-13 0 -18 16l-279 1028h10q18 0 21 -16l262 -977l326 993h10q15 0 20 -16l320 -979l266 995h27l-283 -1044h-6q-13 0 -18 16z" />
    <glyph glyph-name="x" unicode="x" horiz-adv-x="897" 
d="M817 8l-368 500l-375 -508h-31l391 528l-366 496h18q12 0 20 -10l343 -463l350 473h30l-366 -496l391 -528h-20q-12 0 -17 8z" />
    <glyph glyph-name="y" unicode="y" horiz-adv-x="970" 
d="M504 -520q-105 0 -186.5 47.5t-122.5 110.5l18 14q42 -59 118.5 -104.5t172.5 -45.5q89 0 150.5 26t95 75.5t47.5 110t14 139.5v358q-18 -75 -73 -129t-123 -78t-140 -24q-158 0 -244 82.5t-86 242.5v719h25v-711q0 -311 309 -311q46 0 91 11.5t89 37.5t77.5 64.5t54 98
t20.5 132.5v678h25v-1178q0 -174 -77.5 -270t-254.5 -96z" />
    <glyph glyph-name="z" unicode="z" horiz-adv-x="813" 
d="M739 0h-665v4q0 10 10 27l600 968h-578v25h613v-6q0 -14 -6 -23l-602 -970h628v-25z" />
    <glyph glyph-name="braceleft" unicode="{" horiz-adv-x="534" 
d="M399 -387q-206 0 -206 287q0 90 23.5 269.5t23.5 262.5q0 93 -26.5 147t-78.5 54h-53v26h53q52 0 78.5 54t26.5 147q0 83 -23.5 263t-23.5 270q0 85 17 143.5t47.5 88.5t64.5 42t77 12q17 0 33 -4v-16q-52 0 -88.5 -11t-66.5 -39.5t-45 -82t-15 -133.5q0 -96 23.5 -275.5
t23.5 -257.5q0 -108 -30 -157.5t-66 -55.5v-2q36 -6 66 -55.5t30 -157.5q0 -78 -23.5 -257t-23.5 -275q0 -79 15 -133t45 -82.5t66.5 -40t88.5 -11.5v-16q-16 -4 -33 -4z" />
    <glyph glyph-name="bar" unicode="|" horiz-adv-x="1089" 
d="M532 -240v1856h25v-1856h-25z" />
    <glyph glyph-name="braceright" unicode="}" horiz-adv-x="534" 
d="M135 -387q-17 0 -33 4v16q52 0 88.5 11.5t66.5 40t45 82.5t15 133q0 96 -23.5 275t-23.5 257q0 108 30.5 157.5t66.5 55.5v2q-36 6 -66.5 55.5t-30.5 157.5q0 78 23.5 257.5t23.5 275.5q0 80 -15 133.5t-45 82t-66.5 39.5t-88.5 11v16q16 4 33 4q43 0 77 -12t65 -42
t48 -88.5t17 -143.5q0 -90 -23.5 -270t-23.5 -263q0 -93 26 -147t78 -54h54v-26h-54q-52 0 -78 -54t-26 -147q0 -83 23.5 -262.5t23.5 -269.5q0 -287 -207 -287z" />
    <glyph glyph-name="exclamdown" unicode="&#xa1;" horiz-adv-x="397" 
d="M199 961q-17 0 -28 10.5t-11 27.5t11 28t28 11t28 -11t11 -28t-11 -27.5t-28 -10.5zM182 -512l4 1284h21l4 -1284h-29z" />
    <glyph glyph-name="cent" unicode="&#xa2;" horiz-adv-x="944" 
d="M539 180h-7v-200h-24v200q-101 6 -178.5 51.5t-124 120t-69.5 167t-23 200.5q0 103 23.5 193t70.5 163t124 118t177 52v199h24v-199h7q159 0 260 -106l-17 -17q-95 101 -245 101q-105 0 -184.5 -42.5t-125 -115t-68 -160t-22.5 -186.5q0 -104 23 -193.5t69 -163.5
t125 -116.5t183 -42.5q78 0 147 26.5t115 65.5l12 -16q-119 -99 -272 -99z" />
    <glyph glyph-name="sterling" unicode="&#xa3;" horiz-adv-x="1161" 
d="M1067 25v-25h-954v25h90q152 0 246 96.5t94 255.5q0 86 -23 151h-338v25h330q-38 88 -141 178l-66 57q-79 70 -122.5 141.5t-43.5 164.5q0 162 131.5 256t339.5 94q118 0 202.5 -21t168.5 -59l-6 -23q-183 78 -367 78q-192 0 -317 -86t-125 -239q0 -85 36.5 -148.5
t121.5 -138.5l61 -55q119 -107 156 -199h352v-25h-344q20 -61 20 -151q0 -136 -67.5 -231t-165.5 -121h731z" />
    <glyph glyph-name="currency" unicode="&#xa4;" horiz-adv-x="1333" 
d="M1081 172l-182 184q-103 -100 -242 -100q-138 0 -229 94l-176 -178l-16 18l176 177q-93 101 -93 227q0 141 101 242l-184 182l18 16l182 -182q102 96 242 96q129 0 225 -90l176 176l19 -16l-178 -176q92 -95 92 -228q0 -138 -97 -241l183 -183zM657 283q134 0 232 98
t98 231q0 127 -92 219q-93 93 -219 93q-133 0 -232 -99q-98 -98 -98 -231q0 -127 92 -219t219 -92z" />
    <glyph glyph-name="yen" unicode="&#xa5;" horiz-adv-x="1112" 
d="M893 256h-324v-256h-24v256h-326v25h326v168h-326v24h326v68l-504 893h27l489 -865l487 865h27l-502 -893v-68h324v-24h-324v-168h324v-25z" />
    <glyph glyph-name="brokenbar" unicode="&#xa6;" horiz-adv-x="1089" 
d="M532 887v729h25v-729h-25zM532 -240v729h25v-729h-25z" />
    <glyph glyph-name="section" unicode="&#xa7;" horiz-adv-x="1142" 
d="M537 248q96 -100 148 -171t73 -151q89 29 132.5 107.5t43.5 179.5q0 61 -17 117t-53 110t-70 94t-89 97l-160 164q-114 119 -150 217q-93 -23 -139.5 -95.5t-46.5 -164.5q0 -101 44.5 -179t121.5 -157zM473 -512q-137 0 -256 111l16 20q110 -106 240 -106q71 0 125.5 25
t86.5 68t47.5 95.5t15.5 112.5q0 61 -17 117t-53.5 110t-70 93t-89.5 97l-160 164q-84 88 -129 169.5t-45 189.5q0 101 53 180t150 100q-16 59 -16 119q0 56 17.5 107t51 92.5t90 66.5t127.5 25q101 0 203 -76l-12 -20q-92 71 -191 71q-68 0 -120 -23t-82 -62t-45 -85.5
t-15 -97.5q0 -101 44.5 -179t121.5 -157l162 -168q62 -64 97 -106t71 -97t51.5 -110.5t15.5 -120.5q0 -112 -48.5 -196t-145.5 -115q8 -36 8 -88q0 -140 -75 -233t-224 -93z" />
    <glyph glyph-name="dieresis" unicode="&#xa8;" horiz-adv-x="782" 
d="M520 1290q-19 0 -30 11t-11 30t11 30t30 11t30 -11t11 -30t-11 -30t-30 -11zM254 1290q-19 0 -30 11t-11 30t11 30t30 11t30 -11t11 -30t-11 -30t-30 -11z" />
    <glyph glyph-name="copyright" unicode="&#xa9;" horiz-adv-x="1744" 
d="M872 -20q-152 0 -287.5 56.5t-232 154t-153 233t-56.5 287.5t56.5 288t153 233.5t232 154.5t287.5 57t287.5 -57t232.5 -154.5t153.5 -233.5t56.5 -288t-56.5 -287.5t-153.5 -233t-232.5 -154t-287.5 -56.5zM872 6q145 0 275 55t224 148.5t149 224.5t55 277t-55 277
t-149 225t-224 149t-275 55q-194 0 -355 -93t-254 -255.5t-93 -357.5t93 -357t254 -255t355 -93zM877 250q-84 0 -158.5 28.5t-133.5 83t-93.5 142.5t-34.5 198q0 114 35.5 205.5t95.5 148.5t136.5 87.5t162.5 30.5q63 0 121.5 -16.5t85.5 -33.5l28 -16l-10 -21
q-10 7 -29 17t-78 26.5t-118 16.5q-80 0 -151.5 -29t-128.5 -83t-90.5 -140.5t-33.5 -192.5q0 -104 33 -187t89 -134t125.5 -78t146.5 -27q63 0 123 16t89 32l29 16l12 -23q-4 -3 -12 -7.5t-33.5 -16t-53 -20.5t-69.5 -16t-85 -7z" />
    <glyph glyph-name="ordfeminine" unicode="&#xaa;" horiz-adv-x="743" 
d="M360 874q86 0 153 42.5t89 97.5v45q0 121 -68 190.5t-176 69.5q-99 0 -170 -63t-71 -164q0 -96 69 -157t174 -61zM602 870v111q-22 -47 -88.5 -87t-155.5 -40q-114 0 -188 66t-74 172q0 113 76.5 180t183.5 67q96 0 163.5 -51t82.5 -127v221q0 116 -55.5 184t-177.5 68
q-126 0 -205 -61l-10 18q88 64 215 64q131 0 193.5 -72.5t62.5 -193.5v-519h-23zM127 649v25h494v-25h-494z" />
    <glyph glyph-name="guillemotleft" unicode="&#xab;" horiz-adv-x="966" 
d="M487 66l-344 409v14l344 410h33l-350 -416l350 -417h-33zM770 66l-344 409v14l344 410h33l-350 -416l350 -417h-33z" />
    <glyph glyph-name="registered" unicode="&#xae;" horiz-adv-x="1122" 
d="M561 565q-186 0 -312 127t-126 312q0 186 126 313t312 127t312 -127t126 -313q0 -185 -126 -312t-312 -127zM561 590q174 0 294 120t120 294q0 176 -120 295.5t-294 119.5t-294 -119.5t-120 -295.5q0 -174 120 -294t294 -120zM537 963q104 0 149 45t45 112q0 57 -40 95
t-130 38h-135v-272q52 -18 111 -18zM537 942q-60 0 -111 19v-203h-20v516h155q101 0 147 -44t46 -110q0 -61 -35.5 -107.5t-108.5 -62.5l146 -192h-25l-143 188q-32 -4 -51 -4z" />
    <glyph glyph-name="degree" unicode="&#xb0;" horiz-adv-x="700" 
d="M350 1018q-107 0 -187.5 68t-80.5 194q0 66 23.5 117.5t62.5 82t85.5 46.5t96.5 16t96.5 -16t85.5 -46.5t62.5 -82t23.5 -117.5q0 -126 -80.5 -194t-187.5 -68zM350 1042q104 0 174 64.5t70 173.5t-70 173.5t-174 64.5t-174 -64.5t-70 -173.5t70 -173.5t174 -64.5z" />
    <glyph glyph-name="plusminus" unicode="&#xb1;" horiz-adv-x="1024" 
d="M858 774h-334v-334h-24v334h-336v25h336v336h24v-336h334v-25zM164 283v24h694v-24h-694z" />
    <glyph glyph-name="acute" unicode="&#xb4;" horiz-adv-x="720" 
d="M182 1200l283 336h29l-283 -336h-29z" />
    <glyph glyph-name="paragraph" unicode="&#xb6;" horiz-adv-x="1245" 
d="M860 -512v1921h-192v-1921h-25v1004h-39q-230 0 -376 126t-146 336q0 105 32 191t97 151.5t172.5 101.5t249.5 36h448v-25h-196v-1921h-25z" />
    <glyph glyph-name="periodcentered" unicode="&#xb7;" horiz-adv-x="397" 
d="M199 541q-20 0 -32.5 12.5t-12.5 32.5t12.5 32.5t32.5 12.5t32.5 -12.5t12.5 -32.5t-12.5 -32.5t-32.5 -12.5z" />
    <glyph glyph-name="cedilla" unicode="&#xb8;" horiz-adv-x="817" 
d="M420 -426q-61 0 -114.5 22t-77.5 44l-23 22l12 25q3 -4 8.5 -9.5t25 -21t41.5 -27t56.5 -21t71.5 -9.5q84 0 126 37.5t42 99.5q0 54 -41.5 85.5t-102.5 31.5q-31 0 -58.5 -8.5t-45.5 -21t-31.5 -25t-19.5 -20.5l-6 -9l-23 12l129 233l23 -8l-95 -172q60 43 127 43
q70 0 119 -38t49 -103q0 -73 -49 -117.5t-143 -44.5z" />
    <glyph glyph-name="ordmasculine" unicode="&#xba;" horiz-adv-x="808" 
d="M406 854q-142 0 -222 114.5t-80 291.5q0 172 80 283.5t222 111.5q139 0 219 -112t80 -283q0 -176 -80 -291t-219 -115zM406 874q131 0 203.5 109.5t72.5 276.5q0 163 -72.5 268.5t-203.5 105.5q-134 0 -206.5 -105.5t-72.5 -268.5q0 -168 72.5 -277t206.5 -109zM131 649
v25h555v-25h-555z" />
    <glyph glyph-name="guillemotright" unicode="&#xbb;" horiz-adv-x="966" 
d="M164 66l350 417l-350 416h33l344 -410v-14l-344 -409h-33zM446 66l351 417l-351 416h33l344 -410v-14l-344 -409h-33z" />
    <glyph glyph-name="onequarter" unicode="&#xbc;" horiz-adv-x="1341" 
d="M287 0l901 1434h26l-901 -1434h-26zM1135 266v488l-361 -488h361zM555 651h-453v21h215v737l-206 -76v23l198 71q14 7 23 7h8v-762h215v-21zM1296 246h-141v-246h-20v246h-390v16l388 520h22v-516h141v-20z" />
    <glyph glyph-name="onehalf" unicode="&#xbd;" horiz-adv-x="1474" 
d="M309 0l901 1434h27l-901 -1434h-27zM909 0v35q0 50 17 91t54 76.5t66.5 57t83.5 55.5l37 23q45 28 73.5 49.5t58.5 52.5t44.5 68t14.5 80q0 75 -56.5 126.5t-168.5 51.5q-97 0 -189 -45l-6 20q110 45 195 45q121 0 184 -57t63 -141q0 -48 -16.5 -88t-51 -74t-64.5 -56
t-79 -53l-34 -24q-47 -28 -76.5 -50t-61.5 -53.5t-47.5 -69.5t-15.5 -83v-17h448v-20h-473zM555 651h-453v21h215v737l-206 -76v23l198 71q14 7 23 7h8v-762h215v-21z" />
    <glyph glyph-name="threequarters" unicode="&#xbe;" horiz-adv-x="1300" 
d="M260 0l901 1434h27l-901 -1434h-27zM1094 266v488l-361 -488h361zM281 639q-101 0 -193 33l8 20q84 -30 185 -30q140 0 203 55t63 141q0 98 -64.5 142t-189.5 44h-74v21h74q109 0 166 51t57 127q0 80 -54.5 128t-170.5 48q-81 0 -178 -37l-9 19q92 37 187 37
q124 0 186 -51.5t62 -141.5q0 -70 -43 -121t-125 -69q87 -8 142.5 -55.5t55.5 -143.5q0 -98 -71 -157.5t-217 -59.5zM1255 246h-141v-246h-20v246h-389v16l387 520h22v-516h141v-20z" />
    <glyph glyph-name="questiondown" unicode="&#xbf;" horiz-adv-x="825" 
d="M543 958q-15 0 -27 12t-12 27q0 17 12 29t27 12t27 -12t12 -29q0 -15 -12 -27t-27 -12zM455 -522q-90 0 -159 31t-111 86.5t-62.5 125.5t-20.5 154q0 94 26 169t68.5 122.5t100.5 79.5t116.5 46t121.5 15v465h20l4 -487q-64 0 -122.5 -11.5t-116 -41t-99.5 -74.5
t-68 -117t-26 -164q0 -78 18.5 -144t56 -119.5t102.5 -83.5t151 -30q101 0 179.5 45t121.5 105l18 -15q-42 -64 -126 -110.5t-193 -46.5z" />
    <glyph glyph-name="Agrave" unicode="&#xc0;" horiz-adv-x="1208" 
d="M668 1528l-258 205h14q16 0 33 -11l243 -194h-32zM907 594l-303 801l-301 -801h604zM1130 0l-215 569h-622l-215 -569h-27l545 1444h6q10 0 14 -12l541 -1432h-27z" />
    <glyph glyph-name="Aacute" unicode="&#xc1;" horiz-adv-x="1208" 
d="M465 1528l352 170h45l-350 -170h-47zM907 594l-303 801l-301 -801h604zM1130 0l-215 569h-622l-215 -569h-27l545 1444h6q10 0 14 -12l541 -1432h-27z" />
    <glyph glyph-name="Acircumflex" unicode="&#xc2;" horiz-adv-x="1208" 
d="M809 1528l-203 184l-209 -184h-37l232 205h12q14 0 23 -9l219 -196h-37zM907 594l-303 801l-301 -801h604zM1130 0l-215 569h-622l-215 -569h-27l545 1444h6q10 0 14 -12l541 -1432h-27z" />
    <glyph glyph-name="Atilde" unicode="&#xc3;" horiz-adv-x="1208" 
d="M303 1550q-4 12 -4 23q0 63 38.5 108t104.5 45q34 0 65 -15.5t54 -38t46 -44.5t51.5 -37.5t60.5 -15.5q35 0 60.5 15t38 39t18.5 47t6 46h16q4 -8 4 -20q0 -64 -39.5 -108t-103.5 -44q-43 0 -81.5 24t-63 52t-60 52t-72.5 24q-63 0 -91.5 -47t-28.5 -105h-19zM907 594
l-303 801l-301 -801h604zM1130 0l-215 569h-622l-215 -569h-27l545 1444h6q10 0 14 -12l541 -1432h-27z" />
    <glyph glyph-name="Adieresis" unicode="&#xc4;" horiz-adv-x="1208" 
d="M762 1577q-17 0 -28 11t-11 30t11 30t28 11q19 0 30 -11t11 -30t-11 -30t-30 -11zM459 1577q-19 0 -30 11t-11 30t11 30t30 11q18 0 29.5 -11.5t11.5 -29.5t-11.5 -29.5t-29.5 -11.5zM907 594l-303 801l-301 -801h604zM1130 0l-215 569h-622l-215 -569h-27l545 1444h6
q10 0 14 -12l541 -1432h-27z" />
    <glyph glyph-name="AE" unicode="&#xc6;" horiz-adv-x="1695" 
d="M367 555h454v819zM31 0l790 1434h772v-25h-745v-649h668v-25h-668v-710h745v-25h-772v530h-469l-295 -530h-26z" />
    <glyph glyph-name="Ccedilla" unicode="&#xc7;" horiz-adv-x="1136" 
d="M594 -426q-61 0 -114.5 22t-77.5 44l-23 22l12 25q3 -4 8.5 -9.5t25 -21t41.5 -27t56.5 -21t71.5 -9.5q84 0 126 37.5t42 99.5q0 54 -41.5 85.5t-102.5 31.5q-31 0 -58.5 -8.5t-45.5 -21t-31.5 -25t-19.5 -20.5l-6 -9l-23 12l119 215q-198 47 -324.5 227.5t-126.5 474.5
q0 144 32 266.5t88 210t132 149t163.5 91t182.5 29.5q55 0 109 -10.5t92 -25t68 -29.5t45 -25l14 -11l-14 -20q-5 4 -15 10.5t-42 23t-66.5 29t-86.5 23t-104 10.5q-113 0 -214.5 -46.5t-182 -134t-127.5 -227.5t-47 -313q0 -170 46.5 -305.5t125 -218.5t176.5 -126.5
t207 -43.5q56 0 111 11t94.5 26t70.5 30.5t46 26.5l16 11l12 -23q-6 -4 -16.5 -11.5t-46 -25.5t-73.5 -32t-96.5 -25.5t-117.5 -11.5q-48 0 -106 10l-86 -156q60 43 126 43q70 0 119 -38t49 -103q0 -73 -49 -117.5t-143 -44.5z" />
    <glyph glyph-name="Egrave" unicode="&#xc8;" horiz-adv-x="1071" 
d="M600 1528l-258 205h14q16 0 33 -11l244 -194h-33zM133 0v1434h836v-25h-809v-649h731v-25h-731v-710h809v-25h-836z" />
    <glyph glyph-name="Eacute" unicode="&#xc9;" horiz-adv-x="1071" 
d="M397 1528l353 170h45l-351 -170h-47zM133 0v1434h836v-25h-809v-649h731v-25h-731v-710h809v-25h-836z" />
    <glyph glyph-name="Ecircumflex" unicode="&#xca;" horiz-adv-x="1071" 
d="M741 1528l-202 184l-209 -184h-37l231 205h13q13 0 22 -9l219 -196h-37zM133 0v1434h836v-25h-809v-649h731v-25h-731v-710h809v-25h-836z" />
    <glyph glyph-name="Edieresis" unicode="&#xcb;" horiz-adv-x="1071" 
d="M694 1577q-17 0 -28 11t-11 30t11 30t28 11q19 0 30 -11t11 -30t-11 -30t-30 -11zM391 1577q-19 0 -30 11t-11 30t11 30t30 11q18 0 29.5 -11.5t11.5 -29.5t-11.5 -29.5t-29.5 -11.5zM133 0v1434h836v-25h-809v-649h731v-25h-731v-710h809v-25h-836z" />
    <glyph glyph-name="Igrave" unicode="&#xcc;" horiz-adv-x="380" 
d="M254 1528l-258 205h14q16 0 33 -11l244 -194h-33zM178 0v1434h25v-1434h-25z" />
    <glyph glyph-name="Iacute" unicode="&#xcd;" horiz-adv-x="380" 
d="M51 1528l352 170h46l-351 -170h-47zM178 0v1434h25v-1434h-25z" />
    <glyph glyph-name="Icircumflex" unicode="&#xce;" horiz-adv-x="380" 
d="M395 1528l-202 184l-209 -184h-37l231 205h12q14 0 23 -9l219 -196h-37zM178 0v1434h25v-1434h-25z" />
    <glyph glyph-name="Idieresis" unicode="&#xcf;" horiz-adv-x="380" 
d="M348 1577q-17 0 -28 11t-11 30t11 30t28 11q19 0 30 -11t11 -30t-11 -30t-30 -11zM45 1577q-19 0 -30 11t-11 30t11 30t30 11q18 0 29.5 -11.5t11.5 -29.5t-11.5 -29.5t-29.5 -11.5zM178 0v1434h25v-1434h-25z" />
    <glyph glyph-name="Ntilde" unicode="&#xd1;" horiz-adv-x="1286" 
d="M342 1550q-4 12 -4 23q0 63 38.5 108t104.5 45q34 0 65 -15.5t54 -38t46 -44.5t51.5 -37.5t60.5 -15.5q35 0 60.5 15t38 39t18.5 47t6 46h16q4 -8 4 -20q0 -64 -39.5 -108t-103.5 -44q-43 0 -81.5 24t-63 52t-60 52t-72.5 24q-63 0 -92 -47.5t-29 -104.5h-18zM1133 8
l-975 1381l4 -1389h-29v1444h8q10 0 19 -12l968 -1373l-4 1375h29v-1434h-8q-7 0 -12 8z" />
    <glyph glyph-name="Ograve" unicode="&#xd2;" horiz-adv-x="1331" 
d="M729 1528l-258 205h14q17 0 33 -11l244 -194h-33zM670 -20q-176 0 -306.5 98.5t-196 265t-65.5 377.5q0 206 66 368.5t196.5 258.5t305.5 96q173 0 301.5 -96t193 -258.5t64.5 -368.5q0 -211 -64.5 -377.5t-193 -265t-301.5 -98.5zM670 4q166 0 288.5 98t183 259
t60.5 360q0 145 -35.5 271t-101 221t-167.5 149.5t-228 54.5q-168 0 -292.5 -94.5t-186.5 -250.5t-62 -351q0 -150 36 -280t103.5 -227.5t171 -153.5t230.5 -56z" />
    <glyph glyph-name="Oacute" unicode="&#xd3;" horiz-adv-x="1331" 
d="M526 1528l353 170h45l-351 -170h-47zM670 -20q-176 0 -306.5 98.5t-196 265t-65.5 377.5q0 206 66 368.5t196.5 258.5t305.5 96q173 0 301.5 -96t193 -258.5t64.5 -368.5q0 -211 -64.5 -377.5t-193 -265t-301.5 -98.5zM670 4q166 0 288.5 98t183 259t60.5 360
q0 145 -35.5 271t-101 221t-167.5 149.5t-228 54.5q-168 0 -292.5 -94.5t-186.5 -250.5t-62 -351q0 -150 36 -280t103.5 -227.5t171 -153.5t230.5 -56z" />
    <glyph glyph-name="Ocircumflex" unicode="&#xd4;" horiz-adv-x="1331" 
d="M870 1528l-202 184l-209 -184h-37l231 205h13q13 0 22 -9l219 -196h-37zM670 -20q-176 0 -306.5 98.5t-196 265t-65.5 377.5q0 206 66 368.5t196.5 258.5t305.5 96q173 0 301.5 -96t193 -258.5t64.5 -368.5q0 -211 -64.5 -377.5t-193 -265t-301.5 -98.5zM670 4
q166 0 288.5 98t183 259t60.5 360q0 145 -35.5 271t-101 221t-167.5 149.5t-228 54.5q-168 0 -292.5 -94.5t-186.5 -250.5t-62 -351q0 -150 36 -280t103.5 -227.5t171 -153.5t230.5 -56z" />
    <glyph glyph-name="Otilde" unicode="&#xd5;" horiz-adv-x="1331" 
d="M365 1550q-5 15 -5 23q0 63 39 108t105 45q34 0 65 -15.5t54 -38t45.5 -44.5t51 -37.5t60.5 -15.5q35 0 60.5 15t38 39t18.5 47t6 46h17q4 -8 4 -20q0 -63 -40 -107.5t-104 -44.5q-43 0 -81.5 24t-62.5 52t-59 52t-73 24q-63 0 -92 -47.5t-29 -104.5h-18zM670 -20
q-176 0 -306.5 98.5t-196 265t-65.5 377.5q0 206 66 368.5t196.5 258.5t305.5 96q173 0 301.5 -96t193 -258.5t64.5 -368.5q0 -211 -64.5 -377.5t-193 -265t-301.5 -98.5zM670 4q166 0 288.5 98t183 259t60.5 360q0 145 -35.5 271t-101 221t-167.5 149.5t-228 54.5
q-168 0 -292.5 -94.5t-186.5 -250.5t-62 -351q0 -150 36 -280t103.5 -227.5t171 -153.5t230.5 -56z" />
    <glyph glyph-name="Odieresis" unicode="&#xd6;" horiz-adv-x="1331" 
d="M823 1577q-17 0 -28 11t-11 30t11 30t28 11q19 0 30 -11t11 -30t-11 -30t-30 -11zM520 1577q-19 0 -30 11t-11 30t11 30t30 11q18 0 29.5 -11.5t11.5 -29.5t-11.5 -29.5t-29.5 -11.5zM670 -20q-176 0 -306.5 98.5t-196 265t-65.5 377.5q0 206 66 368.5t196.5 258.5
t305.5 96q173 0 301.5 -96t193 -258.5t64.5 -368.5q0 -211 -64.5 -377.5t-193 -265t-301.5 -98.5zM670 4q166 0 288.5 98t183 259t60.5 360q0 145 -35.5 271t-101 221t-167.5 149.5t-228 54.5q-168 0 -292.5 -94.5t-186.5 -250.5t-62 -351q0 -150 36 -280t103.5 -227.5
t171 -153.5t230.5 -56z" />
    <glyph glyph-name="multiply" unicode="&#xd7;" horiz-adv-x="1024" 
d="M748 410l-236 235l-238 -237l-16 18l238 238l-238 235l16 19l238 -238l236 235l18 -16l-236 -235l236 -238z" />
    <glyph glyph-name="Ugrave" unicode="&#xd9;" horiz-adv-x="1286" 
d="M700 1528l-258 205h15q15 0 32 -11l244 -194h-33zM643 -10q-118 0 -210.5 33t-163 102.5t-108.5 186.5t-38 276v846h24v-854q0 -290 131.5 -428t364.5 -138t364.5 138t131.5 428v854h24v-846q0 -159 -38 -276t-108.5 -186.5t-163 -102.5t-210.5 -33z" />
    <glyph glyph-name="Uacute" unicode="&#xda;" horiz-adv-x="1286" 
d="M498 1528l352 170h45l-350 -170h-47zM643 -10q-118 0 -210.5 33t-163 102.5t-108.5 186.5t-38 276v846h24v-854q0 -290 131.5 -428t364.5 -138t364.5 138t131.5 428v854h24v-846q0 -159 -38 -276t-108.5 -186.5t-163 -102.5t-210.5 -33z" />
    <glyph glyph-name="Ucircumflex" unicode="&#xdb;" horiz-adv-x="1286" 
d="M842 1528l-203 184l-209 -184h-37l232 205h12q13 0 22 -9l220 -196h-37zM643 -10q-118 0 -210.5 33t-163 102.5t-108.5 186.5t-38 276v846h24v-854q0 -290 131.5 -428t364.5 -138t364.5 138t131.5 428v854h24v-846q0 -159 -38 -276t-108.5 -186.5t-163 -102.5t-210.5 -33
z" />
    <glyph glyph-name="Udieresis" unicode="&#xdc;" horiz-adv-x="1286" 
d="M795 1577q-17 0 -28 11t-11 30t11 30t28 11q19 0 30 -11t11 -30t-11 -30t-30 -11zM492 1577q-19 0 -30 11t-11 30t11 30t30 11q18 0 29 -11.5t11 -29.5t-11 -29.5t-29 -11.5zM643 -10q-118 0 -210.5 33t-163 102.5t-108.5 186.5t-38 276v846h24v-854q0 -290 131.5 -428
t364.5 -138t364.5 138t131.5 428v854h24v-846q0 -159 -38 -276t-108.5 -186.5t-163 -102.5t-210.5 -33z" />
    <glyph glyph-name="germandbls" unicode="&#xdf;" horiz-adv-x="999" 
d="M592 -20q-127 0 -244 47l8 22q41 -15 63.5 -22t72 -16t100.5 -9q167 0 249.5 69t82.5 167q0 89 -57 156t-181 122l-111 49q-106 46 -159.5 98t-53.5 134q0 138 187 237l145 78q77 41 112.5 87.5t35.5 115.5q0 85 -76 146t-193 61q-170 0 -273 -111t-103 -307v-1104h-25
v1106q0 206 111 323t290 117q128 0 210.5 -67.5t82.5 -161.5q0 -77 -39.5 -130.5t-119.5 -94.5l-148 -78q-172 -90 -172 -217q0 -72 49.5 -118.5t153.5 -92.5l104 -47q132 -59 193 -132t61 -167q0 -110 -88 -185t-268 -75z" />
    <glyph glyph-name="agrave" unicode="&#xe0;" horiz-adv-x="980" 
d="M539 1200l-267 336h15q17 0 26 -14l250 -322h-24zM475 2q121 0 213 57.5t123 130.5v60q0 163 -94.5 257.5t-245.5 94.5q-137 0 -235.5 -85t-98.5 -222q0 -130 95.5 -211.5t242.5 -81.5zM811 0v147q-29 -60 -121.5 -113.5t-214.5 -53.5q-157 0 -258.5 86.5t-101.5 228.5
q0 101 50.5 177.5t130.5 114.5t175 38q133 0 227 -71t113 -177v309q0 75 -17.5 134.5t-54.5 105.5t-100.5 71t-151.5 25q-92 0 -165.5 -24t-118.5 -56l-13 19q121 83 297 83q179 0 264 -96t85 -256v-692h-25z" />
    <glyph glyph-name="aacute" unicode="&#xe1;" horiz-adv-x="980" 
d="M395 1200l283 336h29l-283 -336h-29zM475 2q121 0 213 57.5t123 130.5v60q0 163 -94.5 257.5t-245.5 94.5q-137 0 -235.5 -85t-98.5 -222q0 -130 95.5 -211.5t242.5 -81.5zM811 0v147q-29 -60 -121.5 -113.5t-214.5 -53.5q-157 0 -258.5 86.5t-101.5 228.5
q0 101 50.5 177.5t130.5 114.5t175 38q133 0 227 -71t113 -177v309q0 75 -17.5 134.5t-54.5 105.5t-100.5 71t-151.5 25q-92 0 -165.5 -24t-118.5 -56l-13 19q121 83 297 83q179 0 264 -96t85 -256v-692h-25z" />
    <glyph glyph-name="acircumflex" unicode="&#xe2;" horiz-adv-x="980" 
d="M741 1202l-237 311l-240 -311h-28l251 332h7q23 0 36 -18l240 -314h-29zM475 2q121 0 213 57.5t123 130.5v60q0 163 -94.5 257.5t-245.5 94.5q-137 0 -235.5 -85t-98.5 -222q0 -130 95.5 -211.5t242.5 -81.5zM811 0v147q-29 -60 -121.5 -113.5t-214.5 -53.5
q-157 0 -258.5 86.5t-101.5 228.5q0 101 50.5 177.5t130.5 114.5t175 38q133 0 227 -71t113 -177v309q0 75 -17.5 134.5t-54.5 105.5t-100.5 71t-151.5 25q-92 0 -165.5 -24t-118.5 -56l-13 19q121 83 297 83q179 0 264 -96t85 -256v-692h-25z" />
    <glyph glyph-name="atilde" unicode="&#xe3;" horiz-adv-x="980" 
d="M233 1237q-4 16 -4 25q0 67 39 115t105 48q34 0 65 -17t54 -41.5t45.5 -48.5t51 -41t60.5 -17q35 0 60.5 16.5t38 42t18.5 51t6 49.5h16q5 -10 5 -20q0 -68 -40 -115t-104 -47q-36 0 -67 17t-54 41t-45.5 48t-50.5 41t-59 17q-63 0 -92 -51t-29 -113h-19zM475 2
q121 0 213 57.5t123 130.5v60q0 163 -94.5 257.5t-245.5 94.5q-137 0 -235.5 -85t-98.5 -222q0 -130 95.5 -211.5t242.5 -81.5zM811 0v147q-29 -60 -121.5 -113.5t-214.5 -53.5q-157 0 -258.5 86.5t-101.5 228.5q0 101 50.5 177.5t130.5 114.5t175 38q133 0 227 -71
t113 -177v309q0 75 -17.5 134.5t-54.5 105.5t-100.5 71t-151.5 25q-92 0 -165.5 -24t-118.5 -56l-13 19q121 83 297 83q179 0 264 -96t85 -256v-692h-25z" />
    <glyph glyph-name="adieresis" unicode="&#xe4;" horiz-adv-x="980" 
d="M629 1292q-19 0 -30 11t-11 30t11 30t30 11t30 -11t11 -30t-11 -30t-30 -11zM362 1292q-19 0 -29.5 11t-10.5 30t10.5 30t29.5 11t30 -11t11 -30t-11 -30t-30 -11zM475 2q121 0 213 57.5t123 130.5v60q0 163 -94.5 257.5t-245.5 94.5q-137 0 -235.5 -85t-98.5 -222
q0 -130 95.5 -211.5t242.5 -81.5zM811 0v147q-29 -60 -121.5 -113.5t-214.5 -53.5q-157 0 -258.5 86.5t-101.5 228.5q0 101 50.5 177.5t130.5 114.5t175 38q133 0 227 -71t113 -177v309q0 75 -17.5 134.5t-54.5 105.5t-100.5 71t-151.5 25q-92 0 -165.5 -24t-118.5 -56
l-13 19q121 83 297 83q179 0 264 -96t85 -256v-692h-25z" />
    <glyph glyph-name="ae" unicode="&#xe6;" horiz-adv-x="1642" 
d="M811 670h690v16q0 67 -17.5 125t-54 106.5t-100.5 76.5t-149 28q-159 0 -251 -95t-118 -257zM453 -20q-152 0 -251.5 87.5t-99.5 231.5q0 159 109.5 253.5t263.5 94.5q113 0 188.5 -36.5t114.5 -88.5v150q0 80 -14 139.5t-48 109t-96.5 75.5t-152.5 26q-103 0 -183.5 -45
t-123.5 -105l-19 15q40 63 127.5 110t198.5 47q317 0 334 -325q26 144 125.5 234.5t253.5 90.5q91 0 159 -28.5t108 -80t59.5 -115.5t19.5 -140v-33h-719q-4 -41 -4 -133q0 -80 13 -152.5t43 -139t74.5 -115t112 -77t150.5 -28.5q103 0 191 36t139 91l14 -16
q-55 -59 -143.5 -96t-200.5 -37q-133 0 -225 65t-140 178q-15 -38 -45.5 -78t-76.5 -78.5t-113 -62.5t-143 -24zM453 2q133 0 234 77t134 173q-40 103 -43 235q-95 138 -303 138q-144 0 -247 -90t-103 -236q0 -131 93 -214t235 -83z" />
    <glyph glyph-name="ccedilla" unicode="&#xe7;" horiz-adv-x="899" 
d="M481 -426q-61 0 -114.5 22t-76.5 44l-24 22l13 25q3 -4 8.5 -9.5t25 -21t41 -27t56 -21t71.5 -9.5q84 0 126 37.5t42 99.5q0 54 -41 85.5t-102 31.5q-48 0 -88.5 -21t-57.5 -42l-16 -21l-22 12l116 213q-106 28 -178 106.5t-103.5 184t-31.5 233.5q0 107 26 200t76.5 167
t135.5 116.5t194 42.5q165 0 266 -106l-16 -16q-92 98 -252 98q-105 0 -185.5 -42.5t-127 -115t-69.5 -159.5t-23 -185q0 -81 14 -155t45.5 -140t78 -114t115 -76.5t152.5 -28.5q80 0 150.5 26t115.5 64l15 -18q-49 -41 -122.5 -68.5t-156.5 -27.5q-55 0 -94 8l-84 -154
q60 43 127 43q70 0 119 -38t49 -103q0 -72 -49 -117t-144 -45z" />
    <glyph glyph-name="egrave" unicode="&#xe8;" horiz-adv-x="1013" 
d="M584 1200l-267 336h15q17 0 26 -14l250 -322h-24zM532 1020q-154 0 -246 -96.5t-122 -253.5h696v16q0 66 -18 123.5t-55.5 106t-102.5 76.5t-152 28zM899 113q-55 -58 -146 -95.5t-204 -37.5q-108 0 -191.5 43t-133 118t-74.5 168.5t-25 202.5t23.5 203t71 168.5
t127.5 117.5t185 43q92 0 161.5 -29t110.5 -80t61 -115t20 -140v-33h-725q-10 -72 -10 -135q0 -79 13.5 -150.5t43.5 -137.5t75.5 -114.5t113.5 -77t153 -28.5q105 0 194.5 35.5t139.5 89.5z" />
    <glyph glyph-name="eacute" unicode="&#xe9;" horiz-adv-x="1013" 
d="M440 1200l283 336h29l-283 -336h-29zM532 1020q-154 0 -246 -96.5t-122 -253.5h696v16q0 66 -18 123.5t-55.5 106t-102.5 76.5t-152 28zM899 113q-55 -58 -146 -95.5t-204 -37.5q-108 0 -191.5 43t-133 118t-74.5 168.5t-25 202.5t23.5 203t71 168.5t127.5 117.5t185 43
q92 0 161.5 -29t110.5 -80t61 -115t20 -140v-33h-725q-10 -72 -10 -135q0 -79 13.5 -150.5t43.5 -137.5t75.5 -114.5t113.5 -77t153 -28.5q105 0 194.5 35.5t139.5 89.5z" />
    <glyph glyph-name="ecircumflex" unicode="&#xea;" horiz-adv-x="1013" 
d="M782 1202l-237 311l-240 -311h-29l252 332h7q23 0 36 -18l240 -314h-29zM532 1020q-154 0 -246 -96.5t-122 -253.5h696v16q0 66 -18 123.5t-55.5 106t-102.5 76.5t-152 28zM899 113q-55 -58 -146 -95.5t-204 -37.5q-108 0 -191.5 43t-133 118t-74.5 168.5t-25 202.5
t23.5 203t71 168.5t127.5 117.5t185 43q92 0 161.5 -29t110.5 -80t61 -115t20 -140v-33h-725q-10 -72 -10 -135q0 -79 13.5 -150.5t43.5 -137.5t75.5 -114.5t113.5 -77t153 -28.5q105 0 194.5 35.5t139.5 89.5z" />
    <glyph glyph-name="edieresis" unicode="&#xeb;" horiz-adv-x="1013" 
d="M676 1292q-19 0 -30 11t-11 30t11 30t30 11t30 -11t11 -30t-11 -30t-30 -11zM410 1292q-19 0 -30 11t-11 30t11 30t30 11t30 -11t11 -30t-11 -30t-30 -11zM532 1020q-154 0 -246 -96.5t-122 -253.5h696v16q0 66 -18 123.5t-55.5 106t-102.5 76.5t-152 28zM899 113
q-55 -58 -146 -95.5t-204 -37.5q-108 0 -191.5 43t-133 118t-74.5 168.5t-25 202.5t23.5 203t71 168.5t127.5 117.5t185 43q92 0 161.5 -29t110.5 -80t61 -115t20 -140v-33h-725q-10 -72 -10 -135q0 -79 13.5 -150.5t43.5 -137.5t75.5 -114.5t113.5 -77t153 -28.5
q105 0 194.5 35.5t139.5 89.5z" />
    <glyph glyph-name="igrave" unicode="&#xec;" horiz-adv-x="421" 
d="M35 1536h12q21 0 31 -18l188 -318h-24zM184 0v1024h25v-1024h-25z" />
    <glyph glyph-name="iacute" unicode="&#xed;" horiz-adv-x="421" 
d="M152 1200l243 336h29l-244 -336h-28zM184 0v1024h25v-1024h-25z" />
    <glyph glyph-name="icircumflex" unicode="&#xee;" horiz-adv-x="421" 
d="M375 1200l-176 307l-179 -307h-28l192 332h9q19 0 30 -19l180 -313h-28zM184 0v1024h25v-1024h-25z" />
    <glyph glyph-name="idieresis" unicode="&#xef;" horiz-adv-x="421" 
d="M307 1292q-17 0 -27 11t-10 28t10 28t27 11t28 -11t11 -28t-11 -28t-28 -11zM86 1292q-17 0 -28 11t-11 28t11 28t28 11t27 -11t10 -28t-10 -28t-27 -11zM184 0v1024h25v-1024h-25z" />
    <glyph glyph-name="ntilde" unicode="&#xf1;" horiz-adv-x="991" 
d="M219 1237q-4 16 -4 25q0 67 38.5 115t104.5 48q34 0 65 -17t54 -41.5t46 -48.5t51.5 -41t60.5 -17q35 0 60.5 16.5t38 42t18.5 51t6 49.5h16q4 -8 4 -20q0 -68 -39.5 -115t-103.5 -47q-36 0 -67 17t-54.5 41t-46 48t-50.5 41t-59 17q-63 0 -91.5 -51t-28.5 -113h-19z
M170 676v-676h-25v1024h9q12 0 12 -16l6 -189q20 73 76.5 125.5t124.5 76t141 23.5q165 0 253.5 -83.5t88.5 -243.5v-717h-25v709q0 313 -317 313q-61 0 -118.5 -19t-109.5 -58t-84 -108.5t-32 -160.5z" />
    <glyph glyph-name="ograve" unicode="&#xf2;" horiz-adv-x="1067" 
d="M578 1200l-267 336h15q17 0 26 -14l250 -322h-24zM537 -20q-132 0 -226.5 73t-140 193t-45.5 272q0 149 45.5 266.5t140 188.5t226.5 71q128 0 221 -71t138.5 -188.5t45.5 -266.5q0 -152 -45.5 -272t-138.5 -193t-221 -73zM537 4q120 0 208 70t130.5 185t42.5 259
q0 140 -42.5 252.5t-130.5 181t-208 68.5q-124 0 -213 -68.5t-131.5 -180.5t-42.5 -253q0 -145 42.5 -259t131.5 -184.5t213 -70.5z" />
    <glyph glyph-name="oacute" unicode="&#xf3;" horiz-adv-x="1067" 
d="M434 1200l283 336h28l-282 -336h-29zM537 -20q-132 0 -226.5 73t-140 193t-45.5 272q0 149 45.5 266.5t140 188.5t226.5 71q128 0 221 -71t138.5 -188.5t45.5 -266.5q0 -152 -45.5 -272t-138.5 -193t-221 -73zM537 4q120 0 208 70t130.5 185t42.5 259q0 140 -42.5 252.5
t-130.5 181t-208 68.5q-124 0 -213 -68.5t-131.5 -180.5t-42.5 -253q0 -145 42.5 -259t131.5 -184.5t213 -70.5z" />
    <glyph glyph-name="ocircumflex" unicode="&#xf4;" horiz-adv-x="1067" 
d="M768 1202l-238 311l-239 -311h-29l252 332h6q24 0 37 -18l240 -314h-29zM537 -20q-132 0 -226.5 73t-140 193t-45.5 272q0 149 45.5 266.5t140 188.5t226.5 71q128 0 221 -71t138.5 -188.5t45.5 -266.5q0 -152 -45.5 -272t-138.5 -193t-221 -73zM537 4q120 0 208 70
t130.5 185t42.5 259q0 140 -42.5 252.5t-130.5 181t-208 68.5q-124 0 -213 -68.5t-131.5 -180.5t-42.5 -253q0 -145 42.5 -259t131.5 -184.5t213 -70.5z" />
    <glyph glyph-name="otilde" unicode="&#xf5;" horiz-adv-x="1067" 
d="M246 1237q-4 16 -4 25q0 67 38.5 115t104.5 48q34 0 65 -17t54 -41.5t46 -48.5t51.5 -41t60.5 -17q35 0 60 16.5t38 42.5t18.5 51t5.5 49h17q4 -8 4 -20q0 -68 -39.5 -115t-103.5 -47q-36 0 -67 17t-54.5 41t-46 48t-50.5 41t-59 17q-63 0 -92 -51t-29 -113h-18zM537 -20
q-132 0 -226.5 73t-140 193t-45.5 272q0 149 45.5 266.5t140 188.5t226.5 71q128 0 221 -71t138.5 -188.5t45.5 -266.5q0 -152 -45.5 -272t-138.5 -193t-221 -73zM537 4q120 0 208 70t130.5 185t42.5 259q0 140 -42.5 252.5t-130.5 181t-208 68.5q-124 0 -213 -68.5
t-131.5 -180.5t-42.5 -253q0 -145 42.5 -259t131.5 -184.5t213 -70.5z" />
    <glyph glyph-name="odieresis" unicode="&#xf6;" horiz-adv-x="1067" 
d="M647 1292q-19 0 -30 11t-11 30t11 30t30 11t30 -11t11 -30t-11 -30t-30 -11zM381 1292q-19 0 -30 11t-11 30t11 30t30 11t30 -11t11 -30t-11 -30t-30 -11zM537 -20q-132 0 -226.5 73t-140 193t-45.5 272q0 149 45.5 266.5t140 188.5t226.5 71q128 0 221 -71t138.5 -188.5
t45.5 -266.5q0 -152 -45.5 -272t-138.5 -193t-221 -73zM537 4q120 0 208 70t130.5 185t42.5 259q0 140 -42.5 252.5t-130.5 181t-208 68.5q-124 0 -213 -68.5t-131.5 -180.5t-42.5 -253q0 -145 42.5 -259t131.5 -184.5t213 -70.5z" />
    <glyph glyph-name="divide" unicode="&#xf7;" horiz-adv-x="1024" 
d="M512 909q-20 0 -32.5 12.5t-12.5 32.5t12.5 32.5t32.5 12.5t32.5 -12.5t12.5 -32.5t-12.5 -32.5t-32.5 -12.5zM164 649v25h696v-25h-696zM512 324q-20 0 -32.5 12.5t-12.5 32.5t12.5 32.5t32.5 12.5t32.5 -12.5t12.5 -32.5t-12.5 -32.5t-32.5 -12.5z" />
    <glyph glyph-name="ugrave" unicode="&#xf9;" horiz-adv-x="978" 
d="M543 1200l-267 336h15q17 0 26 -14l250 -322h-24zM823 0l-6 211q-20 -72 -76.5 -124t-124 -74.5t-139.5 -22.5q-159 0 -245.5 83t-86.5 242v709h25v-700q0 -163 83 -237.5t228 -74.5q47 0 93 11.5t90.5 37.5t78.5 64.5t55 98t21 132.5v668h25v-1024h-21z" />
    <glyph glyph-name="uacute" unicode="&#xfa;" horiz-adv-x="978" 
d="M399 1200l283 336h29l-283 -336h-29zM823 0l-6 211q-20 -72 -76.5 -124t-124 -74.5t-139.5 -22.5q-159 0 -245.5 83t-86.5 242v709h25v-700q0 -163 83 -237.5t228 -74.5q47 0 93 11.5t90.5 37.5t78.5 64.5t55 98t21 132.5v668h25v-1024h-21z" />
    <glyph glyph-name="ucircumflex" unicode="&#xfb;" horiz-adv-x="978" 
d="M725 1202l-238 311l-239 -311h-29l252 332h6q24 0 37 -18l240 -314h-29zM823 0l-6 211q-20 -72 -76.5 -124t-124 -74.5t-139.5 -22.5q-159 0 -245.5 83t-86.5 242v709h25v-700q0 -163 83 -237.5t228 -74.5q47 0 93 11.5t90.5 37.5t78.5 64.5t55 98t21 132.5v668h25v-1024
h-21z" />
    <glyph glyph-name="udieresis" unicode="&#xfc;" horiz-adv-x="978" 
d="M627 1292q-19 0 -30 11t-11 30t11 30t30 11t30 -11t11 -30t-11 -30t-30 -11zM360 1292q-19 0 -30 11t-11 30t11 30t30 11t30 -11t11 -30t-11 -30t-30 -11zM823 0l-6 211q-20 -72 -76.5 -124t-124 -74.5t-139.5 -22.5q-159 0 -245.5 83t-86.5 242v709h25v-700
q0 -163 83 -237.5t228 -74.5q47 0 93 11.5t90.5 37.5t78.5 64.5t55 98t21 132.5v668h25v-1024h-21z" />
    <glyph glyph-name="ydieresis" unicode="&#xff;" horiz-adv-x="970" 
d="M627 1292q-19 0 -30 11t-11 30t11 30t30 11t30 -11t11 -30t-11 -30t-30 -11zM360 1292q-19 0 -30 11t-11 30t11 30t30 11t30 -11t11 -30t-11 -30t-30 -11zM504 -520q-105 0 -186.5 47.5t-122.5 110.5l18 14q42 -59 118.5 -104.5t172.5 -45.5q89 0 150.5 26t95 75.5
t47.5 110t14 139.5v358q-18 -75 -73 -129t-123 -78t-140 -24q-158 0 -244 82.5t-86 242.5v719h25v-711q0 -311 309 -311q46 0 91 11.5t89 37.5t77.5 64.5t54 98t20.5 132.5v678h25v-1178q0 -174 -77.5 -270t-254.5 -96z" />
    <glyph glyph-name="dotlessi" unicode="&#x131;" horiz-adv-x="397" 
d="M184 0v1024h25v-1024h-25z" />
    <glyph glyph-name="IJ" unicode="&#x132;" horiz-adv-x="1214" 
d="M178 0v1434h25v-1434h-25zM715 -10q-186 0 -318 141l19 16q127 -133 299 -133q165 0 258.5 108.5t93.5 336.5v975h25v-967q0 -248 -100.5 -362.5t-276.5 -114.5z" />
    <glyph glyph-name="ij" unicode="&#x133;" horiz-adv-x="808" 
d="M598 1294q-15 0 -26 11t-11 26t11 26t26 11t26 -11t11 -26t-11 -26t-26 -11zM211 1294q-15 0 -26 11t-11 26t11 26t26 11t26 -11t11 -26t-11 -26t-26 -11zM197 0v1024h24v-1024h-24zM406 -520q-59 0 -107 31l10 20q49 -29 97 -29q90 0 134 63t44 204v1255h24v-1266
q0 -150 -53 -214t-149 -64z" />
    <glyph glyph-name="Ldot" unicode="&#x13f;" horiz-adv-x="962" 
d="M133 0v1434h25v-1409h764v-25h-789zM674 672q-17 0 -28 11t-11 28t11 28t28 11t28 -11t11 -28t-11 -28t-28 -11z" />
    <glyph glyph-name="ldot" unicode="&#x140;" horiz-adv-x="659" 
d="M272 -8q-108 0 -108 117v1427h24v-1427q0 -49 20.5 -72t63.5 -23q39 0 84 25l11 -21q-38 -26 -95 -26zM530 612q-15 0 -25.5 11t-10.5 26t10.5 26t25.5 11t26 -11t11 -26t-11 -26t-26 -11z" />
    <glyph glyph-name="OE" unicode="&#x152;" horiz-adv-x="1533" 
d="M782 0q-166 0 -297.5 55.5t-214 153.5t-125.5 228t-43 284q0 121 27 228t82.5 196t135 153.5t191 100t244.5 35.5h650v-25h-623v-649h545v-25h-545v-710h623v-25h-650zM782 25v1382q-160 0 -286 -53.5t-205.5 -147.5t-120.5 -217.5t-41 -267.5q0 -117 25.5 -220.5
t78 -191t129 -150.5t184 -98.5t236.5 -35.5z" />
    <glyph glyph-name="oe" unicode="&#x153;" horiz-adv-x="1751" 
d="M514 -20q-126 0 -218.5 72t-137.5 192t-45 274q0 150 45 268t137.5 188t218.5 70q154 0 254 -105.5t129 -281.5q30 175 126.5 281t264.5 106q91 0 159 -28.5t108 -80t59.5 -115.5t19.5 -140v-47h-714q-9 -59 -9 -119q0 -101 22 -189.5t67 -162.5t123 -117t182 -43
q103 0 190.5 36t138.5 91l15 -16q-55 -59 -143.5 -96t-200.5 -37q-175 0 -276.5 108.5t-131.5 286.5q-30 -179 -129.5 -287t-253.5 -108zM924 655h686v31q0 67 -17.5 125t-54.5 106.5t-101 76.5t-149 28q-80 0 -145 -28.5t-108 -79.5t-70.5 -115.5t-40.5 -143.5zM514 2
q119 0 204.5 70.5t126 185t40.5 260.5q0 142 -40.5 254.5t-126 181t-204.5 68.5q-93 0 -166 -39.5t-118.5 -108.5t-69 -159.5t-23.5 -196.5q0 -146 40.5 -260.5t127 -185t209.5 -70.5z" />
    <glyph glyph-name="Ydieresis" unicode="&#x178;" horiz-adv-x="1112" 
d="M715 1577q-17 0 -28 11t-11 30t11 30t28 11q19 0 30 -11t11 -30t-11 -30t-30 -11zM412 1577q-19 0 -30 11t-11 30t11 30t30 11q18 0 29.5 -11.5t11.5 -29.5t-11.5 -29.5t-29.5 -11.5zM545 0v506l-504 928h12q14 0 23 -15l481 -887l487 902h27l-502 -928v-506h-24z" />
    <glyph glyph-name="uni0192" unicode="&#x192;" horiz-adv-x="819" 
d="M-18 -520q-60 0 -105 31l12 20q45 -29 93 -29q90 0 140.5 63t65.5 204l119 1132h-254l2 21h254l27 233q15 140 106 214.5t244 74.5q51 0 109 -10l-9 -23q-50 10 -102 10q-133 0 -220.5 -64t-103.5 -204l-26 -231h348l-2 -23h-348l-121 -1141q-16 -150 -74.5 -214
t-154.5 -64z" />
    <glyph glyph-name="circumflex" unicode="&#x2c6;" horiz-adv-x="944" 
d="M750 1200l-238 311l-240 -311h-28l252 332h6q23 0 37 -19l239 -313h-28z" />
    <glyph glyph-name="tilde" unicode="&#x2dc;" horiz-adv-x="972" 
d="M225 1237q-4 16 -4 25q0 67 39 115t105 48q34 0 65 -17t54 -41.5t45.5 -48.5t51 -41t60.5 -17q35 0 60.5 16.5t38 42t18.5 51t6 49.5h16q4 -8 4 -20q0 -68 -39.5 -115t-103.5 -47q-36 0 -67 17t-54 41t-45.5 48t-50.5 41t-59 17q-63 0 -92 -51t-29 -113h-19z" />
    <glyph glyph-name="gravecomb" unicode="&#x300;" horiz-adv-x="700" 
d="M471 1200l-266 336h14q18 0 27 -14l250 -322h-25z" />
    <glyph glyph-name="acutecomb" unicode="&#x301;" horiz-adv-x="720" 
d="M182 1200l283 336h29l-283 -336h-29z" />
    <glyph glyph-name="circumflexcomb" unicode="&#x302;" horiz-adv-x="944" 
d="M750 1200l-238 311l-240 -311h-28l252 332h6q23 0 37 -19l239 -313h-28z" />
    <glyph glyph-name="tildecomb" unicode="&#x303;" horiz-adv-x="972" 
d="M225 1237q-4 16 -4 25q0 67 39 115t105 48q34 0 65 -17t54 -41.5t45.5 -48.5t51 -41t60.5 -17q35 0 60.5 16.5t38 42t18.5 51t6 49.5h16q4 -8 4 -20q0 -68 -39.5 -115t-103.5 -47q-36 0 -67 17t-54 41t-45.5 48t-50.5 41t-59 17q-63 0 -92 -51t-29 -113h-19z" />
    <glyph glyph-name="dieresiscomb" unicode="&#x308;" horiz-adv-x="782" 
d="M520 1290q-19 0 -30 11t-11 30t11 30t30 11t30 -11t11 -30t-11 -30t-30 -11zM254 1290q-19 0 -30 11t-11 30t11 30t30 11t30 -11t11 -30t-11 -30t-30 -11z" />
    <glyph glyph-name="cedillacomb" unicode="&#x327;" horiz-adv-x="817" 
d="M420 -426q-61 0 -114.5 22t-77.5 44l-23 22l12 25q3 -4 8.5 -9.5t25 -21t41.5 -27t56.5 -21t71.5 -9.5q84 0 126 37.5t42 99.5q0 54 -41.5 85.5t-102.5 31.5q-31 0 -58.5 -8.5t-45.5 -21t-31.5 -25t-19.5 -20.5l-6 -9l-23 12l129 233l23 -8l-95 -172q60 43 127 43
q70 0 119 -38t49 -103q0 -73 -49 -117.5t-143 -44.5z" />
    <glyph glyph-name="pi" unicode="&#x3c0;" horiz-adv-x="1304" 
d="M1055 18q-38 -26 -94 -26q-109 0 -109 117v890h-367v-999h-24v999h-277v25h936v-25h-243v-890q0 -49 20.5 -72t63.5 -23q38 0 83 25z" />
    <glyph glyph-name="endash" unicode="&#x2013;" horiz-adv-x="1333" 
d="M184 567v25h965v-25h-965z" />
    <glyph glyph-name="emdash" unicode="&#x2014;" horiz-adv-x="2027" 
d="M287 567v25h1454v-25h-1454z" />
    <glyph glyph-name="quoteleft" unicode="&#x2018;" horiz-adv-x="387" 
d="M231 1118q-38 0 -63 34t-25 87q0 133 148 223l12 -18q-54 -32 -88.5 -82.5t-34.5 -112.5q0 -42 25 -72t67 -30q0 -11 -11 -20t-30 -9z" />
    <glyph glyph-name="quoteright" unicode="&#x2019;" horiz-adv-x="387" 
d="M98 1100l-12 18q54 32 88.5 82.5t34.5 112.5q0 42 -25 72t-67 30q0 11 11 20t30 9q38 0 63 -34t25 -87q0 -133 -148 -223z" />
    <glyph glyph-name="quotesinglbase" unicode="&#x201a;" horiz-adv-x="387" 
d="M125 -309l-12 20q54 35 88.5 90.5t34.5 124.5q0 45 -25.5 79t-67.5 34q0 12 11 21.5t30 9.5q38 0 63 -38t25 -95q0 -80 -41.5 -142t-105.5 -104z" />
    <glyph glyph-name="quotedblleft" unicode="&#x201c;" horiz-adv-x="593" 
d="M442 1118q-38 0 -63 34t-25 87q0 133 148 223l12 -18q-54 -32 -88.5 -82.5t-34.5 -112.5q0 -42 25 -72t67 -30q0 -11 -11 -20t-30 -9zM229 1118q-38 0 -63 34t-25 87q0 133 148 223l12 -18q-54 -32 -88.5 -82.5t-34.5 -112.5q0 -42 25 -72t67 -30q0 -11 -11 -20t-30 -9z
" />
    <glyph glyph-name="quotedblright" unicode="&#x201d;" horiz-adv-x="585" 
d="M303 1100l-12 18q54 32 88.5 82.5t34.5 112.5q0 42 -25 72t-67 30q0 12 10.5 20.5t29.5 8.5q38 0 63.5 -34.5t25.5 -86.5q0 -133 -148 -223zM98 1100l-12 18q54 32 88.5 82.5t34.5 112.5q0 42 -25 72t-67 30q0 11 11 20t30 9q38 0 63 -34t25 -87q0 -133 -148 -223z" />
    <glyph glyph-name="quotedblbase" unicode="&#x201e;" horiz-adv-x="585" 
d="M125 -309l-12 20q54 35 88.5 90.5t34.5 124.5q0 45 -25.5 79t-67.5 34q0 12 11 21.5t30 9.5q38 0 63 -38t25 -95q0 -80 -41.5 -142t-105.5 -104zM324 -309l-13 20q54 35 88.5 90.5t34.5 124.5q0 46 -25 79.5t-67 33.5q0 12 11 21.5t30 9.5q38 0 63 -38t25 -95
q0 -80 -41.5 -142t-105.5 -104z" />
    <glyph glyph-name="dagger" unicode="&#x2020;" horiz-adv-x="987" 
d="M477 0l-4 999h-350v25h350v246l4 71h21l4 -71v-246h362v-25h-362l-4 -999h-21z" />
    <glyph glyph-name="daggerdbl" unicode="&#x2021;" horiz-adv-x="987" 
d="M477 0l-4 72v245h-350v25h350v657h-350v25h350v246l4 71h21l4 -71v-246h362v-25h-362v-657h362v-25h-362v-245l-4 -72h-21z" />
    <glyph glyph-name="bullet" unicode="&#x2022;" horiz-adv-x="655" 
d="M328 485q-35 0 -58.5 23.5t-23.5 58.5t23.5 58.5t58.5 23.5t58.5 -23.5t23.5 -58.5t-23.5 -58.5t-58.5 -23.5z" />
    <glyph glyph-name="ellipsis" unicode="&#x2026;" horiz-adv-x="1114" 
d="M219 -20q-20 0 -32.5 12.5t-12.5 32.5t12.5 32.5t32.5 12.5t32.5 -12.5t12.5 -32.5t-12.5 -32.5t-32.5 -12.5zM936 -20q-20 0 -32.5 12.5t-12.5 32.5t12.5 32.5t32.5 12.5t32.5 -12.5t12.5 -32.5t-12.5 -32.5t-32.5 -12.5zM578 -20q-20 0 -33 12.5t-13 32.5t13 32.5
t33 12.5t32.5 -12.5t12.5 -32.5t-12.5 -32.5t-32.5 -12.5z" />
    <glyph glyph-name="guilsinglleft" unicode="&#x2039;" horiz-adv-x="684" 
d="M487 66l-344 409v14l344 410h33l-350 -416l350 -417h-33z" />
    <glyph glyph-name="guilsinglright" unicode="&#x203a;" horiz-adv-x="684" 
d="M164 66l350 417l-350 416h33l344 -410v-14l-344 -409h-33z" />
    <glyph glyph-name="fraction" unicode="&#x2044;" horiz-adv-x="1091" 
d="M82 0l901 1434h27l-901 -1434h-27z" />
    <glyph glyph-name="Euro" unicode="&#x20ac;" horiz-adv-x="1017" 
d="M895 41q-119 -61 -262 -61q-99 0 -185.5 35.5t-158 106t-119 185.5t-61.5 264h-134l5 25h126q-4 66 -4 102q0 76 9 144h-136l5 24h133q18 144 67.5 255.5t121.5 181.5t160 105.5t187 35.5q70 0 134 -13t93 -27l29 -13l-8 -23q-11 6 -32 14.5t-86 22.5t-130 14
q-93 0 -176 -34t-151.5 -100.5t-116.5 -173.5t-66 -245h584l-4 -24h-582q-8 -60 -8 -144q0 -36 4 -102h547l-4 -25h-541q13 -143 58.5 -253.5t113.5 -178t150 -101.5t176 -34q145 0 268 68z" />
    <glyph glyph-name="uni2116" unicode="&#x2116;" horiz-adv-x="2111" 
d="M1710 854q-95 0 -164 54.5t-103 145.5t-34 206q0 172 79.5 283.5t221.5 111.5q139 0 219 -112t80 -283q0 -176 -80 -291t-219 -115zM1710 874q131 0 204 109.5t73 276.5q0 162 -72.5 268t-204.5 106q-134 0 -206 -105.5t-72 -268.5q0 -168 72 -277t206 -109zM1133 8
l-975 1381l4 -1389h-29v1444h8q10 0 19 -12l968 -1373l-4 1375h29v-1434h-8q-7 0 -12 8zM1436 649v25h555v-25h-555z" />
    <glyph glyph-name="uni2120" unicode="&#x2120;" horiz-adv-x="1101" 
d="M741 1053l-123 354l-96 -469h-24l104 506h19q9 0 12 -10l127 -369l143 379h17q10 0 12 -12l88 -494h-23l-84 469l-139 -365h-20q-9 0 -13 11zM221 932q-68 0 -129 26v23q64 -29 129 -29q89 0 133.5 30.5t44.5 82.5q0 46 -33 74t-106 47l-47 12q-127 32 -127 121
q0 54 48 89.5t138 35.5q69 0 127 -25l-6 -20q-53 24 -121 24q-78 0 -120.5 -29.5t-42.5 -74.5q0 -75 110 -102l49 -13q80 -21 116 -53t36 -86q0 -59 -50 -96t-149 -37z" />
    <glyph glyph-name="trademark" unicode="&#x2122;" horiz-adv-x="1101" 
d="M242 938v479l-160 6v21h344v-21l-160 -6v-479h-24zM741 1053l-123 354l-96 -469h-24l104 506h19q9 0 12 -10l127 -369l143 379h17q10 0 12 -12l88 -494h-23l-84 469l-139 -365h-20q-9 0 -13 11z" />
    <glyph glyph-name="uni2150" unicode="&#x2150;" horiz-adv-x="1460" 
d="M256 0l901 1434h27l-901 -1434h-27zM1036 0h-22q44 357 344 760h-481v22h509v-14q-301 -393 -350 -768zM555 651h-453v21h215v737l-206 -76v23l198 71q14 7 23 7h8v-762h215v-21z" />
    <glyph glyph-name="uni2151" unicode="&#x2151;" horiz-adv-x="1419" 
d="M264 0l901 1434h27l-901 -1434h-27zM1085 315q80 0 138 35.5t86 75.5v49q0 131 -55.5 211t-166.5 80q-94 0 -154.5 -65t-60.5 -162q0 -94 51.5 -159t161.5 -65zM555 651h-453v21h215v737l-206 -76v23l198 71q14 7 23 7h8v-762h215v-21zM1065 -12q-91 0 -170 51l10 20
q76 -49 160 -49q57 0 98.5 16t76 55.5t52 114.5t17.5 185v16q-33 -41 -91 -72.5t-135 -31.5q-117 0 -175 71t-58 177q0 104 66.5 174.5t170.5 70.5q120 0 182 -84.5t62 -226.5v-90q0 -95 -13.5 -165.5t-36 -114.5t-57.5 -70.5t-72.5 -36.5t-86.5 -10z" />
    <glyph glyph-name="onethird" unicode="&#x2153;" horiz-adv-x="1517" 
d="M305 0l901 1434h27l-901 -1434h-27zM555 651h-453v21h215v737l-206 -76v23l198 71q14 7 23 7h8v-762h215v-21zM1141 -12q-104 0 -193 32l8 21q86 -31 185 -31q140 0 203 55.5t63 141.5q0 98 -64.5 142t-189.5 44h-74v21h74q109 0 166 51t57 127q0 80 -54.5 128t-170.5 48
q-81 0 -178 -37l-8 19q89 36 186 36q124 0 186 -51.5t62 -140.5q0 -70 -43 -121.5t-125 -69.5q88 -8 143.5 -55.5t55.5 -142.5q0 -98 -71 -157.5t-218 -59.5z" />
    <glyph glyph-name="twothirds" unicode="&#x2154;" horiz-adv-x="1464" 
d="M92 651v35q0 50 17 91t54 77t66.5 57.5t83.5 55.5l37 22q45 28 73.5 49.5t58.5 52.5t44.5 68t14.5 80q0 74 -57 126t-169 52q-96 0 -188 -45l-6 21q110 45 194 45q121 0 184.5 -57.5t63.5 -141.5q0 -48 -16.5 -88t-51 -73.5t-64 -55.5t-79.5 -53l-35 -25q-46 -28 -76 -50
t-61.5 -53.5t-47 -69.5t-15.5 -83v-16h448v-21h-473zM276 0l902 1434h26l-901 -1434h-27zM1087 -12q-103 0 -192 32l8 21q86 -31 184 -31q140 0 203.5 55.5t63.5 141.5q0 98 -64.5 142t-189.5 44h-74v21h74q109 0 166 51t57 127q0 80 -54.5 128t-170.5 48q-81 0 -178 -37
l-9 19q89 36 187 36q124 0 186 -51.5t62 -140.5q0 -70 -43 -121.5t-125 -69.5q88 -8 143 -55.5t55 -142.5q0 -98 -71 -157.5t-218 -59.5z" />
    <glyph glyph-name="oneeighth" unicode="&#x215b;" horiz-adv-x="1466" 
d="M295 0l901 1434h27l-901 -1434h-27zM1139 -12q-120 0 -190 57t-70 150q0 80 56.5 137t141.5 88q-166 53 -166 182q0 82 65 133t163 51q97 0 161 -51t64 -133q0 -136 -170 -192q203 -57 203 -213q0 -93 -71 -151t-187 -58zM1118 428l51 -12q174 55 174 184q0 74 -57.5 121
t-146.5 47q-91 0 -149 -47t-58 -121q0 -124 186 -172zM555 651h-453v21h215v737l-206 -76v23l198 71q14 7 23 7h8v-762h215v-21zM1139 8q108 0 171.5 53t63.5 136q0 78 -55 126t-160 76l-51 13l-6 2q-87 -32 -144 -87.5t-57 -133.5q0 -81 63.5 -133t174.5 -52z" />
    <glyph glyph-name="arrowleft" unicode="&#x2190;" horiz-adv-x="1667" 
d="M1462 485h-1169l438 -440h-22q-15 0 -25 10l-438 441v4l438 438q10 10 25 10h22l-438 -438h1169v-25z" />
    <glyph glyph-name="arrowup" unicode="&#x2191;" horiz-adv-x="1312" 
d="M1108 559l-438 438v-997h-25v997l-440 -438v23q0 14 10 24l440 438h4l439 -438q10 -10 10 -24v-23z" />
    <glyph glyph-name="arrowright" unicode="&#x2192;" horiz-adv-x="1667" 
d="M958 45h-22l438 440h-1169v25h1169l-438 438h22q15 0 25 -10l438 -438v-4l-438 -441q-10 -10 -25 -10z" />
    <glyph glyph-name="arrowdown" unicode="&#x2193;" horiz-adv-x="1312" 
d="M659 -20h-4l-440 438q-10 10 -10 24v23l440 -438v997h25v-997l438 438v-23q0 -14 -10 -24z" />
    <glyph glyph-name="arrowboth" unicode="&#x2194;" horiz-adv-x="2263" 
d="M709 45q-15 0 -25 10l-438 441v4l438 438q10 10 25 10h22l-440 -440l444 2h795l442 -2l-440 440h22q15 0 25 -10l438 -438v-4l-438 -441q-10 -10 -25 -10h-22l440 442l-442 -2h-795l-444 2l440 -442h-22z" />
    <glyph glyph-name="arrowupdn" unicode="&#x2195;" horiz-adv-x="1312" 
d="M659 -20h-4l-440 368q-10 10 -10 25v18l440 -366v974l-440 -366v18q0 15 10 25l440 368h4l439 -368q10 -10 10 -25v-18l-438 366v-974l438 366v-18q0 -15 -10 -25z" />
    <glyph glyph-name="arrowupleft" unicode="&#x2196;" horiz-adv-x="1474" 
d="M1270 16l-17 -16l-983 983v-745l-14 12q-10 10 -10 26v746l2 2h745q17 0 27 -10l12 -15h-745z" />
    <glyph glyph-name="arrowupright" unicode="&#x2197;" horiz-adv-x="1474" 
d="M1204 238v745l-983 -983l-16 16l983 983h-746l13 15q10 10 26 10h746l2 -2v-746q0 -16 -10 -26z" />
    <glyph glyph-name="arrowdownright" unicode="&#x2198;" horiz-adv-x="1474" 
d="M1227 0h-746q-16 0 -26 10l-13 15h746l-983 983l16 16l983 -983v745l15 -12q10 -10 10 -26v-746z" />
    <glyph glyph-name="arrowdownleft" unicode="&#x2199;" horiz-adv-x="1474" 
d="M993 0h-745l-2 2v746q0 16 10 26l14 12v-745l983 983l17 -16l-983 -983h745l-12 -15q-10 -10 -27 -10z" />
    <glyph glyph-name="minus" unicode="&#x2212;" horiz-adv-x="1024" 
d="M164 649v25h694v-25h-694z" />
    <glyph glyph-name="infinity" unicode="&#x221e;" horiz-adv-x="1718" 
d="M1309 203q-86 0 -165.5 44t-133.5 101l-150 156l-151 -156q-56 -58 -134.5 -101.5t-164.5 -43.5q-147 0 -237.5 90.5t-90.5 226.5q0 133 91.5 226.5t238.5 93.5q166 0 297 -140l149 -161l152 161q131 140 297 140q147 0 238 -93.5t91 -226.5q0 -136 -90 -226.5
t-237 -90.5zM1313 227q130 0 213.5 85.5t83.5 207.5t-84.5 208.5t-218.5 86.5q-149 0 -287 -143l-141 -150l141 -147q144 -148 293 -148zM406 227q151 0 292 148l140 145l-140 152q-133 143 -286 143q-134 0 -218.5 -86.5t-84.5 -208.5t83.5 -207.5t213.5 -85.5z" />
    <glyph glyph-name="notequal" unicode="&#x2260;" horiz-adv-x="1024" 
d="M858 463h-369l-51 -266h-24l51 266h-301v24h307l57 297h-364v25h371l51 266h24l-51 -266h299v-25h-305l-57 -297h362v-24z" />
    <glyph glyph-name="lessequal" unicode="&#x2264;" horiz-adv-x="1228" 
d="M1059 371l-895 344v30l895 345v-29l-864 -330l864 -332v-28zM1059 182l-895 344v27l895 -342v-29z" />
    <glyph glyph-name="greaterequal" unicode="&#x2265;" horiz-adv-x="1228" 
d="M164 371v28l864 332l-864 330v29l895 -345v-30zM164 182v29l895 342v-27z" />
    <glyph glyph-name="uni22A0" unicode="&#x22a0;" horiz-adv-x="1665" 
d="M123 0v1434h1419v-1434h-1419zM147 25h1371v1384h-1371v-1384zM1108 412l-279 278l-280 -280l-17 18l279 281l-279 278l17 21l280 -281l279 279l20 -17l-280 -280l280 -279z" />
    <glyph glyph-name="house" unicode="&#x2302;" horiz-adv-x="1742" 
d="M225 0v633l645 682l648 -682v-633h-1293z" />
    <glyph glyph-name="uni2460" unicode="&#x2460;" horiz-adv-x="1785" 
d="M893 -20q-200 0 -367.5 97.5t-264.5 265.5t-97 368t97 368.5t264.5 266.5t367.5 98t367.5 -98t264.5 -266.5t97 -368.5t-97 -368t-264.5 -265.5t-367.5 -97.5zM678 371h452v20h-215v762h-6q-11 0 -26 -6l-197 -72v-22l207 75v-737h-215v-20z" />
    <glyph glyph-name="uni2461" unicode="&#x2461;" horiz-adv-x="1785" 
d="M893 -20q-200 0 -367.5 97.5t-264.5 265.5t-97 368t97 368.5t264.5 266.5t367.5 98t367.5 -98t264.5 -266.5t97 -368.5t-97 -368t-264.5 -265.5t-367.5 -97.5zM645 344h473v21h-448v16q0 45 15.5 83t47 69.5t61.5 53.5t76 50l35 25q50 31 79.5 53t64 55.5t51 73.5
t16.5 88q0 84 -63.5 141t-184.5 57q-84 0 -194 -45l6 -20q92 45 188 45q112 0 169 -52t57 -126q0 -43 -14.5 -80t-44.5 -68t-58.5 -52.5t-73.5 -49.5l-37 -23q-54 -34 -83.5 -55.5t-66.5 -57t-54 -76.5t-17 -91v-35z" />
    <glyph glyph-name="uni2462" unicode="&#x2462;" horiz-adv-x="1785" 
d="M893 -20q-200 0 -367.5 97.5t-264.5 265.5t-97 368t97 368.5t264.5 266.5t367.5 98t367.5 -98t264.5 -266.5t97 -368.5t-97 -368t-264.5 -265.5t-367.5 -97.5zM948 731v4q11 0 15 -2q-2 0 -7.5 -1t-7.5 -1zM872 317q146 0 217.5 60t71.5 158q0 95 -55 142.5t-143 55.5
q82 18 124.5 69.5t42.5 121.5q0 90 -61.5 141t-185.5 51q-95 0 -187 -37l9 -18q97 37 178 37q116 0 170.5 -48t54.5 -128q0 -76 -57 -127.5t-166 -51.5h-74v-20h74q125 0 189.5 -44t64.5 -142q0 -86 -63.5 -141.5t-203.5 -55.5q-98 0 -184 31l-8 -21q92 -33 192 -33z" />
    <glyph glyph-name="uni2463" unicode="&#x2463;" horiz-adv-x="1785" 
d="M893 -20q-200 0 -367.5 97.5t-264.5 265.5t-97 368t97 368.5t264.5 266.5t367.5 98t367.5 -98t264.5 -266.5t97 -368.5t-97 -368t-264.5 -265.5t-367.5 -97.5zM954 330h21v245h141v21h-141v516h-23l-387 -520v-17h389v-245zM594 596l360 487v-487h-360z" />
    <glyph glyph-name="uni2464" unicode="&#x2464;" horiz-adv-x="1785" 
d="M893 -20q-200 0 -367.5 97.5t-264.5 265.5t-97 368t97 368.5t264.5 266.5t367.5 98t367.5 -98t264.5 -266.5t97 -368.5t-97 -368t-264.5 -265.5t-367.5 -97.5zM850 317q42 0 82.5 9t81 31t71 54.5t49.5 83.5t19 115q0 66 -22.5 115t-62 76.5t-85.5 41t-98 13.5
q-93 0 -176 -27v261h401v22h-422v-297l17 -6q83 27 174 27q108 0 179.5 -53.5t71.5 -172.5q0 -60 -17.5 -107.5t-45.5 -77t-65.5 -49.5t-74.5 -28t-75 -8q-91 0 -156 27l-6 -21q70 -29 160 -29z" />
    <glyph glyph-name="uni2465" unicode="&#x2465;" horiz-adv-x="1785" 
d="M893 -20q-200 0 -367.5 97.5t-264.5 265.5t-97 368t97 368.5t264.5 266.5t367.5 98t367.5 -98t264.5 -266.5t97 -368.5t-97 -368t-264.5 -265.5t-367.5 -97.5zM883 324q108 0 172.5 77t64.5 193q0 105 -60 175.5t-181 70.5q-70 0 -130 -36t-98 -83q0 194 76.5 287.5
t198.5 93.5q65 0 137 -37l8 20q-72 37 -145 37q-61 0 -113 -22.5t-94.5 -70t-67 -131.5t-24.5 -196v-28q0 -95 26 -172t85.5 -127.5t144.5 -50.5zM883 346q-61 0 -107 27.5t-72.5 75t-39.5 103t-13 118.5v22q28 45 91 85t135 40q114 0 167.5 -64.5t53.5 -158.5
q0 -107 -58 -177.5t-157 -70.5z" />
    <glyph glyph-name="uni2466" unicode="&#x2466;" horiz-adv-x="1785" 
d="M893 -20q-200 0 -367.5 97.5t-264.5 265.5t-97 368t97 368.5t264.5 266.5t367.5 98t367.5 -98t264.5 -266.5t97 -368.5t-97 -368t-264.5 -265.5t-367.5 -97.5zM797 303h22q49 375 350 768v14h-510v-22h482q-300 -403 -344 -760z" />
    <glyph glyph-name="uni2467" unicode="&#x2467;" horiz-adv-x="1785" 
d="M893 -20q-200 0 -367.5 97.5t-264.5 265.5t-97 368t97 368.5t264.5 266.5t367.5 98t367.5 -98t264.5 -266.5t97 -368.5t-97 -368t-264.5 -265.5t-367.5 -97.5zM897 324q116 0 187 57.5t71 150.5q0 156 -203 213q170 56 170 193q0 82 -64 133t-161 51q-98 0 -162.5 -51
t-64.5 -133q0 -129 166 -182q-85 -31 -142 -88.5t-57 -137.5q0 -93 70 -149.5t190 -56.5zM928 752l-51 12q-87 23 -137 63.5t-50 108.5q0 74 58 121t149 47q89 0 147 -47.5t58 -120.5q0 -129 -174 -184zM897 344q-111 0 -174.5 52t-63.5 132q0 78 57 134.5t144 87.5l58 -15
q215 -53 215 -203q0 -83 -64 -135.5t-172 -52.5z" />
    <glyph glyph-name="uni2468" unicode="&#x2468;" horiz-adv-x="1785" 
d="M893 -20q-200 0 -367.5 97.5t-264.5 265.5t-97 368t97 368.5t264.5 266.5t367.5 98t367.5 -98t264.5 -266.5t97 -368.5t-97 -368t-264.5 -265.5t-367.5 -97.5zM887 647q-110 0 -161.5 64.5t-51.5 158.5q0 97 60.5 162.5t154.5 65.5q111 0 166 -79.5t55 -211.5v-49
q-28 -41 -85.5 -76t-137.5 -35zM866 319q48 0 86 10t73 37t58 71t36.5 114.5t13.5 165.5v90q0 142 -62 226.5t-182 84.5q-104 0 -171 -71t-67 -175q0 -106 58.5 -176.5t175.5 -70.5q77 0 134 31.5t91 72.5v-16q0 -110 -17.5 -185t-52 -114.5t-76 -55.5t-98.5 -16
q-83 0 -159 49l-11 -20q81 -52 170 -52z" />
    <glyph glyph-name="uni24C5" unicode="&#x24c5;" horiz-adv-x="1744" 
d="M872 -20q-152 0 -287.5 56.5t-232 154t-153 233t-56.5 287.5t56.5 288t153 233.5t232 154.5t287.5 57t287.5 -57t232.5 -154.5t153.5 -233.5t56.5 -288t-56.5 -287.5t-153.5 -233t-232.5 -154t-287.5 -56.5zM872 6q145 0 275 55t224 148.5t149 224.5t55 277t-55 277
t-149 225t-224 149t-275 55q-194 0 -355 -93t-254 -255.5t-93 -357.5t93 -357t254 -255t355 -93zM874 633q82 0 141 22t91 60.5t46.5 83t14.5 96.5q0 36 -7.5 67.5t-26 62.5t-47 52.5t-74.5 35t-105 13.5h-221v-467q76 -26 188 -26zM874 606q-104 0 -188 25v-365h-27v885
h248q78 0 136 -21.5t89.5 -58.5t46.5 -81t15 -95q0 -56 -17.5 -106t-53.5 -92t-100 -66.5t-149 -24.5z" />
    <glyph glyph-name="uni24EA" unicode="&#x24ea;" horiz-adv-x="1785" 
d="M893 -20q-200 0 -367.5 97.5t-264.5 265.5t-97 368t97 368.5t264.5 266.5t367.5 98t367.5 -98t264.5 -266.5t97 -368.5t-97 -368t-264.5 -265.5t-367.5 -97.5zM893 309q121 0 191.5 115t70.5 291q0 171 -70.5 282t-191.5 111q-124 0 -196 -111t-72 -282q0 -176 71.5 -291
t196.5 -115zM893 332q-115 0 -179.5 108t-64.5 275q0 161 65 265.5t179 104.5q112 0 174.5 -104.5t62.5 -265.5q0 -108 -27 -194t-81.5 -137.5t-128.5 -51.5z" />
    <glyph glyph-name="uni25A0" unicode="&#x25a0;" horiz-adv-x="1665" 
d="M123 0v1434h1419v-1434h-1419z" />
    <glyph glyph-name="uni25A1" unicode="&#x25a1;" horiz-adv-x="1665" 
d="M123 0v1434h1419v-1434h-1419zM147 25h1371v1384h-1371v-1384z" />
    <glyph glyph-name="uni25AA" unicode="&#x25aa;" horiz-adv-x="1259" 
d="M123 0v1024h1014v-1024h-1014z" />
    <glyph glyph-name="uni25AB" unicode="&#x25ab;" horiz-adv-x="1259" 
d="M123 0v1024h1014v-1024h-1014zM147 25h965v974h-965v-974z" />
    <glyph glyph-name="triagup" unicode="&#x25b2;" horiz-adv-x="1331" 
d="M164 0l491 1044h21l491 -1044h-1003z" />
    <glyph glyph-name="triagrt" unicode="&#x25ba;" horiz-adv-x="1312" 
d="M246 -20v1064h16l846 -512v-20l-846 -532h-16z" />
    <glyph glyph-name="triagdn" unicode="&#x25bc;" horiz-adv-x="1331" 
d="M655 -20l-491 1044h1003l-491 -1044h-21z" />
    <glyph glyph-name="triaglf" unicode="&#x25c4;" horiz-adv-x="1312" 
d="M1051 -20l-846 532v20l846 512h16v-1064h-16z" />
    <glyph glyph-name="uni25CB" unicode="&#x25cb;" horiz-adv-x="1785" 
d="M893 -20q-200 0 -367.5 97.5t-264.5 265.5t-97 368t97 368.5t264.5 266.5t367.5 98t367.5 -98t264.5 -266.5t97 -368.5t-97 -368t-264.5 -265.5t-367.5 -97.5zM893 4q145 0 275.5 56t224.5 151t149 225.5t55 274.5q0 193 -93.5 355.5t-255.5 257.5t-355 95t-355.5 -95
t-256 -257.5t-93.5 -355.5q0 -143 55.5 -274t149.5 -226t224.5 -151t275.5 -56z" />
    <glyph glyph-name="uni25CF" unicode="&#x25cf;" horiz-adv-x="1785" 
d="M893 -20q-200 0 -367.5 97.5t-264.5 265.5t-97 368t97 368.5t264.5 266.5t367.5 98t367.5 -98t264.5 -266.5t97 -368.5t-97 -368t-264.5 -265.5t-367.5 -97.5z" />
    <glyph glyph-name="uni2605" unicode="&#x2605;" horiz-adv-x="1806" 
d="M1323 -12l-420 311l-420 -311l-39 26l174 486l-434 291l15 45l528 -17l152 494h49l151 -494l529 17l14 -45l-434 -291l174 -486z" />
    <glyph glyph-name="uni2612" unicode="&#x2612;" horiz-adv-x="1259" 
d="M123 0v1024h1014v-1024h-1014zM147 25h965v974h-965v-974zM862 256l-235 236l-238 -238l-16 18l237 238l-237 235l16 19l238 -238l235 236l19 -17l-236 -235l236 -238z" />
    <glyph glyph-name="uni263D" unicode="&#x263d;" horiz-adv-x="1540" 
d="M922 -31q-347 0 -538 175.5t-191 496.5q0 145 49.5 268t141 212t230 139.5t308.5 50.5q110 0 224.5 -34.5t194.5 -94.5l27 -19l-27 -47l-28 8q-84 25 -142 25q-120 0 -219.5 -60t-159 -173.5t-59.5 -260.5q0 -221 129 -371.5t312 -150.5q72 0 137 23l30 10l27 -49
l-27 -19q-80 -60 -194.5 -94.5t-224.5 -34.5z" />
    <glyph glyph-name="spade" unicode="&#x2660;" horiz-adv-x="1630" 
d="M602 0v43q72 87 121.5 215t62.5 293h-8q-46 -120 -129 -198.5t-198 -78.5q-120 0 -203.5 87t-83.5 214q0 53 19.5 104.5t45 89t75.5 85t84.5 75t98.5 76.5q17 13 25 19q114 89 185.5 162.5t107.5 163.5h20q36 -90 107.5 -164.5t183.5 -163.5q10 -8 31 -24
q46 -36 69.5 -54.5t64 -52.5t61.5 -57t49 -57t41.5 -63.5t23.5 -65.5t10 -73q0 -127 -83 -214t-203 -87q-115 0 -198.5 78.5t-129.5 198.5h-8q24 -310 188 -508v-43h-430z" />
    <glyph glyph-name="club" unicode="&#x2663;" horiz-adv-x="1622" 
d="M596 0v45q159 202 182 487h-12q-46 -117 -125 -191.5t-190 -74.5q-120 0 -203.5 84t-83.5 207q0 130 78.5 214.5t203.5 84.5q66 0 138 -39l2 4q-62 97 -62 195q0 124 82.5 211.5t204.5 87.5t204.5 -87.5t82.5 -211.5q0 -98 -62 -195l2 -4q72 39 138 39q125 0 203.5 -84.5
t78.5 -214.5q0 -123 -83.5 -207t-203.5 -84q-111 0 -190 74.5t-125 191.5h-12q23 -282 184 -487v-45h-432z" />
    <glyph glyph-name="heart" unicode="&#x2665;" horiz-adv-x="1761" 
d="M879 -20q-170 126 -298 245.5t-204 215t-123 188t-63.5 162t-16.5 139.5q0 144 92 235.5t248 91.5q79 0 140.5 -19.5t103 -56.5t68.5 -78t48 -95h13q21 54 48 95t68.5 78t103 56.5t140.5 19.5q156 0 248 -91.5t92 -235.5q0 -71 -17 -142t-64 -163t-123.5 -188
t-203.5 -214t-296 -243h-4z" />
    <glyph glyph-name="diamond" unicode="&#x2666;" horiz-adv-x="1511" 
d="M729 -14l-6 10q-100 167 -247.5 333.5t-311.5 299.5v57q163 130 310.5 297t248.5 334l6 10h53l6 -10q101 -167 249 -333.5t311 -297.5v-57q-165 -133 -312.5 -299.5t-247.5 -333.5l-6 -10h-53z" />
    <glyph glyph-name="uni2672" unicode="&#x2672;" horiz-adv-x="1792" 
d="M1260 885l-283 51l67 39l-118 205q-22 38 -59.5 61.5t-64.5 28.5l-26 4h318q56 0 88.5 -13t60.5 -63l47 -80l70 39zM688 836l-246 141l111 194q19 33 55 52q75 38 158.5 15t112.5 -73zM1382 389l-190 330l244 141l112 -192q17 -30 17 -72q1 -79 -62.5 -143t-120.5 -64z
M416 197l-156 274q-18 33 -25.5 52.5t-5 51t22.5 66.5l47 80l-70 39l285 51l98 -272l-67 39q-115 -197 -119 -205q-22 -36 -23.5 -80t7.5 -70l10 -26h-4zM1137 -16l-187 223l187 221v-80h237q27 0 53 8.5t43.5 21t31.5 25t21 21.5l7 8v-2l-156 -274q-35 -51 -51 -65
q-35 -28 -94 -28h-92v-79zM625 63q-36 0 -72 23q-36 20 -60.5 56t-34 73.5t-8 73.5t14.5 59h381v-285h-221z" />
    <glyph glyph-name="uni26AA" unicode="&#x26aa;" horiz-adv-x="1351" 
d="M676 -20q-146 0 -269 71.5t-193.5 194t-70.5 266.5q0 145 71 267.5t193.5 193.5t268.5 71t268.5 -71t193 -193.5t70.5 -267.5q0 -144 -70.5 -266.5t-193 -194t-268.5 -71.5zM676 4q139 0 256 68.5t184.5 185t67.5 254.5t-67.5 254.5t-184.5 185t-256 68.5t-256 -68.5
t-184.5 -185t-67.5 -254.5t67.5 -254.5t184.5 -185t256 -68.5z" />
    <glyph glyph-name="uni26AB" unicode="&#x26ab;" horiz-adv-x="1351" 
d="M676 -20q-146 0 -269 71.5t-193.5 194t-70.5 266.5q0 145 71 267.5t193.5 193.5t268.5 71t268.5 -71t193 -193.5t70.5 -267.5q0 -144 -70.5 -266.5t-193 -194t-268.5 -71.5z" />
    <glyph glyph-name="uni29EB" unicode="&#x29eb;" horiz-adv-x="1148" 
d="M561 -25l-428 662l430 666h25l428 -670l-428 -658h-27z" />
    <glyph glyph-name="onefifth" horiz-adv-x="1556" 
d="M276 0l902 1434h26l-901 -1434h-27zM555 651h-453v21h215v737l-206 -76v23l198 71q14 7 23 7h8v-762h215v-21zM1159 -12q-92 0 -160 28l7 21q65 -27 155 -27q38 0 75 8t74.5 28t65.5 50t46 77.5t18 107.5q0 62 -21 107.5t-58 70t-79.5 36t-93.5 11.5q-91 0 -174 -27
l-17 6v297h422v-22h-401v-260q80 26 176 26q41 0 79 -8t73 -26t60.5 -45.5t40.5 -70t15 -95.5q0 -64 -19 -115t-49.5 -83.5t-71 -54.5t-81 -31t-82.5 -9z" />
    <glyph glyph-name="onesixth" horiz-adv-x="1433" 
d="M281 0l901 1434h26l-901 -1434h-26zM1352 258q0 -116 -65 -193t-173 -77q-85 0 -144.5 50.5t-85.5 127.5t-26 172v29q0 112 24.5 196t67 131t94.5 69.5t113 22.5q76 0 146 -36l-9 -21q-72 37 -137 37q-122 0 -198 -93.5t-76 -287.5q38 47 97.5 83t129.5 36
q121 0 181.5 -70.5t60.5 -175.5zM555 651h-453v21h215v737l-206 -76v23l198 71q14 7 23 7h8v-762h215v-21zM1114 10q99 0 157 70.5t58 177.5q0 94 -53.5 158.5t-167.5 64.5q-72 0 -134.5 -40t-90.5 -85v-22q0 -63 13 -118.5t39 -103t72 -75t107 -27.5z" />
    <glyph glyph-name="twofifths" horiz-adv-x="1501" 
d="M92 651v35q0 50 17 91t54 77t66.5 57.5t83.5 55.5l37 22q45 28 73.5 49.5t58.5 52.5t44.5 68t14.5 80q0 74 -57 126t-169 52q-96 0 -188 -45l-6 21q110 45 194 45q121 0 184.5 -57.5t63.5 -141.5q0 -48 -16.5 -88t-51 -73.5t-64 -55.5t-79.5 -53l-35 -25q-46 -28 -76 -50
t-61.5 -53.5t-47 -69.5t-15.5 -83v-16h448v-21h-473zM279 0l901 1434h26l-901 -1434h-26zM1104 -12q-92 0 -160 28l6 21q65 -27 156 -27q48 0 94 14t89 43.5t69 84.5t26 129q0 119 -71.5 172t-179.5 53q-92 0 -175 -27l-16 6v297h422v-22h-401v-260q80 26 176 26q41 0 79 -8
t73 -26t60.5 -45.5t40.5 -70t15 -95.5q0 -64 -19 -115t-49.5 -83.5t-71 -54.5t-81 -31t-82.5 -9z" />
    <glyph glyph-name="threefifths" horiz-adv-x="1531" 
d="M272 0l902 1434h26l-901 -1434h-27zM281 639q-101 0 -193 33l8 20q84 -30 185 -30q140 0 203 55t63 141q0 98 -64.5 142t-189.5 44h-74v21h74q109 0 166 51t57 127q0 80 -54.5 128t-170.5 48q-81 0 -178 -37l-9 19q92 37 187 37q124 0 186 -51.5t62 -141.5
q0 -70 -43 -121t-125 -69q87 -8 142.5 -55.5t55.5 -143.5q0 -98 -71 -157.5t-217 -59.5zM1135 -12q-92 0 -160 28l6 21q65 -27 156 -27q48 0 94 14t89 43.5t69 84.5t26 129q0 62 -21 107.5t-58 70t-79.5 36t-93.5 11.5q-91 0 -174 -27l-16 6v297h422v-22h-402v-260
q80 26 176 26q53 0 99 -13t85 -40.5t62 -76.5t23 -115q0 -64 -19 -115t-49.5 -83.5t-71 -54.5t-81 -31t-82.5 -9z" />
    <glyph glyph-name="fourfifths" horiz-adv-x="1439" 
d="M250 0l901 1434h27l-902 -1434h-26zM451 918v487l-361 -487h361zM612 897h-141v-246h-20v246h-390v16l388 521h22v-516h141v-21zM1092 -12q-92 0 -160 28l6 21q65 -27 156 -27q48 0 94 14t89 43.5t69 84.5t26 129q0 62 -21 107.5t-58 70t-79.5 36t-93.5 11.5
q-91 0 -174 -27l-16 6v297h422v-22h-402v-260q80 26 176 26q53 0 99 -13t85 -40.5t62 -76.5t23 -115q0 -64 -19 -115t-49.5 -83.5t-71 -54.5t-81 -31t-82.5 -9z" />
    <glyph glyph-name="zero.sups" 
d="M332 858q-125 0 -197 115t-72 291q0 171 72.5 282t196.5 111q121 0 191.5 -111t70.5 -282q0 -176 -70.5 -291t-191.5 -115zM332 881q74 0 128.5 51.5t81.5 137.5t27 194q0 161 -62.5 265.5t-174.5 104.5q-114 0 -179 -104.5t-65 -265.5q0 -167 64.5 -275t179.5 -108z" />
    <glyph glyph-name="one.sups" 
d="M555 870h-453v21h215v737l-206 -76v23l198 72q12 6 23 6h8v-762h215v-21z" />
    <glyph glyph-name="two.sups" 
d="M92 870v35q0 50 17 91t54 77t66.5 57.5t83.5 55.5l37 22q45 28 73.5 49.5t58.5 52.5t44.5 68t14.5 80q0 74 -57 126t-169 52q-96 0 -188 -45l-6 21q110 45 194 45q121 0 184.5 -57.5t63.5 -141.5q0 -48 -16.5 -88t-51 -73.5t-64 -55.5t-79.5 -53l-35 -25q-46 -28 -76 -50
t-61.5 -53.5t-47 -69.5t-15.5 -83v-16h448v-21h-473z" />
    <glyph glyph-name="three.sups" 
d="M281 858q-101 0 -193 33l8 20q84 -30 185 -30q140 0 203 55t63 141q0 98 -64.5 142.5t-189.5 44.5h-74v20h74q109 0 166 51t57 127q0 80 -54.5 128t-170.5 48q-84 0 -178 -36l-9 18q92 37 187 37q124 0 186 -51.5t62 -141.5q0 -70 -43 -121t-125 -69q87 -8 142.5 -55.5
t55.5 -143.5q0 -98 -71 -157.5t-217 -59.5z" />
    <glyph glyph-name="four.sups" 
d="M451 1137v487l-361 -487h361zM612 1116h-141v-246h-20v246h-390v17l388 520h22v-516h141v-21z" />
    <glyph glyph-name="five.sups" 
d="M260 858q-90 0 -160 29l6 20q63 -26 156 -26q38 0 75 8t74.5 28t65.5 49.5t46 77t18 107.5q0 62 -21 107.5t-58 70t-79.5 36t-93.5 11.5q-94 0 -174 -26l-17 6v297h422v-23h-401v-260q83 27 176 27q52 0 98 -13.5t85.5 -41t62 -76.5t22.5 -115q0 -64 -19 -115
t-49.5 -83.5t-71 -54.5t-81 -31t-82.5 -9z" />
    <glyph glyph-name="six.sups" 
d="M575 1128q0 -116 -64.5 -193t-172.5 -77q-85 0 -144.5 50.5t-85.5 127.5t-26 172v29q0 112 24.5 196t67 131.5t94.5 70t113 22.5q73 0 145 -37l-8 -21q-72 37 -137 37q-122 0 -198.5 -93.5t-76.5 -287.5q38 47 98 83t130 36q121 0 181 -70.5t60 -175.5zM338 881
q99 0 157 70t58 177q0 94 -53.5 159t-167.5 65q-72 0 -135 -40t-91 -85v-23q0 -85 22 -155.5t76 -119t134 -48.5z" />
    <glyph glyph-name="seven.sups" 
d="M233 870h-22q44 357 344 760h-481v23h510v-15q-303 -394 -351 -768z" />
    <glyph glyph-name="eight.sups" 
d="M330 858q-120 0 -190 57t-70 150q0 80 56.5 137t141.5 88q-166 53 -166 183q0 82 65 133t163 51q97 0 161 -51t64 -133q0 -137 -170 -193q203 -57 203 -213q0 -93 -71 -151t-187 -58zM309 1298l51 -12q175 55 175 184q0 73 -58 120.5t-147 47.5q-91 0 -149 -47t-58 -121
q0 -124 186 -172zM330 879q108 0 171.5 52.5t63.5 135.5q0 78 -55 126.5t-160 76.5l-51 12l-6 2q-87 -32 -144 -87.5t-57 -133.5q0 -80 63.5 -132t174.5 -52z" />
    <glyph glyph-name="nine.sups" 
d="M324 1186q80 0 137.5 35t85.5 75v50q0 131 -55 210.5t-166 79.5q-94 0 -154.5 -65t-60.5 -162q0 -94 51.5 -158.5t161.5 -64.5zM303 858q-91 0 -170 51l10 21q76 -49 160 -49q57 0 98.5 16t76 55t52 114t17.5 185v17q-34 -42 -91 -73.5t-134 -31.5q-117 0 -175.5 71
t-58.5 177q0 104 67 175t171 71q120 0 181.5 -84.5t61.5 -226.5v-91q0 -95 -13.5 -165.5t-36 -114.5t-57.5 -70.5t-72.5 -36.5t-86.5 -10z" />
    <glyph glyph-name="a.sups" horiz-adv-x="743" 
d="M360 874q86 0 153 42.5t89 97.5v45q0 121 -68 190.5t-176 69.5q-99 0 -170 -63t-71 -164q0 -96 69 -157t174 -61zM602 870v111q-22 -47 -88.5 -87t-155.5 -40q-114 0 -188 66t-74 172q0 113 76.5 180t183.5 67q96 0 163.5 -51t82.5 -127v221q0 116 -55.5 184t-177.5 68
q-126 0 -205 -61l-10 18q88 64 215 64q131 0 193.5 -72.5t62.5 -193.5v-519h-23z" />
    <glyph glyph-name="b.sups" horiz-adv-x="798" 
d="M348 862q-129 0 -221 43v1118h23v-587q24 106 96 162.5t164 56.5q94 0 160 -52t95 -132t29 -179q0 -88 -21 -164t-62 -136.5t-109 -95t-154 -34.5zM348 885q85 0 149.5 34.5t101.5 93.5t55 129t18 150q0 67 -15.5 126.5t-46 108.5t-82.5 78t-120 29q-48 0 -92 -19
t-82 -57t-61 -105t-23 -155v-376q86 -37 198 -37z" />
    <glyph glyph-name="c.sups" horiz-adv-x="688" 
d="M426 854q-82 0 -145.5 32.5t-101 89.5t-56.5 128.5t-19 155.5q0 80 19.5 150t57.5 125.5t101 87.5t144 32q118 0 195 -80l-13 -16q-70 73 -184 73q-63 0 -113.5 -21t-84 -56t-56.5 -83t-33 -101t-10 -111q0 -77 17 -144t51 -121.5t93 -86t136 -31.5q58 0 109 19t85 48
l11 -16q-90 -74 -203 -74z" />
    <glyph glyph-name="d.sups" horiz-adv-x="798" 
d="M403 877q100 0 173 77t73 185v393q-32 38 -90.5 70t-126.5 32q-96 0 -166.5 -55.5t-104.5 -143.5t-34 -194q0 -152 71.5 -258t204.5 -106zM649 1040q-18 -67 -85 -126.5t-163 -59.5q-73 0 -130.5 31.5t-93 86t-54 123t-19.5 146.5q-1 114 36 207t113 150t177 57
q68 0 126.5 -30t92.5 -66v464h23v-1153h-23v170z" />
    <glyph glyph-name="e.sups" horiz-adv-x="774" 
d="M406 1634q-112 0 -179.5 -72.5t-89.5 -189.5h508v12q0 67 -22 121t-77.5 91.5t-139.5 37.5zM678 954q-96 -100 -258 -100q-81 0 -143 32.5t-99 89t-55.5 127t-18.5 152.5t17.5 152t53 126.5t95 89t136.5 32.5q133 0 197.5 -77.5t64.5 -199.5v-24h-533q-8 -44 -8 -99
q0 -76 16.5 -141.5t50 -120.5t91.5 -87t135 -32t142.5 28t103.5 69z" />
    <glyph glyph-name="f.sups" horiz-adv-x="598" 
d="M215 870v744l-141 8v16h141v150q0 116 62.5 179t175.5 63q74 0 116 -23l-8 -18q-42 20 -108 20q-94 0 -154.5 -54t-60.5 -169v-148h290v-18l-290 -8v-742h-23z" />
    <glyph glyph-name="g.sups" horiz-adv-x="757" 
d="M334 479q-136 0 -206.5 55t-70.5 154q0 54 26 100.5t69 79t85.5 54t88.5 36.5l-4 3q-40 12 -62 33t-22 46q0 55 77 80l66 21h-14q-125 0 -198 71.5t-73 186.5q0 114 73.5 185t195.5 71q77 0 137 -31l205 55l8 -18l-27 -8l-164 -41q111 -71 111 -211q0 -99 -48 -159
t-122 -87l-137 -49q-68 -22 -68 -64q0 -40 74 -63l143 -45q52 -16 85 -30.5t64.5 -37.5t46.5 -57t15 -80q0 -115 -100 -182.5t-254 -67.5zM365 1159q103 0 175 61.5t72 178.5q0 102 -66 167.5t-181 65.5q-114 0 -180 -66t-66 -167q0 -104 66 -172t180 -68zM334 500
q142 0 237 61t95 168q0 77 -47 115.5t-146 68.5l-119 37q-50 -15 -94 -37t-86.5 -53.5t-68 -76t-25.5 -95.5q0 -89 66.5 -138.5t187.5 -49.5z" />
    <glyph glyph-name="h.sups" horiz-adv-x="753" 
d="M143 1376v-506h-24v1153h24v-538q22 80 95 125t155 45q119 0 183.5 -63.5t64.5 -184.5v-537h-23v531q0 233 -229 233q-44 0 -85.5 -14.5t-78.5 -43.5t-59.5 -81t-22.5 -119z" />
    <glyph glyph-name="i.sups" horiz-adv-x="339" 
d="M170 1833q-15 0 -25 10t-10 25q0 17 10 27t25 10q37 0 37 -37q0 -15 -10 -25t-27 -10zM158 870v768h22v-768h-22z" />
    <glyph glyph-name="j.sups" horiz-adv-x="333" 
d="M164 1833q-17 0 -27 10t-10 25q0 37 37 37q15 0 25 -10t10 -27q0 -15 -10 -25t-25 -10zM18 481q-45 0 -81 23l8 18q33 -20 71 -20q68 0 101 45.5t33 150.5v940h22v-948q0 -113 -40 -161t-114 -48z" />
    <glyph glyph-name="k.sups" horiz-adv-x="686" 
d="M152 879q-6 -9 -15 -9h-10v1153h23v-1101l452 716h27l-252 -399l264 -369h-29l-247 347z" />
    <glyph glyph-name="l.sups" horiz-adv-x="344" 
d="M227 864q-84 0 -84 90v1069h23v-1069q0 -37 14.5 -53t46.5 -16t64 18l8 -18q-30 -21 -72 -21z" />
    <glyph glyph-name="m.sups" horiz-adv-x="1243" 
d="M143 1376v-506h-24v768h10q10 0 10 -12l4 -137q23 79 96 122.5t154 43.5q103 0 167 -48.5t77 -140.5q16 89 90 139t160 50q118 0 180.5 -63.5t62.5 -184.5v-537h-22v531q0 233 -225 233q-43 0 -84 -14.5t-77.5 -43.5t-58.5 -81t-22 -119v-506h-23v531q0 233 -229 233
q-44 0 -85.5 -14.5t-78.5 -43.5t-59.5 -81t-22.5 -119z" />
    <glyph glyph-name="n.sups" horiz-adv-x="753" 
d="M143 1376v-506h-24v768h10q10 0 10 -12l4 -137q23 79 96 122.5t154 43.5q120 0 184 -63.5t64 -184.5v-537h-23v531q0 233 -229 233q-44 0 -85.5 -14.5t-78.5 -43.5t-59.5 -81t-22.5 -119z" />
    <glyph glyph-name="o.sups" horiz-adv-x="808" 
d="M406 854q-142 0 -222 114.5t-80 291.5q0 172 80 283.5t222 111.5q139 0 219 -112t80 -283q0 -176 -80 -291t-219 -115zM406 874q131 0 203.5 109.5t72.5 276.5q0 163 -72.5 268.5t-203.5 105.5q-134 0 -206.5 -105.5t-72.5 -268.5q0 -168 72.5 -277t206.5 -109z" />
    <glyph glyph-name="p.sups" horiz-adv-x="798" 
d="M350 877q69 0 124 23.5t91.5 63t61 93.5t35 112.5t10.5 122.5q0 67 -15.5 126.5t-46 108.5t-82.5 78t-120 29q-48 0 -92 -19t-82 -57t-61 -105t-23 -155v-364q88 -57 200 -57zM150 909v-422h-23v1151h8q10 0 10 -12l7 -182q25 102 96.5 156.5t161.5 54.5q94 0 160 -52
t95 -132t29 -179q0 -89 -20.5 -167t-61.5 -139t-107.5 -96.5t-152.5 -35.5q-123 0 -202 55z" />
    <glyph glyph-name="q.sups" horiz-adv-x="798" 
d="M672 487h-23v553q-18 -67 -85 -126.5t-163 -59.5q-73 0 -130.5 31.5t-93 86t-54 123t-19.5 146.5q-1 114 36 207t113 150t177 57q68 0 126.5 -30t92.5 -66v79h23v-1151zM403 877q100 0 173 77t73 185v393q-32 38 -90.5 70t-126.5 32q-96 0 -166.5 -55.5t-104.5 -143.5
t-34 -194q0 -152 71.5 -258t204.5 -106z" />
    <glyph glyph-name="r.sups" horiz-adv-x="481" 
d="M143 870h-24v768h10q10 0 10 -12l4 -137q22 80 90 123t146 43q27 0 51 -6l-6 -23q-21 6 -49 6q-41 0 -80.5 -14t-74.5 -43t-56 -80.5t-21 -118.5v-506z" />
    <glyph glyph-name="s.sups" horiz-adv-x="696" 
d="M303 854q-90 0 -190 35l8 22q4 -1 19.5 -6.5t22.5 -8t22 -7t25.5 -6.5t26.5 -4.5t32 -3.5t34 -1q135 0 205 54.5t70 140.5q0 77 -51.5 124t-168.5 64q-249 34 -249 193q0 87 73.5 146t206.5 59q86 0 182 -35l-6 -21q-2 1 -14 5l-15 5t-14.5 4.5t-16 4.5t-16 4t-18 4
t-18 3t-20.5 3t-20.5 1.5t-23.5 0.5q-121 0 -189.5 -53t-68.5 -131q0 -141 229 -170q240 -35 240 -209q0 -95 -74.5 -156t-222.5 -61z" />
    <glyph glyph-name="t.sups" horiz-adv-x="555" 
d="M377 854q-162 0 -162 211v549l-141 8v16h141v230h23v-230h235v-16l-235 -10v-539q0 -105 35 -152t104 -47q47 0 80 23l8 -18q-35 -25 -88 -25z" />
    <glyph glyph-name="u.sups" horiz-adv-x="753" 
d="M623 870l-5 158q-23 -80 -95.5 -123t-155.5 -43q-118 0 -183 63t-65 183v530h24v-524q0 -231 230 -231q43 0 84.5 14.5t78.5 43.5t59.5 80t22.5 118v499h23v-768h-18z" />
    <glyph glyph-name="v.sups" horiz-adv-x="655" 
d="M336 856h-6q-12 0 -17 12l-262 770h25l252 -739l252 739h26z" />
    <glyph glyph-name="w.sups" horiz-adv-x="1048" 
d="M764 868l-240 738l-241 -750h-9q-12 0 -14 12l-209 770h25l196 -741l242 741h10q11 0 17 -12l237 -729l197 741h24l-213 -782h-6q-11 0 -16 12z" />
    <glyph glyph-name="x.sups" horiz-adv-x="698" 
d="M623 877l-273 372l-278 -379h-29l293 398l-275 370h19q11 0 16 -8l254 -344l258 352h29l-275 -370l293 -398h-20q-9 0 -12 7z" />
    <glyph glyph-name="y.sups" horiz-adv-x="753" 
d="M389 479q-77 0 -138.5 36t-92.5 83l14 14q31 -44 88 -77t129 -33q127 0 178 68.5t51 191.5v262q-22 -81 -94 -125.5t-157 -44.5q-118 0 -183 63t-65 183v538h24v-532q0 -232 230 -232q43 0 84.5 14.5t78.5 43.5t59.5 80t22.5 118v508h23v-880q0 -279 -252 -279z" />
    <glyph glyph-name="z.sups" horiz-adv-x="634" 
d="M567 870h-501v4q0 10 10 23l446 719h-430v22h461v-6q0 -11 -6 -20l-447 -719h467v-23z" />
    <glyph glyph-name="period.sups" horiz-adv-x="342" 
d="M170 854q-15 0 -25 11t-10 26t10 26t25 11q17 0 27 -10.5t10 -26.5t-10 -26.5t-27 -10.5z" />
    <glyph glyph-name="comma.sups" horiz-adv-x="333" 
d="M106 715l-10 10q64 47 64 106q0 21 -13.5 38.5t-25.5 21.5q0 15 11 26t28 11q21 0 34 -17.5t13 -44.5q0 -50 -33 -92t-68 -59z" />
    <glyph glyph-name="hyphen.sups" horiz-adv-x="813" 
d="M143 1292v23h525v-23h-525z" />
    <glyph glyph-name="parenleft.sups" horiz-adv-x="468" 
d="M397 616q-94 117 -166.5 313t-72.5 431q0 184 45.5 345.5t115.5 283.5h29q-74 -126 -121 -287.5t-47 -341.5q0 -228 73.5 -427t172.5 -317h-29z" />
    <glyph glyph-name="parenright.sups" horiz-adv-x="468" 
d="M43 616q98 119 171 317.5t73 426.5q0 178 -46.5 340.5t-119.5 288.5h26q162 -284 162 -629q0 -123 -22 -242t-58 -213t-75.5 -165.5t-81.5 -123.5h-29z" />
    <glyph glyph-name="plus.sups" horiz-adv-x="813" 
d="M668 1356h-250v-252h-23v252h-252v22h252v252h23v-252h250v-22z" />
    <glyph glyph-name="minus.sups" horiz-adv-x="813" 
d="M143 1356v22h525v-22h-525z" />
    <glyph glyph-name="multiply.sups" horiz-adv-x="813" 
d="M584 1174l-178 178l-179 -178l-14 16l178 176l-178 178l14 17l181 -179l176 177l16 -15l-178 -176l178 -178z" />
    <glyph glyph-name="equal.sups" horiz-adv-x="813" 
d="M143 1456v23h525v-23h-525zM143 1214v23h525v-23h-525z" />
    <glyph glyph-name="divide.sups" horiz-adv-x="813" 
d="M406 1552q-15 0 -25 10t-10 25t10 26t25 11q17 0 26.5 -10.5t9.5 -26.5q0 -15 -9.5 -25t-26.5 -10zM143 1356v20h527v-20h-527zM406 1108q-15 0 -25 11t-10 26t10 25t25 10q17 0 26.5 -10t9.5 -25q0 -16 -9.5 -26.5t-26.5 -10.5z" />
    <glyph glyph-name="dollar.sups" horiz-adv-x="630" 
d="M330 739h-21v121q-12 -2 -39 -2q-98 0 -192 37l8 20q74 -36 184 -36q134 0 202.5 52t68.5 136q0 74 -48 117.5t-161 72.5l-68 19q-98 26 -144 71t-46 115q0 78 64.5 133.5t180.5 61.5v94h21v-94h6q111 0 189 -37l-9 -16q-91 34 -178 34q-120 0 -187 -50t-67 -126
q0 -64 43.5 -104t132.5 -62l68 -18q118 -31 170.5 -80t52.5 -131q0 -81 -58 -137.5t-173 -69.5v-121z" />
    <glyph glyph-name="cent.sups" horiz-adv-x="557" 
d="M315 969h-2v-111h-18v111q-108 9 -161.5 90t-53.5 203q0 118 54 197.5t161 88.5v109h18v-109h2q87 0 142 -55l-11 -16q-50 53 -131 53q-56 0 -98 -22.5t-66.5 -60.5t-36.5 -85t-12 -100q0 -118 53 -196.5t160 -78.5q83 0 140 49l8 -16q-67 -51 -148 -51z" />
    <glyph glyph-name="sterling.sups" horiz-adv-x="675" 
d="M604 891v-21h-522v21h49q82 0 132 51t50 137q0 40 -10 78h-184v19h176q-20 44 -72 90l-37 32q-44 38 -68 76.5t-24 89.5q0 89 72.5 141t187.5 52q108 0 203 -43l-4 -21q-90 43 -199 43q-103 0 -169 -45.5t-66 -126.5q0 -45 19.5 -79t64.5 -74l35 -31q59 -53 81 -104h191
v-19h-184q10 -38 10 -78q0 -71 -35.5 -121.5t-87.5 -66.5h391z" />
    <glyph glyph-name="florin.sups" horiz-adv-x="491" 
d="M12 588q-38 0 -59 16l8 17q23 -15 49 -15q49 0 76.5 33.5t34.5 108.5l63 608h-135l2 16h135l15 125q9 78 59 119t135 41q22 0 64 -6l-8 -19q-30 6 -56 6q-71 0 -118 -34t-54 -109l-14 -123h188l-2 -18h-188l-66 -613q-9 -84 -41 -118.5t-88 -34.5z" />
    <glyph glyph-name="yen.sups" horiz-adv-x="655" 
d="M512 1004h-176v-134h-23v134h-172v18h172v88h-172v18h172v39l-262 471h25l250 -450l254 450h26l-270 -471v-39h176v-18h-176v-88h176v-18z" />
    <glyph glyph-name="Euro.sups" horiz-adv-x="598" 
d="M416 1327h-410l4 19h72q21 153 101.5 232t193.5 79q24 0 46.5 -3t38.5 -7.5t28 -8.5t19 -7l7 -3l-6 -20q0 2 -16 8t-49 13t-68 7q-105 0 -180.5 -74t-92.5 -216h314zM508 891q-66 -33 -141 -33q-114 0 -194.5 82.5t-94.5 239.5h-72l4 18h385l-4 -18h-291
q16 -148 91 -223.5t178 -75.5q77 0 145 34z" />
    <glyph glyph-name="zero.subs" 
d="M332 -342q-125 0 -197 114.5t-72 290.5q0 171 72.5 282.5t196.5 111.5q121 0 191.5 -111.5t70.5 -282.5q0 -176 -70.5 -290.5t-191.5 -114.5zM332 -319q74 0 128.5 51.5t81.5 137t27 193.5q0 162 -62.5 266.5t-174.5 104.5q-114 0 -179 -105t-65 -266q0 -167 64.5 -274.5
t179.5 -107.5z" />
    <glyph glyph-name="one.subs" 
d="M555 -330h-453v21h215v737l-206 -76v23l198 71q14 7 23 7h8v-762h215v-21z" />
    <glyph glyph-name="two.subs" 
d="M92 -330v35q0 50 17 91t54 77t66.5 57.5t83.5 55.5l37 22q45 28 73.5 49.5t58.5 52.5t44.5 68t14.5 80q0 74 -57 126t-169 52q-96 0 -188 -45l-6 21q110 45 194 45q121 0 184.5 -57.5t63.5 -141.5q0 -48 -16.5 -88t-51 -73.5t-64 -55.5t-79.5 -53l-35 -25
q-46 -28 -76 -50t-61.5 -53.5t-47 -69.5t-15.5 -83v-16h448v-21h-473z" />
    <glyph glyph-name="three.subs" 
d="M281 -342q-101 0 -193 33l8 20q84 -30 185 -30q140 0 203 55t63 141q0 98 -64.5 142t-189.5 44h-74v21h74q109 0 166 51t57 127q0 80 -54.5 128t-170.5 48q-81 0 -178 -37l-9 19q92 37 187 37q124 0 186 -51.5t62 -141.5q0 -70 -43 -121t-125 -69q87 -8 142.5 -55.5
t55.5 -143.5q0 -98 -71 -157.5t-217 -59.5z" />
    <glyph glyph-name="four.subs" 
d="M451 -63v487l-361 -487h361zM612 -84h-141v-246h-20v246h-390v16l388 521h22v-516h141v-21z" />
    <glyph glyph-name="five.subs" 
d="M260 -342q-90 0 -160 29l6 20q63 -26 156 -26q38 0 75 8t74.5 28t65.5 49.5t46 77t18 107.5q0 62 -21 107.5t-58 70t-79.5 36t-93.5 11.5q-94 0 -174 -26l-17 6v297h422v-23h-401v-260q83 27 176 27q52 0 98 -13.5t85.5 -41t62 -76.5t22.5 -115q0 -64 -19 -115
t-49.5 -83.5t-71 -54.5t-81 -31t-82.5 -9z" />
    <glyph glyph-name="six.subs" 
d="M575 -72q0 -116 -64.5 -193t-172.5 -77q-85 0 -144.5 50.5t-85.5 127.5t-26 172v29q0 112 24.5 196t67 131.5t94.5 70t113 22.5q73 0 145 -37l-8 -21q-72 37 -137 37q-122 0 -198.5 -93.5t-76.5 -287.5q38 47 98 83t130 36q121 0 181 -70.5t60 -175.5zM338 -319
q99 0 157 70t58 177q0 94 -53.5 159t-167.5 65q-72 0 -135 -40t-91 -85v-23q0 -85 22 -155.5t76 -119t134 -48.5z" />
    <glyph glyph-name="seven.subs" 
d="M233 -330h-22q44 357 344 760h-481v23h510v-15q-303 -394 -351 -768z" />
    <glyph glyph-name="eight.subs" 
d="M330 -342q-120 0 -190 57t-70 150q0 80 56.5 137t141.5 88q-166 53 -166 182q0 82 65 133.5t163 51.5q97 0 161 -51.5t64 -133.5q0 -136 -170 -192q203 -57 203 -213q0 -93 -71 -151t-187 -58zM309 98l51 -12q175 55 175 184q0 73 -58 120.5t-147 47.5q-91 0 -149 -47
t-58 -121q0 -124 186 -172zM330 -322q108 0 171.5 53t63.5 136q0 78 -55 126.5t-160 76.5l-51 12l-6 2q-87 -32 -144 -87.5t-57 -133.5q0 -81 63.5 -133t174.5 -52z" />
    <glyph glyph-name="nine.subs" 
d="M324 -14q80 0 137.5 35t85.5 75v49q0 132 -55 211.5t-166 79.5q-94 0 -154.5 -65t-60.5 -162q0 -94 51.5 -158.5t161.5 -64.5zM303 -342q-91 0 -170 51l10 21q76 -49 160 -49q57 0 98.5 16t76 55t52 114t17.5 185v17q-34 -42 -91 -73.5t-134 -31.5q-117 0 -175.5 71
t-58.5 177q0 104 67 175t171 71q120 0 181.5 -85t61.5 -227v-90q0 -95 -13.5 -165.5t-36 -114.5t-57.5 -70.5t-72.5 -36.5t-86.5 -10z" />
    <glyph glyph-name="a.subs" horiz-adv-x="743" 
d="M360 -326q86 0 153 42.5t89 97.5v45q0 121 -68 190.5t-176 69.5q-99 0 -170 -63.5t-71 -164.5q0 -96 69 -156.5t174 -60.5zM602 -330v111q-22 -47 -88.5 -87t-155.5 -40q-114 0 -188 65.5t-74 171.5q0 114 76.5 181t183.5 67q96 0 163.5 -51t82.5 -127v221
q0 116 -55.5 184t-177.5 68q-126 0 -205 -61l-10 18q88 64 215 64q131 0 193.5 -73t62.5 -194v-518h-23z" />
    <glyph glyph-name="b.subs" horiz-adv-x="798" 
d="M348 -338q-129 0 -221 43v1118h23v-587q24 106 96 162.5t164 56.5q94 0 160 -52t95 -132t29 -179q0 -88 -21 -164t-62 -136.5t-109 -95t-154 -34.5zM348 -315q85 0 149.5 34.5t101.5 93.5t55 129t18 150q0 67 -15.5 126.5t-46 108.5t-82.5 78t-120 29q-48 0 -92 -19
t-82 -57t-61 -105t-23 -155v-377q83 -36 198 -36z" />
    <glyph glyph-name="c.subs" horiz-adv-x="688" 
d="M426 -346q-109 0 -183.5 57t-106.5 146t-32 202q0 80 19.5 150t57.5 126t101 88t144 32q118 0 195 -80l-13 -17q-71 74 -184 74q-78 0 -137 -31.5t-93 -85t-50.5 -118t-16.5 -138.5q0 -77 17 -144t51 -121.5t93 -86t136 -31.5q114 0 194 68l11 -16q-90 -74 -203 -74z" />
    <glyph glyph-name="d.subs" horiz-adv-x="798" 
d="M403 -324q100 0 173 77.5t73 185.5v393q-32 38 -90.5 70t-126.5 32q-96 0 -166.5 -55.5t-104.5 -143.5t-34 -194q0 -152 71.5 -258.5t204.5 -106.5zM649 -160q-18 -67 -85 -126.5t-163 -59.5q-73 0 -130.5 31.5t-93 86t-54 123t-19.5 146.5q-1 114 36 207t113 150t177 57
q68 0 126.5 -30.5t92.5 -66.5v465h23v-1153h-23v170z" />
    <glyph glyph-name="e.subs" horiz-adv-x="774" 
d="M406 434q-112 0 -179.5 -72.5t-89.5 -189.5h508v12q0 67 -22 121t-77.5 91.5t-139.5 37.5zM678 -246q-96 -100 -258 -100q-81 0 -143 32.5t-99 89t-55.5 127t-18.5 152.5t17.5 152t53 126.5t95 89t136.5 32.5q133 0 197.5 -77.5t64.5 -199.5v-24h-533q-8 -41 -8 -99
q0 -76 16.5 -141.5t50 -120.5t91.5 -87t135 -32t142.5 28t103.5 69z" />
    <glyph glyph-name="f.subs" horiz-adv-x="598" 
d="M215 -330v744l-141 8v16h141v150q0 116 62.5 178.5t175.5 62.5q76 0 116 -22l-8 -19q-44 21 -108 21q-94 0 -154.5 -54t-60.5 -169v-148h290v-18l-290 -8v-742h-23z" />
    <glyph glyph-name="g.subs" horiz-adv-x="757" 
d="M334 -721q-136 0 -206.5 55t-70.5 154q0 54 26 100.5t69 79t85.5 54t88.5 36.5l-4 2q-40 12 -62 33.5t-22 46.5q0 55 77 80l66 21h-14q-125 0 -198 71.5t-73 186.5q0 114 73.5 185t195.5 71q77 0 137 -31l205 55l8 -18l-27 -8l-164 -41q111 -71 111 -211q0 -99 -48 -159
t-122 -87l-137 -49q-68 -22 -68 -64q0 -40 74 -63l143 -45q52 -16 85 -30.5t64.5 -37.5t46.5 -57t15 -80q0 -115 -100 -182.5t-254 -67.5zM365 -41q103 0 175 61.5t72 178.5q0 102 -66 167.5t-181 65.5q-114 0 -180 -66t-66 -167q0 -104 66 -172t180 -68zM334 -700
q142 0 237 61t95 168q0 77 -47 115.5t-146 68.5l-119 37q-50 -15 -94 -37t-86.5 -53.5t-68 -76t-25.5 -95.5q0 -89 66.5 -138.5t187.5 -49.5z" />
    <glyph glyph-name="h.subs" horiz-adv-x="753" 
d="M143 176v-506h-24v1153h24v-538q22 80 95 125t155 45q119 0 183.5 -63.5t64.5 -184.5v-537h-23v531q0 233 -229 233q-44 0 -85.5 -14.5t-78.5 -43.5t-59.5 -81t-22.5 -119z" />
    <glyph glyph-name="i.subs" horiz-adv-x="339" 
d="M170 633q-15 0 -25 10t-10 25q0 17 10 27t25 10q37 0 37 -37q0 -15 -10 -25t-27 -10zM158 -330v768h22v-768h-22z" />
    <glyph glyph-name="j.subs" horiz-adv-x="333" 
d="M164 633q-17 0 -27 10t-10 25q0 37 37 37q15 0 25 -10t10 -27q0 -15 -10 -25t-25 -10zM18 -719q-45 0 -81 23l8 18q33 -20 71 -20q68 0 101 45.5t33 150.5v940h22v-948q0 -113 -40 -161t-114 -48z" />
    <glyph glyph-name="k.subs" horiz-adv-x="686" 
d="M152 -322q-5 -8 -15 -8h-10v1153h23v-1102l452 717h27l-252 -399l264 -369h-29l-247 346z" />
    <glyph glyph-name="l.subs" horiz-adv-x="344" 
d="M227 -336q-84 0 -84 90v1069h23v-1069q0 -37 14.5 -53t46.5 -16t64 18l8 -18q-30 -21 -72 -21z" />
    <glyph glyph-name="m.subs" horiz-adv-x="1243" 
d="M143 176v-506h-24v768h10q10 0 10 -12l4 -137q23 79 96 122.5t154 43.5q103 0 167 -48.5t77 -140.5q16 89 90 139t160 50q118 0 180.5 -63.5t62.5 -184.5v-537h-22v531q0 233 -225 233q-43 0 -84 -14.5t-77.5 -43.5t-58.5 -81t-22 -119v-506h-23v531q0 233 -229 233
q-44 0 -85.5 -14.5t-78.5 -43.5t-59.5 -81t-22.5 -119z" />
    <glyph glyph-name="n.subs" horiz-adv-x="753" 
d="M143 176v-506h-24v768h10q10 0 10 -12l4 -137q23 79 96 122.5t154 43.5q120 0 184 -63.5t64 -184.5v-537h-23v531q0 233 -229 233q-44 0 -85.5 -14.5t-78.5 -43.5t-59.5 -81t-22.5 -119z" />
    <glyph glyph-name="o.subs" horiz-adv-x="808" 
d="M406 -346q-142 0 -222 114t-80 291q0 172 80 284t222 112q138 0 218.5 -112.5t80.5 -283.5q0 -176 -80 -290.5t-219 -114.5zM406 -326q131 0 203.5 109t72.5 276q0 163 -72.5 269t-203.5 106q-134 0 -206.5 -106t-72.5 -269q0 -168 72.5 -276.5t206.5 -108.5z" />
    <glyph glyph-name="p.subs" horiz-adv-x="798" 
d="M350 -324q69 0 124 23.5t91.5 63t61 93.5t35 113t10.5 123q0 67 -15.5 126.5t-46 108.5t-82.5 78t-120 29q-48 0 -92 -19t-82 -57t-61 -105t-23 -155v-364q90 -58 200 -58zM150 -291v-422h-23v1151h8q10 0 10 -12l7 -182q25 102 96.5 156.5t161.5 54.5q94 0 160 -52
t95 -132t29 -179q0 -89 -20.5 -167t-61.5 -139t-107.5 -96.5t-152.5 -35.5q-123 0 -202 55z" />
    <glyph glyph-name="q.subs" horiz-adv-x="798" 
d="M672 -713h-23v553q-18 -67 -85 -126.5t-163 -59.5q-73 0 -130.5 31.5t-93 86t-54 123t-19.5 146.5q-1 114 36 207t113 150t177 57q68 0 126.5 -30.5t92.5 -66.5v80h23v-1151zM403 -324q100 0 173 77.5t73 185.5v393q-32 38 -90.5 70t-126.5 32q-96 0 -166.5 -55.5
t-104.5 -143.5t-34 -194q0 -152 71.5 -258.5t204.5 -106.5z" />
    <glyph glyph-name="r.subs" horiz-adv-x="481" 
d="M143 -330h-24v768h10q10 0 10 -12l4 -137q22 80 90 123t146 43q27 0 51 -6l-6 -23q-21 6 -49 6q-41 0 -80.5 -14t-74.5 -43t-56 -80.5t-21 -118.5v-506z" />
    <glyph glyph-name="s.subs" horiz-adv-x="696" 
d="M303 -346q-90 0 -190 35l8 22q4 -1 19.5 -6.5t22.5 -8t22 -7t25.5 -6.5t26.5 -4.5t32 -3.5t34 -1q135 0 205 54.5t70 140.5q0 77 -51.5 124t-168.5 64q-249 34 -249 193q0 87 73.5 146t206.5 59q86 0 182 -35l-6 -21q-2 1 -14 5l-15 5t-14.5 4.5t-16 4.5t-16 4t-18 4
t-18 3t-20.5 3t-20.5 1.5t-23.5 0.5q-121 0 -189.5 -53t-68.5 -131q0 -141 229 -170q240 -35 240 -209q0 -95 -74.5 -156t-222.5 -61z" />
    <glyph glyph-name="t.subs" horiz-adv-x="555" 
d="M377 -346q-162 0 -162 211v549l-141 8v16h141v230h23v-230h235v-16l-235 -10v-539q0 -105 35 -152t104 -47q47 0 80 23l8 -19q-33 -24 -88 -24z" />
    <glyph glyph-name="u.subs" horiz-adv-x="753" 
d="M623 -330l-5 158q-16 -53 -57 -91.5t-91 -56.5t-103 -18q-118 0 -183 63t-65 183v530h24v-524q0 -231 230 -231q43 0 84.5 14.5t78.5 43.5t59.5 80t22.5 118v499h23v-768h-18z" />
    <glyph glyph-name="v.subs" horiz-adv-x="655" 
d="M336 -344h-6q-12 0 -17 12l-262 770h25l252 -739l252 739h26z" />
    <glyph glyph-name="w.subs" horiz-adv-x="1048" 
d="M764 -332l-240 738l-241 -750h-9q-12 0 -14 12l-209 770h25l196 -741l242 741h10q11 0 17 -12l237 -729l197 741h24l-213 -782h-6q-11 0 -16 12z" />
    <glyph glyph-name="x.subs" horiz-adv-x="698" 
d="M623 -324l-273 373l-278 -379h-29l293 398l-275 370h19q11 0 16 -8l254 -344l258 352h29l-275 -370l293 -398h-20q-9 0 -12 6z" />
    <glyph glyph-name="y.subs" horiz-adv-x="753" 
d="M389 -721q-77 0 -138.5 36t-92.5 83l14 14q31 -44 88 -77t129 -33q127 0 178 68.5t51 191.5v262q-22 -81 -94 -125.5t-157 -44.5q-118 0 -183 63t-65 183v538h24v-532q0 -232 230 -232q43 0 84.5 14.5t78.5 43.5t59.5 80t22.5 118v508h23v-880q0 -279 -252 -279z" />
    <glyph glyph-name="z.subs" horiz-adv-x="634" 
d="M567 -330h-501v4q0 10 10 23l446 719h-430v22h461v-6q0 -11 -6 -20l-447 -719h467v-23z" />
    <glyph glyph-name="period.subs" horiz-adv-x="342" 
d="M170 -346q-15 0 -25 11t-10 26t10 26t25 11q17 0 27 -10.5t10 -26.5t-10 -26.5t-27 -10.5z" />
    <glyph glyph-name="comma.subs" horiz-adv-x="333" 
d="M106 -485l-10 10q64 47 64 106q0 21 -13.5 38.5t-25.5 21.5q0 15 11 26t28 11q21 0 34 -17.5t13 -44.5q0 -50 -33 -92t-68 -59z" />
    <glyph glyph-name="hyphen.subs" horiz-adv-x="813" 
d="M143 92v23h525v-23h-525z" />
    <glyph glyph-name="parenleft.subs" horiz-adv-x="468" 
d="M397 -584q-94 117 -166.5 313t-72.5 431q0 184 45 345t116 283h29q-74 -126 -121 -287t-47 -341q0 -228 73.5 -427t172.5 -317h-29z" />
    <glyph glyph-name="parenright.subs" horiz-adv-x="468" 
d="M43 -584q98 119 171 317.5t73 426.5q0 178 -46.5 340t-119.5 288h26q162 -284 162 -628q0 -123 -22 -242t-58 -213t-75.5 -165.5t-81.5 -123.5h-29z" />
    <glyph glyph-name="plus.subs" horiz-adv-x="813" 
d="M668 156h-250v-252h-23v252h-252v22h252v252h23v-252h250v-22z" />
    <glyph glyph-name="minus.subs" horiz-adv-x="813" 
d="M143 156v22h525v-22h-525z" />
    <glyph glyph-name="multiply.subs" horiz-adv-x="813" 
d="M584 -27l-178 179l-179 -179l-14 17l178 176l-178 178l14 16l181 -178l176 176l16 -14l-178 -178l178 -176z" />
    <glyph glyph-name="equal.subs" horiz-adv-x="813" 
d="M143 256v23h525v-23h-525zM143 14v23h525v-23h-525z" />
    <glyph glyph-name="divide.subs" horiz-adv-x="813" 
d="M406 352q-15 0 -25 10t-10 25t10 26t25 11q17 0 26.5 -10.5t9.5 -26.5q0 -15 -9.5 -25t-26.5 -10zM143 156v20h527v-20h-527zM406 -92q-15 0 -25 11t-10 26t10 25t25 10q17 0 26.5 -10t9.5 -25q0 -16 -9.5 -26.5t-26.5 -10.5z" />
    <glyph glyph-name="dollar.subs" horiz-adv-x="630" 
d="M330 -461h-21v121q-12 -2 -39 -2q-98 0 -192 37l8 20q76 -37 184 -37q134 0 202.5 52.5t68.5 136.5q0 74 -48 117.5t-161 72.5l-68 19q-98 26 -144 71t-46 115q0 77 64 132.5t181 62.5v94h21v-94h6q111 0 189 -37l-9 -17q-94 35 -178 35q-120 0 -187 -50t-67 -126
q0 -64 43.5 -104t132.5 -62l68 -18q118 -31 170.5 -80t52.5 -131q0 -81 -58 -137.5t-173 -69.5v-121z" />
    <glyph glyph-name="cent.subs" horiz-adv-x="557" 
d="M315 -231h-2v-111h-18v111q-108 9 -161.5 89.5t-53.5 202.5q0 118 54 198t161 89v109h18v-109h2q87 0 142 -55l-11 -17q-51 54 -131 54q-56 0 -98 -22.5t-66.5 -61t-36.5 -85.5t-12 -100q0 -117 53 -195.5t160 -78.5q83 0 140 49l8 -16q-67 -51 -148 -51z" />
    <glyph glyph-name="sterling.subs" horiz-adv-x="675" 
d="M604 -309v-21h-522v21h49q82 0 132 51t50 137q0 40 -10 78h-184v18h176q-20 45 -72 91l-37 32q-44 38 -68 76.5t-24 89.5q0 89 72.5 141t187.5 52q108 0 203 -43l-4 -21q-90 43 -199 43q-103 0 -169 -45.5t-66 -126.5q0 -45 19.5 -79t64.5 -74l35 -31q58 -53 81 -105h191
v-18h-184q10 -38 10 -78q0 -71 -35.5 -121.5t-87.5 -66.5h391z" />
    <glyph glyph-name="florin.subs" horiz-adv-x="491" 
d="M12 -612q-38 0 -59 16l8 16q21 -14 49 -14q49 0 76.5 33t34.5 108l63 609h-135l2 16h135l15 125q9 78 59 119t135 41q22 0 64 -6l-8 -19q-30 6 -56 6q-71 0 -118 -34t-54 -109l-14 -123h188l-2 -18h-188l-66 -613q-9 -84 -41 -118.5t-88 -34.5z" />
    <glyph glyph-name="yen.subs" horiz-adv-x="710" 
d="M512 -197h-176v-133h-23v133h-172v19h172v88h-172v18h172v39l-262 471h25l250 -450l254 450h26l-270 -471v-39h176v-18h-176v-88h176v-19z" />
    <glyph glyph-name="Euro.subs" horiz-adv-x="598" 
 />
    <glyph glyph-name="zero.numr" 
d="M332 639q-125 0 -197 114.5t-72 290.5q0 171 72.5 282.5t196.5 111.5q121 0 191.5 -111.5t70.5 -282.5q0 -176 -70.5 -290.5t-191.5 -114.5zM332 662q74 0 128.5 51.5t81.5 137t27 193.5q0 162 -62.5 266.5t-174.5 104.5q-114 0 -179 -105t-65 -266q0 -167 64.5 -274.5
t179.5 -107.5z" />
    <glyph glyph-name="one.numr" 
d="M555 651h-453v21h215v737l-206 -76v23l198 71q14 7 23 7h8v-762h215v-21z" />
    <glyph glyph-name="two.numr" 
d="M92 651v35q0 50 17 91t54 77t66.5 57.5t83.5 55.5l37 22q45 28 73.5 49.5t58.5 52.5t44.5 68t14.5 80q0 74 -57 126t-169 52q-96 0 -188 -45l-6 21q110 45 194 45q121 0 184.5 -57.5t63.5 -141.5q0 -48 -16.5 -88t-51 -73.5t-64 -55.5t-79.5 -53l-35 -25q-46 -28 -76 -50
t-61.5 -53.5t-47 -69.5t-15.5 -83v-16h448v-21h-473z" />
    <glyph glyph-name="three.numr" 
d="M281 639q-101 0 -193 33l8 20q84 -30 185 -30q140 0 203 55t63 141q0 98 -64.5 142t-189.5 44h-74v21h74q109 0 166 51t57 127q0 80 -54.5 128t-170.5 48q-81 0 -178 -37l-9 19q92 37 187 37q124 0 186 -51.5t62 -141.5q0 -70 -43 -121t-125 -69q87 -8 142.5 -55.5
t55.5 -143.5q0 -98 -71 -157.5t-217 -59.5z" />
    <glyph glyph-name="four.numr" 
d="M451 918v487l-361 -487h361zM612 897h-141v-246h-20v246h-390v16l388 521h22v-516h141v-21z" />
    <glyph glyph-name="five.numr" 
d="M260 639q-90 0 -160 29l6 20q63 -26 156 -26q38 0 75 8t74.5 28t65.5 49.5t46 77t18 107.5q0 62 -21 107.5t-58 70t-79.5 36t-93.5 11.5q-91 0 -174 -27l-17 7v297h422v-23h-401v-260q83 27 176 27q52 0 98 -13.5t85.5 -41t62 -76.5t22.5 -115q0 -64 -19 -115
t-49.5 -83.5t-71 -54.5t-81 -31t-82.5 -9z" />
    <glyph glyph-name="six.numr" 
d="M575 909q0 -116 -64.5 -193t-172.5 -77q-85 0 -144.5 50.5t-85.5 127.5t-26 172v29q0 112 24.5 196t67 131.5t94.5 70t113 22.5q73 0 145 -37l-8 -21q-72 37 -137 37q-122 0 -198.5 -93.5t-76.5 -287.5q38 47 98 83t130 36q121 0 181 -70.5t60 -175.5zM338 662
q99 0 157 70t58 177q0 94 -53.5 159t-167.5 65q-72 0 -135 -40t-91 -85v-23q0 -85 22 -155.5t76 -119t134 -48.5z" />
    <glyph glyph-name="seven.numr" 
d="M233 651h-22q44 357 344 760h-481v23h510v-15q-303 -394 -351 -768z" />
    <glyph glyph-name="eight.numr" 
d="M330 639q-120 0 -190 57t-70 150q0 80 56.5 137t141.5 88q-166 53 -166 182q0 82 65 133.5t163 51.5q97 0 161 -51.5t64 -133.5q0 -136 -170 -192q203 -57 203 -213q0 -93 -71 -151t-187 -58zM309 1079l51 -12q175 55 175 184q0 73 -58 120.5t-147 47.5q-91 0 -149 -47
t-58 -121q0 -124 186 -172zM330 659q108 0 171.5 53t63.5 136q0 78 -55 126.5t-160 76.5l-51 12l-6 2q-87 -32 -144 -87.5t-57 -133.5q0 -81 63.5 -133t174.5 -52z" />
    <glyph glyph-name="nine.numr" 
d="M324 967q80 0 137.5 35t85.5 75v49q0 132 -55 211.5t-166 79.5q-94 0 -154.5 -65t-60.5 -162q0 -94 51.5 -158.5t161.5 -64.5zM303 639q-91 0 -170 51l10 21q76 -49 160 -49q57 0 98.5 16t76 55t52 114t17.5 185v17q-34 -42 -91 -73.5t-134 -31.5q-117 0 -175.5 71
t-58.5 177q0 104 67 175t171 71q120 0 181.5 -85t61.5 -227v-90q0 -95 -13.5 -165.5t-36 -114.5t-57.5 -70.5t-72.5 -36.5t-86.5 -10z" />
    <glyph glyph-name="dollar.numr" horiz-adv-x="630" 
d="M330 520h-21v121q-12 -2 -39 -2q-98 0 -192 37l8 20q76 -37 184 -37q134 0 202.5 52.5t68.5 136.5q0 74 -48 117.5t-161 72.5l-68 19q-98 26 -144 71t-46 115q0 78 64.5 133.5t180.5 61.5v94h21v-94h6q111 0 189 -37l-9 -17q-94 35 -178 35q-120 0 -187 -50t-67 -126
q0 -64 43.5 -104t132.5 -62l68 -18q118 -31 170.5 -80t52.5 -131q0 -81 -58 -137.5t-173 -69.5v-121z" />
    <glyph glyph-name="parenleft.numr" horiz-adv-x="468" 
d="M397 397q-94 117 -166.5 313t-72.5 431q0 184 45 345t116 283h29q-74 -126 -121 -287t-47 -341q0 -228 73.5 -427t172.5 -317h-29z" />
    <glyph glyph-name="parenright.numr" horiz-adv-x="468" 
d="M43 397q98 119 171 317.5t73 426.5q0 178 -46.5 340t-119.5 288h26q162 -284 162 -628q0 -123 -22 -242t-58 -213t-75.5 -165.5t-81.5 -123.5h-29z" />
    <glyph glyph-name="hyphen.numr" horiz-adv-x="813" 
d="M143 1073v23h525v-23h-525z" />
    <glyph glyph-name="zero.dnom" 
d="M332 -12q-125 0 -197 114.5t-72 290.5q0 171 72.5 282t196.5 111q121 0 191.5 -111t70.5 -282q0 -176 -70.5 -290.5t-191.5 -114.5zM332 10q74 0 128.5 51.5t81.5 137.5t27 194q0 162 -62.5 266.5t-174.5 104.5q-114 0 -179 -105t-65 -266q0 -167 64.5 -275t179.5 -108z
" />
    <glyph glyph-name="one.dnom" 
d="M555 0h-453v20h215v738l-206 -76v23l198 71q12 6 23 6h8v-762h215v-20z" />
    <glyph glyph-name="two.dnom" 
d="M92 0v35q0 50 17 91t54 76.5t66.5 57t83.5 55.5l37 23q45 28 73.5 49.5t58.5 52.5t44.5 68t14.5 80q0 74 -57 126t-169 52q-96 0 -188 -45l-6 20q110 45 194 45q121 0 184.5 -57t63.5 -141q0 -48 -16.5 -88t-51 -74t-64.5 -56t-79 -53l-35 -24q-46 -28 -76 -50
t-61.5 -53.5t-47 -69.5t-15.5 -83v-17h448v-20h-473z" />
    <glyph glyph-name="three.dnom" 
d="M281 -12q-104 0 -193 32l8 21q86 -31 185 -31q140 0 203 55.5t63 141.5q0 98 -64.5 142t-189.5 44h-74v21h74q109 0 166 51t57 127q0 80 -54.5 128t-170.5 48q-81 0 -178 -37l-9 19q89 36 187 36q124 0 186 -51.5t62 -140.5q0 -70 -43 -121.5t-125 -69.5q88 -8 143 -55.5
t55 -142.5q0 -98 -71 -157.5t-217 -59.5z" />
    <glyph glyph-name="four.dnom" 
d="M451 266v488l-361 -488h361zM612 246h-141v-246h-20v246h-390v16l388 520h22v-516h141v-20z" />
    <glyph glyph-name="five.dnom" 
d="M260 -12q-92 0 -160 28l6 21q65 -27 156 -27q38 0 75 8t74.5 28t65.5 50t46 77.5t18 107.5q0 62 -21 107.5t-58 70t-79.5 36t-93.5 11.5q-91 0 -174 -27l-17 6v297h422v-22h-401v-260q80 26 176 26q41 0 79 -8t73 -26t60.5 -45.5t40.5 -70t15 -95.5q0 -64 -19 -115
t-49.5 -83.5t-71 -54.5t-81 -31t-82.5 -9z" />
    <glyph glyph-name="six.dnom" 
d="M575 258q0 -116 -64.5 -193t-172.5 -77q-85 0 -144.5 50.5t-85.5 127.5t-26 172v29q0 112 24.5 196t67 131t94.5 69.5t113 22.5q75 0 145 -36l-8 -21q-72 37 -137 37q-122 0 -198.5 -93.5t-76.5 -287.5q38 47 98 83t130 36q121 0 181 -70.5t60 -175.5zM338 10
q99 0 157 70.5t58 177.5q0 94 -53.5 158.5t-167.5 64.5q-72 0 -135 -40t-91 -85v-22q0 -63 13 -118.5t39.5 -103t72.5 -75t107 -27.5z" />
    <glyph glyph-name="seven.dnom" 
d="M233 0h-22q44 357 344 760h-481v22h510v-14q-303 -394 -351 -768z" />
    <glyph glyph-name="eight.dnom" 
d="M330 -12q-120 0 -190 57t-70 150q0 80 56.5 137t141.5 88q-166 53 -166 182q0 82 65 133t163 51q97 0 161 -51t64 -133q0 -136 -170 -192q203 -57 203 -213q0 -93 -71 -151t-187 -58zM309 428l51 -12q175 55 175 184q0 73 -58 120.5t-147 47.5q-91 0 -149 -47t-58 -121
q0 -124 186 -172zM330 8q108 0 171.5 53t63.5 136q0 78 -55 126t-160 76l-51 13l-6 2q-87 -32 -144 -87.5t-57 -133.5q0 -81 63.5 -133t174.5 -52z" />
    <glyph glyph-name="nine.dnom" 
d="M324 315q80 0 137.5 35t85.5 76v49q0 132 -55 211.5t-166 79.5q-94 0 -154.5 -65t-60.5 -162q0 -94 51.5 -159t161.5 -65zM303 -12q-91 0 -170 51l10 20q76 -49 160 -49q57 0 98.5 16t76 55.5t52 114.5t17.5 185v16q-34 -41 -91 -72.5t-134 -31.5q-117 0 -175.5 71
t-58.5 177q0 104 67 174.5t171 70.5q120 0 181.5 -84.5t61.5 -226.5v-90q0 -95 -13.5 -165.5t-36 -114.5t-57.5 -70.5t-72.5 -36.5t-86.5 -10z" />
    <glyph glyph-name="dollar.dnom" horiz-adv-x="630" 
d="M330 -131h-21v121q-12 -2 -39 -2q-98 0 -192 37l8 20q76 -37 184 -37q134 0 202.5 52.5t68.5 136.5q0 74 -48 117.5t-161 72.5l-68 19q-98 26 -144 71t-46 115q0 78 64.5 133t180.5 61v95h21v-95h6q113 0 189 -36l-9 -17q-94 35 -178 35q-120 0 -187 -50t-67 -126
q0 -64 43.5 -104t132.5 -62l68 -18q118 -31 170.5 -80t52.5 -131q0 -81 -58 -137.5t-173 -69.5v-121z" />
    <glyph glyph-name="parenleft.dnom" horiz-adv-x="468" 
d="M397 -254q-42 53 -81.5 124t-76.5 164.5t-59 212.5t-22 242q0 184 45.5 345.5t115.5 283.5h29q-74 -126 -121 -287.5t-47 -341.5q0 -228 73.5 -426.5t172.5 -316.5h-29z" />
    <glyph glyph-name="parenright.dnom" horiz-adv-x="468" 
d="M43 -254q98 119 171 317t73 426q0 178 -46.5 340.5t-119.5 288.5h26q162 -284 162 -629q0 -162 -39 -316.5t-89.5 -254.5t-108.5 -172h-29z" />
    <glyph glyph-name="hyphen.dnom" horiz-adv-x="813" 
d="M143 422v22h525v-22h-525z" />
    <glyph glyph-name="IJacute" horiz-adv-x="1214" 
d="M868 1542l353 170h45l-351 -170h-47zM51 1542l352 170h46l-351 -170h-47zM102 0v1434h25v-1434h-25zM639 -10q-185 0 -317 141l18 16q127 -133 299 -133q165 0 258.5 108.5t93.5 336.5v975h25v-967q0 -248 -100.5 -362.5t-276.5 -114.5z" />
    <glyph glyph-name="ijacute" horiz-adv-x="808" 
d="M537 1200l243 336h29l-244 -336h-28zM152 1200l243 336h29l-244 -336h-28zM184 0v1024h25v-1024h-25zM393 -520q-58 0 -106 31l10 20q49 -29 96 -29q90 0 134 63t44 204v1255h25v-1266q0 -150 -53.5 -214t-149.5 -64z" />
    <glyph glyph-name="gravecomb.case" horiz-adv-x="700" 
d="M373 1610l-258 205h14q17 0 33 -11l244 -194h-33z" />
    <glyph glyph-name="acutecomb.case" horiz-adv-x="720" 
d="M213 1610l352 170h45l-350 -170h-47z" />
    <glyph glyph-name="dieresiscomb.case" horiz-adv-x="782" 
d="M549 1659q-17 0 -28 11t-11 30t11 30t28 11q19 0 30 -11t11 -30t-11 -30t-30 -11zM246 1659q-19 0 -30 11t-11 30t11 30t30 11q18 0 29.5 -11.5t11.5 -29.5t-11.5 -29.5t-29.5 -11.5z" />
    <glyph glyph-name="circumflexcomb.case" horiz-adv-x="944" 
d="M682 1610l-203 184l-209 -184h-37l232 205h12q14 0 23 -9l219 -196h-37z" />
    <glyph glyph-name="tildecomb.case" horiz-adv-x="972" 
d="M209 1632q-4 12 -4 23q0 63 38.5 108t104.5 45q34 0 65 -15.5t54 -38t46 -44.5t51.5 -37.5t60.5 -15.5q35 0 60.5 15t38 39t18.5 47t6 46h16q4 -8 4 -20q0 -64 -39.5 -108t-103.5 -44q-43 0 -81.5 24t-63 52t-59.5 52t-73 24q-63 0 -92 -47.5t-29 -104.5h-18z" />
    <glyph glyph-name="exclamdown.case" horiz-adv-x="397" 
d="M199 1354q-20 0 -32.5 12.5t-12.5 32.5t12.5 32.5t32.5 12.5t32.5 -12.5t12.5 -32.5t-12.5 -32.5t-32.5 -12.5zM182 0l4 1171h21l4 -1171h-29z" />
    <glyph glyph-name="questiondown.case" horiz-adv-x="825" 
d="M543 1352q-19 0 -32 13t-13 32q0 20 13 33.5t32 13.5t32 -13.5t13 -33.5q0 -19 -13 -32t-32 -13zM455 -20q-90 0 -159 31t-111 86.5t-62.5 125.5t-20.5 154q0 94 26 169t68.5 122.5t100.5 79.5t116.5 46t121.5 15v362h20l4 -385q-64 0 -122.5 -11.5t-116 -41t-99.5 -74
t-68 -116.5t-26 -164q0 -78 18.5 -144t56 -119.5t102.5 -83.5t151 -30q101 0 179.5 45t121.5 105l18 -15q-42 -64 -126 -110.5t-193 -46.5z" />
    <glyph glyph-name="braceleft.case" horiz-adv-x="534" 
d="M399 -20q-206 0 -206 219q0 53 23.5 155t23.5 146q0 83 -26.5 131.5t-78.5 48.5h-53v27h53q52 0 78.5 48.5t26.5 131.5q0 54 -23.5 167.5t-23.5 170.5q0 219 206 219q17 0 33 -4v-17q-107 0 -161 -42t-54 -156q0 -59 23.5 -173t23.5 -165q0 -96 -29 -141.5t-63 -51.5v-2
q34 -6 63 -51t29 -141q0 -43 -23.5 -144.5t-23.5 -156.5q0 -114 54.5 -156.5t160.5 -42.5v-16q-16 -4 -33 -4z" />
    <glyph glyph-name="braceright.case" horiz-adv-x="534" 
d="M135 -20q-17 0 -33 4v16q106 0 160.5 42.5t54.5 156.5q0 55 -23.5 156.5t-23.5 144.5q0 96 29 141t63 51v2q-34 6 -63 51.5t-29 141.5q0 51 23.5 165t23.5 173q0 114 -54 156t-161 42v17q16 4 33 4q207 0 207 -219q0 -57 -23.5 -170.5t-23.5 -167.5q0 -83 26 -131.5
t78 -48.5h54v-27h-54q-52 0 -78 -48.5t-26 -131.5q0 -44 23.5 -146t23.5 -155q0 -219 -207 -219z" />
    <glyph glyph-name="bracketleft.case" horiz-adv-x="499" 
d="M356 25v-25h-172v1434h172v-25h-147v-1384h147z" />
    <glyph glyph-name="bracketright.case" horiz-adv-x="499" 
d="M315 0h-172v25h148v1384h-148v25h172v-1434z" />
    <glyph glyph-name="emdash.case" horiz-adv-x="1974" 
d="M287 735v25h1401v-25h-1401z" />
    <glyph glyph-name="endash.case" horiz-adv-x="1304" 
d="M184 735v25h936v-25h-936z" />
    <glyph glyph-name="hyphen.case" horiz-adv-x="1024" 
d="M164 735v25h694v-25h-694z" />
    <glyph glyph-name="guillemotleft.case" horiz-adv-x="966" 
d="M750 229l-344 410v14l344 410h32l-350 -416l350 -418h-32zM467 229l-344 410v14l344 410h33l-350 -416l350 -418h-33z" />
    <glyph glyph-name="guillemotright.case" horiz-adv-x="966" 
d="M467 229l350 418l-350 416h33l344 -410v-14l-344 -410h-33zM184 229l351 418l-351 416h33l344 -410v-14l-344 -410h-33z" />
    <glyph glyph-name="guilsinglleft.case" horiz-adv-x="684" 
d="M467 229l-344 410v14l344 410h33l-350 -416l350 -418h-33z" />
    <glyph glyph-name="guilsinglright.case" horiz-adv-x="684" 
d="M184 229l351 418l-351 416h33l344 -410v-14l-344 -410h-33z" />
    <glyph glyph-name="arrowdown.case" horiz-adv-x="1312" 
d="M659 -20h-4l-440 438q-10 10 -10 24v23l440 -438v1407h25v-1407l438 438v-23q0 -14 -10 -24z" />
    <glyph glyph-name="arrowup.case" horiz-adv-x="1312" 
d="M1108 958l-438 439v-1397h-25v1397l-440 -439v23q0 15 10 25l440 438h4l439 -438q10 -10 10 -25v-23z" />
    <glyph glyph-name="arrowupdn.case" horiz-adv-x="1312" 
d="M659 -20h-4l-440 368q-10 10 -10 25v18l440 -366v1374l-440 -367v19q0 14 10 24l440 369h4l439 -369q10 -10 10 -24v-19l-438 367v-1374l438 366v-18q0 -15 -10 -25z" />
    <glyph glyph-name="arrowboth.case" horiz-adv-x="2263" 
d="M709 295q-15 0 -25 10l-438 440v5l438 438q10 10 25 10h22l-440 -440l444 2h795l442 -2l-440 440h22q15 0 25 -10l438 -438v-5l-438 -440q-10 -10 -25 -10h-22l440 442l-442 -2h-795l-444 2l440 -442h-22z" />
    <glyph glyph-name="arrowleft.case" horiz-adv-x="1667" 
d="M1462 735h-1169l438 -440h-22q-15 0 -25 10l-438 440v5l438 438q10 10 25 10h22l-438 -438h1169v-25z" />
    <glyph glyph-name="arrowright.case" horiz-adv-x="1667" 
d="M958 295h-22l438 440h-1169v25h1169l-438 438h22q15 0 25 -10l438 -438v-5l-438 -440q-10 -10 -25 -10z" />
    <glyph glyph-name="arrowdownleft.case" horiz-adv-x="1884" 
d="M993 0h-745l-2 2v746q0 16 10 26l14 12v-745l1393 1393l16 -17l-1392 -1392h745l-12 -15q-10 -10 -27 -10z" />
    <glyph glyph-name="arrowdownright.case" horiz-adv-x="1884" 
d="M1636 0h-745q-17 0 -27 10l-12 15h745l-1392 1392l16 17l1393 -1393v745l14 -12q10 -10 10 -26v-746z" />
    <glyph glyph-name="arrowupleft.case" horiz-adv-x="1884" 
d="M1679 16l-16 -16l-1393 1393v-746l-14 12q-10 10 -10 27v746l2 2h745q16 0 27 -11l12 -14h-745z" />
    <glyph glyph-name="arrowupright.case" horiz-adv-x="1884" 
d="M1614 647v746l-1393 -1393l-16 16l1392 1393h-745l12 14q11 11 27 11h745l2 -2v-746q0 -17 -10 -27z" />
    <glyph glyph-name="at.case" horiz-adv-x="2056" 
d="M954 -315q-232 0 -412 107t-281 305.5t-101 457.5q0 220 72 406.5t193 311t280 194t333 69.5t324.5 -63t258.5 -175t170 -275.5t62 -356.5q0 -138 -28 -249.5t-74.5 -179t-102 -103.5t-114.5 -36q-110 0 -178 93.5t-68 265.5v133q-31 -224 -144.5 -367t-244.5 -143
q-134 0 -216.5 112t-82.5 304q0 140 41.5 259.5t110 199t159 124.5t187.5 45q107 0 190 -53l6 33h19v-645q0 -160 60.5 -248t160.5 -88q54 0 105 33.5t94 98t69.5 171.5t26.5 240q0 190 -60.5 349t-166 267.5t-251 168.5t-313.5 60q-170 0 -324.5 -67.5t-272.5 -188.5
t-187.5 -303t-69.5 -397q0 -191 57 -350t158.5 -267.5t244 -168.5t310.5 -60q151 0 269 43l10 -22q-130 -45 -279 -45zM899 104q72 0 140.5 49t124.5 138.5t90 231.5t34 313v204q-78 60 -188 60q-94 0 -180 -43t-151.5 -120t-104.5 -191.5t-39 -249.5q0 -178 74.5 -285
t199.5 -107z" />
    <glyph glyph-name="colon.case" horiz-adv-x="581" 
d="M291 868q-19 0 -30 11t-11 30t11 30t30 11t30 -11t11 -30t-11 -30t-30 -11zM291 365q-19 0 -30 11t-11 30t11 29.5t30 10.5t30 -10.5t11 -29.5t-11 -30t-30 -11z" />
    <glyph glyph-name="periodcentered.case" horiz-adv-x="450" 
d="M225 668q-19 0 -30 11t-11 30t11 30t30 11t30 -11t11 -30t-11 -30t-30 -11z" />
    <glyph glyph-name="LA.calt" horiz-adv-x="962" 
d="M133 0v1434h25v-1409h764l-9 -25h-780z" />
    <glyph glyph-name="ZA.calt" horiz-adv-x="1009" 
d="M950 0h-899v6q0 14 10 29l836 1374h-801v25h832v-7q0 -10 -6 -22l-836 -1380h872z" />
    <glyph glyph-name="EA.calt" horiz-adv-x="1071" 
d="M133 0v1434h836v-25h-809v-649h731v-25h-731v-710h809l-11 -25h-825z" />
    <glyph glyph-name="EgraveA.calt" horiz-adv-x="1071" 
d="M600 1528l-258 205h14q16 0 33 -11l244 -194h-33zM133 0v1434h836v-25h-809v-649h731v-25h-731v-710h809l-11 -25h-825z" />
    <glyph glyph-name="EacuteA.calt" horiz-adv-x="1071" 
d="M397 1528l353 170h45l-351 -170h-47zM133 0v1434h836v-25h-809v-649h731v-25h-731v-710h809l-11 -25h-825z" />
    <glyph glyph-name="EcircumflexA.calt" horiz-adv-x="1071" 
d="M741 1528l-202 184l-209 -184h-37l231 205h13q13 0 22 -9l219 -196h-37zM133 0v1434h836v-25h-809v-649h731v-25h-731v-710h809l-11 -25h-825z" />
    <glyph glyph-name="EdieresisA.calt" horiz-adv-x="1071" 
d="M694 1577q-17 0 -28 11t-11 30t11 30t28 11q19 0 30 -11t11 -30t-11 -30t-30 -11zM391 1577q-19 0 -30 11t-11 30t11 30t30 11q18 0 29.5 -11.5t11.5 -29.5t-11.5 -29.5t-29.5 -11.5zM133 0v1434h836v-25h-809v-649h731v-25h-731v-710h809l-11 -25h-825z" />
    <glyph glyph-name="LM.calt" horiz-adv-x="962" 
d="M133 0v1434h25v-1409h764l-7 -25h-782z" />
    <glyph glyph-name="EM.calt" horiz-adv-x="1071" 
d="M133 0v1434h836v-25h-809v-649h731v-25h-731v-710h809l-6 -25h-830z" />
    <glyph glyph-name="EgraveM.calt" horiz-adv-x="1071" 
d="M600 1528l-258 205h14q16 0 33 -11l244 -194h-33zM133 0v1434h836v-25h-809v-649h731v-25h-731v-710h809l-6 -25h-830z" />
    <glyph glyph-name="EacuteM.calt" horiz-adv-x="1071" 
d="M397 1528l353 170h45l-351 -170h-47zM133 0v1434h836v-25h-809v-649h731v-25h-731v-710h809l-6 -25h-830z" />
    <glyph glyph-name="EcircumflexM.calt" horiz-adv-x="1071" 
d="M741 1528l-202 184l-209 -184h-37l231 205h13q13 0 22 -9l219 -196h-37zM133 0v1434h836v-25h-809v-649h731v-25h-731v-710h809l-6 -25h-830z" />
    <glyph glyph-name="EdieresisM.calt" horiz-adv-x="1071" 
d="M694 1577q-17 0 -28 11t-11 30t11 30t28 11q19 0 30 -11t11 -30t-11 -30t-30 -11zM391 1577q-19 0 -30 11t-11 30t11 30t30 11q18 0 29.5 -11.5t11.5 -29.5t-11.5 -29.5t-29.5 -11.5zM133 0v1434h836v-25h-809v-649h731v-25h-731v-710h809l-6 -25h-830z" />
    <glyph glyph-name="EW.calt" horiz-adv-x="1071" 
d="M133 0v1434h830l6 -25h-809v-649h731v-25h-731v-710h809v-25h-836z" />
    <glyph glyph-name="EgraveW.calt" horiz-adv-x="1071" 
d="M600 1528l-258 205h14q16 0 33 -11l244 -194h-33zM133 0v1434h830l6 -25h-809v-649h731v-25h-731v-710h809v-25h-836z" />
    <glyph glyph-name="EacuteW.calt" horiz-adv-x="1071" 
d="M397 1528l353 170h45l-351 -170h-47zM133 0v1434h830l6 -25h-809v-649h731v-25h-731v-710h809v-25h-836z" />
    <glyph glyph-name="EcircumflexW.calt" horiz-adv-x="1071" 
d="M741 1528l-202 184l-209 -184h-37l231 205h13q13 0 22 -9l219 -196h-37zM133 0v1434h830l6 -25h-809v-649h731v-25h-731v-710h809v-25h-836z" />
    <glyph glyph-name="EdieresisW.calt" horiz-adv-x="1071" 
d="M694 1577q-17 0 -28 11t-11 30t11 30t28 11q19 0 30 -11t11 -30t-11 -30t-30 -11zM391 1577q-19 0 -30 11t-11 30t11 30t30 11q18 0 29.5 -11.5t11.5 -29.5t-11.5 -29.5t-29.5 -11.5zM133 0v1434h830l6 -25h-809v-649h731v-25h-731v-710h809v-25h-836z" />
    <glyph glyph-name="EV.calt" horiz-adv-x="1071" 
d="M133 0v1434h828l8 -25h-809v-649h731v-25h-731v-710h809v-25h-836z" />
    <glyph glyph-name="EgraveV.calt" horiz-adv-x="1071" 
d="M600 1528l-258 205h14q16 0 33 -11l244 -194h-33zM133 0v1434h828l8 -25h-809v-649h731v-25h-731v-710h809v-25h-836z" />
    <glyph glyph-name="EacuteV.calt" horiz-adv-x="1071" 
d="M397 1528l353 170h45l-351 -170h-47zM133 0v1434h828l8 -25h-809v-649h731v-25h-731v-710h809v-25h-836z" />
    <glyph glyph-name="EcircumflexV.calt" horiz-adv-x="1071" 
d="M741 1528l-202 184l-209 -184h-37l231 205h13q13 0 22 -9l219 -196h-37zM133 0v1434h828l8 -25h-809v-649h731v-25h-731v-710h809v-25h-836z" />
    <glyph glyph-name="EdieresisV.calt" horiz-adv-x="1071" 
d="M694 1577q-17 0 -28 11t-11 30t11 30t28 11q19 0 30 -11t11 -30t-11 -30t-30 -11zM391 1577q-19 0 -30 11t-11 30t11 30t30 11q18 0 29.5 -11.5t11.5 -29.5t-11.5 -29.5t-29.5 -11.5zM133 0v1434h828l8 -25h-809v-649h731v-25h-731v-710h809v-25h-836z" />
    <glyph glyph-name="TW.calt" horiz-adv-x="1044" 
d="M510 0v1399l-479 14v21h977l6 -21l-479 -14v-1399h-25z" />
    <glyph glyph-name="TV.calt" horiz-adv-x="1044" 
d="M510 0v1399l-479 14v21h977l6 -21l-479 -14v-1399h-25z" />
    </font>
</defs>
</svg>
