<?xml version="1.0" standalone="no"?>
<!DOCTYPE svg PUBLIC "-//W3C//DTD SVG 1.1//EN" "http://www.w3.org/Graphics/SVG/1.1/DTD/svg11.dtd" >
<svg xmlns="http://www.w3.org/2000/svg" xmlns:xlink="http://www.w3.org/1999/xlink" version="1.1">
<metadata>
Created by FontForge 20201107 at Thu Oct 16 23:11:22 2025
 By 
Copyright 2015 LATAM Airlines. All Rights Reserved.
</metadata>
<defs>
<font id="LatamSans-Black" horiz-adv-x="688" >
  <font-face 
    font-family="Latam Sans Black"
    font-weight="800"
    font-stretch="normal"
    units-per-em="2048"
    panose-1="2 11 10 3 3 4 3 2 2 4"
    ascent="1536"
    descent="-512"
    x-height="1024"
    cap-height="1434"
    bbox="-143 -645.158 2644 1966"
    underline-thickness="0"
    underline-position="0"
    unicode-range="U+0020-FB04"
  />
<missing-glyph horiz-adv-x="1228" 
 />
    <glyph glyph-name="ff" unicode="ff" horiz-adv-x="1562" 
d="M199 0v788l-166 35v201h166v139q0 183 101 272t316 89q37 0 90.5 -9.5t90.5 -25.5l-33 -258q-46 20 -115 20q-55 0 -89 -30t-34 -97v-100h412v180q0 183 104.5 272t325.5 89q41 0 98.5 -9t94.5 -26l-33 -258q-50 20 -127 20q-60 0 -97.5 -30t-37.5 -97v-141h264v-207
l-264 -33v-784h-328v778h-412v-778h-327z" />
    <glyph glyph-name="fi" unicode="fi" horiz-adv-x="1355" 
d="M1077 1149q-78 0 -130 53t-52 131q0 77 52 130t130 53q77 0 130 -53t53 -130q0 -78 -53 -131t-130 -53zM199 0v778l-166 35v211h166v180q0 183 104.5 272t325.5 89q41 0 98 -9t94 -26l-33 -258q-50 20 -126 20q-60 0 -98 -30t-38 -97v-141h265v-211l-265 -47v-766h-327z
M913 0v1024h328v-1024h-328z" />
    <glyph glyph-name="fl" unicode="fl" horiz-adv-x="1402" 
d="M1247 -16q-177 0 -255.5 76.5t-78.5 234.5v1241h326v-1221q0 -67 72 -67q36 0 49 8l31 -246q-63 -26 -144 -26zM199 0v778l-166 35v211h166v180q0 183 104.5 272t325.5 89q41 0 98 -9t94 -26l-33 -258q-50 20 -126 20q-60 0 -98 -30t-38 -97v-141h265v-211l-265 -47v-766
h-327z" />
    <glyph glyph-name="ffi" unicode="ffi" horiz-adv-x="2097" 
d="M1817 1147q-78 0 -131.5 52.5t-53.5 131.5q0 77 53.5 131t131.5 54q76 0 130 -54t54 -131q0 -79 -53.5 -131.5t-130.5 -52.5zM1653 0v1024h327v-1024h-327zM199 0v788l-166 35v201h166v139q0 183 104.5 272t325.5 89q41 0 98 -9t94 -26l-33 -258q-50 20 -126 20
q-60 0 -98 -30t-38 -97v-100h412v180q0 183 104.5 272t325.5 89q41 0 98.5 -9t94.5 -26l-33 -258q-50 20 -127 20q-60 0 -97.5 -30t-37.5 -97v-141h264v-207l-264 -33v-784h-328v778h-412v-778h-327z" />
    <glyph glyph-name="ffl" unicode="ffl" horiz-adv-x="2129" 
d="M1974 -16q-177 0 -255.5 76.5t-78.5 234.5v1241h326v-1221q0 -67 72 -67q36 0 49 8l31 -246q-63 -26 -144 -26zM199 0v788l-166 35v201h166v139q0 183 101 272t316 89q37 0 90.5 -9.5t90.5 -25.5l-33 -258q-46 20 -115 20q-55 0 -89 -30t-34 -97v-100h412v180
q0 183 104.5 272t325.5 89q41 0 98.5 -9t94.5 -26l-33 -258q-50 20 -127 20q-60 0 -97.5 -30t-37.5 -97v-141h264v-207l-264 -33v-784h-328v778h-412v-778h-327z" />
    <glyph glyph-name="f_b" unicode="fb" horiz-adv-x="1947" 
d="M1341 -29q-242 0 -438 103v1462h314v-596q98 113 264 113q183 0 293 -134t110 -378q0 -290 -142.5 -430t-400.5 -140zM199 0v778l-166 35v211h166v180q0 183 104.5 272t325.5 89q41 0 98 -9t94 -26l-33 -258q-50 20 -126 20q-60 0 -98 -30t-38 -97v-141h265v-211
l-265 -47v-766h-327zM1362 236q199 0 199 288q0 125 -42 192.5t-118 67.5t-123 -68.5t-47 -199.5v-252q40 -28 131 -28z" />
    <glyph glyph-name="f_f_b" unicode="ffb" horiz-adv-x="2689" 
d="M2083 -29q-242 0 -438 103v1462h313v-596q98 113 264 113q183 0 293.5 -134t110.5 -378q0 -290 -142.5 -430t-400.5 -140zM2103 236q199 0 199 288q0 125 -42 192.5t-118 67.5t-123 -68.5t-47 -199.5v-252q40 -28 131 -28zM199 0v788l-166 35v201h166v133q0 367 440 367
q42 0 103 -9t98 -26l-33 -258q-50 20 -135 20q-61 0 -103.5 -33t-42.5 -100v-94h389v180q0 179 115.5 270t339.5 91q41 0 98.5 -9t94.5 -26l-33 -258q-50 20 -127 20q-64 0 -112 -30.5t-48 -96.5v-141h264v-207l-264 -33v-784h-328v778h-389v-778h-327z" />
    <glyph glyph-name="f_h" unicode="fh" horiz-adv-x="1949" 
d="M199 0v778l-166 35v211h166v180q0 183 104.5 272t325.5 89q41 0 98 -9t94 -26l-33 -258q-50 20 -126 20q-60 0 -98 -30t-38 -97v-141h265v-211l-265 -47v-766h-327zM1231 618v-618h-328v1536h314v-621q47 62 120 100t164 38q94 0 163.5 -29t110.5 -83t60.5 -122.5
t19.5 -154.5v-664h-327v618q0 84 -41 126t-107 42q-63 0 -106 -42.5t-43 -125.5z" />
    <glyph glyph-name="f_f_h" unicode="ffh" horiz-adv-x="2701" 
d="M1982 618v-618h-327v1536h313v-621q47 62 120.5 100t164.5 38q94 0 163.5 -29t110.5 -83t60.5 -122.5t19.5 -154.5v-664h-328v618q0 84 -41 126t-106 42q-64 0 -107 -42.5t-43 -125.5zM199 0v788l-166 35v201h166v139q0 183 104.5 272t325.5 89q41 0 98 -9t94 -26
l-33 -258q-50 20 -126 20q-60 0 -98 -30t-38 -97v-100h400v180q0 183 107.5 272t334.5 89q41 0 98.5 -9t94.5 -26l-33 -258q-50 20 -127 20q-65 0 -106.5 -30t-41.5 -97v-141h265v-207l-265 -33v-784h-327v778h-400v-778h-327z" />
    <glyph glyph-name="f_k" unicode="fk" horiz-adv-x="1937" 
d="M199 0v778l-166 35v211h166v180q0 183 104.5 272t325.5 89q41 0 98 -9t94 -26l-33 -258q-50 20 -126 20q-60 0 -98 -30t-38 -97v-141h265v-211l-265 -47v-766h-327zM1184 68q-47 -68 -133 -68h-148v1536h309v-1047l338 535h320l-314 -438l349 -586h-312l-207 350z" />
    <glyph glyph-name="f_f_k" unicode="ffk" horiz-adv-x="2676" 
d="M199 0v788l-166 35v201h166v139q0 183 104.5 272t325.5 89q41 0 98 -9t94 -26l-33 -258q-50 20 -126 20q-60 0 -98 -30t-38 -97v-100h400v180q0 183 107.5 272t334.5 89q41 0 98.5 -9t94.5 -26l-33 -258q-50 20 -127 20q-65 0 -106.5 -30t-41.5 -97v-141h265v-207
l-265 -33v-784h-327v778h-400v-778h-327zM1923 68q-47 -68 -133 -68h-148v1536h310v-1047l338 535h319l-313 -438l348 -586h-311l-207 350z" />
    <glyph glyph-name="f_j" unicode="fj" horiz-adv-x="1355" 
d="M1077 1149q-78 0 -130 53t-52 131q0 77 52 130t130 53q77 0 130 -53t53 -130q0 -78 -53 -131t-130 -53zM199 0v778l-166 35v211h166v180q0 183 104.5 272t325.5 89q41 0 98 -9t94 -26l-33 -258q-50 20 -126 20q-60 0 -98 -30t-38 -97v-141h265v-211l-265 -47v-766h-327z
M852 -516q-99 0 -178 29l33 251q37 -16 79 -16q70 0 98.5 36.5t28.5 111.5v1128h328v-1155q0 -197 -90.5 -291t-298.5 -94z" />
    <glyph glyph-name="f_f_j" unicode="ffj" horiz-adv-x="2097" 
d="M1817 1147q-78 0 -131.5 52.5t-53.5 131.5q0 77 53.5 131t131.5 54q76 0 130 -54t54 -131q0 -79 -53.5 -131.5t-130.5 -52.5zM199 0v788l-166 35v201h166v139q0 183 104.5 272t325.5 89q41 0 98 -9t94 -26l-33 -258q-50 20 -126 20q-60 0 -98 -30t-38 -97v-100h412v180
q0 183 104.5 272t325.5 89q41 0 98.5 -9t94.5 -26l-33 -258q-50 20 -127 20q-60 0 -97.5 -30t-37.5 -97v-141h264v-207l-264 -33v-784h-328v778h-412v-778h-327zM1591 -516q-99 0 -178 29l33 251q37 -16 80 -16q70 0 98.5 36.5t28.5 111.5v1128h327v-1155q0 -197 -90.5 -291
t-298.5 -94z" />
    <glyph glyph-name="f_idieresis" unicode="f&#xef;" horiz-adv-x="1368" 
d="M1270 1167q-63 0 -104.5 43.5t-41.5 110.5q0 66 41.5 111t104.5 45q62 0 104.5 -45t42.5 -111q0 -67 -42.5 -110.5t-104.5 -43.5zM938 1167q-63 0 -105 43.5t-42 110.5q0 66 42 111t105 45q61 0 103 -45t42 -111q0 -67 -41.5 -110.5t-103.5 -43.5zM199 0v778l-166 35v211
h166v193q0 177 97 262.5t306 85.5q93 0 158 -29l-53 -258q-37 14 -76 14q-105 0 -105 -114v-154h265v-211l-265 -47v-766h-327zM922 0v1024h327v-1024h-327z" />
    <glyph glyph-name=".notdef" horiz-adv-x="1228" 
 />
    <glyph glyph-name=".null" horiz-adv-x="0" 
 />
    <glyph glyph-name="nonmarkingreturn" horiz-adv-x="682" 
 />
    <glyph glyph-name="space" unicode=" " horiz-adv-x="448" 
 />
    <glyph glyph-name="exclam" unicode="!" horiz-adv-x="532" 
d="M172 469l-78 965h344l-78 -965h-188zM266 -29q-83 0 -138.5 56.5t-55.5 138.5q0 83 55.5 138.5t138.5 55.5q82 0 138.5 -55.5t56.5 -138.5q0 -82 -56.5 -138.5t-138.5 -56.5z" />
    <glyph glyph-name="quotedbl" unicode="&#x22;" horiz-adv-x="772" 
d="M489 967l-55 424v43h266v-43l-61 -424h-150zM127 967l-55 424v43h266v-43l-62 -424h-149z" />
    <glyph glyph-name="numbersign" unicode="#" horiz-adv-x="1357" 
d="M772 618l12 197h-176l-12 -197h176zM729 0l27 381h-176l-27 -381h-266l26 381h-149v237h166l12 197h-178v238h194l27 381h266l-26 -381h176l26 381h267l-27 -381h147v-238h-163l-13 -197h176v-237h-192l-27 -381h-266z" />
    <glyph glyph-name="dollar" unicode="$" horiz-adv-x="1167" 
d="M391 1018q0 -88 117 -133v258q-117 -37 -117 -125zM786 414q0 48 -23 78t-71 51v-258q94 40 94 129zM692 -240h-184v211h-2q-251 0 -414 92l96 263q150 -72 310 -72h10v344l-78 20q-356 89 -356 379q0 164 116.5 282t317.5 153v184h184v-172q199 -4 352 -66l-71 -268
q-167 53 -281 55v-325q198 -45 305 -140.5t107 -255.5q0 -167 -105 -290.5t-307 -163.5v-230z" />
    <glyph glyph-name="percent" unicode="%" horiz-adv-x="1693" 
d="M494 0h-324l872 1186q-52 -10 -96 -10q-87 0 -205 24q15 -44 15 -94q0 -138 -99 -237t-237 -99t-238 99t-100 237t100 238t238 100q105 0 272.5 -36t282.5 -36q220 0 487 72v-68q0 -57 -35 -106zM420 1004q43 0 72.5 29.5t29.5 72.5q0 44 -29.5 74t-72.5 30
q-44 0 -74.5 -30t-30.5 -74q0 -43 30.5 -72.5t74.5 -29.5zM1276 -29q-138 0 -238 99t-100 237t100 238t238 100t237 -100t99 -238t-99 -237t-237 -99zM1276 205q43 0 72.5 29.5t29.5 72.5q0 44 -29.5 74.5t-72.5 30.5q-44 0 -74.5 -30.5t-30.5 -74.5q0 -43 30.5 -72.5
t74.5 -29.5z" />
    <glyph glyph-name="ampersand" unicode="&#x26;" horiz-adv-x="1507" 
d="M1305 -18q-153 54 -281 122q-186 -120 -412 -120q-246 0 -398.5 121t-152.5 303q0 258 281 391q-33 104 -33 205q0 197 121.5 318.5t317.5 121.5q170 0 279.5 -92t109.5 -230q0 -305 -398 -426q97 -132 273 -254q110 125 182 338l231 -96q-69 -224 -188 -375
q87 -46 182 -82zM625 1018q0 -59 16 -125q89 29 139.5 84t50.5 135q0 46 -23.5 72t-59.5 26q-56 0 -89.5 -51.5t-33.5 -140.5zM621 254q71 0 135 18q-189 138 -301 299q-74 -64 -74 -145q0 -77 70 -124.5t170 -47.5z" />
    <glyph glyph-name="quotesingle" unicode="'" horiz-adv-x="409" 
d="M127 967l-55 424v43h266v-43l-62 -424h-149z" />
    <glyph glyph-name="parenleft" unicode="(" horiz-adv-x="776" 
d="M539 -350q-63 59 -125.5 154.5t-120 224t-93.5 298t-36 345.5q0 177 35.5 346t93.5 297.5t120 224t126 156.5h278q-63 -78 -119 -178.5t-106.5 -229.5t-80.5 -289.5t-30 -326.5t30 -326.5t81 -289.5t107 -229.5t118 -176.5h-278z" />
    <glyph glyph-name="parenright" unicode=")" horiz-adv-x="776" 
d="M-41 -350q62 76 118 176.5t107 229.5t81 289.5t30 326.5t-30 326.5t-80.5 289.5t-106.5 229.5t-119 178.5h279q64 -61 126 -156.5t119.5 -224t93 -297.5t35.5 -346q0 -176 -36 -345.5t-93.5 -298t-119.5 -224t-125 -154.5h-279z" />
    <glyph glyph-name="asterisk" unicode="*" horiz-adv-x="763" 
d="M608 893l-168 108l13 -200h-148l19 203l-174 -111l-68 121l186 88l-186 92l63 113l181 -111l-15 201h148l-17 -197l179 107l61 -111l-182 -94l182 -90z" />
    <glyph glyph-name="plus" unicode="+" horiz-adv-x="1290" 
d="M1126 483h-331v-331h-299v331h-332v299h332v332h299v-332h331v-299z" />
    <glyph glyph-name="comma" unicode="," horiz-adv-x="600" 
d="M141 -352l-49 92q65 46 103 121t38 157q0 55 -24 98t-57 62q0 75 49.5 128.5t124.5 53.5q87 0 134.5 -67.5t47.5 -163.5q0 -88 -37 -172.5t-93.5 -145.5t-118.5 -103.5t-118 -59.5z" />
    <glyph glyph-name="hyphen" unicode="-" horiz-adv-x="995" 
d="M164 381v299h667v-299h-667z" />
    <glyph glyph-name="period" unicode="." horiz-adv-x="573" 
d="M297 -29q-83 0 -139 56t-56 139q0 82 56 138t139 56q82 0 138.5 -56t56.5 -138q0 -83 -56.5 -139t-138.5 -56z" />
    <glyph glyph-name="slash" unicode="/" horiz-adv-x="1241" 
d="M193 -240l528 1856h328l-529 -1856h-327z" />
    <glyph glyph-name="zero" unicode="0" horiz-adv-x="1228" 
d="M612 -29q-110 0 -201 40t-154 109t-106 164t-63 203.5t-20 229.5q0 116 20 220.5t63 195.5t106 157.5t154 105t201 38.5q111 0 202.5 -38.5t155 -105t107 -157.5t64 -195.5t20.5 -220.5q0 -121 -20.5 -229.5t-64 -203.5t-107 -164t-155 -109t-202.5 -40zM612 268
q98 0 157.5 113t59.5 336q0 210 -59 315t-158 105q-97 0 -155 -105t-58 -315q0 -223 58 -336t155 -113z" />
    <glyph glyph-name="one" unicode="1" horiz-adv-x="1228" 
d="M1104 0h-975v299h324v760l-306 -133v319l338 154q99 45 209 45h86v-1145h324v-299z" />
    <glyph glyph-name="two" unicode="2" horiz-adv-x="1228" 
d="M135 0v256q0 63 19.5 119t46.5 95t74 79.5t82.5 64t91.5 58.5q17 11 26 16l92 57q99 62 145 116t46 130q0 73 -62.5 122.5t-171.5 49.5q-75 0 -161 -23t-160 -63l-80 262q231 105 440 105q241 0 387 -111.5t146 -296.5q0 -80 -26 -151.5t-74 -129.5t-101.5 -102.5
t-122.5 -87.5l-92 -57q-83 -52 -129.5 -96.5t-46.5 -85.5v-27h602v-299h-971z" />
    <glyph glyph-name="three" unicode="3" horiz-adv-x="1228" 
d="M535 -29q-230 0 -416 76l100 277q136 -56 295 -56q130 0 188 48.5t58 121.5q0 79 -61 120.5t-171 41.5h-194v266h190q88 0 138.5 39.5t50.5 110.5q0 151 -213 151q-143 0 -299 -59l-72 260q71 32 191 54t227 22q246 0 371.5 -100t125.5 -265q0 -103 -54.5 -195
t-135.5 -136q96 -25 166 -111.5t70 -206.5q0 -101 -32 -183t-97.5 -144.5t-173.5 -97t-252 -34.5z" />
    <glyph glyph-name="four" unicode="4" horiz-adv-x="1228" 
d="M690 592v487l-297 -487h297zM1182 317h-178v-317h-314v317h-624v244l561 873h377v-842h178v-275z" />
    <glyph glyph-name="five" unicode="5" horiz-adv-x="1228" 
d="M467 -29q-108 0 -207.5 19t-163.5 53l107 285q50 -23 127 -40.5t143 -17.5q151 0 236.5 58.5t85.5 171.5q0 86 -64.5 138t-175.5 52q-55 0 -109 -15t-86 -36l-170 37v758h865v-299h-537v-199q75 20 152 20q91 0 171 -26.5t143 -78t99.5 -136t36.5 -193.5
q0 -260 -170.5 -405.5t-482.5 -145.5z" />
    <glyph glyph-name="six" unicode="6" horiz-adv-x="1228" 
d="M1161 508q0 -150 -62.5 -272t-179.5 -193.5t-266 -71.5q-254 0 -409.5 193t-155.5 512v45q0 156 39 281.5t103.5 206.5t151.5 135t178 77t188 23q187 0 307 -72l-51 -285q-118 62 -265 60q-67 -1 -119 -18t-95 -56t-70 -108t-35 -168q128 151 315 151q99 0 181.5 -36.5
t135 -98.5t81 -140.5t28.5 -164.5zM641 268q84 0 136 59t52 146q0 80 -51.5 140.5t-136.5 60.5q-72 0 -133 -43t-88 -115q13 -103 73 -175.5t148 -72.5z" />
    <glyph glyph-name="seven" unicode="7" horiz-adv-x="1228" 
d="M647 0h-366q19 163 71 327.5t126.5 309.5t153.5 265.5t169 232.5h-688v299h1036v-211q-78 -103 -152.5 -229t-148.5 -284t-128 -344t-73 -366z" />
    <glyph glyph-name="eight" unicode="8" horiz-adv-x="1228" 
d="M612 -29q-243 0 -387.5 111t-144.5 301q0 113 62.5 204.5t189.5 133.5q-103 56 -154 135.5t-51 196.5q0 171 135 281t352 110t352.5 -107t135.5 -272q0 -101 -49.5 -173t-137.5 -112q234 -121 234 -374q0 -200 -146.5 -317.5t-390.5 -117.5zM666 860l12 -2q96 57 96 168
q0 74 -45.5 120t-116.5 46q-70 0 -114.5 -43t-44.5 -113q0 -132 213 -176zM616 231q95 0 157.5 52t62.5 131q0 81 -51.5 125t-163.5 75l-23 7q-3 1 -10 3t-10 3q-88 -22 -134.5 -79.5t-46.5 -121.5q0 -86 61.5 -140.5t157.5 -54.5z" />
    <glyph glyph-name="nine" unicode="9" horiz-adv-x="1228" 
d="M623 741q119 0 190 50v45q0 142 -57 226.5t-162 84.5q-89 0 -143 -55t-54 -140q0 -89 61.5 -150t164.5 -61zM528 -29q-114 0 -217.5 35t-152.5 82l61 270q121 -98 318 -98q117 0 188 66.5t84 224.5q-109 -84 -266 -84q-113 0 -204 36.5t-150 100.5t-91 150.5t-32 187.5
q0 217 148 359.5t384 142.5q251 0 398 -172.5t147 -468.5v-123q0 -158 -32 -281t-87 -202.5t-134 -131t-167.5 -73t-194.5 -21.5z" />
    <glyph glyph-name="colon" unicode=":" horiz-adv-x="634" 
d="M317 608q-83 0 -138.5 56t-55.5 139q0 82 55.5 138t138.5 56q82 0 138.5 -56t56.5 -138q0 -83 -56.5 -139t-138.5 -56zM317 61q-83 0 -138.5 56t-55.5 139q0 82 55.5 138.5t138.5 56.5q82 0 138.5 -56.5t56.5 -138.5q0 -83 -56.5 -139t-138.5 -56z" />
    <glyph glyph-name="semicolon" unicode=";" horiz-adv-x="634" 
d="M317 608q-83 0 -138.5 56t-55.5 139q0 82 55.5 138t138.5 56q82 0 138.5 -56t56.5 -138q0 -83 -56.5 -139t-138.5 -56zM137 -287l-51 84q66 41 105.5 110t39.5 142q0 50 -25.5 89.5t-58.5 56.5q0 69 51 117t128 48q90 0 139 -61t49 -149q0 -80 -38 -157t-96 -132
t-121.5 -94t-121.5 -54z" />
    <glyph glyph-name="less" unicode="&#x3c;" horiz-adv-x="1228" 
d="M1059 190l-895 347v247l895 344v-278l-498 -186l498 -189v-285z" />
    <glyph glyph-name="equal" unicode="=" horiz-adv-x="1290" 
d="M164 672v278h962v-278h-962zM164 256v279h962v-279h-962z" />
    <glyph glyph-name="greater" unicode="&#x3e;" horiz-adv-x="1228" 
d="M164 190v285l498 189l-498 186v278l895 -344v-247z" />
    <glyph glyph-name="question" unicode="?" horiz-adv-x="958" 
d="M426 469h-215l-21 319q81 0 151.5 11t132 35t97 68.5t35.5 105.5q0 75 -54 121.5t-169 46.5q-129 0 -258 -84l-64 268q68 39 173 61.5t196 22.5q125 0 222.5 -32.5t156.5 -88.5t89 -125.5t30 -148.5q0 -106 -39.5 -189.5t-109 -136.5t-155.5 -84t-188 -41zM322 -29
q-83 0 -139 56.5t-56 138.5q0 83 56 138.5t139 55.5q82 0 138 -55.5t56 -138.5q0 -82 -56 -138.5t-138 -56.5z" />
    <glyph glyph-name="at" unicode="@" horiz-adv-x="2097" 
d="M891 -401q-169 0 -313.5 63t-246.5 175t-160 273.5t-58 352.5q0 216 73 400t200.5 311t305 198.5t381.5 71.5q194 0 362 -64.5t289.5 -179t191 -282t69.5 -365.5q0 -148 -35.5 -263.5t-95.5 -183t-131.5 -101.5t-149.5 -34q-134 0 -219.5 77.5t-100.5 205.5
q-37 -139 -132 -211t-218 -72q-176 0 -288.5 130.5t-112.5 353.5q0 170 72.5 306.5t205 214t299.5 77.5q154 0 275 -66l114 39l43 -10v-711q0 -67 32 -102t87 -35q72 0 122 93.5t50 291.5q0 163 -55.5 300t-152.5 230.5t-231 145t-290 51.5q-167 0 -310.5 -58t-247 -162.5
t-162 -258.5t-58.5 -338q0 -319 165 -510t431 -191q130 0 237 39l43 -157q-130 -45 -280 -45zM985 250q26 0 53 13.5t56.5 48.5t52 87t37 136.5t14.5 189.5v84q-58 22 -108 22q-107 0 -178.5 -100.5t-71.5 -259.5q0 -98 40.5 -159.5t104.5 -61.5z" />
    <glyph glyph-name="A" unicode="A" horiz-adv-x="1312" 
d="M778 575l-123 494l-123 -494h246zM922 0l-78 315h-377l-78 -315h-348l426 1434h240q72 0 112 -29.5t62 -101.5l391 -1303h-350z" />
    <glyph glyph-name="B" unicode="B" horiz-adv-x="1255" 
d="M553 -29q-110 0 -239.5 18t-219.5 48v1397h518q138 0 238.5 -29t158 -82t84.5 -118.5t27 -145.5q0 -110 -55 -193t-135 -114q113 -26 184.5 -117.5t71.5 -212.5q0 -117 -46.5 -204.5t-132 -141t-199 -79.5t-255.5 -26zM627 1159h-211v-297h205q54 0 91.5 13.5t56 36.5
t25.5 46t7 50q0 151 -174 151zM573 258q128 0 198.5 44.5t70.5 129.5q0 83 -57.5 127.5t-159.5 44.5h-209v-332q96 -14 157 -14z" />
    <glyph glyph-name="C" unicode="C" horiz-adv-x="1126" 
d="M750 -29q-308 0 -487 202t-179 544q0 331 179.5 529t484.5 198q206 0 333 -84l-80 -283q-99 60 -215 60q-164 0 -267 -106t-103 -314q0 -112 29 -197.5t81 -137t118.5 -77.5t146.5 -26q111 0 215 63l79 -287q-130 -84 -335 -84z" />
    <glyph glyph-name="D" unicode="D" horiz-adv-x="1320" 
d="M498 -29q-119 0 -209.5 15t-194.5 45v1403h500q98 0 189 -22t176.5 -72.5t148.5 -125t101 -188t38 -252.5q0 -160 -38.5 -292.5t-106.5 -226t-162.5 -158.5t-205.5 -95.5t-236 -30.5zM514 283q193 0 293 121t100 352q0 179 -81 279t-226 100h-178v-846q46 -6 92 -6z" />
    <glyph glyph-name="E" unicode="E" horiz-adv-x="1146" 
d="M94 0v1434h979v-299h-651v-246h592v-293h-592v-297h651v-299h-979z" />
    <glyph glyph-name="F" unicode="F" horiz-adv-x="1097" 
d="M94 0v1434h969v-299h-641v-267h579v-293h-579v-575h-328z" />
    <glyph glyph-name="G" unicode="G" horiz-adv-x="1308" 
d="M1227 96q-211 -125 -477 -125q-307 0 -486.5 202.5t-179.5 537.5q0 334 197.5 533.5t531.5 199.5q229 0 395 -107l-80 -280q-135 80 -276 80q-93 0 -170.5 -25.5t-137.5 -76.5t-94 -133.5t-34 -190.5q0 -211 105 -321.5t270 -110.5q57 0 116 16v493h320v-692z" />
    <glyph glyph-name="H" unicode="H" horiz-adv-x="1310" 
d="M94 0v1434h328v-543h467v543h328v-1434h-328v592h-467v-592h-328z" />
    <glyph glyph-name="I" unicode="I" horiz-adv-x="561" 
d="M117 0v1434h327v-1434h-327z" />
    <glyph glyph-name="J" unicode="J" horiz-adv-x="1028" 
d="M414 -29q-114 0 -220.5 38t-185.5 120l250 207q59 -68 156 -68q202 0 202 267v899h328v-916q0 -122 -32 -218.5t-83.5 -157t-122 -100t-142.5 -55.5t-150 -16z" />
    <glyph glyph-name="K" unicode="K" horiz-adv-x="1257" 
d="M866 0l-448 674v-674h-324v1434h324v-615l426 615h364l-463 -666l502 -768h-381z" />
    <glyph glyph-name="L" unicode="L" horiz-adv-x="983" 
d="M94 0v1434h328v-1135h539v-299h-867z" />
    <glyph glyph-name="M" unicode="M" horiz-adv-x="1931" 
d="M784 367l-227 659l-192 -1026h-324l285 1434h303q45 0 67 -18t39 -70l238 -678l282 766h299q44 0 66 -19.5t29 -68.5l241 -1346h-315l-178 1032l-271 -735h-247q-38 0 -60 16t-35 54z" />
    <glyph glyph-name="N" unicode="N" horiz-adv-x="1323" 
d="M879 84l-473 788l8 -872h-320v1434h203q50 0 81.5 -15.5t55.5 -54.5l486 -805l-7 875h316v-1434h-191q-59 0 -95 19t-64 65z" />
    <glyph glyph-name="O" unicode="O" horiz-adv-x="1388" 
d="M692 -29q-123 0 -224.5 40t-172 109t-119.5 164t-71.5 204t-22.5 229q0 117 22.5 223.5t71.5 199t119.5 160t172 106t224.5 38.5q153 0 273 -59t193.5 -161t111 -230.5t37.5 -276.5q0 -152 -37.5 -284t-111 -236.5t-193.5 -165t-273 -60.5zM692 268q129 0 206 113t77 336
q0 214 -77 322t-206 108q-127 0 -202.5 -107.5t-75.5 -322.5q0 -223 75.5 -336t202.5 -113z" />
    <glyph glyph-name="P" unicode="P" horiz-adv-x="1187" 
d="M537 651q66 0 116.5 18.5t79.5 47t47.5 67t24.5 73t6 71.5q0 35 -10 68.5t-32 66t-65.5 52.5t-103.5 20h-178v-469q61 -15 115 -15zM567 360q-62 0 -145 17v-377h-328v1434h498q123 0 221.5 -27.5t163 -74.5t108 -112.5t62 -137t18.5 -152.5q0 -114 -38 -215.5
t-110 -181.5t-188 -126.5t-262 -46.5z" />
    <glyph glyph-name="Q" unicode="Q" horiz-adv-x="1388" 
d="M1247 -188q-353 0 -623 96t-397 291q-145 203 -145 518q0 117 22.5 223.5t71.5 199t119.5 160t172 106t224.5 38.5q153 0 273 -59t193.5 -161t111 -230.5t37.5 -276.5q0 -120 -29 -226t-87 -194t-153 -147t-219 -78q182 -37 457 -37zM692 268q129 0 206 113t77 336
q0 214 -77 322t-206 108q-127 0 -202.5 -107.5t-75.5 -322.5q0 -223 75.5 -336t202.5 -113z" />
    <glyph glyph-name="R" unicode="R" horiz-adv-x="1245" 
d="M537 664q66 0 116.5 18.5t79.5 46t47.5 65t24.5 71t6 69.5q0 34 -10 66.5t-32 64t-65.5 51t-103.5 19.5h-178v-457q57 -14 115 -14zM541 373q-47 0 -119 14v-387h-328v1434h498q123 0 221.5 -27.5t163 -74t108 -111t62 -135.5t18.5 -150q0 -146 -57 -268t-174 -197
l287 -471h-351l-225 379q-49 -6 -104 -6z" />
    <glyph glyph-name="S" unicode="S" horiz-adv-x="1167" 
d="M506 -25q-274 0 -449 109l107 268q166 -88 336 -88q270 0 270 150q0 63 -47.5 95.5t-159.5 65.5l-137 41q-172 51 -255 146.5t-83 241.5q0 197 156 317.5t409 120.5q101 0 187.5 -14t130.5 -28.5t96 -37.5l-80 -277q-162 68 -317 68q-125 0 -190.5 -36.5t-65.5 -102.5
q0 -49 39.5 -81t124.5 -56l118 -33q195 -54 296.5 -149.5t101.5 -252.5q0 -100 -37.5 -184.5t-109.5 -148t-185 -99t-256 -35.5z" />
    <glyph glyph-name="T" unicode="T" horiz-adv-x="1130" 
d="M401 0v1126l-370 45v263h1069v-263l-371 -45v-1126h-328z" />
    <glyph glyph-name="U" unicode="U" horiz-adv-x="1310" 
d="M655 -29q-84 0 -161.5 16.5t-153.5 58t-131.5 104t-90 162.5t-34.5 227v895h328v-879q0 -153 66 -220t177 -67t177.5 67t66.5 220v879h328v-895q0 -127 -34.5 -227t-90.5 -162.5t-132 -104t-153.5 -58t-161.5 -16.5z" />
    <glyph glyph-name="V" unicode="V" horiz-adv-x="1310" 
d="M842 -8h-242q-127 0 -164 123l-395 1319h195q79 0 121 -30.5t61 -100.5l237 -930l271 1061h344z" />
    <glyph glyph-name="W" unicode="W" horiz-adv-x="2060" 
d="M1239 98l-201 996l-235 -1094h-348q-57 0 -84.5 20.5t-34.5 71.5l-244 1342h238q52 0 78 -24t34 -75l160 -1032l229 1131h297q74 0 105.5 -26t42.5 -89l182 -987l178 1102h332l-268 -1434h-344q-56 0 -82 22.5t-35 75.5z" />
    <glyph glyph-name="X" unicode="X" horiz-adv-x="1282" 
d="M846 76l-203 383l-248 -459h-358l428 733l-404 701h271q42 0 70 -18.5t49 -55.5l190 -344l227 418h351l-402 -699l426 -735h-272q-45 0 -74 18t-51 58z" />
    <glyph glyph-name="Y" unicode="Y" horiz-adv-x="1275" 
d="M469 0v522l-438 912h260q115 0 158 -111l186 -485l235 596h375l-444 -912v-522h-332z" />
    <glyph glyph-name="Z" unicode="Z" horiz-adv-x="1163" 
d="M1102 0h-1041v61q0 95 11.5 142t50.5 106l547 826h-547v299h948v-78q0 -76 -9.5 -120t-35.5 -85l-555 -852h631v-299z" />
    <glyph glyph-name="bracketleft" unicode="[" horiz-adv-x="720" 
d="M639 -131v-246h-475v2128h475v-246h-147v-1636h147z" />
    <glyph glyph-name="backslash" unicode="\" horiz-adv-x="1241" 
d="M721 -240l-528 1856h327l529 -1856h-328z" />
    <glyph glyph-name="bracketright" unicode="]" horiz-adv-x="720" 
d="M557 -377h-475v246h147v1636h-147v246h475v-2128z" />
    <glyph glyph-name="underscore" unicode="_" horiz-adv-x="1290" 
d="M164 -299v299h962v-299h-962z" />
    <glyph glyph-name="grave" unicode="`" horiz-adv-x="862" 
d="M432 1184l-227 352h237q79 0 105 -66l110 -286h-225z" />
    <glyph glyph-name="a" unicode="a" horiz-adv-x="1050" 
d="M522 197q93 0 144 51q-3 90 -47 147.5t-115 57.5q-53 0 -92 -35t-39 -92t41.5 -93t107.5 -36zM702 0l-24 117q-33 -62 -107 -104t-174 -42q-159 0 -251.5 96.5t-92.5 235.5q0 162 105 259t266 97q164 0 242 -104v14q0 102 -49.5 158.5t-172.5 56.5q-131 0 -260 -84
l-63 269q68 39 172.5 61.5t195.5 22.5q467 0 467 -447v-606h-254z" />
    <glyph glyph-name="b" unicode="b" horiz-adv-x="1148" 
d="M543 -29q-243 0 -439 103v1462h314v-596q98 113 264 113q183 0 293 -134t110 -378q0 -290 -142 -430t-400 -140zM563 236q199 0 199 288q0 125 -42 192.5t-118 67.5t-123 -68.5t-47 -199.5v-252q40 -28 131 -28z" />
    <glyph glyph-name="c" unicode="c" horiz-adv-x="913" 
d="M606 -29q-256 0 -399.5 147t-143.5 394t143.5 394t399.5 147q150 0 254 -58l-59 -266q-80 41 -172 41q-107 0 -174.5 -65t-67.5 -193t67.5 -193t174.5 -65q88 0 172 43l59 -268q-104 -58 -254 -58z" />
    <glyph glyph-name="d" unicode="d" horiz-adv-x="1148" 
d="M565 238q64 0 108 45.5t44 122.5v288q-16 34 -57 62t-97 28q-82 0 -129 -72t-47 -196q0 -278 178 -278zM737 141q-40 -73 -120 -121.5t-171 -48.5q-176 0 -279.5 135.5t-103.5 401.5q0 251 117 398t320 147q137 0 231 -80v563h313v-1536h-280z" />
    <glyph glyph-name="e" unicode="e" horiz-adv-x="1067" 
d="M545 791q-113 0 -142 -146h273q-5 61 -38 103.5t-93 42.5zM993 70q-180 -99 -387 -99q-136 0 -241.5 43t-170.5 118t-98 171.5t-33 208.5q0 88 17.5 166.5t55.5 147.5t93 119t136 79t180 29q118 0 205.5 -40t139.5 -113.5t76.5 -168.5t24.5 -213v-65h-598q9 -120 64 -171
t180 -51q160 0 283 74z" />
    <glyph glyph-name="f" unicode="f" horiz-adv-x="823" 
d="M199 0v778l-166 35v211h166v180q0 183 104.5 272t325.5 89q41 0 98 -9t94 -26l-33 -258q-50 20 -126 20q-60 0 -98 -30t-38 -97v-141h265v-211l-265 -47v-766h-327z" />
    <glyph glyph-name="g" unicode="g" horiz-adv-x="1130" 
d="M477 -532q-209 -3 -334 73.5t-125 216.5q0 91 60 162.5t170 104.5q-76 47 -76 120q0 145 217 205q-140 16 -233 103.5t-93 224.5q0 161 128.5 268t332.5 107q126 0 221 -39l308 65l45 -198l-62 -15l-104 -4q53 -83 53 -184q0 -81 -30 -146t-86 -111t-126 -78t-161 -54
l-41 -10q-43 -10 -43 -41q0 -28 41 -35l151 -31q185 -37 269.5 -105.5t84.5 -187.5q0 -81 -31 -149t-84.5 -115.5t-126 -80.5t-154.5 -49t-171 -17zM522 512q74 0 112 41t38 111q0 68 -40 109.5t-110 41.5t-109.5 -41.5t-39.5 -109.5q0 -69 40 -110.5t109 -41.5zM537 -283
q76 0 126 30.5t50 92.5q0 40 -35 68.5t-103 38.5l-172 26q-77 -39 -77 -118q0 -66 58.5 -102t152.5 -36z" />
    <glyph glyph-name="h" unicode="h" horiz-adv-x="1150" 
d="M432 618v-618h-328v1536h314v-621q47 62 120 100t164 38q94 0 164 -29.5t111 -83t60.5 -122t19.5 -154.5v-664h-328v618q0 84 -41 126t-106 42q-64 0 -107 -42.5t-43 -125.5z" />
    <glyph glyph-name="i" unicode="i" horiz-adv-x="557" 
d="M279 1149q-78 0 -130.5 53t-52.5 131q0 77 52.5 130t130.5 53q76 0 129 -53t53 -130q0 -78 -52.5 -131t-129.5 -53zM115 0v1024h327v-1024h-327z" />
    <glyph glyph-name="j" unicode="j" horiz-adv-x="557" 
d="M279 1149q-78 0 -130.5 53t-52.5 131q0 77 52.5 130t130.5 53q76 0 129 -53t53 -130q0 -78 -52.5 -131t-129.5 -53zM53 -516q-99 0 -178 29l33 251q37 -16 80 -16q70 0 98.5 36.5t28.5 111.5v1128h327v-1155q0 -197 -90.5 -291t-298.5 -94z" />
    <glyph glyph-name="k" unicode="k" horiz-adv-x="1138" 
d="M385 68q-47 -68 -133 -68h-148v1536h310v-1047l338 535h319l-313 -438l348 -586h-311l-207 350z" />
    <glyph glyph-name="l" unicode="l" horiz-adv-x="604" 
d="M449 -16q-177 0 -255.5 76.5t-78.5 234.5v1241h325v-1221q0 -67 72 -67q36 0 49 8l31 -246q-63 -26 -143 -26z" />
    <glyph glyph-name="m" unicode="m" horiz-adv-x="1769" 
d="M432 618v-618h-328v1024h189q31 0 45.5 -10t21.5 -37l21 -76q51 67 132.5 109.5t182.5 42.5q222 0 308 -156q51 69 132.5 112.5t182.5 43.5q95 0 165 -29t111 -83t60.5 -122.5t19.5 -154.5v-664h-327v618q0 84 -40 126t-104 42q-62 0 -103.5 -42.5t-41.5 -125.5v-618
h-330v618q0 84 -41 126t-106 42q-64 0 -107 -42.5t-43 -125.5z" />
    <glyph glyph-name="n" unicode="n" horiz-adv-x="1150" 
d="M432 618v-618h-328v1024h189q31 0 45.5 -10t21.5 -37l21 -76q51 67 132.5 109.5t182.5 42.5q96 0 166.5 -29.5t112.5 -83t62 -122t20 -154.5v-664h-328v618q0 84 -41 126t-106 42q-64 0 -107 -42.5t-43 -125.5z" />
    <glyph glyph-name="o" unicode="o" horiz-adv-x="1089" 
d="M545 -29q-99 0 -180 29t-136 79t-93 119t-55.5 147.5t-17.5 166.5t17.5 166.5t55.5 147.5t93 119t136 79t180 29q123 0 217 -43.5t150.5 -119.5t85 -171.5t28.5 -206.5t-28.5 -206.5t-85 -171.5t-150.5 -119.5t-217 -43.5zM545 233q153 0 153 279t-153 279
q-154 0 -154 -279t154 -279z" />
    <glyph glyph-name="p" unicode="p" horiz-adv-x="1148" 
d="M565 236q197 0 197 288q0 125 -42 192.5t-118 67.5t-123 -68.5t-47 -199.5v-237q61 -43 133 -43zM432 37v-549h-328v1536h189q31 0 45.5 -10t21.5 -37l23 -84q45 74 123 117t176 43q183 0 293 -134t110 -378q0 -278 -116.5 -424t-319.5 -146q-133 0 -217 66z" />
    <glyph glyph-name="q" unicode="q" horiz-adv-x="1148" 
d="M1044 -512h-327v604q-35 -48 -111.5 -84.5t-159.5 -36.5q-176 0 -279.5 135.5t-103.5 401.5q0 251 117 398t320 147q159 0 258 -107l30 78h256v-1536zM565 238q64 0 108 45.5t44 122.5v288q-16 34 -57 62t-97 28q-82 0 -129 -72t-47 -196q0 -278 178 -278z" />
    <glyph glyph-name="r" unicode="r" horiz-adv-x="786" 
d="M432 541v-541h-328v1024h189q31 0 45.5 -10t21.5 -37l25 -92q39 76 113 122t174 46q48 0 82 -17l-72 -301q-43 19 -86 19q-72 0 -118 -52.5t-46 -160.5z" />
    <glyph glyph-name="s" unicode="s" horiz-adv-x="987" 
d="M446 -27q-195 0 -378 80l79 248q176 -65 295 -65q148 0 148 67q0 35 -26 51t-77 23l-28 4q-194 27 -284.5 106.5t-90.5 212.5q0 47 15 94.5t49.5 94t84.5 82.5t126.5 58t168.5 22q216 0 342 -58l-61 -254q-149 49 -250 49q-81 0 -117 -15.5t-36 -53.5q0 -33 24.5 -49.5
t73.5 -22.5l28 -4q379 -53 379 -313q0 -74 -28.5 -137.5t-84.5 -113t-146.5 -78t-205.5 -28.5z" />
    <glyph glyph-name="t" unicode="t" horiz-adv-x="823" 
d="M578 -14q-208 0 -299 94t-91 291v401l-165 41v211h165v293h328v-293h254v-227l-254 -37v-363q0 -74 28.5 -110.5t98.5 -36.5q43 0 80 16l33 -252q-76 -28 -178 -28z" />
    <glyph glyph-name="u" unicode="u" horiz-adv-x="1150" 
d="M799 0l-23 158q-45 -80 -132 -133.5t-198 -53.5q-90 0 -157.5 29.5t-107 83t-58.5 122t-19 154.5v664h328v-618q0 -84 41 -126t107 -42q63 0 106 42.5t43 125.5v618h328v-1024h-258z" />
    <glyph glyph-name="v" unicode="v" horiz-adv-x="1089" 
d="M686 -16h-190q-54 0 -78 16.5t-43 65.5l-352 958h249q51 0 77 -18.5t38 -61.5l158 -555l180 635h342z" />
    <glyph glyph-name="w" unicode="w" horiz-adv-x="1486" 
d="M881 80l-127 582l-150 -678h-196q-60 0 -87 19t-40 73l-258 948h239q40 0 61.5 -17.5t28.5 -56.5l111 -581l149 655h213q37 0 56 -14.5t28 -48.5l140 -611l141 674h274l-262 -1040h-192q-60 0 -88.5 20t-40.5 76z" />
    <glyph glyph-name="x" unicode="x" horiz-adv-x="1077" 
d="M659 70l-118 206l-162 -276h-363l349 520l-326 504h280q45 0 68.5 -13.5t42.5 -47.5l109 -193l143 254h356l-321 -500l344 -524h-279q-82 0 -123 70z" />
    <glyph glyph-name="y" unicode="y" horiz-adv-x="1130" 
d="M524 -522q-108 0 -206.5 33.5t-151.5 82.5l61 250q126 -98 267 -98q136 0 189.5 67.5t53.5 188.5v125q-47 -69 -126 -112.5t-175 -43.5q-172 0 -252 105.5t-80 283.5v664h328v-618q0 -84 38 -126t99 -42q59 0 99.5 42.5t40.5 125.5v618h327v-1042q0 -114 -28 -204
t-87.5 -158.5t-159.5 -105t-237 -36.5z" />
    <glyph glyph-name="z" unicode="z" horiz-adv-x="968" 
d="M905 0h-842v84q0 92 15 138.5t63 103.5l346 413l-378 -4v289h772v-84q0 -86 -16.5 -137.5t-61.5 -106.5l-346 -411l448 4v-289z" />
    <glyph glyph-name="braceleft" unicode="{" horiz-adv-x="829" 
d="M586 -387q-77 0 -142 20.5t-118 63t-83 117t-30 174.5q0 72 23.5 216t23.5 210q0 71 -35 113t-100 42h-23v228h23q65 0 100 42t35 113q0 66 -23.5 210t-23.5 216q0 101 30 175.5t83 117t118 62.5t142 20q99 0 162 -18v-232q-31 0 -59 -4.5t-57 -17.5t-50 -32.5t-34 -52.5
t-13 -75q0 -68 20 -190.5t20 -200.5q0 -101 -40 -166t-93 -80v-4q53 -15 93 -79.5t40 -162.5q0 -79 -20 -201.5t-20 -191.5q0 -42 13 -75t34 -52.5t50 -32.5t57 -17.5t59 -4.5v-232q-79 -18 -162 -18z" />
    <glyph glyph-name="bar" unicode="|" horiz-adv-x="1351" 
d="M512 -240v1856h328v-1856h-328z" />
    <glyph glyph-name="braceright" unicode="}" horiz-adv-x="829" 
d="M244 -387q-83 0 -162 18v232q31 0 59 4.5t57 17.5t50 32.5t34 52.5t13 75q0 69 -20.5 191.5t-20.5 201.5q0 98 40 162.5t93 79.5v4q-53 15 -93 80t-40 166q0 78 20.5 200.5t20.5 190.5q0 42 -13 75t-34 52.5t-50 32.5t-57 17.5t-59 4.5v232q63 18 162 18q77 0 141.5 -20
t117.5 -62.5t83 -117t30 -175.5q0 -72 -23.5 -216t-23.5 -210q0 -71 35.5 -113t100.5 -42h22v-228h-22q-65 0 -100.5 -42t-35.5 -113q0 -66 23.5 -210t23.5 -216q0 -100 -30 -174.5t-83 -117t-117.5 -63t-141.5 -20.5z" />
    <glyph glyph-name="exclamdown" unicode="&#xa1;" horiz-adv-x="532" 
d="M266 635q-83 0 -138.5 55.5t-55.5 138.5q0 82 55.5 138.5t138.5 56.5q82 0 138.5 -56.5t56.5 -138.5q0 -83 -56.5 -138.5t-138.5 -55.5zM94 -512l78 1038h188l78 -1038h-344z" />
    <glyph glyph-name="cent" unicode="&#xa2;" horiz-adv-x="991" 
d="M848 225q-81 -46 -197 -55v-199h-225v215q-180 45 -277.5 183.5t-97.5 339.5t97.5 339t277.5 183v213h225v-197q116 -9 197 -55l-60 -266q-80 41 -172 41q-106 0 -173.5 -64.5t-67.5 -193.5t67.5 -193.5t173.5 -64.5q88 0 172 43z" />
    <glyph glyph-name="sterling" unicode="&#xa3;" horiz-adv-x="1212" 
d="M1141 297v-297h-1059v297h88q132 0 204 45.5t72 132.5v31h-329v221h129q-76 69 -117 140t-41 159q0 187 153 302.5t396 115.5q226 0 453 -105l-80 -262q-74 40 -164 63t-170 23q-120 0 -186 -51t-66 -129q0 -80 88 -160l106 -96h375v-221h-256v-23q0 -110 -82 -186h486z
" />
    <glyph glyph-name="currency" unicode="&#xa4;" horiz-adv-x="1398" 
d="M1032 117l-117 116q-101 -61 -217 -61q-117 0 -215 61l-116 -116l-154 155l115 115q-62 103 -62 215q0 116 62 219l-115 115l154 156l116 -117q100 63 219 63q115 0 216 -61l114 115l156 -154l-117 -117q62 -100 62 -215q0 -116 -62 -219l117 -117zM696 434q72 0 123 51
t51 123t-49 121q-44 47 -114 47q-76 0 -127 -51q-52 -52 -52 -123q0 -69 50 -119q49 -49 118 -49z" />
    <glyph glyph-name="yen" unicode="&#xa5;" horiz-adv-x="1275" 
d="M1061 135h-260v-135h-332v135h-256v184h256v89h-256v184h256v61l-438 781h375l229 -476l235 476h375l-444 -781v-61h260v-184h-260v-89h260v-184z" />
    <glyph glyph-name="brokenbar" unicode="&#xa6;" horiz-adv-x="1351" 
d="M512 809v807h328v-807h-328zM512 -240v807h328v-807h-328z" />
    <glyph glyph-name="section" unicode="&#xa7;" horiz-adv-x="1409" 
d="M737 379q121 -98 183 -209q36 45 36 111q0 74 -40 136t-115 122l-187 149q-59 48 -104 111q-53 -35 -53 -105q0 -87 80 -153zM549 -520q-80 0 -156 29.5t-123 76.5l68 256q30 -37 80.5 -61.5t111.5 -24.5q70 0 108 46t38 110q0 133 -156 258l-186 149q-191 153 -191 361
q0 116 75.5 217.5t213.5 140.5v17q0 72 27 140t78.5 124t135.5 90.5t187 34.5q79 0 159.5 -26.5t131.5 -76.5l-129 -221q-68 72 -150 72q-60 0 -97.5 -37.5t-37.5 -91.5q0 -88 80 -154l201 -161q248 -201 248 -445q0 -90 -29 -171.5t-96.5 -150t-165.5 -98.5
q-8 -78 -37 -148t-79.5 -128.5t-130 -92.5t-179.5 -34z" />
    <glyph glyph-name="dieresis" unicode="&#xa8;" horiz-adv-x="1163" 
d="M793 1147q-71 0 -118.5 49.5t-47.5 124.5q0 74 48 125t118 51q69 0 117 -51t48 -125t-48 -124t-117 -50zM371 1147q-71 0 -118.5 49.5t-47.5 124.5q0 74 48 125t118 51q69 0 117.5 -51.5t48.5 -124.5q0 -74 -48 -124t-118 -50z" />
    <glyph glyph-name="copyright" unicode="&#xa9;" horiz-adv-x="1755" 
d="M877 -39q-163 0 -307 58t-246.5 157.5t-162 239.5t-59.5 299q0 212 101 385t278.5 271.5t395.5 98.5q164 0 308 -58t247 -158t162 -240t59 -299t-59 -299t-162 -240t-247 -157.5t-308 -57.5zM877 166q156 0 281.5 70.5t196 196.5t70.5 282q0 239 -155 395t-393 156
q-116 0 -218 -41.5t-174 -114t-113.5 -175t-41.5 -220.5q0 -238 155.5 -393.5t391.5 -155.5zM891 299q-190 0 -300 113.5t-110 306.5q0 186 110.5 297.5t297.5 111.5q128 0 207 -47l-49 -168q-64 33 -132 33q-98 0 -159.5 -57t-61.5 -170q0 -120 62 -179t162 -59
q59 0 131 35l49 -170q-83 -47 -207 -47z" />
    <glyph glyph-name="ordfeminine" unicode="&#xaa;" horiz-adv-x="761" 
d="M385 1022q47 0 78 25v2q-4 59 -33.5 96t-71.5 37q-29 0 -50 -20.5t-21 -55.5q0 -36 28 -60t70 -24zM496 870l-19 80q-24 -43 -74.5 -71.5t-119.5 -28.5q-112 0 -176 68.5t-64 166.5q0 111 73.5 176.5t186.5 65.5q112 0 164 -74q-2 76 -34.5 116t-113.5 40q-93 0 -182 -59
l-47 198q49 29 124 44.5t140 15.5q336 0 336 -320v-418h-194zM82 512v227h604v-227h-604z" />
    <glyph glyph-name="guillemotleft" unicode="&#xab;" horiz-adv-x="1265" 
d="M426 66l-344 409v14l344 410h330l-348 -416l348 -417h-330zM874 66l-344 409v14l344 410h330l-348 -416l348 -417h-330z" />
    <glyph glyph-name="registered" unicode="&#xae;" horiz-adv-x="1193" 
d="M596 485q-215 0 -359.5 140.5t-144.5 349.5q0 104 38.5 195t105.5 156t160.5 102.5t199.5 37.5q217 0 361.5 -140t144.5 -351q0 -209 -144.5 -349.5t-361.5 -140.5zM596 618q155 0 255.5 101t100.5 256q0 157 -100.5 257.5t-255.5 100.5q-154 0 -254 -101t-100 -257
q0 -155 100 -256t254 -101zM582 965q29 0 49.5 9.5t29.5 25t13 30.5t4 31q0 28 -17 50t-57 22h-63v-162q21 -6 41 -6zM584 860q-15 0 -43 4v-137h-117v514h176q106 0 155.5 -51.5t49.5 -128.5q0 -113 -82 -166l102 -168h-125l-79 135q-12 -2 -37 -2z" />
    <glyph glyph-name="degree" unicode="&#xb0;" 
d="M344 1004q-48 0 -96.5 16.5t-91 48.5t-69 87t-26.5 124q0 70 26.5 125t69 86.5t91 48t96.5 16.5t96.5 -16.5t91 -48t69 -86.5t26.5 -125q0 -69 -26.5 -124t-69 -87t-91 -48.5t-96.5 -16.5zM344 1167q46 0 78.5 30.5t32.5 82.5t-32.5 82.5t-78.5 30.5t-78.5 -30.5
t-32.5 -82.5t32.5 -82.5t78.5 -30.5z" />
    <glyph glyph-name="plusminus" unicode="&#xb1;" horiz-adv-x="1290" 
d="M1030 776h-262v-272h-244v272h-264v211h264v287h244v-287h262v-211zM260 190v216h770v-216h-770z" />
    <glyph glyph-name="acute" unicode="&#xb4;" horiz-adv-x="923" 
d="M205 1184l186 352h328l-277 -352h-237z" />
    <glyph glyph-name="paragraph" unicode="&#xb6;" horiz-adv-x="1716" 
d="M1071 -512v1741h-141v-1741h-266v1004h-39q-230 0 -376.5 126t-146.5 336q0 105 32 191t97 151.5t172.5 101.5t249.5 36h858v-205h-174v-1741h-266z" />
    <glyph glyph-name="periodcentered" unicode="&#xb7;" horiz-adv-x="552" 
d="M276 401q-83 0 -138.5 56t-55.5 139q0 82 55.5 138.5t138.5 56.5q82 0 138.5 -56.5t56.5 -138.5q0 -83 -56.5 -139t-138.5 -56z" />
    <glyph glyph-name="cedilla" unicode="&#xb8;" horiz-adv-x="937" 
d="M465 -537q-53 0 -102.5 13t-82.5 31.5t-58 36.5t-36 31l-12 13l76 148q3 -4 9 -10.5t26 -23t42 -29t56 -23t68 -10.5q51 0 78.5 21t27.5 54t-25 52.5t-67 19.5q-29 0 -53 -9.5t-34 -19.5l-9 -10l-88 45l157 297l154 -49l-72 -135h17q94 0 159.5 -51.5t65.5 -153.5
q0 -108 -81.5 -173t-215.5 -65z" />
    <glyph glyph-name="ordmasculine" unicode="&#xba;" horiz-adv-x="784" 
d="M393 850q-88 0 -156 30.5t-108 84t-60 120t-20 144.5q0 77 20 143.5t60 120t108 84.5t156 31t155 -31t107 -84.5t60 -120t20 -143.5q0 -78 -20 -144.5t-60 -120t-107 -84t-155 -30.5zM393 1051q92 0 92 178t-92 178t-92 -178t92 -178zM94 512v227h592v-227h-592z" />
    <glyph glyph-name="guillemotright" unicode="&#xbb;" horiz-adv-x="1265" 
d="M82 66l348 417l-348 416h330l344 -410v-14l-344 -409h-330zM530 66l349 417l-349 416h330l344 -410v-14l-344 -409h-330z" />
    <glyph glyph-name="onequarter" unicode="&#xbc;" horiz-adv-x="1548" 
d="M195 0l1048 1434h262l-1048 -1434h-262zM608 690h-526v191h158v311l-148 -66v203l172 84q69 29 131 29h56v-561h157v-191zM1214 311v267l-151 -267h151zM1491 145h-82v-145h-195v145h-317v158l270 440h242v-432h82v-166z" />
    <glyph glyph-name="onehalf" unicode="&#xbd;" horiz-adv-x="1761" 
d="M225 0l1049 1434h262l-1049 -1434h-262zM608 690h-526v191h158v311l-148 -66v203l172 84q69 29 131 29h56v-561h157v-191zM1163 0v160q0 17 3 33.5t6.5 29t13 26.5t14 22.5t19 21.5t19.5 18t23 17.5t21.5 15t24.5 15.5t22 14l51 30q42 26 60 48t18 51q0 30 -26.5 49.5
t-69.5 19.5q-82 0 -164 -45l-51 166q127 58 239 58q128 0 207.5 -59t79.5 -159q0 -140 -160 -241l-51 -31q-63 -43 -63 -55v-15h280v-190h-516z" />
    <glyph glyph-name="threequarters" unicode="&#xbe;" horiz-adv-x="1435" 
d="M82 0l1048 1434h263l-1049 -1434h-262zM283 674q-124 0 -222 43l64 176q71 -29 141 -29q84 0 84 62q0 27 -22.5 42t-63.5 15h-94v172h90q68 0 68 53q0 56 -74 56q-55 0 -143 -31l-48 166q35 17 101.5 29t122.5 12q128 0 192 -52.5t64 -138.5q0 -50 -25.5 -99t-56.5 -73
q41 -13 72.5 -57.5t31.5 -99.5q0 -111 -70 -178.5t-212 -67.5zM1098 311v267l-152 -267h152zM1374 145h-82v-145h-194v145h-318v158l271 440h241v-432h82v-166z" />
    <glyph glyph-name="questiondown" unicode="&#xbf;" horiz-adv-x="958" 
d="M668 664q-82 0 -138.5 55.5t-56.5 138.5q0 82 56.5 138.5t138.5 56.5q83 0 138.5 -56.5t55.5 -138.5q0 -83 -55.5 -138.5t-138.5 -55.5zM559 -522q-125 0 -222.5 32.5t-156.5 88.5t-89 125.5t-30 148.5q0 105 39.5 188.5t109 137t155.5 84.5t188 41l10 231h215l21 -422
q-82 0 -151.5 -11t-131.5 -34.5t-97.5 -68t-35.5 -105.5q0 -75 54 -121.5t169 -46.5q129 0 258 84l64 -268q-68 -39 -173 -61.5t-196 -22.5z" />
    <glyph glyph-name="Agrave" unicode="&#xc0;" horiz-adv-x="1312" 
d="M584 1511l-234 258h246q77 0 113 -65l110 -193h-235zM778 575l-123 494l-123 -494h246zM922 0l-78 315h-377l-78 -315h-348l426 1434h240q72 0 112 -29.5t62 -101.5l391 -1303h-350z" />
    <glyph glyph-name="Aacute" unicode="&#xc1;" horiz-adv-x="1312" 
d="M489 1524l187 250h336l-281 -250h-242zM778 575l-123 494l-123 -494h246zM922 0l-78 315h-377l-78 -315h-348l426 1434h240q72 0 112 -29.5t62 -101.5l391 -1303h-350z" />
    <glyph glyph-name="Acircumflex" unicode="&#xc2;" horiz-adv-x="1312" 
d="M760 1524l-94 114l-95 -114h-286l231 252h207q42 0 70.5 -12t58.5 -42l197 -198h-289zM778 575l-123 494l-123 -494h246zM922 0l-78 315h-377l-78 -315h-348l426 1434h240q72 0 112 -29.5t62 -101.5l391 -1303h-350z" />
    <glyph glyph-name="Atilde" unicode="&#xc3;" horiz-adv-x="1312" 
d="M315 1503q-9 11 -17.5 39.5t-8.5 63.5q0 83 56 143.5t151 60.5q51 0 94.5 -15t68 -33t57.5 -33t66 -15q39 0 59.5 35t20.5 70h146q18 -41 18 -95q0 -98 -61.5 -166.5t-149.5 -68.5q-53 0 -95.5 14.5t-66 32.5t-53.5 32.5t-61 14.5q-38 0 -57 -25.5t-19 -54.5h-148z
M778 575l-123 494l-123 -494h246zM922 0l-78 315h-377l-78 -315h-348l426 1434h240q72 0 112 -29.5t62 -101.5l391 -1303h-350z" />
    <glyph glyph-name="Adieresis" unicode="&#xc4;" horiz-adv-x="1312" 
d="M877 1487q-71 0 -118.5 49.5t-47.5 124.5q0 74 48 125t118 51q69 0 117 -51t48 -125t-48 -124t-117 -50zM434 1487q-71 0 -118.5 49.5t-47.5 124.5q0 74 48 125t118 51q69 0 117.5 -51.5t48.5 -124.5q0 -74 -48 -124t-118 -50zM778 575l-123 494l-123 -494h246zM922 0
l-78 315h-377l-78 -315h-348l426 1434h240q72 0 112 -29.5t62 -101.5l391 -1303h-350z" />
    <glyph glyph-name="AE" unicode="&#xc6;" horiz-adv-x="1910" 
d="M729 563h246v391zM20 0l955 1434h862v-299h-534v-246h475v-293h-475v-297h534v-299h-862v303h-410l-190 -303h-355z" />
    <glyph glyph-name="Ccedilla" unicode="&#xc7;" horiz-adv-x="1126" 
d="M629 -537q-53 0 -102.5 13t-82.5 31.5t-58 36.5t-36 31l-12 13l76 148q3 -4 9 -10.5t26 -23t41.5 -29t55.5 -23t68 -10.5q51 0 79 21t28 54t-25 52.5t-67 19.5q-29 0 -53.5 -9.5t-33.5 -19.5l-10 -10l-88 45l109 203q-222 60 -345.5 249.5t-123.5 471.5q0 331 179.5 529
t484.5 198q206 0 333 -84l-80 -283q-99 60 -215 60q-164 0 -267 -106t-103 -314q0 -112 29 -197.5t81 -137t118.5 -77.5t146.5 -26q111 0 215 63l79 -287q-130 -84 -335 -84h-31l-35 -65h16q94 0 160 -51.5t66 -153.5q0 -108 -81.5 -173t-215.5 -65z" />
    <glyph glyph-name="Egrave" unicode="&#xc8;" horiz-adv-x="1146" 
d="M500 1511l-234 258h246q77 0 113 -65l110 -193h-235zM94 0v1434h979v-299h-651v-246h592v-293h-592v-297h651v-299h-979z" />
    <glyph glyph-name="Eacute" unicode="&#xc9;" horiz-adv-x="1146" 
d="M406 1524l186 250h336l-281 -250h-241zM94 0v1434h979v-299h-651v-246h592v-293h-592v-297h651v-299h-979z" />
    <glyph glyph-name="Ecircumflex" unicode="&#xca;" horiz-adv-x="1146" 
d="M676 1524l-94 114l-95 -114h-286l231 252h207q42 0 70.5 -12t58.5 -42l197 -198h-289zM94 0v1434h979v-299h-651v-246h592v-293h-592v-297h651v-299h-979z" />
    <glyph glyph-name="Edieresis" unicode="&#xcb;" horiz-adv-x="1146" 
d="M793 1487q-71 0 -118.5 49.5t-47.5 124.5q0 74 48 125t118 51q69 0 117 -51t48 -125t-48 -124t-117 -50zM350 1487q-71 0 -118.5 49.5t-47.5 124.5q0 74 48 125t118 51q69 0 117.5 -51.5t48.5 -124.5q0 -74 -48 -124t-118 -50zM94 0v1434h979v-299h-651v-246h592v-293
h-592v-297h651v-299h-979z" />
    <glyph glyph-name="Igrave" unicode="&#xcc;" horiz-adv-x="561" 
d="M207 1511l-234 258h246q77 0 113 -65l110 -193h-235zM117 0v1434h327v-1434h-327z" />
    <glyph glyph-name="Iacute" unicode="&#xcd;" horiz-adv-x="561" 
d="M113 1524l186 250h336l-281 -250h-241zM117 0v1434h327v-1434h-327z" />
    <glyph glyph-name="Icircumflex" unicode="&#xce;" horiz-adv-x="561" 
d="M383 1524l-94 114l-94 -114h-287l231 252h207q42 0 70.5 -12t58.5 -42l197 -198h-289zM117 0v1434h327v-1434h-327z" />
    <glyph glyph-name="Idieresis" unicode="&#xcf;" horiz-adv-x="561" 
d="M500 1487q-71 0 -118.5 49.5t-47.5 124.5q0 74 48 125t118 51q69 0 117.5 -51.5t48.5 -124.5q0 -74 -48 -124t-118 -50zM57 1487q-71 0 -118.5 49.5t-47.5 124.5q0 74 48 125t118 51q69 0 117.5 -51.5t48.5 -124.5q0 -74 -48 -124t-118 -50zM117 0v1434h327v-1434h-327z
" />
    <glyph glyph-name="Ntilde" unicode="&#xd1;" horiz-adv-x="1323" 
d="M289 1503q-9 11 -18 40t-9 63q0 83 56 143.5t151 60.5q51 0 94.5 -15t68.5 -33t58 -33t66 -15q39 0 59.5 35t20.5 70h145q18 -41 18 -95q0 -98 -61.5 -166.5t-149.5 -68.5q-53 0 -95.5 14.5t-66 32.5t-53.5 32.5t-61 14.5q-38 0 -57 -25.5t-19 -54.5h-147zM879 84
l-473 788l8 -872h-320v1434h203q50 0 81.5 -15.5t55.5 -54.5l486 -805l-7 875h316v-1434h-191q-59 0 -95 19t-64 65z" />
    <glyph glyph-name="Ograve" unicode="&#xd2;" horiz-adv-x="1388" 
d="M621 1511l-234 258h246q76 0 112 -65l111 -193h-235zM692 -29q-123 0 -224.5 40t-172 109t-119.5 164t-71.5 204t-22.5 229q0 117 22.5 223.5t71.5 199t119.5 160t172 106t224.5 38.5q153 0 273 -59t193.5 -161t111 -230.5t37.5 -276.5q0 -152 -37.5 -284t-111 -236.5
t-193.5 -165t-273 -60.5zM692 268q129 0 206 113t77 336q0 214 -77 322t-206 108q-127 0 -202.5 -107.5t-75.5 -322.5q0 -223 75.5 -336t202.5 -113z" />
    <glyph glyph-name="Oacute" unicode="&#xd3;" horiz-adv-x="1388" 
d="M526 1524l187 250h336l-281 -250h-242zM692 -29q-123 0 -224.5 40t-172 109t-119.5 164t-71.5 204t-22.5 229q0 117 22.5 223.5t71.5 199t119.5 160t172 106t224.5 38.5q153 0 273 -59t193.5 -161t111 -230.5t37.5 -276.5q0 -152 -37.5 -284t-111 -236.5t-193.5 -165
t-273 -60.5zM692 268q129 0 206 113t77 336q0 214 -77 322t-206 108q-127 0 -202.5 -107.5t-75.5 -322.5q0 -223 75.5 -336t202.5 -113z" />
    <glyph glyph-name="Ocircumflex" unicode="&#xd4;" horiz-adv-x="1388" 
d="M797 1524l-95 114l-94 -114h-286l231 252h207q42 0 70.5 -12t58.5 -42l196 -198h-288zM692 -29q-123 0 -224.5 40t-172 109t-119.5 164t-71.5 204t-22.5 229q0 117 22.5 223.5t71.5 199t119.5 160t172 106t224.5 38.5q153 0 273 -59t193.5 -161t111 -230.5t37.5 -276.5
q0 -152 -37.5 -284t-111 -236.5t-193.5 -165t-273 -60.5zM692 268q129 0 206 113t77 336q0 214 -77 322t-206 108q-127 0 -202.5 -107.5t-75.5 -322.5q0 -223 75.5 -336t202.5 -113z" />
    <glyph glyph-name="Otilde" unicode="&#xd5;" horiz-adv-x="1388" 
d="M352 1503q-9 11 -17.5 39.5t-8.5 63.5q0 83 55.5 143.5t150.5 60.5q51 0 94.5 -15t68.5 -33t58 -33t66 -15q39 0 59.5 35t20.5 70h145q19 -44 19 -95q0 -98 -61.5 -166.5t-149.5 -68.5q-53 0 -96 14.5t-66 32.5t-53.5 32.5t-61.5 14.5q-38 0 -56.5 -25.5t-18.5 -54.5
h-148zM692 -29q-123 0 -224.5 40t-172 109t-119.5 164t-71.5 204t-22.5 229q0 117 22.5 223.5t71.5 199t119.5 160t172 106t224.5 38.5q153 0 273 -59t193.5 -161t111 -230.5t37.5 -276.5q0 -152 -37.5 -284t-111 -236.5t-193.5 -165t-273 -60.5zM692 268q129 0 206 113
t77 336q0 214 -77 322t-206 108q-127 0 -202.5 -107.5t-75.5 -322.5q0 -223 75.5 -336t202.5 -113z" />
    <glyph glyph-name="Odieresis" unicode="&#xd6;" horiz-adv-x="1388" 
d="M913 1487q-71 0 -118 49.5t-47 124.5q0 74 47.5 125t117.5 51q69 0 117.5 -51.5t48.5 -124.5q0 -74 -48 -124t-118 -50zM471 1487q-71 0 -118.5 49.5t-47.5 124.5q0 74 48 125t118 51q69 0 117.5 -51.5t48.5 -124.5q0 -74 -48 -124t-118 -50zM692 -29q-123 0 -224.5 40
t-172 109t-119.5 164t-71.5 204t-22.5 229q0 117 22.5 223.5t71.5 199t119.5 160t172 106t224.5 38.5q153 0 273 -59t193.5 -161t111 -230.5t37.5 -276.5q0 -152 -37.5 -284t-111 -236.5t-193.5 -165t-273 -60.5zM692 268q129 0 206 113t77 336q0 214 -77 322t-206 108
q-127 0 -202.5 -107.5t-75.5 -322.5q0 -223 75.5 -336t202.5 -113z" />
    <glyph glyph-name="multiply" unicode="&#xd7;" horiz-adv-x="1290" 
d="M881 186l-236 236l-235 -236l-211 211l235 236l-235 235l211 211l235 -235l236 235l211 -211l-236 -235l236 -236z" />
    <glyph glyph-name="Ugrave" unicode="&#xd9;" horiz-adv-x="1310" 
d="M582 1511l-234 258h246q77 0 113 -65l110 -193h-235zM655 -29q-84 0 -161.5 16.5t-153.5 58t-131.5 104t-90 162.5t-34.5 227v895h328v-879q0 -153 66 -220t177 -67t177.5 67t66.5 220v879h328v-895q0 -127 -34.5 -227t-90.5 -162.5t-132 -104t-153.5 -58t-161.5 -16.5z
" />
    <glyph glyph-name="Uacute" unicode="&#xda;" horiz-adv-x="1310" 
d="M487 1524l187 250h336l-281 -250h-242zM655 -29q-84 0 -161.5 16.5t-153.5 58t-131.5 104t-90 162.5t-34.5 227v895h328v-879q0 -153 66 -220t177 -67t177.5 67t66.5 220v879h328v-895q0 -127 -34.5 -227t-90.5 -162.5t-132 -104t-153.5 -58t-161.5 -16.5z" />
    <glyph glyph-name="Ucircumflex" unicode="&#xdb;" horiz-adv-x="1310" 
d="M758 1524l-94 114l-95 -114h-286l231 252h207q42 0 70.5 -12t58.5 -42l197 -198h-289zM655 -29q-84 0 -161.5 16.5t-153.5 58t-131.5 104t-90 162.5t-34.5 227v895h328v-879q0 -153 66 -220t177 -67t177.5 67t66.5 220v879h328v-895q0 -127 -34.5 -227t-90.5 -162.5
t-132 -104t-153.5 -58t-161.5 -16.5z" />
    <glyph glyph-name="Udieresis" unicode="&#xdc;" horiz-adv-x="1310" 
d="M874 1487q-71 0 -118 49.5t-47 124.5q0 74 47.5 125t117.5 51q69 0 117.5 -51.5t48.5 -124.5q0 -74 -48 -124t-118 -50zM432 1487q-71 0 -118.5 49.5t-47.5 124.5q0 74 48 125t118 51q69 0 117.5 -51.5t48.5 -124.5q0 -74 -48 -124t-118 -50zM655 -29q-84 0 -161.5 16.5
t-153.5 58t-131.5 104t-90 162.5t-34.5 227v895h328v-879q0 -153 66 -220t177 -67t177.5 67t66.5 220v879h328v-895q0 -127 -34.5 -227t-90.5 -162.5t-132 -104t-153.5 -58t-161.5 -16.5z" />
    <glyph glyph-name="germandbls" unicode="&#xdf;" horiz-adv-x="1355" 
d="M881 -29q-181 0 -342 64l71 250q147 -52 258 -52q56 0 88.5 22.5t32.5 59.5q0 35 -25.5 54.5t-82.5 38.5l-133 43q-86 28 -141.5 92.5t-55.5 154.5q0 83 41 150.5t106 114.5l82 59q82 59 82 131q0 55 -52 92t-122 37q-120 0 -191 -83.5t-71 -221.5v-977h-326v979
q0 134 48 243.5t129 179t184 107t217 37.5q113 0 208.5 -31t158.5 -82.5t98 -118.5t35 -140q0 -87 -39 -157.5t-101 -115.5l-84 -61q-24 -18 -38 -30.5t-26.5 -33t-12.5 -41.5q0 -59 79 -84l66 -20q153 -49 219 -128.5t66 -189.5q0 -147 -112 -244.5t-314 -97.5z" />
    <glyph glyph-name="agrave" unicode="&#xe0;" horiz-adv-x="1050" 
d="M471 1184l-227 352h237q79 0 105 -66l110 -286h-225zM522 197q93 0 144 51q-3 90 -47 147.5t-115 57.5q-53 0 -92 -35t-39 -92t41.5 -93t107.5 -36zM702 0l-24 117q-33 -62 -107 -104t-174 -42q-159 0 -251.5 96.5t-92.5 235.5q0 162 105 259t266 97q164 0 242 -104v14
q0 102 -49.5 158.5t-172.5 56.5q-131 0 -260 -84l-63 269q68 39 172.5 61.5t195.5 22.5q467 0 467 -447v-606h-254z" />
    <glyph glyph-name="aacute" unicode="&#xe1;" horiz-adv-x="1050" 
d="M336 1184l186 352h328l-277 -352h-237zM522 197q93 0 144 51q-3 90 -47 147.5t-115 57.5q-53 0 -92 -35t-39 -92t41.5 -93t107.5 -36zM702 0l-24 117q-33 -62 -107 -104t-174 -42q-159 0 -251.5 96.5t-92.5 235.5q0 162 105 259t266 97q164 0 242 -104v14
q0 102 -49.5 158.5t-172.5 56.5q-131 0 -260 -84l-63 269q68 39 172.5 61.5t195.5 22.5q467 0 467 -447v-606h-254z" />
    <glyph glyph-name="acircumflex" unicode="&#xe2;" horiz-adv-x="1050" 
d="M625 1184l-93 172l-90 -172h-260l217 352h174q54 0 87.5 -20t60.5 -64l164 -268h-260zM522 197q93 0 144 51q-3 90 -47 147.5t-115 57.5q-53 0 -92 -35t-39 -92t41.5 -93t107.5 -36zM702 0l-24 117q-33 -62 -107 -104t-174 -42q-159 0 -251.5 96.5t-92.5 235.5
q0 162 105 259t266 97q164 0 242 -104v14q0 102 -49.5 158.5t-172.5 56.5q-131 0 -260 -84l-63 269q68 39 172.5 61.5t195.5 22.5q467 0 467 -447v-606h-254z" />
    <glyph glyph-name="atilde" unicode="&#xe3;" horiz-adv-x="1050" 
d="M219 1188q-22 26 -22 102q0 83 50 144t136 61q45 0 84 -15t62 -33t52.5 -33t59.5 -15q37 0 54.5 34.5t17.5 69.5h133q14 -54 14 -94q0 -98 -55.5 -166.5t-134.5 -68.5q-47 0 -85.5 14.5t-59.5 32.5t-49 32.5t-56 14.5q-34 0 -50 -25t-16 -55h-135zM522 197q93 0 144 51
q-3 90 -47 147.5t-115 57.5q-53 0 -92 -35t-39 -92t41.5 -93t107.5 -36zM702 0l-24 117q-33 -62 -107 -104t-174 -42q-159 0 -251.5 96.5t-92.5 235.5q0 162 105 259t266 97q164 0 242 -104v14q0 102 -49.5 158.5t-172.5 56.5q-131 0 -260 -84l-63 269q68 39 172.5 61.5
t195.5 22.5q467 0 467 -447v-606h-254z" />
    <glyph glyph-name="adieresis" unicode="&#xe4;" horiz-adv-x="1050" 
d="M735 1147q-71 0 -118.5 49.5t-47.5 124.5q0 74 48 125t118 51q69 0 117.5 -51.5t48.5 -124.5q0 -74 -48 -124t-118 -50zM313 1147q-71 0 -118.5 49.5t-47.5 124.5q0 74 48 125t118 51q69 0 117.5 -51.5t48.5 -124.5q0 -74 -48 -124t-118 -50zM522 197q93 0 144 51
q-3 90 -47 147.5t-115 57.5q-53 0 -92 -35t-39 -92t41.5 -93t107.5 -36zM702 0l-24 117q-33 -62 -107 -104t-174 -42q-159 0 -251.5 96.5t-92.5 235.5q0 162 105 259t266 97q164 0 242 -104v14q0 102 -49.5 158.5t-172.5 56.5q-131 0 -260 -84l-63 269q68 39 172.5 61.5
t195.5 22.5q467 0 467 -447v-606h-254z" />
    <glyph glyph-name="ae" unicode="&#xe6;" horiz-adv-x="1675" 
d="M1012 649h272v17q0 51 -36.5 88t-94.5 37q-107 0 -141 -142zM428 -29q-174 0 -274.5 97.5t-100.5 238.5q0 161 107.5 256.5t271.5 95.5q148 0 234 -79v26q0 178 -222 178q-131 0 -260 -84l-63 269q68 39 172.5 61.5t195.5 22.5q234 0 349 -109q122 109 315 109
q118 0 205.5 -40t139.5 -113.5t76.5 -168.5t24.5 -213v-57h-598q0 -13 5 -43q14 -100 68.5 -143.5t170.5 -43.5q160 0 283 74l74 -235q-180 -99 -388 -99q-287 0 -415 174q-45 -69 -143 -121.5t-228 -52.5zM530 197q59 0 107 29.5t65 82.5q-10 30 -20 80q-71 64 -164 64
q-59 0 -102 -33.5t-43 -91.5t44.5 -94.5t112.5 -36.5z" />
    <glyph glyph-name="ccedilla" unicode="&#xe7;" horiz-adv-x="913" 
d="M489 -537q-53 0 -102.5 13t-82 31.5t-57.5 36.5t-37 31l-11 13l75 148q3 -4 9 -10.5t26 -23t42 -29t56 -23t68 -10.5q51 0 79 21t28 54t-25.5 52.5t-67.5 19.5q-29 0 -53 -9.5t-34 -19.5l-9 -10l-88 45l109 205q-168 49 -259.5 184t-91.5 330q0 247 143.5 394t399.5 147
q150 0 254 -58l-59 -266q-80 41 -172 41q-107 0 -174.5 -65t-67.5 -193t67.5 -193t174.5 -65q88 0 172 43l59 -268q-104 -58 -254 -58h-26l-35 -65h16q94 0 159.5 -51.5t65.5 -153.5q0 -108 -81.5 -173t-215.5 -65z" />
    <glyph glyph-name="egrave" unicode="&#xe8;" horiz-adv-x="1067" 
d="M436 1184l-227 352h237q79 0 105 -66l111 -286h-226zM545 791q-113 0 -142 -146h273q-5 61 -38 103.5t-93 42.5zM993 70q-180 -99 -387 -99q-136 0 -241.5 43t-170.5 118t-98 171.5t-33 208.5q0 88 17.5 166.5t55.5 147.5t93 119t136 79t180 29q118 0 205.5 -40
t139.5 -113.5t76.5 -168.5t24.5 -213v-65h-598q9 -120 64 -171t180 -51q160 0 283 74z" />
    <glyph glyph-name="eacute" unicode="&#xe9;" horiz-adv-x="1067" 
d="M344 1184l186 352h328l-276 -352h-238zM545 791q-113 0 -142 -146h273q-5 61 -38 103.5t-93 42.5zM993 70q-180 -99 -387 -99q-136 0 -241.5 43t-170.5 118t-98 171.5t-33 208.5q0 88 17.5 166.5t55.5 147.5t93 119t136 79t180 29q118 0 205.5 -40t139.5 -113.5
t76.5 -168.5t24.5 -213v-65h-598q9 -120 64 -171t180 -51q160 0 283 74z" />
    <glyph glyph-name="ecircumflex" unicode="&#xea;" horiz-adv-x="1067" 
d="M633 1184l-92 172l-90 -172h-261l218 352h174q54 0 87 -20t60 -64l164 -268h-260zM545 791q-113 0 -142 -146h273q-5 61 -38 103.5t-93 42.5zM993 70q-180 -99 -387 -99q-136 0 -241.5 43t-170.5 118t-98 171.5t-33 208.5q0 88 17.5 166.5t55.5 147.5t93 119t136 79
t180 29q118 0 205.5 -40t139.5 -113.5t76.5 -168.5t24.5 -213v-65h-598q9 -120 64 -171t180 -51q160 0 283 74z" />
    <glyph glyph-name="edieresis" unicode="&#xeb;" horiz-adv-x="1067" 
d="M743 1147q-71 0 -118 49.5t-47 124.5q0 74 47.5 125t117.5 51q69 0 117.5 -51.5t48.5 -124.5q0 -74 -48 -124t-118 -50zM322 1147q-71 0 -118.5 49.5t-47.5 124.5q0 74 48 125t118 51q69 0 117 -51t48 -125t-48 -124t-117 -50zM545 791q-113 0 -142 -146h273
q-5 61 -38 103.5t-93 42.5zM993 70q-180 -99 -387 -99q-136 0 -241.5 43t-170.5 118t-98 171.5t-33 208.5q0 88 17.5 166.5t55.5 147.5t93 119t136 79t180 29q118 0 205.5 -40t139.5 -113.5t76.5 -168.5t24.5 -213v-65h-598q9 -120 64 -171t180 -51q160 0 283 74z" />
    <glyph glyph-name="igrave" unicode="&#xec;" horiz-adv-x="557" 
d="M14 1536h242q80 0 102 -70l88 -282h-245zM111 0v1024h327v-1024h-327z" />
    <glyph glyph-name="iacute" unicode="&#xed;" horiz-adv-x="557" 
d="M127 1184l106 352h328l-196 -352h-238zM111 0v1024h327v-1024h-327z" />
    <glyph glyph-name="icircumflex" unicode="&#xee;" horiz-adv-x="557" 
d="M354 1157l-78 193l-75 -193h-246l182 375h191q103 0 143 -84l129 -291h-246zM111 0v1024h327v-1024h-327z" />
    <glyph glyph-name="idieresis" unicode="&#xef;" horiz-adv-x="557" 
d="M459 1167q-63 0 -104.5 43.5t-41.5 110.5q0 66 41.5 111t104.5 45q62 0 104.5 -45t42.5 -111q0 -67 -42.5 -110.5t-104.5 -43.5zM127 1167q-63 0 -105 43.5t-42 110.5q0 66 42 111t105 45q61 0 103 -45t42 -111q0 -67 -41.5 -110.5t-103.5 -43.5zM111 0v1024h327v-1024
h-327z" />
    <glyph glyph-name="ntilde" unicode="&#xf1;" horiz-adv-x="1150" 
d="M268 1188q-22 26 -22 102q0 83 50 144t136 61q45 0 84 -15t62 -33t52.5 -33t59.5 -15q37 0 54.5 34.5t17.5 69.5h133q14 -54 14 -94q0 -98 -55.5 -166.5t-134.5 -68.5q-47 0 -85.5 14.5t-59.5 32.5t-49 32.5t-56 14.5q-34 0 -50 -25t-16 -55h-135zM432 618v-618h-328
v1024h189q31 0 45.5 -10t21.5 -37l21 -76q51 67 132.5 109.5t182.5 42.5q96 0 166.5 -29.5t112.5 -83t62 -122t20 -154.5v-664h-328v618q0 84 -41 126t-106 42q-64 0 -107 -42.5t-43 -125.5z" />
    <glyph glyph-name="ograve" unicode="&#xf2;" horiz-adv-x="1089" 
d="M446 1184l-227 352h238q78 0 104 -66l111 -286h-226zM545 -29q-99 0 -180 29t-136 79t-93 119t-55.5 147.5t-17.5 166.5t17.5 166.5t55.5 147.5t93 119t136 79t180 29q123 0 217 -43.5t150.5 -119.5t85 -171.5t28.5 -206.5t-28.5 -206.5t-85 -171.5t-150.5 -119.5
t-217 -43.5zM545 233q153 0 153 279t-153 279q-154 0 -154 -279t154 -279z" />
    <glyph glyph-name="oacute" unicode="&#xf3;" horiz-adv-x="1089" 
d="M354 1184l187 352h327l-276 -352h-238zM545 -29q-99 0 -180 29t-136 79t-93 119t-55.5 147.5t-17.5 166.5t17.5 166.5t55.5 147.5t93 119t136 79t180 29q123 0 217 -43.5t150.5 -119.5t85 -171.5t28.5 -206.5t-28.5 -206.5t-85 -171.5t-150.5 -119.5t-217 -43.5zM545 233
q153 0 153 279t-153 279q-154 0 -154 -279t154 -279z" />
    <glyph glyph-name="ocircumflex" unicode="&#xf4;" horiz-adv-x="1089" 
d="M643 1184l-92 172l-90 -172h-260l217 352h174q54 0 87 -20t60 -64l164 -268h-260zM545 -29q-99 0 -180 29t-136 79t-93 119t-55.5 147.5t-17.5 166.5t17.5 166.5t55.5 147.5t93 119t136 79t180 29q123 0 217 -43.5t150.5 -119.5t85 -171.5t28.5 -206.5t-28.5 -206.5
t-85 -171.5t-150.5 -119.5t-217 -43.5zM545 233q153 0 153 279t-153 279q-154 0 -154 -279t154 -279z" />
    <glyph glyph-name="otilde" unicode="&#xf5;" horiz-adv-x="1089" 
d="M238 1188q-23 28 -23 102q0 83 50 144t136 61q45 0 84 -15t62 -33t52.5 -33t59.5 -15q37 0 54.5 34.5t17.5 69.5h133q15 -58 15 -94q0 -98 -55.5 -166.5t-135.5 -68.5q-47 0 -85.5 14.5t-59.5 32.5t-49 32.5t-56 14.5q-34 0 -49.5 -25t-15.5 -55h-135zM545 -29
q-99 0 -180 29t-136 79t-93 119t-55.5 147.5t-17.5 166.5t17.5 166.5t55.5 147.5t93 119t136 79t180 29q123 0 217 -43.5t150.5 -119.5t85 -171.5t28.5 -206.5t-28.5 -206.5t-85 -171.5t-150.5 -119.5t-217 -43.5zM545 233q153 0 153 279t-153 279q-154 0 -154 -279
t154 -279z" />
    <glyph glyph-name="odieresis" unicode="&#xf6;" horiz-adv-x="1089" 
d="M754 1147q-71 0 -118.5 49.5t-47.5 124.5q0 74 48 125t118 51q69 0 117.5 -51.5t48.5 -124.5q0 -74 -48 -124t-118 -50zM332 1147q-71 0 -118.5 49.5t-47.5 124.5q0 74 48 125t118 51q69 0 117.5 -51.5t48.5 -124.5q0 -74 -48 -124t-118 -50zM545 -29q-99 0 -180 29
t-136 79t-93 119t-55.5 147.5t-17.5 166.5t17.5 166.5t55.5 147.5t93 119t136 79t180 29q123 0 217 -43.5t150.5 -119.5t85 -171.5t28.5 -206.5t-28.5 -206.5t-85 -171.5t-150.5 -119.5t-217 -43.5zM545 233q153 0 153 279t-153 279q-154 0 -154 -279t154 -279z" />
    <glyph glyph-name="divide" unicode="&#xf7;" horiz-adv-x="1290" 
d="M645 874q-75 0 -124.5 50t-49.5 125q0 74 50 125t124 51q73 0 124.5 -51.5t51.5 -124.5q0 -75 -51 -125t-125 -50zM164 500v266h962v-266h-962zM645 41q-74 0 -124 49t-50 125q0 74 50 125t124 51q73 0 124.5 -51.5t51.5 -124.5q0 -75 -51.5 -124.5t-124.5 -49.5z" />
    <glyph glyph-name="ugrave" unicode="&#xf9;" horiz-adv-x="1150" 
d="M477 1184l-227 352h237q79 0 105 -66l110 -286h-225zM799 0l-23 158q-45 -80 -132 -133.5t-198 -53.5q-90 0 -157.5 29.5t-107 83t-58.5 122t-19 154.5v664h328v-618q0 -84 41 -126t107 -42q63 0 106 42.5t43 125.5v618h328v-1024h-258z" />
    <glyph glyph-name="uacute" unicode="&#xfa;" horiz-adv-x="1150" 
d="M385 1184l186 352h328l-276 -352h-238zM799 0l-23 158q-45 -80 -132 -133.5t-198 -53.5q-90 0 -157.5 29.5t-107 83t-58.5 122t-19 154.5v664h328v-618q0 -84 41 -126t107 -42q63 0 106 42.5t43 125.5v618h328v-1024h-258z" />
    <glyph glyph-name="ucircumflex" unicode="&#xfb;" horiz-adv-x="1150" 
d="M674 1184l-92 172l-90 -172h-261l218 352h174q54 0 87 -20t60 -64l164 -268h-260zM799 0l-23 158q-45 -80 -132 -133.5t-198 -53.5q-90 0 -157.5 29.5t-107 83t-58.5 122t-19 154.5v664h328v-618q0 -84 41 -126t107 -42q63 0 106 42.5t43 125.5v618h328v-1024h-258z" />
    <glyph glyph-name="udieresis" unicode="&#xfc;" horiz-adv-x="1150" 
d="M784 1147q-71 0 -118.5 49.5t-47.5 124.5q0 74 48 125t118 51q69 0 117.5 -51.5t48.5 -124.5q0 -74 -48 -124t-118 -50zM362 1147q-71 0 -118 49.5t-47 124.5q0 74 47.5 125t117.5 51q69 0 117.5 -51.5t48.5 -124.5q0 -74 -48 -124t-118 -50zM799 0l-23 158
q-45 -80 -132 -133.5t-198 -53.5q-90 0 -157.5 29.5t-107 83t-58.5 122t-19 154.5v664h328v-618q0 -84 41 -126t107 -42q63 0 106 42.5t43 125.5v618h328v-1024h-258z" />
    <glyph glyph-name="ydieresis" unicode="&#xff;" horiz-adv-x="1130" 
d="M784 1147q-71 0 -118.5 49.5t-47.5 124.5q0 74 48 125t118 51q69 0 117.5 -51.5t48.5 -124.5q0 -74 -48 -124t-118 -50zM362 1147q-71 0 -118 49.5t-47 124.5q0 74 47.5 125t117.5 51q69 0 117.5 -51.5t48.5 -124.5q0 -74 -48 -124t-118 -50zM524 -522
q-108 0 -206.5 33.5t-151.5 82.5l61 250q126 -98 267 -98q136 0 189.5 67.5t53.5 188.5v125q-47 -69 -126 -112.5t-175 -43.5q-172 0 -252 105.5t-80 283.5v664h328v-618q0 -84 38 -126t99 -42q59 0 99.5 42.5t40.5 125.5v618h327v-1042q0 -114 -28 -204t-87.5 -158.5
t-159.5 -105t-237 -36.5z" />
    <glyph glyph-name="dotlessi" unicode="&#x131;" horiz-adv-x="548" 
d="M111 0v1024h327v-1024h-327z" />
    <glyph glyph-name="IJ" unicode="&#x132;" horiz-adv-x="1589" 
d="M117 0v1434h327v-1434h-327zM975 -29q-114 0 -220.5 38t-185.5 120l250 207q59 -68 156 -68q93 0 148 62.5t55 204.5v899h327v-916q0 -122 -32 -218.5t-83.5 -157t-122 -100t-142.5 -55.5t-150 -16z" />
    <glyph glyph-name="ij" unicode="&#x133;" horiz-adv-x="1089" 
d="M811 1149q-78 0 -130 53t-52 131q0 77 52 130t130 53q76 0 129 -53t53 -130q0 -78 -52.5 -131t-129.5 -53zM279 1149q-78 0 -130.5 53t-52.5 131q0 77 52.5 130t130.5 53q76 0 129 -53t53 -130q0 -78 -52.5 -131t-129.5 -53zM115 0v1024h327v-1024h-327zM586 -516
q-99 0 -178 29l32 251q37 -16 80 -16q70 0 98.5 36.5t28.5 111.5v1128h328v-1155q0 -197 -90.5 -291t-298.5 -94z" />
    <glyph glyph-name="Ldot" unicode="&#x13f;" horiz-adv-x="983" 
d="M94 0v1434h328v-1135h539v-299h-867zM868 604q-83 0 -138.5 56t-55.5 139q0 82 55.5 138t138.5 56q82 0 138.5 -56t56.5 -138q0 -83 -56.5 -139t-138.5 -56z" />
    <glyph glyph-name="ldot" unicode="&#x140;" horiz-adv-x="1075" 
d="M449 -16q-177 0 -255.5 76.5t-78.5 234.5v1241h325v-1221q0 -67 72 -67q36 0 49 8l31 -246q-63 -26 -143 -26zM821 401q-83 0 -138.5 56t-55.5 139q0 82 55.5 138.5t138.5 56.5q82 0 138.5 -56.5t56.5 -138.5q0 -83 -56.5 -139t-138.5 -56z" />
    <glyph glyph-name="OE" unicode="&#x152;" horiz-adv-x="1744" 
d="M795 0q-149 0 -270 38t-202.5 104t-136.5 158t-79.5 196t-24.5 221t24.5 220.5t79.5 195.5t136.5 158t202.5 104.5t270 38.5h876v-299h-549v-246h490v-293h-490v-297h549v-299h-876zM795 297v840q-381 0 -381 -420t381 -420z" />
    <glyph glyph-name="oe" unicode="&#x153;" horiz-adv-x="1708" 
d="M545 -29q-99 0 -180 29t-136 79t-93 119t-55.5 147.5t-17.5 166.5t17.5 166.5t55.5 147.5t93 119t136 79t180 29q196 0 319 -113q126 113 322 113q118 0 205.5 -40t139.5 -113.5t76.5 -168.5t24.5 -213v-59h-598q0 -15 4 -43q14 -99 69.5 -142t170.5 -43q160 0 283 74
l73 -235q-180 -99 -387 -99q-231 0 -373 123q-123 -123 -329 -123zM1044 647h273v21q0 52 -34 87.5t-87 35.5q-118 0 -152 -144zM545 233q153 0 153 279t-153 279q-154 0 -154 -279t154 -279z" />
    <glyph glyph-name="Ydieresis" unicode="&#x178;" horiz-adv-x="1275" 
d="M856 1487q-71 0 -118.5 49.5t-47.5 124.5q0 74 48 125t118 51q69 0 117.5 -51.5t48.5 -124.5q0 -74 -48 -124t-118 -50zM414 1487q-71 0 -118.5 49.5t-47.5 124.5q0 74 48 125t118 51q69 0 117.5 -51.5t48.5 -124.5q0 -74 -48 -124t-118 -50zM469 0v522l-438 912h260
q115 0 158 -111l186 -485l235 596h375l-444 -912v-522h-332z" />
    <glyph glyph-name="uni0192" unicode="&#x192;" horiz-adv-x="956" 
d="M33 -516q-97 0 -176 29l59 251q37 -16 80 -16q70 0 102.5 37t38.5 111l70 792h-193l29 232h176l14 141q20 194 138.5 288.5t347.5 94.5q54 0 130.5 -16t108.5 -37l-90 -246q-58 26 -133 26q-71 0 -121.5 -35t-58.5 -114l-10 -102h291l-27 -236h-277l-69 -815
q-18 -196 -120 -290.5t-310 -94.5z" />
    <glyph glyph-name="circumflex" unicode="&#x2c6;" horiz-adv-x="1153" 
d="M668 1184l-93 172l-90 -172h-260l217 352h174q54 0 87.5 -20t60.5 -64l164 -268h-260z" />
    <glyph glyph-name="tilde" unicode="&#x2dc;" horiz-adv-x="1146" 
d="M264 1188q-22 26 -22 102q0 83 50 144t136 61q45 0 84 -15t62 -33t52.5 -33t59.5 -15q37 0 54.5 34.5t17.5 69.5h133q14 -54 14 -94q0 -98 -55.5 -166.5t-134.5 -68.5q-47 0 -85.5 14.5t-59.5 32.5t-49 32.5t-56 14.5q-34 0 -50 -25t-16 -55h-135z" />
    <glyph glyph-name="gravecomb" unicode="&#x300;" horiz-adv-x="862" 
d="M432 1184l-227 352h237q79 0 105 -66l110 -286h-225z" />
    <glyph glyph-name="acutecomb" unicode="&#x301;" horiz-adv-x="923" 
d="M205 1184l186 352h328l-277 -352h-237z" />
    <glyph glyph-name="circumflexcomb" unicode="&#x302;" horiz-adv-x="1153" 
d="M668 1184l-93 172l-90 -172h-260l217 352h174q54 0 87.5 -20t60.5 -64l164 -268h-260z" />
    <glyph glyph-name="tildecomb" unicode="&#x303;" horiz-adv-x="1146" 
d="M264 1188q-22 26 -22 102q0 83 50 144t136 61q45 0 84 -15t62 -33t52.5 -33t59.5 -15q37 0 54.5 34.5t17.5 69.5h133q14 -54 14 -94q0 -98 -55.5 -166.5t-134.5 -68.5q-47 0 -85.5 14.5t-59.5 32.5t-49 32.5t-56 14.5q-34 0 -50 -25t-16 -55h-135z" />
    <glyph glyph-name="dieresiscomb" unicode="&#x308;" horiz-adv-x="1163" 
d="M793 1147q-71 0 -118.5 49.5t-47.5 124.5q0 74 48 125t118 51q69 0 117 -51t48 -125t-48 -124t-117 -50zM371 1147q-71 0 -118.5 49.5t-47.5 124.5q0 74 48 125t118 51q69 0 117.5 -51.5t48.5 -124.5q0 -74 -48 -124t-118 -50z" />
    <glyph glyph-name="cedillacomb" unicode="&#x327;" horiz-adv-x="937" 
d="M465 -537q-53 0 -102.5 13t-82.5 31.5t-58 36.5t-36 31l-12 13l76 148q3 -4 9 -10.5t26 -23t42 -29t56 -23t68 -10.5q51 0 78.5 21t27.5 54t-25 52.5t-67 19.5q-29 0 -53 -9.5t-34 -19.5l-9 -10l-88 45l157 297l154 -49l-72 -135h17q94 0 159.5 -51.5t65.5 -153.5
q0 -108 -81.5 -173t-215.5 -65z" />
    <glyph glyph-name="pi" unicode="&#x3c0;" horiz-adv-x="1595" 
d="M1343 8q-63 -26 -143 -26q-177 0 -255.5 76.5t-78.5 234.5v432h-127v-725h-325v725h-230v299h1227v-299h-219v-412q0 -67 72 -67q36 0 49 8z" />
    <glyph glyph-name="endash" unicode="&#x2013;" horiz-adv-x="1595" 
d="M184 381v299h1227v-299h-1227z" />
    <glyph glyph-name="emdash" unicode="&#x2014;" horiz-adv-x="2537" 
d="M328 381v299h1882v-299h-1882z" />
    <glyph glyph-name="quoteleft" unicode="&#x2018;" horiz-adv-x="563" 
d="M270 807q-90 0 -139 62t-49 151q0 80 37.5 156.5t95.5 131t121.5 93t122.5 53.5l51 -82q-67 -43 -107.5 -111t-40.5 -141q0 -50 26 -88t61 -59q0 -68 -51.5 -117t-127.5 -49z" />
    <glyph glyph-name="quoteright" unicode="&#x2019;" horiz-adv-x="563" 
d="M104 797l-51 84q66 41 106 110t40 142q0 50 -25.5 89t-58.5 56q0 69 50.5 117.5t127.5 48.5q90 0 139 -61.5t49 -149.5q0 -80 -38 -156.5t-96 -132t-121.5 -94t-121.5 -53.5z" />
    <glyph glyph-name="quotesinglbase" unicode="&#x201a;" horiz-adv-x="600" 
d="M141 -352l-49 92q65 46 103 121t38 157q0 55 -24 98t-57 62q0 75 49.5 128.5t124.5 53.5q87 0 134.5 -67.5t47.5 -163.5q0 -88 -37 -172.5t-93.5 -145.5t-118.5 -103.5t-118 -59.5z" />
    <glyph glyph-name="quotedblleft" unicode="&#x201c;" horiz-adv-x="1005" 
d="M713 807q-90 0 -139.5 62t-49.5 151q0 80 38 156.5t96 131t121.5 93t121.5 53.5l51 -82q-66 -43 -105.5 -111t-39.5 -141q0 -51 25 -89t59 -58q0 -69 -50.5 -117.5t-127.5 -48.5zM270 807q-90 0 -139 62t-49 151q0 80 37.5 156.5t95.5 131t121.5 93t122.5 53.5l51 -82
q-67 -43 -107.5 -111t-40.5 -141q0 -50 26 -88t61 -59q0 -68 -51.5 -117t-127.5 -49z" />
    <glyph glyph-name="quotedblright" unicode="&#x201d;" horiz-adv-x="1005" 
d="M547 797l-51 84q66 41 106.5 110t40.5 142q0 50 -26 89t-60 56q0 68 51 117t127 49q90 0 139.5 -61.5t49.5 -149.5q0 -80 -37.5 -156.5t-95 -132t-121.5 -94t-123 -53.5zM104 797l-51 84q66 41 106 110t40 142q0 50 -25.5 89t-58.5 56q0 69 50.5 117.5t127.5 48.5
q90 0 139 -61.5t49 -149.5q0 -80 -38 -156.5t-96 -132t-121.5 -94t-121.5 -53.5z" />
    <glyph glyph-name="quotedblbase" unicode="&#x201e;" horiz-adv-x="1064" 
d="M141 -352l-49 92q65 46 103 121t38 157q0 55 -24 98t-57 62q0 75 49.5 128.5t124.5 53.5q87 0 134.5 -67.5t47.5 -163.5q0 -88 -37 -172.5t-93.5 -145.5t-118.5 -103.5t-118 -59.5zM606 -352l-49 92q65 46 103 121t38 157q0 54 -24.5 97.5t-57.5 62.5q0 75 50 128.5
t125 53.5q87 0 134.5 -67.5t47.5 -163.5q0 -88 -37 -172.5t-93.5 -145.5t-118.5 -103.5t-118 -59.5z" />
    <glyph glyph-name="dagger" unicode="&#x2020;" horiz-adv-x="1204" 
d="M487 0l-61 772h-303v252h301l31 246l20 71h240l22 -71l31 -246h313v-252h-315l-61 -772h-218z" />
    <glyph glyph-name="daggerdbl" unicode="&#x2021;" horiz-adv-x="1204" 
d="M487 0l-20 72l-27 245h-317v244h315v219h-315v244h317l27 246l20 71h215l23 -71l27 -246h329v-244h-327v-219h327v-244h-329l-27 -245l-23 -72h-215z" />
    <glyph glyph-name="bullet" unicode="&#x2022;" horiz-adv-x="1077" 
d="M539 332q-125 0 -209 83.5t-84 207.5q0 123 84.5 207.5t208.5 84.5q123 0 207.5 -84.5t84.5 -207.5q0 -124 -84.5 -207.5t-207.5 -83.5z" />
    <glyph glyph-name="ellipsis" unicode="&#x2026;" horiz-adv-x="1597" 
d="M297 -29q-83 0 -139 56t-56 139q0 82 56 138t139 56q82 0 138.5 -56t56.5 -138q0 -83 -56.5 -139t-138.5 -56zM1341 -29q-83 0 -138.5 56t-55.5 139q0 82 55.5 138t138.5 56q82 0 138.5 -56t56.5 -138q0 -83 -56.5 -139t-138.5 -56zM819 -29q-83 0 -138.5 56t-55.5 139
q0 82 55.5 138t138.5 56q82 0 138.5 -56t56.5 -138q0 -83 -56.5 -139t-138.5 -56z" />
    <glyph glyph-name="guilsinglleft" unicode="&#x2039;" horiz-adv-x="837" 
d="M426 66l-344 409v14l344 410h330l-348 -416l348 -417h-330z" />
    <glyph glyph-name="guilsinglright" unicode="&#x203a;" horiz-adv-x="837" 
d="M82 66l348 417l-348 416h330l344 -410v-14l-344 -409h-330z" />
    <glyph glyph-name="fraction" unicode="&#x2044;" horiz-adv-x="1331" 
d="M10 0l1049 1434h262l-1049 -1434h-262z" />
    <glyph glyph-name="Euro" unicode="&#x20ac;" horiz-adv-x="1126" 
d="M901 4q-74 -33 -192 -33q-231 0 -387 132t-211 366h-136l41 209h68v39v35h-109l41 209h97q55 226 210.5 354.5t383.5 128.5q173 0 309 -68l-62 -280q-90 41 -209 41q-93 0 -167 -44t-115 -132h401l-41 -209h-407v-35v-39h391l-41 -209h-305q41 -95 117 -142.5t172 -47.5
q121 0 213 47z" />
    <glyph glyph-name="uni2116" unicode="&#x2116;" horiz-adv-x="2127" 
d="M1737 850q-88 0 -156 30.5t-108 84t-60 120t-20 144.5q0 77 20 143.5t60 120t108 84.5t156 31t155 -31t107 -84.5t60 -120t20 -143.5q0 -78 -20 -144.5t-60 -120t-107 -84t-155 -30.5zM1737 1051q92 0 92 178t-92 178t-92 -178t92 -178zM879 84l-473 788l8 -872h-320
v1434h203q50 0 81.5 -15.5t55.5 -54.5l486 -805l-7 875h316v-1434h-191q-59 0 -95 19t-64 65zM1442 512v227h592v-227h-592z" />
    <glyph glyph-name="uni2120" unicode="&#x2120;" horiz-adv-x="1419" 
d="M879 1096l-88 252l-76 -402h-140l115 586h133q33 0 43 -35l92 -264l111 299h131q19 0 28.5 -7.5t10.5 -27.5l98 -551h-137l-70 404l-102 -283h-110q-26 0 -39 29zM244 944q-114 0 -183 37l39 111q85 -29 152 -29q119 0 119 61q0 29 -20 41.5t-70 24.5l-60 14
q-149 38 -149 160q0 77 70 128.5t184 51.5q92 0 163 -26l-28 -115q-82 22 -148 22q-106 0 -106 -53q0 -40 63 -55l62 -14q174 -41 174 -166q0 -83 -67 -138t-195 -55z" />
    <glyph glyph-name="trademark" unicode="&#x2122;" horiz-adv-x="1417" 
d="M227 946v455l-145 20v111h434v-111l-141 -20v-455h-148zM877 1096l-89 252l-75 -402h-140l115 586h133q33 0 43 -35l92 -264l111 299h131q19 0 28.5 -7.5t10.5 -27.5l98 -551h-137l-70 404l-102 -283h-111q-16 0 -23.5 7t-14.5 22z" />
    <glyph glyph-name="uni2150" unicode="&#x2150;" horiz-adv-x="1642" 
d="M147 0l1049 1434h262l-1048 -1434h-263zM608 690h-526v191h158v311l-148 -66v203l172 84q69 29 131 29h56v-561h157v-191zM1341 0h-233q18 150 84 293.5t158 259.5h-318v190h533v-133q-79 -109 -142.5 -273.5t-81.5 -336.5z" />
    <glyph glyph-name="uni2151" unicode="&#x2151;" horiz-adv-x="1656" 
d="M207 0l1048 1434h263l-1049 -1434h-262zM608 690h-526v191h158v311l-148 -66v203l172 84q69 29 131 29h56v-561h157v-191zM1323 391q47 0 78 21v37q0 52 -24.5 82t-69.5 30q-36 0 -59 -24t-23 -58q0 -38 28 -63t70 -25zM1268 -16q-63 0 -121 18.5t-84 44.5l37 172
q61 -51 174 -51q119 0 127 125q-56 -39 -133 -39q-118 0 -186 63.5t-68 163.5q0 117 82 193t213 76q138 0 220.5 -92t82.5 -250v-50q0 -102 -26.5 -176.5t-75 -116.5t-108 -61.5t-134.5 -19.5z" />
    <glyph glyph-name="onethird" unicode="&#x2153;" horiz-adv-x="1714" 
d="M213 0l1049 1434h262l-1049 -1434h-262zM608 690h-526v191h158v311l-148 -66v203l172 84q69 29 131 29h56v-561h157v-191zM1309 -16q-124 0 -222 43l64 176q71 -29 141 -29q84 0 84 62q0 27 -22.5 42t-63.5 15h-94v172h90q68 0 68 53q0 55 -74 55q-58 0 -143 -30l-47 166
q35 17 101 29t122 12q128 0 192 -52.5t64 -138.5q0 -50 -25.5 -99t-56.5 -73q40 -13 72 -58t32 -100q0 -111 -70 -178t-212 -67z" />
    <glyph glyph-name="twothirds" unicode="&#x2154;" horiz-adv-x="1652" 
d="M90 690v160q0 17 3 33.5t6.5 29t13 26.5t14 22.5t19 21.5t19.5 18t23 17.5t21.5 15t24.5 15.5t22 14l51 31q42 26 60 47.5t18 50.5q0 30 -26.5 50t-69.5 20q-82 0 -164 -45l-51 165q127 58 239 58q128 0 207.5 -58.5t79.5 -158.5q0 -141 -160 -242l-51 -31
q-63 -43 -63 -55v-14h280v-191h-516zM174 0l1049 1434h262l-1049 -1434h-262zM1247 -16q-123 0 -221 43l64 176q71 -29 141 -29q84 0 84 62q0 27 -22.5 42t-63.5 15h-94v172h90q67 0 67 53q0 55 -73 55q-59 0 -144 -30l-47 166q35 17 101 29t122 12q128 0 192 -52.5
t64 -138.5q0 -50 -25.5 -99t-56.5 -73q41 -13 73 -58.5t32 -99.5q0 -111 -70 -178t-213 -67z" />
    <glyph glyph-name="oneeighth" unicode="&#x215b;" horiz-adv-x="1617" 
d="M205 0l1048 1434h263l-1049 -1434h-262zM608 690h-526v191h158v311l-148 -66v203l172 84q69 29 131 29h56v-561h157v-191zM1266 -16q-125 0 -201 53t-76 143q0 60 37.5 107.5t114.5 68.5q-65 30 -97 73.5t-32 109.5q0 93 72 152t190 59t190 -49t72 -126q0 -115 -121 -159
q144 -62 144 -199q0 -108 -80 -170.5t-213 -62.5zM1208 532q0 -27 22.5 -48.5t65.5 -30.5q41 25 41 73q0 29 -17.5 46.5t-45.5 17.5q-27 0 -46.5 -17t-19.5 -41zM1274 150q37 0 61.5 22t24.5 57q0 32 -20.5 49.5t-65.5 30.5l-8 2q-40 -7 -59 -31t-19 -49q0 -36 25 -58.5
t61 -22.5z" />
    <glyph glyph-name="arrowleft" unicode="&#x2190;" horiz-adv-x="1585" 
d="M987 367l-336 8l336 -330h-239q-94 0 -162 68l-381 383v4l381 381q67 67 162 67h239l-338 -330l338 9h434v-260h-434z" />
    <glyph glyph-name="arrowup" unicode="&#x2191;" horiz-adv-x="1230" 
d="M745 356v-356h-260v356l9 310l-330 -244v176q0 106 67 160l383 295h4l381 -295q68 -55 68 -160v-176l-330 246z" />
    <glyph glyph-name="arrowright" unicode="&#x2192;" horiz-adv-x="1585" 
d="M838 45h-240l336 330l-336 -8h-434v260h434l338 -9l-338 330h240q94 0 161 -67l381 -381v-4l-381 -383q-68 -68 -161 -68z" />
    <glyph glyph-name="arrowdown" unicode="&#x2193;" horiz-adv-x="1230" 
d="M618 -29h-4l-383 295q-67 54 -67 160v176l330 -244l-9 310v356h260v-356l-8 -312l330 246v-176q0 -105 -68 -160z" />
    <glyph glyph-name="arrowboth" unicode="&#x2194;" horiz-adv-x="2455" 
d="M748 45q-94 0 -162 68l-381 383v4l381 381q67 67 162 67h239l-338 -330l338 9h481l338 -9l-338 330h240q95 0 162 -67l381 -381v-4l-381 -383q-68 -68 -162 -68h-240l336 330l-336 -8h-481l-336 8l336 -330h-239z" />
    <glyph glyph-name="arrowupdn" unicode="&#x2195;" horiz-adv-x="1230" 
d="M612 -29l-379 207q-40 20 -53.5 57.5t-13.5 96.5v133l328 -174l-9 194v54l9 194l-330 -174v131q0 60 14.5 98.5t52.5 57.5l383 207h4l381 -207q40 -20 54 -57.5t14 -96.5v-133l-330 174l8 -194v-54l-8 -194l332 174v-131q0 -123 -68 -156l-385 -207h-4z" />
    <glyph glyph-name="arrowupleft" unicode="&#x2196;" horiz-adv-x="1359" 
d="M1237 225l-201 -225l-600 569v-516l-170 107q-54 34 -78 76.5t-24 105.5v680l2 2h721q65 0 109 -28t73 -89l70 -147h-496z" />
    <glyph glyph-name="arrowupright" unicode="&#x2197;" horiz-adv-x="1359" 
d="M924 53v516l-600 -569l-201 225l594 535h-496l70 147q29 61 73 89t109 28h721l2 -2v-680q0 -63 -24 -105.5t-78 -76.5z" />
    <glyph glyph-name="arrowdownright" unicode="&#x2198;" horiz-adv-x="1359" 
d="M1194 0h-727q-65 0 -109 28t-73 89l-70 147h502l-594 535l201 225l600 -569v526l170 -107q54 -34 78 -76.5t24 -105.5v-690z" />
    <glyph glyph-name="arrowdownleft" unicode="&#x2199;" horiz-adv-x="1359" 
d="M893 0h-727l-2 2v690q0 63 24 105.5t78 76.5l170 107v-526l600 569l201 -225l-594 -535h502l-70 -147q-29 -61 -73 -89t-109 -28z" />
    <glyph glyph-name="minus" unicode="&#x2212;" horiz-adv-x="1290" 
d="M164 483v299h962v-299h-962z" />
    <glyph glyph-name="infinity" unicode="&#x221e;" horiz-adv-x="1654" 
d="M1163 379q70 0 114 46.5t44 113.5t-44 115t-114 48q-33 0 -67 -19t-46 -31t-38 -40l-68 -73l70 -74q25 -25 41.5 -39.5t47.5 -30.5t60 -16zM494 373q74 0 153 90l68 72l-72 75q-26 26 -42.5 40.5t-47 30t-59.5 15.5q-71 0 -114.5 -46.5t-43.5 -112.5q0 -67 43.5 -115.5
t114.5 -48.5zM764 360q-147 -147 -293 -147q-157 0 -242.5 93.5t-85.5 230.5q0 133 85 223t243 90q150 0 287 -137l67 -66l64 66q134 143 297 143q103 0 178 -45.5t111 -116.5t36 -157q0 -136 -86 -227t-239 -91q-84 0 -159.5 42.5t-131.5 98.5l-66 66z" />
    <glyph glyph-name="notequal" unicode="&#x2260;" horiz-adv-x="1290" 
d="M1126 285h-403l-39 -199h-283l39 199h-276v247h323l29 142h-352v248h401l41 215h283l-41 -215h278v-248h-327l-29 -142h356v-247z" />
    <glyph glyph-name="lessequal" unicode="&#x2264;" horiz-adv-x="1228" 
d="M1059 367l-895 295v260l895 292v-274l-496 -145l496 -148v-280zM1059 4l-895 295v250l895 -285v-260z" />
    <glyph glyph-name="greaterequal" unicode="&#x2265;" horiz-adv-x="1228" 
d="M164 367v280l495 148l-495 145v274l895 -292v-260zM164 4v260l895 285v-250z" />
    <glyph glyph-name="uni22A0" unicode="&#x22a0;" horiz-adv-x="1603" 
d="M92 0v1434h1419v-1434h-1419zM381 276h842v879h-842v-879zM954 428l-153 154l-154 -154l-137 137l154 154l-154 153l137 138l154 -154l153 154l138 -138l-154 -153l154 -154z" />
    <glyph glyph-name="house" unicode="&#x2302;" horiz-adv-x="1660" 
d="M184 0v633l645 682l648 -682v-633h-1293z" />
    <glyph glyph-name="uni2460" unicode="&#x2460;" horiz-adv-x="1662" 
d="M831 -29q-151 0 -286.5 56.5t-232.5 154t-153.5 233t-56.5 287.5q0 153 56.5 291t153.5 236.5t232.5 156.5t286.5 58q202 0 369.5 -98t264 -268.5t96.5 -375.5q0 -152 -57 -287.5t-154 -233t-232.5 -154t-286.5 -56.5zM569 377h527v190h-158v561h-55q-64 0 -131 -28
l-172 -84v-203l147 66v-312h-158v-190z" />
    <glyph glyph-name="uni2461" unicode="&#x2461;" horiz-adv-x="1662" 
d="M831 -29q-151 0 -286.5 56.5t-232.5 154t-153.5 233t-56.5 287.5q0 153 56.5 291t153.5 236.5t232.5 156.5t286.5 58q202 0 369.5 -98t264 -268.5t96.5 -375.5q0 -152 -57 -287.5t-154 -233t-232.5 -154t-286.5 -56.5zM580 369h516v190h-281v14q0 13 64 56l51 30
q160 101 160 242q0 100 -79.5 158.5t-207.5 58.5q-115 0 -240 -57l51 -166q82 45 164 45q43 0 69.5 -20t26.5 -50t-17.5 -51t-59.5 -47l-52 -31q-79 -50 -104 -74q-61 -59 -61 -139v-159z" />
    <glyph glyph-name="uni2462" unicode="&#x2462;" horiz-adv-x="1662" 
d="M831 -29q-151 0 -286.5 56.5t-232.5 154t-153.5 233t-56.5 287.5q0 153 56.5 291t153.5 236.5t232.5 156.5t286.5 58q202 0 369.5 -98t264 -268.5t96.5 -375.5q0 -152 -57 -287.5t-154 -233t-232.5 -154t-286.5 -56.5zM997 727v4l4 -2q-1 0 -2 -1t-2 -1zM823 326
q143 0 213 67t70 178q0 56 -33 102t-72 56q32 27 57 75t25 97q0 86 -64 138.5t-192 52.5q-56 0 -122 -12t-101 -29l47 -166q85 30 144 30q73 0 73 -55q0 -53 -67 -53h-90v-172h94q41 0 63.5 -15t22.5 -42q0 -62 -84 -62q-70 0 -141 29l-64 -176q98 -43 221 -43z" />
    <glyph glyph-name="uni2463" unicode="&#x2463;" horiz-adv-x="1662" 
d="M831 -29q-151 0 -286.5 56.5t-232.5 154t-153.5 233t-56.5 287.5q0 153 56.5 291t153.5 236.5t232.5 156.5t286.5 58q202 0 369.5 -98t264 -268.5t96.5 -375.5q0 -152 -57 -287.5t-154 -233t-232.5 -154t-286.5 -56.5zM797 350h200v146h82v176h-82v422h-241l-271 -441
v-157h312v-146zM672 672l116 207v-207h-116z" />
    <glyph glyph-name="uni2464" unicode="&#x2464;" horiz-adv-x="1662" 
d="M831 -29q-151 0 -286.5 56.5t-232.5 154t-153.5 233t-56.5 287.5q0 153 56.5 291t153.5 236.5t232.5 156.5t286.5 58q202 0 369.5 -98t264 -268.5t96.5 -375.5q0 -152 -57 -287.5t-154 -233t-232.5 -154t-286.5 -56.5zM762 319q167 0 252.5 78t85.5 209q0 99 -62.5 153
t-154.5 54q-42 0 -92 -16v92h276v190h-453v-422l109 -22q31 27 80 27q44 0 67 -21t23 -47q0 -39 -31.5 -61.5t-95.5 -22.5q-68 0 -145 31l-68 -181q69 -41 209 -41z" />
    <glyph glyph-name="uni2465" unicode="&#x2465;" horiz-adv-x="1662" 
d="M831 -29q-151 0 -286.5 56.5t-232.5 154t-153.5 233t-56.5 287.5q0 153 56.5 291t153.5 236.5t232.5 156.5t286.5 58q202 0 369.5 -98t264 -268.5t96.5 -375.5q0 -152 -57 -287.5t-154 -233t-232.5 -154t-286.5 -56.5zM834 328q123 0 200.5 77.5t77.5 194.5
q0 86 -62 150.5t-163 64.5q-94 0 -158 -61q6 91 43 125t107 36q81 0 143 -30l33 172q-71 37 -170 37q-68 0 -130 -20t-116.5 -61t-87.5 -115.5t-33 -172.5v-23q0 -172 88.5 -273t227.5 -101zM825 518q-42 0 -67 26.5t-25 63.5v6q28 52 92 52q35 0 54.5 -22t19.5 -54t-21 -52
t-53 -20z" />
    <glyph glyph-name="uni2466" unicode="&#x2466;" horiz-adv-x="1662" 
d="M831 -29q-151 0 -286.5 56.5t-232.5 154t-153.5 233t-56.5 287.5q0 153 56.5 291t153.5 236.5t232.5 156.5t286.5 58q202 0 369.5 -98t264 -268.5t96.5 -375.5q0 -152 -57 -287.5t-154 -233t-232.5 -154t-286.5 -56.5zM659 328h234q18 172 81 336.5t142 273.5v133h-532
v-190h317q-92 -116 -158 -259.5t-84 -293.5z" />
    <glyph glyph-name="uni2467" unicode="&#x2467;" horiz-adv-x="1662" 
d="M831 -29q-151 0 -286.5 56.5t-232.5 154t-153.5 233t-56.5 287.5q0 153 56.5 291t153.5 236.5t232.5 156.5t286.5 58q202 0 369.5 -98t264 -268.5t96.5 -375.5q0 -152 -57 -287.5t-154 -233t-232.5 -154t-286.5 -56.5zM819 332q133 0 213 62.5t80 170.5q0 136 -137 197
q115 41 115 153q0 80 -72.5 131.5t-190.5 51.5t-190 -59t-72 -152q0 -66 32 -109t97 -73q-77 -22 -114 -69.5t-37 -107.5q0 -90 75.5 -143t200.5 -53zM846 801l-8 2q-32 7 -50 29.5t-18 48.5q0 24 16.5 40.5t40.5 16.5q25 0 40.5 -17.5t15.5 -46.5q0 -46 -37 -73zM827 498
q-36 0 -61 23t-25 59q0 25 19 48.5t59 30.5l8 -2q46 -13 66 -30t20 -49q0 -35 -24.5 -57.5t-61.5 -22.5z" />
    <glyph glyph-name="uni2468" unicode="&#x2468;" horiz-adv-x="1662" 
d="M831 -29q-151 0 -286.5 56.5t-232.5 154t-153.5 233t-56.5 287.5q0 153 56.5 291t153.5 236.5t232.5 156.5t286.5 58q202 0 369.5 -98t264 -268.5t96.5 -375.5q0 -152 -57 -287.5t-154 -233t-232.5 -154t-286.5 -56.5zM848 725q-42 0 -70 25t-28 63q0 35 22.5 58.5
t58.5 23.5q45 0 70 -30.5t25 -82.5v-37q-30 -20 -78 -20zM793 317q74 0 134 19.5t108.5 62t75 117t26.5 176.5v49q0 158 -82.5 250t-220.5 92q-131 0 -213 -75.5t-82 -192.5q0 -100 68 -163.5t186 -63.5q77 0 133 39v-9q0 -60 -35.5 -88t-91.5 -28q-113 0 -174 51l-37 -172
q26 -26 84.5 -45t120.5 -19z" />
    <glyph glyph-name="uni24C5" unicode="&#x24c5;" horiz-adv-x="1755" 
d="M877 -39q-163 0 -307 58t-246.5 157.5t-162 239.5t-59.5 299q0 212 101 385t278.5 271.5t395.5 98.5q164 0 308 -58t247 -158t162 -240t59 -299t-59 -299t-162 -240t-247 -157.5t-308 -57.5zM877 166q156 0 281.5 70.5t196 196.5t70.5 282q0 239 -155 395t-393 156
q-116 0 -218 -41.5t-174 -114t-113.5 -175t-41.5 -220.5q0 -238 155.5 -393.5t391.5 -155.5zM881 692q42 0 71.5 13.5t43 36.5t19 44.5t5.5 44.5q0 41 -24.5 73t-82.5 32h-92v-236q27 -8 60 -8zM883 541q-35 0 -62 8v-219h-170v764h256q79 0 138 -21.5t93 -59.5t50 -83.5
t16 -98.5q0 -126 -79 -208t-242 -82z" />
    <glyph glyph-name="uni24EA" unicode="&#x24ea;" horiz-adv-x="1662" 
d="M831 -29q-151 0 -286.5 56.5t-232.5 154t-153.5 233t-56.5 287.5q0 153 56.5 291t153.5 236.5t232.5 156.5t286.5 58q202 0 369.5 -98t264 -268.5t96.5 -375.5q0 -152 -57 -287.5t-154 -233t-232.5 -154t-286.5 -56.5zM831 328q76 0 135.5 32t95 86.5t53.5 122.5t18 146
q0 75 -18 140.5t-53.5 118t-95 83t-135.5 30.5t-134 -30.5t-92.5 -83t-52 -118t-17.5 -140.5q0 -78 17.5 -146t52 -122.5t92.5 -86.5t134 -32zM831 518q-38 0 -62 47t-24 150q0 182 86 182q40 0 65.5 -42.5t25.5 -139.5q0 -104 -25.5 -150.5t-65.5 -46.5z" />
    <glyph glyph-name="uni25A0" unicode="&#x25a0;" horiz-adv-x="1603" 
d="M92 0v1434h1419v-1434h-1419z" />
    <glyph glyph-name="uni25A1" unicode="&#x25a1;" horiz-adv-x="1603" 
d="M92 0v1434h1419v-1434h-1419zM381 276h842v879h-842v-879z" />
    <glyph glyph-name="uni25AA" unicode="&#x25aa;" horiz-adv-x="1198" 
d="M92 0v1024h1014v-1024h-1014z" />
    <glyph glyph-name="uni25AB" unicode="&#x25ab;" horiz-adv-x="1198" 
d="M92 0v1024h1014v-1024h-1014zM346 244h506v536h-506v-536z" />
    <glyph glyph-name="triagup" unicode="&#x25b2;" horiz-adv-x="1331" 
d="M164 0l491 1044h21l491 -1044h-1003z" />
    <glyph glyph-name="triagrt" unicode="&#x25ba;" horiz-adv-x="1230" 
d="M205 -20v1064h16l846 -512v-20l-846 -532h-16z" />
    <glyph glyph-name="triagdn" unicode="&#x25bc;" horiz-adv-x="1331" 
d="M655 -29l-491 1053h1003l-491 -1053h-21z" />
    <glyph glyph-name="triaglf" unicode="&#x25c4;" horiz-adv-x="1230" 
d="M1010 -20l-846 532v20l846 512h16v-1064h-16z" />
    <glyph glyph-name="uni25CB" unicode="&#x25cb;" horiz-adv-x="1662" 
d="M831 -29q-151 0 -286.5 56.5t-232.5 154t-153.5 233t-56.5 287.5q0 153 56.5 291t153.5 236.5t232.5 156.5t286.5 58q202 0 369.5 -98t264 -268.5t96.5 -375.5q0 -152 -57 -287.5t-154 -233t-232.5 -154t-286.5 -56.5zM831 266q170 0 284 124.5t114 311.5q0 191 -114 319
t-284 128q-171 0 -285 -128t-114 -319q0 -188 113.5 -312t285.5 -124z" />
    <glyph glyph-name="uni25CF" unicode="&#x25cf;" horiz-adv-x="1662" 
d="M831 -29q-151 0 -286.5 56.5t-232.5 154t-153.5 233t-56.5 287.5q0 153 56.5 291t153.5 236.5t232.5 156.5t286.5 58q202 0 369.5 -98t264 -268.5t96.5 -375.5q0 -152 -57 -287.5t-154 -233t-232.5 -154t-286.5 -56.5z" />
    <glyph glyph-name="uni2605" unicode="&#x2605;" horiz-adv-x="1806" 
d="M1323 -12l-420 311l-420 -311l-39 26l174 486l-434 291l15 45l528 -17l152 494h49l151 -494l529 17l14 -45l-434 -291l174 -486z" />
    <glyph glyph-name="uni2612" unicode="&#x2612;" horiz-adv-x="1198" 
d="M92 0v1024h1014v-1024h-1014zM346 244h506v536h-506v-536zM709 307l-107 107l-106 -107l-95 94l107 107l-107 106l95 95l106 -107l107 107l94 -95l-107 -106l107 -107z" />
    <glyph glyph-name="uni263D" unicode="&#x263d;" horiz-adv-x="1540" 
d="M922 -31q-347 0 -538 175.5t-191 496.5q0 145 49.5 268t141 212t230 139.5t308.5 50.5q110 0 224.5 -34.5t194.5 -94.5l27 -19l-27 -47l-28 8q-84 25 -142 25q-120 0 -219.5 -60t-159 -173.5t-59.5 -260.5q0 -221 129 -371.5t312 -150.5q72 0 137 23l30 10l27 -49
l-27 -19q-80 -60 -194.5 -94.5t-224.5 -34.5z" />
    <glyph glyph-name="spade" unicode="&#x2660;" horiz-adv-x="1630" 
d="M602 0v43q72 87 121.5 215t62.5 293h-8q-46 -120 -129 -198.5t-198 -78.5q-120 0 -203.5 87t-83.5 214q0 53 19.5 104.5t45 89t75.5 85t84.5 75t98.5 76.5q17 13 25 19q114 89 185.5 162.5t107.5 163.5h20q36 -90 107.5 -164.5t183.5 -163.5q10 -8 31 -24
q46 -36 69.5 -54.5t64 -52.5t61.5 -57t49 -57t41.5 -63.5t23.5 -65.5t10 -73q0 -127 -83 -214t-203 -87q-115 0 -198.5 78.5t-129.5 198.5h-8q24 -310 188 -508v-43h-430z" />
    <glyph glyph-name="club" unicode="&#x2663;" horiz-adv-x="1622" 
d="M596 0v45q159 202 182 487h-12q-46 -117 -125 -191.5t-190 -74.5q-120 0 -203.5 84t-83.5 207q0 130 78.5 214.5t203.5 84.5q66 0 138 -39l2 4q-62 97 -62 195q0 124 82.5 211.5t204.5 87.5t204.5 -87.5t82.5 -211.5q0 -98 -62 -195l2 -4q72 39 138 39q125 0 203.5 -84.5
t78.5 -214.5q0 -123 -83.5 -207t-203.5 -84q-111 0 -190 74.5t-125 191.5h-12q23 -282 184 -487v-45h-432z" />
    <glyph glyph-name="heart" unicode="&#x2665;" horiz-adv-x="1761" 
d="M879 -20q-170 126 -298 245.5t-204 215t-123 188t-63.5 162t-16.5 139.5q0 144 92 235.5t248 91.5q79 0 140.5 -19.5t103 -56.5t68.5 -78t48 -95h13q21 54 48 95t68.5 78t103 56.5t140.5 19.5q156 0 248 -91.5t92 -235.5q0 -71 -17 -142t-64 -163t-123.5 -188
t-203.5 -214t-296 -243h-4z" />
    <glyph glyph-name="diamond" unicode="&#x2666;" horiz-adv-x="1511" 
d="M729 -14l-6 10q-100 167 -247.5 333.5t-311.5 299.5v57q163 130 310.5 297t248.5 334l6 10h53l6 -10q101 -167 249 -333.5t311 -297.5v-57q-165 -133 -312.5 -299.5t-247.5 -333.5l-6 -10h-53z" />
    <glyph glyph-name="uni2672" unicode="&#x2672;" horiz-adv-x="1792" 
d="M1260 885l-283 51l67 39l-118 205q-22 38 -59.5 61.5t-64.5 28.5l-26 4h318q56 0 88.5 -13t60.5 -63l47 -80l70 39zM688 836l-246 141l111 194q19 33 55 52q75 38 158.5 15t112.5 -73zM1382 389l-190 330l244 141l112 -192q17 -30 17 -72q1 -79 -62.5 -143t-120.5 -64z
M416 197l-156 274q-18 33 -25.5 52.5t-5 51t22.5 66.5l47 80l-70 39l285 51l98 -272l-67 39q-115 -197 -119 -205q-22 -36 -23.5 -80t7.5 -70l10 -26h-4zM1137 -16l-187 223l187 221v-80h237q27 0 53 8.5t43.5 21t31.5 25t21 21.5l7 8v-2l-156 -274q-35 -51 -51 -65
q-35 -28 -94 -28h-92v-79zM625 63q-36 0 -72 23q-36 20 -60.5 56t-34 73.5t-8 73.5t14.5 59h381v-285h-221z" />
    <glyph glyph-name="uni26AA" unicode="&#x26aa;" horiz-adv-x="1282" 
d="M641 -29q-150 0 -274 72t-194.5 196t-70.5 273t70.5 273.5t194.5 196t274 71.5q229 0 384 -156.5t155 -384.5q0 -149 -70 -273t-194 -196t-275 -72zM641 242q113 0 186.5 77.5t73.5 192.5q0 116 -73.5 194t-186.5 78q-110 0 -184 -78t-74 -194q0 -114 74 -192t184 -78z
" />
    <glyph glyph-name="uni26AB" unicode="&#x26ab;" horiz-adv-x="1282" 
d="M641 -29q-150 0 -274 72t-194.5 196t-70.5 273t70.5 273.5t194.5 196t274 71.5q229 0 384 -156.5t155 -384.5q0 -149 -70 -273t-194 -196t-275 -72z" />
    <glyph glyph-name="uni29EB" unicode="&#x29eb;" horiz-adv-x="1148" 
d="M561 -25l-428 662l430 666h25l428 -670l-428 -658h-27z" />
    <glyph glyph-name="onefifth" horiz-adv-x="1634" 
d="M201 0l1048 1434h262l-1048 -1434h-262zM608 690h-526v191h158v311l-148 -66v203l172 84q69 29 131 29h56v-561h157v-191zM1225 -16q-140 0 -209 41l67 180q77 -31 146 -31q64 0 95.5 22.5t31.5 61.5q0 26 -23 47t-67 21q-49 0 -80 -27l-109 23v421h453v-190h-277v-92
q50 16 93 16q92 0 154.5 -54t62.5 -153q0 -131 -85 -208.5t-253 -77.5z" />
    <glyph glyph-name="onesixth" horiz-adv-x="1560" 
d="M156 0l1048 1434h262l-1048 -1434h-262zM608 690h-526v191h158v311l-148 -66v203l172 84q69 29 131 29h56v-561h157v-191zM1513 256q0 -117 -77.5 -194.5t-200.5 -77.5q-139 0 -227 101t-88 273v23q0 79 22 143t58 105.5t84 69.5t98.5 39.5t103.5 11.5q99 0 170 -37
l-33 -172q-62 30 -143 30q-70 -2 -107 -36t-43 -125q64 61 158 61q101 0 163 -64.5t62 -150.5zM1227 174q32 0 52.5 20t20.5 52q0 33 -19 54.5t-54 21.5q-62 0 -92 -58q10 -42 35 -66t57 -24z" />
    <glyph glyph-name="twofifths" horiz-adv-x="1640" 
d="M90 690v160q0 17 3 33.5t6.5 29t13 26.5t14 22.5t19 21.5t19.5 18t23 17.5t21.5 15t24.5 15.5t22 14l51 31q42 26 60 47.5t18 50.5q0 30 -26.5 50t-69.5 20q-82 0 -164 -45l-51 165q127 58 239 58q128 0 207.5 -58.5t79.5 -158.5q0 -141 -160 -242l-51 -31
q-63 -43 -63 -55v-14h280v-191h-516zM164 0l1048 1434h263l-1049 -1434h-262zM1231 -16q-140 0 -209 41l68 180q78 -31 145 -31q64 0 95.5 22.5t31.5 61.5q0 26 -23 47t-67 21q-49 0 -80 -27l-109 23v421h453v-190h-276v-92q50 16 92 16q92 0 154.5 -54t62.5 -153
q0 -131 -85 -208.5t-253 -77.5z" />
    <glyph glyph-name="threefifths" horiz-adv-x="1562" 
d="M94 0l1049 1434h262l-1049 -1434h-262zM283 674q-124 0 -222 43l64 176q71 -29 141 -29q84 0 84 62q0 27 -22.5 42t-63.5 15h-94v172h90q68 0 68 53q0 56 -74 56q-55 0 -143 -31l-48 166q35 17 101.5 29t122.5 12q128 0 192 -52.5t64 -138.5q0 -50 -25.5 -99t-56.5 -73
q41 -13 72.5 -57.5t31.5 -99.5q0 -111 -70 -178.5t-212 -67.5zM1153 -16q-140 0 -209 41l68 180q77 -31 145 -31q64 0 95.5 22.5t31.5 61.5q0 26 -23 47t-67 21q-49 0 -80 -27l-108 23v421h452v-190h-276v-92q50 16 92 16q92 0 154.5 -54t62.5 -153q0 -131 -85 -208.5
t-253 -77.5z" />
    <glyph glyph-name="fourfifths" horiz-adv-x="1622" 
d="M168 0l1049 1434h262l-1049 -1434h-262zM369 1001v267l-152 -267h152zM645 836h-82v-146h-194v146h-318v157l271 441h241v-433h82v-165zM1212 -16q-139 0 -208 41l67 180q78 -31 146 -31q63 0 94.5 22.5t31.5 61.5q0 26 -23 47t-67 21q-48 0 -79 -27l-109 23v421h453
v-190h-277v-92q50 16 92 16q92 0 154.5 -54t62.5 -153q0 -131 -85 -208.5t-253 -77.5z" />
    <glyph glyph-name="zero.sups" 
d="M342 854q-100 0 -169 56t-98.5 141t-29.5 190q0 75 17.5 140.5t52 118.5t93 83.5t134.5 30.5t135.5 -30.5t94.5 -83t53 -118.5t18 -141q0 -105 -30 -190t-100 -141t-171 -56zM342 1044q40 0 65 46t25 151q0 97 -25 139.5t-65 42.5q-86 0 -86 -182q0 -103 24 -150t62 -47z
" />
    <glyph glyph-name="one.sups" 
d="M608 870h-526v191h158v311l-148 -65v202l172 84q69 29 131 29h56v-561h157v-191z" />
    <glyph glyph-name="two.sups" 
d="M90 870v160q0 17 3 33.5t6.5 29t13 26.5t14 22.5t19 21.5t19.5 18t23 17.5t21.5 15t24.5 15.5t22 14l51 31q42 26 60 47.5t18 50.5q0 30 -26.5 50t-69.5 20q-82 0 -164 -45l-51 166q125 57 239 57q128 0 207.5 -58.5t79.5 -158.5q0 -141 -160 -242l-51 -31
q-63 -43 -63 -55v-14h280v-191h-516z" />
    <glyph glyph-name="three.sups" horiz-adv-x="657" 
d="M283 854q-124 0 -222 43l64 176q71 -29 141 -29q84 0 84 62q0 27 -22.5 42t-63.5 15h-94v172h90q68 0 68 54q0 55 -74 55q-55 0 -143 -31l-48 166q35 17 101.5 29t122.5 12q128 0 192 -52t64 -138q0 -50 -25.5 -99.5t-56.5 -73.5q41 -13 72.5 -57.5t31.5 -99.5
q0 -111 -70 -178.5t-212 -67.5z" />
    <glyph glyph-name="four.sups" 
d="M369 1182v266l-152 -266h152zM645 1016h-82v-146h-194v146h-318v158l271 440h241v-432h82v-166z" />
    <glyph glyph-name="five.sups" 
d="M279 854q-140 0 -209 41l67 180q77 -31 146 -31q64 0 95.5 22.5t31.5 61.5q0 26 -23.5 47t-67.5 21q-48 0 -79 -27l-109 23v422h453v-191h-277v-92q53 17 92 17q92 0 154.5 -54t62.5 -153q0 -131 -85 -209t-252 -78z" />
    <glyph glyph-name="six.sups" 
d="M641 1126q0 -117 -78 -194.5t-201 -77.5q-139 0 -227 101.5t-88 273.5v22q0 98 33 172.5t87.5 115.5t116.5 61t130 20q99 0 170 -37l-33 -172q-64 31 -143 31q-69 -2 -106.5 -36.5t-43.5 -125.5q64 61 158 61q101 0 163 -64.5t62 -150.5zM354 1044q32 0 53 20t21 52
t-19.5 54t-54.5 22q-63 0 -92 -57q10 -43 35 -67t57 -24z" />
    <glyph glyph-name="seven.sups" 
d="M387 870h-233q18 150 84 293.5t157 259.5h-317v191h532v-133q-78 -109 -141.5 -274t-81.5 -337z" />
    <glyph glyph-name="eight.sups" 
d="M336 854q-125 0 -201 53.5t-76 143.5q0 60 37.5 107.5t114.5 68.5q-65 30 -97 73t-32 109q0 93 72 152t190 59t190 -48.5t72 -125.5q0 -116 -121 -160q144 -62 144 -199q0 -108 -80 -170.5t-213 -62.5zM279 1403q0 -27 22.5 -49t65.5 -31q41 25 41 74q0 29 -18 46t-46 17
q-27 0 -46 -16.5t-19 -40.5zM344 1020q37 0 61.5 22.5t24.5 57.5q0 32 -20.5 49.5t-65.5 30.5l-8 2q-40 -7 -59 -31t-19 -49q0 -36 25 -59t61 -23z" />
    <glyph glyph-name="nine.sups" 
d="M354 1262q48 0 78 20v37q0 52 -24.5 82.5t-69.5 30.5q-36 0 -59 -24t-23 -58q0 -38 28 -63t70 -25zM299 854q-62 0 -120.5 19t-84.5 45l37 172q62 -52 174 -52q119 0 127 125q-56 -39 -133 -39q-118 0 -186 63.5t-68 164.5q0 117 82 192.5t213 75.5q138 0 220.5 -92
t82.5 -250v-49q0 -102 -26.5 -176.5t-75 -117t-108.5 -62t-134 -19.5z" />
    <glyph glyph-name="a.sups" horiz-adv-x="761" 
d="M385 1022q47 0 78 25v2q-4 59 -33.5 96t-71.5 37q-29 0 -50 -20.5t-21 -55.5q0 -36 28 -60t70 -24zM496 870l-19 80q-24 -43 -74.5 -71.5t-119.5 -28.5q-112 0 -176 68.5t-64 166.5q0 111 73.5 176.5t186.5 65.5q112 0 164 -74q-2 76 -34.5 116t-113.5 40q-93 0 -182 -59
l-47 198q49 29 124 44.5t140 15.5q336 0 336 -320v-418h-194z" />
    <glyph glyph-name="b.sups" horiz-adv-x="831" 
d="M397 850q-181 0 -317 74v1022h239v-410q69 72 179 72q128 0 206 -93.5t78 -267.5q0 -397 -385 -397zM412 1051q123 0 123 184q0 82 -26.5 125t-72.5 43q-48 0 -77 -44.5t-29 -129.5v-160q27 -18 82 -18z" />
    <glyph glyph-name="c.sups" horiz-adv-x="661" 
d="M438 850q-183 0 -286 102.5t-103 276.5t103 276.5t286 102.5q107 0 176 -37l-43 -203q-62 25 -116 25q-68 0 -113 -39.5t-45 -124.5t45 -124.5t113 -39.5q50 0 114 27l45 -205q-72 -37 -176 -37z" />
    <glyph glyph-name="d.sups" horiz-adv-x="831" 
d="M408 1053q40 0 67 27.5t27 76.5v186q-9 22 -36 41t-63 19q-48 0 -77 -45t-29 -125q0 -180 111 -180zM518 963q-30 -50 -85 -81.5t-116 -31.5q-123 0 -195.5 93.5t-72.5 283.5q0 177 82 279t225 102q94 0 158 -54v392h240v-1076h-215z" />
    <glyph glyph-name="e.sups" horiz-adv-x="772" 
d="M399 1419q-76 0 -92 -104h178q-2 42 -23.5 73t-62.5 31zM713 915q-126 -65 -275 -65q-190 0 -289.5 107t-99.5 272q0 78 20 144.5t60.5 120t108 84t155.5 30.5q165 0 242.5 -104t77.5 -281v-45h-410q7 -72 42.5 -100.5t117.5 -28.5q109 0 194 47z" />
    <glyph glyph-name="f.sups" horiz-adv-x="600" 
d="M143 870v531l-114 24v162h114v125q0 130 75 192t235 62q85 0 137 -24l-25 -197q-37 14 -88 14q-82 0 -82 -78v-94h176v-162l-176 -34v-521h-252z" />
    <glyph glyph-name="g.sups" horiz-adv-x="821" 
d="M348 498q-149 -3 -238.5 50.5t-89.5 151.5q0 62 38.5 110t111.5 71q-49 36 -49 86q0 104 153 149q-96 11 -159.5 71t-63.5 156q0 113 92 189t238 76q82 0 158 -27l217 45l35 -151l-46 -11l-65 -2q31 -57 31 -119q0 -113 -77.5 -177.5t-217.5 -98.5l-19 -4q-16 -3 -21 -9
t-5 -18q0 -17 24 -20l103 -19q133 -26 193.5 -74.5t60.5 -131.5q0 -95 -59.5 -163t-148.5 -98.5t-196 -31.5zM379 1237q92 0 92 94q0 43 -25 69.5t-67 26.5t-67 -26.5t-25 -69.5q0 -42 25 -68t67 -26zM393 688q45 0 75 17.5t30 54.5q0 53 -88 65l-119 17q-37 -21 -37 -66
q0 -43 39 -65.5t100 -22.5z" />
    <glyph glyph-name="h.sups" horiz-adv-x="837" 
d="M330 1298v-428h-250v1076h239v-430q74 92 197 92q130 0 190 -75.5t60 -201.5v-461h-252v426q0 53 -26 81t-66 28t-66 -27t-26 -80z" />
    <glyph glyph-name="i.sups" horiz-adv-x="419" 
d="M209 1649q-62 0 -104 41t-42 104q0 62 42.5 105t103.5 43t104 -43t43 -105t-42.5 -103.5t-104.5 -41.5zM84 870v717h252v-717h-252z" />
    <glyph glyph-name="j.sups" horiz-adv-x="419" 
d="M211 1649q-63 0 -105.5 41t-42.5 104q0 62 42.5 105t105.5 43q61 0 103 -43t42 -105q0 -63 -41.5 -104t-103.5 -41zM51 510q-76 0 -131 18l25 193q2 0 12 -3t21 -5t22 -2q48 0 67 24t19 72v780h250v-801q0 -141 -66 -208.5t-219 -67.5z" />
    <glyph glyph-name="k.sups" horiz-adv-x="833" 
d="M287 920q-20 -26 -42 -38t-57 -12h-108v1076h239v-686l256 378h252l-237 -317l264 -451h-258l-152 258z" />
    <glyph glyph-name="l.sups" horiz-adv-x="454" 
d="M336 858q-132 0 -191 57t-59 175v856h248v-840q0 -45 51 -45q25 0 31 4l22 -188q-51 -19 -102 -19z" />
    <glyph glyph-name="m.sups" horiz-adv-x="1267" 
d="M330 1298v-428h-250v717h145q23 0 34 -7.5t17 -27.5l15 -47q36 46 92.5 74.5t126.5 28.5q151 0 215 -103q88 103 219 103q132 0 192 -75t60 -202v-461h-252v426q0 53 -24.5 81t-63.5 28t-64.5 -27t-25.5 -80v-428h-252v426q0 53 -26 81t-66 28t-66 -27t-26 -80z" />
    <glyph glyph-name="n.sups" horiz-adv-x="837" 
d="M330 1298v-428h-250v717h145q23 0 34 -7.5t17 -27.5l15 -47q36 46 92.5 74.5t126.5 28.5q133 0 194.5 -75.5t61.5 -201.5v-461h-252v426q0 53 -26 81t-66 28t-66 -27t-26 -80z" />
    <glyph glyph-name="o.sups" horiz-adv-x="784" 
d="M393 850q-88 0 -156 30.5t-108 84t-60 120t-20 144.5q0 77 20 143.5t60 120t108 84.5t156 31t155 -31t107 -84.5t60 -120t20 -143.5q0 -78 -20 -144.5t-60 -120t-107 -84t-155 -30.5zM393 1051q92 0 92 178t-92 178t-92 -178t92 -178z" />
    <glyph glyph-name="p.sups" horiz-adv-x="831" 
d="M414 1051q121 0 121 184q0 82 -26.5 125t-72.5 43q-48 0 -77 -44.5t-29 -129.5v-150l4 -3q5 -2 10 -5t13.5 -6.5t16.5 -6.5t19 -5t21 -2zM330 895v-383h-250v1075h143q23 0 34 -7.5t17 -27.5l17 -53q31 51 85 80t122 29q128 0 206 -93.5t78 -267.5q0 -197 -82 -297
t-223 -100q-91 0 -147 45z" />
    <glyph glyph-name="q.sups" horiz-adv-x="831" 
d="M754 512h-252v414q-24 -31 -77 -53.5t-108 -22.5q-123 0 -195.5 93.5t-72.5 283.5q0 177 82 279t225 102q111 0 179 -72l22 51h197v-1075zM408 1053q40 0 67 27.5t27 76.5v186q-9 22 -36 41t-63 19q-48 0 -77 -45t-29 -125q0 -180 111 -180z" />
    <glyph glyph-name="r.sups" horiz-adv-x="581" 
d="M330 1239v-369h-250v717h145q23 0 34 -7.5t17 -27.5l17 -59q28 52 79.5 83.5t121.5 31.5q34 0 57 -13l-55 -229q-24 12 -62 12q-46 0 -75 -34.5t-29 -104.5z" />
    <glyph glyph-name="s.sups" horiz-adv-x="716" 
d="M326 852q-148 0 -273 57l60 191q125 -49 211 -49q88 0 88 34q0 20 -14.5 28t-45.5 11q-150 18 -218 75.5t-68 156.5q0 41 18 83t53.5 80.5t99 62.5t144.5 24q156 0 248 -41l-47 -193q-120 35 -176 35q-52 0 -73.5 -7.5t-21.5 -29.5q0 -19 13 -27.5t41 -11.5
q149 -20 220.5 -74.5t71.5 -150.5q0 -110 -85 -182t-246 -72z" />
    <glyph glyph-name="t.sups" horiz-adv-x="604" 
d="M420 850q-153 0 -219 67.5t-66 208.5v269l-115 30v162h115v205h252v-205h172v-174l-172 -27v-239q0 -48 18 -72t66 -24q29 0 53 12l25 -193q-50 -20 -129 -20z" />
    <glyph glyph-name="u.sups" horiz-adv-x="837" 
d="M567 870l-16 109q-31 -56 -92 -92.5t-140 -36.5q-125 0 -182 75t-57 201v461h250v-428q0 -53 26 -79.5t66 -26.5q41 0 66.5 26t25.5 78v430h252v-717h-199z" />
    <glyph glyph-name="v.sups" horiz-adv-x="800" 
d="M508 860h-146q-41 0 -59.5 12.5t-32.5 49.5l-247 665h262l114 -416l115 416h262z" />
    <glyph glyph-name="w.sups" horiz-adv-x="1015" 
d="M582 932l-66 346l-84 -418h-147q-42 0 -62 14t-30 56l-170 657h245l62 -391l78 391h174q23 0 33.5 -9t15.5 -30l69 -338l70 377h221l-170 -727h-147q-42 0 -62.5 15t-29.5 57z" />
    <glyph glyph-name="x.sups" horiz-adv-x="811" 
d="M479 913l-71 134l-99 -177h-276l239 363l-225 354h227q47 0 64 -33l68 -129l86 162h272l-223 -350l239 -367h-223q-56 0 -78 43z" />
    <glyph glyph-name="y.sups" horiz-adv-x="837" 
d="M393 504q-82 0 -156 23t-112 57l45 190q85 -63 201 -63q93 0 129.5 45t36.5 127v73q-35 -47 -91 -76.5t-127 -29.5q-125 0 -182 75t-57 201v461h250v-426q0 -53 26.5 -80.5t65.5 -27.5q41 0 66.5 26.5t25.5 79.5v428h252v-721q0 -168 -90 -265t-283 -97z" />
    <glyph glyph-name="z.sups" horiz-adv-x="708" 
d="M655 870h-602v66q0 68 11 102.5t47 77.5l213 254l-238 -4v221h551v-69q0 -63 -11 -101t-42 -78l-217 -252l288 5v-222z" />
    <glyph glyph-name="period.sups" horiz-adv-x="434" 
d="M217 850q-63 0 -104 42t-41 105q0 61 41.5 103.5t103.5 42.5q61 0 104.5 -43t43.5 -103q0 -63 -43 -105t-105 -42z" />
    <glyph glyph-name="comma.sups" horiz-adv-x="428" 
d="M76 664l-39 63q48 31 77 81.5t29 102.5q0 37 -18.5 66t-42.5 41q0 52 37.5 88.5t95.5 36.5q68 0 104.5 -46t36.5 -112q0 -59 -28 -115.5t-71.5 -97t-90.5 -69t-90 -39.5z" />
    <glyph glyph-name="hyphen.sups" horiz-adv-x="958" 
d="M133 1124v228h692v-228h-692z" />
    <glyph glyph-name="parenleft.sups" horiz-adv-x="595" 
d="M397 625q-44 40 -88 106.5t-85.5 157t-67 209.5t-25.5 243q0 178 49 333.5t123 269.5h227q-155 -274 -155 -603q0 -224 69.5 -411.5t165.5 -304.5h-213z" />
    <glyph glyph-name="parenright.sups" horiz-adv-x="595" 
d="M-14 625q95 119 165 306t70 410q0 329 -155 603h227q74 -113 122 -268.5t48 -334.5q0 -124 -25.5 -243t-66.5 -209.5t-85.5 -157t-88.5 -106.5h-211z" />
    <glyph glyph-name="plus.sups" horiz-adv-x="958" 
d="M825 1198h-231v-233h-229v233h-232v227h232v232h229v-232h231v-227z" />
    <glyph glyph-name="minus.sups" horiz-adv-x="958" 
d="M133 1198v227h692v-227h-692z" />
    <glyph glyph-name="multiply.sups" horiz-adv-x="958" 
d="M645 985l-166 166l-164 -166l-161 162l165 166l-165 164l161 159l164 -163l166 165l160 -161l-164 -166l164 -164z" />
    <glyph glyph-name="equal.sups" horiz-adv-x="958" 
d="M133 1333v213h692v-213h-692zM133 1034v213h692v-213h-692z" />
    <glyph glyph-name="divide.sups" horiz-adv-x="958" 
d="M479 1481q-57 0 -94 37t-37 94q0 56 37 93.5t94 37.5q56 0 94.5 -38t38.5 -93q0 -56 -38.5 -93.5t-94.5 -37.5zM133 1210v203h692v-203h-692zM479 879q-56 0 -93.5 37t-37.5 94q0 56 37.5 94.5t93.5 38.5q55 0 94 -38.5t39 -94.5t-39 -93.5t-94 -37.5z" />
    <glyph glyph-name="dollar.sups" horiz-adv-x="655" 
d="M395 745h-133v109q-123 5 -199 51l62 168q77 -39 158 -39q120 0 120 58q0 28 -21 40t-69 23l-73 19q-187 47 -187 202q0 82 54.5 143.5t148.5 86.5v102h133v-88q104 -2 186 -35l-45 -170q-95 27 -149 27q-125 0 -125 -53q0 -42 78 -58l59 -12q213 -46 213 -207
q0 -88 -54 -155t-157 -91v-121z" />
    <glyph glyph-name="cent.sups" horiz-adv-x="557" 
d="M463 981q-43 -20 -90 -23v-104h-144v115q-92 26 -142 95.5t-50 172.5q0 104 50 174t142 96v113h144v-102q47 -5 92 -23l-37 -170q-44 14 -80 14q-104 0 -104 -102q0 -100 104 -100q38 0 78 16z" />
    <glyph glyph-name="sterling.sups" horiz-adv-x="671" 
d="M621 1061v-191h-564v191h52q145 0 145 69h-195v101h105q-48 45 -73 87t-25 95q0 92 83.5 149.5t217.5 57.5q115 0 231 -57l-51 -168q-74 47 -168 47q-53 0 -80 -22t-27 -54q0 -34 37 -66l70 -63l6 -6h162v-101h-133q-9 -44 -52 -69h259z" />
    <glyph glyph-name="florin.sups" horiz-adv-x="550" 
d="M43 602q-56 0 -102 16l36 160q18 -6 41 -6q34 0 48.5 15.5t17.5 46.5l29 366h-93l19 148h82l6 61q11 107 75.5 159t192.5 52q31 0 76.5 -10.5t65.5 -22.5l-58 -157q-28 16 -71 16q-30 0 -51.5 -14.5t-24.5 -47.5l-4 -36h143l-16 -150h-133l-31 -381q-8 -107 -66.5 -161
t-181.5 -54z" />
    <glyph glyph-name="yen.sups" horiz-adv-x="800" 
d="M639 967h-123v-97h-209v97h-131v88h131v45h-131v90h131v27l-284 370h227l162 -229l166 229h198l-260 -370v-27h123v-90h-123v-45h123v-88z" />
    <glyph glyph-name="Euro.sups" horiz-adv-x="649" 
d="M473 1249h-467l19 101h59q27 125 111 197.5t213 72.5q92 0 165 -37l-38 -180q-44 20 -103 20q-86 0 -125 -73h187zM502 868q-35 -14 -92 -14q-121 0 -204 65.5t-114 180.5h-86l19 102h438l-21 -102h-114q38 -49 108 -49q57 0 105 22z" />
    <glyph glyph-name="zero.subs" 
d="M342 -287q-100 0 -169 56t-98.5 141t-29.5 190q0 75 17.5 140.5t52 118.5t93 83.5t134.5 30.5t135.5 -30.5t94.5 -83t53 -118.5t18 -141q0 -105 -30 -190t-100 -141t-171 -56zM342 -96q40 0 65 46t25 150q0 97 -25 140t-65 43q-38 0 -62 -43t-24 -140q0 -103 24 -149.5
t62 -46.5z" />
    <glyph glyph-name="one.subs" 
d="M608 -270h-526v190h158v311l-148 -65v203l172 84q67 28 131 28h56v-561h157v-190z" />
    <glyph glyph-name="two.subs" 
d="M90 -270v159q0 17 3 33.5t6.5 29t13 26.5t14 22.5t19 21.5t19.5 18t23 17.5t21.5 15t24.5 15.5t22 14l51 31q42 26 60 47.5t18 50.5q0 30 -26.5 50t-69.5 20q-82 0 -164 -45l-51 166q125 57 239 57q128 0 207.5 -58.5t79.5 -158.5q0 -141 -160 -242l-51 -30
q-63 -43 -63 -56v-14h280v-190h-516z" />
    <glyph glyph-name="three.subs" 
d="M283 -287q-124 0 -222 43l64 176q69 -28 141 -28q84 0 84 61q0 27 -22.5 42.5t-63.5 15.5h-94v172h90q68 0 68 53q0 55 -74 55q-55 0 -143 -31l-48 166q35 17 101.5 29t122.5 12q128 0 192 -52t64 -138q0 -50 -25.5 -99t-56.5 -73q40 -13 72 -58t32 -100
q0 -111 -70 -178.5t-212 -67.5z" />
    <glyph glyph-name="four.subs" 
d="M369 41v266l-152 -266h152zM645 -125h-82v-145h-194v145h-318v158l271 440h241v-432h82v-166z" />
    <glyph glyph-name="five.subs" 
d="M279 -287q-140 0 -209 41l67 180q75 -30 146 -30q64 0 95.5 22.5t31.5 61.5q0 26 -23.5 46.5t-67.5 20.5q-49 0 -79 -26l-109 22v422h453v-190h-277v-93q53 17 92 17q92 0 154.5 -54t62.5 -153q0 -131 -85 -209t-252 -78z" />
    <glyph glyph-name="six.subs" 
d="M641 -14q0 -117 -78 -195t-201 -78q-139 0 -227 101.5t-88 273.5v23q0 79 22 143t58 105t84.5 69t99 39.5t103.5 11.5q99 0 170 -37l-33 -172q-64 31 -143 31q-69 -2 -106.5 -36.5t-43.5 -125.5q65 62 158 62q101 0 163 -64.5t62 -150.5zM354 -96q33 0 53.5 19.5
t20.5 51.5t-19.5 54t-54.5 22q-63 0 -92 -57q10 -42 35 -66t57 -24z" />
    <glyph glyph-name="seven.subs" 
d="M387 -270h-233q18 150 84 293.5t157 259.5h-317v190h532v-133q-79 -109 -142 -273.5t-81 -336.5z" />
    <glyph glyph-name="eight.subs" 
d="M336 -287q-125 0 -201 53.5t-76 143.5q0 60 37.5 107.5t114.5 68.5q-65 30 -97 73t-32 109q0 93 72 152t190 59t190 -48.5t72 -125.5q0 -116 -121 -160q144 -62 144 -198q0 -108 -80 -171t-213 -63zM279 262q0 -27 22.5 -49t65.5 -31q41 25 41 74q0 29 -18 46t-46 17
q-27 0 -46 -16.5t-19 -40.5zM344 -121q37 0 61.5 22.5t24.5 57.5q0 32 -20.5 49.5t-65.5 30.5l-8 2q-40 -7 -59 -31t-19 -49q0 -36 25 -59t61 -23z" />
    <glyph glyph-name="nine.subs" 
d="M354 121q48 0 78 20v37q0 52 -24.5 82.5t-69.5 30.5q-36 0 -59 -24t-23 -58q0 -38 28 -63t70 -25zM299 -287q-62 0 -120.5 19t-84.5 45l37 172q61 -51 174 -51q119 0 127 125q-56 -39 -133 -39q-118 0 -186 63.5t-68 163.5q0 117 82 192.5t213 75.5q138 0 220.5 -92
t82.5 -250v-49q0 -102 -26.5 -176.5t-75 -117t-108.5 -62t-134 -19.5z" />
    <glyph glyph-name="a.subs" horiz-adv-x="761" 
d="M385 -121q47 0 78 25v2q-4 59 -33.5 96t-71.5 37q-29 0 -50 -20.5t-21 -55.5q0 -36 28 -60t70 -24zM496 -272l-19 79q-24 -43 -74.5 -71.5t-119.5 -28.5q-112 0 -176 69t-64 167q0 111 73.5 176t186.5 65t164 -75q-2 77 -34.5 117t-113.5 40q-93 0 -182 -59l-47 199
q49 29 124 44t140 15q336 0 336 -320v-417h-194z" />
    <glyph glyph-name="b.subs" horiz-adv-x="831" 
d="M397 -293q-181 0 -317 74v1022h239v-410q69 72 179 72q128 0 206 -93.5t78 -267.5q0 -397 -385 -397zM412 -92q123 0 123 184q0 82 -26.5 125t-72.5 43q-48 0 -77 -44.5t-29 -129.5v-160q27 -18 82 -18z" />
    <glyph glyph-name="c.subs" horiz-adv-x="661" 
d="M438 -293q-183 0 -286 102.5t-103 276.5t103 276.5t286 102.5q107 0 176 -37l-43 -203q-63 25 -116 25q-68 0 -113 -39.5t-45 -124.5t45 -124.5t113 -39.5q50 0 114 27l45 -205q-72 -37 -176 -37z" />
    <glyph glyph-name="d.subs" horiz-adv-x="831" 
d="M408 -90q40 0 67 27.5t27 76.5v187q-9 22 -36 40.5t-63 18.5q-48 0 -77 -45t-29 -125q0 -180 111 -180zM518 -180q-30 -50 -85 -81.5t-116 -31.5q-123 0 -195.5 93.5t-72.5 283.5q0 177 82 279t225 102q95 0 158 -53v391h240v-1075h-215z" />
    <glyph glyph-name="e.subs" horiz-adv-x="772" 
d="M399 276q-76 0 -92 -104h178q-2 42 -23.5 73t-62.5 31zM713 -227q-128 -66 -275 -66q-190 0 -289.5 107t-99.5 272q0 78 20 144.5t60.5 120t108 84t155.5 30.5q165 0 242.5 -104t77.5 -281v-45h-410q7 -72 42.5 -100.5t117.5 -28.5q109 0 194 47z" />
    <glyph glyph-name="f.subs" horiz-adv-x="600" 
d="M143 -272v530l-114 25v161h114v125q0 130 75 192t235 62q85 0 137 -24l-25 -197q-37 14 -88 14q-82 0 -82 -77v-95h176v-161l-176 -35v-520h-252z" />
    <glyph glyph-name="g.subs" horiz-adv-x="821" 
d="M348 -645q-149 -3 -238.5 51t-89.5 152q0 62 38.5 109.5t111.5 70.5q-49 36 -49 86q0 101 153 149q-96 11 -159.5 71.5t-63.5 156.5q0 112 91.5 188t238.5 76q82 0 158 -27l217 45l35 -151l-46 -10l-65 -3q31 -57 31 -118q0 -113 -77.5 -178t-217.5 -99l-19 -4
q-16 -3 -21 -8.5t-5 -17.5q0 -18 24 -21l103 -18q133 -26 193.5 -75t60.5 -132q0 -95 -59.5 -163t-148.5 -98.5t-196 -31.5zM379 94q92 0 92 94q0 43 -25 70t-67 27t-67 -27t-25 -70q0 -42 25 -68t67 -26zM393 -455q45 0 75 17.5t30 54.5q0 25 -22 42.5t-66 23.5l-119 16
q-37 -21 -37 -66q0 -43 39 -65.5t100 -22.5z" />
    <glyph glyph-name="h.subs" horiz-adv-x="837" 
d="M330 156v-428h-250v1075h239v-430q74 92 197 92q130 0 190 -75.5t60 -201.5v-460h-252v426q0 53 -25.5 80.5t-66.5 27.5q-40 0 -66 -26.5t-26 -79.5z" />
    <glyph glyph-name="i.subs" horiz-adv-x="419" 
d="M209 506q-62 0 -104 41t-42 104q0 62 42.5 105t103.5 43t104 -43t43 -105t-42.5 -103.5t-104.5 -41.5zM84 -272v716h252v-716h-252z" />
    <glyph glyph-name="j.subs" horiz-adv-x="419" 
d="M211 506q-63 0 -105.5 41t-42.5 104q0 62 42.5 105t105.5 43q61 0 103 -43t42 -105q0 -63 -41.5 -104t-103.5 -41zM51 -633q-72 0 -131 19l25 192q2 0 12 -3t21 -5t22 -2q48 0 67 24t19 72v780h250v-800q0 -141 -66 -209t-219 -68z" />
    <glyph glyph-name="k.subs" horiz-adv-x="833" 
d="M287 -223q-20 -26 -42 -37.5t-57 -11.5h-108v1075h239v-686l256 379h252l-237 -318l264 -450h-258l-152 258z" />
    <glyph glyph-name="l.subs" horiz-adv-x="454" 
d="M336 -285q-132 0 -191 57t-59 175v856h248v-840q0 -45 51 -45q25 0 31 4l22 -188q-51 -19 -102 -19z" />
    <glyph glyph-name="m.subs" horiz-adv-x="1267" 
d="M330 156v-428h-250v716h145q24 0 34.5 -7t16.5 -27l15 -48q37 45 93.5 74t125.5 29q151 0 215 -103q88 103 219 103q132 0 192 -75t60 -202v-460h-252v426q0 53 -24.5 80.5t-63.5 27.5t-64.5 -26.5t-25.5 -79.5v-428h-252v426q0 53 -25.5 80.5t-66.5 27.5
q-40 0 -66 -26.5t-26 -79.5z" />
    <glyph glyph-name="n.subs" horiz-adv-x="837" 
d="M330 156v-428h-250v716h145q24 0 34.5 -7t16.5 -27l15 -48q37 45 93.5 74t125.5 29q133 0 194.5 -75.5t61.5 -201.5v-460h-252v426q0 53 -25.5 80.5t-66.5 27.5q-40 0 -66 -26.5t-26 -79.5z" />
    <glyph glyph-name="o.subs" horiz-adv-x="784" 
d="M393 -293q-88 0 -156 30.5t-108 84t-60 120t-20 144.5q0 77 20 143.5t60 120t108 84.5t156 31t155 -31t107 -84.5t60 -120t20 -143.5q0 -78 -20 -144.5t-60 -120t-107 -84t-155 -30.5zM393 -92q92 0 92 178t-92 178t-92 -178t92 -178z" />
    <glyph glyph-name="p.subs" horiz-adv-x="831" 
d="M414 -92q121 0 121 184q0 82 -26.5 125t-72.5 43q-48 0 -77 -44.5t-29 -129.5v-149l4 -3q5 -2 10 -5t13.5 -7t16.5 -7t19 -5t21 -2zM330 -248v-383h-250v1075h143q24 0 34.5 -7t16.5 -27l17 -54q31 51 85 80t122 29q128 0 206 -93.5t78 -267.5q0 -197 -82 -297t-223 -100
q-91 0 -147 45z" />
    <glyph glyph-name="q.subs" horiz-adv-x="831" 
d="M754 -631h-252v414q-24 -31 -77 -53.5t-108 -22.5q-123 0 -195.5 93.5t-72.5 283.5q0 177 82 279t225 102q111 0 179 -72l22 51h197v-1075zM408 -90q40 0 67 27.5t27 76.5v187q-9 22 -36 40.5t-63 18.5q-48 0 -77 -45t-29 -125q0 -180 111 -180z" />
    <glyph glyph-name="r.subs" horiz-adv-x="581" 
d="M330 96v-368h-250v716h145q24 0 34.5 -7t16.5 -27l17 -60q28 52 79.5 83.5t121.5 31.5q36 0 57 -12l-55 -230q-26 13 -62 13q-46 0 -75 -35t-29 -105z" />
    <glyph glyph-name="s.subs" horiz-adv-x="716" 
d="M326 -291q-145 0 -273 58l60 190q125 -49 211 -49q88 0 88 35q0 20 -14.5 28t-45.5 11q-151 18 -218.5 75t-67.5 156q0 41 18 83t53.5 80.5t99 62.5t144.5 24q156 0 248 -41l-47 -193q-120 35 -176 35q-52 0 -73.5 -7.5t-21.5 -29.5q0 -19 13 -27.5t41 -11.5
q149 -20 220.5 -74.5t71.5 -150.5q0 -110 -85 -182t-246 -72z" />
    <glyph glyph-name="t.subs" horiz-adv-x="604" 
d="M420 -293q-153 0 -219 68t-66 209v268l-115 31v161h115v205h252v-205h172v-174l-172 -26v-240q0 -48 18 -72t66 -24q29 0 53 12l25 -192q-52 -21 -129 -21z" />
    <glyph glyph-name="u.subs" horiz-adv-x="837" 
d="M567 -272l-16 108q-31 -56 -92 -92.5t-140 -36.5q-125 0 -182 75.5t-57 201.5v460h250v-428q0 -53 26 -79.5t66 -26.5q41 0 66.5 26t25.5 78v430h252v-716h-199z" />
    <glyph glyph-name="v.subs" horiz-adv-x="800" 
d="M508 -283h-146q-41 0 -59.5 12.5t-32.5 49.5l-247 665h262l114 -415l115 415h262z" />
    <glyph glyph-name="w.subs" horiz-adv-x="1015" 
d="M582 -211l-66 346l-84 -418h-147q-42 0 -62 14t-30 56l-170 657h245l62 -391l78 391h174q23 0 33.5 -8.5t15.5 -29.5l69 -338l70 376h221l-170 -727h-147q-42 0 -62.5 15t-29.5 57z" />
    <glyph glyph-name="x.subs" horiz-adv-x="811" 
d="M479 -229l-71 133l-99 -176h-276l239 362l-225 354h227q27 0 41 -7t23 -25l68 -129l86 161h272l-223 -350l239 -366h-223q-56 0 -78 43z" />
    <glyph glyph-name="y.subs" horiz-adv-x="837" 
d="M393 -639q-82 0 -156 23t-112 57l45 190q85 -63 201 -63q93 0 129.5 45t36.5 127v74q-35 -47 -91.5 -77t-126.5 -30q-125 0 -182 75.5t-57 201.5v460h250v-426q0 -53 26.5 -80.5t65.5 -27.5q41 0 66.5 26.5t25.5 79.5v428h252v-720q0 -168 -90 -265.5t-283 -97.5z" />
    <glyph glyph-name="z.subs" horiz-adv-x="708" 
d="M655 -272h-602v65q0 68 11 102.5t47 77.5l213 252l-238 -2v221h551v-69q0 -63 -11 -100.5t-42 -77.5l-217 -252l288 4v-221z" />
    <glyph glyph-name="period.subs" horiz-adv-x="434" 
d="M217 -291q-63 0 -104 42.5t-41 105.5q0 61 41.5 103t103.5 42q61 0 104.5 -42.5t43.5 -102.5q0 -63 -43 -105.5t-105 -42.5z" />
    <glyph glyph-name="comma.subs" horiz-adv-x="428" 
d="M76 -477l-39 63q47 31 76.5 82t29.5 103q0 37 -18.5 65.5t-42.5 40.5q0 52 37.5 88.5t95.5 36.5q68 0 104.5 -46t36.5 -112q0 -59 -28 -115.5t-71.5 -97t-90.5 -69t-90 -39.5z" />
    <glyph glyph-name="hyphen.subs" horiz-adv-x="958" 
d="M133 -16v227h692v-227h-692z" />
    <glyph glyph-name="parenleft.subs" horiz-adv-x="595" 
d="M397 -516q-44 40 -88 106.5t-85.5 157t-67 210t-25.5 243.5q0 178 49 333t123 269h227q-155 -274 -155 -602q0 -224 69.5 -412t165.5 -305h-213z" />
    <glyph glyph-name="parenright.subs" horiz-adv-x="595" 
d="M-14 -516q95 119 165 306.5t70 410.5q0 328 -155 602h227q74 -113 122 -268t48 -334q0 -163 -45 -316.5t-102.5 -249.5t-118.5 -151h-211z" />
    <glyph glyph-name="plus.subs" horiz-adv-x="958" 
d="M825 57h-231v-233h-229v233h-232v228h232v231h229v-231h231v-228z" />
    <glyph glyph-name="minus.subs" horiz-adv-x="958" 
d="M133 57v228h692v-228h-692z" />
    <glyph glyph-name="multiply.subs" horiz-adv-x="958" 
d="M645 -156l-166 164l-164 -164l-161 162l165 164l-165 166l161 160l164 -164l166 166l160 -162l-164 -166l164 -164z" />
    <glyph glyph-name="equal.subs" horiz-adv-x="958" 
d="M133 193v213h692v-213h-692zM133 -106v212h692v-212h-692z" />
    <glyph glyph-name="divide.subs" horiz-adv-x="958" 
d="M479 340q-57 0 -94 37t-37 94q0 56 37 93.5t94 37.5q56 0 94.5 -38t38.5 -93q0 -56 -38.5 -93.5t-94.5 -37.5zM133 70v202h692v-202h-692zM479 -262q-56 0 -93.5 37t-37.5 94q0 56 37.5 94.5t93.5 38.5q55 0 94 -39t39 -94q0 -56 -39 -93.5t-94 -37.5z" />
    <glyph glyph-name="dollar.subs" horiz-adv-x="655" 
d="M395 -395h-133v108q-118 3 -199 51l62 168q75 -38 158 -38q120 0 120 57q0 28 -21 40t-69 23l-73 19q-187 47 -187 203q0 82 54.5 143t148.5 86v102h133v-88q95 -4 186 -35l-45 -170q-94 27 -149 27q-125 0 -125 -53q0 -42 78 -58l59 -12q213 -46 213 -207
q0 -87 -54 -154.5t-157 -92.5v-119z" />
    <glyph glyph-name="cent.subs" horiz-adv-x="557" 
d="M463 -160q-38 -18 -90 -24v-103h-144v115q-92 26 -142 95.5t-50 172.5t50 173.5t142 95.5v114h144v-102q47 -5 92 -23l-37 -170q-47 15 -80 15q-43 0 -73.5 -23t-30.5 -80q0 -100 104 -100q38 0 78 16z" />
    <glyph glyph-name="sterling.subs" horiz-adv-x="671" 
d="M621 -80v-190h-564v190h52q145 0 145 70h-195v100h105q-98 88 -98 182q0 92 83.5 149.5t217.5 57.5q115 0 231 -57l-51 -168q-74 47 -168 47q-53 0 -80 -22t-27 -54q0 -33 37 -65l70 -64l6 -6h162v-100h-133q-9 -45 -52 -70h259z" />
    <glyph glyph-name="florin.subs" horiz-adv-x="550" 
d="M43 -539q-53 0 -102 17l36 160q21 -7 41 -7q34 0 48.5 15.5t17.5 46.5l29 366h-93l19 148h82l6 61q11 107 75.5 159t192.5 52q31 0 76.5 -10.5t65.5 -22.5l-58 -157q-28 16 -71 16q-71 0 -76 -61l-4 -37h143l-16 -150h-133l-31 -381q-8 -107 -66.5 -161t-181.5 -54z" />
    <glyph glyph-name="yen.subs" horiz-adv-x="704" 
d="M639 -174h-123v-96h-209v96h-131v88h131v45h-131v90h131v27l-284 370h227l162 -231l166 231h198l-260 -370v-27h123v-90h-123v-45h123v-88z" />
    <glyph glyph-name="Euro.subs" horiz-adv-x="649" 
 />
    <glyph glyph-name="zero.numr" 
d="M342 674q-100 0 -169 56t-98.5 141t-29.5 190q0 75 17.5 140.5t52 118.5t93 83.5t134.5 30.5t135.5 -30.5t94.5 -83t53 -118.5t18 -141q0 -105 -30 -190t-100 -141t-171 -56zM342 864q40 0 65 46t25 151q0 97 -25 139.5t-65 42.5q-86 0 -86 -182q0 -103 24 -150t62 -47z
" />
    <glyph glyph-name="one.numr" 
d="M608 690h-526v191h158v311l-148 -66v203l172 84q69 29 131 29h56v-561h157v-191z" />
    <glyph glyph-name="two.numr" 
d="M90 690v160q0 17 3 33.5t6.5 29t13 26.5t14 22.5t19 21.5t19.5 18t23 17.5t21.5 15t24.5 15.5t22 14l51 31q42 26 60 47.5t18 50.5q0 30 -26.5 50t-69.5 20q-82 0 -164 -45l-51 165q127 58 239 58q128 0 207.5 -58.5t79.5 -158.5q0 -141 -160 -242l-51 -31
q-63 -43 -63 -55v-14h280v-191h-516z" />
    <glyph glyph-name="three.numr" 
d="M283 674q-124 0 -222 43l64 176q71 -29 141 -29q84 0 84 62q0 27 -22.5 42t-63.5 15h-94v172h90q68 0 68 53q0 56 -74 56q-55 0 -143 -31l-48 166q35 17 101.5 29t122.5 12q128 0 192 -52.5t64 -138.5q0 -50 -25.5 -99t-56.5 -73q41 -13 72.5 -57.5t31.5 -99.5
q0 -111 -70 -178.5t-212 -67.5z" />
    <glyph glyph-name="four.numr" 
d="M369 1001v267l-152 -267h152zM645 836h-82v-146h-194v146h-318v157l271 441h241v-433h82v-165z" />
    <glyph glyph-name="five.numr" 
d="M279 674q-140 0 -209 41l67 180q77 -31 146 -31q64 0 95.5 22.5t31.5 61.5q0 26 -23.5 47t-67.5 21q-48 0 -79 -27l-109 23v422h453v-191h-277v-92q50 16 92 16q92 0 154.5 -53.5t62.5 -152.5q0 -131 -85 -209t-252 -78z" />
    <glyph glyph-name="six.numr" 
d="M641 946q0 -117 -78 -194.5t-201 -77.5q-139 0 -227 101.5t-88 273.5v22q0 98 33 172.5t87.5 115.5t116.5 61t130 20q99 0 170 -37l-33 -172q-64 31 -143 31q-69 -2 -106.5 -36.5t-43.5 -125.5q64 61 158 61q101 0 163 -64.5t62 -150.5zM354 864q32 0 53 20t21 52
t-19.5 54t-54.5 22q-62 0 -92 -58q10 -42 35 -66t57 -24z" />
    <glyph glyph-name="seven.numr" 
d="M387 690h-233q18 150 84 293.5t157 259.5h-317v191h532v-134q-79 -109 -142 -273.5t-81 -336.5z" />
    <glyph glyph-name="eight.numr" 
d="M336 674q-125 0 -201 53t-76 143q0 60 37.5 108t114.5 69q-65 30 -97 73t-32 109q0 93 72 152t190 59t190 -48.5t72 -125.5q0 -116 -121 -160q144 -62 144 -199q0 -108 -80 -170.5t-213 -62.5zM279 1223q0 -27 22.5 -49t65.5 -31q41 25 41 74q0 29 -18 46t-46 17
q-27 0 -46 -16.5t-19 -40.5zM344 840q37 0 61.5 22.5t24.5 57.5q0 32 -20 49t-66 30l-8 2q-40 -7 -59 -30.5t-19 -48.5q0 -36 25 -59t61 -23z" />
    <glyph glyph-name="nine.numr" 
d="M354 1081q46 0 78 21v37q0 52 -24.5 82t-69.5 30q-36 0 -59 -24t-23 -58q0 -38 28 -63t70 -25zM299 674q-63 0 -121 18.5t-84 44.5l37 172q61 -51 174 -51q119 0 127 125q-56 -39 -133 -39q-118 0 -186 63.5t-68 163.5q0 117 82 193t213 76q138 0 220.5 -92t82.5 -250
v-49q0 -102 -26.5 -176.5t-75 -117t-108.5 -62t-134 -19.5z" />
    <glyph glyph-name="dollar.numr" horiz-adv-x="655" 
d="M395 565h-133v109q-123 5 -199 51l62 168q77 -39 158 -39q120 0 120 57q0 28 -21.5 40.5t-68.5 23.5l-73 18q-187 47 -187 203q0 82 54.5 143t148.5 86v103h133v-88q104 -2 186 -35l-45 -170q-95 27 -149 27q-125 0 -125 -54q0 -41 78 -57l59 -12q213 -46 213 -207
q0 -88 -54 -155t-157 -91v-121z" />
    <glyph glyph-name="parenleft.numr" horiz-adv-x="595" 
d="M397 444q-44 40 -88 106.5t-85.5 157t-67 210t-25.5 243.5q0 178 49 333t123 269h227q-155 -274 -155 -602q0 -224 69.5 -412t165.5 -305h-213z" />
    <glyph glyph-name="parenright.numr" horiz-adv-x="595" 
d="M-14 444q95 119 165 306.5t70 410.5q0 328 -155 602h227q74 -113 122 -268t48 -334q0 -163 -45 -316.5t-102.5 -249.5t-118.5 -151h-211z" />
    <glyph glyph-name="hyphen.numr" horiz-adv-x="958" 
d="M133 944v227h692v-227h-692z" />
    <glyph glyph-name="zero.dnom" 
d="M342 -16q-100 0 -169 56t-98.5 141t-29.5 190q0 102 29.5 183.5t98.5 135t169 53.5q76 0 135.5 -30.5t94.5 -83t53 -118t18 -140.5q0 -105 -30 -190t-100 -141t-171 -56zM342 174q40 0 65 46t25 151q0 97 -25 139.5t-65 42.5q-86 0 -86 -182q0 -103 24 -150t62 -47z" />
    <glyph glyph-name="one.dnom" 
d="M608 0h-526v190h158v312l-148 -66v203l172 84q69 29 131 29h56v-562h157v-190z" />
    <glyph glyph-name="two.dnom" 
d="M90 0v160q0 17 3 33.5t6.5 29t13 26.5t14 22.5t19 21.5t19.5 18t23 17.5t21.5 15t24.5 15.5t22 14l51 30q42 26 60 48t18 51q0 30 -26.5 49.5t-69.5 19.5q-82 0 -164 -45l-51 166q127 58 239 58q128 0 207.5 -59t79.5 -159q0 -140 -160 -241l-51 -31q-63 -43 -63 -55v-15
h280v-190h-516z" />
    <glyph glyph-name="three.dnom" 
d="M283 -16q-124 0 -222 43l64 176q71 -29 141 -29q84 0 84 62q0 27 -22.5 42t-63.5 15h-94v172h90q68 0 68 53q0 55 -74 55q-58 0 -143 -30l-48 166q35 17 101.5 29t122.5 12q128 0 192 -52.5t64 -138.5q0 -50 -25.5 -99t-56.5 -73q40 -13 72 -58t32 -100q0 -111 -70 -178
t-212 -67z" />
    <glyph glyph-name="four.dnom" 
d="M369 311v267l-152 -267h152zM645 145h-82v-145h-194v145h-318v158l271 440h241v-432h82v-166z" />
    <glyph glyph-name="five.dnom" 
d="M279 -16q-140 0 -209 41l67 180q78 -31 146 -31q64 0 95.5 22.5t31.5 61.5q0 26 -23.5 47t-67.5 21q-48 0 -79 -27l-109 23v421h453v-190h-277v-92q50 16 92 16q92 0 154.5 -54t62.5 -153q0 -131 -85 -208.5t-252 -77.5z" />
    <glyph glyph-name="six.dnom" 
d="M641 256q0 -117 -78 -194.5t-201 -77.5q-139 0 -227 101t-88 273v23q0 98 33 172.5t87.5 115.5t116.5 61t130 20q99 0 170 -37l-33 -172q-62 30 -143 30q-70 -2 -107 -36t-43 -125q64 61 158 61q101 0 163 -64.5t62 -150.5zM354 174q32 0 53 20t21 52t-19.5 54t-54.5 22
q-62 0 -92 -58q10 -42 35 -66t57 -24z" />
    <glyph glyph-name="seven.dnom" 
d="M387 0h-233q18 150 84 293.5t157 259.5h-317v190h532v-133q-79 -109 -142 -273.5t-81 -336.5z" />
    <glyph glyph-name="eight.dnom" 
d="M336 -16q-125 0 -201 53t-76 143q0 60 37.5 107.5t114.5 68.5q-65 30 -97 73.5t-32 109.5q0 93 72 152t190 59t190 -49t72 -126q0 -115 -121 -159q144 -62 144 -199q0 -108 -80 -170.5t-213 -62.5zM279 532q0 -27 22.5 -48.5t65.5 -30.5q41 25 41 73q0 29 -18 46.5
t-46 17.5q-27 0 -46 -17t-19 -41zM344 150q37 0 61.5 22t24.5 57q0 32 -20.5 49.5t-65.5 30.5l-8 2q-40 -7 -59 -31t-19 -49q0 -36 25 -58.5t61 -22.5z" />
    <glyph glyph-name="nine.dnom" 
d="M354 391q46 0 78 21v37q0 52 -24.5 82t-69.5 30q-36 0 -59 -24t-23 -58q0 -38 28 -63t70 -25zM299 -16q-63 0 -121 18.5t-84 44.5l37 172q61 -51 174 -51q119 0 127 125q-56 -39 -133 -39q-118 0 -186 63.5t-68 163.5q0 117 82 193t213 76q138 0 220.5 -92t82.5 -250v-50
q0 -102 -26.5 -176.5t-75 -116.5t-108 -61.5t-134.5 -19.5z" />
    <glyph glyph-name="dollar.dnom" horiz-adv-x="655" 
d="M395 -125h-133v109q-123 5 -199 51l62 168q77 -39 158 -39q120 0 120 57q0 28 -21.5 40.5t-68.5 23.5l-73 18q-187 47 -187 203q0 82 54.5 143t148.5 86v103h133v-88q104 -2 186 -35l-45 -170q-91 26 -149 26q-125 0 -125 -53q0 -41 78 -57l59 -12q213 -46 213 -207
q0 -88 -54 -155t-157 -91v-121z" />
    <glyph glyph-name="parenleft.dnom" horiz-adv-x="595" 
d="M397 -246q-44 40 -88 106.5t-85.5 157t-67 210t-25.5 243.5q0 178 49 333t123 269h227q-155 -274 -155 -602q0 -224 69.5 -412t165.5 -305h-213z" />
    <glyph glyph-name="parenright.dnom" horiz-adv-x="595" 
d="M-14 -246q95 119 165 306.5t70 410.5q0 328 -155 602h227q74 -113 122 -268t48 -334q0 -163 -45 -316.5t-102.5 -249.5t-118.5 -151h-211z" />
    <glyph glyph-name="hyphen.dnom" horiz-adv-x="958" 
d="M133 254v227h692v-227h-692z" />
    <glyph glyph-name="IJacute" horiz-adv-x="1589" 
d="M1178 1518l186 249h336l-281 -249h-241zM113 1518l186 249h336l-281 -249h-241zM129 0v1434h328v-1434h-328zM987 -29q-252 0 -405 158l249 207q59 -68 156 -68q93 0 148 62.5t55 204.5v899h328v-916q0 -122 -32 -218.5t-83.5 -157t-122.5 -100t-143 -55.5t-150 -16z" />
    <glyph glyph-name="ijacute" horiz-adv-x="1089" 
d="M670 1184l106 352h328l-197 -352h-237zM127 1184l106 352h328l-196 -352h-238zM111 0v1024h327v-1024h-327zM582 -516q-100 0 -179 29l33 251q37 -16 80 -16q70 0 98.5 36.5t28.5 111.5v1128h328v-1155q0 -197 -90.5 -291t-298.5 -94z" />
    <glyph glyph-name="gravecomb.case" horiz-adv-x="862" 
d="M324 1593l-234 258h246q77 0 113 -65l110 -193h-235z" />
    <glyph glyph-name="acutecomb.case" horiz-adv-x="923" 
d="M297 1606l186 249h336l-280 -249h-242z" />
    <glyph glyph-name="dieresiscomb.case" horiz-adv-x="1163" 
d="M803 1569q-71 0 -118.5 49.5t-47.5 124.5q0 74 48 125t118 51q69 0 117.5 -51.5t48.5 -124.5q0 -74 -48 -124t-118 -50zM360 1569q-71 0 -118 49.5t-47 124.5q0 74 47.5 125t117.5 51q69 0 117.5 -51.5t48.5 -124.5q0 -74 -48 -124t-118 -50z" />
    <glyph glyph-name="circumflexcomb.case" horiz-adv-x="1153" 
d="M680 1606l-94 114l-94 -114h-287l231 252h207q42 0 70.5 -12t58.5 -42l197 -198h-289z" />
    <glyph glyph-name="tildecomb.case" horiz-adv-x="1146" 
d="M233 1585q-9 11 -17.5 39.5t-8.5 63.5q0 83 56 143.5t151 60.5q51 0 94.5 -15t68 -33t57.5 -33t66 -15q39 0 59.5 35t20.5 70h146q18 -41 18 -95q0 -98 -61.5 -166.5t-149.5 -68.5q-53 0 -95.5 14.5t-66 32.5t-53.5 32.5t-61 14.5q-38 0 -57 -25.5t-19 -54.5h-148z" />
    <glyph glyph-name="exclamdown.case" horiz-adv-x="593" 
d="M297 1055q-83 0 -139 55.5t-56 138.5q0 82 56 138.5t139 56.5q82 0 138.5 -56.5t56.5 -138.5q0 -83 -56.5 -138.5t-138.5 -55.5zM125 0l78 946h188l78 -946h-344z" />
    <glyph glyph-name="questiondown.case" horiz-adv-x="989" 
d="M668 1055q-82 0 -138.5 55.5t-56.5 138.5q0 82 56.5 138.5t138.5 56.5q83 0 138.5 -56.5t55.5 -138.5q0 -83 -55.5 -138.5t-138.5 -55.5zM559 -29q-125 0 -222.5 32.5t-156.5 89t-89 126t-30 148.5q0 103 39 184t107.5 133.5t153.5 83.5t186 41l10 137h221l21 -319
q-82 0 -151.5 -11t-131.5 -34.5t-97.5 -68t-35.5 -105.5q0 -75 54 -121.5t169 -46.5q129 0 258 84l64 -269q-68 -39 -173 -61.5t-196 -22.5z" />
    <glyph glyph-name="braceleft.case" horiz-adv-x="849" 
d="M586 -29q-74 0 -137 14t-115 44t-81.5 82t-29.5 122q0 47 18.5 131.5t18.5 124.5q0 51 -30 81t-85 30h-43v227h43q55 0 85 30.5t30 80.5q0 39 -18.5 120t-18.5 126q0 70 29.5 122t81.5 81.5t114.5 43t137.5 13.5q96 0 162 -19v-211q-40 0 -74.5 -5.5t-67.5 -17.5t-52 -37
t-19 -60q0 -34 17 -95t17 -100q0 -75 -37.5 -121.5t-89.5 -62.5v-4q51 -16 89 -62.5t38 -118.5q0 -41 -17 -106.5t-17 -101.5q0 -35 19 -60t52 -37.5t67.5 -18t74.5 -5.5v-211q-83 -19 -162 -19z" />
    <glyph glyph-name="braceright.case" horiz-adv-x="849" 
d="M264 -29q-79 0 -162 19v211q40 0 74.5 5.5t67.5 18t52 37.5t19 60q0 36 -17 101.5t-17 106.5q0 72 38 118.5t89 62.5v4q-52 16 -89.5 62.5t-37.5 121.5q0 39 17 100t17 95q0 35 -19 60t-52 37t-67.5 17.5t-74.5 5.5v211q66 19 162 19q75 0 137.5 -13.5t114.5 -43
t81.5 -81.5t29.5 -122q0 -45 -18.5 -126t-18.5 -120q0 -50 30 -80.5t85 -30.5h43v-227h-43q-55 0 -85 -30t-30 -81q0 -40 18.5 -124.5t18.5 -131.5q0 -70 -29.5 -122t-81.5 -82t-115 -44t-137 -14z" />
    <glyph glyph-name="bracketleft.case" horiz-adv-x="761" 
d="M639 246v-246h-475v1434h475v-246h-147v-942h147z" />
    <glyph glyph-name="bracketright.case" horiz-adv-x="761" 
d="M598 0h-475v246h147v942h-147v246h475v-1434z" />
    <glyph glyph-name="emdash.case" horiz-adv-x="2355" 
d="M287 592v299h1781v-299h-1781z" />
    <glyph glyph-name="endash.case" horiz-adv-x="1595" 
d="M184 592v299h1227v-299h-1227z" />
    <glyph glyph-name="hyphen.case" horiz-adv-x="1036" 
d="M164 592v299h708v-299h-708z" />
    <glyph glyph-name="guillemotleft.case" horiz-adv-x="1241" 
d="M829 229l-344 410v14l344 410h310l-348 -416l348 -418h-310zM406 229l-345 410v14l345 410h309l-348 -416l348 -418h-309z" />
    <glyph glyph-name="guillemotright.case" horiz-adv-x="1241" 
d="M526 229l348 418l-348 416h310l344 -410v-14l-344 -410h-310zM102 229l349 418l-349 416h310l344 -410v-14l-344 -410h-310z" />
    <glyph glyph-name="guilsinglleft.case" horiz-adv-x="817" 
d="M406 227l-345 410v14l345 410h309l-348 -416l348 -418h-309z" />
    <glyph glyph-name="guilsinglright.case" horiz-adv-x="817" 
d="M102 229l349 418l-349 416h310l344 -410v-14l-344 -410h-310z" />
    <glyph glyph-name="arrowdown.case" horiz-adv-x="1230" 
d="M618 -29h-4l-383 295q-67 54 -67 160v176l330 -244l-9 310v766h260v-766l-8 -312l330 246v-176q0 -105 -68 -160z" />
    <glyph glyph-name="arrowup.case" horiz-adv-x="1230" 
d="M745 748v-748h-260v748l9 309l-330 -244v176q0 106 67 160l383 295h4l381 -295q68 -55 68 -160v-176l-330 246z" />
    <glyph glyph-name="arrowupdn.case" horiz-adv-x="1230" 
d="M612 -29l-379 207q-40 20 -53.5 57.5t-13.5 96.5v133l328 -174l-9 194v445l9 194l-330 -174v131q0 60 14.5 98.5t52.5 57.5l383 207h4l381 -207q40 -20 54 -57.5t14 -96.5v-133l-330 174l8 -194v-445l-8 -194l332 174v-131q0 -123 -68 -156l-385 -207h-4z" />
    <glyph glyph-name="arrowboth.case" horiz-adv-x="2455" 
d="M748 268q-94 0 -162 68l-381 383v4l381 381q67 67 162 67h239l-338 -329l338 8h481l338 -8l-338 329h240q95 0 162 -67l381 -381v-4l-381 -383q-68 -68 -162 -68h-240l336 330l-336 -8h-481l-336 8l336 -330h-239z" />
    <glyph glyph-name="arrowleft.case" horiz-adv-x="1585" 
d="M987 590l-336 8l336 -330h-239q-94 0 -162 68l-381 383v4l381 381q67 67 162 67h239l-338 -329l338 8h434v-260h-434z" />
    <glyph glyph-name="arrowright.case" horiz-adv-x="1585" 
d="M838 268h-240l336 330l-336 -8h-434v260h434l338 -8l-338 329h240q94 0 161 -67l381 -381v-4l-381 -383q-68 -68 -161 -68z" />
    <glyph glyph-name="arrowdownleft.case" horiz-adv-x="1806" 
d="M887 0h-721l-2 2v680q0 63 24 105.5t78 76.5l170 107v-516l1047 979l200 -226l-1042 -944h498l-70 -147q-29 -61 -73 -89t-109 -28z" />
    <glyph glyph-name="arrowdownright.case" horiz-adv-x="1804" 
d="M1638 0h-720q-127 0 -183 117l-69 147h497l-1040 944l201 226l1044 -979v516l170 -107q54 -34 78 -76.5t24 -105.5v-680z" />
    <glyph glyph-name="arrowupleft.case" horiz-adv-x="1804" 
d="M1681 225l-200 -225l-1045 979v-516l-170 106q-54 34 -78 77t-24 106v680l2 2h721q65 0 109 -28t73 -89l70 -148h-498z" />
    <glyph glyph-name="arrowupright.case" horiz-adv-x="1802" 
d="M1366 463v516l-1042 -977l-201 225l1038 942h-497l69 148q29 61 73 89t109 28h721l2 -2v-680q0 -63 -24 -106t-78 -77z" />
    <glyph glyph-name="at.case" horiz-adv-x="2097" 
d="M891 -309q-169 0 -313.5 63t-246.5 175t-160 273.5t-58 352.5q0 216 73 400t200.5 311t305 198.5t381.5 71.5q194 0 362 -64.5t289.5 -179t191 -282t69.5 -365.5q0 -148 -35.5 -263.5t-95.5 -183t-131.5 -101.5t-149.5 -34q-134 0 -219.5 77.5t-100.5 205.5
q-37 -139 -132 -211t-218 -72q-176 0 -288.5 130.5t-112.5 353.5q0 170 72.5 306.5t205 214t299.5 77.5q154 0 275 -66l114 39l43 -10v-711q0 -67 32 -102t87 -35q72 0 122 93.5t50 291.5q0 163 -55.5 300t-152.5 230.5t-231 145t-290 51.5q-167 0 -310.5 -58t-247 -162.5
t-162 -258.5t-58.5 -338q0 -318 165 -509t431 -191q130 0 237 39l43 -158q-130 -45 -280 -45zM985 342q26 0 53 13.5t56.5 48.5t52 87t37 136.5t14.5 189.5v84q-61 23 -108 23q-107 0 -178.5 -101t-71.5 -260q0 -98 40.5 -159.5t104.5 -61.5z" />
    <glyph glyph-name="colon.case" horiz-adv-x="675" 
d="M338 760q-83 0 -139 55.5t-56 138.5q0 82 56 138.5t139 56.5q82 0 138 -56.5t56 -138.5q0 -83 -56 -138.5t-138 -55.5zM338 182q-83 0 -139 56t-56 139q0 82 56 138t139 56q82 0 138 -56t56 -138q0 -83 -56 -139t-138 -56z" />
    <glyph glyph-name="periodcentered.case" horiz-adv-x="634" 
d="M317 561q-83 0 -138.5 56t-55.5 139q0 82 55.5 138t138.5 56q82 0 138.5 -56t56.5 -138q0 -83 -56.5 -139t-138.5 -56z" />
    <glyph glyph-name="LA.calt" horiz-adv-x="976" 
d="M94 0v1434h328v-1135h539l-89 -299h-778z" />
    <glyph glyph-name="ZA.calt" horiz-adv-x="1132" 
d="M1014 0h-953v61q0 95 11.5 142t50.5 106l547 826h-547v299h948v-78q0 -76 -9.5 -120t-35.5 -85l-555 -852h631z" />
    <glyph glyph-name="EA.calt" horiz-adv-x="1073" 
d="M94 0v1434h979v-299h-651v-246h592v-293h-592v-297h651l-86 -299h-893z" />
    <glyph glyph-name="EgraveA.calt" horiz-adv-x="1073" 
d="M500 1511l-234 258h246q77 0 113 -65l110 -193h-235zM94 0v1434h979v-299h-651v-246h592v-293h-592v-297h651l-86 -299h-893z" />
    <glyph glyph-name="EacuteA.calt" horiz-adv-x="1073" 
d="M406 1524l186 250h336l-281 -250h-241zM94 0v1434h979v-299h-651v-246h592v-293h-592v-297h651l-86 -299h-893z" />
    <glyph glyph-name="EcircumflexA.calt" horiz-adv-x="1073" 
d="M676 1524l-94 114l-95 -114h-286l231 252h207q42 0 70.5 -12t58.5 -42l197 -198h-289zM94 0v1434h979v-299h-651v-246h592v-293h-592v-297h651l-86 -299h-893z" />
    <glyph glyph-name="EdieresisA.calt" horiz-adv-x="1073" 
d="M793 1487q-71 0 -118.5 49.5t-47.5 124.5q0 74 48 125t118 51q69 0 117 -51t48 -125t-48 -124t-117 -50zM350 1487q-71 0 -118.5 49.5t-47.5 124.5q0 74 48 125t118 51q69 0 117.5 -51.5t48.5 -124.5q0 -74 -48 -124t-118 -50zM94 0v1434h979v-299h-651v-246h592v-293
h-592v-297h651l-86 -299h-893z" />
    <glyph glyph-name="LM.calt" horiz-adv-x="991" 
d="M94 0v1434h328v-1135h553l-60 -299h-821z" />
    <glyph glyph-name="EM.calt" horiz-adv-x="1093" 
d="M94 0v1434h979v-299h-651v-246h592v-293h-592v-297h651l-59 -299h-920z" />
    <glyph glyph-name="EgraveM.calt" horiz-adv-x="1093" 
d="M500 1511l-234 258h246q77 0 113 -65l110 -193h-235zM94 0v1434h979v-299h-651v-246h592v-293h-592v-297h651l-59 -299h-920z" />
    <glyph glyph-name="EacuteM.calt" horiz-adv-x="1093" 
d="M406 1524l186 250h336l-281 -250h-241zM94 0v1434h979v-299h-651v-246h592v-293h-592v-297h651l-59 -299h-920z" />
    <glyph glyph-name="EcircumflexM.calt" horiz-adv-x="1093" 
d="M676 1524l-94 114l-95 -114h-286l231 252h207q42 0 70.5 -12t58.5 -42l197 -198h-289zM94 0v1434h979v-299h-651v-246h592v-293h-592v-297h651l-59 -299h-920z" />
    <glyph glyph-name="EdieresisM.calt" horiz-adv-x="1093" 
d="M793 1487q-71 0 -118.5 49.5t-47.5 124.5q0 74 48 125t118 51q69 0 117 -51t48 -125t-48 -124t-117 -50zM350 1487q-71 0 -118.5 49.5t-47.5 124.5q0 74 48 125t118 51q69 0 117.5 -51.5t48.5 -124.5q0 -74 -48 -124t-118 -50zM94 0v1434h979v-299h-651v-246h592v-293
h-592v-297h651l-59 -299h-920z" />
    <glyph glyph-name="EW.calt" horiz-adv-x="1124" 
d="M94 0v1434h934l45 -299h-651v-246h592v-293h-592v-297h651v-299h-979z" />
    <glyph glyph-name="EgraveW.calt" horiz-adv-x="1124" 
d="M500 1511l-234 258h246q77 0 113 -65l110 -193h-235zM94 0v1434h934l45 -299h-651v-246h592v-293h-592v-297h651v-299h-979z" />
    <glyph glyph-name="EacuteW.calt" horiz-adv-x="1124" 
d="M406 1524l186 250h336l-281 -250h-241zM94 0v1434h934l45 -299h-651v-246h592v-293h-592v-297h651v-299h-979z" />
    <glyph glyph-name="EcircumflexW.calt" horiz-adv-x="1124" 
d="M676 1524l-94 114l-95 -114h-286l231 252h207q42 0 70.5 -12t58.5 -42l197 -198h-289zM94 0v1434h934l45 -299h-651v-246h592v-293h-592v-297h651v-299h-979z" />
    <glyph glyph-name="EdieresisW.calt" horiz-adv-x="1124" 
d="M793 1487q-71 0 -118.5 49.5t-47.5 124.5q0 74 48 125t118 51q69 0 117 -51t48 -125t-48 -124t-117 -50zM350 1487q-71 0 -118.5 49.5t-47.5 124.5q0 74 48 125t118 51q69 0 117.5 -51.5t48.5 -124.5q0 -74 -48 -124t-118 -50zM94 0v1434h934l45 -299h-651v-246h592v-293
h-592v-297h651v-299h-979z" />
    <glyph glyph-name="EV.calt" horiz-adv-x="1103" 
d="M94 0v1434h893l86 -299h-651v-246h592v-293h-592v-297h651v-299h-979z" />
    <glyph glyph-name="EgraveV.calt" horiz-adv-x="1103" 
d="M500 1511l-234 258h246q77 0 113 -65l110 -193h-235zM94 0v1434h893l86 -299h-651v-246h592v-293h-592v-297h651v-299h-979z" />
    <glyph glyph-name="EacuteV.calt" horiz-adv-x="1103" 
d="M406 1524l186 250h336l-281 -250h-241zM94 0v1434h893l86 -299h-651v-246h592v-293h-592v-297h651v-299h-979z" />
    <glyph glyph-name="EcircumflexV.calt" horiz-adv-x="1103" 
d="M676 1524l-94 114l-95 -114h-286l231 252h207q42 0 70.5 -12t58.5 -42l197 -198h-289zM94 0v1434h893l86 -299h-651v-246h592v-293h-592v-297h651v-299h-979z" />
    <glyph glyph-name="EdieresisV.calt" horiz-adv-x="1103" 
d="M793 1487q-71 0 -118.5 49.5t-47.5 124.5q0 74 48 125t118 51q69 0 117 -51t48 -125t-48 -124t-117 -50zM350 1487q-71 0 -118.5 49.5t-47.5 124.5q0 74 48 125t118 51q69 0 117.5 -51.5t48.5 -124.5q0 -74 -48 -124t-118 -50zM94 0v1434h893l86 -299h-651v-246h592v-293
h-592v-297h651v-299h-979z" />
    <glyph glyph-name="TW.calt" horiz-adv-x="1136" 
d="M401 0v1126l-370 45v263h1030l39 -263l-371 -45v-1126h-328z" />
    <glyph glyph-name="TV.calt" horiz-adv-x="1110" 
d="M401 0v1126l-370 45v263h995l74 -263l-371 -45v-1126h-328z" />
    </font>
</defs>
</svg>
