<?xml version="1.0" standalone="no"?>
<!DOCTYPE svg PUBLIC "-//W3C//DTD SVG 1.1//EN" "http://www.w3.org/Graphics/SVG/1.1/DTD/svg11.dtd" >
<svg xmlns="http://www.w3.org/2000/svg" xmlns:xlink="http://www.w3.org/1999/xlink" version="1.1">
<metadata>
Created by FontForge 20201107 at Sat Jun  3 18:09:22 2017
 By 
Copyright 2016 LATAM Airlines. All Rights Reserved.
</metadata>
<defs>
<font id="LatamIcons-Bold" horiz-adv-x="1200" >
  <font-face 
    font-family="Latam Icons Bold"
    font-weight="400"
    font-stretch="normal"
    units-per-em="1000"
    panose-1="0 0 0 0 0 0 0 0 0 0"
    ascent="750"
    descent="-250"
    cap-height="700"
    bbox="7 -139 1165.73 813"
    underline-thickness="63"
    underline-position="-93"
    unicode-range="U+000D-E2BF"
  />
<missing-glyph horiz-adv-x="500" 
d="M450 750v-750h-400v750h400zM100 700v-650h300v650h-300z" />
    <glyph glyph-name="uniE000" unicode="SEC&#x30;&#x30;&#x31;" 
d="M962 447q0 -8 -6 -14t-14 -6q-9 0 -15 6t-6 14q0 23 -17 39.5t-41 16.5q-9 0 -15 6.5t-6 14.5q0 47 -35 80t-84 33q-8 0 -14 6t-6 14q0 9 6 15t14 6q60 0 106 -39t53 -96q35 -7 57.5 -34t22.5 -62zM870 4q0 -9 -6 -15t-14 -6q-4 0 -8 1.5t-7 4.5l-563 563q-3 3 -4.5 7
t-1.5 8q0 8 6 14t15 6q4 0 7.5 -1.5t7.5 -4.5l213 -214h229q8 0 14 -6t6 -15v-131q0 -8 -6 -14t-14 -6h-57l177 -177q3 -3 4.5 -6.5t1.5 -7.5zM541 215q0 -8 -6 -14t-15 -6h-231q-23 0 -37 13.5t-14 34.5v103q0 9 6.5 15t14.5 6h133q9 0 15 -6t6 -15q0 -8 -6 -14t-15 -6
h-112v-83q0 -4 2.5 -5.5t6.5 -1.5h231q9 0 15 -6t6 -15zM870 215q0 -8 -6 -14t-14 -6q-9 0 -15 6t-6 14v131q0 9 6 15t15 6q8 0 14 -6t6 -15v-131zM962 215q0 -8 -6 -14t-14 -6q-9 0 -15 6t-6 14v131q0 9 6 15t15 6q8 0 14 -6t6 -15v-131zM556 326l90 -90h77v90h-167z" />
    <glyph glyph-name="uniE001" unicode="SEC&#x30;&#x30;&#x32;" 
d="M957 -11q-4 -4 -7.5 -5.5t-7.5 -1.5t-7.5 1.5t-6.5 4.5l-96 92l-51 -49q-2 -2 -6 -3.5t-8 -1.5t-8 1.5t-6 3.5l-262 252q-6 5 -6.5 13.5t5.5 15.5q3 3 7 4.5t8 1.5t7.5 -1.5t6.5 -4.5l248 -237l80 76q4 4 6.5 9t2.5 10t-3 11t-8 11l-281 268l-166 -159q-3 -3 -6.5 -4.5
t-7.5 -1.5q-9 0 -15 6.5t-6 15.5q0 4 1.5 7.5t5.5 6.5l52 49l-106 102l-44 -43q-3 -3 -6.5 -4.5t-7.5 -1.5q-8 0 -14.5 6.5t-6.5 15.5q0 4 1.5 7.5t4.5 6.5l213 204q4 2 8 3.5t8 1.5q8 0 13.5 -6t5.5 -14q0 -4 -1.5 -8t-4.5 -7l-44 -41l106 -101l54 51q6 6 14.5 5.5
t14.5 -6.5t5.5 -14.5t-6.5 -14.5l-36 -34l281 -267q23 -22 23.5 -50.5t-22.5 -49.5l-14 -13l95 -90q6 -6 6.5 -14.5t-5.5 -14.5zM518 472l-106 102l-66 -64l105 -102z" />
    <glyph glyph-name="uniE002" unicode="SEC&#x30;&#x30;&#x33;" 
d="M856 389q-10 -75 -36.5 -136t-61.5 -104.5t-76 -67t-79 -23.5q-39 0 -83 27.5t-84 75.5q-46 54 -69.5 142t-23.5 201q0 4 1.5 8t4.5 7q41 38 110.5 61t144.5 23q74 0 132.5 -17t101.5 -51q7 -5 7.5 -13.5t-4.5 -15.5t-13.5 -7.5t-15.5 4.5q-38 29 -90 44t-118 15
t-125 -18.5t-95 -48.5q1 -101 22.5 -181t60.5 -127q34 -40 70.5 -64t65.5 -24q28 0 64 23.5t71 64.5q29 35 48.5 87t28.5 120q1 9 7.5 14t15.5 4q8 -1 13.5 -8t4.5 -15zM590 246q-4 -4 -8 -6.5t-9 -2.5t-9.5 2.5t-8.5 7.5l-48 77q-5 8 -2.5 16.5t9.5 12.5q7 5 15.5 2.5
t12.5 -9.5l31 -50l109 165q5 7 13.5 8.5t15.5 -2.5q7 -5 9 -13.5t-3 -15.5z" />
    <glyph glyph-name="uniE003" unicode="SEC&#x30;&#x30;&#x34;" 
d="M1076 393q0 -8 -6.5 -14t-14.5 -6h-155v-78h155q8 0 14.5 -6t6.5 -14q0 -9 -6.5 -15t-14.5 -6h-155v-47q0 -8 -6 -14.5t-14 -6.5h-92q-20 0 -32.5 12.5t-12.5 33.5v24h-86q-8 0 -14 6t-6 14v114q0 8 6 14t14 6h40q9 0 15 -6t6 -14q0 -9 -6 -15t-15 -6h-19v-72h65v157
q0 8 6 14.5t15 6.5h90q21 0 33.5 -13t12.5 -34v-14h155q8 0 14.5 -6t6.5 -15zM580 232q0 -21 -12.5 -33.5t-32.5 -12.5h-203q-9 0 -15 6.5t-6 14.5v47h-166q-9 0 -15 6t-6 15q0 8 6 14t15 6h166v78h-166q-9 0 -15 6t-6 14q0 9 6 15t15 6h166v14q0 21 13 34t33 13h202
q8 0 14.5 -6.5t6.5 -14.5v-51q0 -8 -6.5 -14t-14.5 -6t-14 6t-6 14v30h-186v-1q-1 -1 -1 -2v-2v-201h183h1.5t1.5 1l1 1v38q0 9 6 15t14 6t14.5 -6t6.5 -15v-35zM785 229v-1h1l1 -1h1h71v201v3.5t-1 1.5h-74v-201v-1.5t1 -1.5z" />
    <glyph glyph-name="uniE004" unicode="SEC&#x30;&#x30;&#x35;" 
d="M921 69q0 -37 -20.5 -58.5t-56.5 -21.5h-545q-8 0 -14 6t-6 15v436q0 38 21.5 59.5t57.5 21.5h114v71q0 7 4.5 12.5t11.5 7.5l215 53q8 3 16.5 -3t8.5 -17v-144q0 -9 -6 -15t-14 -6h-350q-20 0 -29 -10t-9 -30v-416h524q19 0 27.5 9.5t8.5 29.5v417h-64q-8 0 -14 6t-6 15
q0 8 6 14t14 6h84q9 0 15 -6t6 -14v-438zM687 625l-174 -43v-55h174v98zM675 114q0 -8 -6 -14.5t-15 -6.5h-109q-8 0 -14 6.5t-6 14.5v72h-73q-8 0 -14 6t-6 15v109q0 8 6 14t14 6h73v73q0 8 6 14t14 6h109q9 0 15 -6t6 -14v-73h72q8 0 14.5 -6t6.5 -14v-109q0 -9 -6.5 -15
t-14.5 -6h-72v-72zM545 227q8 0 14.5 -6t6.5 -14v-72h68v72q0 8 6 14t14 6h72v68h-72q-8 0 -14 6.5t-6 14.5v72h-68v-72q0 -8 -6.5 -14.5t-14.5 -6.5h-72v-68h72z" />
    <glyph glyph-name="uniE005" unicode="SEC&#x30;&#x30;&#x36;" 
d="M567 593q0 -30 -21.5 -51.5t-51.5 -21.5t-51.5 21.5t-21.5 51.5t21.5 51.5t51.5 21.5t51.5 -21.5t21.5 -51.5zM530 593q0 15 -10.5 25.5t-25.5 10.5t-25.5 -10.5t-10.5 -25.5t10.5 -25.5t25.5 -10.5t25.5 10.5t10.5 25.5zM876 76q-3 -3 -7 -4.5t-8 -1.5q-8 0 -14 6t-6 15
q0 4 1.5 7.5t4.5 6.5l198 199l-175 174v-110q0 -8 -6.5 -14t-14.5 -6h-104v-90h103q8 0 14 -6t6 -14q0 -9 -6 -15t-14 -6h-124q-8 0 -14.5 6t-6.5 15v130q0 9 6.5 15t14.5 6h105v139q0 13 12.5 18.5t22.5 -4.5l225 -223q3 -3 4.5 -7t1.5 -8t-1.5 -8t-4.5 -6zM137 129
q-2 -1 -4.5 -1.5t-4.5 -0.5q-5 0 -10.5 3.5t-7.5 9.5q-4 7 -1 15t11 12l136 59l61 112l61 168q3 8 11 12t16 1l40 -15q33 -11 45 -25.5t21 -52.5l17 -73l85 -33q8 -3 11.5 -11t-0.5 -16q-3 -8 -11 -11.5t-15 0.5l-95 37q-4 1 -7.5 5t-5.5 9l-19 84q-2 10 -4 16.5t-3 10.5
t-3.5 6.5l-4.5 4.5q-3 2 -9 4.5t-16 6.5l-21 7l-55 -150v-1l-1 -1v-1l-65 -120q-1 -2 -3.5 -4.5t-6.5 -4.5zM190 398q-1 -1 -3.5 -1.5t-5.5 -0.5q-13 0 -17.5 9.5t-1.5 17.5q1 4 3.5 7t6.5 5l157 76q8 3 16 0t12 -10t1 -15.5t-11 -11.5zM512 -3q-2 -1 -4.5 -1.5t-4.5 -0.5
q-7 0 -11.5 3t-7.5 9l-95 197l-64 -78q-2 -2 -4.5 -3.5t-4.5 -2.5l-142 -51q-8 -3 -16 1t-10 12q-3 8 0.5 15.5t11.5 10.5l137 49l81 98q7 9 18 7t16 -11l109 -226q4 -8 1.5 -16t-10.5 -12z" />
    <glyph glyph-name="uniE006" unicode="SEC&#x30;&#x30;&#x37;" 
d="M582 617q0 -20 -14.5 -34t-34.5 -14t-34 14t-14 34t14 34t34 14t34.5 -14t14.5 -34zM553 617q0 8 -6 14t-14 6t-13.5 -6t-5.5 -14t5.5 -14t13.5 -6t14 6t6 14zM302 482q-2 -1 -4.5 -1.5t-4.5 -0.5q-11 0 -15.5 8.5t-2.5 15.5q1 4 3 6.5t6 4.5l104 56q6 4 13.5 1.5
t11.5 -9.5t2 -14t-9 -11zM273 300h-4q-12 0 -16 9t-1 16q1 4 3.5 6.5t6.5 3.5l91 40l43 69l41 114q3 7 10 10t14 1l27 -10q15 -5 23.5 -11t14.5 -15l5 -12.5t5 -17.5l13 -46l56 -22q7 -3 10 -9.5t1 -14.5q-3 -7 -10 -10t-14 0l-65 25q-4 2 -7 5t-4 7l-16 55v1q-4 18 -7 21.5
t-17 8.5l-10 4l-36 -99l-2 -3l-46 -75q-2 -3 -4.5 -4.5t-4.5 -2.5l-97 -43q-1 -1 -1.5 -1h-1.5zM955 123q0 -9 -6 -15t-15 -6h-259q-9 0 -15 6t-6 15q0 8 6 14t15 6h239l-1 204l-62 -62q-3 -3 -6.5 -4.5t-7.5 -1.5t-8 1.5t-7 4.5l-74 74l-51 -51l73 -73q3 -3 4.5 -6.5
t1.5 -7.5q0 -9 -6 -15t-14 -6q-4 0 -8 1.5t-7 4.5l-88 88q-3 3 -4.5 7t-1.5 8t1.5 7.5t4.5 6.5l80 80q4 3 7.5 4.5t7.5 1.5q3 0 6.5 -1.5t7.5 -4.5l74 -75l83 82q10 10 22.5 5t12.5 -19zM530 203h-4q-6 0 -10.5 3t-6.5 8l-53 124l-39 -46q-1 -2 -3.5 -3.5t-4.5 -2.5l-97 -35
q-7 -2 -14 1.5t-9 10.5q-3 7 0.5 14t10.5 9l92 33l54 66q7 7 16.5 6.5t15.5 -10.5l65 -152q3 -7 0.5 -14t-10.5 -11q-1 -1 -1.5 -1h-1.5zM650 16q0 -8 -6 -14t-15 -6h-121q-8 0 -14 6t-6 14v66h-100q-9 0 -15 6t-6 14v65h-100q-9 0 -15 6.5t-6 14.5t6 14.5t15 6.5h121
q8 0 14 -6.5t6 -14.5v-65h100q9 0 15 -6.5t6 -14.5v-65h100q9 0 15 -6.5t6 -14.5z" />
    <glyph glyph-name="uniE007" unicode="SEC&#x30;&#x30;&#x38;" 
d="M473 118q5 -38 17.5 -67.5t27.5 -40.5q5 -3 7.5 -7.5t2.5 -10.5q0 -11 -7 -17t-17 -4q-54 9 -97 44.5t-66 84.5q-24 49 -23.5 104.5t16.5 101.5q15 46 38 83t48 70q24 32 43.5 63t30.5 66q5 17 7.5 37.5t1.5 42.5q0 11 8.5 17.5t17.5 3.5q68 -19 137 -72t118 -118
q49 -66 75.5 -133.5t26.5 -129.5q0 -104 -57 -172t-161 -92l-1 -1h-1h-3q-7 0 -13 5t-7 11q-2 8 2.5 15.5t12.5 9.5q92 21 139.5 78t47.5 146q0 78 -45.5 162t-114.5 150q-35 32 -70 55.5t-70 36.5q-2 -44 -16 -79.5t-34 -66.5q-10 -16 -20.5 -31t-21.5 -29q-23 -31 -45 -65
t-36 -75q-7 -21 -10.5 -45t-3.5 -50q0 -47 25.5 -92.5t66.5 -71.5q-12 30 -18.5 86.5t9.5 110.5q7 28 20 50t30 38q8 8 19.5 4.5t14.5 -15.5q4 -21 13 -39t23 -33q17 28 24 80.5t0 103.5q-1 9 5 16t15 7q4 0 6.5 -1t4.5 -2q50 -29 82 -83t40 -117q4 -32 2 -63t-10 -62
q-2 -8 -9.5 -12t-16.5 -2q-8 2 -12 9t-2 16q9 34 8.5 70t-8.5 69t-23.5 62.5t-36.5 50.5q1 -63 -13 -113t-39 -73q-4 -4 -9.5 -5t-12.5 1q-17 8 -31.5 26.5t-27.5 46.5q-16 -29 -22 -65t-2 -79z" />
    <glyph glyph-name="uniE008" unicode="SEC&#x30;&#x30;&#x39;" 
d="M899 365q-2 -7 -7 -10t-12 -3h-89q-9 0 -15 6t-6 15q0 8 6 14t15 6h75l40 104q1 4 2 7.5t1 7.5q0 6 -3.5 11t-13.5 5q-4 0 -8 -1.5t-7 -4.5q-4 -3 -8.5 -9t-10.5 -15q-4 -5 -8 -7.5t-9 -2.5h-288q-22 0 -36 -5.5t-17 -15.5q-1 -9 -12 -13.5t-19 1.5q-13 8 -29 10t-30 0
q-7 -1 -11.5 -2.5t-6.5 -3.5q-4 -2 -7.5 -3.5t-7.5 -1.5q-9 0 -14.5 6.5t-5.5 15.5q0 4 1.5 7.5t5.5 6.5q15 14 46.5 17t60.5 -7q13 15 33.5 22.5t48.5 7.5h277q14 21 28.5 30t33.5 9q31 0 48.5 -24t4.5 -63zM649 436q0 -8 -5 -13.5t-13 -5.5h-87q-8 0 -13 5.5t-5 13.5
t5.5 13t12.5 5h87q8 0 13 -5t5 -13zM492 176q-6 -39 -29 -62t-53 -23h-86q-25 0 -42 10t-25 29q-4 10 -6 24.5t-2 33.5q0 40 24 89.5t58 88.5q17 19 35 33t37 24q8 4 16 1t12 -11q4 -7 1 -15t-11 -12q-34 -17 -64.5 -53.5t-48.5 -75.5q-9 -20 -13.5 -37.5t-4.5 -31.5
q0 -10 0.5 -18.5t1.5 -14.5q2 -12 8 -17t24 -5h86q15 0 26.5 13.5t14.5 35.5v4t1 4v8q5 46 15.5 69.5t29.5 38.5q9 7 20 12t24 7q5 1 9 0t7 -4q4 -2 6 -5.5t3 -8.5q3 -29 21 -48.5t44 -19.5q30 0 48 17.5t18 47.5v69q0 8 6 14t15 6q8 0 14.5 -6t6.5 -14l-1 -69
q0 -23 -7.5 -42.5t-22.5 -33.5q-14 -16 -33.5 -23.5t-43.5 -7.5q-35 0 -62.5 21.5t-38.5 58.5q-8 -4 -14 -10.5t-10 -14.5t-7 -23t-5 -36q-1 -4 -1.5 -8t-0.5 -9zM649 373q0 -8 -5 -13.5t-13 -5.5h-87q-8 0 -13 5.5t-5 13.5t5.5 13t12.5 5h87q8 0 13 -5t5 -13z" />
    <glyph glyph-name="uniE009" unicode="SEC&#x30;&#x31;&#x30;" 
d="M561 640q0 -28 -19.5 -47t-46.5 -19q-28 0 -47.5 19t-19.5 47t19.5 47t47.5 19q27 0 46.5 -19t19.5 -47zM644 234q-1 -1 -14 -6t-30 -10.5t-35 -10t-28 -4.5q-12 0 -23.5 3t-21.5 8q-22 11 -37 31.5t-24 49.5l-108 356q-2 8 2 15.5t11 9.5q9 2 16.5 -2t9.5 -12l108 -355
q14 -44 39.5 -57t59.5 0q16 5 27.5 9.5t18.5 6.5t10.5 3.5l3.5 1.5q8 4 16 0.5t11 -11.5t-0.5 -15.5t-11.5 -10.5zM520 640q0 11 -7.5 18.5t-17.5 7.5t-18 -7.5t-8 -18.5q0 -10 8 -18t18 -8t17.5 7.5t7.5 18.5zM818 260q-1 -1 -1.5 -1h-1.5q-7 0 -12.5 3.5t-7.5 10.5l-34 97
q-7 16 -19 24t-28 8h-107q-7 0 -12.5 4t-7.5 11l-22 78q-2 12 -14.5 18.5t-26.5 2.5l-18 -6l41 -132l110 -16q8 -2 13 -9t4 -15t-7.5 -13t-15.5 -4l-123 19q-6 1 -10 4.5t-6 9.5l-51 164q-2 8 2 15.5t12 9.5l37 12q16 4 30.5 3t28.5 -8q13 -8 21.5 -19t12.5 -25l18 -63h91
q31 -1 52.5 -16t32.5 -43l35 -98q3 -7 -0.5 -15t-11.5 -11h-4zM771 104q-20 -15 -35 -21t-31 -6q-14 0 -28 5t-35 21q-11 8 -20.5 14t-21.5 6h-2q-10 -1 -18.5 -6.5t-18.5 -13.5q-13 -9 -28 -17t-35 -9q-22 1 -38 9t-29 18q-14 11 -22 15t-16 4q-16 0 -28 -7.5t-30 -30.5
q-5 -6 -13.5 -7t-15.5 4q-6 5 -7 13.5t4 15.5q26 31 45.5 42t44.5 11q15 0 28.5 -5.5t34.5 -21.5q12 -10 22.5 -14.5t19.5 -4.5q4 0 7.5 1t7.5 2t9.5 5t13.5 10q12 9 26.5 17.5t34.5 10.5h9q19 -2 34 -10.5t26 -17.5q8 -6 14.5 -10t10.5 -5t7 -2t7 -1q9 0 17.5 3.5
t23.5 15.5q21 16 35 21.5t29 5.5q25 0 45 -11.5t44 -41.5q5 -7 4.5 -15.5t-7.5 -13.5t-15.5 -4t-13.5 7q-17 22 -28.5 30t-28.5 8q-9 0 -17 -4t-22 -15zM564 -19q-21 -16 -34.5 -21.5t-28.5 -5.5q-26 0 -46 11.5t-44 41.5q-5 7 -4.5 15.5t7.5 13.5t15.5 4t13.5 -7
q19 -23 30 -30.5t28 -7.5q8 0 16 4t22 15q12 9 27.5 17.5t36.5 9.5h2q15 0 29.5 -5.5t36.5 -21.5q8 -6 14 -10t10 -5q4 -2 7.5 -3t7.5 -1q16 0 28 7.5t30 30.5q5 6 13.5 7t15.5 -4q6 -5 7 -13.5t-4 -15.5q-26 -31 -45.5 -42t-44.5 -11q-15 0 -28.5 5.5t-34.5 21.5
q-17 12 -25 15.5t-17 3.5q-8 0 -18.5 -4.5t-22.5 -14.5z" />
    <glyph glyph-name="uniE00A" unicode="SEC&#x30;&#x31;&#x31;" 
d="M621 504q0 -8 -6 -14t-14 -6q-9 0 -15 6t-6 14v93q0 8 6 14.5t15 6.5q8 0 14 -6.5t6 -14.5v-93zM507 440q-2 -1 -5 -2t-5 -1q-5 0 -9.5 2.5t-8.5 7.5l-48 80q-4 7 -1.5 15.5t8.5 12.5q8 5 16.5 2.5t12.5 -9.5l47 -80q4 -7 2.5 -15t-9.5 -13zM723 447q-4 -5 -8.5 -7.5
t-9.5 -2.5h-2.5t-2.5 1t-3 1t-3 1q-7 5 -9 13t2 15l48 80q5 8 13 9.5t15 -2.5t9.5 -12.5t-2.5 -15.5zM853 62q0 -8 -6.5 -14t-14.5 -6h-463q-9 0 -15 6t-6 14q0 9 6 15t15 6h51q19 76 35 139t28 112q8 29 21.5 40t36.5 11h130q24 0 38 -12t20 -39l35 -139q2 -8 -2.5 -15.5
t-12.5 -9.5t-15.5 2.5t-9.5 12.5l-35 139q-3 14 -5.5 17t-12.5 3h-130q-10 0 -12.5 -3.5t-5.5 -16.5l-60 -241h369q8 0 14.5 -6t6.5 -15zM550 145q-1 -7 -6.5 -11.5t-13.5 -4.5h-2h-1.5t-1.5 1q-8 2 -12.5 9.5t-2.5 15.5q6 23 12.5 48.5t12.5 48.5q2 11 5 21.5t5 18.5
q1 8 8.5 12.5t16.5 2.5q8 -2 12.5 -9.5t2.5 -15.5t-5 -18.5t-5 -21.5q-6 -23 -12.5 -48.5t-12.5 -48.5z" />
    <glyph glyph-name="uniE00B" unicode="SEC&#x30;&#x31;&#x32;" 
d="M462 -27q-20 -11 -42.5 -17t-45.5 -6q-36 0 -68.5 14t-57 38.5t-38.5 57t-14 68.5q0 43 19 80.5t53 62.5v334q0 44 31 75t75 31t75.5 -31t31.5 -75q0 -9 -6.5 -15t-14.5 -6t-14 6t-6 15q0 27 -19.5 46t-46.5 19t-46 -19t-19 -46v-344q0 -5 -2.5 -9.5t-7.5 -8.5
q-29 -19 -45.5 -49.5t-16.5 -65.5q0 -56 40 -96.5t97 -40.5t97 40.5t40 96.5q0 35 -16.5 65.5t-45.5 49.5q-4 3 -6.5 7.5t-2.5 10.5v72q0 8 6 14t14 6t14.5 -6t6.5 -14v-62q34 -25 53 -62.5t19 -80.5q0 -50 -25.5 -91t-65.5 -64zM763 180q5 -6 7 -10t2 -10q0 -10 -7.5 -15
t-16.5 -3q-37 7 -65.5 30t-44.5 57q-8 16 -12 33.5t-4 34.5q0 41 13 78t55 94q34 45 44 72.5t8 57.5q0 11 8.5 17.5t17.5 3.5q57 -16 114.5 -68.5t89.5 -113.5q16 -31 24 -60.5t8 -57.5q0 -69 -39 -115.5t-108 -62.5h-4q-8 0 -13.5 4.5t-6.5 11.5q-2 8 2 15t13 9
q56 14 85.5 49t29.5 89q0 48 -27 99t-68 92q-21 20 -42 35t-43 25q-2 -18 -8 -36.5t-16 -37.5q-5 -10 -14 -23t-22 -30q-38 -51 -49 -81.5t-11 -65.5q0 -26 12 -51t32 -42q-4 13 -6 28t-3 31q-1 38 8.5 67t29.5 49q8 8 20 5t15 -15q2 -10 5.5 -18.5t8.5 -16.5q8 18 11 47
t-1 58q-1 5 1.5 10.5t7.5 8.5q4 4 9.5 4.5t11.5 -3.5q22 -12 39.5 -34t28 -50t14 -60t-2.5 -63q-2 -8 -9 -13t-15 -4q-8 2 -13 9t-4 15q6 34 -1 70.5t-24 62.5q-2 -38 -11 -64.5t-25 -40.5q-5 -4 -10.5 -5t-11.5 2q-9 4 -17.5 12.5t-16.5 22.5q-7 -23 -6.5 -51t7.5 -52
q4 -12 8 -21t8 -15zM395 167q10 -5 16.5 -15.5t6.5 -22.5q0 -18 -13 -30.5t-31 -12.5t-30.5 12.5t-12.5 30.5q0 13 6 22.5t17 16.5v422q0 8 6 14t14 6t14.5 -6t6.5 -14v-423zM496 524q0 -8 -6 -14.5t-15 -6.5h-41q-8 0 -14 6.5t-6 14.5t6 14.5t14 6.5h41q9 0 15 -6.5
t6 -14.5zM496 420q0 -8 -6 -14t-15 -6h-41q-8 0 -14 6t-6 14q0 9 6 15t14 6h41q9 0 15 -6t6 -15z" />
    <glyph glyph-name="uniE00C" unicode="SEC&#x30;&#x31;&#x33;" 
d="M407 114q-1 -7 -6.5 -12t-13.5 -5h-3q-63 11 -97 41.5t-34 76.5q0 38 29.5 70.5t87.5 60.5q10 66 44 119.5t82 70.5l1 11q1 19 11 32.5t42 28.5l16 7q20 10 33 16t18 7q4 1 9.5 2t10.5 1q23 0 36 -14.5t14 -42.5l4 -77q1 -8 -4.5 -14.5t-14.5 -7.5t-15 5t-7 15l-4 78
q-1 5 -1 8.5t-1 5.5q-1 1 -3 2t-4 1q-3 0 -6 -0.5t-6 -1.5q-4 -1 -14.5 -6.5t-27.5 -13.5l-16 -7q-10 -4 -15.5 -7.5t-7.5 -5.5t-3.5 -5.5t-2.5 -7.5l-2 -26q0 -6 -4 -11.5t-11 -7.5q-30 -7 -53 -32t-38 -62q-8 -19 -13.5 -38.5t-7.5 -38.5q-1 -5 -4 -9.5t-8 -6.5
q-50 -22 -76.5 -47t-26.5 -51q0 -31 24 -50t72 -27q9 -1 14 -8t3 -16zM948 215q0 -46 -34 -77t-97 -41h-3q-8 0 -14 5t-7 12q-1 9 4 16t14 8q48 8 72 27t24 50q0 26 -26.5 51t-76.5 47q-5 2 -8 6.5t-4 9.5v4q-6 54 -15 82t-22 47q-7 10 -15 17t-18 12q-8 5 -10 13t2 15
q4 8 12 10.5t15 -1.5q25 -14 43 -37t30 -56q5 -17 9.5 -39.5t8.5 -50.5q57 -26 86.5 -59t29.5 -71zM665 412q-4 -25 -21.5 -39t-44.5 -14q-31 0 -52.5 24t-14.5 80q1 7 6.5 12t13.5 5h49q8 0 14.5 -6t6.5 -14q0 -9 -6.5 -15t-14.5 -6h-30q0 -20 7.5 -29.5t20.5 -9.5
q12 0 18 4.5t8 15.5q2 9 9 13.5t15 2.5q9 -2 13.5 -9t2.5 -15zM688 43q-20 -11 -42 -17t-45 -6q-50 0 -92.5 25t-65.5 69q-4 8 -1 16t10 12q8 4 16 1.5t12 -9.5q17 -34 50 -53.5t71 -19.5q56 0 96 40t40 96q0 20 -3 39t-8 36q-46 11 -88.5 14.5t-76.5 0.5q-17 -1 -33 -3.5
t-29 -5.5t-20.5 -5t-8.5 -3q-8 -3 -15.5 0.5t-11.5 11.5q-3 8 0.5 15.5t11.5 10.5q30 12 80 18t102 2q26 -2 52.5 -6.5t53.5 -11.5q5 -1 9 -3t7 -6l3 -7q8 -23 12 -47.5t4 -49.5q0 -50 -25 -91t-65 -63z" />
    <glyph glyph-name="uniE00D" unicode="SEC&#x30;&#x31;&#x34;" 
d="M562 555q-4 -1 -8.5 -1.5t-9.5 -0.5q-40 0 -66.5 25.5t-26.5 63.5t25.5 63t63.5 25q39 0 65.5 -25.5t26.5 -62.5q0 -9 -6 -15t-14 -6q-9 0 -15 6t-6 15q0 20 -14.5 33.5t-36.5 13.5q-21 0 -34 -13t-13 -34t14.5 -34.5t36.5 -13.5h2.5t2.5 1h4q9 2 16 -2.5t9 -13.5
q2 -8 -3 -15.5t-13 -8.5zM730 -49q0 -9 -6 -15t-14 -6h-291q-8 0 -14 6t-6 15v346q0 54 8.5 83.5t26.5 47.5q8 8 19.5 14t24.5 9v26q-84 -4 -126.5 -43t-42.5 -113q0 -9 -6 -15t-15 -6q-8 0 -14 6t-6 15q0 93 58.5 145.5t171.5 52.5q7 0 12.5 -4.5t7.5 -11.5h1v-70
q0 -8 -5.5 -14t-13.5 -7q-24 -2 -36.5 -13t-17.5 -35q-3 -13 -4.5 -29.5t-1.5 -37.5v-326h249v326q0 40 -5 64.5t-17 36.5q-7 6 -16 9.5t-22 4.5q-8 1 -13.5 7t-5.5 14v109q0 9 6 15t15 6h54v27q0 8 4.5 13.5t11.5 6.5l161 37q34 9 52 -5.5t18 -37.5v-109q0 -8 -6 -14.5
t-14 -6.5q-9 0 -15 6.5t-6 14.5v113q-2 2 -7 1.5t-12 -2.5l-146 -34v-64l88 -17q8 -1 13 -8.5t3 -15.5q-1 -7 -7 -12t-13 -5h-2h-1l-1 1l-105 20q-7 2 -11.5 7.5t-4.5 12.5v30h-34v-71q27 -6 44.5 -23.5t26.5 -46.5q4 -14 6 -35t2 -49v-346z" />
    <glyph glyph-name="uniE00E" unicode="SEC&#x30;&#x31;&#x35;" 
d="M858 170q-1 -20 -14 -33t-35 -13h-15l53 -53q3 -3 4.5 -6.5t1.5 -7.5q0 -9 -6 -15t-15 -6q-4 0 -7.5 1.5t-6.5 4.5l-357 357q-4 -8 -6 -18t-2 -23q0 -35 19 -53.5t56 -18.5q8 0 14 -6t6 -15q0 -8 -6 -14t-14 -6q-54 0 -85 30t-31 83q0 20 4.5 37.5t14.5 32.5l-69 69
q-19 -23 -28 -57.5t-9 -78.5q0 -87 55 -142t142 -55h85q8 0 14 -6t6 -14q0 -9 -6 -15t-14 -6h-85q-72 0 -126 30.5t-83 84.5q-14 27 -21.5 58t-7.5 65q0 53 12 94.5t37 70.5l-62 63q-3 3 -4.5 7t-1.5 8q0 8 6 14t15 6q4 0 7.5 -1.5t6.5 -4.5l63 -63q28 22 65 33t83 12h326
q8 0 14.5 -6t6.5 -15v-100q-1 -20 -14 -33t-35 -13h-281q-9 0 -18 -1.5t-19 -5.5l136 -135h210q8 0 14.5 -6t6.5 -14v-101zM936 453q0 -8 -6 -14t-14 -6q-9 0 -15 6t-6 14v126q0 9 6 15t15 6q8 0 14 -6t6 -15v-126zM528 474h186v85h-202q-37 -1 -67 -9.5t-53 -24.5l68 -68
q14 8 31 12.5t37 4.5zM817 559h-62v-85h54q2 0 4 0.5t3 1.5t1 1.5v1.5v80zM936 145q0 -9 -6 -15t-14 -6q-9 0 -15 6t-6 15v126q0 8 6 14t15 6q8 0 14 -6t6 -14v-126zM755 250v-85h54q2 0 4 0.5t3 1.5t1 1.5v1.5v80h-62zM714 250h-46l46 -46v46z" />
    <glyph glyph-name="uniE00F" unicode="SEC&#x30;&#x31;&#x36;" 
d="M629 23q-5 -3 -10.5 -4.5t-11.5 -1.5q-7 0 -14.5 2.5t-14.5 6.5l-1 1l-91 64q-7 5 -8.5 13.5t3.5 15.5t13.5 8.5t14.5 -3.5l92 -65q2 -1 4 -1.5t4 -0.5q1 1 1.5 3t0.5 4v518l-189 -132l-6 -2t-6 -1h-112q-5 0 -8 -3t-3 -10v-226h87q8 0 14.5 -6.5t6.5 -14.5t-6.5 -14
t-14.5 -6h-108q-8 0 -14 6t-6 14v247q0 24 14.5 39t37.5 15h106l216 151q9 6 20.5 0.5t11.5 -17.5v-558q0 -14 -6 -25t-17 -17zM767 445q-2 -1 -5 -2t-5 -1q-12 0 -17.5 8.5t-2.5 17.5q1 4 3 7t6 5l101 60q8 5 16 2.5t12 -9.5t2.5 -15t-9.5 -13zM954 330q0 -8 -6.5 -14
t-14.5 -6h-117q-9 0 -15 6t-6 14t6 14.5t15 6.5h117q8 0 14.5 -6.5t6.5 -14.5zM875 127q-4 -5 -8.5 -7.5t-9.5 -2.5q-2 0 -5 1t-5 2l-101 60q-7 4 -9.5 12.5t2.5 16.5q5 7 13 9t15 -2l101 -61q7 -4 9.5 -12t-2.5 -16z" />
    <glyph glyph-name="uniE010" unicode="SEC&#x30;&#x31;&#x37;" 
d="M685 415q-4 -5 -8.5 -7.5t-9.5 -2.5q-2 0 -5 1t-5 2q-25 15 -55.5 15.5t-60.5 -15.5q-8 -5 -16.5 -2.5t-11.5 10.5l-43 76q-4 8 -1.5 16t9.5 12t15.5 2t12.5 -10l33 -59q31 12 62 11.5t58 -12.5l88 146q-34 17 -69.5 26t-73.5 10q-46 0 -87 -10.5t-78 -32.5
q-8 -4 -16 -1.5t-12 9.5t-2 15.5t10 12.5q43 24 90 36.5t95 11.5q49 -1 94 -13.5t88 -37.5q8 -6 9.5 -14.5t-2.5 -13.5zM677 307q0 -31 -22 -53.5t-54 -22.5t-54.5 22t-22.5 54t22.5 54.5t54.5 22.5q31 0 53.5 -22.5t22.5 -54.5zM640 307q0 16 -11.5 28t-27.5 12t-28 -11.5
t-12 -28.5q0 -16 12 -28t28 -12t27.5 12t11.5 28zM781 -14q-3 -1 -5.5 -1.5t-5.5 -0.5h-2h-1.5t-1.5 1q-4 1 -7 3t-5 6l-102 184q-4 7 -2 15.5t10 12.5q25 15 41.5 42t16.5 57q0 9 6 15t15 6h75q9 0 15 -6t6 -15q0 -8 -6 -14t-15 -6h-56q-5 -32 -22 -59t-39 -44l82 -149
q63 41 106 113t43 156q1 9 7 14.5t14 5.5q9 0 15 -6t6 -14q-1 -49 -14.5 -95.5t-38.5 -89.5q-25 -41 -59.5 -74.5t-75.5 -56.5zM445 -5q-3 -5 -7.5 -7.5t-10.5 -2.5q-2 0 -5 0.5t-5 1.5q-87 51 -136 136t-49 181q0 9 6 15t15 6h210q8 0 14 -6t6 -14q2 -31 16.5 -57.5
t43.5 -42.5q7 -4 9 -12t-1 -16l-36 -62q-4 -7 -12 -9.5t-16 2.5q-7 4 -9.5 12t1.5 16l26 45q-25 18 -40.5 44.5t-20.5 58.5h-170q5 -75 46 -146t118 -115q7 -5 9 -13t-2 -15z" />
    <glyph glyph-name="uniE011" unicode="SEC&#x30;&#x31;&#x38;" 
d="M430 176q-2 -19 -1.5 -33t4.5 -24q1 -2 1.5 -5t0.5 -5q0 -8 -5.5 -13.5t-13.5 -5.5q-4 0 -8 1.5t-8 3.5q-40 24 -58.5 62t-18.5 95q1 57 16 103t38 82q11 18 23 35t24 33q23 31 42.5 61t29.5 64q5 17 7 36t1 41q0 11 8 18t18 3q42 -12 85.5 -38t83 -61.5t73.5 -79
t58 -88.5q23 -46 35 -89t12 -84q0 -75 -19.5 -122t-61.5 -85q-3 -3 -6.5 -4.5t-7.5 -1.5q-8 0 -14.5 6.5t-5.5 15.5q0 4 1.5 7.5t4.5 6.5q37 34 52.5 73t15.5 104q0 75 -44.5 157.5t-111.5 145.5q-34 31 -67.5 53.5t-67.5 35.5q-2 -42 -15.5 -77t-32.5 -65
q-10 -15 -20 -29.5t-20 -28.5q-32 -43 -47.5 -68.5t-25.5 -50.5t-15 -52.5t-5 -56.5q0 -31 6 -53.5t17 -38.5q2 60 30.5 116.5t76.5 94.5q9 6 19.5 3t13.5 -15q5 -22 14 -39.5t20 -30.5q16 28 23 78.5t0 99.5q-2 12 9 19.5t21 1.5q18 -10 46 -27.5t57 -43.5t49.5 -62
t24.5 -81q1 -23 -3.5 -49t-15.5 -54q-3 -8 -10.5 -11.5t-15.5 0.5q-8 3 -11.5 10.5t-0.5 15.5q30 72 5 132.5t-111 113.5q2 -62 -11.5 -112.5t-38.5 -73.5q-4 -4 -10 -5t-13 1q-16 7 -31.5 27.5t-26.5 48.5q-30 -30 -46.5 -67.5t-20.5 -74.5zM730 61q0 -54 -38 -92t-92 -38
q-53 0 -91 38t-38 92t38 92t91 38q54 0 92 -38t38 -92zM689 61q0 37 -26 63t-63 26t-62.5 -26t-25.5 -63t25.5 -63t62.5 -26t63 26t26 63z" />
    <glyph glyph-name="uniE012" unicode="SEC&#x30;&#x31;&#x39;" 
d="M567 593q0 -30 -21.5 -51.5t-51.5 -21.5t-51.5 21.5t-21.5 51.5t21.5 51.5t51.5 21.5t51.5 -21.5t21.5 -51.5zM530 593q0 15 -10.5 25.5t-25.5 10.5t-25.5 -10.5t-10.5 -25.5t10.5 -25.5t25.5 -10.5t25.5 10.5t10.5 25.5zM876 76q-3 -3 -7 -4.5t-8 -1.5q-8 0 -14 6t-6 15
q0 4 1.5 7.5t4.5 6.5l198 199l-175 174v-110q0 -8 -6.5 -14t-14.5 -6h-104v-90h103q8 0 14 -6t6 -14q0 -9 -6 -15t-14 -6h-124q-8 0 -14.5 6t-6.5 15v130q0 9 6.5 15t14.5 6h105v139q0 13 12.5 18.5t22.5 -4.5l225 -223q3 -3 4.5 -7t1.5 -8t-1.5 -8t-4.5 -6zM137 129
q-2 -1 -4.5 -1.5t-4.5 -0.5q-5 0 -10.5 3.5t-7.5 9.5q-4 7 -1 15t11 12l136 59l61 112l61 168q3 8 11 12t16 1l40 -15q33 -11 45 -25.5t21 -52.5l17 -73l85 -33q8 -3 11.5 -11t-0.5 -16q-3 -8 -11 -11.5t-15 0.5l-95 37q-4 1 -7.5 5t-5.5 9l-19 84q-2 10 -4 16.5t-3 10.5
t-3.5 6.5l-4.5 4.5q-3 2 -9 4.5t-16 6.5l-21 7l-55 -150v-1l-1 -1v-1l-65 -120q-1 -2 -3.5 -4.5t-6.5 -4.5zM190 398q-1 -1 -3.5 -1.5t-5.5 -0.5q-13 0 -17.5 9.5t-1.5 17.5q1 4 3.5 7t6.5 5l157 76q8 3 16 0t12 -10t1 -15.5t-11 -11.5zM512 -3q-2 -1 -4.5 -1.5t-4.5 -0.5
q-7 0 -11.5 3t-7.5 9l-95 197l-64 -78q-2 -2 -4.5 -3.5t-4.5 -2.5l-142 -51q-8 -3 -16 1t-10 12q-3 8 0.5 15.5t11.5 10.5l137 49l81 98q7 9 18 7t16 -11l109 -226q4 -8 1.5 -16t-10.5 -12z" />
    <glyph glyph-name="uniE013" unicode="SEC&#x30;&#x32;&#x30;" 
d="M534 74q0 -9 -6 -15t-15 -6h-295q-8 0 -14.5 6t-6.5 15q0 8 6.5 14t14.5 6h20v331q0 63 24 98.5t75 53.5l68 24q18 7 35.5 5t31.5 -12t21.5 -26t7.5 -34v-177q0 -8 -6 -14t-15 -6q-8 0 -14 6t-6 14v177q0 19 -12 27t-29 2l-68 -24q-25 -9 -41 -22.5t-23 -33.5
q-4 -10 -6 -24.5t-2 -33.5v-331h173v148q0 11 5 14.5t17 10.5q11 7 29 18.5t25 21.5q3 5 4.5 11.5t1.5 14.5v108q0 9 6 15t15 6q8 0 14 -6t6 -15v-108q0 -26 -11 -45t-35 -35l-36 -22v-137h20q9 0 15 -6t6 -14zM1003 74q0 -9 -6 -15t-15 -6h-295q-9 0 -15 6t-6 15q0 8 6 14
t15 6h20v137l-36 22q-24 16 -35 35t-11 45v108q0 9 6 15t14 6q9 0 15 -6t6 -15v-108q0 -16 6.5 -26t20.5 -19q11 -7 19.5 -12t14.5 -9q11 -7 16 -10.5t5 -14.5v-148h173v331q0 37 -7 57t-23 34q-8 7 -18.5 13t-23.5 10l-67 24q-18 6 -30 -3t-12 -26v-177q0 -8 -6 -14t-14 -6
t-14.5 6t-6.5 14v177q0 18 7.5 34t21.5 26t31.5 12t35.5 -5l68 -24q51 -18 75 -53.5t24 -98.5v-331h20q9 0 15 -6t6 -14zM419 153q0 -9 -6 -15t-14 -6h-67q-8 0 -14 6t-6 15q0 8 6 14t14 6h67q8 0 14 -6t6 -14zM888 153q0 -9 -6 -15t-14 -6h-67q-8 0 -14 6t-6 15q0 8 6 14
t14 6h67q8 0 14 -6t6 -14z" />
    <glyph glyph-name="uniE014" unicode="SEC&#x30;&#x32;&#x31;" 
d="M741 131q0 -83 -37 -126t-106 -43q-60 0 -99 38t-39 104v253q0 75 32 118t92 50v133h-24q-9 0 -15 6t-6 14q0 9 6 15t15 6h87q9 0 15 -6t6 -15q0 -8 -6 -14t-15 -6h-22v-48h60v25q0 9 6 15t14 6q9 0 15 -6t6 -15v-88q0 -9 -6 -15t-15 -6q-8 0 -14 6t-6 15v22h-60v-45
q34 -4 60.5 -23.5t40.5 -49.5q7 -15 10.5 -31t3.5 -33v-47q0 -8 -6 -14t-15 -6q-8 0 -14 6t-6 14v43h-197q-1 -3 -1 -6v-6v-266h198q1 3 1 6v7v89q0 8 6.5 14t14.5 6t14 -6t6 -14v-76zM603 485q-35 0 -58.5 -15t-34.5 -46h183q-11 31 -33.5 46t-56.5 15zM568 170
q0 -9 -6 -15t-15 -6q-8 0 -14 6t-6 15v156q0 9 6 15t14 6q9 0 15 -6t6 -15v-156zM598 3q36 0 59.5 15t33.5 46h-182q10 -31 32.5 -46t56.5 -15z" />
    <glyph glyph-name="uniE015" unicode="SEC&#x30;&#x32;&#x32;" 
d="M769 674q0 9 6.5 15.5t15.5 6.5t15.5 -6.5t6.5 -15.5t-6.5 -15.5t-15.5 -6.5t-15.5 6.5t-6.5 15.5zM652 541q0 -8 -6 -14t-15 -6h-158q-8 0 -14 6t-6 14q0 9 6 15t14 6h12v112q0 8 6 14t15 6h97q9 0 15 -6t6 -14v-54q0 -8 -6 -14t-15 -6q-8 0 -14 6t-6 14v33h-57v-91h105
q9 0 15 -6t6 -15zM689 629q0 9 6.5 15.5t15.5 6.5t15.5 -6.5t6.5 -15.5q0 -10 -6.5 -16t-15.5 -6t-15.5 6t-6.5 16zM769 585q0 9 6.5 15.5t15.5 6.5t15.5 -6.5t6.5 -15.5t-6.5 -15.5t-15.5 -6.5t-15.5 6.5t-6.5 15.5zM428 197q0 -8 -6 -14t-15 -6q-8 0 -14 6t-6 14v158
q0 42 19.5 78.5t53.5 59.5q2 1 5 2t6 1h162q3 0 6 -0.5t6 -2.5q34 -23 53.5 -60t19.5 -78v-311q0 -37 -20.5 -58t-56.5 -21h-234q-8 0 -14 6t-6 15v71q0 8 6 14t14 6q9 0 15 -6t6 -14v-51h213q19 0 27.5 9t8.5 29v314q-1 30 -13.5 54t-36.5 43h-149q-23 -17 -36.5 -43.5
t-13.5 -56.5v-158z" />
    <glyph glyph-name="uniE016" unicode="SEC&#x30;&#x32;&#x33;" 
d="M688 -27q-20 -11 -42.5 -17t-45.5 -6q-36 0 -68.5 14t-57 38.5t-38.5 57t-14 68.5q0 43 19 80.5t53 62.5v334q0 44 31.5 75t74.5 31q44 0 75.5 -31t31.5 -75q0 -9 -6 -15t-15 -6q-8 0 -14 6t-6 15q0 27 -19.5 46t-46.5 19t-46 -19t-19 -46v-345q0 -5 -2.5 -9t-6.5 -8
q-30 -19 -46.5 -49.5t-16.5 -65.5q0 -57 40.5 -97t96.5 -40q57 0 97.5 40t40.5 97q0 35 -17 65.5t-46 49.5q-4 3 -6.5 7.5t-2.5 9.5v72q0 9 6 15t14 6q9 0 15 -6t6 -15v-61q34 -25 53 -62.5t19 -80.5q0 -50 -25.5 -91t-65.5 -64zM621 167q10 -5 16.5 -15.5t6.5 -22.5
q0 -18 -13 -31t-31 -13t-30.5 13t-12.5 31q0 13 6 22.5t17 16.5v422q0 8 6 14t14 6q9 0 15 -6t6 -14v-423zM722 524q0 -9 -6 -15t-14 -6h-42q-8 0 -14 6t-6 15q0 8 6 14t14 6h42q8 0 14 -6t6 -14zM722 420q0 -8 -6 -14t-14 -6h-42q-8 0 -14 6t-6 14q0 9 6 15t14 6h42
q8 0 14 -6t6 -15z" />
    <glyph glyph-name="uniE017" unicode="SEC&#x30;&#x32;&#x34;" 
d="M902 143q0 -38 -22.5 -59.5t-59.5 -21.5h-266q-9 0 -15 6t-6 15q0 8 6 14t15 6h266q10 0 18 2.5t13 7.5q5 6 7.5 13.5t2.5 16.5v341h-116q-9 0 -15 6t-6 14q0 9 6 15t15 6h41v14q0 8 -5 13t-13 5h-67q-8 0 -13.5 -5t-5.5 -13v-35q0 -5 -1.5 -9t-5.5 -6l-3 -3l-5 -2h-155
q-8 0 -14.5 6t-6.5 14q0 9 6.5 15t14.5 6h15v14q0 7 -5.5 12.5t-13.5 5.5h-75q-8 0 -13.5 -5.5t-5.5 -12.5v-14h7q8 0 14 -6t6 -15q0 -8 -6 -14t-14 -6h-39q-20 0 -31 -11t-11 -31v-339h80q8 0 14 -6t6 -14q0 -9 -6 -15t-14 -6h-100q-9 0 -15 6t-6 15v359q0 34 20 56.5
t54 25.5v15q0 25 17.5 42t42.5 17h75q25 0 42.5 -17t17.5 -42v-14h73v14q0 25 17.5 42t42.5 17h67q25 0 42 -17t17 -42v-14h54q8 0 14.5 -6t6.5 -15v-361zM542 381q0 -8 -6.5 -14t-14.5 -6h-30v-31q0 -8 -6 -14t-14 -6q-9 0 -15 6t-6 14v31h-30q-8 0 -14.5 6t-6.5 14
t6.5 14.5t14.5 6.5h30v30q0 8 6 14.5t15 6.5q8 0 14 -6.5t6 -14.5v-30h30q8 0 14.5 -6.5t6.5 -14.5zM805 381q0 -8 -6 -14t-14 -6h-101q-9 0 -15 6t-6 14t6 14.5t15 6.5h101q8 0 14 -6.5t6 -14.5z" />
    <glyph glyph-name="uniE018" unicode="SEC&#x30;&#x32;&#x35;" 
d="M828 16q-16 -10 -32.5 -15t-34.5 -5q-8 0 -15.5 1t-14.5 3q-25 5 -43.5 18.5t-31.5 34.5l-12 20t-11 20t-9.5 18t-8.5 15t-6.5 11.5t-3.5 6.5l-1 1v1l-235 403q-16 28 -11.5 49.5t33.5 39.5v1h1l43 24q7 4 14.5 2.5t12.5 -8.5l222 -332l135 248q2 4 3.5 8t2.5 6t0.5 4.5
t-1.5 4.5q-1 1 -5 4t-11 7l-14 9l-108 -185q-4 -7 -12 -9.5t-16 1.5q-7 5 -9 13.5t2 14.5l118 203q4 7 13 9.5t15 -2.5l32 -18q30 -19 35.5 -40t-9.5 -49l-151 -279q-6 -11 -18 -10t-19 12l-228 341l-26 -14q-14 -9 -15.5 -14.5t6.5 -20.5l236 -402q1 -1 1 -1.5v-1.5v-1
l1 -1q8 -15 18 -34.5t22.5 -37.5t27 -32t30.5 -18q36 -9 65 10t37 52q6 34 -12.5 63t-51.5 36q-16 3 -32 0t-30 -12q-7 -4 -15 -2.5t-13 8.5t-3.5 15.5t9.5 13.5q21 14 45 18t47.5 -1t44 -19t34.5 -35t18 -45.5t-1 -47.5t-19 -43.5t-35 -34.5zM619 258q-8 0 -14 6t-6 14
t6 14t14 6t14 -6t6 -14t-6 -14t-14 -6zM476 -1q-9 -2 -17.5 -3.5t-16.5 -1.5q-35 0 -71.5 22.5t-48.5 71.5q-7 24 -3.5 48t16.5 45q18 30 47.5 45.5t62.5 15.5q16 -1 31 -5t29 -12q7 -4 9.5 -12.5t-2.5 -16.5q-5 -7 -13 -9t-15 2q-29 18 -62.5 9.5t-51.5 -38.5
q-17 -29 -8.5 -62.5t37.5 -50.5q16 -10 32.5 -11.5t33.5 3.5q16 5 28 14t19 22q16 28 25 44t11 18q4 7 12.5 8.5t15.5 -3.5t8.5 -13.5t-3.5 -15.5l-1.5 -3t-5.5 -9q-4 -7 -10.5 -18t-15.5 -27q-11 -20 -29.5 -35t-42.5 -22z" />
    <glyph glyph-name="uniE019" unicode="SEC&#x30;&#x32;&#x36;" 
d="M741 131q0 -83 -37 -126t-106 -43q-60 0 -99 38t-39 104v253q0 75 32 118t92 50v133h-24q-9 0 -15 6t-6 14q0 9 6 15t15 6h87q9 0 15 -6t6 -15q0 -8 -6 -14t-15 -6h-22v-48h60v25q0 9 6 15t14 6q9 0 15 -6t6 -15v-88q0 -9 -6 -15t-15 -6q-8 0 -14 6t-6 15v22h-60v-45
q34 -4 60.5 -23.5t40.5 -49.5q7 -15 10.5 -31t3.5 -33v-47q0 -8 -6 -14t-15 -6q-8 0 -14 6t-6 14v43h-197q-1 -3 -1 -6v-6v-266h198q1 3 1 6v7v89q0 8 6.5 14t14.5 6t14 -6t6 -14v-76zM603 485q-35 0 -58.5 -15t-34.5 -46h183q-11 31 -33.5 46t-56.5 15zM568 170
q0 -9 -6 -15t-15 -6q-8 0 -14 6t-6 15v156q0 9 6 15t14 6q9 0 15 -6t6 -15v-156zM598 3q36 0 59.5 15t33.5 46h-182q10 -31 32.5 -46t56.5 -15z" />
    <glyph glyph-name="uniE01A" unicode="SEC&#x30;&#x32;&#x37;" 
d="M813 -42q-9 -33 -13 -42.5t-18 -9.5h-64q-10 0 -16 6.5t-5 16.5l11 156q1 28 -4 51t-18 47q-7 12 -18.5 28.5t-27.5 36.5q-5 7 -4.5 15.5t7.5 13.5q7 6 15.5 5t13.5 -8q36 -45 51 -72t22 -55q3 -14 4.5 -30t0.5 -33q-1 -23 -3 -57.5t-6 -79.5h26q13 42 19.5 83t7.5 81
q1 59 -4 94.5t-22 69.5q-9 17 -29.5 46t-51.5 70l-81 -96l-15 -17q-29 -33 -51 -62t-35 -59t-13.5 -58t-0.5 -55v-26.5t1 -26.5t1 -24t1 -20v-19q1 -8 -5 -15t-15 -7h-64q-7 0 -13 4.5t-7 10.5q-1 1 -2 6t-3 13q-4 16 -9 44t-8 63q-4 35 -3 76.5t4 72.5t10.5 55.5t22.5 48.5
t38.5 54t59.5 72l2 2l-53 65q-4 4 -5 8t0 8l30 174q7 41 23 56t44 14h21q8 0 14 -5.5t7 -13.5l15 -169q1 -5 -0.5 -9.5t-5.5 -7.5q-4 -4 -6 -8.5t-2 -9.5q0 -10 7.5 -18t17.5 -8q11 0 18.5 7.5t7.5 17.5q0 5 -1.5 9.5t-5.5 8.5q-3 4 -4.5 8.5t-0.5 8.5l23 171q2 8 7.5 13
t13.5 5h21q27 -2 40.5 -14.5t17.5 -29.5q2 -8 3.5 -16.5t2.5 -15.5l11 -90q1 -8 -4 -14.5t-14 -8.5q-9 -1 -15.5 4.5t-7.5 13.5l-11 90q-1 7 -2 13.5t-2 10.5q-3 9 -6.5 12t-12.5 3h-3l-20 -143q12 -18 11 -43t-20 -44q-21 -19 -48 -18.5t-47 20.5q-17 17 -18.5 42t13.5 45
l-13 141h-3q-10 1 -13.5 -1.5t-5.5 -9.5q-1 -4 -3 -10t-3 -14l-28 -164l90 -110q5 -6 4.5 -15t-7.5 -14q-2 -2 -5.5 -3t-7.5 -1q-5 0 -9 1.5t-7 5.5l-16 19q-26 -31 -43.5 -52t-27.5 -34q-19 -25 -30 -47t-16 -49q-2 -13 -3.5 -36.5t-2.5 -56.5q-1 -41 4.5 -84t15.5 -89h26
q-1 19 -1.5 45t-0.5 53q-1 26 -0.5 52t9.5 56q4 14 11.5 29.5t17.5 31.5t28 38.5t44 52.5l15 17l96 112q1 2 2 3.5t3 2.5l61 72q5 6 12.5 6.5t14.5 -4.5q8 -6 8.5 -14.5t-6.5 -16.5l-51 -60q26 -34 44 -58.5t28 -39.5q19 -30 30.5 -58.5t15.5 -63.5q4 -36 2.5 -85t-7.5 -88
q-3 -19 -7 -37.5t-8 -34.5z" />
    <glyph glyph-name="uniE01B" unicode="SEC&#x30;&#x32;&#x38;" 
d="M645 -68q0 -8 -6.5 -14t-14.5 -6h-27q-24 0 -39 14.5t-15 37.5v261q0 5 2.5 9t7.5 8l22 15v53h-72q-9 0 -15 6t-6 15q0 78 12.5 151.5t35.5 127.5q28 68 69 103.5t91 35.5q8 0 14 -6.5t6 -14.5v-363q0 -8 -6 -14t-14 -6q-9 0 -15 6t-6 14v340q-30 -7 -52.5 -31.5t-38 -56
t-25.5 -68t-16 -67.5t-9 -64t-4 -67h72q9 0 15 -6t6 -14v-47q20 12 39 20.5t39 -5.5q11 -7 17 -18.5t6 -25.5v-270q0 -8 -6 -14t-14 -6q-9 0 -15 6t-6 14v270q0 3 -1.5 5.5t-3.5 3.5l-1 1h-1h-4q-5 -2 -25.5 -15t-55.5 -36v-250q0 -5 3 -8t9 -3h27q8 0 14.5 -6t6.5 -15z
M656 192q0 -11 -8 -19t-19 -8q-12 0 -20 8t-8 19t8.5 19t19.5 8t19 -8t8 -19zM656 48q0 -11 -8 -19.5t-19 -8.5t-19.5 8.5t-8.5 19.5t8.5 19t19.5 8t19 -8t8 -19z" />
    <glyph glyph-name="uniE01C" unicode="SEC&#x30;&#x32;&#x39;" 
d="M642 378q8 6 15.5 6t13.5 -6q7 -7 7.5 -15.5t-6.5 -13.5l-110 -76q-13 -8 -17 -16t-4 -37v-239h108q7 0 8.5 1.5t1.5 6.5v258l-48 -31q-6 -5 -14.5 -3.5t-13.5 9.5q-5 7 -3 15.5t9 12.5l80 52q4 3 9.5 3t11.5 -2q5 -4 8 -8.5t3 -9.5v-296q0 -11 -4 -20.5t-11 -16.5
q-8 -7 -17.5 -10t-19.5 -3h-129q-8 0 -14 6t-6 15v260q0 30 3.5 43t12.5 24q4 5 9.5 10.5t12.5 10.5l48 32v181q0 7 3.5 12t10.5 7l39 15l-14 125h-50l-20 -130q-2 -8 -9 -13t-15 -4q-8 2 -13 8.5t-4 15.5l23 147q1 7 6.5 12t13.5 5h86q8 0 13.5 -5t7.5 -13l18 -160
q1 -7 -2.5 -13t-10.5 -8l-41 -15v-139z" />
    <glyph glyph-name="uniE01D" unicode="SEC&#x30;&#x33;&#x30;" 
d="M564 -53q-2 -1 -4.5 -2t-6.5 -1q-2 0 -5 0.5t-5 1.5q-5 3 -8 7.5t-3 11.5v550h-103q-8 0 -14 6t-6 15q0 8 6 14t14 6h322q11 0 16 5t5 16v98h-322q-12 0 -17 -5t-5 -18v-20h288q8 0 14.5 -6t6.5 -15q0 -8 -6.5 -14t-14.5 -6h-330v61q0 29 17.5 46.5t46.5 17.5h343
q9 0 15 -6t6 -14v-120q-2 -28 -17.5 -44.5t-45.5 -16.5h-177v-511q7 5 15 10t15 10t13.5 9t10.5 8v421q0 8 6.5 14t14.5 6q9 0 15 -6t6 -14v-430q1 -4 0 -7.5t-3 -5.5t-7.5 -6.5t-13.5 -10.5z" />
    <glyph glyph-name="uniE01E" unicode="SEC&#x30;&#x33;&#x31;" 
d="M567 593q0 -30 -21.5 -51.5t-51.5 -21.5t-51.5 21.5t-21.5 51.5t21.5 51.5t51.5 21.5t51.5 -21.5t21.5 -51.5zM530 593q0 15 -10.5 25.5t-25.5 10.5t-25.5 -10.5t-10.5 -25.5t10.5 -25.5t25.5 -10.5t25.5 10.5t10.5 25.5zM876 76q-3 -3 -7 -4.5t-8 -1.5q-8 0 -14 6t-6 15
q0 4 1.5 7.5t4.5 6.5l198 199l-175 174v-110q0 -8 -6.5 -14t-14.5 -6h-104v-90h103q8 0 14 -6t6 -14q0 -9 -6 -15t-14 -6h-124q-8 0 -14.5 6t-6.5 15v130q0 9 6.5 15t14.5 6h105v139q0 13 12.5 18.5t22.5 -4.5l225 -223q3 -3 4.5 -7t1.5 -8t-1.5 -8t-4.5 -6zM137 129
q-2 -1 -4.5 -1.5t-4.5 -0.5q-5 0 -10.5 3.5t-7.5 9.5q-4 7 -1 15t11 12l136 59l61 112l61 168q3 8 11 12t16 1l40 -15q33 -11 45 -25.5t21 -52.5l17 -73l85 -33q8 -3 11.5 -11t-0.5 -16q-3 -8 -11 -11.5t-15 0.5l-95 37q-4 1 -7.5 5t-5.5 9l-19 84q-2 10 -4 16.5t-3 10.5
t-3.5 6.5l-4.5 4.5q-3 2 -9 4.5t-16 6.5l-21 7l-55 -150v-1l-1 -1v-1l-65 -120q-1 -2 -3.5 -4.5t-6.5 -4.5zM190 398q-1 -1 -3.5 -1.5t-5.5 -0.5q-13 0 -17.5 9.5t-1.5 17.5q1 4 3.5 7t6.5 5l157 76q8 3 16 0t12 -10t1 -15.5t-11 -11.5zM512 -3q-2 -1 -4.5 -1.5t-4.5 -0.5
q-7 0 -11.5 3t-7.5 9l-95 197l-64 -78q-2 -2 -4.5 -3.5t-4.5 -2.5l-142 -51q-8 -3 -16 1t-10 12q-3 8 0.5 15.5t11.5 10.5l137 49l81 98q7 9 18 7t16 -11l109 -226q4 -8 1.5 -16t-10.5 -12z" />
    <glyph glyph-name="uniE01F" unicode="SEC&#x30;&#x33;&#x32;" 
d="M462 -27q-20 -11 -42.5 -17t-45.5 -6q-36 0 -68.5 14t-57 38.5t-38.5 57t-14 68.5q0 43 19 80.5t53 62.5v334q0 44 31 75t75 31t75.5 -31t31.5 -75q0 -9 -6.5 -15t-14.5 -6t-14 6t-6 15q0 27 -19.5 46t-46.5 19t-46 -19t-19 -46v-344q0 -5 -2.5 -9.5t-7.5 -8.5
q-29 -19 -45.5 -49.5t-16.5 -65.5q0 -56 40 -96.5t97 -40.5t97 40.5t40 96.5q0 35 -16.5 65.5t-45.5 49.5q-4 3 -6.5 7.5t-2.5 10.5v72q0 8 6 14t14 6t14.5 -6t6.5 -14v-62q34 -25 53 -62.5t19 -80.5q0 -50 -25.5 -91t-65.5 -64zM763 180q5 -6 7 -10t2 -10q0 -10 -7.5 -15
t-16.5 -3q-37 7 -65.5 30t-44.5 57q-8 16 -12 33.5t-4 34.5q0 41 13 78t55 94q34 45 44 72.5t8 57.5q0 11 8.5 17.5t17.5 3.5q57 -16 114.5 -68.5t89.5 -113.5q16 -31 24 -60.5t8 -57.5q0 -69 -39 -115.5t-108 -62.5h-4q-8 0 -13.5 4.5t-6.5 11.5q-2 8 2 15t13 9
q56 14 85.5 49t29.5 89q0 48 -27 99t-68 92q-21 20 -42 35t-43 25q-2 -18 -8 -36.5t-16 -37.5q-5 -10 -14 -23t-22 -30q-38 -51 -49 -81.5t-11 -65.5q0 -26 12 -51t32 -42q-4 13 -6 28t-3 31q-1 38 8.5 67t29.5 49q8 8 20 5t15 -15q2 -10 5.5 -18.5t8.5 -16.5q8 18 11 47
t-1 58q-1 5 1.5 10.5t7.5 8.5q4 4 9.5 4.5t11.5 -3.5q22 -12 39.5 -34t28 -50t14 -60t-2.5 -63q-2 -8 -9 -13t-15 -4q-8 2 -13 9t-4 15q6 34 -1 70.5t-24 62.5q-2 -38 -11 -64.5t-25 -40.5q-5 -4 -10.5 -5t-11.5 2q-9 4 -17.5 12.5t-16.5 22.5q-7 -23 -6.5 -51t7.5 -52
q4 -12 8 -21t8 -15zM395 167q10 -5 16.5 -15.5t6.5 -22.5q0 -18 -13 -30.5t-31 -12.5t-30.5 12.5t-12.5 30.5q0 13 6 22.5t17 16.5v422q0 8 6 14t14 6t14.5 -6t6.5 -14v-423zM496 524q0 -8 -6 -14.5t-15 -6.5h-41q-8 0 -14 6.5t-6 14.5t6 14.5t14 6.5h41q9 0 15 -6.5
t6 -14.5zM496 420q0 -8 -6 -14t-15 -6h-41q-8 0 -14 6t-6 14q0 9 6 15t14 6h41q9 0 15 -6t6 -15z" />
    <glyph glyph-name="uniE020" unicode="SEC&#x30;&#x33;&#x33;" 
d="M463 -27q-20 -11 -42.5 -17t-45.5 -6q-36 0 -68.5 14t-57 38.5t-38.5 57t-14 68.5q0 43 19 80.5t53 62.5v334q0 44 31 75t75 31t75.5 -31t31.5 -75q0 -9 -6.5 -15t-14.5 -6t-14 6t-6 15q0 27 -19.5 46t-46.5 19t-46 -19t-19 -46v-344q0 -5 -2.5 -9.5t-7.5 -8.5
q-29 -19 -45.5 -49.5t-16.5 -65.5q0 -56 40 -96.5t97 -40.5t97 40.5t40 96.5q0 35 -16.5 65.5t-45.5 49.5q-4 3 -6.5 7.5t-2.5 10.5v72q0 8 6 14t14 6t14.5 -6t6.5 -14v-62q34 -25 53 -62.5t19 -80.5q0 -50 -25.5 -91t-65.5 -64zM396 167q10 -5 16.5 -15.5t6.5 -22.5
q0 -18 -13 -30.5t-31 -12.5t-30.5 12.5t-12.5 30.5q0 13 6 22.5t17 16.5v422q0 8 6 14t14 6t14.5 -6t6.5 -14v-423zM906 212q0 -9 -6 -15t-15 -6q-4 0 -7.5 1.5t-6.5 4.5l-61 61v-77q0 -9 -6 -15t-14 -6q-9 0 -15 6t-6 15v173h-38l-89 -90q-3 -3 -7 -4.5t-8 -1.5q-8 0 -14 6
t-6 15q0 4 1.5 7.5t4.5 6.5l60 61h-77q-8 0 -14 6t-6 14q0 9 6 15t14 6h173v38l-89 89q-3 3 -4.5 7t-1.5 8q0 8 6 14t15 6q4 0 7.5 -1.5t6.5 -4.5l60 -60v77q0 8 6 14t15 6q8 0 14 -6t6 -14v-173h38l90 89q3 3 7 4.5t8 1.5q8 0 14 -6t6 -14q0 -4 -1.5 -8t-4.5 -7l-61 -60h77
q9 0 15 -6t6 -15q0 -8 -6 -14t-15 -6h-173v-38l90 -90q3 -3 4.5 -6.5t1.5 -7.5zM866 489q-3 -3 -6.5 -4.5t-7.5 -1.5q-9 0 -15 6t-6 15q0 4 1.5 7.5t4.5 6.5l34 33q3 3 7 4.5t8 1.5q8 0 14 -6t6 -14q0 -4 -1.5 -8t-4.5 -7zM497 524q0 -8 -6 -14.5t-15 -6.5h-41q-8 0 -14 6.5
t-6 14.5t6 14.5t14 6.5h41q9 0 15 -6.5t6 -14.5zM681 437q0 -9 -6 -15t-14 -6q-4 0 -8 1.5t-7 4.5l-33 33q-3 3 -4.5 7t-1.5 8q0 8 6 14t15 6q4 0 7.5 -1.5t6.5 -4.5l33 -33q3 -3 4.5 -6.5t1.5 -7.5zM497 420q0 -8 -6 -14t-15 -6h-41q-8 0 -14 6t-6 14q0 9 6 15t14 6h41
q9 0 15 -6t6 -15zM973 279q0 -9 -6 -15t-15 -6q-4 0 -7.5 1.5t-6.5 4.5l-34 34q-3 3 -4.5 7t-1.5 8q0 8 6 14t15 6q4 0 7.5 -1.5t6.5 -4.5l34 -34q3 -3 4.5 -6.5t1.5 -7.5zM709 197q-3 -3 -7 -4.5t-8 -1.5q-8 0 -14 6t-6 15q0 4 1.5 7.5t4.5 6.5l33 34q3 3 7 4.5t8 1.5
q8 0 14 -6t6 -14q0 -4 -1.5 -8t-4.5 -7z" />
    <glyph glyph-name="uniE021" unicode="SEC&#x30;&#x33;&#x34;" 
d="M341 92q-3 -5 -7.5 -8t-10.5 -3q-2 0 -5 0.5t-5 1.5q-7 4 -10 12t1 16l209 408v1q19 31 40 45t48 14q29 0 50 -14.5t37 -45.5l209 -408q5 -11 -1.5 -20.5t-16.5 -9.5h-416q-8 0 -14 6t-6 14q0 9 6 15t14 6h382l-193 378q-11 20 -22.5 29t-28.5 9q-16 0 -28 -9t-24 -29z
M615 185q-2 -7 -7 -10t-12 -3q-2 0 -4 0.5t-4 1.5q-8 3 -11.5 11t0.5 15l48 124h-75q-11 0 -17 9t-1 20l41 88q4 7 12 10t16 -1q7 -3 10 -11t0 -16l-28 -58h73q5 0 9 -2.5t8 -6.5q2 -5 2.5 -10t-0.5 -9z" />
    <glyph glyph-name="uniE022" unicode="SEC&#x30;&#x33;&#x35;" 
d="M696 100q0 -8 -6 -14t-14 -6h-150q-9 0 -15 6t-6 14v134h-113q-9 0 -15 6t-6 14v151q0 8 6 14t15 6h113v134q0 8 6 14.5t15 6.5h150q8 0 14 -6.5t6 -14.5v-134h114q8 0 14 -6t6 -14v-151q0 -8 -6 -14t-14 -6h-114v-134zM526 275q8 0 14 -6t6 -15v-133h109v133q0 9 6.5 15
t14.5 6h113v109h-113q-8 0 -14.5 6t-6.5 15v133h-109v-133q0 -9 -6 -15t-14 -6h-114v-109h114z" />
    <glyph glyph-name="uniE023" unicode="SEC&#x30;&#x33;&#x36;" 
d="M711 -7q0 -8 -6 -14t-14 -6q-9 0 -15 6t-6 14v77q0 5 2.5 9.5t7.5 8.5l116 69v176l-45 23v-121q0 -8 -6 -14t-15 -6q-8 0 -14 6t-6 14v346q-1 2 -1.5 4.5t-1.5 3.5t-5 2.5t-11 2.5l-27 5v-259q0 -9 -6 -15t-14 -6q-9 0 -15 6t-6 15v297q0 6 -2.5 7.5t-8.5 1.5h-19
q-9 0 -12 -2t-3 -10v-290q0 -8 -6.5 -14t-14.5 -6t-14.5 6t-6.5 14v260l-25 -5q-14 -3 -17 -5.5t-3 -10.5v-239q0 -8 -6 -14t-15 -6q-8 0 -14 6t-6 14v211q-2 -1 -5 -1t-6 -1t-6 -1.5t-7 -1.5q-16 -3 -19 -6.5t-3 -22.5v-512q0 -8 -6 -14.5t-14 -6.5q-9 0 -15 6.5t-6 14.5
v512q0 25 5 37.5t17 20.5q6 4 14.5 7t18.5 5l33 6q4 17 16 27.5t36 14.5l35 7q4 19 16 29t34 11v1h1h23q22 0 36 -12.5t16 -33.5l35 -7q18 -3 30 -10.5t17 -20.5q2 -7 3.5 -19t1.5 -28v-155l75 -37q5 -2 8 -6.5t3 -11.5v-200q0 -6 -2.5 -10.5t-7.5 -7.5l-116 -70v-65z" />
    <glyph glyph-name="uniE024" unicode="SEC&#x30;&#x33;&#x37;" 
d="M865 415q-2 -6 -7 -10t-12 -4h-1l-1 1h-4q-8 3 -12 10.5t-2 15.5l17 52q6 19 4 30t-14 20q-10 7 -21.5 15.5t-24.5 17.5t-25 18t-25 18q-25 17 -45.5 31.5t-32.5 23.5q-31 20 -58 20.5t-55 -19.5l-175 -125q-12 -9 -14.5 -20t3.5 -30l17 -52q3 -8 -1 -15.5t-12 -10.5
q-8 -2 -15.5 1.5t-10.5 11.5l-17 52q-10 31 -3.5 55.5t29.5 41.5l175 124q38 27 78.5 27t81.5 -27l175 -124q23 -17 29 -41.5t-4 -55.5zM576 528q-2 -3 -5 -4.5t-7 -1.5t-6.5 1t-4.5 3l-38 33q-8 8 -5 17.5t14 11.5l42 6l17 38q2 5 6 7.5t9 2.5t9 -2.5t6 -7.5l17 -39l38 -5
q7 -1 11 -6.5t3 -12.5t-6 -11t-12 -3l-47 7q-5 1 -8.5 3.5t-4.5 6.5l-6 13l-6 -13q-1 -4 -4.5 -6.5t-8.5 -3.5l-15 -2l11 -9q5 -4 5.5 -10.5t-4.5 -12.5zM660 483q3 -10 -3.5 -15t-12.5 -5q-2 0 -4 0.5t-4 1.5l-38 22l-34 -18q-6 -3 -12.5 -1t-10.5 8q-3 6 -1 12.5t8 9.5
l42 22q4 2 8 2t8 -2l13 -8l-3 15q-2 6 1.5 12t10.5 7q7 2 13 -2t7 -10zM718 -25q-26 -14 -54 -21.5t-57 -7.5q-63 0 -116 33t-82 84q-14 25 -21.5 53t-7.5 58q0 10 1 20l2 20q2 8 9 13t15 4q8 -2 13 -9t4 -15t-2 -16.5t-1 -16.5q0 -53 26.5 -96t68.5 -67q21 -12 43.5 -18
t47.5 -6q53 0 96 26.5t67 69.5q11 21 17 43.5t6 47.5q0 26 -4.5 51t-12.5 47q-34 -19 -78 -28.5t-98 -9.5q-69 0 -123.5 16.5t-83.5 43.5q-15 13 -22.5 28.5t-7.5 31.5q0 9 6 15t14 6q9 0 15 -6t6 -15q0 -20 29 -39t73 -29q22 -5 45.5 -8t48.5 -3q66 0 120.5 18.5t70.5 44.5
q-72 15 -147 19t-150 -3q-9 -1 -15.5 4t-7.5 14q-1 8 4.5 14.5t13.5 7.5q77 9 160.5 4t167.5 -23q10 -2 15 -7t5 -13q0 -16 -7 -31t-20 -28q12 -25 18 -56t6 -66q0 -63 -32.5 -116.5t-83.5 -82.5z" />
    <glyph glyph-name="uniE025" unicode="SEC&#x30;&#x33;&#x38;" 
d="M821 54q0 -35 -18 -54.5t-51 -19.5h-352q-8 0 -14 6t-6 14v134q0 7 3 12t10 7l305 110q8 3 15.5 -0.5t10.5 -11.5t-0.5 -16t-11.5 -10l-291 -106v-98h331q15 0 21.5 7.5t6.5 25.5v586h-329q-15 0 -22.5 -8.5t-7.5 -25.5v-338q0 -8 -6 -14t-15 -6q-8 0 -14 6t-6 14v338
q0 35 19 55t52 20h350q8 0 14 -6t6 -14v-607zM489 276q-3 -3 -7 -4.5t-8 -1.5q-8 0 -14 6t-6 15q0 4 1.5 7.5t4.5 6.5l45 45h-11q-9 0 -15 6t-6 15v118q0 16 10 26t25 10h48l101 70q9 7 20.5 1.5t11.5 -17.5v-46l24 24q3 3 7 4.5t8 1.5q8 0 14 -6t6 -14q0 -4 -1.5 -8
t-4.5 -7zM514 391h32l102 101v47l-74 -51q-2 -2 -5 -3t-7 -1h-48v-93zM677 282q-4 -2 -8 -3t-8 -1q-5 0 -10 1.5t-9 4.5h-1v1l-35 24q-7 5 -8.5 13.5t3.5 15.5t13.5 8.5t14.5 -3.5l23 -16v53q0 9 6.5 15t14.5 6t14.5 -6t6.5 -15v-68q0 -10 -4.5 -17.5t-12.5 -12.5zM601 129
q12 0 20.5 -8.5t8.5 -19.5q0 -12 -8.5 -20.5t-20.5 -8.5t-20.5 8.5t-8.5 20.5q0 11 8.5 19.5t20.5 8.5z" />
    <glyph glyph-name="uniE026" unicode="SEC&#x30;&#x33;&#x39;" 
d="M678 -111q-8 0 -14 6t-6 14t6 14t14 6h22q5 0 6.5 4t0.5 11l-31 145h-31q-10 0 -14.5 5.5t-4.5 15.5v86q0 10 5 15t15 5h81q21 0 35 15.5t14 38.5v245q0 23 -14 37.5t-36 14.5h-107q-8 0 -13.5 6t-5.5 14v163q0 9 6 15t15 6q8 0 14 -6.5t6 -14.5v-141h85q42 0 66.5 -25.5
t24.5 -68.5v-245q0 -44 -24 -69.5t-66 -25.5h-60v-44h25q8 0 13 -4.5t7 -12.5l37 -167q5 -25 -8.5 -41.5t-38.5 -16.5h-24zM606 -91q0 -8 -6 -14t-14 -6h-91q-26 0 -39.5 16t-8.5 41l35 168q2 8 7 12t13 4h38v45h-65q-42 0 -66.5 25.5t-24.5 68.5v244q0 42 25 68.5t65 26.5
h56q9 0 15 -6t6 -15q0 -8 -6.5 -14.5t-14.5 -6.5h-56q-22 0 -35.5 -15t-13.5 -38v-244q0 -23 14.5 -38t35.5 -15h86q8 0 14 -6t6 -14v-86q0 -10 -5 -15.5t-15 -5.5h-42l-29 -147q-1 -5 0.5 -9t6.5 -4h89q8 0 14 -6t6 -14z" />
    <glyph glyph-name="uniE027" unicode="SEC&#x30;&#x34;&#x30;" 
d="M894 54q-1 -7 -6.5 -12t-13.5 -5h-3l-24 4q-23 4 -34.5 17t-11.5 33v191q0 17 7.5 29t23.5 17l83 30q-16 108 -101 171t-214 63t-214 -63t-101 -171l84 -30q16 -5 23.5 -17t7.5 -29v-191q0 -20 -11.5 -33t-34.5 -17l-84 -14h-3q-7 0 -15 4.5t-8 14.5q-7 84 -7.5 161
t6.5 144q10 87 57.5 151t124.5 98q38 16 82 24.5t93 8.5q101 0 179 -35t124 -98t55.5 -154t3.5 -225q0 -9 -6.5 -14.5t-14.5 -4.5q-8 0 -14 6t-6 15q2 56 2 104.5t-3 88.5l-74 -26q-2 -1 -3 -3t-1 -5v-191q0 -6 2 -7.5t9 -2.5l24 -4q8 -1 13 -8t4 -15zM281 316
q-4 -54 -3.5 -115.5t5.5 -129.5l65 10q7 1 9 2.5t2 7.5v191q0 3 -1 5t-3 3z" />
    <glyph glyph-name="uniE028" unicode="SEC&#x30;&#x34;&#x31;" 
d="M772 258q0 -8 -6 -14t-14 -6q-9 0 -15 6t-6 14v25h-260v-25q0 -8 -6.5 -14t-14.5 -6t-14 6t-6 14v25h-57q-9 0 -15 6t-6 15q0 8 6 14t15 6h57v26q0 8 6 14t14 6t14.5 -6t6.5 -14v-26h260v26q0 8 6 14t15 6q8 0 14 -6t6 -14v-26h137v97h-574q-20 0 -31.5 -11t-11.5 -31
v-259h577q20 0 30 10t10 30v29q0 8 6.5 14t14.5 6t14 -6t6 -14v-29q0 -38 -23 -59.5t-58 -21.5h-597q-7 0 -14 6t-7 15v279q0 37 23.5 60t60.5 23h146v58q0 7 4.5 12.5t12.5 7.5l198 41q10 2 17 -4.5t7 -15.5v-99h210q8 0 14 -6t6 -15v-141l-3 -8h-1v-1l-6 -6q-1 -1 -1.5 -1
h-1.5h-1l-1 -1h-163v-25zM522 462h157v74l-157 -33v-41z" />
    <glyph glyph-name="uniE029" unicode="SEC&#x30;&#x34;&#x32;" 
d="M475 69q0 -8 -6 -14t-15 -6h-197q-3 0 -5.5 0.5t-4.5 1.5l-1 1q-1 0 -1.5 0.5l-0.5 0.5l-1 1l-2 3h-1v1l-1 1l-2 4v312q0 8 6 14t14 6q9 0 15 -6t6 -14v-285h156v50q0 5 2.5 9.5t7.5 8.5q5 2 10.5 2t10.5 -2l113 -66h295q24 0 36.5 10.5t12.5 33.5v32q0 43 -23 68t-72 35
l-144 29q-35 7 -64 30t-44 54q-7 16 -11 32.5t-4 34.5v120h-282v-60h164q8 0 14 -6t6 -15q0 -8 -6 -14t-14 -6h-185q-8 0 -14 6t-6 14v102q0 2 0.5 5t1.5 5l7 7h1q2 1 5 2t5 1h323q9 0 15 -6t6 -14v-141q0 -29 12 -52t33 -38q10 -8 21.5 -13.5t23.5 -7.5l144 -29
q63 -13 95.5 -49.5t32.5 -93.5v-32q0 -40 -24 -62.5t-66 -22.5h-301q-2 0 -5 1t-5 2l-87 50v-35z" />
    <glyph glyph-name="uniE02A" unicode="SEC&#x30;&#x34;&#x33;" 
d="M918 197v17l-106 25q-5 1 -9 4.5t-6 8.5l-47 128q-38 41 -88.5 62.5t-106.5 21.5q-77 0 -140 -41t-97 -106q-17 -33 -26 -68.5t-9 -72.5q0 -8 -6.5 -14t-14.5 -6t-14.5 6t-6.5 14q0 93 44.5 169t116.5 118q35 21 73.5 31.5t79.5 10.5q66 0 125.5 -26t102.5 -74q1 -1 2 -3
l2 -4l45 -121l111 -26q7 -1 11.5 -6.5t4.5 -13.5v-55q0 -8 -6 -14t-14 -6h-575q-9 0 -15 6t-6 14q0 9 6 15t15 6h554zM710 323q-9 -5 -16.5 -2.5t-15.5 10.5q-28 27 -58 38.5t-72 11.5q-23 0 -44 -4.5t-40 -12.5q-8 -4 -16 -2t-11 9q-4 8 -2 16t11 12q25 11 50.5 17t52.5 6
q51 0 93.5 -18.5t70.5 -53.5q5 -6 4 -14t-7 -13z" />
    <glyph glyph-name="uniE02B" unicode="SEC&#x30;&#x34;&#x34;" 
d="M789 591q0 -28 -20 -47.5t-48 -19.5q-9 0 -18.5 1.5t-18.5 3.5l-10 3v-49q20 -4 36 -14t29 -26h101v38q0 8 6.5 14t14.5 6t14.5 -6t6.5 -14v-224q0 -9 -6.5 -15t-14.5 -6t-14.5 6t-6.5 15v145h-111q-5 0 -9 2.5t-8 7.5q-10 14 -25.5 22.5t-31.5 8.5q-19 0 -33 -7.5
t-24 -23.5q-4 -7 -12.5 -9t-16.5 3q-7 4 -8.5 12.5t2.5 15.5q11 19 29 31t41 17v51l-14 -3q-12 -3 -22.5 -4.5t-19.5 -1.5q-28 0 -47.5 19.5t-19.5 47.5t19.5 48t47.5 20q7 0 16 -1.5t21 -4.5q9 -2 18 -3.5t17 -1.5q6 0 13.5 1.5t16.5 3.5q10 2 20.5 4t21.5 2q28 0 48 -20
t20 -48zM403 236q0 -8 -6.5 -14t-14.5 -6t-14 6t-6 14v51q0 56 26.5 95.5t73.5 53.5l-135 158q-6 6 -5.5 14.5t7.5 14.5q6 5 14.5 4.5t14.5 -6.5l259 -301q8 -5 18 -8t20 -3q17 0 32 8t25 23q2 5 6.5 7.5t10.5 2.5h53q9 0 15 -6t6 -15q0 -8 -6 -14t-15 -6h-42
q-15 -19 -34.5 -29.5t-44.5 -11.5l142 -164q6 -7 5.5 -15.5t-7.5 -13.5l-7 -3.5t-6 -1.5q-5 0 -9 1.5t-7 5.5l-182 211q-6 4 -11.5 9.5t-9.5 11.5h-51q-10 0 -15.5 -5.5t-5.5 -16.5v-51q0 -8 -6 -14t-14 -6q-9 0 -15 6t-6 14v51q0 28 17 45.5t45 17.5h19l-45 51
q-42 -5 -65.5 -35t-23.5 -79v-51zM610 570q13 3 22.5 4.5t16.5 1.5q6 0 12 -0.5t11 -1.5q11 -3 20 -5t16 -3q4 -1 7 -1h6q11 0 18.5 7.5t7.5 18.5t-7.5 19t-18.5 8q-7 0 -15.5 -1.5t-17.5 -3.5l-10 -2t-9 -2q-5 -1 -10 -1.5t-10 -0.5q-9 0 -20 1.5t-24 4.5q-8 2 -15 3.5
t-13 1.5q-11 0 -18.5 -8t-7.5 -19q0 -10 8 -18t18 -8q7 0 15.5 1.5t17.5 3.5zM501 71q0 -28 -21 -48.5t-49 -20.5q-29 0 -49.5 20t-20.5 49q0 10 4.5 23.5t14.5 31.5l34 58q2 5 6.5 8t10.5 3q7 0 11.5 -3t6.5 -8l34 -58q9 -16 13.5 -30t4.5 -25zM460 71q0 6 -3 14.5
t-10 19.5l-16 28l-15 -27q-7 -13 -10.5 -22t-3.5 -13q0 -11 8.5 -19.5t20.5 -8.5t20.5 8.5t8.5 19.5z" />
    <glyph glyph-name="uniE02C" unicode="SEC&#x30;&#x34;&#x35;" 
d="M341 92q-3 -5 -7.5 -8t-10.5 -3q-3 0 -5.5 0.5t-4.5 1.5q-7 4 -10 12t1 16l209 408v1q19 31 40 45t48 14q29 0 50 -14.5t37 -45.5l209 -408q5 -11 -1.5 -20.5t-17.5 -9.5h-396q-9 0 -15 6t-6 14q0 9 6 15t15 6h363l-193 378q-11 20 -22.5 29t-28.5 9q-16 0 -28 -9
t-24 -29zM621 261q0 -8 -6 -14t-14 -6q-9 0 -15 6t-6 14v184q0 8 6 14.5t15 6.5q8 0 14 -6.5t6 -14.5v-184zM625 192q0 -10 -7 -17t-17 -7t-17.5 7t-7.5 17t7.5 17t17.5 7t17 -7t7 -17z" />
    <glyph glyph-name="uniE02D" unicode="SEC&#x30;&#x34;&#x36;" 
d="M764 224q0 -28 -15.5 -44.5t-41.5 -16.5h-284q-8 0 -14 6.5t-6 14.5v341q0 34 18 55t49 21h273q84 0 131.5 -50t43.5 -169q0 -7 -3.5 -12t-10.5 -7l-54 -19q-8 -3 -16 0.5t-11 11.5q-2 8 1.5 16t11.5 11l41 14q0 93 -34 128t-100 35h-273q-13 0 -19.5 -9t-6.5 -26v-320
h263q10 0 13 4.5t3 14.5v244q0 8 6 14t14 6q9 0 15 -6t6 -14v-244zM886 80q0 -8 -6 -14.5t-15 -6.5h-564q-8 0 -14 6.5t-6 14.5q0 9 6 15t14 6h564q9 0 15 -6t6 -15z" />
    <glyph glyph-name="uniE02E" unicode="SEC&#x30;&#x34;&#x37;" 
d="M621 330q0 -9 -6 -15t-14 -6q-9 0 -15 6t-6 15v244q0 8 6 14t15 6q8 0 14 -6t6 -14v-244zM719 97q-28 -16 -57.5 -23.5t-60.5 -7.5h-4q-66 1 -122 36t-86 89q-16 28 -23.5 57.5t-7.5 60.5q0 57 27 110t74 87q7 5 15.5 4t13.5 -8q5 -8 3.5 -16.5t-8.5 -12.5
q-40 -29 -62 -72.5t-22 -91.5q0 -57 28 -103t74 -72q22 -13 47 -19.5t51 -6.5h2q57 0 104 28.5t72 74.5q13 22 19 47t6 51q0 48 -22 91.5t-62 72.5q-7 4 -8.5 12.5t3.5 16.5q5 7 13.5 8t15.5 -4q47 -34 74 -87t27 -110q0 -68 -35 -124.5t-89 -87.5z" />
    <glyph glyph-name="uniE02F" unicode="SEC&#x30;&#x34;&#x38;" 
d="M688 -27q-20 -11 -42.5 -17t-45.5 -6q-36 0 -68.5 14t-57 38.5t-38.5 57t-14 68.5q0 43 19 80.5t53 62.5v334q0 44 31.5 75t74.5 31q44 0 75.5 -31t31.5 -75q0 -9 -6 -15t-15 -6q-8 0 -14 6t-6 15q0 27 -19.5 46t-46.5 19t-46 -19t-19 -46v-345q0 -5 -2.5 -9t-6.5 -8
q-30 -19 -46.5 -49.5t-16.5 -65.5q0 -57 40.5 -97t96.5 -40q57 0 97.5 40t40.5 97q0 35 -17 65.5t-46 49.5q-4 3 -6.5 7.5t-2.5 9.5v72q0 9 6 15t14 6q9 0 15 -6t6 -15v-61q34 -25 53 -62.5t19 -80.5q0 -50 -25.5 -91t-65.5 -64zM621 167q10 -5 16.5 -15.5t6.5 -22.5
q0 -18 -13 -31t-31 -13t-30.5 13t-12.5 31q0 13 6 22.5t17 16.5v422q0 8 6 14t14 6q9 0 15 -6t6 -14v-423zM722 524q0 -9 -6 -15t-14 -6h-42q-8 0 -14 6t-6 15q0 8 6 14t14 6h42q8 0 14 -6t6 -14zM722 420q0 -8 -6 -14t-14 -6h-42q-8 0 -14 6t-6 14q0 9 6 15t14 6h42
q8 0 14 -6t6 -15z" />
    <glyph glyph-name="uniE030" unicode="SEC&#x30;&#x34;&#x39;" 
d="M821 704q0 9 6.5 15.5t15.5 6.5q10 0 16.5 -6.5t6.5 -15.5t-6.5 -15.5t-16.5 -6.5q-9 0 -15.5 6.5t-6.5 15.5zM529 501l-7 -3.5t-7 -1.5h-89q-8 0 -14 6t-6 14v90q0 8 6 14.5t14 6.5q9 0 15 -6.5t6 -14.5v-69h60l87 84q4 3 7.5 4.5t7.5 1.5h47v37h-231q-20 0 -34.5 -18
t-14.5 -40q0 -9 -6.5 -15t-14.5 -6q-9 0 -15 6t-6 15q0 40 27.5 69.5t63.5 29.5h252q8 0 14.5 -6t6.5 -15v-78q0 -9 -6.5 -15t-14.5 -6h-60zM741 650q0 10 6.5 16t15.5 6t15.5 -6t6.5 -16q0 -9 -6.5 -15.5t-15.5 -6.5t-15.5 6.5t-6.5 15.5zM821 606q0 9 6.5 15.5t15.5 6.5
q10 0 16.5 -6.5t6.5 -15.5t-6.5 -15.5t-16.5 -6.5q-9 0 -15.5 6.5t-6.5 15.5zM669 406q-1 -1 -3 -1h-3q-5 0 -9.5 2.5t-8.5 7.5l-55 94q-5 7 -2.5 15.5t9.5 12.5t15 2t13 -9l56 -94q4 -7 2.5 -15t-9.5 -13q-1 -1 -2.5 -1t-2.5 -1zM698 -5q0 -26 -18 -43.5t-44 -17.5h-256
q-9 0 -15 6t-6 15q0 8 6 14t15 6h256q9 0 14.5 6t5.5 14l-1 193l-154 144q-4 4 -5.5 8t-1.5 8v86h-53l-41 -239v-108q0 -8 -6 -14t-14 -6q-9 0 -15 6t-6 14v113l44 258q2 8 7.5 12.5t12.5 4.5h92q8 0 14.5 -6t6.5 -14v-99l154 -144q4 -4 5.5 -7.5t1.5 -7.5z" />
    <glyph glyph-name="uniE031" unicode="SEC&#x30;&#x35;&#x30;" 
d="M930 223q-60 -92 -156 -147.5t-204 -62.5h-1q-11 0 -18 10.5t1 21.5l302 471q4 7 12.5 9.5t15.5 -2.5q8 -6 9.5 -14t-3.5 -15l-278 -435q86 14 160.5 63t124.5 123q51 80 64 174t-16 186q-96 -11 -177.5 -60t-132.5 -129q-40 -60 -57.5 -124t-12.5 -130q1 -9 -5 -15.5
t-14 -6.5q-9 -1 -15 4.5t-7 14.5q-6 73 11.5 138.5t50.5 120t77.5 97t91.5 70.5t98 43.5t105 19.5q7 0 12.5 -3.5t8.5 -10.5q36 -104 23 -212.5t-70 -198.5zM499 70q-3 -4 -7.5 -6.5t-9.5 -2.5h-3q-81 11 -143 52t-99 109q-36 69 -38 146.5t30 149.5q4 7 9.5 10t12.5 2
q78 -12 142 -57t100 -114q5 -9 9 -19.5t6 -21.5q2 -8 -2 -15.5t-12 -10.5q-9 -2 -16.5 2.5t-9.5 12.5q-2 10 -5 18t-7 14q-30 57 -81 95.5t-114 52.5q-23 -60 -20 -124.5t32 -121.5q28 -50 70.5 -82.5t99.5 -47.5l-145 267q-4 8 -1.5 16t10.5 13q7 4 15 1.5t13 -10.5
l165 -307q3 -4 2.5 -10t-3.5 -11z" />
    <glyph glyph-name="uniE032" unicode="SEC&#x30;&#x35;&#x31;" 
d="M833 402q0 -56 -40 -96t-96 -40t-96 40t-40 96q0 21 10 49t30 63l73 128q4 8 10 12t13 4t13 -4t10 -12l73 -128q20 -35 30 -63t10 -49zM792 402q0 16 -9 38.5t-26 52.5l-60 106l-60 -106q-17 -30 -26 -52.5t-9 -38.5q0 -39 28 -66.5t67 -27.5t67 27.5t28 66.5zM639 127
q-7 -11 -16 -16.5t-20 -5.5q-4 0 -9 1t-10 3l-92 37q-8 3 -11.5 11t-0.5 16q4 8 11.5 11t15.5 0l92 -36q1 -1 1.5 -1h1.5l13 29l-111 58q-25 12 -56 11t-63 -15l-54 -24q-7 -3 -15 0t-12 11q-3 8 0 16t11 11l54 24q40 17 79.5 18t73.5 -14l1 -1l113 -59l1 -1q13 -8 18 -23
t-2 -29l-14 -30v-2zM657 -18q-8 -2 -16.5 -3t-18.5 -1q-11 0 -20.5 1.5t-16.5 3.5l-179 60l-115 -40q-8 -2 -15.5 1.5t-10.5 11.5t1 16t12 10l121 43q1 1 3 1h4h3t3 -1l186 -63q11 -3 23 -3t25 3l249 65l-3 19q-1 5 -3 8t-4 3l-163 -7q-8 -1 -14.5 4.5t-7.5 14.5q0 9 6 15
t14 7l164 7h2q19 -1 31 -12t16 -33l6 -38q1 -7 -3 -14t-12 -9z" />
    <glyph glyph-name="uniE033" unicode="SEC&#x30;&#x35;&#x32;" 
d="M619 615q0 -8 -6 -14.5t-15 -6.5q-8 0 -14 6.5t-6 14.5v85q0 9 6 15t14 6q9 0 15 -6t6 -15v-85zM518 571q0 -9 -6 -15t-15 -6q-8 0 -14.5 6t-6.5 15v21q-28 -14 -48.5 -36.5t-31.5 -52.5q-2 -7 -7.5 -10t-12.5 -3h-3h-2t-2 1q-8 3 -11.5 11t-0.5 16q15 42 45 72.5
t74 47.5v40q0 9 6.5 15t14.5 6q9 0 15 -6t6 -15v-107zM720 571q0 -9 -6 -15t-14 -6q-9 0 -15 6t-6 15v107q0 9 6 15t15 6q8 0 14 -6t6 -15v-107zM722 -30q-26 -15 -54.5 -22.5t-58.5 -7.5q-65 0 -118.5 33.5t-82.5 85.5q-15 26 -22.5 54t-7.5 58q0 11 1 21t3 20q2 8 8.5 13
t15.5 4q8 -1 13 -8.5t3 -15.5q-1 -8 -2 -17t-1 -17q0 -54 27 -98t70 -68q22 -12 45 -18t48 -6q53 0 97 27t68 70q12 22 18 45t6 48q0 26 -3.5 48.5t-10.5 41.5q-30 -4 -76 -6.5t-106 -2.5t-106.5 2.5t-77.5 7.5q-31 4 -53 12.5t-34 21.5q-15 17 -17 36t-1 39v21q0 8 6.5 14
t14.5 6q9 0 15 -6t6 -14v-12v-6t-1 -5q-1 -11 -0.5 -18.5t1.5 -11.5t2.5 -8t3.5 -7q15 -16 75.5 -23.5t165.5 -7.5q104 0 164.5 8t74.5 24q2 2 4 6t3 8t1.5 12t-0.5 20v8l-23 10q-1 1 -1.5 1t-1.5 1t-2 1t-2 1q-2 2 -4 5t-3 7v8q0 32 -4.5 56t-14.5 43q-5 10 -13.5 21
t-19.5 24q-2 3 -3.5 7t-1.5 8q0 8 6.5 14t15.5 6q4 -1 7.5 -2.5t6.5 -4.5q24 -26 36.5 -48t18.5 -49q3 -14 4.5 -30.5t2.5 -35.5l26 -12q5 -3 8 -7.5t3 -10.5v-20q1 -13 0.5 -26.5t-4.5 -25.5q-2 -7 -6 -13t-9 -11q-8 -8 -20 -15t-26 -11q7 -22 11 -47t4 -52
q0 -65 -33 -118.5t-85 -82.5zM674 474q0 -8 -6.5 -14t-14.5 -6h-34v-34q0 -9 -6 -15t-15 -6q-8 0 -14 6t-6 15v34h-34q-9 0 -15 6t-6 14q0 9 6 15t15 6h34v34q0 8 6 14t14 6q9 0 15 -6t6 -14v-34h34q8 0 14.5 -6t6.5 -15zM789 353q0 -8 -6.5 -14.5t-14.5 -6.5h-321
q-9 0 -15 6.5t-6 14.5q0 9 6 15t15 6h321q8 0 14.5 -6t6.5 -15z" />
    <glyph glyph-name="uniE034" unicode="SEC&#x30;&#x35;&#x33;" 
d="M341 92q-3 -5 -7.5 -8t-10.5 -3q-2 0 -5 0.5t-5 1.5q-7 4 -10 12t1 16l209 408v1q19 31 40 45t48 14q29 0 50 -14.5t37 -45.5l209 -408q5 -11 -1.5 -20.5t-16.5 -9.5h-416q-8 0 -14 6t-6 14q0 9 6 15t14 6h382l-193 378q-11 20 -22.5 29t-28.5 9q-16 0 -28 -9t-24 -29z
M615 185q-2 -7 -7 -10t-12 -3q-2 0 -4 0.5t-4 1.5q-8 3 -11.5 11t0.5 15l48 124h-75q-11 0 -17 9t-1 20l41 88q4 7 12 10t16 -1q7 -3 10 -11t0 -16l-28 -58h73q5 0 9 -2.5t8 -6.5q2 -5 2.5 -10t-0.5 -9z" />
    <glyph glyph-name="uniE035" unicode="SEC&#x30;&#x35;&#x34;" 
d="M702 599q0 -28 -20.5 -48t-48.5 -20t-48 20t-20 48t20 48.5t48 20.5q29 0 49 -20t20 -49zM665 599q0 14 -9 23t-23 9q-13 0 -22 -9.5t-9 -22.5t9 -22t22 -9t22.5 9t9.5 22zM452 5q-2 -7 -7 -10t-12 -3h-4h-2t-2 1q-8 3 -11.5 11t-0.5 16l52 137l48 174l33 169
q2 10 9.5 14.5t15.5 1.5l44 -10h2v-1q18 -6 29.5 -14t20.5 -20q4 -7 9 -19t11 -31l20 -62l102 -34q8 -2 12 -10t1 -16q-2 -8 -9.5 -11.5t-16.5 -1.5l-111 38q-5 1 -8.5 4.5t-4.5 8.5l-24 71q-11 34 -17.5 42.5t-25.5 15.5l-23 5l-29 -148v-2l-48 -176v-1h-1v-1zM419 325
q-2 -7 -7.5 -11t-12.5 -4h-1l-1 1h-4q-8 3 -12 10.5t-1 15.5l33 106q1 2 3 5t5 6l74 52q7 5 15.5 3.5t13.5 -8.5q5 -8 3.5 -16t-8.5 -13l-69 -48zM535 4q-4 -6 -8.5 -9t-10.5 -3q-2 0 -4 0.5t-4 1.5q-8 4 -11 11.5t0 15.5l45 99l38 124q1 6 5 10t11 5q5 1 10.5 -1t9.5 -7
l84 -114l3 -8l25 -112q2 -8 -2 -15t-13 -9q-8 -2 -15.5 2.5t-9.5 12.5l-24 108l-57 77l-26 -86v-1l-1 -1v-1z" />
    <glyph glyph-name="uniE036" unicode="SEC&#x30;&#x35;&#x35;" 
d="M781 33q-1 -7 -7 -12t-14 -5h-333q-7 0 -13 5t-7 12l-65 345q-2 8 2.5 15t13.5 9q8 2 15.5 -3t8.5 -13l62 -329h299l86 450h-97q-9 0 -15 6t-6 14v36q0 21 -9 30.5t-29 9.5h-156q-20 0 -29 -9.5t-9 -30.5v-36q0 -8 -6 -14t-15 -6h-170q-9 0 -15 6t-6 14q0 9 6 15t15 6
h150v15q0 38 21.5 59.5t57.5 21.5h156q36 0 57.5 -21.5t21.5 -59.5v-15h160q9 0 15 -6t6 -15q0 -8 -6 -14t-15 -6h-42z" />
    <glyph glyph-name="uniE037" unicode="SEC&#x30;&#x35;&#x36;" 
d="M986 -26q0 -9 -6 -15.5t-15 -6.5q-4 0 -7.5 1.5t-6.5 4.5l-254 249q-21 -16 -45 -24.5t-51 -8.5q-21 0 -44.5 7t-44.5 21t-38 37t-24 54q-8 31 -3.5 60.5t20.5 57.5l9 13l-85 83l-64 -1q-18 0 -26 -8t-8 -24v-338h386q8 0 14.5 -6.5t6.5 -14.5t-6.5 -14.5t-14.5 -6.5
h-407q-8 0 -14 6.5t-6 14.5v359q0 34 21 54t54 20h22l-127 125q-6 6 -6.5 14.5t5.5 14.5t15 6.5t15 -5.5l254 -250q38 30 86.5 33t89.5 -22q30 -18 49.5 -47t24.5 -63q1 -8 -4 -15t-13 -9q-9 -1 -16 4t-8 14q-4 26 -16.5 44.5t-29.5 30.5t-36 17.5t-36 4.5t-32.5 -6
t-28.5 -14l294 -289h44q17 0 26 9t9 26v336h-144q-7 0 -12 3t-7 9l-49 106h-150q-9 0 -15 6t-6 14q0 9 6 15t15 6h163q6 0 11.5 -3.5t7.5 -8.5l49 -106h152q9 0 15 -7t6 -14v-356q0 -34 -21 -55t-56 -22h-1l108 -106q3 -3 4.5 -6.5t1.5 -7.5zM486 332q0 -31 14.5 -57.5
t40.5 -42.5q29 -18 63 -16.5t63 21.5l-162 158l-3 -5q-8 -13 -12 -27.5t-4 -30.5z" />
    <glyph glyph-name="uniE038" unicode="SEC&#x30;&#x35;&#x37;" 
d="M778 84q1 -9 -4 -15t-15 -7q-8 -1 -14.5 4.5t-7.5 13.5l-18 168l-337 337q-3 4 -4.5 8t-1.5 8q0 8 6 14t15 6q4 0 7.5 -1.5t7.5 -4.5l174 -175l93 127q15 22 38 38t45 16q8 0 14 -5t7 -13l5 -45l115 -37q6 -2 10 -7.5t4 -12.5v-31q0 -37 -16.5 -53.5t-55.5 -17.5l-52 -3
v-48q0 -8 -6.5 -14t-14.5 -6q-9 0 -15 6t-6 14v68q0 8 5.5 14t14.5 7h5t15 1t23 1t29 1q7 1 12.5 1.5t9.5 1.5q3 1 5.5 2.5t3.5 3.5t1.5 7.5t0.5 13.5v16l-114 37q-6 1 -9.5 5.5t-4.5 11.5l-4 34q-9 -5 -16.5 -13t-14.5 -18l-98 -133l337 -336q4 -3 5.5 -6.5t1.5 -7.5
q0 -9 -6.5 -15t-14.5 -6q-4 0 -8 1.5t-7 4.5l-158 157zM366 71q-3 -4 -7.5 -6t-9.5 -2q-48 0 -69.5 21.5t-29.5 49.5q-4 14 -6 32t-2 40q0 9 6 15t14 6q9 0 15 -6t6 -15q0 -32 5.5 -54.5t15.5 -33.5q5 -5 14 -9t21 -5l170 231q5 7 13.5 8t15.5 -4t8 -13.5t-4 -15.5zM702 83
q0 -8 -6.5 -14t-14.5 -6h-95q-7 0 -12 3t-7 10t-0.5 13t6.5 10q32 25 51 54t19 55q-1 27 -17.5 43t-45.5 18q-9 1 -14.5 7.5t-4.5 14.5q1 9 7.5 14.5t14.5 4.5q45 -3 72.5 -30.5t28.5 -70.5q1 -25 -10.5 -52t-34.5 -53h42q8 0 14.5 -6t6.5 -15z" />
    <glyph glyph-name="uniE039" unicode="SEC&#x30;&#x35;&#x38;" 
d="M860 413q12 -19 18 -40.5t7 -44.5q0 -12 -3.5 -17.5t-12.5 -5.5h-205l27 -26h194q8 0 14 -6t6 -15q0 -8 -6 -14.5t-14 -6.5h-149l100 -93q4 7 5.5 18.5t1.5 28.5q0 8 6.5 14t14.5 6t14.5 -6t6.5 -14q0 -26 -4.5 -45t-13.5 -32l69 -64q6 -6 6.5 -14.5t-5.5 -15.5
q-3 -3 -7 -4.5t-8 -1.5t-7.5 1.5t-6.5 4.5l-73 68q-23 -11 -61.5 -17t-92.5 -6t-92.5 6t-62.5 19q-25 12 -36.5 34t-11.5 67q0 8 5.5 13.5t12.5 6.5h208l-28 26h-193q-8 0 -14 6.5t-6 14.5q0 9 6 15t14 6h148l-102 95q-3 -6 -5 -13.5t-3 -15.5q-2 -8 -9 -13t-15 -4
q-9 1 -14 8.5t-3 15.5q1 11 5.5 24t12.5 27l-110 103h-54l37 -381h53q9 0 15 -6t6 -15q0 -8 -6 -14t-15 -6h-71q-8 0 -14 5t-7 13l-40 404h-14q-8 0 -14.5 6t-6.5 14q0 9 6.5 15t14.5 6h66l-67 63q-6 5 -6.5 14t5.5 15t14.5 6.5t15.5 -5.5l99 -93h155q9 0 15 -6t6 -15
q0 -8 -6 -14t-15 -6h-111l74 -69q27 28 67 42t91 14q63 0 108.5 -21t70.5 -59zM841 346q-8 50 -49.5 78t-110.5 28q-43 0 -74.5 -10.5t-53.5 -32.5l67 -63h221zM681 106q43 0 73.5 3t47.5 10l-55 51h-228q2 -26 17.5 -39t50.5 -19q17 -3 41 -4.5t53 -1.5z" />
    <glyph glyph-name="uniE03A" unicode="SEC&#x30;&#x35;&#x39;" 
d="M549 79q-2 -7 -7.5 -11t-12.5 -4h-1l-1 1h-4q-43 13 -79 38.5t-61.5 60t-39.5 76t-14 85.5q0 77 39 140t100 97q31 17 64 25.5t68 8.5q77 0 140 -38.5t97 -99.5q17 -31 25.5 -64.5t8.5 -68.5q0 -90 -53 -161.5t-139 -97.5q-9 -2 -16.5 2t-9.5 12t2 15.5t12 10.5
q72 22 117.5 83t45.5 136q0 65 -33.5 118t-84.5 83q-26 14 -54 21.5t-58 7.5q-65 0 -118 -32.5t-82 -84.5q-15 -26 -22.5 -54.5t-7.5 -58.5q0 -75 46.5 -136.5t118.5 -83.5q8 -2 12 -9.5t2 -16.5zM555 396q0 -10 -7 -17.5t-18 -7.5t-18.5 7.5t-7.5 17.5q0 11 8 18.5t18 7.5
t17.5 -7.5t7.5 -18.5zM695 396q0 -10 -7 -17.5t-18 -7.5t-18.5 7.5t-7.5 17.5q0 11 8 18.5t18 7.5t17.5 -7.5t7.5 -18.5zM728 269q-6 -49 -41 -78t-86 -29h-2q-34 0 -61.5 13t-44.5 37q-8 12 -14 25.5t-8 29.5q-1 8 4 14.5t14 8.5q8 1 15 -4t8 -13q5 -33 28 -51.5t59 -18.5
h1q36 0 59 19t28 52q2 9 8.5 14t14.5 4q9 -1 14 -7.5t4 -15.5z" />
    <glyph glyph-name="uniE03B" unicode="SEC&#x30;&#x36;&#x30;" 
d="M756 247q0 -18 -9.5 -27t-27.5 -9h-11h-2.5t-2.5 1h-23q-8 0 -14 6t-6 14q0 9 6 15t14 6h25h3t3 -1h4v69q0 5 2.5 9.5t6.5 7.5q13 9 23 16.5t17 12.5t12.5 9.5t7.5 8.5q2 2 3 5t2 7t1 11.5v20.5v62q0 53 -26.5 96t-68.5 67q-22 12 -44.5 18t-47.5 6q-53 0 -96 -26
t-67 -68q-13 -21 -19 -43.5t-6 -46.5v-65v-20.5t1 -11.5t2 -7t3 -5q2 -4 7.5 -8.5t12.5 -9.5t17 -12.5t23 -16.5q4 -3 6.5 -7.5t2.5 -9.5v-51q0 -7 5 -12t12 -5h65q9 0 15 -6t6 -15q0 -8 -6 -14t-15 -6h-65q-24 0 -41 17t-17 41v40q-17 12 -29.5 21t-19.5 16
q-15 13 -20.5 28.5t-5.5 53.5v62q0 49 19.5 92t52.5 74q32 30 72.5 46t84.5 16q63 0 116 -32.5t83 -83.5q14 -26 21.5 -54t7.5 -58v-62q0 -33 -4 -48.5t-17 -28.5q-7 -7 -20.5 -17.5t-33.5 -24.5v-63zM534 408q0 -8 -5.5 -13.5t-12.5 -5.5q-28 0 -48 20t-20 48t20 47.5
t48 19.5t47.5 -19.5t19.5 -47.5q0 -8 -5.5 -13.5t-13.5 -5.5t-13 5.5t-5 13.5q0 12 -9 21t-21 9q-13 0 -21.5 -9t-8.5 -21q0 -13 8.5 -21.5t21.5 -8.5q7 0 12.5 -5.5t5.5 -13.5zM703 408q0 -7 -5.5 -13t-13.5 -6q-28 0 -47.5 20t-19.5 48t19.5 47.5t47.5 19.5t48 -19.5
t20 -47.5q0 -8 -5.5 -13.5t-13.5 -5.5t-13.5 5.5t-5.5 13.5q0 12 -8.5 21t-21.5 9q-12 0 -21 -9t-9 -21q0 -13 9 -21.5t21 -8.5q8 0 13.5 -5.5t5.5 -13.5zM662 295q-2 -2 -5 -3t-7 -1q-5 0 -8.5 1.5t-5.5 5.5l-33 43l-33 -43q-5 -6 -12.5 -7t-14.5 4q-6 4 -7 12t4 14l48 62
q2 4 6 5.5t9 1.5q4 0 8 -1.5t6 -5.5l48 -62q5 -6 4 -14t-7 -12zM310 -50h-3q-15 0 -19 10.5t0 18.5q2 4 5 7t7 4l589 214q8 3 16 -1t11 -12q3 -7 -0.5 -15t-11.5 -11l-590 -214q-1 -1 -2 -1h-2zM525 105q-2 -7 -7 -10.5t-12 -3.5h-3h-2t-2 1l-199 73q-8 3 -12 11t-1 15
q3 8 11 12t16 1l199 -73q8 -3 11.5 -10.5t0.5 -15.5zM916 -45q-2 -7 -7.5 -10t-12.5 -3h-3h-2t-2 1l-203 74q-8 2 -11.5 10t-0.5 16q2 8 10 11.5t16 0.5l204 -73q8 -3 11.5 -11t0.5 -16z" />
    <glyph glyph-name="uniE03C" unicode="SEC&#x30;&#x36;&#x31;" 
d="M945 85q-12 -11 -26.5 -16.5t-31.5 -5.5h-44l94 -101q3 -4 4.5 -7.5t1.5 -7.5q0 -9 -7 -14.5t-14 -5.5q-4 0 -8 1.5t-7 4.5l-402 430q-23 -4 -43.5 -24.5t-20.5 -54.5t22 -55.5t50 -24.5q13 -2 26 0.5t24 9.5q8 4 16 1.5t12 -9.5q5 -8 2.5 -16t-9.5 -12
q-14 -8 -29.5 -12.5t-31.5 -4.5q-24 0 -47 9.5t-40 26.5q-18 18 -27 40t-9 47t9 47t27 40q8 8 18 15t20 11l-63 67h-35q-20 0 -30 -10.5t-10 -31.5v-317h314q9 0 15 -6.5t6 -14.5t-6 -14.5t-15 -6.5h-335q-8 0 -14 6.5t-6 14.5v338q0 36 21 59t56 25l-132 142q-2 3 -3.5 7
t-1.5 8q0 9 6.5 14.5t15.5 5.5q4 0 7.5 -1.5t6.5 -5.5l533 -571h83q19 0 28.5 9.5t9.5 30.5v342l-373 208q-7 4 -9.5 12t1.5 16q5 8 13 10t15 -2l383 -213q5 -3 8 -7.5t3 -10.5v-355q0 -19 -5.5 -34t-15.5 -26zM813 485q0 -9 -6 -15t-14 -6h-235q-8 0 -14.5 6t-6.5 15
q0 8 6.5 14.5t14.5 6.5h235q8 0 14 -6.5t6 -14.5zM859 345q0 -8 -6 -14.5t-14 -6.5h-109q-9 0 -15 6.5t-6 14.5t6 14.5t15 6.5h109q8 0 14 -6.5t6 -14.5zM861 244q0 -9 -6.5 -15t-14.5 -6h-110q-9 0 -15 6t-6 15q0 8 6 14t15 6h110q8 0 14.5 -6t6.5 -14z" />
    <glyph glyph-name="uniE03D" unicode="SEC&#x30;&#x36;&#x32;" 
d="M640 662q0 -9 -6 -15t-14 -6q-9 0 -15 6t-6 15v117q0 9 6 15t15 6q8 0 14 -6t6 -15v-117zM551 590q-3 -5 -7.5 -8t-11.5 -3h-4h-2.5t-2.5 1l-100 48q-8 4 -11 12t1 15q4 8 12 11t16 -1l100 -47q8 -4 11 -12t-1 -16zM712 579h-5q-13 0 -17.5 9.5t-1.5 17.5q1 4 3.5 7
t6.5 5l100 47q8 4 16 1t12 -11q4 -7 1 -15t-11 -12l-100 -48q-1 -1 -2 -1h-2zM686 319q-9 0 -15 6t-6 15v33h-128v-90q0 -7 -3 -12t-10 -7q-35 -15 -60.5 -42t-38.5 -60q-7 -17 -10.5 -34.5t-3.5 -36.5q0 -53 27 -97t70 -68q22 -12 44.5 -18t47.5 -6q53 0 96.5 27t67.5 70
q12 22 18 44.5t6 47.5q0 51 -25.5 91.5t-67.5 62.5q-22 11 -45.5 16.5t-49.5 5.5q-9 0 -15 6.5t-6 14.5t6 14.5t15 6.5q66 0 120 -30t82 -79q14 -25 21 -52.5t7 -56.5q0 -65 -32.5 -118t-84.5 -82q-26 -15 -54.5 -22.5t-58.5 -7.5q-65 0 -118 33t-82 85q-15 26 -22.5 54
t-7.5 58q0 65 34 120.5t91 84.5v97q0 9 6 15t15 6h48q-6 18 -2.5 36t20.5 46q13 21 16 31.5t1 21.5q-1 9 4.5 15.5t13.5 7.5q9 1 15.5 -4t7.5 -14q3 -25 -4.5 -44t-17.5 -35q-15 -23 -15.5 -35t7.5 -26h76q8 0 14 -6t6 -15v-53q0 -9 -6 -15t-14 -6zM672 -37
q-17 -10 -35 -14.5t-37 -4.5q-9 0 -15 6t-6 14q0 9 6 15t15 6q44 0 75 31.5t31 74.5q0 8 6 14.5t14 6.5q9 0 15 -6.5t6 -14.5q0 -42 -21 -76t-54 -52z" />
    <glyph glyph-name="uniE03E" unicode="SEC&#x30;&#x36;&#x33;" 
d="M959 120q0 -25 -21.5 -39t-63.5 -14h-197q-53 0 -90.5 15t-62.5 48q-13 16 -24 39t-21 54q-15 48 -34.5 73t-52.5 37q-8 3 -11.5 10.5t-0.5 15.5q2 8 10 12t16 1q42 -15 68 -47t44 -89q22 -72 56.5 -100t102.5 -28h197q10 0 18 1t14 3q6 1 9 3.5t3 4.5q0 5 -10.5 12.5
t-32.5 17.5l-160 71q-30 13 -50 26.5t-37 34.5q-9 10 -18 22.5t-18 27.5q-25 41 -44 70.5t-32 48.5q-27 37 -53 59t-58 32q-16 5 -35.5 7.5t-41.5 2.5h-45v-423q0 -15 4.5 -18t18.5 -3h18q8 0 14 -6t6 -14q0 -9 -6 -15t-14 -6h-18q-32 0 -48 15.5t-16 46.5v443q0 9 6 15
t15 6h65q33 0 62 -5t54 -16q25 -12 49.5 -34t52.5 -59q14 -19 34.5 -50t46.5 -75q23 -38 45 -58.5t59 -36.5l161 -71q29 -13 42 -22.5t19 -20.5q3 -5 4.5 -11.5t1.5 -13.5z" />
    <glyph glyph-name="uniE03F" unicode="SEC&#x30;&#x36;&#x34;" 
d="M676 436q-2 -7 -7.5 -11t-12.5 -4h-1l-1 1h-4q-29 10 -46.5 35.5t-17.5 54.5q0 24 7.5 45t30.5 52q17 23 22 36t4 28q0 11 8.5 17.5t17.5 3.5q34 -9 66 -38t50 -64q9 -17 13.5 -34.5t4.5 -33.5q0 -37 -19.5 -63.5t-55.5 -37.5q-8 -3 -15.5 1t-10.5 12q-2 9 2 16.5t12 9.5
q23 7 34.5 23t11.5 39q0 31 -24 66t-56 54q-5 -18 -13.5 -32t-17.5 -27q-19 -25 -25 -40t-6 -33q0 -16 10.5 -30.5t25.5 -19.5q8 -3 12 -10.5t1 -15.5zM622 -35q-9 0 -15 6t-6 15t6 15t15 6h191q4 0 7.5 1t5.5 2q1 2 2 5t1 6v186h-299v-221q0 -9 -6 -15t-15 -6t-15 6t-6 15
v221h-99q-25 0 -41 16t-17 43v278q0 9 6.5 15t14.5 6h157q9 0 15 -6t6 -15v-295h72v125q0 9 6 15t14 6h154q9 0 15 -6t6 -15v-125h53q8 0 14 -6.5t6 -14.5v-207q0 -25 -15.5 -40.5t-41.5 -15.5h-191zM373 266q0 -8 4 -12.5t12 -4.5h99v274h-115v-257zM643 249h112v105h-112
v-105z" />
    <glyph glyph-name="uniE040" unicode="SEC&#x30;&#x36;&#x35;" 
d="M267 130l-1 -1h-1h-4q-7 0 -12.5 4t-7.5 11q-10 36 -7.5 72.5t15.5 69t37 60.5t56 47q13 7 24.5 12t21.5 8q-2 13 -3.5 25t-1.5 24q0 51 22 95.5t60 75.5q19 15 40.5 25.5t44.5 16.5q8 2 15.5 -3t9.5 -13t-2.5 -15.5t-12.5 -9.5q-60 -14 -98 -62t-38 -110
q0 -13 2.5 -27.5t7.5 -30.5q2 -7 -0.5 -13.5t-8.5 -10.5h-1q-1 -1 -2 -1.5l-1 -0.5h-3q-30 -6 -60.5 -23.5t-52.5 -50.5q-22 -34 -28.5 -72.5t4.5 -76.5q2 -9 -2 -16t-12 -9zM961 141q-2 -7 -7.5 -10.5t-12.5 -3.5h-6q-8 3 -12 10.5t-2 15.5q17 59 -5.5 116t-76.5 88
q-12 7 -25.5 12t-28.5 8l-4 2l-4 2q-5 4 -7 10t0 13q5 16 7.5 30.5t2.5 27.5q0 60 -37.5 108.5t-96.5 63.5q-8 2 -12.5 9.5t-2.5 15.5t9.5 12.5t15.5 2.5q72 -19 118.5 -78t46.5 -134q0 -13 -1.5 -26t-4.5 -25q13 -4 24.5 -9t20.5 -9q45 -26 72.5 -67.5t34.5 -89.5
q4 -24 2.5 -48t-8.5 -47zM544 430q-2 -1 -4 -1.5t-4 -0.5q-14 0 -18 11t-1 18q1 4 4 6.5t7 4.5q40 17 77.5 17.5t72.5 -15.5q8 -4 11 -12t-1 -16t-12 -11t-15 1q-27 12 -56.5 11.5t-60.5 -13.5zM686 271q-4 -4 -7.5 -5.5t-7.5 -1.5q-2 0 -4 0.5t-4 1.5q-7 2 -10 7.5t-3 12.5
q1 14 -6 27t-18 19q-2 1 -4 3l-4 4l-2 4t-1 4q-1 9 3.5 16t12.5 9q31 7 54.5 24t38.5 45q4 7 12 10t16 -1t10 -12.5t-2 -15.5q-14 -28 -35.5 -47.5t-49.5 -32.5l9 -17q26 18 54.5 26t59.5 7q9 -1 14.5 -7.5t4.5 -14.5q-1 -9 -7.5 -14.5t-14.5 -4.5q-31 2 -60 -10.5
t-49 -35.5zM552 290q2 -12 -5 -18t-16 -6q-4 -1 -7.5 0.5t-7.5 5.5q-20 23 -48 35t-59 11q-8 -1 -14.5 4.5t-7.5 14.5q0 9 5.5 15t14.5 7q30 1 58.5 -7.5t52.5 -25.5q2 5 5 9l6 8q-28 13 -48.5 32.5t-34.5 46.5q-4 7 -2 15.5t10 12.5t16 1t12 -10q15 -28 38.5 -45t54.5 -24
q7 -2 11 -6.5t5 -11.5q1 -6 -2 -12t-9 -9q-13 -7 -20.5 -18.5t-7.5 -24.5zM719 133q-2 -2 -5 -3t-7 -1q-11 0 -16 8t-4 17q1 4 2.5 7.5t5.5 5.5q24 16 38.5 41.5t18.5 59.5q1 8 7.5 13.5t15.5 4.5q9 -2 14 -8.5t4 -14.5q-5 -43 -24 -75.5t-50 -54.5zM512 141q-2 -4 -6.5 -6
t-9.5 -2q-4 0 -7.5 1t-5.5 3q-32 25 -51 55t-24 66q-1 9 4 15.5t14 8.5q8 1 15 -4t8 -14q4 -28 19 -51.5t40 -42.5q7 -5 8 -13.5t-4 -15.5zM665 82q-2 -1 -5 -2t-5 -1q-5 0 -9.5 2.5t-8.5 7.5q-16 25 -22.5 53t-3.5 57h-10h-5t-5 1q3 -31 -4 -59.5t-23 -53.5
q-3 -5 -7.5 -7.5t-10.5 -2.5h-2.5t-2.5 1t-3 1t-3 1q-7 5 -9 13t3 16q17 26 21 56.5t-6 59.5q-2 7 -0.5 13t6.5 10t12 4.5t12 -3.5q12 -7 26 -8t25 4q9 9 19 5.5t14 -10.5q2 -4 2 -8t-1 -8q-10 -28 -6.5 -57.5t19.5 -55.5q5 -8 2.5 -16.5t-9.5 -12.5zM908 50
q-31 -32 -72 -49t-85 -17q-31 0 -58 7.5t-52 21.5q-10 5 -20.5 12.5t-20.5 17.5q-10 -8 -19 -15.5t-19 -13.5q-26 -15 -53.5 -22.5t-56.5 -7.5q-44 0 -85.5 18t-72.5 50q-3 3 -4.5 7t-1.5 8q0 8 6.5 14t15.5 6q4 0 7.5 -1.5t6.5 -4.5q42 -45 103 -53.5t114 22.5
q11 7 21.5 15.5t20.5 18.5l2 2l2 2q5 4 10.5 4.5t11.5 -1.5q1 0 2.5 -0.5t2.5 -1.5v-1h1v-1h1v-1h1q8 -10 19.5 -19.5t25.5 -17.5q53 -31 113 -22.5t103 52.5q3 3 7 4.5t8 1.5q8 0 14 -6t6 -14q0 -4 -1.5 -8t-3.5 -7z" />
    <glyph glyph-name="uniE041" unicode="SEC&#x30;&#x36;&#x36;" 
d="M967 217q0 -22 -14.5 -36t-37.5 -14h-325q-9 0 -15 6t-6 15v223q0 22 14.5 36t37.5 14h113v122l-126 61q-7 4 -10 12t1 16t12 10.5t16 -1.5l137 -66q6 -4 9 -8.5t3 -10.5v-135h170q8 0 14.5 -6t6.5 -15v-223zM756 -3q-11 -10 -25.5 -15t-31.5 -5h-445q-8 0 -14 6t-6 14
v610q0 34 21 55t56 21h200q9 0 15 -6t6 -14v-129l104 36q8 3 16 -1t11 -12t-1 -15.5t-12 -10.5l-132 -46q-10 -3 -18.5 3t-8.5 17v137h-180q-18 0 -27 -9t-9 -26v-589h424q18 0 26.5 8t8.5 25v23q0 8 6.5 14t14.5 6t14.5 -6t6.5 -14v-23q0 -16 -5 -29.5t-15 -24.5zM610 365
h315v55h-304q-7 0 -9 -2t-2 -7v-46zM496 388q0 -9 -6 -15t-14 -6h-101q-8 0 -14.5 6t-6.5 15q0 8 6.5 14.5t14.5 6.5h101q8 0 14 -6.5t6 -14.5zM925 324h-315v-116h305q5 0 7.5 1.5t2.5 7.5v107zM497 259q0 -8 -6 -14.5t-14 -6.5h-102q-8 0 -14.5 6.5t-6.5 14.5q0 9 6.5 15
t14.5 6h102q8 0 14 -6t6 -15zM496 130q0 -8 -6 -14t-14 -6h-101q-8 0 -14.5 6t-6.5 14q0 9 6.5 15t14.5 6h101q8 0 14 -6t6 -15z" />
    <glyph glyph-name="uniE042" unicode="SEC&#x30;&#x36;&#x37;" 
d="M257 375q-5 -1 -10.5 -2t-10.5 -1q-28 0 -50.5 17t-29.5 44q-9 33 8 63t50 39l271 73q9 2 16 -2t9 -12q2 -9 -2 -16.5t-12 -9.5l-271 -73q-16 -4 -25 -19t-4 -32q4 -16 19 -25t32 -4l46 12l-8 30q-2 8 2 15t11 8q7 2 14 -1.5t9 -11.5l8 -30l67 18l-8 30q-2 7 1.5 14
t11.5 9q7 2 14 -1.5t9 -11.5l8 -31l66 18l-8 31q-1 7 2.5 13.5t10.5 8.5q8 2 15 -2t8 -11l8 -30l75 20l-36 138q-2 9 2 16t12 9q9 2 16.5 -2t9.5 -12l49 -185q2 -9 -2 -16.5t-12 -9.5h-6q-7 0 -12.5 4t-7.5 11l-2 7zM816 315q0 -42 -29.5 -71.5t-70.5 -29.5
q-42 0 -71.5 29.5t-29.5 71.5q0 9 2 18.5t6 19.5t12 25.5t21 37.5l9 16q5 7 13 9t15 -2t9.5 -12t-1.5 -16l-10 -16q-11 -19 -18 -32t-10 -20q-3 -8 -4.5 -15t-1.5 -13q0 -25 17 -42.5t42 -17.5q24 0 41.5 17.5t17.5 42.5q0 21 -7 42t-22 46q-7 13 -16.5 28t-20.5 33l-11 17
q-5 8 -2.5 16t9.5 12q7 5 15.5 3t12.5 -9l11 -17q25 -39 40 -66t21 -43q5 -16 8 -31t3 -31zM739 291q0 -7 -5 -12.5t-13 -5.5h-1q-10 1 -18 4.5t-15 10.5q-8 10 -11 18.5t1 15.5q3 6 10.5 8.5t14.5 -0.5q3 -2 5.5 -4.5t3.5 -6.5q0 -1 1 -2.5t2 -2.5t2 -1.5t2 -0.5q1 -1 2 -1
t2 -1q7 0 12.5 -5.5t4.5 -13.5zM1047 70q0 -38 -24 -62t-63 -24h-543q-8 0 -14 6t-6 15v113q0 38 24 61.5t63 23.5h112q8 0 14.5 -6t6.5 -14q0 -9 -6.5 -15t-14.5 -6h-112q-22 0 -34 -11.5t-12 -32.5v-92h522q22 0 34 11.5t12 32.5v92h-154q-24 -32 -59.5 -49.5t-76.5 -17.5
q-9 0 -18 1t-17 2q-8 2 -13 9.5t-3 15.5q1 8 8.5 13t15.5 3q4 -1 7 -1t7 -1q3 -1 6 -1h7q33 0 61.5 15.5t46.5 42.5v1h1q4 4 8 6.5t9 2.5h184q9 0 15 -6.5t6 -14.5v-113z" />
    <glyph glyph-name="uniE043" unicode="AIR&#x30;&#x30;&#x31;" 
d="M498 94l48 134l-110 -38q-50 -17 -94.5 -2.5t-74.5 57.5l-69 121q-7 14 -3 26t19 18l53 19q10 3 18.5 1.5t16.5 -7.5q6 -4 12 -8.5t12 -8.5t12 -9t11 -9t11 -8l12 -8t12 -9t11 -9l109 40l-146 142q-10 12 -7 24.5t16 17.5l78 21q8 2 16 1.5t15 -4.5l158 -87q7 -4 9.5 -12
t-1.5 -16q-5 -8 -13 -10t-15 2l-157 86l-49 -13l148 -146q8 -8 5 -19.5t-12 -14.5l-150 -55q-5 -1 -10 -0.5t-9 3.5l-55 41l-47 34l-37 -14l62 -109q20 -29 50 -38.5t70 1.5l150 52q5 1 11 0t10 -5q5 -5 6 -10.5t-1 -11.5l-53 -148l53 13l4 2t3 2l126 210q1 2 3.5 4.5
t6.5 4.5l180 65q16 6 27 15t16 20q6 11 0.5 27t-16.5 22q-12 6 -30 4.5t-43 -10.5l-133 -48q-8 -3 -16 1t-10 12q-3 8 0.5 15.5t11.5 10.5l133 48q56 19 92 9t51 -50q11 -30 -5 -63.5t-64 -51.5l-173 -63l-122 -204q-5 -8 -13 -13.5t-19 -8.5l-80 -19q-1 -1 -2.5 -1h-2.5h-5
q-11 0 -17 6.5t-6 16.5q0 3 0.5 6t1.5 6z" />
    <glyph glyph-name="uniE044" unicode="AIR&#x30;&#x30;&#x32;" 
d="M871 545q17 0 29 -11.5t12 -28.5t-12 -29t-29 -12t-28.5 12t-11.5 29q0 4 1 8t3 9q-43 53 -105 82.5t-130 29.5q-84 0 -154.5 -43t-109.5 -112q-19 -34 -29 -71t-10 -77v-12t1 -12t1 -12t1 -12q1 -8 -4 -15t-13 -9h-3q-8 0 -14 5t-7 13q-2 17 -3 30.5t-1 23.5
q0 96 49.5 176t127.5 124q39 22 81 33t87 11q78 0 149.5 -34t121.5 -96zM566 183q-13 -3 -20.5 5t-2.5 20l19 54l-43 -15q-29 -8 -51 -1t-38 30l-35 61q-5 8 -2 18t13 13l26 10q6 2 12.5 1t11.5 -5q2 -2 5 -4.5t6 -4.5l6 -4l6 -4l20 -15l41 15l-65 64q-7 7 -5 17t12 13v1h1
l38 10q5 1 10 0.5t10 -2.5l62 -34q6 -4 8 -10.5t-1 -12.5q-4 -6 -10.5 -8t-12.5 2l-59 33l-12 -3l66 -65q7 -7 5.5 -15.5t-11.5 -11.5l-74 -27q-4 -2 -8 -1.5t-8 3.5l-27 20l-20 15l-9 -3l27 -48q10 -13 23 -16.5t30 0.5l74 26q5 2 9.5 1t7.5 -5q4 -3 5 -7.5t-1 -9.5
l-22 -63l15 4l61 103q1 2 3.5 4t5.5 3l89 33q12 4 16.5 10t1.5 13q-4 8 -12.5 9t-24.5 -5l-52 -19q-7 -2 -13 1t-8 9q-2 7 1 13t9 8l52 19q30 11 50.5 4.5t28.5 -28.5q9 -23 -6 -42t-32 -23l-83 -31l-60 -99q-3 -5 -7.5 -9t-11.5 -5zM329 198q17 0 29 -12t12 -29
q0 -6 -1 -10.5t-3 -8.5q43 -51 104.5 -80.5t129.5 -29.5q86 0 156 43t109 112q19 34 29 71t10 77q0 13 -1 24.5t-3 21.5q-1 9 4.5 15.5t13.5 7.5t15 -4t8 -13q2 -11 3 -24.5t1 -27.5q0 -96 -49 -176.5t-127 -124.5q-40 -22 -82 -33t-87 -11q-78 0 -149 35t-120 95h-2
q-17 0 -29 12t-12 29t12 29t29 12z" />
    <glyph glyph-name="uniE045" unicode="AIR&#x30;&#x30;&#x33;" 
d="M296 294q1 -9 -4.5 -15.5t-13.5 -7.5h-3q-8 0 -13.5 5t-6.5 13q-1 10 -2 20.5t-1 21.5q0 96 49.5 176t127.5 124q39 22 81 33t87 11q71 0 137 -28.5t115 -81.5q3 -3 4.5 -6.5t1.5 -7.5q0 -9 -6.5 -15t-14.5 -6q-4 0 -8 1.5t-7 5.5q-43 46 -101 71.5t-121 25.5
q-84 0 -154.5 -43t-109.5 -112q-19 -34 -29 -71t-10 -77q0 -13 0.5 -22t1.5 -15zM656 275q-7 -2 -14 -3t-15 -1q-22 0 -39 10t-26 28l-37 71q-5 10 -2 20t15 13l34 14q7 3 13 2t13 -6h1v-1l38 -33l34 11l-68 71q-4 4 -5.5 9.5t-0.5 12.5q2 6 5.5 10t7.5 5l1 1l55 17
q6 1 11.5 0.5t10.5 -2.5l4 -2l59 -47q6 -5 7 -13t-4 -14q-4 -6 -12 -7t-14 4l-55 44l-27 -9l72 -75q7 -9 4.5 -18t-12.5 -12l-71 -25q-6 -1 -10.5 -0.5t-8.5 4.5l-41 36l-14 -6l30 -58q7 -13 20.5 -16.5t29.5 1.5l249 90q5 1 9.5 5t6.5 9q3 5 1.5 10.5t-4.5 9.5q-1 1 -3.5 2
t-6.5 2t-9 -0.5t-12 -3.5l-35 -12q-7 -3 -14 0t-10 11q-2 8 1.5 14.5t10.5 9.5l35 12q31 11 52.5 2t28.5 -32q8 -21 -2.5 -43t-35.5 -31l-250 -91h-1zM751 23q-37 -19 -75.5 -28t-78.5 -9q-90 0 -169 44t-126 121q-4 -8 -5.5 -17t-1.5 -19q0 -29 17.5 -50.5t49.5 -31.5
q8 -2 12.5 -9.5t1.5 -15.5q-1 -6 -7 -10.5t-13 -4.5h-2h-2t-2 1q-46 14 -71.5 46t-24.5 75q1 45 30 88t79 75q25 16 54 28.5t62 21.5q9 2 16.5 -2.5t9.5 -12.5t-2.5 -15.5t-12.5 -9.5q-54 -15 -96 -39.5t-67 -56.5q39 -75 112.5 -119.5t157.5 -44.5q57 0 109.5 21t92.5 57
t65 83t33 98q1 8 8 13.5t15 4.5t13.5 -8t4.5 -16q-13 -86 -64 -153.5t-123 -104.5z" />
    <glyph glyph-name="uniE046" unicode="AIR&#x30;&#x30;&#x34;" 
d="M720 348q-3 -2 -6 -3t-5 -1h-4q-2 0 -5 1t-6 3l-142 87q-6 3 -8.5 8.5t-1.5 12.5v57q0 9 6 15t15 6q8 0 14 -6t6 -15v-48l104 -64v116l-135 79q-6 3 -8.5 8t-1.5 12q0 3 1 5.5t2 4.5l2 2l2 2q2 1 3.5 2t2.5 2l142 80q4 1 7 2t5 0q2 0 4.5 -0.5t4.5 -1.5l139 -80
q4 -1 7 -3t5 -5q1 -1 1 -2t1 -2t1 -2.5t1 -2.5v-166q-1 -6 -3.5 -10t-6.5 -6zM707 672l-103 -59l103 -60l104 61zM832 578l-104 -61v-116l104 64v113zM542 -56q-1 -1 -2 -1h-2h-3q-10 0 -15.5 5.5t-7.5 12.5q-1 4 -1 7t1 7v1l37 104l-84 -29h-1q-45 -13 -81 -1t-60 47h-1v1
l-57 100q-7 12 -3 24.5t17 17.5l44 16q9 3 17.5 1.5t15.5 -7.5l39 -29q9 -7 18 -13.5t18 -12.5l83 30l-116 114q-10 9 -7.5 22t15.5 18h2l63 17q7 2 14 1.5t14 -3.5l130 -72q8 -5 10.5 -13t-1.5 -15q-5 -8 -13 -10t-16 2l-128 70l-33 -9l118 -116q4 -4 5.5 -9t0.5 -10
q-2 -6 -5.5 -10t-7.5 -5l-124 -45q-5 -1 -10.5 -0.5t-9.5 3.5l-44 33l-38 27l-25 -9l49 -86q16 -24 40 -31.5t55 1.5l124 43q6 2 11.5 1t10.5 -6q4 -4 5 -10t-1 -11l-41 -116l37 8q1 1 2 1.5t2 0.5l104 174q1 2 3.5 4.5t6.5 4.5l149 54q11 4 20.5 11.5t12.5 14.5q5 11 2 18
t-8 14q-2 3 -7 5t-12 3t-18.5 -1.5t-25.5 -7.5l-110 -39q-7 -3 -15 0.5t-11 11.5t0.5 16t11.5 11l110 39q49 16 79.5 7.5t43.5 -42.5q10 -29 0 -48.5t-25 -31.5q-7 -7 -15.5 -11.5t-18.5 -8.5l-142 -52l-100 -168l-1 -1v-1q-4 -5 -10.5 -9.5t-14.5 -7.5h-1l-1 -1z" />
    <glyph glyph-name="uniE047" unicode="AIR&#x30;&#x30;&#x35;" 
d="M885 446q17 0 29 -11.5t12 -28.5t-12 -29t-29 -12t-28.5 12t-11.5 29q0 5 1 9.5t3 8.5q-43 51 -105 80.5t-128 29.5q-84 0 -154 -42.5t-108 -110.5q-19 -34 -29 -71t-10 -77q0 -13 1 -25t3 -22q1 -8 -4 -15t-13 -8l-1 -1h-1h-2q-8 0 -13.5 5t-6.5 13q-2 11 -3 24.5
t-1 28.5q0 96 48 175t126 123q39 22 81 33t87 11q78 0 148.5 -34.5t119.5 -94.5h1zM622 95l-40 -9h-5q-8 0 -14.5 6t-3.5 18v1l20 54l-42 -15h-1q-29 -8 -51.5 -0.5t-37.5 29.5v1h-1l-34 60q-5 9 -2 18t13 12l26 10q6 2 12.5 1t11.5 -5l22 -17l21 -15l41 15l-65 63
q-7 7 -5 17.5t12 13.5h1v1l38 10q4 1 9 0.5t10 -2.5l62 -34q6 -4 8 -10.5t-1 -12.5q-4 -6 -10.5 -7.5t-11.5 1.5l-60 33l-11 -4l65 -64q6 -6 4.5 -15t-9.5 -12l-74 -27q-4 -1 -8 -0.5t-8 2.5l-27 21l-20 14l-8 -3l27 -47q8 -13 21.5 -16.5t30.5 0.5l73 26q5 2 9.5 1t7.5 -5
q4 -3 5 -7.5t-1 -9.5l-22 -62l14 3h1l61 103q2 3 4.5 4.5t4.5 2.5l88 32q10 3 15 9.5t3 13.5q-1 1 -1.5 2.5t-1.5 2.5t-4 2t-7 2q-4 0 -10 -1.5t-13 -3.5l-51 -19q-7 -2 -13 1t-8 9q-2 7 0.5 13t8.5 8l52 19q31 10 51.5 3.5t27.5 -27.5q8 -25 -4.5 -40.5t-33.5 -24.5
l-83 -30l-59 -99l-1 -1q-2 -4 -6.5 -7t-10.5 -5h-1v-1z" />
    <glyph glyph-name="uniE048" unicode="AIR&#x30;&#x30;&#x36;" 
d="M455 326q-12 -4 -23.5 -5.5t-22.5 -1.5q-31 0 -57 13.5t-45 39.5v1h-1l-60 99q-4 6 -4.5 12.5t1.5 11.5q1 7 6 11.5t12 6.5l46 16q8 3 16.5 1.5t16.5 -6.5q5 -4 11 -8l12 -8q5 -4 11 -8t11 -8l35 -25l89 31l-123 115q-10 10 -7 22.5t16 17.5h1v1h1l66 17q7 2 14 1.5
t14 -4.5l138 -72q7 -4 10 -12t-1 -16q-4 -7 -12 -10t-16 1l-136 72l-36 -9l124 -117q9 -8 6.5 -20t-13.5 -15l-131 -45q-4 -2 -9 -2t-10 4l-43 31q-11 7 -22.5 15t-22.5 16l-27 -10l51 -84q18 -25 43.5 -32.5t59.5 2.5l436 151q14 5 23 11.5t13 14.5q2 4 2 9t-2 9
q-2 8 -8 12.5t-16 5.5t-23 -1.5t-29 -7.5l-115 -40q-8 -2 -16 1.5t-11 11.5q-2 8 1.5 16t11.5 11l116 40q51 16 83 8t45 -42q9 -26 0 -46t-26 -33q-8 -7 -17 -12t-19 -7l-437 -152h-1zM678 6q0 -8 -6 -14t-15 -6h-395q-9 0 -15 6t-6 14q0 9 6 15t15 6h395q9 0 15 -6t6 -15z
" />
    <glyph glyph-name="uniE049" unicode="AIR&#x30;&#x30;&#x37;" 
d="M928 321q-2 -28 -22 -45t-55 -19h-5t-5 1h-4.5t-3.5 -1l-438 42h-1q-47 8 -74.5 34t-34.5 69v1l-11 114q-2 14 7 23t24 8l46 -4q18 -2 26 -16.5t14 -26.5l6 -12t7 -11l19 -36l88 -8l-57 153q-3 14 4.5 24.5t21.5 7.5h1l65 -11q7 -1 13 -4t11 -10l88 -122q5 -7 3.5 -15.5
t-8.5 -13.5t-15.5 -3.5t-13.5 8.5l-86 119l-34 6l58 -156q1 -5 0.5 -10t-4.5 -9q-3 -4 -8 -6.5t-10 -1.5l-132 12q-5 0 -9.5 2.5t-6.5 7.5l-25 46l-24 45l-27 3l10 -98q4 -29 22 -45.5t52 -22.5l437 -41q15 -1 25.5 1t16.5 8q4 3 6 7.5t2 9.5q1 7 -1.5 13.5t-9.5 10.5
t-19.5 7.5t-29.5 5.5l-116 12q-8 1 -13.5 7.5t-4.5 14.5q1 9 7.5 14.5t14.5 4.5l116 -12q51 -5 76 -26.5t21 -55.5zM924 60q0 -8 -6 -14t-15 -6h-378q-8 0 -14 6t-6 14q0 9 6 15t14 6h378q9 0 15 -6t6 -15z" />
    <glyph glyph-name="uniE04A" unicode="AIR&#x30;&#x30;&#x38;" 
d="M902 344q-10 -4 -20.5 -5.5t-20.5 -1.5h-468q-50 4 -81 28t-42 65v1l-22 114q-3 14 5 24t24 10h49q10 0 17 -4t12 -12q8 -11 16 -22.5t15 -22.5l24 -34h96l-74 148q-6 15 1 25.5t21 10.5h69q8 -1 15 -4t12 -8l1 -1l103 -119q6 -7 5.5 -15.5t-7.5 -13.5q-6 -6 -14.5 -5.5
t-14.5 7.5l-102 117h-40l77 -154q5 -11 -1.5 -20.5t-16.5 -9.5h-140q-5 0 -9.5 2.5t-7.5 6.5l-31 44l-30 43h-30l18 -98q8 -28 29.5 -43.5t55.5 -17.5h466q16 0 26.5 3t17.5 10q4 4 5.5 8t1.5 9q0 13 -7.5 19.5t-22.5 10.5q-8 1 -17.5 2t-20.5 1h-123q-9 0 -15 6t-6 15
q0 8 6 14.5t15 6.5h124q53 -1 80.5 -20.5t27.5 -54.5q0 -28 -15.5 -43.5t-35.5 -21.5zM951 90q0 -25 -18 -43t-43 -18q-19 0 -34.5 10.5t-22.5 28.5h-137q-8 -34 -35 -55t-61 -21t-61 21t-35 55h-134q-7 -18 -23 -29.5t-36 -11.5q-26 0 -44.5 18.5t-18.5 44.5t18.5 45
t44.5 19q20 0 36.5 -12t23.5 -32h133q7 34 34 56.5t62 22.5t62.5 -22.5t34.5 -56.5h135q6 18 22 29.5t36 11.5q26 0 43.5 -17.5t17.5 -43.5zM657 90q0 24 -16.5 40.5t-40.5 16.5q-23 0 -39.5 -16.5t-16.5 -39.5v-4q1 -22 17 -38t39 -16q24 0 40.5 17t16.5 40zM337 90
q0 11 -7.5 18.5t-18.5 7.5t-18.5 -7.5t-7.5 -18.5t7.5 -18.5t18.5 -7.5t18.5 8t7.5 18zM914 90q0 10 -7 17t-17 7t-17 -7t-7 -17t7 -17t17 -7t17 7t7 17z" />
    <glyph glyph-name="uniE04B" unicode="AIR&#x30;&#x30;&#x39;" 
d="M498 536q0 -8 -6 -14.5t-14 -6.5q-9 0 -15 6.5t-6 14.5v32h-54q-16 0 -24.5 -8.5t-8.5 -25.5v-80h461v114h-65q-8 0 -14 6t-6 14q0 9 6 15t14 6h85q9 0 15 -6t6 -15v-538q0 -33 -20 -53t-53 -20h-450q-8 0 -14 6t-6 15v536q0 34 20.5 54.5t53.5 20.5h54v54q0 9 6 15t15 6
q8 0 14 -6t6 -15v-127zM687 536q0 -8 -6 -14.5t-15 -6.5q-8 0 -14 6.5t-6 14.5v32h-63q-9 0 -15 6t-6 14q0 9 6 15t15 6h63v54q0 9 6 15t14 6q9 0 15 -6t6 -15v-127zM370 412v-393h429q8 0 14 1.5t10 5.5q4 5 6 11t2 13v362h-461zM622 78q-7 -10 -18 -15.5t-25 -5.5h-29
q-8 0 -13.5 6t-2.5 15l26 89h-42l-17 -19q-2 -3 -5.5 -4.5t-7.5 -1.5h-48q-9 0 -14 7.5t-2 15.5l20 52l-20 53q-3 7 2 14.5t14 7.5h48q4 0 7.5 -1.5t5.5 -4.5l17 -19h40l-11 40q-2 7 1 13t10 8t13 -2t7 -10l18 -61q3 -8 -1.5 -14.5t-14.5 -6.5h-70q-4 0 -7 1.5t-5 3.5
l-17 20h-17l13 -36q1 -3 1 -6t-1 -6l-13 -36h17l17 20q2 3 5.5 4.5t7.5 1.5h71q8 0 13 -6.5t3 -15.5l-26 -89h7q6 0 9.5 2t6.5 6q2 3 15.5 26t38.5 66q2 4 6 6t8 2h73q13 0 19 4.5t6 14.5t-6 14.5t-19 4.5h-73q-5 0 -9 2t-5 6q-9 17 -20 36t-20 35l-15 22.5t-15 7.5
q-7 0 -11.5 4.5t-4.5 11.5t4.5 12t11.5 5q13 0 24 -5.5t19 -16.5q7 -8 19.5 -30t31.5 -57h63q26 0 42 -14.5t16 -37.5t-16.5 -37.5t-41.5 -14.5h-63q-12 -20 -23 -39t-18 -32q-4 -7 -6.5 -11t-3.5 -5z" />
    <glyph glyph-name="uniE04C" unicode="AIR&#x30;&#x31;&#x30;" 
d="M612 -4q-3 -2 -5.5 -2.5t-5.5 -0.5t-6 1t-5 2q-101 65 -181 148t-121 164q-20 40 -30.5 79.5t-10.5 76.5q0 60 27 106.5t73 71.5q23 13 49 19t55 6q18 0 35.5 -3t33.5 -9q8 -3 11.5 -10.5t0.5 -15.5q-2 -8 -10 -12t-16 -1q-12 5 -25.5 7.5t-29.5 2.5q-72 0 -117.5 -45.5
t-45.5 -116.5q0 -69 39.5 -144.5t111.5 -148.5q36 -37 76.5 -70.5t85.5 -62.5q93 62 165.5 137.5t109.5 148.5q19 37 28 71.5t9 68.5q0 71 -45.5 116.5t-117.5 45.5q-34 0 -65 -13.5t-54 -38.5q-6 -6 -14.5 -6.5t-14.5 5.5q-6 5 -6.5 13.5t5.5 15.5q29 31 68 48t81 17
q60 0 107 -27t72 -73q13 -23 19 -49t6 -54q0 -78 -44 -161.5t-122 -163.5q-40 -40 -83.5 -76t-92.5 -67zM515 235q-8 -2 -16.5 -3.5t-16.5 -1.5q-24 0 -42.5 11t-28.5 31l-40 77q-2 4 -3 8t-1 8q0 7 4.5 12t12.5 9l38 16q8 2 15 1t14 -6l1 -1l41 -36l37 12l-74 78
q-5 5 -6.5 11t0.5 13q1 5 5 10t9 6v1h1l60 18q6 2 12 2t12 -4q1 0 2 -0.5t2 -1.5l65 -52q7 -5 8 -13.5t-5 -14.5q-5 -7 -13 -8t-15 4l-60 48l-30 -9l79 -83q7 -8 4 -19t-13 -14l-78 -27q-5 -2 -10.5 -1t-9.5 5l-45 40l-16 -7l33 -63q5 -10 14 -15.5t20 -5.5q4 0 9.5 1
t11.5 3l272 99q11 4 16 12t2 16q-4 11 -13 12.5t-24 -3.5l-39 -14q-7 -3 -15 1t-11 12t1 15.5t12 10.5l38 14q33 11 56 2.5t34 -35.5q9 -27 -2.5 -49.5t-40.5 -32.5z" />
    <glyph glyph-name="uniE04D" unicode="AIR&#x30;&#x31;&#x31;" 
d="M1028 376q0 -33 -22.5 -55.5t-57.5 -22.5h-103q-8 0 -14.5 6t-6.5 15q0 8 6.5 14t14.5 6h103q18 0 28.5 10t10.5 27t-10 27t-29 10h-128q-7 0 -11.5 3t-8.5 9l-111 141l-49 3l64 -126q5 -11 -1.5 -20.5t-17.5 -9.5h-136q-5 0 -9 2.5t-8 6.5l-30 43q-7 10 -14.5 20.5
t-15.5 21.5h-37l18 -104q2 -8 -3 -15.5t-14 -8.5h-3q-8 0 -13.5 5t-6.5 12l-21 117q-3 13 5 24t23 11h56q10 0 17 -4t12 -12q10 -15 17.5 -25.5l12.5 -17.5l25 -35h92l-62 123h-1v1q-5 13 2 23.5t20 10.5h1l80 -5q7 0 13.5 -3t12.5 -9l1 -1v-1l111 -139h118q36 0 58 -22
t22 -56zM777 142q-11 -43 -41.5 -66.5t-79.5 -27.5h-403q-35 0 -57.5 22.5t-22.5 55.5q0 34 22 56t58 22h55q9 0 15 -6t6 -14t-6 -14.5t-15 -6.5h-55q-19 0 -29 -10t-10 -27t10.5 -27t28.5 -10h400q35 3 55.5 18t28.5 45l18 102h-38q-8 -10 -15 -20.5t-14 -21.5
q-7 -10 -14.5 -20.5t-15.5 -21.5q-3 -4 -7.5 -6.5t-9.5 -2.5h-137q-11 0 -17 9.5t-1 19.5l64 127l-49 -3l-73 -93q-5 -7 -13.5 -8t-15.5 4t-7.5 13.5t4.5 15.5l74 95h1v1h1q5 5 11.5 8.5t14.5 4.5l79 5h2q14 0 20.5 -10.5t1.5 -23.5v-1h-1l-62 -123h92q3 4 6 9t7 9l6 8l6 8
q5 8 12.5 19t17.5 24q4 8 11.5 12.5t17.5 4.5l56 -1q15 0 22.5 -10t5.5 -24l-21 -117v-2z" />
    <glyph glyph-name="uniE04E" unicode="AIR&#x30;&#x31;&#x32;" 
d="M1029 455q0 -38 -25.5 -63t-65.5 -25h-203q-8 0 -14 6t-6 14q0 9 6 15t14 6h203q23 0 36.5 13t13.5 34q0 22 -13.5 35t-36.5 13h-219q-4 0 -8 1.5t-7 4.5l-115 122l-1 1l-65 4l54 -107q5 -10 0 -19.5t-18 -9.5h-202q-5 0 -9.5 2.5t-7.5 6.5l-35 50q-9 12 -18 25l-18 26
h-50l34 -124q2 -9 -2 -16t-12 -9q-9 -2 -16 2t-9 12l-38 139h-1q-2 18 6 27.5t24 9.5h67q10 0 18 -5t13 -13q8 -13 17 -25.5t18 -24.5l30 -42h157l-52 102v1q-7 13 0 24t22 11h2l94 -6q8 -1 15.5 -4.5t12.5 -9.5l109 -115h210q40 0 65.5 -25t25.5 -64zM963 240
q0 -34 -23 -56t-58 -22h-147q-8 0 -14 6t-6 14t6 14.5t14 6.5h147q19 0 29.5 10t10.5 27q0 18 -10 28t-30 10h-189q-4 0 -8 1.5t-7 5.5l-98 104l-51 3l45 -87q5 -11 -1.5 -20.5t-17.5 -9.5h-155q-5 0 -10 2.5t-7 6.5l-31 44q-7 10 -14.5 20.5t-15.5 21.5h-43l29 -104
q2 -8 -2.5 -15.5t-12.5 -9.5t-15.5 2.5t-9.5 12.5l-33 119v1q-3 14 5 24.5t23 10.5h63q8 1 16 -3.5t13 -12.5q4 -5 8 -11t8 -11t7.5 -10.5t7.5 -10.5q3 -4 6 -8.5t6 -8.5t6 -9l6 -10h112l-43 84v1q-6 11 1.5 22.5t20.5 11.5h1l81 -5q8 -1 14.5 -4.5t11.5 -8.5l93 -98h180
q36 0 58.5 -22t22.5 -57zM891 50q0 -30 -19.5 -49t-49.5 -19h-407q-41 3 -67 23t-36 57l-24 97q-3 13 4.5 23t22.5 10l53 1q8 0 15 -4t12 -11q3 -5 6 -9.5t6 -8.5t6 -9t6 -9q6 -8 10.5 -15t8.5 -12h77l-32 62q-6 13 0.5 24t20.5 11h2l65 -5q7 0 13 -3t11 -8l82 -86
q3 -3 4.5 -6.5t1.5 -7.5q0 -9 -6.5 -14.5t-14.5 -5.5q-4 0 -8 1.5t-7 4.5l-80 84l-33 3l33 -65q5 -11 -1.5 -20.5t-16.5 -9.5h-122q-5 0 -9 2.5t-8 6.5q-4 7 -10 15.5t-14 19.5l-23 33h-31l20 -79q5 -22 21.5 -34.5t43.5 -14.5h405q14 0 21 7t7 20t-7 20t-21 7h-87
q-8 0 -14 6t-6 14t6 14.5t14 6.5h87q31 0 50 -19t19 -49z" />
    <glyph glyph-name="uniE04F" unicode="CAT&#x30;&#x30;&#x31;" 
d="M902 549q0 -54 -38 -92t-92 -38q-15 0 -29 3t-27 9l-88 -127q-3 -4 -7.5 -6.5t-9.5 -2.5q-4 0 -11.5 4.5t-8.5 12.5q-1 4 0 8t3 8l88 126q-19 18 -30 42.5t-11 52.5v11h-298l209 -297q2 -3 3 -6t1 -6v-229h129q8 0 14 -6.5t6 -14.5t-6 -14t-14 -6h-283q-8 0 -14 6t-6 14
q0 9 6 15t14 6h113v223l-206 292q-7 8 -9 19t3 22q6 11 15 17t22 6h311q15 35 48 57t73 22q54 0 92 -38.5t38 -92.5zM865 549q0 39 -27.5 66.5t-65.5 27.5q-32 0 -57 -19.5t-33 -49.5q-2 -5 -3 -11.5t-1 -13.5q0 -19 6.5 -35t19.5 -29l54 76q4 7 12.5 8.5t15.5 -3.5
q7 -4 8.5 -12.5t-3.5 -15.5l-53 -76q8 -3 17 -4.5t17 -1.5q38 0 65.5 27.5t27.5 65.5z" />
    <glyph glyph-name="uniE050" unicode="CAT&#x30;&#x30;&#x32;" 
d="M562 542q-3 -12 -10 -21.5t-18 -9.5q-7 0 -13 4.5t-7 12.5q-1 4 0 8t3 8q2 3 3.5 6.5t1.5 7.5q-1 4 -3.5 10.5t-6.5 16.5q-10 20 -12.5 32.5t-1.5 23.5t6.5 21.5t15.5 19.5q7 6 15.5 5.5t13.5 -6.5q3 -3 4.5 -6.5t1.5 -7.5t-1.5 -8t-5.5 -7q-10 -10 -10.5 -18.5
t10.5 -30.5t13.5 -35.5t0.5 -25.5zM659 519q-3 -4 -7.5 -6t-9.5 -2q-7 0 -13 4.5t-7 13.5q-1 4 0.5 7.5t3.5 7.5q2 3 3 6.5t1 7.5q-1 4 -3.5 10.5t-6.5 16.5q-10 20 -12.5 32.5t-1.5 23.5t6.5 21.5t15.5 19.5q7 6 15.5 5.5t14.5 -6.5q2 -3 3.5 -6.5t1.5 -7.5t-1.5 -8
t-4.5 -7q-10 -9 -10.5 -17.5t10.5 -31.5q5 -11 10 -24.5t4 -28.5q-1 -7 -4 -15t-8 -16zM763 136q0 -28 -15.5 -44t-41.5 -16h-281q-9 0 -15 6t-6 14v277q0 34 18.5 55t48.5 21h272q81 0 129 -49.5t44 -168.5q0 -6 -4 -11.5t-10 -7.5l-54 -19q-8 -2 -15.5 1.5t-10.5 11.5
t1 15.5t12 10.5l40 14q0 92 -33.5 127t-98.5 35h-272q-13 0 -19.5 -9.5t-6.5 -25.5v-256h261q10 0 13 4.5t3 14.5v180q0 9 6 15t15 6q8 0 14 -6t6 -15v-180zM884 -7q0 -8 -6 -14t-15 -6h-559q-8 0 -14.5 6t-6.5 14q0 9 6.5 15t14.5 6h559q9 0 15 -6t6 -15z" />
    <glyph glyph-name="uniE051" unicode="CAT&#x30;&#x30;&#x33;" 
d="M751 424q0 -9 -6 -15t-14 -6q-9 0 -15 6t-6 15q0 13 -6.5 23.5t-22.5 22.5q-23 14 -35 33.5t-12 44.5q0 22 11 41t33 36l2 1q14 11 21.5 22.5t8.5 24.5q1 9 7.5 14.5t14.5 4.5q9 -1 14.5 -7.5t4.5 -14.5q-1 -22 -12.5 -41.5t-33.5 -35.5l-2 -1q-16 -14 -22 -23.5
t-6 -20.5q0 -12 6 -22.5t23 -22.5q23 -15 35 -34.5t12 -44.5zM544 409l-7 -3.5t-6 -1.5q-5 0 -9 2t-7 6q-2 3 -4.5 5.5l-4.5 4.5l-6 4t-5 4q-8 5 -19 15t-19 26q-4 7 -6.5 17t-2.5 21q0 20 8.5 35.5t18.5 25.5l9 9t8 6l2 1q18 14 23.5 23.5t7.5 24.5q1 8 7.5 13.5t15.5 4.5
q8 -1 13.5 -7.5t4.5 -14.5q-1 -14 -5.5 -26.5t-12.5 -22.5q-4 -5 -11 -12t-17 -15l-2 -2q-14 -10 -21 -21t-7 -22q0 -12 5.5 -22t23.5 -23q7 -5 14.5 -11.5t14.5 -14.5q5 -7 4 -15.5t-8 -13.5zM797 -12q0 -9 -6 -15t-15 -6h-354q-9 0 -15 6t-6 15v66q-69 8 -112 49t-43 118
v101q0 8 6 14.5t15 6.5q8 0 14.5 -6.5t6.5 -14.5v-101q0 -29 8.5 -52t24.5 -39q15 -14 32 -21t32 -10q7 -1 13.5 -2t11.5 -1q5 -1 7.5 -1h2.5h122q8 0 14 -6t6 -14q0 -9 -6 -15t-14 -6h-100v-46h314v67q0 8 6 14t14 6h3h3.5t7.5 1q9 0 24.5 3t32.5 10q8 4 16.5 8.5
t15.5 11.5q16 16 24.5 39t8.5 53v80h-550q-8 0 -14.5 6.5t-6.5 14.5t6.5 14.5t14.5 6.5h571q8 0 14 -6t6 -15v-10v-12t1 -14v-65q0 -78 -44.5 -120t-112.5 -47v-66z" />
    <glyph glyph-name="uniE052" unicode="CAT&#x30;&#x30;&#x34;" 
d="M863 -2q0 -8 -6.5 -14.5t-14.5 -6.5t-14.5 6.5t-6.5 14.5v644h-46q-19 0 -27.5 -8t-11.5 -29l-51 -324h54q8 0 14 -6t6 -14q0 -9 -6 -15t-14 -6h-78q-10 0 -16 7t-4 17l54 347q4 37 24.5 55t55.5 18h67q9 0 15 -6t6 -15v-665zM480 -2q0 -9 -6.5 -15t-14.5 -6t-14.5 6
t-6.5 15v396q0 7 3.5 12t10.5 7l96 34v216q0 9 6 15t15 6q8 0 14 -6t6 -15v-231q0 -7 -4 -12.5t-10 -6.5l-95 -34v-381zM480 512q0 -9 -6.5 -15t-14.5 -6t-14.5 6t-6.5 15v151q0 9 6.5 15t14.5 6t14.5 -6t6.5 -15v-151zM379 512q0 -9 -6 -15t-15 -6q-8 0 -14 6t-6 15v151
q0 9 6 15t14 6q9 0 15 -6t6 -15v-151z" />
    <glyph glyph-name="uniE053" unicode="CAT&#x30;&#x30;&#x35;" 
d="M578 104q0 -32 -23 -55t-55 -23h-53q-32 0 -55 23t-23 55v236q0 29 8.5 54.5t18.5 50.5q15 38 20.5 61t5.5 44v65q0 8 6.5 14t14.5 6q9 0 15 -6t6 -14v-65q-1 -35 -10 -65t-20 -56q-14 -35 -18.5 -53.5t-4.5 -35.5v-236q0 -15 10.5 -26t25.5 -11h53q15 0 26 11t11 26v236
q0 6 -0.5 11.5t-1.5 11.5q-2 10 -7.5 26.5t-14.5 38.5q-11 26 -20 56t-10 66v65q0 8 6.5 14t14.5 6q9 0 15 -6t6 -14v-65q0 -30 8.5 -56t18.5 -51q7 -17 13.5 -35.5t9.5 -37.5q2 -7 2.5 -14.5t0.5 -15.5v-236zM803 40l-4 -2t-4 -1h-137q-9 0 -15 6t-6 14q0 9 6 15t15 6h120
l12 31v229l-12 30h-106l-12 -30v-176q0 -8 -6.5 -14t-14.5 -6q-9 0 -15 6t-6 14v180q0 2 0.5 3.5t1.5 3.5l19 47q2 7 7 10t12 3h137q2 0 4 -1l4 -2t3.5 -3t2.5 -4l1.5 -1.5t0.5 -1.5l19 -46v-1l1 -1v-239q1 -2 0.5 -5t-1.5 -7l-19 -47q0 -1 -0.5 -1.5l-1.5 -1.5
q-1 -2 -2.5 -4t-3.5 -3z" />
    <glyph glyph-name="uniE054" unicode="CAT&#x30;&#x30;&#x36;" 
d="M751 424q0 -9 -6 -15t-14 -6q-9 0 -15 6t-6 15q0 13 -6.5 23.5t-22.5 22.5q-23 14 -35 33.5t-12 44.5q0 22 11 41t33 36l2 1q14 11 21.5 22.5t8.5 24.5q1 9 7.5 14.5t14.5 4.5q9 -1 14.5 -7.5t4.5 -14.5q-1 -22 -12.5 -41.5t-33.5 -35.5l-2 -1q-16 -14 -22 -23.5
t-6 -20.5q0 -12 6 -22.5t23 -22.5q23 -15 35 -34.5t12 -44.5zM544 409l-7 -3.5t-6 -1.5q-5 0 -9 2t-7 6q-2 3 -4.5 5.5l-4.5 4.5l-6 4t-5 4q-8 5 -19 15t-19 26q-4 7 -6.5 17t-2.5 21q0 20 8.5 35.5t18.5 25.5l9 9t8 6l2 1q18 14 23.5 23.5t7.5 24.5q1 8 7.5 13.5t15.5 4.5
q8 -1 13.5 -7.5t4.5 -14.5q-1 -14 -5.5 -26.5t-12.5 -22.5q-4 -5 -11 -12t-17 -15l-2 -2q-14 -10 -21 -21t-7 -22q0 -12 5.5 -22t23.5 -23q7 -5 14.5 -11.5t14.5 -14.5q5 -7 4 -15.5t-8 -13.5zM797 -12q0 -9 -6 -15t-15 -6h-354q-9 0 -15 6t-6 15v66q-69 8 -112 49t-43 118
v101q0 8 6 14.5t15 6.5q8 0 14.5 -6.5t6.5 -14.5v-101q0 -29 8.5 -52t24.5 -39q15 -14 32 -21t32 -10q7 -1 13.5 -2t11.5 -1q5 -1 7.5 -1h2.5h122q8 0 14 -6t6 -14q0 -9 -6 -15t-14 -6h-100v-46h314v67q0 8 6 14t14 6h3h3.5t7.5 1q9 0 24.5 3t32.5 10q8 4 16.5 8.5
t15.5 11.5q16 16 24.5 39t8.5 53v80h-550q-8 0 -14.5 6.5t-6.5 14.5t6.5 14.5t14.5 6.5h571q8 0 14 -6t6 -15v-10v-12t1 -14v-65q0 -78 -44.5 -120t-112.5 -47v-66z" />
    <glyph glyph-name="uniE055" unicode="CAT&#x30;&#x30;&#x37;" 
d="M285 179q-2 -5 -6.5 -8t-11.5 -3q-2 0 -4.5 0.5t-5.5 1.5q-7 4 -9.5 12t1.5 16l24 44l-31 37q-2 2 -3.5 5t-1.5 7t1 7t3 6l32 48l-30 44q-4 5 -3.5 12t4.5 12l34 44l-15 55q-2 9 2.5 16.5t14.5 9.5q54 7 101 -1t86 -31q19 -11 40.5 -30.5t44.5 -46.5q10 -11 18 -18.5
t12 -11.5t7.5 -5.5t5.5 -1.5q3 0 6 1.5t6 4.5q3 2 8.5 9t13.5 17q28 37 51.5 56.5t52.5 32.5q29 12 63.5 18.5t74.5 6.5q8 0 14.5 -6t6.5 -15q0 -8 -6 -14t-15 -6q-46 0 -83 -9t-65 -27q-14 -10 -29.5 -25t-31.5 -37q-20 -28 -34.5 -38t-31.5 -10h-1q-10 0 -20.5 4t-21.5 14
q-6 5 -14 13.5t-18 19.5q-14 17 -32.5 35t-42.5 33q-25 15 -58.5 23.5t-77.5 5.5l11 -41q1 -4 0.5 -9t-4.5 -9l-31 -40l29 -43q1 -2 2 -5t1 -7t-1 -7t-2 -5l-31 -46l30 -36q4 -5 4.5 -10.5t-2.5 -12.5zM933 138q2 -11 -4 -18.5t-16 -7.5h-2q-39 0 -74 6t-66 18t-59 31
t-66 58q-14 14 -25 23.5t-20 9.5h-1q-3 0 -6 -1.5t-6 -4.5q-4 -3 -9 -9t-12 -16q-36 -48 -69 -70t-76 -33q-22 -6 -46 -9t-51 -3q-9 0 -15 6.5t-6 14.5t6 14.5t15 6.5q28 0 52 3t45 10q21 6 39.5 16.5t34.5 25.5q8 7 17.5 18t20.5 25q22 30 36 38.5t30 8.5h1q8 0 16 -2
t15 -6t18 -13.5t25 -23.5q40 -40 70 -58.5t65 -28.5q17 -5 36.5 -8.5t39.5 -4.5l-10 39q-1 6 0 10.5t4 8.5l33 39l-28 44q-4 6 -4 12t4 11l32 46l-29 36q-5 5 -5.5 11.5t3.5 11.5l32 56q4 7 12 9.5t16 -1.5q7 -4 9.5 -12.5t-2.5 -16.5l-24 -43l30 -37q4 -5 4.5 -12.5
t-3.5 -12.5l-33 -48l29 -44q4 -7 3.5 -13t-5.5 -12l-35 -43zM762 276q-3 -4 -7.5 -6.5t-10.5 -2.5q-2 0 -5 1t-5 2l-66 40q-5 4 -7.5 8t-2.5 9q0 6 2.5 10.5t6.5 7.5l66 44q6 4 14.5 2.5t13.5 -8.5t3.5 -15.5t-8.5 -13.5l-39 -26l38 -23q7 -4 9.5 -12.5t-2.5 -16.5zM463 269
q-2 -2 -4.5 -3t-6.5 -1q-10 0 -15.5 8t-4.5 17q1 4 2.5 7.5t5.5 5.5l39 26l-38 24q-8 5 -9.5 13t2.5 15t12.5 9.5t15.5 -2.5l66 -40q5 -4 7.5 -8.5t2.5 -9.5t-2.5 -9t-6.5 -8z" />
    <glyph glyph-name="uniE056" unicode="CAT&#x30;&#x30;&#x38;" 
d="M463 101l-6 -2t-5 -1q-12 0 -16.5 8t-3.5 17q1 4 2.5 7.5t5.5 5.5l91 58q4 2 7.5 3t7.5 0q24 -4 48 -6.5t48 -2.5q12 0 24 0.5t24 1.5v119q0 9 6 15t14 6q9 0 15 -6t6 -15v-113q50 8 96 26.5t89 46.5q5 2 11 6t11 9v37q-50 37 -108 60t-121 31q-4 0 -7 1.5t-6 4.5
l-148 107q-7 5 -8.5 13.5t3.5 15.5t13.5 8.5t15.5 -3.5l147 -107q69 -10 132.5 -36t119.5 -68q4 -3 6.5 -7.5t2.5 -9.5v-58q0 -5 -2.5 -9t-6.5 -7q-8 -7 -16.5 -13t-16.5 -10q-66 -43 -140.5 -65t-155.5 -22q-22 0 -46 2t-49 6zM262 267q0 -9 -6 -15t-14 -6q-9 0 -15 6
t-6 15v155q0 12 10.5 18.5t21.5 -1.5l101 -64q45 28 93 46.5t99 27.5q8 2 15.5 -3t8.5 -14q1 -8 -4 -15t-13 -9q-51 -9 -98 -28t-90 -47q-2 -1 -5 -2t-6 -1q-4 0 -7 1t-5 2l-80 51v-117zM849 307q0 -11 -8 -19t-19 -8t-19 8t-8 19t8 19t19 8t19 -8t8 -19zM253 165l-6 -2
t-5 -1q-12 0 -16.5 8t-3.5 17q1 4 2.5 7.5t5.5 5.5l112 71q6 4 12 4t11 -4q20 -13 40.5 -24t39.5 -19q8 -3 11 -11t0 -16q-3 -7 -11 -10.5t-16 -0.5q-19 8 -38 18t-37 21z" />
    <glyph glyph-name="uniE057" unicode="CAT&#x30;&#x30;&#x39;" 
d="M1018 215q0 -59 -41.5 -95.5t-151.5 -36.5q-31 0 -64.5 2.5t-70.5 7.5q-8 1 -13.5 8t-4.5 15q2 9 8.5 14t14.5 4q102 -13 167.5 -8t91.5 28q11 10 17 25.5t6 35.5v55q0 28 -14.5 44t-49.5 30q-17 7 -40.5 13.5t-52.5 13.5q-31 7 -56.5 22t-61.5 54q-15 17 -33 33t-43 29
q-25 12 -62.5 20t-91.5 8q-63 0 -122.5 -21.5t-92.5 -53.5q-16 -16 -24.5 -33.5t-8.5 -35.5v-65q0 -31 8 -50t30 -35q21 -16 59.5 -31t96.5 -29q29 -7 64 -14.5t75 -14.5q8 -1 13 -8.5t3 -16.5q-1 -8 -8.5 -13t-15.5 -3q-101 18 -170 36.5t-113 41.5t-63.5 54.5t-19.5 82.5
v65q0 54 42 95.5t110 65.5q34 12 68.5 18t68.5 6q42 0 78 -5t67 -15q30 -10 55.5 -28t59.5 -55q32 -33 52 -45.5t45 -18.5q110 -24 149.5 -55.5t39.5 -85.5v-55zM683 310q-2 -6 -7.5 -10t-12.5 -4q-1 0 -3 0.5t-4 1.5q-66 23 -108 46t-79 56q-26 -7 -57.5 -12t-68.5 -7h-1
q-8 0 -14 5.5t-7 13.5t4.5 14.5t14.5 7.5q69 4 122 19.5t89 42.5q7 5 15.5 4t13.5 -8t4 -15.5t-8 -13.5q-14 -11 -29.5 -19.5t-31.5 -15.5q28 -23 64.5 -41.5t90.5 -37.5q8 -3 12 -11t1 -16zM958 262q-9 -39 -42.5 -57.5t-98.5 -18.5q-39 0 -99.5 7.5t-123.5 19t-121.5 24.5
t-93.5 24q-70 21 -102.5 48t-32.5 66q0 9 6 15t15 6q8 0 14 -6t6 -15q0 -11 7.5 -21.5t21.5 -20.5t38.5 -19.5t58.5 -18.5t82 -19.5t98.5 -19.5t99.5 -16t83 -10t60 -2t43 5t27 13.5t13 23.5q2 9 9 13.5t15 2.5q9 -1 14 -8.5t3 -15.5z" />
    <glyph glyph-name="uniE058" unicode="CAT&#x30;&#x31;&#x30;" 
d="M910 517q48 -9 70 -41t16 -83l-14 -117q-1 -9 -7.5 -14t-15.5 -4t-14.5 7.5t-4.5 16.5v2.5t1 6.5t1.5 10.5t1.5 15.5h-60q-8 0 -14.5 6t-6.5 15q0 8 6.5 14.5t14.5 6.5h65l5 41q4 34 -14.5 55.5t-51.5 21.5q-39 0 -61.5 -22.5t-19.5 -55.5l35 -334q2 -20 12 -31t26 -11
t25 13.5t12 40.5l7 61l-32 1q-9 0 -15.5 6t-6.5 14q0 9 6.5 15.5t15.5 6.5h54q13 0 19.5 -7t4.5 -18l-10 -85q-5 -40 -27.5 -64.5t-52.5 -24.5q-33 1 -54.5 21.5t-25.5 56.5v4t-1 12l-2.5 17.5t-2.5 23.5t-3 26.5t-3 28.5q-9 82 -15 138t-8 84q-3 51 25.5 86t76.5 39
q-4 48 -18.5 78.5t-37.5 43.5q-8 4 -10.5 13.5t2.5 16.5q4 7 13 9t17 -2q34 -20 54 -62t23 -99zM693 150q0 -8 -6 -13.5t-14 -5.5h-1q-9 0 -15 6.5t-6 14.5q1 22 -8.5 40t-27.5 28q-5 3 -8 7t-3 9q0 6 1.5 10.5t5.5 7.5q22 18 34 41.5t12 47.5q0 19 -6 33t-12 21l-5.5 5.5
l-1.5 1.5q-11 10 -25 15.5t-30 5.5q-19 0 -35.5 -7t-30.5 -21q-6 -8 -15 -6.5t-13 5.5q-2 1 -4 3.5t-3 5.5q-10 30 -35.5 47.5t-57.5 17.5q-50 0 -82 -37t-32 -88q0 -33 18 -55t50 -29q7 -3 11 -10.5t2 -15.5t-10 -13t-16 -3q-49 14 -74 46t-25 81q0 47 22.5 85.5t58.5 59.5
q18 10 37.5 15.5t40.5 5.5q40 0 70.5 -16.5t50.5 -49.5q17 10 34.5 15.5t36.5 5.5q54 0 88.5 -35t34.5 -89q1 -27 -9 -52.5t-32 -48.5q20 -17 28.5 -40.5t6.5 -51.5zM637 16q-17 -18 -40 -27.5t-47 -9.5h-11.5t-6.5 1q-24 3 -48 16t-39 31q-19 -19 -44 -29t-55 -10
q-41 0 -74.5 19.5t-51.5 53.5q-9 16 -13.5 35t-4.5 41q0 10 1 19t3 16v-1q2 9 9.5 14t15.5 3q9 -2 14 -10t3 -16q-10 -36 6 -68t46 -49q29 -18 63 -15t67 45q3 4 7.5 6t10.5 2q5 0 9.5 -3t8.5 -9q11 -19 30.5 -32t41.5 -16q14 -2 30 1.5t29 11.5q-65 36 -113 88t-77 119v-1
q-4 8 -1.5 16t11.5 12q8 3 16.5 0t12.5 -10h-1q34 -77 98.5 -133.5t154.5 -89.5q21 -8 16.5 -22t-12.5 -17q-4 -2 -9 -2t-10 2q-12 4 -23.5 9t-22.5 9z" />
    <glyph glyph-name="uniE059" unicode="CAT&#x30;&#x31;&#x31;" 
d="M862 -4q0 -28 -17.5 -45.5t-45.5 -17.5h-441q-8 0 -14 6t-6 14v483q0 8 6 14t14 6q9 0 15 -6t6 -14v-462h420q10 0 15.5 5.5t5.5 16.5v534h-440q-7 0 -12.5 4.5t-7.5 11.5q-2 8 2 14.5t10 8.5l375 156q12 3 20.5 -3t8.5 -16v-75q0 -8 -6 -14t-15 -6q-8 0 -14 6t-6 14v44
l-251 -104h357q8 0 14.5 -6t6.5 -15v-554zM741 112q0 -8 -6 -14t-15 -6q-8 0 -14.5 6t-6.5 14v263h-15h-3t-2 -1v-1q-1 -1 -1 -2v-3v-1l-20 -110h14q8 0 14 -6t6 -15q0 -8 -6 -14.5t-14 -6.5h-39q-10 0 -16 7.5t-4 17.5l24 134q3 21 15 31.5t32 10.5h36q9 0 15 -6t6 -14
v-284zM547 112q0 -8 -6.5 -14t-14.5 -6q-9 0 -15 6t-6 14v155q0 6 3 11t8 7l38 20v91q0 8 6.5 14t14.5 6t14.5 -6t6.5 -14v-104q0 -5 -3.5 -10.5t-8.5 -7.5l-37 -20v-142zM538 328q0 -9 -6 -15t-14 -6q-9 0 -15 6t-6 15v68q0 8 6 14t15 6q8 0 14 -6t6 -14v-68zM485 328
q0 -9 -6 -15t-15 -6q-8 0 -14 6t-6 15v68q0 8 6 14t14 6q9 0 15 -6t6 -14v-68z" />
    <glyph glyph-name="uniE05A" unicode="CAT&#x30;&#x31;&#x32;" 
d="M843 72q0 -8 -6.5 -14.5t-14.5 -6.5h-81q-9 0 -15 6.5t-6 14.5t6 14.5t15 6.5h60v68q0 86 -10 149t-32 119q-2 5 -3 9t-1 8v122h-76v-41q0 -8 -6 -14t-14 -6q-9 0 -15 6t-6 14v41h-75v-41q0 -8 -6.5 -14t-14.5 -6q-9 0 -15 6t-6 14v41h-75v-105h224q9 0 15 -6t6 -15
q0 -8 -6 -14.5t-15 -6.5h-232q-21 -50 -30.5 -109t-9.5 -151q0 -13 1 -22.5t2 -14.5q3 -10 11.5 -17.5t24.5 -10.5q8 -1 18 -2t23 -1h123q8 0 14 -6.5t6 -14.5t-6 -14.5t-14 -6.5h-123q-41 0 -68.5 10t-39.5 32q-7 11 -10 28t-3 40q0 101 11 166t36 119v143q0 8 6.5 14.5
t14.5 6.5h351q8 0 14 -6.5t6 -14.5v-143q25 -54 36 -117.5t11 -167.5v-89z" />
    <glyph glyph-name="uniE05B" unicode="CAT&#x30;&#x31;&#x33;" 
d="M771 66q0 -8 -6 -14t-15 -6h-301q-9 0 -15 6t-6 14v55q-54 5 -93 41.5t-39 102.5v86q0 8 6.5 14t14.5 6q9 0 15 -6t6 -14v-86q0 -25 7 -43.5t20 -31.5q17 -15 35.5 -21t32.5 -7q7 -1 10.5 -1h4.5h103q8 0 14.5 -6t6.5 -14q0 -9 -6.5 -15t-14.5 -6h-82v-33h261v54
q0 8 6 14t14 6h3h4.5t10.5 1q14 0 32.5 6t34.5 21q14 13 21 32t7 44v65h-465q-8 0 -14.5 6t-6.5 15q0 8 6.5 14t14.5 6h419l4 5q7 10 10.5 21.5t3.5 25.5q0 20 -12 33.5t-31 13.5q-4 0 -8 -1l-8 -2q-11 -3 -20 4t-7 18v6q0 20 -14 34t-34 14q-7 0 -12.5 -1.5t-10.5 -5.5
q-6 -4 -15.5 -1.5t-14.5 11.5q-5 12 -17 19.5t-26 7.5t-25.5 -7.5t-17.5 -20.5q-1 -4 -4.5 -6.5t-7.5 -4.5q-5 -1 -9.5 -0.5t-7.5 2.5q-5 4 -11 5.5t-13 1.5q-19 0 -33 -14t-14 -34v-6q1 -5 -1 -9.5t-6 -8.5q-4 -3 -9.5 -4.5t-10.5 0.5q-4 2 -8 2.5t-8 0.5q-19 0 -30 -8.5
t-15 -24.5q-2 -8 -9.5 -12.5t-15.5 -2.5t-12.5 9.5t-2.5 15.5q7 29 29.5 46.5t55.5 17.5h3q5 28 27.5 50.5t59.5 22.5q7 0 14 -1t12 -3q14 17 31.5 25.5t38.5 8.5t39.5 -9t30.5 -25q6 2 12.5 3t13.5 1q32 0 57 -20.5t31 -52.5h3q36 0 60 -25t24 -63q0 -14 -3 -27t-8 -25h18
q9 0 15 -6t6 -14v-86q0 -69 -38 -104.5t-95 -40.5v-54zM668 499q0 -10 -7 -16.5t-17 -6.5t-17 6.5t-7 16.5t7 17t17 7t17 -7t7 -17zM522 456q0 -10 -7 -17t-17 -7t-17 7t-7 17t7 16.5t17 6.5t17 -6.5t7 -16.5zM609 439q0 -10 -7 -17t-17 -7t-16.5 7t-6.5 17t6.5 17t16.5 7
t17 -7t7 -17zM753 426q0 -10 -7 -17t-17 -7t-17 7t-7 17t7 17t17 7t17 -7t7 -17z" />
    <glyph glyph-name="uniE05C" unicode="CAT&#x30;&#x31;&#x34;" 
d="M489 -56q0 -8 -6 -14.5t-14 -6.5h-31q-40 0 -69.5 29t-29.5 70v322q1 38 12.5 72.5t26.5 67.5q23 54 31 85t8 60v93l1 1v1v1h1v1q1 2 2.5 4t4.5 4l3 2h1l1 1h1h1l1 1h1h77q2 0 3.5 -0.5t2.5 -1.5q5 -1 8 -5t4 -9l1 -1v-92q0 -29 8 -60t31 -85q15 -33 26.5 -67.5
t12.5 -72.5v-17h214q7 1 14 -3t9 -12q25 -83 10 -133.5t-68 -79.5q-2 -1 -5 -1.5t-5 -0.5q-12 0 -17 9t-3 18q1 4 3.5 7t6.5 5q39 20 48.5 55.5t-6.5 94.5h-240q-21 -78 4 -118t112 -56q7 -1 12 -6.5t5 -13.5v-127h85q8 0 14.5 -6.5t6.5 -14.5t-6.5 -14.5t-14.5 -6.5h-195
q-9 0 -15 6.5t-6 14.5t6 14.5t15 6.5h69v110q-46 10 -76.5 28.5t-47.5 45.5q-18 29 -19 69t16 94q1 6 6.5 10.5t12.5 4.5h13v17q0 23 -7 49t-28 74q-11 24 -20.5 49.5t-15.5 53.5q-4 14 -5.5 28.5t-1.5 30.5v67h-30v-67q0 -31 -6.5 -59t-15.5 -53q-5 -13 -10.5 -25.5
t-10.5 -24.5q-21 -48 -28 -74t-7 -49v-322q0 -24 16.5 -40.5t40.5 -16.5h31q8 0 14 -6.5t6 -14.5z" />
    </font>
</defs>
</svg>
