<?xml version="1.0" standalone="no"?>
<!DOCTYPE svg PUBLIC "-//W3C//DTD SVG 1.1//EN" "http://www.w3.org/Graphics/SVG/1.1/DTD/svg11.dtd" >
<svg xmlns="http://www.w3.org/2000/svg" xmlns:xlink="http://www.w3.org/1999/xlink" version="1.1">
<metadata>
Created by FontForge 20201107 at Thu Oct 16 23:11:20 2025
 By 
Copyright 2015 LATAM Airlines. All Rights Reserved.
</metadata>
<defs>
<font id="LatamSans-Bold" horiz-adv-x="688" >
  <font-face 
    font-family="Latam Sans"
    font-weight="600"
    font-stretch="normal"
    units-per-em="2048"
    panose-1="2 11 8 5 3 4 3 2 2 4"
    ascent="1536"
    descent="-512"
    x-height="1024"
    cap-height="1434"
    bbox="-156 -672.069 2558 1995"
    underline-thickness="0"
    underline-position="0"
    unicode-range="U+0020-FB04"
  />
<missing-glyph horiz-adv-x="1228" 
 />
    <glyph glyph-name="ff" unicode="ff" horiz-adv-x="1507" 
d="M219 0v838l-182 28v158h182v152q0 172 95.5 256t299.5 84q96 0 170 -29l-30 -203q-55 19 -121 19q-160 0 -160 -152v-127h451v197q0 172 98.5 256t308.5 84q101 0 178 -29l-30 -203q-59 19 -127 19q-174 0 -174 -152v-172h284v-166l-284 -24v-834h-254v829h-451v-829
h-254z" />
    <glyph glyph-name="fi" unicode="fi" horiz-adv-x="1323" 
d="M1057 1165q-65 0 -109.5 44.5t-44.5 109.5t44.5 109.5t109.5 44.5q64 0 108.5 -44.5t44.5 -109.5t-44.5 -109.5t-108.5 -44.5zM219 0v827l-182 33v164h182v197q0 172 99 256t309 84q101 0 178 -29l-31 -203q-59 19 -129 19q-172 0 -172 -152v-172h285v-170l-285 -35v-819
h-254zM930 0v1024h254v-1024h-254z" />
    <glyph glyph-name="fl" unicode="fl" horiz-adv-x="1361" 
d="M1210 -14q-142 0 -213 64.5t-71 199.5v1286h254v-1274q0 -72 75 -72q35 0 58 13l28 -193q-56 -24 -131 -24zM219 0v827l-182 33v164h182v197q0 172 99 256t309 84q101 0 178 -29l-31 -203q-59 19 -129 19q-172 0 -172 -152v-172h285v-170l-285 -35v-819h-254z" />
    <glyph glyph-name="ffi" unicode="ffi" horiz-adv-x="2029" 
d="M1763 1174q-66 0 -110.5 44.5t-44.5 110.5q0 64 45 109t110 45q64 0 109 -45.5t45 -108.5q0 -66 -44.5 -110.5t-109.5 -44.5zM1636 0v1024h254v-1024h-254zM219 0v838l-182 28v158h182v152q0 172 97.5 256t304.5 84q104 0 178 -29l-31 -203q-55 19 -127 19
q-168 0 -168 -152v-127h451v197q0 172 98.5 256t308.5 84q101 0 178 -29l-30 -203q-59 19 -127 19q-174 0 -174 -152v-172h284v-166l-284 -24v-834h-254v829h-451v-829h-254z" />
    <glyph glyph-name="ffl" unicode="ffl" horiz-adv-x="2060" 
d="M1909 -14q-141 0 -212 64.5t-71 199.5v1286h252v-1274q0 -72 78 -72q35 0 55 13l29 -193q-52 -24 -131 -24zM219 0v838l-182 28v158h182v152q0 172 95.5 256t299.5 84q96 0 170 -29l-30 -203q-55 19 -121 19q-160 0 -160 -152v-127h451v197q0 172 98.5 256t308.5 84
q101 0 178 -29l-30 -203q-59 19 -127 19q-174 0 -174 -152v-172h284v-166l-284 -24v-834h-254v829h-451v-829h-254z" />
    <glyph glyph-name="f_b" unicode="fb" horiz-adv-x="1931" 
d="M1321 -25q-231 0 -403 97v1464h243v-621q46 63 119.5 98.5t159.5 35.5q191 0 299 -136t108 -368q0 -276 -136.5 -423t-389.5 -147zM219 0v827l-182 33v164h182v197q0 172 99 256t309 84q101 0 178 -29l-31 -203q-59 19 -129 19q-172 0 -172 -152v-172h285v-170l-285 -35
v-819h-254zM1341 184q130 0 192 97t62 254q0 136 -50.5 219.5t-155.5 83.5q-94 0 -156 -79t-62 -235v-305q64 -35 170 -35z" />
    <glyph glyph-name="f_f_b" unicode="ffb" horiz-adv-x="2631" 
d="M2021 -25q-231 0 -403 97v1464h244v-621q46 63 119 98.5t159 35.5q191 0 299.5 -136t108.5 -368q0 -276 -137 -423t-390 -147zM2042 184q130 0 192 97t62 254q0 136 -51 219.5t-156 83.5q-94 0 -155.5 -79t-61.5 -235v-305q64 -35 170 -35zM219 0v838l-182 28v158h182
v147q0 345 408 345q107 0 184 -29l-31 -203q-59 19 -133 19q-77 0 -125.5 -37t-48.5 -119v-123h440v197q0 340 424 340q102 0 176 -29l-28 -203q-59 19 -129 19q-80 0 -134.5 -36t-54.5 -116v-172h285v-166l-285 -24v-834h-254v829h-440v-829h-254z" />
    <glyph glyph-name="f_h" unicode="fh" horiz-adv-x="1923" 
d="M219 0v827l-182 33v164h182v197q0 172 99 256t309 84q101 0 178 -29l-31 -203q-59 19 -129 19q-172 0 -172 -152v-172h285v-170l-285 -35v-819h-254zM1171 627v-627h-253v1536h243v-627q47 63 122 101.5t161 38.5q182 0 272 -104t90 -283v-662h-254v627
q0 108 -51.5 160.5t-136.5 52.5q-79 0 -136 -53.5t-57 -159.5z" />
    <glyph glyph-name="f_f_h" unicode="ffh" horiz-adv-x="2633" 
d="M1882 627v-627h-254v1536h244v-627q47 63 122 101.5t160 38.5q182 0 272.5 -104t90.5 -283v-662h-254v627q0 108 -51.5 160.5t-136.5 52.5q-79 0 -136 -53.5t-57 -159.5zM219 0v838l-182 28v158h182v152q0 172 97.5 256t304.5 84q104 0 178 -29l-31 -203q-55 19 -127 19
q-168 0 -168 -152v-127h451v197q0 172 101 256t314 84q102 0 179 -29l-31 -203q-59 19 -127 19q-182 0 -182 -152v-172h284v-166l-284 -24v-834h-254v829h-451v-829h-254z" />
    <glyph glyph-name="f_k" unicode="fk" horiz-adv-x="1892" 
d="M219 0v827l-182 33v164h182v197q0 172 99 256t309 84q101 0 178 -29l-31 -203q-59 19 -129 19q-172 0 -172 -152v-172h285v-170l-285 -35v-819h-254zM1147 59q-41 -59 -119 -59h-110v1536h243v-1141l400 629h258l-312 -446l340 -578h-250l-225 383z" />
    <glyph glyph-name="f_f_k" unicode="ffk" horiz-adv-x="2603" 
d="M219 0v838l-182 28v158h182v152q0 172 97.5 256t304.5 84q104 0 178 -29l-31 -203q-55 19 -127 19q-168 0 -168 -152v-127h451v197q0 172 101 256t314 84q102 0 179 -29l-31 -203q-59 19 -127 19q-182 0 -182 -152v-172h284v-166l-284 -24v-834h-254v829h-451v-829h-254z
M1858 59q-41 -59 -119 -59h-109v1536h242v-1141l399 629h258l-311 -446l340 -578h-250l-225 383z" />
    <glyph glyph-name="f_j" unicode="fj" horiz-adv-x="1320" 
d="M1055 1165q-65 0 -109.5 44.5t-44.5 109.5t44.5 109.5t109.5 44.5q64 0 108.5 -44.5t44.5 -109.5t-44.5 -109.5t-108.5 -44.5zM219 0v827l-182 33v164h182v197q0 172 99 256t309 84q101 0 178 -29l-31 -203q-59 19 -129 19q-172 0 -172 -152v-172h285v-170l-285 -35v-819
h-254zM823 -516q-91 0 -159 24l30 197q36 -16 82 -16q81 0 116.5 43.5t35.5 138.5v1153h254v-1174q0 -189 -89.5 -277.5t-269.5 -88.5z" />
    <glyph glyph-name="f_f_j" unicode="ffj" horiz-adv-x="2029" 
d="M1763 1174q-66 0 -110.5 44.5t-44.5 110.5q0 64 45 109t110 45q64 0 109 -45.5t45 -108.5q0 -66 -44.5 -110.5t-109.5 -44.5zM219 0v838l-182 28v158h182v152q0 172 97.5 256t304.5 84q104 0 178 -29l-31 -203q-55 19 -127 19q-168 0 -168 -152v-127h451v197
q0 172 98.5 256t308.5 84q101 0 178 -29l-30 -203q-59 19 -127 19q-174 0 -174 -152v-172h284v-166l-284 -24v-834h-254v829h-451v-829h-254zM1530 -516q-94 0 -158 24l29 197q36 -16 84 -16q79 0 115 44t36 138v1153h254v-1174q0 -189 -90 -277.5t-270 -88.5z" />
    <glyph glyph-name="f_idieresis" unicode="f&#xef;" horiz-adv-x="1329" 
d="M1241 1176q-55 0 -92 39t-37 98q0 57 37 97t92 40t94 -40t39 -97q0 -58 -38.5 -97.5t-94.5 -39.5zM905 1176q-56 0 -93.5 39.5t-37.5 97.5q0 57 38 97t93 40t93 -40t38 -97q0 -58 -37.5 -97.5t-93.5 -39.5zM219 0v827l-182 33v164h182v205q0 168 91.5 250t287.5 82
q84 0 154 -25l-47 -205q-49 17 -89 17q-143 0 -143 -142v-182h285v-170l-285 -35v-819h-254zM936 0v1024h254v-1024h-254z" />
    <glyph glyph-name=".notdef" horiz-adv-x="1228" 
 />
    <glyph glyph-name=".null" horiz-adv-x="0" 
 />
    <glyph glyph-name="nonmarkingreturn" horiz-adv-x="682" 
 />
    <glyph glyph-name="space" unicode=" " horiz-adv-x="487" 
 />
    <glyph glyph-name="exclam" unicode="!" horiz-adv-x="530" 
d="M193 440l-64 994h281l-64 -994h-153zM270 -25q-68 0 -114.5 46.5t-46.5 113.5q0 69 46 115.5t115 46.5q66 0 113 -46.5t47 -115.5q0 -66 -47 -113t-113 -47z" />
    <glyph glyph-name="quotedbl" unicode="&#x22;" horiz-adv-x="731" 
d="M473 967l-55 424v43h241v-43l-61 -424h-125zM127 967l-55 424v43h241v-43l-61 -424h-125z" />
    <glyph glyph-name="numbersign" unicode="#" horiz-adv-x="1292" 
d="M750 598l16 238h-211l-16 -238h211zM709 0l28 406h-213l-26 -406h-215l28 406h-159v192h172l16 238h-188v192h202l27 406h215l-29 -406h213l27 406h215l-29 -406h160v-192h-172l-16 -238h188v-192h-203l-26 -406h-215z" />
    <glyph glyph-name="dollar" unicode="$" horiz-adv-x="1165" 
d="M334 1032q0 -64 44.5 -106.5t133.5 -67.5v354q-90 -21 -134 -69t-44 -111zM840 403q0 69 -38.5 113.5t-123.5 75.5v-375q162 50 162 186zM678 -240h-166v215h-4q-236 0 -402 88l74 209q153 -75 324 -75h8v438l-49 12q-188 45 -281.5 136.5t-93.5 236.5q0 154 111 269
t313 145v182h166v-172q191 -5 342 -68l-62 -211q-160 55 -280 60v-404l4 -2q200 -45 301.5 -141t101.5 -250q0 -102 -41 -189.5t-135 -155.5t-231 -93v-230z" />
    <glyph glyph-name="percent" unicode="%" horiz-adv-x="1546" 
d="M420 0h-254l842 1231q-61 -14 -111 -14q-96 0 -209 26q19 -52 19 -106q0 -127 -89.5 -216.5t-216.5 -89.5q-128 0 -217.5 89.5t-89.5 216.5t90 217t217 90h5q83 0 238.5 -32t270.5 -32q189 0 420 60v-45q0 -56 -35 -109zM401 1022q47 0 79 33t32 82t-32 81.5t-79 32.5
q-48 0 -80 -32.5t-32 -81.5t32.5 -82t79.5 -33zM1145 -20q-126 0 -216.5 90t-90.5 217q0 126 90.5 215.5t216.5 89.5q127 0 217 -89.5t90 -215.5q0 -127 -90 -217t-217 -90zM1145 172q47 0 78.5 33t31.5 82t-31.5 81.5t-78.5 32.5q-48 0 -80.5 -32.5t-32.5 -81.5t32.5 -82
t80.5 -33z" />
    <glyph glyph-name="ampersand" unicode="&#x26;" horiz-adv-x="1484" 
d="M1296 -18q-142 54 -284 137q-192 -135 -432 -135q-233 0 -376 117t-143 292q0 78 25 144t71.5 115t100 84.5t123.5 66.5q-37 104 -37 217q0 190 109 307t286 117q149 0 245.5 -86t96.5 -213q0 -83 -32.5 -152t-92 -120t-124.5 -86.5t-148 -67.5q106 -172 322 -328
q135 151 204 383l189 -78q-72 -242 -215 -417q108 -61 205 -99zM590 1030q0 -78 20 -145q110 43 172 102.5t62 149.5q0 54 -30 85t-75 31q-68 0 -108.5 -60.5t-40.5 -162.5zM586 197q120 0 229 53q-233 177 -354 379q-154 -91 -154 -223q0 -94 80.5 -151.5t198.5 -57.5z" />
    <glyph glyph-name="quotesingle" unicode="'" horiz-adv-x="387" 
d="M127 967l-55 424v43h243v-43l-61 -424h-127z" />
    <glyph glyph-name="parenleft" unicode="(" horiz-adv-x="714" 
d="M508 -350q-61 65 -119 161t-112.5 224.5t-87.5 294.5t-33 338q0 173 33 338.5t87 294t112.5 225t119.5 162.5h231q-62 -76 -119 -177.5t-107 -230.5t-80 -288.5t-30 -323.5q0 -163 30 -322.5t80.5 -288.5t107.5 -230.5t118 -176.5h-231z" />
    <glyph glyph-name="parenright" unicode=")" horiz-adv-x="714" 
d="M-25 -350q61 75 118 176.5t107.5 230.5t80.5 288.5t30 322.5q0 164 -30 323t-80.5 288t-107 230.5t-118.5 178.5h230q62 -66 121 -162.5t113 -225t87 -294t33 -338.5q0 -172 -33 -338t-87.5 -294.5t-113.5 -225t-120 -160.5h-230z" />
    <glyph glyph-name="asterisk" unicode="*" horiz-adv-x="735" 
d="M598 901l-180 115l10 -215h-127l16 217l-184 -117l-59 105l198 96l-194 100l55 101l186 -119l-12 213h127l-14 -211l188 112l54 -98l-193 -98l193 -98z" />
    <glyph glyph-name="plus" unicode="+" horiz-adv-x="1208" 
d="M1047 518h-326v-325h-232v325h-327v232h327v325h232v-325h326v-232z" />
    <glyph glyph-name="comma" unicode="," horiz-adv-x="567" 
d="M141 -346l-45 78q60 43 95.5 110.5t35.5 141.5q0 48 -21.5 86t-51.5 57q0 63 40.5 108.5t102.5 45.5q76 0 117 -58t41 -143q0 -79 -31.5 -153.5t-80 -128.5t-101.5 -91.5t-101 -52.5z" />
    <glyph glyph-name="hyphen" unicode="-" horiz-adv-x="978" 
d="M162 430v229h655v-229h-655z" />
    <glyph glyph-name="period" unicode="." horiz-adv-x="573" 
d="M299 -25q-69 0 -116.5 47.5t-47.5 116.5q0 68 47.5 116t116.5 48t116.5 -48t47.5 -116q0 -69 -47.5 -116.5t-116.5 -47.5z" />
    <glyph glyph-name="slash" unicode="/" horiz-adv-x="1196" 
d="M205 -240l530 1856h256l-530 -1856h-256z" />
    <glyph glyph-name="zero" unicode="0" horiz-adv-x="1187" 
d="M592 -25q-107 0 -194.5 39.5t-148 108t-102 163t-60.5 202.5t-19 229q0 117 19 222t60.5 197t102 158.5t148 105t194.5 38.5q108 0 196.5 -38.5t149 -105t102.5 -158.5t61 -197t19 -222q0 -121 -19 -229t-61 -202.5t-102.5 -163t-149 -108t-196.5 -39.5zM592 205
q130 0 201 138t71 374q0 225 -71 358t-201 133q-129 0 -198.5 -132.5t-69.5 -358.5q0 -237 69.5 -374.5t198.5 -137.5z" />
    <glyph glyph-name="one" unicode="1" horiz-adv-x="1187" 
d="M1073 0h-954v231h350v916l-332 -139v245l328 144q98 43 188 43h70v-1209h350v-231z" />
    <glyph glyph-name="two" unicode="2" horiz-adv-x="1187" 
d="M127 0v229q0 45 10.5 86t25.5 73t43.5 65.5t51.5 55.5t63 50.5t65 44.5t69 43l139 86q99 61 152 126t53 149q0 95 -75 156t-210 61q-158 0 -317 -78l-66 205q204 92 406 92q247 0 386.5 -114.5t139.5 -289.5q0 -80 -26 -150.5t-75.5 -127.5t-103.5 -100.5t-125 -86.5
l-133 -81q-91 -55 -140.5 -108t-49.5 -110v-43h655v-233h-938z" />
    <glyph glyph-name="three" unicode="3" horiz-adv-x="1187" 
d="M508 -25q-222 0 -389 70l78 213q133 -55 299 -55q83 0 143.5 19t93 51.5t47.5 70.5t15 82q0 104 -73.5 157.5t-213.5 53.5h-166v209h162q116 0 178.5 55.5t62.5 138.5q0 187 -256 187q-148 0 -299 -60l-57 205q69 30 180 51t205 21q125 0 220 -28t152.5 -78t86.5 -114.5
t29 -140.5q0 -103 -58 -193.5t-151 -135.5q114 -30 185 -120t71 -212q0 -96 -31 -175t-95 -141t-170.5 -96.5t-248.5 -34.5z" />
    <glyph glyph-name="four" unicode="4" horiz-adv-x="1187" 
d="M713 555v600l-383 -600h383zM1130 338h-172v-338h-245v338h-637v203l583 893h299v-879h172v-217z" />
    <glyph glyph-name="five" unicode="5" horiz-adv-x="1187" 
d="M459 -25q-213 0 -350 70l81 219q124 -59 277 -59q162 0 260 77.5t98 219.5q0 112 -80.5 180t-212.5 68t-223 -50l-135 43v691h846v-230h-594v-268q93 27 186 27t175 -27.5t147.5 -80.5t104 -140.5t38.5 -198.5q0 -250 -166 -395.5t-452 -145.5z" />
    <glyph glyph-name="six" unicode="6" horiz-adv-x="1187" 
d="M1116 498q0 -144 -60 -263t-172.5 -189.5t-256.5 -70.5q-240 0 -387.5 185t-147.5 495v52q0 159 37 287.5t97 210.5t142.5 137.5t168 78.5t178.5 23q187 0 307 -72l-49 -219q-117 61 -264 59q-327 -4 -357 -428q133 164 332 164q105 0 189 -38t136 -101.5t79.5 -143
t27.5 -167.5zM621 203q106 0 171.5 79t65.5 193q0 65 -24.5 121.5t-80.5 95.5t-135 39q-87 0 -160 -50t-110 -126q3 -86 33 -164t93.5 -133t146.5 -55z" />
    <glyph glyph-name="seven" unicode="7" horiz-adv-x="1187" 
d="M575 0h-282q23 185 78.5 365.5t132.5 333t155.5 274.5t167.5 231h-718v230h976l13 -172q-62 -80 -121.5 -172t-127 -219.5t-120.5 -259.5t-95.5 -292.5t-58.5 -318.5z" />
    <glyph glyph-name="eight" unicode="8" horiz-adv-x="1187" 
d="M590 -25q-231 0 -371.5 110.5t-140.5 297.5q0 121 68 215.5t196 140.5q-103 56 -155 134t-52 190q0 165 128 273t331 108q204 0 332.5 -106t128.5 -267q0 -106 -53 -181.5t-142 -115.5q250 -118 250 -373q0 -195 -142.5 -310.5t-377.5 -115.5zM606 852l56 -14
q137 70 137 202q0 91 -57.5 146t-149.5 55q-89 0 -146 -52t-57 -138q0 -77 54.5 -124.5t162.5 -74.5zM592 184q120 0 196 63.5t76 164.5q0 82 -55.5 135t-167.5 86l-96 29q-104 -32 -160.5 -97.5t-56.5 -150.5q0 -101 74 -165.5t190 -64.5z" />
    <glyph glyph-name="nine" unicode="9" horiz-adv-x="1187" 
d="M594 686q148 0 248 92v62q0 103 -26.5 185t-88.5 135.5t-152 53.5q-112 0 -179.5 -73t-67.5 -189q0 -110 68.5 -188t197.5 -78zM514 -25q-120 0 -215 30t-143 71l55 209q123 -84 307 -84q141 0 223.5 85t96.5 289q-123 -104 -299 -104q-113 0 -203.5 37.5t-148 102.5
t-87.5 150t-30 183q0 216 142 358t368 142q242 0 380 -170.5t138 -466.5v-123q0 -134 -21 -243t-61 -185.5t-92.5 -131.5t-119.5 -87.5t-138 -47t-152 -14.5z" />
    <glyph glyph-name="colon" unicode=":" horiz-adv-x="608" 
d="M305 612q-69 0 -115.5 46t-46.5 114t46.5 115t115.5 47q66 0 113 -47.5t47 -114.5t-47 -113.5t-113 -46.5zM305 82q-69 0 -115.5 45.5t-46.5 114.5q0 68 46.5 113.5t115.5 45.5q66 0 113 -46t47 -113q0 -68 -46.5 -114t-113.5 -46z" />
    <glyph glyph-name="semicolon" unicode=";" horiz-adv-x="608" 
d="M305 612q-69 0 -115.5 46t-46.5 114t46.5 115t115.5 47q66 0 113 -47.5t47 -114.5t-47 -113.5t-113 -46.5zM150 -289l-46 72q62 39 99 99.5t37 127.5q0 43 -23.5 78.5t-54.5 52.5q0 57 42.5 98.5t104.5 41.5q79 0 120.5 -52.5t41.5 -130.5q0 -72 -32 -140t-81.5 -116.5
t-103.5 -82.5t-104 -48z" />
    <glyph glyph-name="less" unicode="&#x3c;" horiz-adv-x="1226" 
d="M1059 213l-895 346v203l895 344v-221l-592 -221l592 -224v-227z" />
    <glyph glyph-name="equal" unicode="=" horiz-adv-x="1208" 
d="M162 702v220h885v-220h-885zM162 315v220h885v-220h-885z" />
    <glyph glyph-name="greater" unicode="&#x3e;" horiz-adv-x="1226" 
d="M164 213v227l592 224l-592 221v221l895 -344v-203z" />
    <glyph glyph-name="question" unicode="?" horiz-adv-x="909" 
d="M401 440h-174l-16 326q61 0 116.5 7t111 25.5t96 46.5t65.5 73.5t25 103.5q0 93 -61 151t-187 58t-254 -72l-53 213q67 33 160.5 52.5t175.5 19.5q118 0 209.5 -31.5t147 -86.5t83.5 -124.5t28 -150.5q0 -104 -37.5 -186t-102.5 -133.5t-145 -80.5t-173 -37zM317 -25
q-67 0 -113 47t-46 113q0 69 45.5 115.5t113.5 46.5t115 -46.5t47 -115.5q0 -66 -47.5 -113t-114.5 -47z" />
    <glyph glyph-name="at" unicode="@" horiz-adv-x="2080" 
d="M918 -414q-174 0 -322.5 64t-254 178t-165 278.5t-59.5 358.5q0 215 72 398.5t197.5 310.5t300 198.5t374.5 71.5q192 0 358.5 -64.5t286.5 -179t189 -282t69 -365.5q0 -147 -34.5 -261t-92.5 -181t-127 -100.5t-145 -33.5q-138 0 -220.5 94t-84.5 240v6
q-39 -164 -136 -252t-221 -88q-164 0 -269.5 128t-105.5 348q0 169 68 304t195 213.5t292 78.5q137 0 248 -60l96 37l35 -10v-699q0 -82 38 -126t102 -44q37 0 70.5 22t62.5 68t46 127.5t17 188.5q0 223 -96.5 393t-263 260t-377.5 90q-167 0 -310.5 -59t-247 -165.5
t-162 -263t-58.5 -343.5q0 -330 175.5 -528.5t459.5 -198.5q130 0 237 39l41 -146q-130 -45 -278 -45zM956 199q45 0 89.5 33.5t84 99t64.5 180t25 260.5v68q-68 28 -132 28q-130 0 -213 -111t-83 -294q0 -122 45.5 -193t119.5 -71z" />
    <glyph glyph-name="A" unicode="A" horiz-adv-x="1304" 
d="M813 596l-162 553l-162 -553h324zM985 0l-113 391h-442l-115 -391h-270l473 1438h164q55 0 84.5 -22t46.5 -77l447 -1339h-275z" />
    <glyph glyph-name="B" unicode="B" horiz-adv-x="1257" 
d="M565 -25q-105 0 -230.5 18.5t-215.5 47.5v1393h495q250 0 371 -101.5t121 -263.5q0 -109 -57.5 -191.5t-139.5 -117.5q117 -28 193 -123.5t76 -218.5q0 -115 -45 -201t-128.5 -138.5t-193 -78t-246.5 -25.5zM631 1217h-264v-371h270q106 0 161.5 55t55.5 135
q0 33 -10 62.5t-33.5 57.5t-69.5 44.5t-110 16.5zM578 197q160 0 246.5 58.5t86.5 168.5q0 98 -72.5 157.5t-199.5 59.5h-272v-420q127 -24 211 -24z" />
    <glyph glyph-name="C" unicode="C" horiz-adv-x="1187" 
d="M762 -25q-158 0 -284.5 55.5t-208.5 154.5t-125.5 234.5t-43.5 297.5q0 157 44 290t126 230.5t208 152t282 54.5q203 0 350 -88l-68 -215q-124 67 -260 67q-200 0 -312 -133.5t-112 -357.5q0 -233 112 -369.5t314 -136.5q132 0 265 70l65 -218q-145 -88 -352 -88z" />
    <glyph glyph-name="D" unicode="D" horiz-adv-x="1329" 
d="M510 -25q-119 0 -206 15.5t-185 48.5v1395h463q98 0 189 -22t176.5 -72.5t148.5 -125.5t101 -189t38 -255q0 -158 -37 -289t-102.5 -224t-156.5 -157t-199 -94.5t-230 -30.5zM520 213q220 0 336.5 138.5t116.5 400.5q0 212 -101.5 331t-283.5 119h-217v-973
q78 -16 149 -16z" />
    <glyph glyph-name="E" unicode="E" horiz-adv-x="1155" 
d="M119 0v1434h942v-232h-690v-344h626v-227h-626v-400h690v-231h-942z" />
    <glyph glyph-name="F" unicode="F" horiz-adv-x="1069" 
d="M119 0v1434h928v-232h-676v-356h585v-228h-585v-618h-252z" />
    <glyph glyph-name="G" unicode="G" horiz-adv-x="1308" 
d="M1210 94q-200 -119 -444 -119q-159 0 -286.5 56t-210 155t-126 233.5t-43.5 293.5t46.5 292.5t134.5 231t222.5 152.5t301.5 55q218 0 391 -103l-70 -213q-140 80 -301 80q-220 0 -343.5 -134t-123.5 -361q0 -228 114 -365t316 -137q92 0 177 29v544h245v-690z" />
    <glyph glyph-name="H" unicode="H" horiz-adv-x="1327" 
d="M119 0v1434h252v-574h585v574h252v-1434h-252v629h-585v-629h-252z" />
    <glyph glyph-name="I" unicode="I" horiz-adv-x="548" 
d="M147 0v1434h254v-1434h-254z" />
    <glyph glyph-name="J" unicode="J" horiz-adv-x="966" 
d="M381 -25q-225 0 -367 148l187 162q74 -80 180 -80q45 0 82.5 14t71 46.5t52.5 94t19 146.5v928h252v-945q0 -114 -29.5 -205t-76.5 -148t-111 -94t-128 -52t-132 -15z" />
    <glyph glyph-name="K" unicode="K" horiz-adv-x="1239" 
d="M911 0l-542 682v-682h-250v1434h250v-605l505 605h295l-563 -664l611 -770h-306z" />
    <glyph glyph-name="L" unicode="L" horiz-adv-x="999" 
d="M119 0v1434h252v-1203h581v-231h-833z" />
    <glyph glyph-name="M" unicode="M" horiz-adv-x="1820" 
d="M762 371l-256 737l-209 -1108h-252l285 1436h229q35 0 54 -15.5t34 -58.5l268 -768l314 842h217q39 0 60 -19t28 -65l242 -1352h-244l-195 1114l-301 -817h-188q-34 0 -53.5 16.5t-32.5 57.5z" />
    <glyph glyph-name="N" unicode="N" horiz-adv-x="1343" 
d="M956 76l-598 915l7 -991h-246v1436h139q80 0 121 -64l606 -928l-6 990h246v-1434h-129q-93 0 -140 76z" />
    <glyph glyph-name="O" unicode="O" horiz-adv-x="1388" 
d="M694 -25q-121 0 -220.5 39.5t-168.5 108t-116 163t-69 202.5t-22 229q0 118 22 224t69 198.5t116 160t168.5 106t220.5 38.5q122 0 221.5 -38.5t168.5 -105.5t116 -160t68.5 -199t21.5 -224q0 -121 -22 -229t-69 -202.5t-116 -163t-168.5 -108t-220.5 -39.5zM694 205
q162 0 251 138t89 374q0 228 -89 362.5t-251 134.5q-164 0 -251 -133.5t-87 -363.5q0 -237 87 -374.5t251 -137.5z" />
    <glyph glyph-name="P" unicode="P" horiz-adv-x="1196" 
d="M539 616q81 0 143.5 21.5t99.5 54t60 78t31 87.5t8 87q0 36 -6.5 69.5t-24 69t-45.5 61t-74.5 42t-107.5 16.5h-252v-559q82 -27 168 -27zM555 391q-92 0 -184 25v-416h-252v1434h491q117 0 210.5 -27t155 -72t102 -108.5t58 -133t17.5 -147.5q0 -112 -36.5 -210
t-107.5 -176t-188 -123.5t-266 -45.5z" />
    <glyph glyph-name="Q" unicode="Q" horiz-adv-x="1388" 
d="M1243 -180q-298 2 -555 81.5t-391 229.5q-99 102 -149 255t-50 331q0 118 22 224t69 198.5t116 160t168.5 106t220.5 38.5q122 0 221.5 -38.5t168.5 -105.5t116 -160t68.5 -199t21.5 -224q0 -127 -28 -237.5t-85 -202.5t-151 -152.5t-217 -79.5q181 -39 457 -39zM694 205
q162 0 251 138t89 374q0 228 -89 362.5t-251 134.5q-164 0 -251 -133.5t-87 -363.5q0 -237 87 -374.5t251 -137.5z" />
    <glyph glyph-name="R" unicode="R" horiz-adv-x="1247" 
d="M539 641q81 0 143.5 20.5t99.5 52t60 75t31 84t8 85.5q0 34 -6.5 65.5t-24 65t-45.5 58t-74.5 40t-107.5 15.5h-252v-536q86 -25 168 -25zM541 414q-91 0 -170 24v-438h-252v1434h491q146 0 254 -39t169.5 -107t90.5 -149.5t29 -177.5q0 -153 -65 -276.5t-197 -192.5
l307 -492h-274l-260 422q-78 -8 -123 -8z" />
    <glyph glyph-name="S" unicode="S" horiz-adv-x="1153" 
d="M502 -23q-243 0 -416 99l78 213q162 -86 336 -86q161 0 240 54.5t79 145.5q0 78 -53 125.5t-176 79.5l-135 37q-182 50 -270.5 141.5t-88.5 237.5q0 86 36 162t102.5 133t169.5 90t229 33q214 0 389 -76l-66 -215q-162 68 -315 68q-151 0 -223 -52.5t-72 -136.5
q0 -66 51.5 -108.5t155.5 -67.5l125 -33q196 -50 293.5 -146t97.5 -249q0 -92 -34.5 -171.5t-101.5 -142.5t-178 -99t-253 -36z" />
    <glyph glyph-name="T" unicode="T" horiz-adv-x="1136" 
d="M442 0v1194l-391 39v201h1036v-201l-393 -39v-1194h-252z" />
    <glyph glyph-name="U" unicode="U" horiz-adv-x="1335" 
d="M668 -25q-79 0 -153 16.5t-149.5 57.5t-131 104t-90.5 164.5t-35 229.5v887h251v-871q0 -83 18 -146.5t47 -103t70 -64.5t83 -34.5t90 -9.5t90 9.5t82.5 34.5t69.5 64.5t47 103t18 146.5v871h252v-887q0 -128 -35 -229.5t-90.5 -164.5t-131 -104t-149.5 -57.5t-153 -16.5
z" />
    <glyph glyph-name="V" unicode="V" horiz-adv-x="1310" 
d="M788 -12h-167q-52 0 -80.5 23t-44.5 71l-447 1352h148q64 0 100 -26.5t53 -84.5l305 -1018l338 1129h269z" />
    <glyph glyph-name="W" unicode="W" horiz-adv-x="2023" 
d="M1266 78l-248 1075l-281 -1161h-239q-50 0 -74 19t-31 65l-313 1358h170q48 0 72.5 -22.5t33.5 -68.5l232 -1091l276 1173h207q63 0 91 -23.5t40 -80.5l234 -1059l252 1172h256l-334 -1442h-240q-49 0 -72 19.5t-32 66.5z" />
    <glyph glyph-name="X" unicode="X" horiz-adv-x="1261" 
d="M893 66l-262 452l-303 -518h-279l443 729l-420 705h194q42 0 68 -16t49 -52l248 -422l284 490h273l-418 -703l440 -731h-206q-74 0 -111 66z" />
    <glyph glyph-name="Y" unicode="Y" horiz-adv-x="1230" 
d="M481 0v506l-450 928h190q94 0 135 -95l254 -581l303 676h287l-463 -928v-506h-256z" />
    <glyph glyph-name="Z" unicode="Z" horiz-adv-x="1148" 
d="M1079 0h-1009v47q0 73 9.5 111.5t39.5 85.5l618 958h-614v232h926v-62q0 -58 -8 -93.5t-29 -68.5l-625 -979h692v-231z" />
    <glyph glyph-name="bracketleft" unicode="[" horiz-adv-x="671" 
d="M573 -184v-193h-401v2128h401v-192h-147v-1743h147z" />
    <glyph glyph-name="backslash" unicode="\" horiz-adv-x="1196" 
d="M735 -240l-530 1856h256l530 -1856h-256z" />
    <glyph glyph-name="bracketright" unicode="]" horiz-adv-x="671" 
d="M500 -377h-402v193h148v1743h-148v192h402v-2128z" />
    <glyph glyph-name="underscore" unicode="_" horiz-adv-x="1208" 
d="M162 -231v231h885v-231h-885z" />
    <glyph glyph-name="a" unicode="a" horiz-adv-x="1054" 
d="M518 160q55 0 107 22t82 60q0 107 -57 174t-150 67q-73 0 -123.5 -44.5t-50.5 -116.5t53 -117t139 -45zM737 0l-20 115q-33 -58 -110.5 -99t-178.5 -41q-157 0 -254.5 94t-97.5 236q0 159 105 254.5t263 95.5q94 0 160 -34t103 -89v66q0 112 -53.5 175t-186.5 63
q-130 0 -262 -72l-53 213q68 34 162 53t180 19q122 0 209.5 -30t138 -87.5t73.5 -131t23 -169.5v-631h-201z" />
    <glyph glyph-name="b" unicode="b" horiz-adv-x="1138" 
d="M530 -25q-231 0 -403 97v1464h244v-621q46 63 119 98.5t159 35.5q190 0 298 -136t108 -368q0 -276 -136.5 -423t-388.5 -147zM551 184q87 0 145.5 48.5t82.5 125t24 177.5q0 136 -51 219.5t-156 83.5q-92 0 -153.5 -79t-61.5 -235v-305q60 -35 170 -35z" />
    <glyph glyph-name="c" unicode="c" horiz-adv-x="913" 
d="M598 -25q-165 0 -282.5 71t-174.5 190.5t-57 275.5t57 275.5t174.5 190.5t282.5 71q150 0 258 -54l-51 -207q-94 41 -195 41q-130 0 -202 -86t-72 -231t72 -231t202 -86q102 0 197 43l49 -207q-115 -56 -258 -56z" />
    <glyph glyph-name="d" unicode="d" horiz-adv-x="1138" 
d="M559 184q81 0 140 56t59 161v338q-24 38 -75.5 68.5t-115.5 30.5q-110 0 -170.5 -91.5t-60.5 -236.5q0 -143 55 -234.5t168 -91.5zM774 133q-42 -69 -122 -113.5t-171 -44.5q-183 0 -290 140.5t-107 388.5q0 245 118.5 395t319.5 150q149 0 246 -93v580h244v-1536h-217z
" />
    <glyph glyph-name="e" unicode="e" horiz-adv-x="1060" 
d="M545 842q-84 0 -134 -56.5t-65 -160.5h381q-2 91 -47 154t-135 63zM965 61q-166 -86 -365 -86q-129 0 -230 43t-162.5 117.5t-92.5 170t-31 206.5q0 110 27.5 204.5t81.5 170t144.5 119t207.5 43.5q92 0 164.5 -26t121.5 -72t81.5 -111.5t46.5 -141.5t14 -166v-69h-633
q8 -138 73 -209.5t205 -71.5q165 0 283 66z" />
    <glyph glyph-name="f" unicode="f" horiz-adv-x="802" 
d="M219 0v827l-182 33v164h182v197q0 172 99 256t309 84q101 0 178 -29l-31 -203q-59 19 -129 19q-172 0 -172 -152v-172h285v-170l-285 -35v-819h-254z" />
    <glyph glyph-name="g" unicode="g" horiz-adv-x="1085" 
d="M483 -532q-202 -2 -325 76.5t-123 226.5q0 96 63.5 169.5t175.5 112.5q-59 44 -59 111q0 128 182 180q-144 15 -234.5 106t-90.5 228q0 157 121.5 264t314.5 107q116 0 205 -39l305 65l37 -166l-78 -18l-103 -6q70 -92 70 -207q0 -289 -364 -377l-54 -14q-57 -14 -57 -54
q0 -39 57 -49l152 -24q171 -29 254.5 -102t83.5 -195q0 -77 -29.5 -142t-80 -111t-118.5 -78t-145 -47.5t-160 -16.5zM512 479q86 0 138 51.5t52 137.5q0 78 -51.5 133t-144.5 55q-89 0 -142 -51.5t-53 -136.5q0 -82 53.5 -135.5t147.5 -53.5zM520 -334q99 0 169.5 43.5
t70.5 128.5q0 54 -41.5 90.5t-126.5 46.5l-160 21l-22 4q-62 -24 -99 -69t-37 -101q0 -80 68.5 -122t177.5 -42z" />
    <glyph glyph-name="h" unicode="h" horiz-adv-x="1130" 
d="M381 627v-627h-254v1536h244v-627q45 63 120.5 101.5t161.5 38.5q181 0 272 -104t91 -283v-662h-254v627q0 108 -52 160.5t-137 52.5q-79 0 -135.5 -53.5t-56.5 -159.5z" />
    <glyph glyph-name="i" unicode="i" horiz-adv-x="532" 
d="M266 1165q-66 0 -109.5 44.5t-43.5 109.5t43.5 109.5t109.5 44.5q64 0 109 -44.5t45 -109.5t-45 -109.5t-109 -44.5zM139 0v1024h254v-1024h-254z" />
    <glyph glyph-name="j" unicode="j" horiz-adv-x="530" 
d="M264 1165q-66 0 -109.5 44.5t-43.5 109.5t43.5 109.5t109.5 44.5q64 0 109 -44.5t45 -109.5t-45 -109.5t-109 -44.5zM33 -516q-95 0 -160 24l29 197q36 -16 84 -16q81 0 116 43.5t35 138.5v1153h254v-1174q0 -189 -90 -277.5t-268 -88.5z" />
    <glyph glyph-name="k" unicode="k" horiz-adv-x="1099" 
d="M354 59q-41 -59 -118 -59h-109v1536h242v-1141l399 629h258l-309 -446l340 -578h-252l-225 383z" />
    <glyph glyph-name="l" unicode="l" horiz-adv-x="569" 
d="M420 -14q-143 0 -214 64.5t-71 199.5v1286h252v-1274q0 -72 78 -72q35 0 55 13l29 -193q-53 -24 -129 -24z" />
    <glyph glyph-name="m" unicode="m" horiz-adv-x="1759" 
d="M381 627v-627h-254v1024h139q28 0 41.5 -9t20.5 -34l18 -82q47 67 128.5 108.5t174.5 41.5q240 0 320 -172q41 78 127.5 125t185.5 47q181 0 270.5 -104t89.5 -283v-662h-253v627q0 108 -51 160.5t-134 52.5q-77 0 -132.5 -53.5t-55.5 -159.5v-627h-254v627
q0 108 -52 160.5t-137 52.5q-79 0 -135.5 -53.5t-56.5 -159.5z" />
    <glyph glyph-name="n" unicode="n" horiz-adv-x="1130" 
d="M381 627v-627h-254v1024h139q28 0 41.5 -9t20.5 -34l18 -82q47 67 128.5 108.5t174.5 41.5q184 0 275.5 -104t91.5 -283v-662h-254v627q0 108 -52 160.5t-137 52.5q-79 0 -135.5 -53.5t-56.5 -159.5z" />
    <glyph glyph-name="o" unicode="o" horiz-adv-x="1089" 
d="M545 -25q-117 0 -207.5 43.5t-144.5 119t-81.5 170t-27.5 204.5t27.5 204.5t81.5 170t144.5 119t207.5 43.5t207.5 -43.5t144.5 -119t81.5 -170t27.5 -204.5t-27.5 -204.5t-81.5 -170t-144.5 -119t-207.5 -43.5zM545 182q104 0 155.5 87.5t51.5 242.5t-51.5 242.5
t-155.5 87.5q-105 0 -156 -87.5t-51 -242.5t51 -242.5t156 -87.5z" />
    <glyph glyph-name="p" unicode="p" horiz-adv-x="1138" 
d="M563 184q123 0 181.5 96t58.5 252q0 138 -51 222t-156 84q-92 0 -153.5 -79t-61.5 -235v-284q90 -56 182 -56zM381 43v-555h-254v1536h139q28 0 41 -9t19 -34l22 -100q43 78 123.5 123t177.5 45q190 0 298 -137t108 -371q0 -263 -116.5 -414.5t-326.5 -151.5
q-140 0 -231 68z" />
    <glyph glyph-name="q" unicode="q" horiz-adv-x="1138" 
d="M1012 -512h-254v614q-37 -53 -114 -90t-163 -37q-183 0 -290 140.5t-107 388.5q0 245 118.5 395t319.5 150q81 0 148.5 -29t109.5 -76l29 80h203v-1536zM559 184q81 0 140 56t59 161v338q-24 38 -75.5 68.5t-115.5 30.5q-110 0 -170.5 -91.5t-60.5 -236.5
q0 -143 55 -234.5t168 -91.5z" />
    <glyph glyph-name="r" unicode="r" horiz-adv-x="739" 
d="M381 561v-561h-254v1024h139q28 0 41.5 -9t20.5 -34l24 -107q38 80 111 127.5t168 47.5q48 0 94 -17l-55 -244q-48 21 -95 21q-83 0 -138.5 -61.5t-55.5 -186.5z" />
    <glyph glyph-name="s" unicode="s" horiz-adv-x="966" 
d="M438 -25q-190 0 -354 76l63 197q167 -64 287 -64q106 0 151.5 32t45.5 79q0 89 -142 119l-45 8q-179 32 -263.5 106.5t-84.5 198.5q0 56 24.5 110.5t73 103t132.5 78.5t190 30q189 0 324 -60l-54 -201q-51 17 -79 25.5t-77 17.5t-95 9q-98 0 -144.5 -28.5t-46.5 -74.5
q0 -44 33.5 -68t105.5 -38l45 -10q178 -34 264.5 -109t86.5 -197q0 -69 -26 -128.5t-78 -107.5t-138.5 -76t-198.5 -28z" />
    <glyph glyph-name="t" unicode="t" horiz-adv-x="802" 
d="M571 -16q-180 0 -269 88.5t-89 277.5v475l-182 35v164h182v297h254v-297h278v-178l-278 -33v-442q0 -95 35 -139t116 -44q45 0 93 21l30 -195q-71 -30 -170 -30z" />
    <glyph glyph-name="u" unicode="u" horiz-adv-x="1130" 
d="M809 0l-21 145q-44 -74 -128.5 -122t-182.5 -48q-178 0 -266 104t-88 283v662h254v-627q0 -108 51 -160.5t135 -52.5q79 0 137 53.5t58 159.5v627h254v-1024h-203z" />
    <glyph glyph-name="v" unicode="v" horiz-adv-x="1048" 
d="M629 -18h-131q-45 0 -67.5 16t-39.5 61l-360 965h184q84 0 107 -74l202 -639l228 713h266z" />
    <glyph glyph-name="w" unicode="w" horiz-adv-x="1466" 
d="M1163 -20h-133q-48 0 -73 19t-37 69l-179 692l-202 -778h-136q-50 0 -73.5 17.5t-36.5 66.5l-262 958h182q68 0 82 -70l139 -647l193 717h164q36 0 54 -13t27 -46l177 -666l161 725h226z" />
    <glyph glyph-name="x" unicode="x" horiz-adv-x="1048" 
d="M700 59l-172 277l-215 -336h-284l356 524l-336 500h211q40 0 63 -12t42 -41l159 -254l195 307h282l-335 -498l356 -526h-211q-73 0 -111 59z" />
    <glyph glyph-name="y" unicode="y" horiz-adv-x="1110" 
d="M524 -522q-98 0 -191 29.5t-151 76.5l54 197q136 -90 270 -90q139 0 194.5 71.5t55.5 198.5v164q-45 -68 -122.5 -109t-166.5 -41q-174 0 -259 103.5t-85 283.5v662h254v-627q0 -108 48.5 -160.5t127.5 -52.5q76 0 130 53.5t54 159.5v627h254v-1083q0 -105 -25.5 -187
t-79.5 -145t-145.5 -97t-216.5 -34z" />
    <glyph glyph-name="z" unicode="z" horiz-adv-x="931" 
d="M868 0h-800v59q0 71 13 110t50 87l410 549l-435 -4v223h740v-63q0 -65 -12 -105t-46 -82l-417 -555l497 4v-223z" />
    <glyph glyph-name="braceleft" unicode="{" horiz-adv-x="743" 
d="M541 -387q-69 0 -127 18t-106.5 56t-75.5 105.5t-27 158.5q0 82 23.5 243.5t23.5 237.5q0 71 -35 113.5t-100 42.5h-23v188h23q65 0 100 42.5t35 113.5q0 75 -23.5 236.5t-23.5 242.5q0 92 27 159.5t75.5 105.5t106.5 55.5t127 17.5q73 0 127 -12l2 -181q-40 0 -74.5 -8
t-67.5 -26.5t-52 -56.5t-19 -91q0 -78 20.5 -221.5t20.5 -220.5q0 -114 -44 -177t-110 -71v-6q66 -10 110 -71.5t44 -174.5q0 -76 -20.5 -220t-20.5 -224q0 -52 19 -90t52 -57t67.5 -27.5t74.5 -8.5l-2 -180q-54 -12 -127 -12z" />
    <glyph glyph-name="bar" unicode="|" horiz-adv-x="1261" 
d="M504 -240v1856h254v-1856h-254z" />
    <glyph glyph-name="braceright" unicode="}" horiz-adv-x="743" 
d="M203 -387q-73 0 -127 12l-2 180q40 0 74.5 8.5t67.5 27.5t52 57t19 90q0 80 -20.5 224t-20.5 220q0 113 43.5 174.5t109.5 71.5v6q-65 8 -109 71t-44 177q0 77 20.5 220.5t20.5 221.5q0 53 -19 91t-52 56.5t-67.5 26.5t-74.5 8l2 181q54 12 127 12q69 0 127 -17.5
t106.5 -55.5t75.5 -105.5t27 -159.5q0 -81 -23.5 -242.5t-23.5 -236.5q0 -71 35 -113.5t100 -42.5h22v-188h-22q-65 0 -100 -42.5t-35 -113.5q0 -76 23.5 -237.5t23.5 -243.5q0 -91 -27 -158.5t-75.5 -105.5t-106.5 -56t-127 -18z" />
    <glyph glyph-name="exclamdown" unicode="&#xa1;" horiz-adv-x="522" 
d="M262 711q-69 0 -115.5 46t-46.5 115q0 66 47 113t115 47q66 0 113 -47t47 -113q0 -68 -46.5 -114.5t-113.5 -46.5zM121 -512l63 1075h154l63 -1075h-280z" />
    <glyph glyph-name="cent" unicode="&#xa2;" horiz-adv-x="995" 
d="M852 225q-100 -47 -215 -53v-197h-191v211q-177 40 -272.5 180.5t-95.5 340.5t95 340t273 182v215h191v-201q124 -6 213 -53l-51 -207q-87 41 -195 41q-129 0 -201.5 -86t-72.5 -231t72.5 -231.5t201.5 -86.5q106 0 197 43z" />
    <glyph glyph-name="sterling" unicode="&#xa3;" horiz-adv-x="1196" 
d="M1112 229v-229h-1014v229h76q131 0 206 64.5t75 175.5q0 33 -2 47h-299v184h178l-47 43q-81 70 -125.5 143t-44.5 165q0 174 142 283.5t370 109.5q225 0 420 -92l-66 -205q-159 78 -332 78q-125 0 -199.5 -54.5t-74.5 -144.5q0 -86 84 -166l108 -104q26 -23 49 -56h336
v-184h-268q2 -12 2 -41q0 -73 -29.5 -137.5t-78.5 -108.5h534z" />
    <glyph glyph-name="currency" unicode="&#xa4;" horiz-adv-x="1415" 
d="M1012 776l-133 133l174 174l133 -131zM406 774l-177 176l133 133l175 -174zM707 229q-57 0 -101 113q-43 113 -43 264q0 147 45 262q47 113 105 113q54 0 98 -113q41 -107 41 -266q0 -150 -43 -260q-47 -113 -102 -113zM360 127l-131 133l174 174l134 -133zM1055 125
l-176 176l135 131l174 -174z" />
    <glyph glyph-name="yen" unicode="&#xa5;" horiz-adv-x="1230" 
d="M1010 166h-273v-166h-256v166h-270v158h270v96h-270v160h270v59l-450 795h286l293 -557l303 557h287l-463 -795v-59h273v-160h-273v-96h273v-158z" />
    <glyph glyph-name="brokenbar" unicode="&#xa6;" horiz-adv-x="1261" 
d="M504 825v791h254v-791h-254zM504 -240v791h254v-791h-254z" />
    <glyph glyph-name="section" unicode="&#xa7;" horiz-adv-x="1318" 
d="M690 350q129 -117 182 -225q41 52 41 131q0 89 -40 155.5t-119 135.5l-176 151q-70 64 -117 138q-53 -44 -53 -129q0 -107 96 -195zM524 -518q-76 0 -147 29t-119 75l66 197q78 -82 188 -82q86 0 129 54.5t43 135.5q0 87 -40.5 153t-119.5 136l-176 152
q-188 166 -188 368q0 67 24 130t78.5 118t132.5 82v41q0 69 24.5 134t72 119t127 87t178.5 33q68 0 139.5 -24t116.5 -66l-99 -178q-71 63 -151 63t-123 -48t-43 -118q0 -107 98 -194l185 -162q122 -107 180.5 -214t58.5 -233q0 -120 -59 -223.5t-176 -150.5
q-2 -78 -27 -149.5t-71.5 -132t-124.5 -96.5t-177 -36z" />
    <glyph glyph-name="copyright" unicode="&#xa9;" horiz-adv-x="1800" 
d="M901 -45q-166 0 -312.5 60t-251.5 163t-165.5 247t-60.5 306q0 163 60.5 307.5t165.5 247.5t251.5 163t312.5 60t312.5 -60t251 -163t165 -247.5t60.5 -307.5q0 -162 -60.5 -306t-165 -247t-251 -163t-312.5 -60zM901 129q126 0 237 46t190.5 125.5t125 191.5t45.5 239
q0 172 -77.5 310.5t-214.5 217t-306 78.5t-306.5 -78.5t-215.5 -217.5t-78 -310q0 -127 46 -239t125.5 -191.5t191 -125.5t237.5 -46zM913 279q-209 0 -324.5 126.5t-115.5 329.5q0 197 115.5 322t322.5 125q135 0 236 -56l-45 -143q-80 41 -174 41q-128 0 -199.5 -79.5
t-71.5 -209.5q0 -137 71 -218t200 -81q86 0 178 43l43 -145q-99 -55 -236 -55z" />
    <glyph glyph-name="ordfeminine" unicode="&#xaa;" horiz-adv-x="788" 
d="M393 999q70 0 115 45v7q-3 71 -41 115t-96 44q-44 0 -75.5 -28t-31.5 -74q0 -47 36 -78t93 -31zM535 870l-17 82q-26 -42 -80 -71t-127 -29q-112 0 -181 69.5t-69 170.5q0 114 75.5 180.5t191.5 66.5q128 0 182 -86v29q0 83 -37 129.5t-129 46.5q-95 0 -188 -55l-41 170
q100 53 254 53q329 0 329 -309v-447h-163zM104 535v184h586v-184h-586z" />
    <glyph glyph-name="guillemotleft" unicode="&#xab;" horiz-adv-x="1191" 
d="M434 66l-344 409v14l344 410h268l-348 -416l348 -417h-268zM846 66l-344 409v14l344 410h268l-348 -416l348 -417h-268z" />
    <glyph glyph-name="registered" unicode="&#xae;" horiz-adv-x="1271" 
d="M635 422q-113 0 -213 41t-171.5 111t-113 168.5t-41.5 209.5q0 148 70.5 270t194.5 191.5t274 69.5q229 0 385 -153t156 -378t-156 -377.5t-385 -152.5zM635 545q172 0 287.5 116.5t115.5 290.5t-115.5 290t-287.5 116t-287 -116t-115 -290q0 -175 115 -291t287 -116z
M614 936q77 0 107.5 36t30.5 85q0 36 -23 62t-80 26h-102v-201q31 -8 67 -8zM616 838q-38 0 -69 8v-174h-111v573h207q118 0 172.5 -53.5t54.5 -134.5q0 -134 -108 -189l127 -196h-123l-107 168q-14 -2 -43 -2z" />
    <glyph glyph-name="degree" unicode="&#xb0;" horiz-adv-x="692" 
d="M346 1006q-48 0 -96 16.5t-90 48.5t-68 86.5t-26 122.5q0 69 26 123.5t68 86.5t90 48t96 16t95.5 -16t90 -48t69 -86.5t26.5 -123.5q0 -68 -26.5 -122.5t-69 -86.5t-90.5 -48.5t-95 -16.5zM346 1149q55 0 92 35t37 96t-37 96t-92 35t-92 -35t-37 -96t37 -96t92 -35z" />
    <glyph glyph-name="plusminus" unicode="&#xb1;" horiz-adv-x="1208" 
d="M989 776h-284v-291h-199v291h-287v178h287v299h199v-299h284v-178zM219 207v180h770v-180h-770z" />
    <glyph glyph-name="paragraph" unicode="&#xb6;" horiz-adv-x="1613" 
d="M1026 -512v1778h-154v-1778h-217v1004h-39q-230 0 -376 126t-146 336q0 105 32 191t97 151.5t172.5 101.5t249.5 36h780v-168h-182v-1778h-217z" />
    <glyph glyph-name="periodcentered" unicode="&#xb7;" horiz-adv-x="526" 
d="M264 434q-69 0 -115.5 46.5t-46.5 115.5q0 66 47 113t115 47q66 0 113 -47t47 -113q0 -68 -47 -115t-113 -47z" />
    <glyph glyph-name="ordmasculine" unicode="&#xba;" horiz-adv-x="811" 
d="M406 852q-86 0 -153 31.5t-107 85.5t-60 122.5t-20 147.5t20 147.5t60 122.5t107 85.5t153 31.5t152.5 -31t106 -86t59 -123t19.5 -147t-19.5 -147t-59 -123t-106 -86t-152.5 -31zM406 1020q65 0 98 56.5t33 162.5t-33 162.5t-98 56.5q-132 0 -132 -219t132 -219z
M121 535v184h569v-184h-569z" />
    <glyph glyph-name="guillemotright" unicode="&#xbb;" horiz-adv-x="1191" 
d="M90 66l348 417l-348 416h268l344 -410v-14l-344 -409h-268zM502 66l348 417l-348 416h268l344 -410v-14l-344 -409h-268z" />
    <glyph glyph-name="onequarter" unicode="&#xbc;" horiz-adv-x="1519" 
d="M215 0l1026 1434h219l-1024 -1434h-221zM608 674h-526v164h172v389l-162 -70v174l176 82q63 29 119 29h49v-604h172v-164zM1208 309v293l-174 -293h174zM1462 162h-84v-162h-170v162h-331v139l290 461h211v-453h84v-147z" />
    <glyph glyph-name="onehalf" unicode="&#xbd;" horiz-adv-x="1728" 
d="M242 0l1024 1434h221l-1026 -1434h-219zM608 674h-526v164h172v389l-162 -70v174l176 82q63 29 119 29h49v-604h172v-164zM1130 0v147q0 39 12.5 71t39 58.5t47 42t57.5 39.5q9 6 14 9l64 36q46 30 68 57t22 62q0 40 -32 65t-89 25q-86 0 -168 -45l-45 146q119 55 234 55
q131 0 208.5 -60t77.5 -159q0 -144 -167 -248l-60 -37q-80 -52 -80 -80v-18h314v-166h-517z" />
    <glyph glyph-name="threequarters" unicode="&#xbe;" horiz-adv-x="1431" 
d="M123 0l1026 1434h219l-1024 -1434h-221zM291 657q-126 0 -219 41l55 154q68 -29 149 -29q61 0 88 24.5t27 59.5q0 40 -29.5 61t-85.5 21h-90v150h86q45 0 70 19t25 54q0 76 -99 76q-58 0 -151 -33l-41 146q38 16 101.5 27.5t117.5 11.5q129 0 193.5 -53t64.5 -140
q0 -53 -28.5 -103t-65.5 -73q49 -14 84 -61t35 -107q0 -110 -71 -178t-216 -68zM1118 309v293l-174 -293h174zM1374 162h-86v-162h-170v162h-330v139l291 461h209v-453h86v-147z" />
    <glyph glyph-name="questiondown" unicode="&#xbf;" horiz-adv-x="901" 
d="M610 727q-68 0 -114.5 46.5t-46.5 115.5q0 66 47 113t114 47t114.5 -47t47.5 -113q0 -69 -47 -115.5t-115 -46.5zM524 -522q-230 0 -350.5 112.5t-120.5 280.5q0 100 38 180.5t103 133t145.5 83t172.5 39.5l14 277h174l17 -428q-61 0 -117.5 -7.5t-111.5 -25.5t-95 -46.5
t-65 -73.5t-25 -103q0 -94 60.5 -151.5t189.5 -57.5q124 0 254 71l51 -213q-67 -33 -160 -52t-174 -19z" />
    <glyph glyph-name="Agrave" unicode="&#xc0;" horiz-adv-x="1304" 
d="M608 1513l-258 248h209q80 0 121 -63l123 -185h-195zM813 596l-162 553l-162 -553h324zM985 0l-113 391h-442l-115 -391h-270l473 1438h164q55 0 84.5 -22t46.5 -77l447 -1339h-275z" />
    <glyph glyph-name="Aacute" unicode="&#xc1;" horiz-adv-x="1304" 
d="M481 1520l226 237h305l-320 -237h-211zM813 596l-162 553l-162 -553h324zM985 0l-113 391h-442l-115 -391h-270l473 1438h164q55 0 84.5 -22t46.5 -77l447 -1339h-275z" />
    <glyph glyph-name="Acircumflex" unicode="&#xc2;" horiz-adv-x="1304" 
d="M770 1520l-111 122l-116 -122h-238l242 239h147q37 0 61.5 -9.5t51.5 -35.5l205 -194h-242zM813 596l-162 553l-162 -553h324zM985 0l-113 391h-442l-115 -391h-270l473 1438h164q55 0 84.5 -22t46.5 -77l447 -1339h-275z" />
    <glyph glyph-name="Atilde" unicode="&#xc3;" horiz-adv-x="1304" 
d="M334 1520q-25 25 -25 88q0 75 51.5 128.5t139.5 53.5q49 0 90.5 -16t65 -36t55.5 -36t63 -16q41 0 61.5 37t20.5 75h119q16 -29 16 -82q0 -89 -56.5 -150t-139.5 -61q-50 0 -91 16t-63.5 35.5t-52.5 35.5t-60 16q-40 0 -58.5 -27.5t-18.5 -60.5h-117zM813 596l-162 553
l-162 -553h324zM985 0l-113 391h-442l-115 -391h-270l473 1438h164q55 0 84.5 -22t46.5 -77l447 -1339h-275z" />
    <glyph glyph-name="Adieresis" unicode="&#xc4;" horiz-adv-x="1304" 
d="M868 1499q-61 0 -102 42.5t-41 105.5t41 106t102 43q59 0 100.5 -43t41.5 -106t-41.5 -105.5t-100.5 -42.5zM432 1499q-60 0 -101.5 42.5t-41.5 105.5t41.5 106t101.5 43q59 0 101 -43t42 -106q0 -62 -42 -105t-101 -43zM813 596l-162 553l-162 -553h324zM985 0l-113 391
h-442l-115 -391h-270l473 1438h164q55 0 84.5 -22t46.5 -77l447 -1339h-275z" />
    <glyph glyph-name="AE" unicode="&#xc6;" horiz-adv-x="1914" 
d="M653 571h295v484zM25 0l923 1434h875v-232h-623v-344h557v-227h-557v-400h623v-231h-875v367h-422l-225 -367h-276z" />
    <glyph glyph-name="Ccedilla" unicode="&#xc7;" horiz-adv-x="1187" 
d="M662 -518q-52 0 -99.5 12t-79 29t-56 34.5t-35.5 29.5l-11 12l65 125q3 -4 9 -10.5t26.5 -22.5t43 -28.5t57.5 -23t71 -10.5q57 0 88 24t31 62t-28 60t-72 22q-33 0 -60 -11t-38 -22l-11 -12l-86 37l113 205q-235 55 -362.5 248.5t-127.5 474.5q0 157 44 290t126 230.5
t208 152t282 54.5q203 0 350 -88l-68 -215q-124 67 -260 67q-200 0 -312 -133.5t-112 -357.5q0 -233 112 -369.5t314 -136.5q132 0 265 70l65 -218q-145 -88 -352 -88h-29l-39 -73q12 2 39 2q87 0 150 -48.5t63 -144.5q0 -105 -77 -167t-207 -62z" />
    <glyph glyph-name="Egrave" unicode="&#xc8;" horiz-adv-x="1155" 
d="M535 1513l-259 248h207q80 0 121 -63l125 -185h-194zM119 0v1434h942v-232h-690v-344h626v-227h-626v-400h690v-231h-942z" />
    <glyph glyph-name="Eacute" unicode="&#xc9;" horiz-adv-x="1155" 
d="M408 1520l225 237h303l-318 -237h-210zM119 0v1434h942v-232h-690v-344h626v-227h-626v-400h690v-231h-942z" />
    <glyph glyph-name="Ecircumflex" unicode="&#xca;" horiz-adv-x="1155" 
d="M696 1520l-112 122l-115 -122h-240l244 239h145q38 0 62.5 -9.5t50.5 -35.5l205 -194h-240zM119 0v1434h942v-232h-690v-344h626v-227h-626v-400h690v-231h-942z" />
    <glyph glyph-name="Edieresis" unicode="&#xcb;" horiz-adv-x="1155" 
d="M793 1499q-60 0 -102 42.5t-42 105.5t42 106t102 43t101.5 -43t41.5 -106t-41.5 -105.5t-101.5 -42.5zM356 1499q-60 0 -101.5 42.5t-41.5 105.5t41.5 106t101.5 43t102 -43t42 -106t-42 -105.5t-102 -42.5zM119 0v1434h942v-232h-690v-344h626v-227h-626v-400h690v-231
h-942z" />
    <glyph glyph-name="Igrave" unicode="&#xcc;" horiz-adv-x="548" 
d="M231 1513l-258 248h209q76 0 121 -63l123 -185h-195zM147 0v1434h254v-1434h-254z" />
    <glyph glyph-name="Iacute" unicode="&#xcd;" horiz-adv-x="548" 
d="M104 1520l226 237h305l-320 -237h-211zM147 0v1434h254v-1434h-254z" />
    <glyph glyph-name="Icircumflex" unicode="&#xce;" horiz-adv-x="548" 
d="M393 1520l-112 122l-115 -122h-240l244 239h147q37 0 61 -9.5t50 -35.5l207 -194h-242zM147 0v1434h254v-1434h-254z" />
    <glyph glyph-name="Idieresis" unicode="&#xcf;" horiz-adv-x="548" 
d="M489 1499q-60 0 -101.5 42.5t-41.5 105.5t41.5 106t101.5 43t102 -43t42 -106t-42 -105.5t-102 -42.5zM53 1499q-60 0 -100.5 42.5t-40.5 105.5t40.5 106t100.5 43t102 -43t42 -106t-42 -105.5t-102 -42.5zM147 0v1434h254v-1434h-254z" />
    <glyph glyph-name="Ntilde" unicode="&#xd1;" horiz-adv-x="1343" 
d="M330 1520q-25 25 -25 88q0 75 51.5 128.5t139.5 53.5q49 0 90.5 -16t65 -36t55.5 -36t63 -16q41 0 61.5 37t20.5 75h117q18 -32 18 -82q0 -89 -56.5 -150t-139.5 -61q-51 0 -92.5 16t-64 35.5t-52 35.5t-58.5 16q-40 0 -59 -27.5t-19 -60.5h-116zM956 76l-598 915l7 -991
h-246v1436h139q80 0 121 -64l606 -928l-6 990h246v-1434h-129q-93 0 -140 76z" />
    <glyph glyph-name="Ograve" unicode="&#xd2;" horiz-adv-x="1388" 
d="M651 1513l-258 248h209q76 0 121 -63l123 -185h-195zM694 -25q-121 0 -220.5 39.5t-168.5 108t-116 163t-69 202.5t-22 229q0 118 22 224t69 198.5t116 160t168.5 106t220.5 38.5q122 0 221.5 -38.5t168.5 -105.5t116 -160t68.5 -199t21.5 -224q0 -121 -22 -229
t-69 -202.5t-116 -163t-168.5 -108t-220.5 -39.5zM694 205q162 0 251 138t89 374q0 228 -89 362.5t-251 134.5q-164 0 -251 -133.5t-87 -363.5q0 -237 87 -374.5t251 -137.5z" />
    <glyph glyph-name="Oacute" unicode="&#xd3;" horiz-adv-x="1388" 
d="M524 1520l226 237h305l-320 -237h-211zM694 -25q-121 0 -220.5 39.5t-168.5 108t-116 163t-69 202.5t-22 229q0 118 22 224t69 198.5t116 160t168.5 106t220.5 38.5q122 0 221.5 -38.5t168.5 -105.5t116 -160t68.5 -199t21.5 -224q0 -121 -22 -229t-69 -202.5t-116 -163
t-168.5 -108t-220.5 -39.5zM694 205q162 0 251 138t89 374q0 228 -89 362.5t-251 134.5q-164 0 -251 -133.5t-87 -363.5q0 -237 87 -374.5t251 -137.5z" />
    <glyph glyph-name="Ocircumflex" unicode="&#xd4;" horiz-adv-x="1388" 
d="M813 1520l-113 122l-114 -122h-240l244 239h147q37 0 61 -9.5t50 -35.5l207 -194h-242zM694 -25q-121 0 -220.5 39.5t-168.5 108t-116 163t-69 202.5t-22 229q0 118 22 224t69 198.5t116 160t168.5 106t220.5 38.5q122 0 221.5 -38.5t168.5 -105.5t116 -160t68.5 -199
t21.5 -224q0 -121 -22 -229t-69 -202.5t-116 -163t-168.5 -108t-220.5 -39.5zM694 205q162 0 251 138t89 374q0 228 -89 362.5t-251 134.5q-164 0 -251 -133.5t-87 -363.5q0 -237 87 -374.5t251 -137.5z" />
    <glyph glyph-name="Otilde" unicode="&#xd5;" horiz-adv-x="1388" 
d="M377 1520q-25 25 -25 88q0 75 51.5 128.5t139.5 53.5q49 0 90.5 -16t65 -36t55.5 -36t63 -16q41 0 61.5 37t20.5 75h117q18 -32 18 -82q0 -89 -56.5 -150t-139.5 -61q-51 0 -92.5 16t-64 35.5t-52 35.5t-58.5 16q-40 0 -58.5 -27.5t-18.5 -60.5h-117zM694 -25
q-121 0 -220.5 39.5t-168.5 108t-116 163t-69 202.5t-22 229q0 118 22 224t69 198.5t116 160t168.5 106t220.5 38.5q122 0 221.5 -38.5t168.5 -105.5t116 -160t68.5 -199t21.5 -224q0 -121 -22 -229t-69 -202.5t-116 -163t-168.5 -108t-220.5 -39.5zM694 205q162 0 251 138
t89 374q0 228 -89 362.5t-251 134.5q-164 0 -251 -133.5t-87 -363.5q0 -237 87 -374.5t251 -137.5z" />
    <glyph glyph-name="Odieresis" unicode="&#xd6;" horiz-adv-x="1388" 
d="M909 1499q-60 0 -100.5 42.5t-40.5 105.5t40.5 106t100.5 43t102 -43t42 -106t-42 -105.5t-102 -42.5zM475 1499q-61 0 -102 42.5t-41 105.5t41 106t102 43q59 0 100 -43t41 -106t-41 -105.5t-100 -42.5zM694 -25q-121 0 -220.5 39.5t-168.5 108t-116 163t-69 202.5
t-22 229q0 118 22 224t69 198.5t116 160t168.5 106t220.5 38.5q122 0 221.5 -38.5t168.5 -105.5t116 -160t68.5 -199t21.5 -224q0 -121 -22 -229t-69 -202.5t-116 -163t-168.5 -108t-220.5 -39.5zM694 205q162 0 251 138t89 374q0 228 -89 362.5t-251 134.5
q-164 0 -251 -133.5t-87 -363.5q0 -237 87 -374.5t251 -137.5z" />
    <glyph glyph-name="multiply" unicode="&#xd7;" horiz-adv-x="1208" 
d="M836 240l-232 231l-231 -231l-162 161l231 232l-231 231l162 164l231 -231l232 231l163 -164l-231 -231l231 -232z" />
    <glyph glyph-name="Ugrave" unicode="&#xd9;" horiz-adv-x="1335" 
d="M625 1513l-258 248h206q80 0 121 -63l125 -185h-194zM668 -25q-79 0 -153 16.5t-149.5 57.5t-131 104t-90.5 164.5t-35 229.5v887h251v-871q0 -83 18 -146.5t47 -103t70 -64.5t83 -34.5t90 -9.5t90 9.5t82.5 34.5t69.5 64.5t47 103t18 146.5v871h252v-887
q0 -128 -35 -229.5t-90.5 -164.5t-131 -104t-149.5 -57.5t-153 -16.5z" />
    <glyph glyph-name="Uacute" unicode="&#xda;" horiz-adv-x="1335" 
d="M498 1520l225 237h303l-317 -237h-211zM668 -25q-79 0 -153 16.5t-149.5 57.5t-131 104t-90.5 164.5t-35 229.5v887h251v-871q0 -83 18 -146.5t47 -103t70 -64.5t83 -34.5t90 -9.5t90 9.5t82.5 34.5t69.5 64.5t47 103t18 146.5v871h252v-887q0 -128 -35 -229.5
t-90.5 -164.5t-131 -104t-149.5 -57.5t-153 -16.5z" />
    <glyph glyph-name="Ucircumflex" unicode="&#xdb;" horiz-adv-x="1335" 
d="M786 1520l-112 122l-115 -122h-240l244 239h146q37 0 61.5 -9.5t50.5 -35.5l205 -194h-240zM668 -25q-79 0 -153 16.5t-149.5 57.5t-131 104t-90.5 164.5t-35 229.5v887h251v-871q0 -83 18 -146.5t47 -103t70 -64.5t83 -34.5t90 -9.5t90 9.5t82.5 34.5t69.5 64.5t47 103
t18 146.5v871h252v-887q0 -128 -35 -229.5t-90.5 -164.5t-131 -104t-149.5 -57.5t-153 -16.5z" />
    <glyph glyph-name="Udieresis" unicode="&#xdc;" horiz-adv-x="1335" 
d="M883 1499q-60 0 -102 42.5t-42 105.5t42 106t102 43t101.5 -43t41.5 -106t-41.5 -105.5t-101.5 -42.5zM446 1499q-60 0 -101.5 42.5t-41.5 105.5t41.5 106t101.5 43t102 -43t42 -106t-42 -105.5t-102 -42.5zM668 -25q-79 0 -153 16.5t-149.5 57.5t-131 104t-90.5 164.5
t-35 229.5v887h251v-871q0 -83 18 -146.5t47 -103t70 -64.5t83 -34.5t90 -9.5t90 9.5t82.5 34.5t69.5 64.5t47 103t18 146.5v871h252v-887q0 -128 -35 -229.5t-90.5 -164.5t-131 -104t-149.5 -57.5t-153 -16.5z" />
    <glyph glyph-name="germandbls" unicode="&#xdf;" horiz-adv-x="1267" 
d="M823 -25q-163 0 -307 58l57 198q137 -49 242 -49q82 0 124 33t42 82q0 48 -30 75.5t-103 59.5l-150 64q-80 31 -128 91t-48 144q0 148 142 248l98 70q90 66 90 143q0 61 -57 103t-140 42q-127 0 -199.5 -84.5t-72.5 -226.5v-1026h-254v1030q0 122 42.5 221.5t115 163
t165.5 97.5t197 34q103 0 189 -28.5t141.5 -76t86 -108t30.5 -125.5q0 -166 -148 -268l-96 -70q-38 -29 -59 -55t-21 -59q0 -69 84 -101l107 -45q141 -54 202.5 -130t61.5 -181q0 -64 -25 -121.5t-73 -103t-127 -72.5t-179 -27z" />
    <glyph glyph-name="agrave" unicode="&#xe0;" horiz-adv-x="1054" 
d="M496 1176l-238 309h191q77 0 114 -66l119 -243h-186zM518 160q55 0 107 22t82 60q0 107 -57 174t-150 67q-73 0 -123.5 -44.5t-50.5 -116.5t53 -117t139 -45zM737 0l-20 115q-33 -58 -110.5 -99t-178.5 -41q-157 0 -254.5 94t-97.5 236q0 159 105 254.5t263 95.5
q94 0 160 -34t103 -89v66q0 112 -53.5 175t-186.5 63q-130 0 -262 -72l-53 213q68 34 162 53t180 19q122 0 209.5 -30t138 -87.5t73.5 -131t23 -169.5v-631h-201z" />
    <glyph glyph-name="aacute" unicode="&#xe1;" horiz-adv-x="1054" 
d="M367 1176l204 309h277l-287 -309h-194zM518 160q55 0 107 22t82 60q0 107 -57 174t-150 67q-73 0 -123.5 -44.5t-50.5 -116.5t53 -117t139 -45zM737 0l-20 115q-33 -58 -110.5 -99t-178.5 -41q-157 0 -254.5 94t-97.5 236q0 159 105 254.5t263 95.5q94 0 160 -34t103 -89
v66q0 112 -53.5 175t-186.5 63q-130 0 -262 -72l-53 213q68 34 162 53t180 19q122 0 209.5 -30t138 -87.5t73.5 -131t23 -169.5v-631h-201z" />
    <glyph glyph-name="acircumflex" unicode="&#xe2;" horiz-adv-x="1054" 
d="M637 1176l-100 167l-103 -167h-217l215 309h133q46 0 73.5 -16t53.5 -54l162 -239h-217zM518 160q55 0 107 22t82 60q0 107 -57 174t-150 67q-73 0 -123.5 -44.5t-50.5 -116.5t53 -117t139 -45zM737 0l-20 115q-33 -58 -110.5 -99t-178.5 -41q-157 0 -254.5 94t-97.5 236
q0 159 105 254.5t263 95.5q94 0 160 -34t103 -89v66q0 112 -53.5 175t-186.5 63q-130 0 -262 -72l-53 213q68 34 162 53t180 19q122 0 209.5 -30t138 -87.5t73.5 -131t23 -169.5v-631h-201z" />
    <glyph glyph-name="atilde" unicode="&#xe3;" horiz-adv-x="1054" 
d="M242 1182q-21 26 -21 90q0 77 46.5 131.5t127.5 54.5q44 0 82 -17t60 -37t51 -37t57 -17q38 0 56 38.5t18 77.5h110q15 -34 15 -82q0 -92 -51.5 -155.5t-126.5 -63.5q-46 0 -84 17t-59 37.5t-48.5 37.5t-54.5 17q-36 0 -52 -28.5t-16 -63.5h-110zM518 160q55 0 107 22
t82 60q0 107 -57 174t-150 67q-73 0 -123.5 -44.5t-50.5 -116.5t53 -117t139 -45zM737 0l-20 115q-33 -58 -110.5 -99t-178.5 -41q-157 0 -254.5 94t-97.5 236q0 159 105 254.5t263 95.5q94 0 160 -34t103 -89v66q0 112 -53.5 175t-186.5 63q-130 0 -262 -72l-53 213
q68 34 162 53t180 19q122 0 209.5 -30t138 -87.5t73.5 -131t23 -169.5v-631h-201z" />
    <glyph glyph-name="adieresis" unicode="&#xe4;" horiz-adv-x="1054" 
d="M735 1163q-60 0 -101.5 43.5t-41.5 106.5q0 62 41.5 105.5t101.5 43.5t102 -43.5t42 -105.5q0 -63 -42 -106.5t-102 -43.5zM330 1163q-60 0 -102 43.5t-42 106.5q0 62 42 105.5t102 43.5t101.5 -43.5t41.5 -105.5q0 -63 -41.5 -106.5t-101.5 -43.5zM518 160q55 0 107 22
t82 60q0 107 -57 174t-150 67q-73 0 -123.5 -44.5t-50.5 -116.5t53 -117t139 -45zM737 0l-20 115q-33 -58 -110.5 -99t-178.5 -41q-157 0 -254.5 94t-97.5 236q0 159 105 254.5t263 95.5q94 0 160 -34t103 -89v66q0 112 -53.5 175t-186.5 63q-130 0 -262 -72l-53 213
q68 34 162 53t180 19q122 0 209.5 -30t138 -87.5t73.5 -131t23 -169.5v-631h-201z" />
    <glyph glyph-name="ae" unicode="&#xe6;" horiz-adv-x="1691" 
d="M975 629h381v12q0 83 -47 142t-135 59q-166 0 -199 -213zM449 -25q-166 0 -268.5 95t-102.5 237q0 157 107 252.5t266 95.5q163 0 258 -84v47q0 218 -240 218q-128 0 -264 -72l-51 213q68 34 162 53t180 19q248 0 356 -134q121 134 322 134q92 0 165 -26t122 -72
t81.5 -111.5t47 -141.5t14.5 -166v-65h-635q0 -11 6 -53q16 -113 81.5 -172.5t192.5 -59.5q161 0 283 66l61 -187q-166 -86 -364 -86q-276 0 -400 177q-50 -70 -150.5 -123.5t-229.5 -53.5zM524 160q71 0 135.5 39t85.5 102q-15 52 -22 86q-79 96 -213 96q-76 0 -129 -44
t-53 -115q0 -73 54 -118.5t142 -45.5z" />
    <glyph glyph-name="ccedilla" unicode="&#xe7;" horiz-adv-x="913" 
d="M506 -518q-52 0 -100 12t-79.5 29t-56 34.5t-36.5 29.5l-11 12l66 125q3 -4 9.5 -10.5t27 -22.5t43 -28.5t57 -23t70.5 -10.5q58 0 89 24t31 62t-28.5 60t-73.5 22q-32 0 -59 -11t-38 -22l-11 -12l-84 37l112 207q-169 45 -259.5 183.5t-90.5 332.5q0 156 57 275.5
t174.5 190.5t282.5 71q150 0 258 -54l-51 -207q-94 41 -195 41q-130 0 -202 -86t-72 -231t72 -231t202 -86q102 0 197 43l49 -207q-115 -56 -258 -56h-20l-39 -73q12 2 39 2q87 0 150 -48.5t63 -144.5q0 -105 -78.5 -167t-206.5 -62z" />
    <glyph glyph-name="egrave" unicode="&#xe8;" horiz-adv-x="1060" 
d="M473 1176l-237 309h190q78 0 115 -66l118 -243h-186zM545 842q-84 0 -134 -56.5t-65 -160.5h381q-2 91 -47 154t-135 63zM965 61q-166 -86 -365 -86q-129 0 -230 43t-162.5 117.5t-92.5 170t-31 206.5q0 110 27.5 204.5t81.5 170t144.5 119t207.5 43.5q92 0 164.5 -26
t121.5 -72t81.5 -111.5t46.5 -141.5t14 -166v-69h-633q8 -138 73 -209.5t205 -71.5q165 0 283 66z" />
    <glyph glyph-name="eacute" unicode="&#xe9;" horiz-adv-x="1060" 
d="M369 1176l206 309h277l-287 -309h-196zM545 842q-84 0 -134 -56.5t-65 -160.5h381q-2 91 -47 154t-135 63zM965 61q-166 -86 -365 -86q-129 0 -230 43t-162.5 117.5t-92.5 170t-31 206.5q0 110 27.5 204.5t81.5 170t144.5 119t207.5 43.5q92 0 164.5 -26t121.5 -72
t81.5 -111.5t46.5 -141.5t14 -166v-69h-633q8 -138 73 -209.5t205 -71.5q165 0 283 66z" />
    <glyph glyph-name="ecircumflex" unicode="&#xea;" horiz-adv-x="1060" 
d="M639 1176l-100 167l-101 -167h-219l217 309h133q45 0 72 -16t53 -54l164 -239h-219zM545 842q-84 0 -134 -56.5t-65 -160.5h381q-2 91 -47 154t-135 63zM965 61q-166 -86 -365 -86q-129 0 -230 43t-162.5 117.5t-92.5 170t-31 206.5q0 110 27.5 204.5t81.5 170t144.5 119
t207.5 43.5q92 0 164.5 -26t121.5 -72t81.5 -111.5t46.5 -141.5t14 -166v-69h-633q8 -138 73 -209.5t205 -71.5q165 0 283 66z" />
    <glyph glyph-name="edieresis" unicode="&#xeb;" horiz-adv-x="1060" 
d="M739 1163q-61 0 -102 43.5t-41 106.5q0 62 41 105.5t102 43.5q59 0 100.5 -44t41.5 -105q0 -63 -41.5 -106.5t-100.5 -43.5zM334 1163q-61 0 -102.5 43.5t-41.5 106.5q0 62 41.5 105.5t102.5 43.5q58 0 99.5 -43.5t41.5 -105.5q0 -63 -41 -106.5t-100 -43.5zM545 842
q-84 0 -134 -56.5t-65 -160.5h381q-2 91 -47 154t-135 63zM965 61q-166 -86 -365 -86q-129 0 -230 43t-162.5 117.5t-92.5 170t-31 206.5q0 110 27.5 204.5t81.5 170t144.5 119t207.5 43.5q92 0 164.5 -26t121.5 -72t81.5 -111.5t46.5 -141.5t14 -166v-69h-633
q8 -138 73 -209.5t205 -71.5q165 0 283 66z" />
    <glyph glyph-name="igrave" unicode="&#xec;" horiz-adv-x="532" 
d="M43 1487h193q77 0 96 -68l71 -243h-190zM139 0v1024h254v-1024h-254z" />
    <glyph glyph-name="iacute" unicode="&#xed;" horiz-adv-x="532" 
d="M147 1176l123 309h267l-199 -309h-191zM139 0v1024h254v-1024h-254z" />
    <glyph glyph-name="icircumflex" unicode="&#xee;" horiz-adv-x="532" 
d="M354 1159l-88 178l-88 -178h-205l185 324h141q84 0 123 -68l135 -256h-203zM139 0v1024h254v-1024h-254z" />
    <glyph glyph-name="idieresis" unicode="&#xef;" horiz-adv-x="532" 
d="M444 1176q-56 0 -93.5 39.5t-37.5 97.5q0 57 38 97t93 40q56 0 95 -40t39 -97q0 -58 -39 -97.5t-95 -39.5zM109 1176q-56 0 -95 39.5t-39 97.5q0 57 39 97t95 40q54 0 92.5 -40t38.5 -97q0 -58 -38.5 -97.5t-92.5 -39.5zM139 0v1024h254v-1024h-254z" />
    <glyph glyph-name="ntilde" unicode="&#xf1;" horiz-adv-x="1130" 
d="M281 1182q-23 23 -23 90q0 77 46.5 131.5t127.5 54.5q45 0 83 -17t60 -37t51 -37t58 -17q25 0 43 21.5t24.5 46.5t6.5 48h110q15 -45 15 -82q0 -92 -52.5 -155.5t-128.5 -63.5q-46 0 -83 17t-58 37.5t-48.5 37.5t-55.5 17q-35 0 -51.5 -29t-16.5 -63h-108zM381 627v-627
h-254v1024h139q28 0 41.5 -9t20.5 -34l18 -82q47 67 128.5 108.5t174.5 41.5q184 0 275.5 -104t91.5 -283v-662h-254v627q0 108 -52 160.5t-137 52.5q-79 0 -135.5 -53.5t-56.5 -159.5z" />
    <glyph glyph-name="ograve" unicode="&#xf2;" horiz-adv-x="1089" 
d="M487 1176l-237 309h190q81 0 113 -66l121 -243h-187zM545 -25q-117 0 -207.5 43.5t-144.5 119t-81.5 170t-27.5 204.5t27.5 204.5t81.5 170t144.5 119t207.5 43.5t207.5 -43.5t144.5 -119t81.5 -170t27.5 -204.5t-27.5 -204.5t-81.5 -170t-144.5 -119t-207.5 -43.5z
M545 182q104 0 155.5 87.5t51.5 242.5t-51.5 242.5t-155.5 87.5q-105 0 -156 -87.5t-51 -242.5t51 -242.5t156 -87.5z" />
    <glyph glyph-name="oacute" unicode="&#xf3;" horiz-adv-x="1089" 
d="M383 1176l205 309h276l-284 -309h-197zM545 -25q-117 0 -207.5 43.5t-144.5 119t-81.5 170t-27.5 204.5t27.5 204.5t81.5 170t144.5 119t207.5 43.5t207.5 -43.5t144.5 -119t81.5 -170t27.5 -204.5t-27.5 -204.5t-81.5 -170t-144.5 -119t-207.5 -43.5zM545 182
q104 0 155.5 87.5t51.5 242.5t-51.5 242.5t-155.5 87.5q-105 0 -156 -87.5t-51 -242.5t51 -242.5t156 -87.5z" />
    <glyph glyph-name="ocircumflex" unicode="&#xf4;" horiz-adv-x="1089" 
d="M653 1176l-100 167l-102 -167h-218l216 309h135q44 0 71.5 -16t53.5 -54l161 -239h-217zM545 -25q-117 0 -207.5 43.5t-144.5 119t-81.5 170t-27.5 204.5t27.5 204.5t81.5 170t144.5 119t207.5 43.5t207.5 -43.5t144.5 -119t81.5 -170t27.5 -204.5t-27.5 -204.5
t-81.5 -170t-144.5 -119t-207.5 -43.5zM545 182q104 0 155.5 87.5t51.5 242.5t-51.5 242.5t-155.5 87.5q-105 0 -156 -87.5t-51 -242.5t51 -242.5t156 -87.5z" />
    <glyph glyph-name="otilde" unicode="&#xf5;" horiz-adv-x="1089" 
d="M258 1182q-20 25 -20 90q0 77 46.5 131.5t127.5 54.5q45 0 83 -17t60 -37t51 -37t58 -17q25 0 42.5 22t23 46.5t5.5 47.5h113q14 -42 14 -82q0 -92 -52.5 -155.5t-127.5 -63.5q-46 0 -84 17t-59 37.5t-48.5 37.5t-54.5 17q-36 0 -51.5 -28.5t-15.5 -63.5h-111zM545 -25
q-117 0 -207.5 43.5t-144.5 119t-81.5 170t-27.5 204.5t27.5 204.5t81.5 170t144.5 119t207.5 43.5t207.5 -43.5t144.5 -119t81.5 -170t27.5 -204.5t-27.5 -204.5t-81.5 -170t-144.5 -119t-207.5 -43.5zM545 182q104 0 155.5 87.5t51.5 242.5t-51.5 242.5t-155.5 87.5
q-105 0 -156 -87.5t-51 -242.5t51 -242.5t156 -87.5z" />
    <glyph glyph-name="odieresis" unicode="&#xf6;" horiz-adv-x="1089" 
d="M752 1163q-60 0 -102 43.5t-42 106.5q0 62 42 105.5t102 43.5t101.5 -43.5t41.5 -105.5q0 -63 -41.5 -106.5t-101.5 -43.5zM346 1163q-60 0 -101.5 43.5t-41.5 106.5q0 62 41.5 105.5t101.5 43.5t101.5 -43.5t41.5 -105.5q0 -63 -41.5 -106.5t-101.5 -43.5zM545 -25
q-117 0 -207.5 43.5t-144.5 119t-81.5 170t-27.5 204.5t27.5 204.5t81.5 170t144.5 119t207.5 43.5t207.5 -43.5t144.5 -119t81.5 -170t27.5 -204.5t-27.5 -204.5t-81.5 -170t-144.5 -119t-207.5 -43.5zM545 182q104 0 155.5 87.5t51.5 242.5t-51.5 242.5t-155.5 87.5
q-105 0 -156 -87.5t-51 -242.5t51 -242.5t156 -87.5z" />
    <glyph glyph-name="divide" unicode="&#xf7;" horiz-adv-x="1208" 
d="M604 858q-64 0 -107.5 43.5t-43.5 108.5q0 64 43.5 108.5t107.5 44.5t109 -45t45 -108q0 -64 -44.5 -108t-109.5 -44zM162 528v211h885v-211h-885zM604 104q-64 0 -107.5 43.5t-43.5 108.5q0 63 43.5 107.5t107.5 44.5t109 -44.5t45 -107.5q0 -65 -45 -108.5t-109 -43.5z
" />
    <glyph glyph-name="ugrave" unicode="&#xf9;" horiz-adv-x="1130" 
d="M504 1176l-238 309h191q77 0 114 -66l119 -243h-186zM809 0l-21 145q-44 -74 -128.5 -122t-182.5 -48q-178 0 -266 104t-88 283v662h254v-627q0 -108 51 -160.5t135 -52.5q79 0 137 53.5t58 159.5v627h254v-1024h-203z" />
    <glyph glyph-name="uacute" unicode="&#xfa;" horiz-adv-x="1130" 
d="M399 1176l205 309h279l-287 -309h-197zM809 0l-21 145q-44 -74 -128.5 -122t-182.5 -48q-178 0 -266 104t-88 283v662h254v-627q0 -108 51 -160.5t135 -52.5q79 0 137 53.5t58 159.5v627h254v-1024h-203z" />
    <glyph glyph-name="ucircumflex" unicode="&#xfb;" horiz-adv-x="1130" 
d="M670 1176l-101 167l-102 -167h-217l215 309h135q44 0 71.5 -16t53.5 -54l164 -239h-219zM809 0l-21 145q-44 -74 -128.5 -122t-182.5 -48q-178 0 -266 104t-88 283v662h254v-627q0 -108 51 -160.5t135 -52.5q79 0 137 53.5t58 159.5v627h254v-1024h-203z" />
    <glyph glyph-name="udieresis" unicode="&#xfc;" horiz-adv-x="1130" 
d="M768 1163q-60 0 -100.5 43.5t-40.5 106.5q0 62 40.5 105.5t100.5 43.5t101.5 -43.5t41.5 -105.5q0 -63 -41.5 -106.5t-101.5 -43.5zM362 1163q-60 0 -100.5 43.5t-40.5 106.5q0 62 40.5 105.5t100.5 43.5t102 -43.5t42 -105.5q0 -63 -42 -106.5t-102 -43.5zM809 0
l-21 145q-44 -74 -128.5 -122t-182.5 -48q-178 0 -266 104t-88 283v662h254v-627q0 -108 51 -160.5t135 -52.5q79 0 137 53.5t58 159.5v627h254v-1024h-203z" />
    <glyph glyph-name="ydieresis" unicode="&#xff;" horiz-adv-x="1110" 
d="M768 1163q-60 0 -100.5 43.5t-40.5 106.5q0 62 40.5 105.5t100.5 43.5t101.5 -43.5t41.5 -105.5q0 -63 -41.5 -106.5t-101.5 -43.5zM362 1163q-60 0 -100.5 43.5t-40.5 106.5q0 62 40.5 105.5t100.5 43.5t102 -43.5t42 -105.5q0 -63 -42 -106.5t-102 -43.5zM524 -522
q-98 0 -191 29.5t-151 76.5l54 197q136 -90 270 -90q139 0 194.5 71.5t55.5 198.5v164q-45 -68 -122.5 -109t-166.5 -41q-174 0 -259 103.5t-85 283.5v662h254v-627q0 -108 48.5 -160.5t127.5 -52.5q76 0 130 53.5t54 159.5v627h254v-1083q0 -105 -25.5 -187t-79.5 -145
t-145.5 -97t-216.5 -34z" />
    <glyph glyph-name="dotlessi" unicode="&#x131;" horiz-adv-x="530" 
d="M139 0v1024h254v-1024h-254z" />
    <glyph glyph-name="IJ" unicode="&#x132;" horiz-adv-x="1515" 
d="M147 0v1434h254v-1434h-254zM930 -25q-226 0 -365 148l185 162q74 -80 180 -80q46 0 84 14t71.5 46.5t52.5 93.5t19 147v928h252v-945q0 -114 -29.5 -205t-77 -148t-112 -94t-128.5 -52t-132 -15z" />
    <glyph glyph-name="ij" unicode="&#x133;" horiz-adv-x="1050" 
d="M784 1165q-64 0 -108.5 44.5t-44.5 109.5t44.5 109.5t108.5 44.5t109 -44.5t45 -109.5t-45 -109.5t-109 -44.5zM266 1165q-66 0 -109.5 44.5t-43.5 109.5t43.5 109.5t109.5 44.5q64 0 109 -44.5t45 -109.5t-45 -109.5t-109 -44.5zM139 0v1024h254v-1024h-254zM553 -516
q-93 0 -160 24l31 197q36 -16 82 -16q81 0 116 43.5t35 138.5v1153h254v-1174q0 -189 -89 -277.5t-269 -88.5z" />
    <glyph glyph-name="Ldot" unicode="&#x13f;" horiz-adv-x="999" 
d="M119 0v1434h252v-1203h581v-231h-833zM834 612q-68 0 -114 45.5t-46 114.5q0 68 46 114t114 46t114.5 -46.5t46.5 -113.5q0 -69 -46.5 -114.5t-114.5 -45.5z" />
    <glyph glyph-name="ldot" unicode="&#x140;" horiz-adv-x="995" 
d="M420 -14q-141 0 -212 64.5t-71 199.5v1286h252v-1274q0 -72 78 -72q35 0 55 13l29 -193q-53 -24 -131 -24zM770 434q-68 0 -114 46.5t-46 115.5q0 66 46.5 113t113.5 47t114.5 -47t47.5 -113q0 -69 -47 -115.5t-115 -46.5z" />
    <glyph glyph-name="OE" unicode="&#x152;" horiz-adv-x="1732" 
d="M815 0q-148 0 -269 38t-203.5 104t-138 157.5t-81 196t-25.5 221.5t25.5 221t81 195.5t138 158t203.5 104.5t269 38h825v-232h-573v-344h508v-227h-508v-400h573v-231h-825zM815 229v975q-228 0 -343.5 -129.5t-115.5 -357.5t115.5 -358t343.5 -130z" />
    <glyph glyph-name="oe" unicode="&#x153;" horiz-adv-x="1736" 
d="M547 -25q-117 0 -207.5 43.5t-144.5 119t-81.5 170t-27.5 204.5t27.5 204.5t81.5 170t144.5 119t207.5 43.5q214 0 336 -152q122 152 336 152q92 0 164.5 -26t121.5 -72t81.5 -111.5t46.5 -141.5t14 -166v-65h-633q0 -17 4 -49q33 -236 274 -236q165 0 283 66l63 -187
q-166 -86 -364 -86q-248 0 -385 160q-120 -160 -342 -160zM1020 627h381v16q0 84 -45 141.5t-131 57.5q-171 0 -205 -215zM547 182q104 0 155.5 87.5t51.5 242.5t-51.5 242.5t-155.5 87.5q-105 0 -156 -87.5t-51 -242.5t51 -242.5t156 -87.5z" />
    <glyph glyph-name="Ydieresis" unicode="&#x178;" horiz-adv-x="1230" 
d="M834 1499q-60 0 -102 42.5t-42 105.5t42 106t102 43t101.5 -43t41.5 -106t-41.5 -105.5t-101.5 -42.5zM397 1499q-60 0 -100.5 42.5t-40.5 105.5t40.5 106t100.5 43t102 -43t42 -106t-42 -105.5t-102 -42.5zM481 0v506l-450 928h190q94 0 135 -95l254 -581l303 676h287
l-463 -928v-506h-256z" />
    <glyph glyph-name="uni0192" unicode="&#x192;" horiz-adv-x="952" 
d="M2 -512q-85 0 -158 27l52 196q43 -16 81 -16q81 0 121 43.5t49 138.5l84 856h-211l23 182h199l14 148q41 381 469 381q54 0 120 -12t101 -29l-69 -197q-67 23 -146 23q-92 0 -153 -45.5t-72 -145.5l-12 -123h315l-21 -186h-307l-84 -876q-18 -188 -116.5 -276.5
t-278.5 -88.5z" />
    <glyph glyph-name="gravecomb" unicode="&#x300;" horiz-adv-x="827" 
d="M424 1176l-238 309h191q78 0 115 -66l118 -243h-186z" />
    <glyph glyph-name="acutecomb" unicode="&#x301;" horiz-adv-x="882" 
d="M217 1176l205 309h276l-284 -309h-197z" />
    <glyph glyph-name="circumflexcomb" unicode="&#x302;" horiz-adv-x="1136" 
d="M668 1176l-101 167l-100 -167h-217l215 309h133q46 0 73.5 -16t51.5 -54l164 -239h-219z" />
    <glyph glyph-name="tildecomb" unicode="&#x303;" horiz-adv-x="1120" 
d="M272 1182q-22 22 -22 90q0 77 46.5 131.5t127.5 54.5q45 0 83 -17t60 -37t51 -37t58 -17q25 0 43 21.5t24.5 46.5t6.5 48h110q14 -42 14 -82q0 -92 -52 -155.5t-128 -63.5q-46 0 -83 17t-58 37.5t-48.5 37.5t-55.5 17q-35 0 -51.5 -29t-16.5 -63h-109z" />
    <glyph glyph-name="dieresiscomb" unicode="&#x308;" horiz-adv-x="1110" 
d="M750 1163q-60 0 -102 43.5t-42 106.5q0 62 42 105.5t102 43.5t101.5 -43.5t41.5 -105.5q0 -63 -41.5 -106.5t-101.5 -43.5zM344 1163q-60 0 -101.5 43.5t-41.5 106.5q0 62 41.5 105.5t101.5 43.5t101.5 -43.5t41.5 -105.5q0 -63 -41.5 -106.5t-101.5 -43.5z" />
    <glyph glyph-name="cedillacomb" unicode="&#x327;" horiz-adv-x="937" 
d="M465 -518q-52 0 -99.5 12t-79 29t-56 34.5t-35.5 29.5l-11 12l66 125q3 -4 9 -10.5t26.5 -22.5t43 -28.5t57.5 -23t71 -10.5q57 0 87.5 24t30.5 62t-28 60t-72 22q-33 0 -60 -11t-37 -22l-11 -12l-86 37l153 281l133 -39l-69 -129q12 2 39 2q87 0 150 -48.5t63 -144.5
q0 -105 -77.5 -167t-207.5 -62z" />
    <glyph glyph-name="pi" unicode="&#x3c0;" horiz-adv-x="1525" 
d="M1278 8q-56 -24 -131 -24q-143 0 -214 64.5t-71 199.5v545h-205v-793h-251v793h-222v231h1157v-231h-225v-531q0 -72 76 -72q38 0 57 11z" />
    <glyph glyph-name="endash" unicode="&#x2013;" horiz-adv-x="1517" 
d="M184 430v229h1149v-229h-1149z" />
    <glyph glyph-name="emdash" unicode="&#x2014;" horiz-adv-x="2447" 
d="M336 430v229h1775v-229h-1775z" />
    <glyph glyph-name="quoteleft" unicode="&#x2018;" horiz-adv-x="530" 
d="M266 885q-79 0 -120.5 52.5t-41.5 131.5q0 72 32 139.5t81 116t103.5 82t105.5 47.5l45 -70q-62 -40 -98.5 -100t-36.5 -127q0 -44 23.5 -79t54.5 -52q0 -58 -43 -99.5t-105 -41.5z" />
    <glyph glyph-name="quoteright" unicode="&#x2019;" horiz-adv-x="530" 
d="M104 874l-47 72q62 39 99 100t37 128q0 43 -22.5 79t-53.5 52q0 58 41.5 98.5t105.5 40.5q78 0 120 -52.5t42 -129.5q0 -72 -32 -140t-81.5 -117t-104 -83t-104.5 -48z" />
    <glyph glyph-name="quotesinglbase" unicode="&#x201a;" horiz-adv-x="567" 
d="M141 -346l-45 78q60 43 95.5 110.5t35.5 141.5q0 48 -21.5 86t-51.5 57q0 63 40.5 108.5t102.5 45.5q76 0 117 -58t41 -143q0 -79 -31.5 -153.5t-80 -128.5t-101.5 -91.5t-101 -52.5z" />
    <glyph glyph-name="quotedblleft" unicode="&#x201c;" horiz-adv-x="946" 
d="M672 885q-78 0 -120 53t-42 131q0 72 32 139.5t81.5 116t103.5 82t104 47.5l46 -70q-63 -40 -99.5 -100.5t-36.5 -126.5q0 -44 23.5 -79t54.5 -52q0 -58 -42 -99.5t-105 -41.5zM279 885q-79 0 -121.5 52.5t-42.5 131.5q0 72 32 139.5t81.5 116t103.5 82t104 47.5l47 -70
q-63 -41 -100 -101t-37 -126q0 -44 23.5 -79t54.5 -52q0 -58 -42 -99.5t-103 -41.5z" />
    <glyph glyph-name="quotedblright" unicode="&#x201d;" horiz-adv-x="946" 
d="M510 874l-47 72q62 39 99.5 100t37.5 128q0 43 -23.5 78.5t-54.5 52.5q0 58 43 98.5t105 40.5q78 0 119.5 -52.5t41.5 -129.5q0 -72 -32 -140t-81.5 -117t-103.5 -83t-104 -48zM117 874l-47 72q62 39 98.5 100t36.5 128q0 43 -23 79t-55 52q0 58 41.5 98.5t105.5 40.5
q78 0 120 -52.5t42 -129.5q0 -72 -32 -140t-81 -117t-103 -83t-103 -48z" />
    <glyph glyph-name="quotedblbase" unicode="&#x201e;" horiz-adv-x="997" 
d="M141 -346l-45 78q60 43 95.5 110.5t35.5 141.5q0 48 -21.5 86t-51.5 57q0 63 40.5 108.5t102.5 45.5q76 0 117 -58t41 -143q0 -79 -31.5 -153.5t-80 -128.5t-101.5 -91.5t-101 -52.5zM571 -346l-45 78q60 43 95.5 110.5t35.5 141.5q0 48 -21.5 86t-51.5 57
q0 63 40.5 108.5t102.5 45.5q76 0 117 -58t41 -143q0 -79 -31.5 -153.5t-80 -128.5t-101.5 -91.5t-101 -52.5z" />
    <glyph glyph-name="dagger" unicode="&#x2020;" horiz-adv-x="1093" 
d="M459 0l-53 821h-308v203h305l25 246l21 71h182l22 -71l27 -246h315v-203h-317l-53 -821h-166z" />
    <glyph glyph-name="daggerdbl" unicode="&#x2021;" horiz-adv-x="1093" 
d="M459 0l-21 72l-22 245h-318v199h318v309h-318v199h318l22 246l19 71h166l22 -71l21 -246h329v-199h-327v-309h327v-199h-329l-21 -245l-22 -72h-164z" />
    <glyph glyph-name="bullet" unicode="&#x2022;" horiz-adv-x="999" 
d="M500 360q-106 0 -180 72.5t-74 179.5q0 106 74 180t180 74t180 -74t74 -180q0 -107 -74 -179.5t-180 -72.5z" />
    <glyph glyph-name="ellipsis" unicode="&#x2026;" horiz-adv-x="1513" 
d="M299 -25q-69 0 -116.5 47.5t-47.5 116.5q0 68 47.5 116t116.5 48t116.5 -48t47.5 -116q0 -69 -47.5 -116.5t-116.5 -47.5zM1251 -25q-70 0 -118 47.5t-48 116.5q0 68 48 116t118 48q67 0 115.5 -48.5t48.5 -115.5q0 -69 -48 -116.5t-116 -47.5zM774 -25
q-69 0 -116.5 47.5t-47.5 116.5q0 68 47.5 116t116.5 48t117.5 -48t48.5 -116q0 -69 -48.5 -116.5t-117.5 -47.5z" />
    <glyph glyph-name="guilsinglleft" unicode="&#x2039;" horiz-adv-x="792" 
d="M434 66l-344 409v14l344 410h268l-348 -416l348 -417h-268z" />
    <glyph glyph-name="guilsinglright" unicode="&#x203a;" horiz-adv-x="792" 
d="M90 66l348 417l-348 416h268l344 -410v-14l-344 -409h-268z" />
    <glyph glyph-name="fraction" unicode="&#x2044;" horiz-adv-x="1269" 
d="M12 0l1026 1434h219l-1026 -1434h-219z" />
    <glyph glyph-name="Euro" unicode="&#x20ac;" horiz-adv-x="1144" 
d="M909 12q-81 -37 -209 -37q-231 0 -378.5 136t-196.5 372h-141l41 176h79q-2 18 -2 58q0 37 2 53h-120l41 178h102q49 230 196 363t375 133q162 0 318 -76l-53 -215q-125 55 -242 55q-122 0 -205.5 -67.5t-122.5 -192.5h469l-43 -178h-457q-2 -16 -2 -53q0 -40 2 -58h426
l-40 -176h-357q39 -131 123.5 -201.5t208.5 -70.5q134 0 244 55z" />
    <glyph glyph-name="uni2116" unicode="&#x2116;" horiz-adv-x="2152" 
d="M1749 852q-86 0 -153 31.5t-107 85.5t-60 122.5t-20 147.5t20 147.5t60 122.5t107 85.5t153 31.5t152.5 -31.5t106 -85.5t59.5 -122.5t20 -147.5t-20 -147.5t-59.5 -122.5t-106 -85.5t-152.5 -31.5zM1749 1020q65 0 98 56.5t33 162.5t-33 162.5t-98 56.5
q-131 0 -131 -219t131 -219zM956 76l-598 915l7 -991h-246v1436h139q80 0 121 -64l606 -928l-6 990h246v-1434h-129q-93 0 -140 76zM1462 535v184h572v-184h-572z" />
    <glyph glyph-name="uni2120" unicode="&#x2120;" horiz-adv-x="1261" 
d="M784 1102l-79 227l-72 -364h-119l104 532h113q27 0 35 -29l86 -247l102 276h111q30 0 33 -31l90 -501h-119l-63 366l-95 -258h-94q-24 0 -33 29zM219 963q-96 0 -162 32l29 101q74 -29 141 -29q109 0 109 57q0 25 -18 38.5t-58 21.5l-59 10q-71 13 -107.5 51t-36.5 94
q0 68 61 116t165 48q89 0 149 -24l-24 -101q-75 21 -134 21q-100 0 -100 -53q0 -40 59 -52l62 -12q158 -28 158 -145q0 -75 -59 -124.5t-175 -49.5z" />
    <glyph glyph-name="trademark" unicode="&#x2122;" horiz-adv-x="1261" 
d="M207 965v419l-137 17v96h399v-96l-135 -17v-419h-127zM784 1102l-79 227l-70 -364h-121l104 532h113q27 0 35 -29l88 -249l102 278h109q30 0 33 -31l90 -501h-117l-65 366l-95 -258h-94q-24 0 -33 29z" />
    <glyph glyph-name="uni2150" unicode="&#x2150;" horiz-adv-x="1669" 
d="M201 0l1026 1434h219l-1024 -1434h-221zM608 674h-526v164h172v389l-162 -70v174l176 82q63 29 119 29h49v-604h172v-164zM1348 0h-203q20 169 91.5 322.5t168.5 273.5h-346v166h530l4 -119q-85 -113 -155.5 -285t-89.5 -358z" />
    <glyph glyph-name="uni2151" unicode="&#x2151;" horiz-adv-x="1638" 
d="M229 0l1026 1434h220l-1026 -1434h-220zM608 674h-526v164h172v389l-162 -70v174l176 82q63 29 119 29h49v-604h172v-164zM1303 385q60 0 102 33v37q0 66 -29.5 107.5t-87.5 41.5q-46 0 -75 -30.5t-29 -75.5q0 -48 32 -80.5t87 -32.5zM1251 -16q-64 0 -119.5 18t-82.5 43
l34 150q60 -50 174 -50q137 0 148 158q-61 -47 -148 -47q-121 0 -189.5 68t-68.5 174q0 117 81 193.5t210 76.5q137 0 218 -93t81 -253v-57q0 -105 -26.5 -181t-74 -118.5t-106.5 -62t-131 -19.5z" />
    <glyph glyph-name="onethird" unicode="&#x2153;" horiz-adv-x="1681" 
d="M233 0l1024 1434h220l-1024 -1434h-220zM608 674h-526v164h172v389l-162 -70v174l176 82q63 29 119 29h49v-604h172v-164zM1284 -16q-123 0 -217 43l55 151q70 -28 150 -28q112 0 112 86q0 79 -114 79h-90v150h88q43 0 68.5 20t25.5 56q0 73 -100 73q-58 0 -150 -30
l-41 143q35 17 99 29t118 12q130 0 195 -54t65 -141q0 -53 -29 -103t-67 -71q49 -16 84 -63.5t35 -106.5q0 -110 -71 -177.5t-216 -67.5z" />
    <glyph glyph-name="twothirds" unicode="&#x2154;" horiz-adv-x="1636" 
d="M88 674v145q0 34 11.5 64t24.5 49t42 42.5t44 32.5t50 31l62 39q47 28 69.5 55.5t22.5 63.5q0 38 -33 64t-88 26q-86 0 -168 -45l-45 145q117 54 233 54q130 0 208.5 -60t78.5 -159q0 -139 -168 -248l-59 -35q-80 -49 -80 -82v-18h311v-164h-516zM201 0l1024 1434h219
l-1024 -1434h-219zM1239 -16q-120 0 -217 43l55 151q73 -28 150 -28q61 0 87.5 24.5t26.5 61.5q0 79 -114 79h-90v150h86q45 0 69.5 19.5t24.5 56.5q0 73 -98 73q-56 0 -152 -30l-41 143q37 17 100 29t117 12q130 0 195 -54t65 -141q0 -53 -29 -103t-67 -71q51 -15 86 -62.5
t35 -107.5q0 -110 -72 -177.5t-217 -67.5z" />
    <glyph glyph-name="oneeighth" unicode="&#x215b;" horiz-adv-x="1619" 
d="M238 0l1024 1434h221l-1026 -1434h-219zM608 674h-526v164h172v389l-162 -70v174l176 82q63 29 119 29h49v-604h172v-164zM1270 -16q-125 0 -202 57.5t-77 153.5q0 61 37 109.5t111 70.5q-121 61 -121 182q0 92 71 151.5t187 59.5t187 -52.5t71 -135.5q0 -116 -115 -160
q142 -62 142 -201q0 -108 -79.5 -171.5t-211.5 -63.5zM1294 457l9 -2q57 34 57 90q0 37 -23.5 59.5t-60.5 22.5q-36 0 -60 -21.5t-24 -56.5q0 -33 25.5 -57.5t76.5 -34.5zM1276 129q48 0 79 28t31 72q0 38 -24.5 61.5t-75.5 35.5l-22 6q-49 -10 -74 -39.5t-25 -63.5
q0 -44 31.5 -72t79.5 -28z" />
    <glyph glyph-name="arrowleft" unicode="&#x2190;" horiz-adv-x="1585" 
d="M922 393l-359 6l359 -354h-191q-78 0 -131 53l-395 398v4l395 395q53 53 131 53h191l-361 -354l361 6h499v-207h-499z" />
    <glyph glyph-name="arrowup" unicode="&#x2191;" horiz-adv-x="1263" 
d="M735 401v-401h-207v401l7 338l-355 -299v154q0 81 53 129l398 342h4l395 -342q53 -48 53 -129v-154l-354 301z" />
    <glyph glyph-name="arrowright" unicode="&#x2192;" horiz-adv-x="1585" 
d="M854 45h-190l358 354l-358 -6h-500v207h500l360 -6l-360 354h190q78 0 131 -53l395 -395v-4l-395 -398q-53 -53 -131 -53z" />
    <glyph glyph-name="arrowdown" unicode="&#x2193;" horiz-adv-x="1263" 
d="M635 -25h-4l-398 342q-53 48 -53 129v154l355 -299l-7 338v385h207v-385l-6 -340l354 301v-154q0 -81 -53 -129z" />
    <glyph glyph-name="arrowboth" unicode="&#x2194;" horiz-adv-x="2385" 
d="M731 45q-78 0 -131 53l-395 398v4l395 395q53 53 131 53h191l-361 -354l361 6h542l363 -6l-363 354h193q78 0 131 -53l393 -395v-4l-393 -398q-53 -53 -131 -53h-193l361 354l-361 -6h-542l-359 6l359 -354h-191z" />
    <glyph glyph-name="arrowupdn" unicode="&#x2195;" horiz-adv-x="1263" 
d="M629 -25l-393 240q-54 30 -54 125v111l353 -213l-7 233v98l7 234l-355 -213v108q0 97 53 127l398 240h4l395 -240q53 -28 53 -125v-110l-354 213l6 -234v-98l-6 -233l356 213v-109q0 -98 -55 -127l-397 -240h-4z" />
    <glyph glyph-name="arrowupleft" unicode="&#x2196;" horiz-adv-x="1355" 
d="M1233 172l-156 -172l-684 668v-562l-139 99q-74 54 -74 141v676l2 2h701q94 0 141 -82l78 -123h-557z" />
    <glyph glyph-name="arrowupright" unicode="&#x2197;" horiz-adv-x="1355" 
d="M963 106v562l-684 -668l-156 172l688 647h-557l78 123q47 82 141 82h701l2 -2v-676q0 -87 -74 -141z" />
    <glyph glyph-name="arrowdownright" unicode="&#x2198;" horiz-adv-x="1355" 
d="M1174 0h-705q-94 0 -139 82l-78 123h559l-688 647l156 172l684 -668v568l139 -99q74 -54 74 -141v-682z" />
    <glyph glyph-name="arrowdownleft" unicode="&#x2199;" horiz-adv-x="1355" 
d="M887 0h-705l-2 2v682q0 87 74 141l139 99v-568l684 668l156 -172l-688 -647h559l-78 -123q-45 -82 -139 -82z" />
    <glyph glyph-name="minus" unicode="&#x2212;" horiz-adv-x="1208" 
d="M162 518v232h885v-232h-885z" />
    <glyph glyph-name="infinity" unicode="&#x221e;" horiz-adv-x="1626" 
d="M1171 346q81 0 133 54t52 130q0 78 -52 134.5t-133 56.5q-38 0 -78 -21t-58 -37.5t-44 -44.5l-76 -88l78 -84q28 -28 48.5 -45.5t57.5 -36t72 -18.5zM457 340q89 0 182 104l78 84l-84 88q-29 29 -49.5 46.5t-56.5 35t-70 17.5q-83 0 -134 -55t-51 -130q0 -78 51 -134
t134 -56zM733 352q-145 -145 -295 -145q-157 0 -242 93t-85 230q0 133 84.5 223.5t242.5 90.5q82 0 157 -40t130 -95l88 -86l78 86q136 141 297 141q153 0 240.5 -93.5t87.5 -226.5q0 -136 -87 -226.5t-241 -90.5q-147 0 -291 139l-82 84z" />
    <glyph glyph-name="notequal" unicode="&#x2260;" horiz-adv-x="1208" 
d="M1047 332h-390l-43 -213h-221l43 213h-274v200h315l35 173h-350v200h389l45 219h221l-45 -219h275v-200h-314l-35 -173h349v-200z" />
    <glyph glyph-name="lessequal" unicode="&#x2264;" horiz-adv-x="1226" 
d="M1059 358l-895 316v211l895 313v-217l-604 -199l604 -198v-226zM1059 45l-895 315v205l895 -307v-213z" />
    <glyph glyph-name="greaterequal" unicode="&#x2265;" horiz-adv-x="1226" 
d="M164 358v226l604 198l-604 199v217l895 -313v-211zM164 45v213l895 307v-205z" />
    <glyph glyph-name="uni22A0" unicode="&#x22a0;" horiz-adv-x="1636" 
d="M109 0v1434h1419v-1434h-1419zM338 217h960v997h-960v-997zM995 418l-182 182l-182 -182l-119 119l182 182l-182 182l119 119l182 -182l182 182l119 -119l-182 -182l182 -182z" />
    <glyph glyph-name="house" unicode="&#x2302;" horiz-adv-x="1677" 
d="M193 0v633l645 682l647 -682v-633h-1292z" />
    <glyph glyph-name="uni2460" unicode="&#x2460;" horiz-adv-x="1679" 
d="M840 -25q-201 0 -368.5 97t-264 265t-96.5 370q0 151 57 287.5t154 235t232.5 156.5t285.5 58t285.5 -58t232.5 -156.5t154 -235t57 -287.5q0 -202 -96.5 -370t-264 -265t-368.5 -97zM582 371h526v166h-172v602h-49q-61 0 -119 -27l-176 -82v-176l162 70v-387h-172v-166z
" />
    <glyph glyph-name="uni2461" unicode="&#x2461;" horiz-adv-x="1679" 
d="M840 -25q-201 0 -368.5 97t-264 265t-96.5 370q0 151 57 287.5t154 235t232.5 156.5t285.5 58t285.5 -58t232.5 -156.5t154 -235t57 -287.5q0 -202 -96.5 -370t-264 -265t-368.5 -97zM588 362h516v164h-311v19q0 33 79 82l60 37q168 105 168 245q0 99 -78.5 160
t-208.5 61q-114 0 -233 -55l45 -145q82 45 168 45q56 0 88 -25.5t32 -64.5q0 -36 -22.5 -63.5t-69.5 -55.5l-61 -37q-4 -2 -11 -7q-31 -20 -47 -31t-41.5 -33t-38.5 -41t-23.5 -48t-10.5 -61v-146z" />
    <glyph glyph-name="uni2462" unicode="&#x2462;" horiz-adv-x="1679" 
d="M840 -25q-201 0 -368.5 97t-264 265t-96.5 370q0 151 57 287.5t154 235t232.5 156.5t285.5 58t285.5 -58t232.5 -156.5t154 -235t57 -287.5q0 -202 -96.5 -370t-264 -265t-368.5 -97zM991 733v4h4zM827 322q145 0 216 67.5t71 177.5q0 61 -35.5 109t-83.5 61
q40 24 68.5 73t28.5 101q0 87 -65.5 141t-195.5 54q-54 0 -118 -12t-99 -29l41 -143q92 30 150 30q100 0 100 -73q0 -36 -25.5 -56t-68.5 -20h-88v-150h90q115 0 115 -80q0 -37 -26 -61.5t-87 -24.5q-77 0 -149 29l-56 -151q94 -43 217 -43z" />
    <glyph glyph-name="uni2463" unicode="&#x2463;" horiz-adv-x="1679" 
d="M840 -25q-201 0 -368.5 97t-264 265t-96.5 370q0 151 57 287.5t154 235t232.5 156.5t285.5 58t285.5 -58t232.5 -156.5t154 -235t57 -287.5q0 -202 -96.5 -370t-264 -265t-368.5 -97zM829 346h172v162h89v154h-89v446h-208l-291 -461v-139h327v-162zM670 662l151 253
v-253h-151z" />
    <glyph glyph-name="uni2464" unicode="&#x2464;" horiz-adv-x="1679" 
d="M840 -25q-201 0 -368.5 97t-264 265t-96.5 370q0 151 57 287.5t154 235t232.5 156.5t285.5 58t285.5 -58t232.5 -156.5t154 -235t57 -287.5q0 -202 -96.5 -370t-264 -265t-368.5 -97zM772 311q162 0 250 78.5t88 212.5q0 108 -66.5 165.5t-164.5 57.5q-43 0 -97 -16v115
h295v163h-454v-403l94 -25q34 27 96 27q55 0 86 -27t31 -67q0 -54 -40.5 -84.5t-113.5 -30.5q-70 0 -147 31l-60 -156q71 -41 203 -41z" />
    <glyph glyph-name="uni2465" unicode="&#x2465;" horiz-adv-x="1679" 
d="M840 -25q-201 0 -368.5 97t-264 265t-96.5 370q0 151 57 287.5t154 235t232.5 156.5t285.5 58t285.5 -58t232.5 -156.5t154 -235t57 -287.5q0 -202 -96.5 -370t-264 -265t-368.5 -97zM842 322q121 0 198.5 79.5t77.5 198.5q0 92 -63 159.5t-170 67.5q-100 0 -170 -73
q7 106 51 148t121 44q76 0 145 -31l31 152q-77 37 -172 37q-67 0 -128 -20.5t-115 -63t-86 -119.5t-32 -180v-25q0 -171 87 -272.5t225 -101.5zM834 485q-54 0 -85.5 40t-31.5 91v9q18 31 50 48t67 17q48 0 73 -30t25 -72q0 -44 -27.5 -73.5t-70.5 -29.5z" />
    <glyph glyph-name="uni2466" unicode="&#x2466;" horiz-adv-x="1679" 
d="M840 -25q-201 0 -368.5 97t-264 265t-96.5 370q0 151 57 287.5t154 235t232.5 156.5t285.5 58t285.5 -58t232.5 -156.5t154 -235t57 -287.5q0 -202 -96.5 -370t-264 -265t-368.5 -97zM674 313h200q20 184 91 356.5t155 286.5l-2 119h-530v-166h344q-97 -122 -168 -275
t-90 -321z" />
    <glyph glyph-name="uni2467" unicode="&#x2467;" horiz-adv-x="1679" 
d="M840 -25q-201 0 -368.5 97t-264 265t-96.5 370q0 151 57 287.5t154 235t232.5 156.5t285.5 58t285.5 -58t232.5 -156.5t154 -235t57 -287.5q0 -202 -96.5 -370t-264 -265t-368.5 -97zM831 324q132 0 211.5 63.5t79.5 171.5q0 136 -137 199q111 44 111 157q0 84 -71 138.5
t-187 54.5t-187 -59.5t-71 -151.5q0 -64 30 -107t90 -73q-74 -24 -110.5 -72.5t-36.5 -109.5q0 -96 76.5 -153.5t201.5 -57.5zM862 795l-16 4q-42 9 -65 33t-23 57q0 35 23 56.5t57 21.5q35 0 56 -22.5t21 -59.5q0 -57 -53 -90zM838 469q-48 0 -79.5 28t-31.5 72
q0 34 24 63.5t72 39.5l25 -6q51 -12 75.5 -35t24.5 -62q0 -44 -31 -72t-79 -28z" />
    <glyph glyph-name="uni2468" unicode="&#x2468;" horiz-adv-x="1679" 
d="M840 -25q-201 0 -368.5 97t-264 265t-96.5 370q0 151 57 287.5t154 235t232.5 156.5t285.5 58t285.5 -58t232.5 -156.5t154 -235t57 -287.5q0 -202 -96.5 -370t-264 -265t-368.5 -97zM854 715q-54 0 -86.5 32.5t-32.5 79.5q0 45 29.5 76t75.5 31q59 0 88.5 -41.5
t29.5 -108.5v-36q-42 -33 -104 -33zM803 313q72 0 131 19.5t106.5 62t74 118.5t26.5 181v58q0 160 -81 253t-218 93q-128 0 -209.5 -77t-81.5 -194q0 -106 68.5 -173.5t189.5 -67.5q86 0 147 47v-8q0 -79 -41 -114.5t-106 -35.5q-115 0 -174 49l-35 -149q27 -25 83 -43.5
t120 -18.5z" />
    <glyph glyph-name="uni24C5" unicode="&#x24c5;" horiz-adv-x="1800" 
d="M901 -45q-166 0 -312.5 60t-251.5 163t-165.5 247t-60.5 306q0 163 60.5 307.5t165.5 247.5t251.5 163t312.5 60t312.5 -60t251 -163t165 -247.5t60.5 -307.5q0 -162 -60.5 -306t-165 -247t-251 -163t-312.5 -60zM901 129q126 0 237 46t190.5 125.5t125 191.5t45.5 239
q0 172 -77.5 310.5t-214.5 217t-306 78.5t-306.5 -78.5t-215.5 -217.5t-78 -310q0 -127 46 -239t125.5 -191.5t191 -125.5t237.5 -46zM901 707q57 0 97 16t59 43t27 53.5t8 57.5q0 50 -31.5 87t-110.5 37h-143v-282q47 -12 94 -12zM901 567q-44 0 -94 13v-258h-156v821h289
q86 0 149.5 -22t99 -60t52 -84t16.5 -100q0 -133 -88 -221.5t-268 -88.5z" />
    <glyph glyph-name="uni24EA" unicode="&#x24ea;" horiz-adv-x="1679" 
d="M840 -25q-201 0 -368.5 97t-264 265t-96.5 370q0 151 57 287.5t154 235t232.5 156.5t285.5 58t285.5 -58t232.5 -156.5t154 -235t57 -287.5q0 -202 -96.5 -370t-264 -265t-368.5 -97zM840 322q76 0 135.5 32t94.5 88t53 125.5t18 149.5q0 78 -18 145t-53 121.5
t-94.5 85.5t-135.5 31q-99 0 -167.5 -55t-98 -139t-29.5 -189q0 -80 17.5 -149.5t52 -125.5t92.5 -88t133 -32zM840 485q-51 0 -82 59.5t-31 172.5q0 108 30.5 162.5t82.5 54.5q54 0 85 -54t31 -163q0 -115 -31 -173.5t-85 -58.5z" />
    <glyph glyph-name="uni25A0" unicode="&#x25a0;" horiz-adv-x="1636" 
d="M109 0v1434h1419v-1434h-1419z" />
    <glyph glyph-name="uni25A1" unicode="&#x25a1;" horiz-adv-x="1636" 
d="M109 0v1434h1419v-1434h-1419zM338 217h960v997h-960v-997z" />
    <glyph glyph-name="uni25AA" unicode="&#x25aa;" horiz-adv-x="1230" 
d="M109 0v1024h1013v-1024h-1013z" />
    <glyph glyph-name="uni25AB" unicode="&#x25ab;" horiz-adv-x="1230" 
d="M109 0v1024h1013v-1024h-1013zM315 197h600v630h-600v-630z" />
    <glyph glyph-name="triagup" unicode="&#x25b2;" horiz-adv-x="1331" 
d="M164 0l491 1044h21l491 -1044h-1003z" />
    <glyph glyph-name="triagrt" unicode="&#x25ba;" horiz-adv-x="1263" 
d="M221 -20v1064h17l845 -512v-20l-845 -532h-17z" />
    <glyph glyph-name="triagdn" unicode="&#x25bc;" horiz-adv-x="1331" 
d="M655 -25l-491 1049h1003l-491 -1049h-21z" />
    <glyph glyph-name="triaglf" unicode="&#x25c4;" horiz-adv-x="1263" 
d="M1026 -20l-846 532v20l846 512h16v-1064h-16z" />
    <glyph glyph-name="uni25CB" unicode="&#x25cb;" horiz-adv-x="1679" 
d="M840 -25q-201 0 -368.5 97t-264 265t-96.5 370q0 151 57 287.5t154 235t232.5 156.5t285.5 58t285.5 -58t232.5 -156.5t154 -235t57 -287.5q0 -202 -96.5 -370t-264 -265t-368.5 -97zM840 201q131 0 239.5 66.5t171 183t62.5 256.5q0 141 -62.5 258.5t-171 184.5
t-239.5 67q-201 0 -338 -147.5t-137 -362.5q0 -140 62.5 -256.5t171.5 -183t241 -66.5z" />
    <glyph glyph-name="uni25CF" unicode="&#x25cf;" horiz-adv-x="1679" 
d="M840 -25q-201 0 -368.5 97t-264 265t-96.5 370q0 151 57 287.5t154 235t232.5 156.5t285.5 58t285.5 -58t232.5 -156.5t154 -235t57 -287.5q0 -202 -96.5 -370t-264 -265t-368.5 -97z" />
    <glyph glyph-name="uni2605" unicode="&#x2605;" horiz-adv-x="1806" 
d="M1323 -12l-420 311l-420 -311l-39 26l174 486l-434 291l15 45l528 -17l152 494h49l151 -494l529 17l14 -45l-434 -291l174 -486z" />
    <glyph glyph-name="uni2612" unicode="&#x2612;" horiz-adv-x="1230" 
d="M109 0v1024h1013v-1024h-1013zM315 197h600v630h-600v-630zM770 262l-154 154l-153 -154l-92 92l153 154l-153 156l92 92l153 -154l154 154l94 -92l-153 -156l153 -154z" />
    <glyph glyph-name="uni263D" unicode="&#x263d;" horiz-adv-x="1540" 
d="M922 -31q-347 0 -538 175.5t-191 496.5q0 145 49.5 268t141 212t230 139.5t308.5 50.5q110 0 224.5 -34.5t194.5 -94.5l27 -19l-27 -47l-28 8q-84 25 -142 25q-120 0 -219.5 -60t-159 -173.5t-59.5 -260.5q0 -221 129 -371.5t312 -150.5q72 0 137 23l30 10l27 -49
l-27 -19q-80 -60 -194.5 -94.5t-224.5 -34.5z" />
    <glyph glyph-name="spade" unicode="&#x2660;" horiz-adv-x="1630" 
d="M602 0v43q72 87 121.5 215t62.5 293h-8q-46 -120 -129 -198.5t-198 -78.5q-120 0 -203.5 87t-83.5 214q0 53 19.5 104.5t45 89t75.5 85t84.5 75t98.5 76.5q17 13 25 19q114 89 185.5 162.5t107.5 163.5h20q36 -90 107.5 -164.5t183.5 -163.5q10 -8 31 -24
q46 -36 69.5 -54.5t64 -52.5t61.5 -57t49 -57t41.5 -63.5t23.5 -65.5t10 -73q0 -127 -83 -214t-203 -87q-115 0 -198.5 78.5t-129.5 198.5h-8q24 -310 188 -508v-43h-430z" />
    <glyph glyph-name="club" unicode="&#x2663;" horiz-adv-x="1622" 
d="M596 0v45q159 202 182 487h-12q-46 -117 -125 -191.5t-190 -74.5q-120 0 -203.5 84t-83.5 207q0 130 78.5 214.5t203.5 84.5q66 0 138 -39l2 4q-62 97 -62 195q0 124 82.5 211.5t204.5 87.5t204.5 -87.5t82.5 -211.5q0 -98 -62 -195l2 -4q72 39 138 39q125 0 203.5 -84.5
t78.5 -214.5q0 -123 -83.5 -207t-203.5 -84q-111 0 -190 74.5t-125 191.5h-12q23 -282 184 -487v-45h-432z" />
    <glyph glyph-name="heart" unicode="&#x2665;" horiz-adv-x="1761" 
d="M879 -20q-170 126 -298 245.5t-204 215t-123 188t-63.5 162t-16.5 139.5q0 144 92 235.5t248 91.5q79 0 140.5 -19.5t103 -56.5t68.5 -78t48 -95h13q21 54 48 95t68.5 78t103 56.5t140.5 19.5q156 0 248 -91.5t92 -235.5q0 -71 -17 -142t-64 -163t-123.5 -188
t-203.5 -214t-296 -243h-4z" />
    <glyph glyph-name="diamond" unicode="&#x2666;" horiz-adv-x="1511" 
d="M729 -14l-6 10q-100 167 -247.5 333.5t-311.5 299.5v57q163 130 310.5 297t248.5 334l6 10h53l6 -10q101 -167 249 -333.5t311 -297.5v-57q-165 -133 -312.5 -299.5t-247.5 -333.5l-6 -10h-53z" />
    <glyph glyph-name="uni2672" unicode="&#x2672;" horiz-adv-x="1792" 
d="M1260 885l-283 51l67 39l-118 205q-22 38 -59.5 61.5t-64.5 28.5l-26 4h318q56 0 88.5 -13t60.5 -63l47 -80l70 39zM688 836l-246 141l111 194q19 33 55 52q75 38 158.5 15t112.5 -73zM1382 389l-190 330l244 141l112 -192q17 -30 17 -72q1 -79 -62.5 -143t-120.5 -64z
M416 197l-156 274q-18 33 -25.5 52.5t-5 51t22.5 66.5l47 80l-70 39l285 51l98 -272l-67 39q-115 -197 -119 -205q-22 -36 -23.5 -80t7.5 -70l10 -26h-4zM1137 -16l-187 223l187 221v-80h237q27 0 53 8.5t43.5 21t31.5 25t21 21.5l7 8v-2l-156 -274q-35 -51 -51 -65
q-35 -28 -94 -28h-92v-79zM625 63q-36 0 -72 23q-36 20 -60.5 56t-34 73.5t-8 73.5t14.5 59h381v-285h-221z" />
    <glyph glyph-name="uni26AA" unicode="&#x26aa;" horiz-adv-x="1277" 
d="M639 -25q-149 0 -272.5 72t-194 195t-70.5 270t70.5 270.5t194 195t272.5 71.5t272.5 -71.5t194 -195t70.5 -270.5t-70.5 -270t-194 -195t-272.5 -72zM639 184q136 0 227.5 95.5t91.5 232.5q0 139 -91.5 234.5t-227.5 95.5q-133 0 -225 -96t-92 -234q0 -137 92 -232.5
t225 -95.5z" />
    <glyph glyph-name="uni26AB" unicode="&#x26ab;" horiz-adv-x="1277" 
d="M639 -25q-149 0 -272.5 72t-194 195t-70.5 270t70.5 270.5t194 195t272.5 71.5t272.5 -71.5t194 -195t70.5 -270.5t-70.5 -270t-194 -195t-272.5 -72z" />
    <glyph glyph-name="uni29EB" unicode="&#x29eb;" horiz-adv-x="1148" 
d="M561 -25l-428 662l430 666h25l428 -670l-428 -658h-27z" />
    <glyph glyph-name="onefifth" horiz-adv-x="1671" 
d="M225 0l1024 1434h219l-1024 -1434h-219zM608 674h-526v164h172v389l-162 -70v174l176 82q63 29 119 29h49v-604h172v-164zM1260 -16q-130 0 -201 41l57 155q75 -30 148 -30q74 0 114.5 30.5t40.5 85.5q0 40 -31.5 67t-87.5 27q-53 0 -96 -26l-94 22v406h457v-166h-297
v-115q49 17 96 17q99 0 165 -58t66 -166q0 -133 -87 -211.5t-250 -78.5z" />
    <glyph glyph-name="onesixth" horiz-adv-x="1550" 
d="M186 0l1024 1434h220l-1024 -1434h-220zM608 674h-526v164h172v389l-162 -70v174l176 82q63 29 119 29h49v-604h172v-164zM1499 264q0 -120 -76.5 -200t-199.5 -80q-137 0 -223.5 101.5t-86.5 272.5v27q0 102 32 179t85.5 120t114 63.5t127.5 20.5q108 0 172 -39
l-31 -151q-58 32 -145 32q-77 -2 -120.5 -45t-49.5 -147q67 74 170 74q107 0 169 -68t62 -160zM1217 150q42 0 70 29.5t28 72.5q0 42 -25 72t-73 30q-37 0 -69.5 -20t-49.5 -55q9 -57 41 -93t78 -36z" />
    <glyph glyph-name="twofifths" horiz-adv-x="1615" 
d="M88 674v145q0 34 11.5 64t24.5 49t42 42.5t44 32.5t50 31l62 39q47 28 69.5 55.5t22.5 63.5q0 38 -33 64t-88 26q-86 0 -168 -45l-45 145q117 54 233 54q130 0 208.5 -60t78.5 -159q0 -139 -168 -248l-59 -35q-80 -49 -80 -82v-18h311v-164h-516zM190 0l1027 1434h219
l-1026 -1434h-220zM1204 -16q-129 0 -200 41l57 155q75 -30 147 -30q74 0 115 30.5t41 85.5q0 40 -31.5 67t-87.5 27q-53 0 -96 -26l-94 22v406h456v-166h-297v-115q49 17 97 17q99 0 165 -58t66 -166q0 -133 -87.5 -211.5t-250.5 -78.5z" />
    <glyph glyph-name="threefifths" horiz-adv-x="1562" 
d="M123 0l1026 1434h219l-1024 -1434h-221zM291 657q-126 0 -219 41l55 154q68 -29 149 -29q61 0 88 24.5t27 59.5q0 40 -29.5 61t-85.5 21h-90v150h86q45 0 70 19t25 54q0 76 -99 76q-58 0 -151 -33l-41 146q38 16 101.5 27.5t117.5 11.5q129 0 193.5 -53t64.5 -140
q0 -53 -28.5 -103t-65.5 -73q49 -14 84 -61t35 -107q0 -110 -71 -178t-216 -68zM1149 -16q-130 0 -201 41l60 155q71 -30 145 -30q75 0 115.5 30t40.5 86q0 40 -31.5 67t-87.5 27q-53 0 -96 -26l-95 22v406h457v-166h-295v-115q46 17 96 17q97 0 163.5 -58t66.5 -166
q0 -133 -87.5 -211.5t-250.5 -78.5z" />
    <glyph glyph-name="fourfifths" horiz-adv-x="1599" 
d="M182 0l1024 1434h219l-1024 -1434h-219zM385 981v295l-174 -295h174zM639 836h-84v-162h-170v162h-332v137l291 461h211v-453h84v-145zM1188 -16q-133 0 -201 41l57 155q75 -30 148 -30q74 0 115 30.5t41 85.5q0 40 -32 67t-87 27q-59 0 -96 -26l-95 22v406h455v-166
h-295v-115q46 17 96 17q98 0 165 -58t67 -166q0 -133 -87.5 -211.5t-250.5 -78.5z" />
    <glyph glyph-name="zero.sups" 
d="M342 854q-60 0 -110 21.5t-84 58t-57.5 87t-34.5 108t-11 120.5q0 106 30 190t99 138.5t168 54.5q100 0 169.5 -54.5t99.5 -138.5t30 -190q0 -80 -18 -149.5t-53 -125.5t-93.5 -88t-134.5 -32zM342 1020q53 0 85 58t32 171q0 108 -32 163.5t-85 55.5t-83 -55t-30 -164
q0 -114 30 -171.5t83 -57.5z" />
    <glyph glyph-name="one.sups" 
d="M608 870h-526v166h172v387l-162 -69v176l176 82q63 26 119 26h49v-602h172v-166z" />
    <glyph glyph-name="two.sups" 
d="M88 870v148q0 32 10.5 60.5t22 46.5t38 40.5t40.5 32t47 30.5q9 6 14 9l62 37q47 30 69.5 57t22.5 62q0 39 -32.5 64.5t-88.5 25.5q-86 0 -168 -45l-45 145q119 55 233 55q130 0 208.5 -60t78.5 -159q0 -143 -168 -248l-59 -36q-80 -49 -80 -80v-19h311v-166h-516z" />
    <glyph glyph-name="three.sups" horiz-adv-x="669" 
d="M291 854q-122 0 -219 43l55 152q76 -29 149 -29q61 0 88 24.5t27 61.5q0 38 -30 59t-85 21h-90v149h86q45 0 70 20t25 56q0 74 -99 74q-52 0 -151 -31l-41 143q37 17 100.5 29t118.5 12q129 0 193.5 -53.5t64.5 -140.5q0 -53 -28.5 -103t-65.5 -71q49 -16 84 -63.5
t35 -106.5q0 -110 -71 -178t-216 -68z" />
    <glyph glyph-name="four.sups" 
d="M385 1180v293l-174 -293h174zM639 1032h-84v-162h-170v162h-332v139l291 461h211v-452h84v-148z" />
    <glyph glyph-name="five.sups" 
d="M274 854q-129 0 -200 41l59 156q73 -31 146 -31q75 0 115 30.5t40 86.5q0 40 -31.5 67t-87.5 27q-52 0 -96 -27l-94 23v405h457v-166h-295v-114q43 16 96 16q97 0 163 -57.5t66 -165.5q0 -133 -87.5 -212t-250.5 -79z" />
    <glyph glyph-name="six.sups" 
d="M637 1135q0 -120 -77.5 -200.5t-199.5 -80.5q-137 0 -223 102t-86 273v26q0 102 32 179t85.5 120t114 63.5t127.5 20.5q102 0 172 -39l-31 -151q-60 33 -145 33q-77 -2 -120.5 -45.5t-49.5 -147.5q67 74 167 74q107 0 170.5 -67.5t63.5 -159.5zM354 1020q42 0 70.5 29.5
t28.5 72.5q0 42 -26 72.5t-73 30.5q-37 0 -69 -20.5t-49 -55.5q8 -57 39 -93t79 -36z" />
    <glyph glyph-name="seven.sups" 
d="M365 870h-201q19 168 90 321t168 275h-344v166h530l2 -119q-84 -114 -154.5 -286t-90.5 -357z" />
    <glyph glyph-name="eight.sups" 
d="M338 854q-126 0 -202.5 57.5t-76.5 153.5q0 61 37 109.5t111 70.5q-121 59 -121 182q0 92 71 151.5t187 59.5q115 0 186.5 -53t71.5 -135q0 -116 -115 -160q142 -62 142 -200q0 -108 -80 -172t-211 -64zM362 1327l9 -2q57 34 57 90q0 37 -23.5 59.5t-60.5 22.5
q-36 0 -61 -22t-25 -56q0 -33 26.5 -57.5t77.5 -34.5zM344 999q48 0 79.5 28.5t31.5 72.5q0 38 -24.5 61t-76.5 35l-22 6q-49 -10 -74 -39t-25 -63q0 -44 31.5 -72.5t79.5 -28.5z" />
    <glyph glyph-name="nine.sups" 
d="M352 1255q61 0 103 33v37q0 67 -30 108.5t-87 41.5q-47 0 -77 -31t-30 -76q0 -48 33 -80.5t88 -32.5zM301 854q-64 0 -120.5 18t-82.5 43l33 150q63 -49 174 -49q139 0 150 158q-62 -48 -148 -48q-121 0 -189.5 68t-68.5 174q0 117 81 193.5t210 76.5q137 0 218 -93
t81 -253v-57q0 -105 -26.5 -181t-74 -118.5t-106.5 -62t-131 -19.5z" />
    <glyph glyph-name="a.sups" horiz-adv-x="788" 
d="M393 999q70 0 115 45v7q-3 71 -41 115t-96 44q-44 0 -75.5 -28t-31.5 -74q0 -47 36 -78t93 -31zM535 870l-17 82q-26 -42 -80 -71t-127 -29q-112 0 -181 69.5t-69 170.5q0 114 75.5 180.5t191.5 66.5q128 0 182 -86v29q0 83 -37 129.5t-129 46.5q-95 0 -188 -55l-41 170
q100 53 254 53q329 0 329 -309v-447h-163z" />
    <glyph glyph-name="b.sups" horiz-adv-x="851" 
d="M401 852q-179 0 -303 72v1052h199v-438q72 88 195 88q135 0 213.5 -97t78.5 -267q0 -204 -100 -307t-283 -103zM416 1020q85 0 124.5 63t39.5 168q0 95 -33.5 150t-100.5 55q-61 0 -101 -54t-40 -157v-201q40 -24 111 -24z" />
    <glyph glyph-name="c.sups" horiz-adv-x="690" 
d="M446 852q-180 0 -280 107t-100 280t100 280t280 107q112 0 185 -37l-39 -168q-75 27 -135 27q-85 0 -135 -55.5t-50 -153.5t50 -153.5t135 -55.5q68 0 135 29l39 -168q-76 -39 -185 -39z" />
    <glyph glyph-name="d.sups" horiz-adv-x="851" 
d="M418 1022q52 0 90.5 36t38.5 103v228q-16 26 -50 46.5t-77 20.5q-69 0 -108.5 -60t-39.5 -157q0 -98 36 -157.5t110 -59.5zM559 965q-31 -50 -88 -81.5t-121 -31.5q-131 0 -207.5 99t-76.5 284q0 178 85.5 284.5t231.5 106.5q106 0 172 -63v413h199v-1106h-179z" />
    <glyph glyph-name="e.sups" horiz-adv-x="792" 
d="M410 1464q-108 0 -129 -145h249q-2 62 -31 103.5t-89 41.5zM717 913q-125 -61 -268 -61q-127 0 -215.5 54t-128 139.5t-39.5 193.5q0 79 20.5 147.5t60.5 122.5t106.5 85.5t152.5 31.5q164 0 239.5 -103t75.5 -278v-49h-445q6 -91 50 -134.5t139 -43.5q112 0 201 47z" />
    <glyph glyph-name="f.sups" horiz-adv-x="608" 
d="M164 870v580l-127 25v133h127v137q0 127 73 188.5t228 61.5q77 0 133 -23l-25 -164q-50 15 -90 15q-112 0 -112 -99v-116h196v-138l-196 -28v-572h-207z" />
    <glyph glyph-name="g.sups" horiz-adv-x="819" 
d="M362 487q-149 -2 -238 54t-89 161q0 68 43 120.5t121 78.5q-45 31 -45 82q0 93 139 137q-101 11 -166.5 75t-65.5 163q0 114 89.5 191t232.5 77q79 0 152 -27l221 46l30 -132l-55 -12l-69 -4q43 -61 43 -139q0 -114 -73 -179.5t-202 -97.5l-31 -6q-37 -10 -37 -37
q0 -24 37 -30l107 -17q127 -22 188.5 -74.5t61.5 -140.5q0 -93 -58 -160.5t-145.5 -98t-190.5 -30.5zM385 1225q58 0 90.5 33.5t32.5 89.5q0 53 -33.5 89t-93.5 36q-57 0 -91 -34t-34 -91q0 -54 34.5 -88.5t94.5 -34.5zM393 647q64 0 109 27.5t45 81.5q0 34 -28.5 57.5
t-84.5 30.5l-117 14l-14 2q-76 -34 -76 -104q0 -53 46.5 -81t119.5 -28z" />
    <glyph glyph-name="h.sups" horiz-adv-x="849" 
d="M305 1317v-447h-207v1106h199v-448q33 44 86.5 71t116.5 27q132 0 196 -75t64 -205v-476h-209v447q0 70 -33.5 104.5t-87.5 34.5q-51 0 -88 -34.5t-37 -104.5z" />
    <glyph glyph-name="i.sups" horiz-adv-x="417" 
d="M209 1696q-56 0 -93.5 37t-37.5 94q0 55 38 93t93 38t93 -38t38 -93q0 -57 -37.5 -94t-93.5 -37zM104 870v738h209v-738h-209z" />
    <glyph glyph-name="j.sups" horiz-adv-x="415" 
d="M209 1696q-57 0 -95 37t-38 94q0 56 38 93.5t95 37.5q55 0 93 -38t38 -93q0 -57 -37.5 -94t-93.5 -37zM41 498q-62 0 -121 18l23 160q3 -1 14 -3.5t22.5 -4.5t22.5 -2q56 0 79 29t23 91v822h207v-838q0 -139 -66 -205.5t-204 -66.5z" />
    <glyph glyph-name="k.sups" horiz-adv-x="813" 
d="M270 915q-29 -45 -88 -45h-84v1106h197v-764l285 426h206l-243 -342l262 -426h-213l-164 265z" />
    <glyph glyph-name="l.sups" horiz-adv-x="448" 
d="M326 858q-113 0 -167.5 50.5t-54.5 156.5v911h205v-899q0 -49 56 -49q28 0 36 6l23 -157q-51 -19 -98 -19z" />
    <glyph glyph-name="m.sups" horiz-adv-x="1298" 
d="M305 1317v-447h-207v738h117q21 0 31 -7t16 -26l14 -53q35 46 93.5 75t126.5 29q165 0 227 -117q33 53 93.5 85t131.5 32q132 0 196 -75t64 -205v-476h-207v447q0 70 -32.5 104.5t-85.5 34.5q-51 0 -87 -34.5t-36 -104.5v-447h-209v447q0 70 -33.5 104.5t-87.5 34.5
q-51 0 -88 -34.5t-37 -104.5z" />
    <glyph glyph-name="n.sups" horiz-adv-x="849" 
d="M305 1317v-447h-207v738h117q21 0 31 -7t16 -26l14 -53q35 46 93.5 75t126.5 29q134 0 199 -75.5t65 -204.5v-476h-209v447q0 70 -33.5 104.5t-87.5 34.5q-51 0 -88 -34.5t-37 -104.5z" />
    <glyph glyph-name="o.sups" horiz-adv-x="811" 
d="M406 852q-86 0 -153 31.5t-107 85.5t-60 122.5t-20 147.5t20 147.5t60 122.5t107 85.5t153 31.5t152.5 -31t106 -86t59 -123t19.5 -147t-19.5 -147t-59 -123t-106 -86t-152.5 -31zM406 1020q65 0 98 56.5t33 162.5t-33 162.5t-98 56.5q-132 0 -132 -219t132 -219z" />
    <glyph glyph-name="p.sups" horiz-adv-x="851" 
d="M422 1020q81 0 119.5 62.5t38.5 168.5q0 93 -34 149t-100 56q-61 0 -101 -54t-40 -157v-188q2 -1 15.5 -8t26 -13t34 -11t41.5 -5zM305 899v-397h-207v1106h115q22 0 32.5 -7t14.5 -26l16 -66q33 55 89.5 86t126.5 31q135 0 213.5 -97.5t78.5 -268.5q0 -193 -83.5 -300.5
t-233.5 -107.5q-97 0 -162 47z" />
    <glyph glyph-name="q.sups" horiz-adv-x="851" 
d="M754 502h-207v436q-27 -36 -82 -61t-115 -25q-131 0 -207.5 99t-76.5 284q0 178 85.5 284.5t231.5 106.5q114 0 184 -74l21 56h166v-1106zM418 1022q52 0 90.5 36t38.5 103v228q-16 26 -50 46.5t-77 20.5q-69 0 -108.5 -60t-39.5 -157q0 -98 36 -157.5t110 -59.5z" />
    <glyph glyph-name="r.sups" horiz-adv-x="571" 
d="M305 1266v-396h-207v738h117q21 0 31 -7t16 -26l19 -72q27 56 79.5 89.5t120.5 33.5q39 0 66 -12l-45 -197q-30 15 -68 15q-56 0 -92.5 -41t-36.5 -125z" />
    <glyph glyph-name="s.sups" horiz-adv-x="729" 
d="M330 852q-132 0 -262 57l51 160q123 -49 211 -49q123 0 123 67q0 58 -91 70q-148 19 -216 74t-68 151q0 41 18 82.5t53 78.5t97 60t141 23q143 0 242 -43l-43 -162q-6 2 -27.5 8t-30 8.5t-28 7.5t-32.5 7t-31 4t-34 2q-122 0 -122 -65q0 -54 94 -66q144 -19 212 -74
t68 -149q0 -107 -82.5 -179.5t-242.5 -72.5z" />
    <glyph glyph-name="t.sups" horiz-adv-x="610" 
d="M428 852q-138 0 -204 65.5t-66 204.5v324l-127 29v133h127v213h209v-213h192v-146l-192 -24v-299q0 -62 22.5 -91.5t77.5 -29.5q30 0 63 14l25 -160q-50 -20 -127 -20z" />
    <glyph glyph-name="u.sups" horiz-adv-x="849" 
d="M592 870l-14 105q-32 -54 -93.5 -88.5t-136.5 -34.5q-127 0 -189.5 76t-62.5 205v475h207v-447q0 -71 33.5 -105t89.5 -34q51 0 87 34t36 103v449h209v-738h-166z" />
    <glyph glyph-name="v.sups" horiz-adv-x="796" 
d="M485 858h-110q-36 0 -54 13t-30 47l-260 690h219l147 -482l150 482h217z" />
    <glyph glyph-name="w.sups" horiz-adv-x="1052" 
d="M639 924l-107 452l-124 -518h-111q-38 0 -56.5 13.5t-27.5 50.5l-182 686h207l88 -469l114 469h146q21 0 30.5 -8t14.5 -27l104 -424l96 459h189l-186 -750h-111q-39 0 -57 14t-27 52z" />
    <glyph glyph-name="x.sups" horiz-adv-x="808" 
d="M516 909l-108 185l-138 -224h-231l254 375l-240 363h183q48 0 65 -33l105 -172l122 205h228l-236 -359l252 -379h-180q-53 0 -76 39z" />
    <glyph glyph-name="y.sups" horiz-adv-x="849" 
d="M406 494q-76 0 -147.5 21.5t-113.5 55.5l41 160q88 -63 203 -63q98 0 137 49.5t39 138.5v102q-35 -48 -92 -77t-125 -29q-127 0 -189.5 76t-62.5 205v475h207v-447q0 -70 33.5 -104.5t89.5 -34.5q51 0 87 34.5t36 104.5v447h209v-768q0 -162 -84 -254t-268 -92z" />
    <glyph glyph-name="z.sups" horiz-adv-x="708" 
d="M651 870h-592v52q0 56 10 85.5t40 67.5l268 355l-287 -5v183h543v-56q0 -52 -9 -82.5t-34 -64.5l-275 -356l336 4v-183z" />
    <glyph glyph-name="period.sups" horiz-adv-x="425" 
d="M213 852q-57 0 -95 37.5t-38 93.5t38 93.5t95 37.5q55 0 93 -38t38 -93t-38 -93t-93 -38z" />
    <glyph glyph-name="comma.sups" horiz-adv-x="417" 
d="M78 659l-37 58q48 31 77 79.5t29 100.5q0 36 -18.5 64t-42.5 40q0 47 34.5 80t86.5 33q63 0 97 -42t34 -103q0 -58 -26 -112.5t-66.5 -93t-84 -66t-83.5 -38.5z" />
    <glyph glyph-name="hyphen.sups" horiz-adv-x="929" 
d="M135 1153v186h660v-186h-660z" />
    <glyph glyph-name="parenleft.sups" horiz-adv-x="569" 
d="M389 616q-44 46 -87 115.5t-83 162t-65 213t-25 245.5q0 181 47.5 338.5t120.5 277.5h195q-160 -286 -160 -616q0 -227 72 -421.5t169 -314.5h-184z" />
    <glyph glyph-name="parenright.sups" horiz-adv-x="569" 
d="M-6 616q98 121 171 315.5t73 420.5q0 326 -160 616h192q168 -279 168 -616q0 -164 -43.5 -319.5t-99.5 -254.5t-117 -162h-184z" />
    <glyph glyph-name="plus.sups" horiz-adv-x="929" 
d="M795 1231h-236v-236h-188v236h-236v188h236v236h188v-236h236v-188z" />
    <glyph glyph-name="minus.sups" horiz-adv-x="929" 
d="M135 1231v188h660v-188h-660z" />
    <glyph glyph-name="multiply.sups" horiz-adv-x="929" 
d="M633 1026l-168 166l-166 -168l-133 135l166 166l-166 168l133 131l166 -166l168 168l131 -133l-166 -168l166 -166z" />
    <glyph glyph-name="equal.sups" horiz-adv-x="929" 
d="M135 1366v178h660v-178h-660zM135 1079v176h660v-176h-660z" />
    <glyph glyph-name="divide.sups" horiz-adv-x="929" 
d="M465 1487q-53 0 -87 34.5t-34 86.5q0 51 34.5 86t86.5 35q51 0 87 -35t36 -86q0 -52 -35.5 -86.5t-87.5 -34.5zM135 1239v172h660v-172h-660zM465 920q-51 0 -86 34t-35 86t34.5 87.5t86.5 35.5q51 0 87 -36t36 -87q0 -52 -36 -86t-87 -34z" />
    <glyph glyph-name="dollar.sups" horiz-adv-x="663" 
d="M393 743h-119v111q-118 3 -206 51l53 148q80 -41 166 -41q145 0 145 80q0 35 -25 53t-81 31l-74 18q-195 51 -195 205q0 83 56.5 144.5t156.5 84.5v101h119v-91q104 -2 186 -36l-40 -148q-101 29 -156 29q-72 0 -109 -20t-37 -54q0 -57 97 -76l63 -14q217 -47 217 -209
q0 -88 -54.5 -155t-162.5 -91v-121z" />
    <glyph glyph-name="cent.sups" horiz-adv-x="565" 
d="M471 987q-41 -20 -100 -26v-107h-129v117q-95 25 -146 97t-51 177q0 107 51 179.5t146 97.5v116h129v-106q47 -2 102 -25l-35 -147q-43 16 -90 16q-55 0 -89 -32.5t-34 -98.5q0 -64 34.5 -96.5t88.5 -32.5q47 0 90 19z" />
    <glyph glyph-name="sterling.sups" horiz-adv-x="679" 
d="M623 1036v-166h-562v166h50q147 0 147 94v15h-186v92h110l-10 8q-49 44 -74.5 86t-25.5 96q0 94 81.5 152.5t211.5 58.5q115 0 231 -55l-45 -145q-79 45 -174 45q-59 0 -92 -25.5t-33 -64.5q0 -40 41 -76l65 -60q3 -4 19 -20h168v-92h-137v-2q0 -66 -58 -107h273z" />
    <glyph glyph-name="florin.sups" horiz-adv-x="552" 
d="M33 598q-58 0 -96 14l32 140q36 -9 43 -9q38 0 55.5 19.5t20.5 58.5l37 408h-100l14 129h94l6 69q21 211 264 211q29 0 71.5 -9t62.5 -19l-50 -140q-34 17 -75 17q-38 0 -64.5 -19.5t-30.5 -60.5l-6 -49h156l-14 -131h-148l-37 -422q-9 -106 -65 -156.5t-170 -50.5z" />
    <glyph glyph-name="yen.sups" horiz-adv-x="796" 
d="M625 973h-136v-103h-178v103h-139v86h139v49h-139v88h139v37l-280 375h198l170 -250l185 250h180l-275 -375v-37h136v-88h-136v-49h136v-86z" />
    <glyph glyph-name="Euro.sups" horiz-adv-x="655" 
d="M469 1268h-463l21 98h57q27 126 110.5 199t211.5 73q91 0 167 -39l-34 -155q-52 24 -115 24q-108 0 -148 -102h216zM508 872q-40 -18 -102 -18q-123 0 -205.5 69.5t-110.5 190.5h-84l21 100h430l-23 -100h-147q43 -88 141 -88q60 0 115 25z" />
    <glyph glyph-name="zero.subs" 
d="M342 -303q-60 0 -110 21.5t-84 58t-57.5 87t-34.5 108t-11 120.5q0 61 11 117t34.5 104.5t57.5 84.5t84 56.5t110 20.5q100 0 169.5 -55t99.5 -139t30 -189q0 -80 -18 -149.5t-53 -125.5t-93.5 -88t-134.5 -32zM342 -137q53 0 85 57.5t32 171.5q0 108 -32 162.5t-85 54.5
t-83 -54t-30 -163q0 -114 30 -171.5t83 -57.5z" />
    <glyph glyph-name="one.subs" 
d="M608 -287h-526v164h172v389l-162 -69v174l176 82q61 28 119 28h49v-604h172v-164z" />
    <glyph glyph-name="two.subs" 
d="M88 -287v146q0 34 11.5 64t24.5 49t42 42.5t44 32.5t50 31l62 39q47 28 69.5 55.5t22.5 63.5q0 38 -33 64t-88 26q-86 0 -168 -45l-45 145q115 53 233 53q130 0 208.5 -60t78.5 -159q0 -139 -168 -248l-59 -35q-80 -49 -80 -81v-19h311v-164h-516z" />
    <glyph glyph-name="three.subs" 
d="M291 -303q-126 0 -219 41l55 153q66 -28 149 -28q61 0 88 24.5t27 59.5q0 40 -29.5 61t-85.5 21h-90v149h86q44 0 69.5 19.5t25.5 54.5q0 76 -99 76q-58 0 -151 -33l-41 145q38 16 101.5 27.5t117.5 11.5q129 0 193.5 -52.5t64.5 -139.5q0 -53 -28.5 -103t-65.5 -73
q49 -14 84 -61t35 -107q0 -110 -71 -178t-216 -68z" />
    <glyph glyph-name="four.subs" 
d="M385 20v295l-174 -295h174zM639 -125h-84v-162h-170v162h-332v137l291 461h211v-453h84v-145z" />
    <glyph glyph-name="five.subs" 
d="M274 -303q-129 0 -200 41l59 156q73 -31 146 -31q75 0 115 30t40 84q0 40 -31.5 67.5t-87.5 27.5q-57 0 -96 -27l-94 25v403h457v-164h-295v-114q54 16 96 16q97 0 163 -57.5t66 -165.5q0 -134 -87 -212.5t-251 -78.5z" />
    <glyph glyph-name="six.subs" 
d="M637 -25q0 -119 -77.5 -198.5t-199.5 -79.5q-137 0 -223 102t-86 273v24q0 83 21.5 149.5t56.5 109.5t82.5 71.5t96.5 40.5t102 12q95 0 172 -37l-31 -151q-64 31 -145 31q-77 -2 -120.5 -44.5t-49.5 -146.5q65 72 167 72q107 0 170.5 -68t63.5 -160zM354 -137
q43 0 71 28.5t28 71.5t-26 74t-73 31q-37 0 -69 -21t-49 -57q8 -56 39 -91.5t79 -35.5z" />
    <glyph glyph-name="seven.subs" 
d="M365 -287h-201q35 310 258 596h-344v164h530l2 -117q-84 -114 -154.5 -286.5t-90.5 -356.5z" />
    <glyph glyph-name="eight.subs" 
d="M338 -303q-126 0 -202.5 57.5t-76.5 153.5q0 61 37 109.5t111 70.5q-121 59 -121 180q0 93 71 152t187 59q115 0 186.5 -52t71.5 -134q0 -116 -115 -160q142 -62 142 -203q0 -107 -80 -170t-211 -63zM362 168l9 -2q57 34 57 92q0 37 -23.5 59.5t-60.5 22.5
q-36 0 -61 -22.5t-25 -55.5q0 -73 104 -94zM344 -158q48 0 79.5 28.5t31.5 72.5q0 37 -24.5 59.5t-76.5 36.5l-22 6q-49 -10 -74 -39.5t-25 -62.5q0 -44 31.5 -72.5t79.5 -28.5z" />
    <glyph glyph-name="nine.subs" 
d="M352 98q58 0 103 31v37q0 66 -29.5 107.5t-87.5 41.5q-47 0 -77 -30t-30 -76t33 -78.5t88 -32.5zM301 -303q-64 0 -120 17.5t-83 41.5l33 152q61 -51 174 -51q66 0 105 36.5t45 122.5q-61 -47 -148 -47q-121 0 -189.5 67.5t-68.5 172.5q0 118 81 194t210 76
q137 0 218 -92.5t81 -251.5v-57q0 -105 -26.5 -181t-74 -118.5t-106.5 -62t-131 -19.5z" />
    <glyph glyph-name="a.subs" horiz-adv-x="788" 
d="M393 -160q71 0 115 47v4q-3 72 -40.5 116t-96.5 44q-44 0 -75.5 -28t-31.5 -74q0 -47 36 -78t93 -31zM535 -289l-17 82q-26 -42 -80 -71t-127 -29q-113 0 -181.5 69t-68.5 170q0 114 75.5 181t191.5 67q127 0 182 -84v27q0 84 -37 130t-129 46t-188 -53l-41 168
q100 53 254 53q329 0 329 -309v-447h-163z" />
    <glyph glyph-name="b.subs" horiz-adv-x="851" 
d="M401 -307q-180 0 -303 71v1053h199v-438q72 88 195 88q135 0 213.5 -97.5t78.5 -267.5q0 -202 -100 -305.5t-283 -103.5zM416 -139q85 0 124.5 63t39.5 170q0 93 -33.5 148t-100.5 55q-61 0 -101 -53t-40 -158v-201q40 -24 111 -24z" />
    <glyph glyph-name="c.subs" horiz-adv-x="690" 
d="M446 -307q-180 0 -280 107t-100 280t100 280t280 107q112 0 185 -37l-39 -168q-66 27 -135 27q-86 0 -135.5 -55t-49.5 -154q0 -98 50 -153.5t135 -55.5q68 0 135 29l39 -168q-76 -39 -185 -39z" />
    <glyph glyph-name="d.subs" horiz-adv-x="851" 
d="M418 -137q52 0 90.5 36t38.5 103v227q-16 26 -50 47t-77 21q-69 0 -108.5 -60t-39.5 -157t36 -157t110 -60zM559 -195q-31 -50 -88 -81t-121 -31q-130 0 -207 99.5t-77 283.5q0 178 85.5 284.5t231.5 106.5q105 0 172 -64v414h199v-1106h-179z" />
    <glyph glyph-name="e.subs" horiz-adv-x="792" 
d="M410 307q-107 0 -129 -145h249q-2 61 -31 103t-89 42zM717 -246q-125 -61 -268 -61q-127 0 -215.5 54t-128 139.5t-39.5 193.5q0 79 20.5 147.5t60.5 122.5t106.5 85.5t152.5 31.5q164 0 239.5 -103t75.5 -278v-49h-445q6 -90 50 -134t139 -44q112 0 201 47z" />
    <glyph glyph-name="f.subs" horiz-adv-x="608" 
d="M164 -289v580l-127 24v134h127v139q0 127 73 188.5t228 61.5q79 0 133 -25l-25 -164q-50 15 -90 15q-112 0 -112 -99v-116h196v-138l-196 -28v-572h-207z" />
    <glyph glyph-name="g.subs" horiz-adv-x="819" 
d="M362 -672q-149 -2 -238 54t-89 161q0 68 43 120.5t121 78.5q-45 31 -45 82q0 93 139 137q-101 11 -166.5 75t-65.5 163q0 114 89.5 191t232.5 77q79 0 152 -27l221 45l30 -131l-55 -12l-69 -2q43 -64 43 -141q0 -208 -275 -277l-31 -6q-37 -8 -37 -37q0 -26 37 -29
l107 -18q128 -22 189 -74t61 -141q0 -93 -58 -160t-145 -97.5t-191 -31.5zM385 68q58 0 90.5 33t32.5 89q0 51 -33.5 87t-93.5 36q-57 0 -91 -33.5t-34 -89.5q0 -55 34.5 -88.5t94.5 -33.5zM393 -510q64 0 109 26.5t45 80.5q0 34 -28.5 58t-84.5 30l-117 14l-14 2
q-76 -34 -76 -102q0 -54 46 -81.5t120 -27.5z" />
    <glyph glyph-name="h.subs" horiz-adv-x="849" 
d="M305 158v-447h-207v1106h199v-448q33 44 86.5 71t116.5 27q132 0 196 -75.5t64 -205.5v-475h-209v447q0 70 -33.5 104.5t-87.5 34.5q-51 0 -88 -34.5t-37 -104.5z" />
    <glyph glyph-name="i.subs" horiz-adv-x="417" 
d="M209 537q-56 0 -93.5 37t-37.5 94q0 56 38 94.5t93 38.5t93 -38.5t38 -94.5q0 -57 -37.5 -94t-93.5 -37zM104 -289v738h209v-738h-209z" />
    <glyph glyph-name="j.subs" horiz-adv-x="415" 
d="M209 537q-57 0 -95 37t-38 94q0 56 38 94.5t95 38.5q55 0 93 -38.5t38 -94.5q0 -57 -37.5 -94t-93.5 -37zM41 -659q-72 0 -121 18l23 160q39 -13 59 -13q56 0 79 30t23 93v820h207v-836q0 -141 -65.5 -206.5t-204.5 -65.5z" />
    <glyph glyph-name="k.subs" horiz-adv-x="833" 
d="M270 -244q-29 -45 -88 -45h-84v1106h197v-764l285 426h206l-243 -342l262 -426h-213l-164 264z" />
    <glyph glyph-name="l.subs" horiz-adv-x="448" 
d="M326 -299q-113 0 -167.5 50.5t-54.5 154.5v911h205v-899q0 -49 56 -49q28 0 36 6l23 -156q-40 -18 -98 -18z" />
    <glyph glyph-name="m.subs" horiz-adv-x="1298" 
d="M305 158v-447h-207v738h117q21 0 31 -7t16 -26l14 -54q35 46 93.5 75.5t126.5 29.5q165 0 227 -117q33 53 93.5 85t131.5 32q132 0 196 -75.5t64 -205.5v-475h-207v447q0 70 -32.5 104.5t-85.5 34.5q-51 0 -87 -34.5t-36 -104.5v-447h-209v447q0 70 -33.5 104.5
t-87.5 34.5q-51 0 -88 -34.5t-37 -104.5z" />
    <glyph glyph-name="n.subs" horiz-adv-x="849" 
d="M305 158v-447h-207v738h117q21 0 31 -7t16 -26l14 -54q35 46 93.5 75.5t126.5 29.5q134 0 199 -75.5t65 -205.5v-475h-209v447q0 70 -33.5 104.5t-87.5 34.5q-51 0 -88 -34.5t-37 -104.5z" />
    <glyph glyph-name="o.subs" horiz-adv-x="811" 
d="M406 -307q-86 0 -153 31.5t-107 85.5t-60 122.5t-20 147.5t20 147.5t60 122.5t107 85.5t153 31.5t152.5 -31t106 -86t59 -123t19.5 -147t-19.5 -147t-59 -123t-106 -86t-152.5 -31zM406 -139q65 0 98 56.5t33 162.5t-33 162.5t-98 56.5q-132 0 -132 -219t132 -219z" />
    <glyph glyph-name="p.subs" horiz-adv-x="851" 
d="M422 -139q81 0 119.5 63t38.5 168q0 93 -34 149t-100 56q-61 0 -101 -53t-40 -158v-188q2 -1 15.5 -8t26 -13t34 -11t41.5 -5zM305 -260v-397h-207v1106h115q22 0 32.5 -7t14.5 -26l16 -66q33 55 89.5 86t126.5 31q135 0 213.5 -98t78.5 -269q0 -193 -83.5 -300
t-233.5 -107q-97 0 -162 47z" />
    <glyph glyph-name="q.subs" horiz-adv-x="851" 
d="M754 -657h-207v436q-27 -36 -82 -61t-115 -25q-130 0 -207 99.5t-77 283.5q0 178 85.5 284.5t231.5 106.5q114 0 184 -74l21 56h166v-1106zM418 -137q52 0 90.5 36t38.5 103v227q-16 26 -50 47t-77 21q-69 0 -108.5 -60t-39.5 -157t36 -157t110 -60z" />
    <glyph glyph-name="r.subs" horiz-adv-x="571" 
d="M305 106v-395h-207v738h117q21 0 31 -7t16 -26l19 -72q27 57 79 90t121 33q39 0 66 -12l-45 -197q-26 16 -68 16q-56 0 -92.5 -42t-36.5 -126z" />
    <glyph glyph-name="s.subs" horiz-adv-x="729" 
d="M330 -305q-137 0 -262 55l51 160q133 -49 211 -49q123 0 123 67q0 58 -91 70q-147 18 -215.5 74t-68.5 151q0 41 18 82.5t53 78.5t97 60t141 23q151 0 242 -43l-43 -162q-113 37 -183 37q-122 0 -122 -66q0 -28 22.5 -42.5t71.5 -20.5q144 -20 212 -75.5t68 -149.5
q0 -107 -82 -178.5t-243 -71.5z" />
    <glyph glyph-name="t.subs" horiz-adv-x="610" 
d="M428 -307q-138 0 -204 66.5t-66 205.5v322l-127 28v134h127v215h209v-215h192v-146l-192 -24v-297q0 -64 22.5 -92.5t77.5 -28.5q35 0 63 12l25 -160q-50 -20 -127 -20z" />
    <glyph glyph-name="u.subs" horiz-adv-x="849" 
d="M592 -289l-14 105q-32 -54 -93.5 -88.5t-136.5 -34.5q-127 0 -189.5 75.5t-62.5 204.5v476h207v-447q0 -70 33.5 -104.5t89.5 -34.5q51 0 87 35t36 102v449h209v-738h-166z" />
    <glyph glyph-name="v.subs" horiz-adv-x="796" 
d="M485 -301h-110q-37 0 -54.5 12.5t-29.5 46.5l-260 691h219l147 -480l150 480h217z" />
    <glyph glyph-name="w.subs" horiz-adv-x="1052" 
d="M639 -236l-107 453l-124 -518h-111q-38 0 -56.5 13.5t-27.5 51.5l-182 685h207l88 -469l114 469h146q21 0 30.5 -8t14.5 -27l104 -424l96 459h189l-186 -750h-111q-39 0 -57 13.5t-27 51.5z" />
    <glyph glyph-name="x.subs" horiz-adv-x="808" 
d="M516 -248l-108 182l-138 -223h-231l254 375l-240 363h183q48 0 65 -33l105 -170l122 203h228l-236 -359l252 -379h-180q-52 0 -76 41z" />
    <glyph glyph-name="y.subs" horiz-adv-x="849" 
d="M406 -666q-75 0 -147 22t-114 56l41 160q90 -64 203 -64q98 0 137 50t39 139v102q-36 -47 -93 -76.5t-124 -29.5q-127 0 -189.5 75.5t-62.5 204.5v476h207v-445q0 -72 33.5 -106.5t89.5 -34.5q51 0 87 35t36 104v447h209v-768q0 -162 -84 -254.5t-268 -92.5z" />
    <glyph glyph-name="z.subs" horiz-adv-x="708" 
d="M651 -289h-592v51q0 56 10 87.5t40 68.5l268 352l-287 -4v183h543v-56q0 -52 -9 -82.5t-34 -64.5l-275 -355l336 3v-183z" />
    <glyph glyph-name="period.subs" horiz-adv-x="425" 
d="M213 -307q-57 0 -95 38t-38 95q0 54 38 92.5t95 38.5q55 0 93 -38.5t38 -92.5q0 -57 -37.5 -95t-93.5 -38z" />
    <glyph glyph-name="comma.subs" horiz-adv-x="417" 
d="M78 -500l-37 60q48 31 77 79.5t29 100.5q0 34 -18.5 62t-42.5 40q0 47 34.5 81t86.5 34q63 0 97 -42.5t34 -104.5q0 -57 -26 -111.5t-66.5 -93.5t-84.5 -66.5t-83 -38.5z" />
    <glyph glyph-name="hyphen.subs" horiz-adv-x="929" 
d="M135 -6v186h660v-186h-660z" />
    <glyph glyph-name="parenleft.subs" horiz-adv-x="569" 
d="M389 -541q-44 46 -87 115t-83 161.5t-65 213.5t-25 246q0 180 47.5 337t120.5 277h195q-160 -286 -160 -614q0 -227 72 -422.5t169 -313.5h-184z" />
    <glyph glyph-name="parenright.subs" horiz-adv-x="569" 
d="M-6 -541q98 119 171 314.5t73 421.5q0 328 -160 614h192q73 -120 120.5 -277.5t47.5 -336.5q0 -125 -24.5 -246t-64.5 -213.5t-83 -162t-88 -114.5h-184z" />
    <glyph glyph-name="plus.subs" horiz-adv-x="929" 
d="M795 74h-236v-238h-188v238h-236v186h236v238h188v-238h236v-186z" />
    <glyph glyph-name="minus.subs" horiz-adv-x="929" 
d="M135 74v186h660v-186h-660z" />
    <glyph glyph-name="multiply.subs" horiz-adv-x="929" 
d="M633 -133l-168 168l-166 -168l-133 133l166 168l-166 166l133 133l166 -168l168 168l131 -133l-166 -166l166 -168z" />
    <glyph glyph-name="equal.subs" horiz-adv-x="929" 
d="M135 209v178h660v-178h-660zM135 -80v178h660v-178h-660z" />
    <glyph glyph-name="divide.subs" horiz-adv-x="929" 
d="M465 330q-52 0 -86.5 34t-34.5 85q0 53 34.5 87.5t86.5 34.5q51 0 87 -35t36 -87q0 -51 -36 -85t-87 -34zM135 82v170h660v-170h-660zM465 -238q-51 0 -86 34.5t-35 86.5q0 51 34.5 86t86.5 35q51 0 87 -35t36 -86q0 -52 -36.5 -86.5t-86.5 -34.5z" />
    <glyph glyph-name="dollar.subs" horiz-adv-x="663" 
d="M393 -416h-119v113q-122 3 -206 49l53 148q77 -39 166 -39q145 0 145 77q0 35 -25.5 54t-80.5 32l-74 19q-195 48 -195 203q0 83 56.5 145.5t156.5 83.5v100h119v-90q94 -2 186 -35l-40 -149q-89 29 -156 29q-146 0 -146 -74q0 -55 97 -74l63 -14q217 -47 217 -211
q0 -87 -55 -153.5t-162 -90.5v-123z" />
    <glyph glyph-name="cent.subs" horiz-adv-x="565" 
d="M471 -172q-46 -22 -100 -25v-106h-129v117q-95 25 -146 97t-51 177t51 178t146 99v114h129v-104q58 -6 102 -27l-35 -147q-49 18 -90 18q-55 0 -89 -32.5t-34 -98.5t34 -98.5t89 -32.5q45 0 90 20z" />
    <glyph glyph-name="sterling.subs" horiz-adv-x="679" 
d="M623 -123v-166h-562v166h50q71 0 109 24t38 70v15h-186v92h110l-10 8q-50 46 -75 87t-25 95q0 94 81.5 152.5t211.5 58.5q123 0 231 -55l-45 -145q-79 45 -174 45q-59 0 -92 -25t-33 -63q0 -40 41 -76l65 -62q16 -16 19 -20h168v-92h-137v-2q0 -66 -58 -107h273z" />
    <glyph glyph-name="florin.subs" horiz-adv-x="552" 
d="M33 -561q-53 0 -96 16l32 139q16 -8 43 -8q38 0 55.5 18.5t20.5 57.5l37 410h-100l14 129h94l6 67q21 211 264 211q29 0 71.5 -9t62.5 -19l-50 -138q-40 15 -75 15q-87 0 -95 -78l-6 -49h156l-14 -131h-148l-37 -422q-9 -106 -65 -157.5t-170 -51.5z" />
    <glyph glyph-name="yen.subs" horiz-adv-x="718" 
d="M625 -186h-136v-103h-178v103h-139v88h139v47h-139v90h139v35l-280 375h198l170 -250l185 250h180l-275 -375v-35h136v-90h-136v-47h136v-88z" />
    <glyph glyph-name="Euro.subs" horiz-adv-x="655" 
 />
    <glyph glyph-name="zero.numr" 
d="M342 657q-99 0 -168 57t-99 144t-30 195q0 61 11 117t34.5 104.5t57.5 84.5t84 56.5t110 20.5q100 0 169.5 -55t99.5 -139t30 -189q0 -108 -30 -195t-99.5 -144t-169.5 -57zM342 823q53 0 85 58t32 172q0 108 -32 162.5t-85 54.5t-83 -54t-30 -163q0 -114 30 -172t83 -58
z" />
    <glyph glyph-name="one.numr" 
d="M608 674h-526v164h172v389l-162 -70v174l176 82q63 29 119 29h49v-604h172v-164z" />
    <glyph glyph-name="two.numr" 
d="M88 674v145q0 34 11.5 64t24.5 49t42 42.5t44 32.5t50 31l62 39q47 28 69.5 55.5t22.5 63.5q0 38 -33 64t-88 26q-86 0 -168 -45l-45 145q117 54 233 54q130 0 208.5 -60t78.5 -159q0 -139 -168 -248l-59 -35q-80 -49 -80 -82v-18h311v-164h-516z" />
    <glyph glyph-name="three.numr" 
d="M291 657q-126 0 -219 41l55 154q68 -29 149 -29q61 0 88 24.5t27 59.5q0 40 -29.5 61t-85.5 21h-90v150h86q45 0 70 19t25 54q0 76 -99 76q-58 0 -151 -33l-41 146q38 16 101.5 27.5t117.5 11.5q129 0 193.5 -53t64.5 -140q0 -53 -28.5 -103t-65.5 -73q49 -14 84 -61
t35 -107q0 -110 -71 -178t-216 -68z" />
    <glyph glyph-name="four.numr" 
d="M385 981v295l-174 -295h174zM639 836h-84v-162h-170v162h-332v137l291 461h211v-453h84v-145z" />
    <glyph glyph-name="five.numr" 
d="M274 657q-132 0 -200 39l59 158q68 -33 146 -33q74 0 114.5 31t40.5 86q0 40 -31.5 67t-87.5 27q-53 0 -96 -26l-94 22v406h457v-166h-295v-113q47 14 96 14q98 0 163.5 -56.5t65.5 -164.5q0 -134 -87 -212.5t-251 -78.5z" />
    <glyph glyph-name="six.numr" 
d="M637 936q0 -119 -78 -199t-199 -80q-137 0 -223 102t-86 273v25q0 83 21.5 149.5t56.5 109.5t82.5 71.5t96.5 40.5t102 12q95 0 172 -37l-31 -152q-64 31 -145 31q-77 -2 -120.5 -44t-49.5 -146q64 71 167 71q107 0 170.5 -67.5t63.5 -159.5zM354 823q43 0 71 29t28 72
t-26 73.5t-73 30.5q-37 0 -69 -21t-49 -57q8 -56 39 -91.5t79 -35.5z" />
    <glyph glyph-name="seven.numr" 
d="M365 674h-201q35 310 258 596h-344v164h530l2 -117q-84 -114 -154.5 -286.5t-90.5 -356.5z" />
    <glyph glyph-name="eight.numr" 
d="M338 657q-126 0 -202.5 57.5t-76.5 153.5q0 62 37.5 110.5t110.5 70.5q-121 59 -121 180q0 93 71 152t187 59q115 0 186.5 -52.5t71.5 -134.5q0 -115 -115 -159q142 -62 142 -203q0 -107 -80 -170.5t-211 -63.5zM362 1128l9 -2q57 34 57 93q0 36 -23.5 58.5t-60.5 22.5
q-36 0 -61 -22t-25 -55q0 -35 26.5 -60t77.5 -35zM344 803q48 0 79.5 28t31.5 72q0 37 -24.5 59.5t-76.5 36.5l-22 7q-49 -10 -74 -40t-25 -63q0 -44 31.5 -72t79.5 -28z" />
    <glyph glyph-name="nine.numr" 
d="M352 1059q58 0 103 31v36q0 67 -30 108.5t-87 41.5q-47 0 -77 -30.5t-30 -76.5t33 -78t88 -32zM301 657q-63 0 -119.5 18t-83.5 42l33 151q61 -51 174 -51q139 0 150 160q-61 -47 -148 -47q-121 0 -189.5 67t-68.5 172q0 118 81 194.5t210 76.5q137 0 218 -92.5
t81 -251.5v-58q0 -105 -26.5 -181t-74 -118.5t-106.5 -62t-131 -19.5z" />
    <glyph glyph-name="dollar.numr" horiz-adv-x="663" 
d="M393 545h-119v112q-120 3 -206 50l53 147q77 -39 166 -39q145 0 145 78q0 35 -25.5 54t-80.5 32l-74 18q-195 48 -195 203q0 84 56.5 146.5t156.5 83.5v100h119v-90q94 -2 186 -35l-40 -150q-89 29 -156 29q-146 0 -146 -74q0 -54 97 -73l63 -15q217 -47 217 -211
q0 -87 -55 -153t-162 -90v-123z" />
    <glyph glyph-name="parenleft.numr" horiz-adv-x="569" 
d="M389 420q-44 46 -87 115t-83.5 161.5t-65 213t-24.5 245.5q0 180 47.5 337t120.5 277h195q-160 -286 -160 -614q0 -227 72 -422t169 -313h-184z" />
    <glyph glyph-name="parenright.numr" horiz-adv-x="569" 
d="M-6 420q98 119 171 314t73 421q0 328 -160 614h192q73 -120 120.5 -277.5t47.5 -336.5q0 -125 -24.5 -245.5t-64.5 -213t-83 -162t-88 -114.5h-184z" />
    <glyph glyph-name="hyphen.numr" horiz-adv-x="929" 
d="M135 954v187h660v-187h-660z" />
    <glyph glyph-name="zero.dnom" 
d="M342 -16q-60 0 -110 21.5t-84 58t-57.5 87t-34.5 108t-11 120.5q0 106 30 190t99 138.5t168 54.5q100 0 169.5 -54.5t99.5 -138.5t30 -190q0 -80 -18 -149.5t-53 -125.5t-93.5 -88t-134.5 -32zM342 150q53 0 85 58t32 171q0 108 -32 163.5t-85 55.5t-83 -55t-30 -164
q0 -114 30 -171.5t83 -57.5z" />
    <glyph glyph-name="one.dnom" 
d="M608 0h-526v166h172v387l-162 -70v176l176 82q66 27 119 27h49v-602h172v-166z" />
    <glyph glyph-name="two.dnom" 
d="M88 0v147q0 52 28 95.5t53 63t79 53.5q8 5 12 8l62 36q47 30 69.5 57t22.5 62q0 39 -32.5 64.5t-88.5 25.5q-86 0 -168 -45l-45 146q119 55 233 55q130 0 208.5 -60t78.5 -159q0 -143 -168 -248l-59 -37q-80 -49 -80 -80v-18h311v-166h-516z" />
    <glyph glyph-name="three.dnom" 
d="M291 -16q-122 0 -219 43l55 151q73 -28 149 -28q61 0 88 24.5t27 61.5q0 38 -29.5 58.5t-85.5 20.5h-90v150h86q45 0 70 20t25 56q0 73 -99 73q-55 0 -151 -30l-41 143q37 17 100.5 29t118.5 12q129 0 193.5 -54t64.5 -141q0 -53 -28.5 -103t-65.5 -71q49 -16 84 -63.5
t35 -106.5q0 -110 -71 -177.5t-216 -67.5z" />
    <glyph glyph-name="four.dnom" 
d="M385 309v293l-174 -293h174zM639 162h-84v-162h-170v162h-332v139l291 461h211v-453h84v-147z" />
    <glyph glyph-name="five.dnom" 
d="M274 -16q-129 0 -200 41l59 155q71 -30 146 -30t115 30t40 86q0 40 -31.5 67t-87.5 27q-53 0 -96 -26l-94 22v406h457v-166h-295v-115q46 17 96 17q97 0 163 -58t66 -166q0 -133 -87.5 -211.5t-250.5 -78.5z" />
    <glyph glyph-name="six.dnom" 
d="M637 264q0 -120 -77.5 -200t-199.5 -80q-137 0 -223 101.5t-86 272.5v27q0 102 32 179t85.5 120t114 63.5t127.5 20.5q102 0 172 -39l-31 -151q-58 32 -145 32q-77 -2 -120.5 -45t-49.5 -147q67 74 167 74q107 0 170.5 -68t63.5 -160zM354 150q42 0 70.5 29.5t28.5 72.5
q0 41 -26 71.5t-73 30.5q-37 0 -69 -20t-49 -55q8 -57 39 -93t79 -36z" />
    <glyph glyph-name="seven.dnom" 
d="M365 0h-201q19 168 90 321t168 275h-344v166h530l2 -119q-84 -114 -154.5 -286t-90.5 -357z" />
    <glyph glyph-name="eight.dnom" 
d="M338 -16q-126 0 -202.5 57.5t-76.5 153.5q0 61 37 109.5t111 70.5q-121 59 -121 182q0 92 71 151.5t187 59.5q115 0 186.5 -53t71.5 -135q0 -116 -115 -160q142 -62 142 -201q0 -108 -79.5 -171.5t-211.5 -63.5zM362 457l9 -2q57 34 57 90q0 37 -23.5 59.5t-60.5 22.5
q-36 0 -61 -22t-25 -56q0 -33 26.5 -57.5t77.5 -34.5zM344 129q48 0 79.5 28t31.5 72q0 73 -101 97l-22 6q-49 -10 -74 -39.5t-25 -63.5q0 -44 31.5 -72t79.5 -28z" />
    <glyph glyph-name="nine.dnom" 
d="M352 385q61 0 103 33v37q0 66 -29.5 107.5t-87.5 41.5q-47 0 -77 -30.5t-30 -75.5q0 -48 33 -80.5t88 -32.5zM301 -16q-64 0 -120.5 18t-82.5 43l33 150q64 -50 174 -50q139 0 150 158q-61 -47 -148 -47q-121 0 -189.5 68t-68.5 174q0 117 81 193.5t210 76.5
q137 0 218 -93t81 -253v-57q0 -105 -26.5 -181t-74 -118.5t-106.5 -62t-131 -19.5z" />
    <glyph glyph-name="dollar.dnom" horiz-adv-x="663" 
d="M393 -127h-119v111q-118 3 -206 51l53 147q80 -41 166 -41q145 0 145 80q0 35 -25 53t-81 31l-74 19q-195 51 -195 204q0 83 56.5 145t156.5 85v100h119v-90q101 -2 186 -37l-40 -147q-98 28 -156 28q-73 0 -109.5 -19.5t-36.5 -53.5q0 -57 97 -76l63 -14
q217 -47 217 -209q0 -88 -54.5 -155t-162.5 -91v-121z" />
    <glyph glyph-name="parenleft.dnom" horiz-adv-x="569" 
d="M389 -254q-44 46 -87 115t-83 162t-65 213t-25 245q0 181 47.5 339t120.5 278h195q-160 -286 -160 -617q0 -227 72 -421t169 -314h-184z" />
    <glyph glyph-name="parenright.dnom" horiz-adv-x="569" 
d="M-6 -254q98 121 171 315t73 420q0 327 -160 617h192q168 -279 168 -617q0 -164 -43.5 -319.5t-99.5 -254t-117 -161.5h-184z" />
    <glyph glyph-name="hyphen.dnom" horiz-adv-x="929" 
d="M135 283v186h660v-186h-660z" />
    <glyph glyph-name="IJacute" horiz-adv-x="1515" 
d="M1112 1516l225 239h305l-319 -239h-211zM104 1513l226 240h305l-320 -240h-211zM141 0v1434h254v-1434h-254zM924 -25q-228 0 -367 148l186 162q72 -80 179 -80q46 0 84 14t71.5 46.5t52.5 93.5t19 147v928h252v-945q0 -114 -29.5 -205t-77 -148t-111.5 -94t-128 -52
t-131 -15z" />
    <glyph glyph-name="ijacute" horiz-adv-x="1050" 
d="M670 1171l123 314h266l-197 -314h-192zM147 1171l123 314h267l-199 -314h-191zM139 0v1024h254v-1024h-254zM553 -516q-95 0 -160 24l29 197q36 -16 84 -16q81 0 116 43.5t35 138.5v1153h254v-1174q0 -189 -90 -277.5t-268 -88.5z" />
    <glyph glyph-name="gravecomb.case" horiz-adv-x="827" 
d="M369 1604l-258 247h208q80 0 121 -63l123 -184h-194z" />
    <glyph glyph-name="acutecomb.case" horiz-adv-x="882" 
d="M231 1610l226 237h305l-320 -237h-211z" />
    <glyph glyph-name="dieresiscomb.case" horiz-adv-x="1110" 
d="M766 1589q-61 0 -102 42.5t-41 105.5t41 106t102 43q59 0 100 -43t41 -106t-41 -105.5t-100 -42.5zM330 1589q-60 0 -102 42.5t-42 105.5t42 106t102 43q59 0 101 -43t42 -106q0 -62 -42 -105t-101 -43z" />
    <glyph glyph-name="circumflexcomb.case" horiz-adv-x="1103" 
d="M672 1610l-113 123l-115 -123h-239l244 239h145q38 0 62.5 -9.5t50.5 -35.5l204 -194h-239z" />
    <glyph glyph-name="tildecomb.case" horiz-adv-x="1116" 
d="M242 1610q-23 29 -23 88q0 75 51 128.5t140 53.5q48 0 89.5 -16t65.5 -36t55.5 -36t63.5 -16q40 0 60 37t20 75h119q16 -29 16 -82q0 -89 -56 -150t-138 -61q-51 0 -92.5 16t-64 35.5t-52.5 35.5t-60 16q-39 0 -57.5 -28t-18.5 -60h-118z" />
    <glyph glyph-name="exclamdown.case" horiz-adv-x="557" 
d="M279 1122q-67 0 -113.5 46t-46.5 114t46.5 115t113.5 47t114 -47t47 -115q0 -67 -46.5 -113.5t-114.5 -46.5zM139 0l64 973h153l64 -973h-281z" />
    <glyph glyph-name="questiondown.case" horiz-adv-x="935" 
d="M618 1122q-68 0 -114.5 46.5t-46.5 113.5q0 68 47 115t114 47q68 0 115 -47t47 -115q0 -67 -47 -113.5t-115 -46.5zM524 -25q-120 0 -211 30t-145 84t-80.5 122.5t-26.5 150.5q0 104 37 186t102 133.5t145 80.5t173 37l12 178h179l16 -326q-76 0 -145 -12.5t-131.5 -39.5
t-100 -78.5t-37.5 -121.5q0 -96 57 -153.5t185 -57.5q126 0 262 72l51 -213q-68 -34 -162 -53t-180 -19z" />
    <glyph glyph-name="braceleft.case" horiz-adv-x="763" 
d="M541 -25q-68 0 -125 13t-104 41t-74 78t-27 118q0 48 20.5 137.5t20.5 131.5q0 55 -32 87.5t-91 32.5h-35v189h35q59 0 91 32.5t32 86.5q0 43 -20.5 134.5t-20.5 139.5q0 68 27 117.5t74.5 77.5t104 40.5t124.5 12.5q73 0 127 -12l2 -168q-213 0 -213 -131
q0 -41 18.5 -115.5t18.5 -114.5q0 -89 -42.5 -136.5t-107.5 -55.5v-6q65 -10 107.5 -57t42.5 -134q0 -39 -18.5 -112t-18.5 -113q0 -133 213 -133l-2 -168q-58 -13 -127 -13z" />
    <glyph glyph-name="braceright.case" horiz-adv-x="763" 
d="M223 -25q-69 0 -127 13l-2 168q213 0 213 133q0 40 -18.5 113t-18.5 112q0 87 42.5 134t107.5 57v6q-65 8 -107.5 55.5t-42.5 136.5q0 40 18.5 114.5t18.5 115.5q0 131 -213 131l2 168q54 12 127 12q68 0 124.5 -12.5t104 -40.5t74.5 -77.5t27 -117.5q0 -48 -20.5 -139.5
t-20.5 -134.5q0 -54 32 -86.5t91 -32.5h35v-189h-35q-59 0 -91 -32.5t-32 -87.5q0 -42 20.5 -131.5t20.5 -137.5q0 -68 -27 -118t-74 -78t-104 -41t-125 -13z" />
    <glyph glyph-name="bracketleft.case" horiz-adv-x="704" 
d="M573 193v-193h-401v1434h401v-193h-147v-1048h147z" />
    <glyph glyph-name="bracketright.case" horiz-adv-x="704" 
d="M532 0h-401v193h148v1048h-148v193h401v-1434z" />
    <glyph glyph-name="emdash.case" horiz-adv-x="2269" 
d="M287 629v231h1695v-231h-1695z" />
    <glyph glyph-name="endash.case" horiz-adv-x="1492" 
d="M184 629v231h1125v-231h-1125z" />
    <glyph glyph-name="hyphen.case" horiz-adv-x="1017" 
d="M162 629v231h694v-231h-694z" />
    <glyph glyph-name="guillemotleft.case" horiz-adv-x="1175" 
d="M809 229l-344 410v14l344 410h256l-348 -416l348 -418h-256zM422 229l-344 410v14l344 410h256l-348 -416l348 -418h-256z" />
    <glyph glyph-name="guillemotright.case" horiz-adv-x="1177" 
d="M500 229l348 418l-348 416h256l344 -410v-14l-344 -410h-256zM111 229l348 418l-348 416h256l344 -410v-14l-344 -410h-256z" />
    <glyph glyph-name="guilsinglleft.case" horiz-adv-x="788" 
d="M422 227l-344 410v14l344 410h256l-348 -416l348 -418h-256z" />
    <glyph glyph-name="guilsinglright.case" horiz-adv-x="788" 
d="M111 229l348 418l-348 416h256l344 -410v-14l-344 -410h-256z" />
    <glyph glyph-name="arrowdown.case" horiz-adv-x="1263" 
d="M635 -25h-4l-398 342q-53 48 -53 129v154l355 -299l-7 338v795h207v-795l-6 -340l354 301v-154q0 -81 -53 -129z" />
    <glyph glyph-name="arrowup.case" horiz-adv-x="1263" 
d="M735 778v-778h-207v778l7 340l-355 -301v154q0 84 53 129l398 344h4l395 -344q53 -45 53 -129v-154l-354 301z" />
    <glyph glyph-name="arrowupdn.case" horiz-adv-x="1263" 
d="M629 -25l-393 240q-54 30 -54 125v111l353 -213l-7 233v477l7 232l-355 -213v110q0 97 53 127l398 240h4l395 -240q53 -31 53 -125v-112l-354 215l6 -234v-477l-6 -233l356 213v-109q0 -98 -55 -127l-397 -240h-4z" />
    <glyph glyph-name="arrowboth.case" horiz-adv-x="2385" 
d="M731 281q-78 0 -131 53l-395 397v4l395 393q56 56 131 56h191l-361 -357l361 9h542l363 -9l-363 357h193q75 0 131 -56l393 -393v-4l-393 -397q-53 -53 -131 -53h-193l361 354l-361 -8h-542l-359 8l359 -354h-191z" />
    <glyph glyph-name="arrowleft.case" horiz-adv-x="1585" 
d="M922 627l-359 8l359 -354h-191q-78 0 -131 53l-395 397v4l395 393q56 56 131 56h191l-361 -357l361 9h499v-209h-499z" />
    <glyph glyph-name="arrowright.case" horiz-adv-x="1585" 
d="M854 281h-190l358 354l-358 -8h-500v209h500l360 -9l-360 357h190q75 0 131 -56l395 -393v-4l-395 -397q-53 -53 -131 -53z" />
    <glyph glyph-name="arrowdownleft.case" horiz-adv-x="1792" 
d="M883 0h-701l-2 2v676q0 87 74 141l139 99v-564l1118 1084l158 -172l-1124 -1061h557l-78 -123q-47 -82 -141 -82z" />
    <glyph glyph-name="arrowdownright.case" horiz-adv-x="1789" 
d="M1608 0h-703q-92 0 -139 82l-78 123h557l-1122 1061l156 172l1118 -1082v562l139 -99q74 -54 74 -141v-676z" />
    <glyph glyph-name="arrowupleft.case" horiz-adv-x="1787" 
d="M1665 172l-158 -172l-1114 1079v-563l-139 98q-74 54 -74 142v676l2 2h701q94 0 141 -82l78 -123h-557z" />
    <glyph glyph-name="arrowupright.case" horiz-adv-x="1785" 
d="M1393 516v563l-1114 -1077l-156 172l1118 1055h-557l78 123q47 82 141 82h701l2 -2v-676q0 -88 -74 -142z" />
    <glyph glyph-name="at.case" horiz-adv-x="2080" 
d="M918 -322q-174 0 -322.5 64t-254 178t-165 278.5t-59.5 358.5q0 215 72 398.5t197.5 310.5t300 198.5t374.5 71.5q192 0 358.5 -64.5t286.5 -179t189 -282t69 -365.5q0 -147 -34.5 -261t-92.5 -180.5t-127 -100t-145 -33.5q-138 0 -220.5 93.5t-84.5 239.5v7
q-39 -164 -136 -252t-221 -88q-164 0 -269.5 127.5t-105.5 347.5q0 169 68 304t195 213.5t292 78.5q137 0 248 -60l96 37l35 -10v-698q0 -82 38 -126t102 -44q81 0 138.5 99t57.5 306q0 223 -96.5 393.5t-263 260.5t-377.5 90q-167 0 -310.5 -59t-247 -166t-162 -263.5
t-58.5 -343.5q0 -330 175.5 -528.5t459.5 -198.5q130 0 237 39l41 -145q-133 -46 -278 -46zM956 291q45 0 89.5 33.5t84 99t64.5 180t25 260.5v68q-71 29 -132 29q-129 0 -212.5 -111.5t-83.5 -294.5q0 -122 45.5 -193t119.5 -71z" />
    <glyph glyph-name="colon.case" horiz-adv-x="657" 
d="M330 784q-69 0 -115.5 45.5t-46.5 114.5q0 68 46.5 114t115.5 46q66 0 112.5 -46.5t46.5 -113.5q0 -68 -46 -114t-113 -46zM330 215q-69 0 -115.5 46.5t-46.5 115.5q0 67 47 113.5t115 46.5q66 0 112.5 -47t46.5 -113q0 -69 -46.5 -115.5t-112.5 -46.5z" />
    <glyph glyph-name="periodcentered.case" horiz-adv-x="600" 
d="M301 575q-69 0 -115.5 46t-46.5 114t46.5 115t115.5 47q66 0 113 -47.5t47 -114.5t-47 -113.5t-113 -46.5z" />
    <glyph glyph-name="LA.calt" horiz-adv-x="987" 
d="M119 0v1434h252v-1203h581l-71 -231h-762z" />
    <glyph glyph-name="ZA.calt" horiz-adv-x="1122" 
d="M1008 0h-938v47q0 73 9.5 111.5t39.5 85.5l618 958h-614v232h926v-62q0 -58 -8 -93.5t-29 -68.5l-625 -979h692z" />
    <glyph glyph-name="EA.calt" horiz-adv-x="1101" 
d="M119 0v1434h942v-232h-690v-344h626v-227h-626v-400h690l-70 -231h-872z" />
    <glyph glyph-name="EgraveA.calt" horiz-adv-x="1101" 
d="M535 1513l-259 248h207q80 0 121 -63l125 -185h-194zM119 0v1434h942v-232h-690v-344h626v-227h-626v-400h690l-70 -231h-872z" />
    <glyph glyph-name="EacuteA.calt" horiz-adv-x="1101" 
d="M408 1520l225 237h303l-318 -237h-210zM119 0v1434h942v-232h-690v-344h626v-227h-626v-400h690l-70 -231h-872z" />
    <glyph glyph-name="EcircumflexA.calt" horiz-adv-x="1101" 
d="M696 1520l-112 122l-115 -122h-240l244 239h145q38 0 62.5 -9.5t50.5 -35.5l205 -194h-240zM119 0v1434h942v-232h-690v-344h626v-227h-626v-400h690l-70 -231h-872z" />
    <glyph glyph-name="EdieresisA.calt" horiz-adv-x="1101" 
d="M793 1499q-60 0 -102 42.5t-42 105.5t42 106t102 43t101.5 -43t41.5 -106t-41.5 -105.5t-101.5 -42.5zM356 1499q-60 0 -101.5 42.5t-41.5 105.5t41.5 106t101.5 43t102 -43t42 -106t-42 -105.5t-102 -42.5zM119 0v1434h942v-232h-690v-344h626v-227h-626v-400h690
l-70 -231h-872z" />
    <glyph glyph-name="LM.calt" horiz-adv-x="999" 
d="M119 0v1434h252v-1203h590l-46 -231h-796z" />
    <glyph glyph-name="EM.calt" horiz-adv-x="1114" 
d="M119 0v1434h942v-232h-690v-344h626v-227h-626v-400h690l-45 -231h-897z" />
    <glyph glyph-name="EgraveM.calt" horiz-adv-x="1114" 
d="M535 1513l-259 248h207q80 0 121 -63l125 -185h-194zM119 0v1434h942v-232h-690v-344h626v-227h-626v-400h690l-45 -231h-897z" />
    <glyph glyph-name="EacuteM.calt" horiz-adv-x="1114" 
d="M408 1520l225 237h303l-318 -237h-210zM119 0v1434h942v-232h-690v-344h626v-227h-626v-400h690l-45 -231h-897z" />
    <glyph glyph-name="EcircumflexM.calt" horiz-adv-x="1114" 
d="M696 1520l-112 122l-115 -122h-240l244 239h145q38 0 62.5 -9.5t50.5 -35.5l205 -194h-240zM119 0v1434h942v-232h-690v-344h626v-227h-626v-400h690l-45 -231h-897z" />
    <glyph glyph-name="EdieresisM.calt" horiz-adv-x="1114" 
d="M793 1499q-60 0 -102 42.5t-42 105.5t42 106t102 43t101.5 -43t41.5 -106t-41.5 -105.5t-101.5 -42.5zM356 1499q-60 0 -101.5 42.5t-41.5 105.5t41.5 106t101.5 43t102 -43t42 -106t-42 -105.5t-102 -42.5zM119 0v1434h942v-232h-690v-344h626v-227h-626v-400h690
l-45 -231h-897z" />
    <glyph glyph-name="EW.calt" horiz-adv-x="1136" 
d="M119 0v1434h905l37 -232h-690v-344h626v-227h-626v-400h690v-231h-942z" />
    <glyph glyph-name="EgraveW.calt" horiz-adv-x="1136" 
d="M535 1513l-259 248h207q80 0 121 -63l125 -185h-194zM119 0v1434h905l37 -232h-690v-344h626v-227h-626v-400h690v-231h-942z" />
    <glyph glyph-name="EacuteW.calt" horiz-adv-x="1136" 
d="M408 1520l225 237h303l-318 -237h-210zM119 0v1434h905l37 -232h-690v-344h626v-227h-626v-400h690v-231h-942z" />
    <glyph glyph-name="EcircumflexW.calt" horiz-adv-x="1136" 
d="M696 1520l-112 122l-115 -122h-240l244 239h145q38 0 62.5 -9.5t50.5 -35.5l205 -194h-240zM119 0v1434h905l37 -232h-690v-344h626v-227h-626v-400h690v-231h-942z" />
    <glyph glyph-name="EdieresisW.calt" horiz-adv-x="1136" 
d="M793 1499q-60 0 -102 42.5t-42 105.5t42 106t102 43t101.5 -43t41.5 -106t-41.5 -105.5t-101.5 -42.5zM356 1499q-60 0 -101.5 42.5t-41.5 105.5t41.5 106t101.5 43t102 -43t42 -106t-42 -105.5t-102 -42.5zM119 0v1434h905l37 -232h-690v-344h626v-227h-626v-400h690
v-231h-942z" />
    <glyph glyph-name="EV.calt" horiz-adv-x="1120" 
d="M119 0v1434h872l70 -232h-690v-344h626v-227h-626v-400h690v-231h-942z" />
    <glyph glyph-name="EgraveV.calt" horiz-adv-x="1120" 
d="M535 1513l-259 248h207q80 0 121 -63l125 -185h-194zM119 0v1434h872l70 -232h-690v-344h626v-227h-626v-400h690v-231h-942z" />
    <glyph glyph-name="EacuteV.calt" horiz-adv-x="1120" 
d="M408 1520l225 237h303l-318 -237h-210zM119 0v1434h872l70 -232h-690v-344h626v-227h-626v-400h690v-231h-942z" />
    <glyph glyph-name="EcircumflexV.calt" horiz-adv-x="1120" 
d="M696 1520l-112 122l-115 -122h-240l244 239h145q38 0 62.5 -9.5t50.5 -35.5l205 -194h-240zM119 0v1434h872l70 -232h-690v-344h626v-227h-626v-400h690v-231h-942z" />
    <glyph glyph-name="EdieresisV.calt" horiz-adv-x="1120" 
d="M793 1499q-60 0 -102 42.5t-42 105.5t42 106t102 43t101.5 -43t41.5 -106t-41.5 -105.5t-101.5 -42.5zM356 1499q-60 0 -101.5 42.5t-41.5 105.5t41.5 106t101.5 43t102 -43t42 -106t-42 -105.5t-102 -42.5zM119 0v1434h872l70 -232h-690v-344h626v-227h-626v-400h690
v-231h-942z" />
    <glyph glyph-name="TW.calt" horiz-adv-x="1136" 
d="M442 0v1194l-391 39v201h1002l34 -201l-393 -39v-1194h-252z" />
    <glyph glyph-name="TV.calt" horiz-adv-x="1122" 
d="M442 0v1194l-391 39v201h979l57 -201l-393 -39v-1194h-252z" />
    </font>
</defs>
</svg>
